<svg width="181" height="30" viewBox="0 0 181 30" fill="none" xmlns="http://www.w3.org/2000/svg">
<rect opacity="0.3" y="30" width="30" height="1" transform="rotate(-90 0 30)" fill="#F2EFE8"/>
<rect opacity="0.3" x="150" y="30" width="30" height="1" transform="rotate(-90 150 30)" fill="#F2EFE8"/>
<rect opacity="0.3" x="180" y="30" width="30" height="1" transform="rotate(-90 180 30)" fill="#F2EFE8"/>
<rect opacity="0.3" x="135" y="30" width="11" height="1" transform="rotate(-90 135 30)" fill="#F2EFE8"/>
<rect opacity="0.3" x="165" y="30" width="11" height="1" transform="rotate(-90 165 30)" fill="#F2EFE8"/>
<rect opacity="0.3" x="105" y="30" width="11" height="1" transform="rotate(-90 105 30)" fill="#F2EFE8"/>
<rect opacity="0.3" x="45" y="30" width="11" height="1" transform="rotate(-90 45 30)" fill="#F2EFE8"/>
<rect opacity="0.3" x="75" y="30" width="11" height="1" transform="rotate(-90 75 30)" fill="#F2EFE8"/>
<rect opacity="0.3" x="15" y="30" width="11" height="1" transform="rotate(-90 15 30)" fill="#F2EFE8"/>
<rect opacity="0.3" x="120" y="30" width="30" height="1" transform="rotate(-90 120 30)" fill="#F2EFE8"/>
<rect x="90" y="30" width="30" height="1" transform="rotate(-90 90 30)" fill="#F2EFE8"/>
<rect opacity="0.3" x="60" y="30" width="30" height="1" transform="rotate(-90 60 30)" fill="#F2EFE8"/>
<rect opacity="0.3" x="30" y="30" width="30" height="1" transform="rotate(-90 30 30)" fill="#F2EFE8"/>
</svg>
