<svg width="60" height="60" viewBox="0 0 60 60" fill="none" xmlns="http://www.w3.org/2000/svg">
<g clip-path="url(#clip0_4950_46648)">
<circle cx="30" cy="30" r="29.5" stroke="#87A4BC"/>
<g clip-path="url(#clip1_4950_46648)">
<path d="M25.1466 29.4525C24.9536 30.335 24.1664 30.9978 23.2268 30.9978C22.9763 30.9978 22.7733 31.2009 22.7733 31.4514C22.7733 31.7019 22.9763 31.905 23.2268 31.905C24.6646 31.905 25.8588 30.8432 26.0671 29.4626C26.9474 29.3674 27.76 28.9752 28.3891 28.3331C28.4714 28.2468 28.5164 28.1316 28.5143 28.0124C28.5123 27.8931 28.4634 27.7795 28.3782 27.696C28.2931 27.6126 28.1784 27.566 28.0592 27.5664C27.9399 27.5668 27.8257 27.6142 27.7411 27.6983C27.1847 28.2661 26.4407 28.5788 25.6458 28.5788C24.0285 28.5788 22.7128 27.2631 22.7128 25.6458C22.7128 25.3952 22.5097 25.1922 22.2592 25.1922C22.0087 25.1922 21.8057 25.3952 21.8057 25.6458C21.8057 27.594 23.2643 29.2068 25.1466 29.4525ZM27.067 33.3866C27.067 33.2663 27.0192 33.1509 26.9342 33.0659C26.8491 32.9808 26.7337 32.933 26.6134 32.933C24.496 32.933 22.7733 34.6557 22.7733 36.7732C22.7733 36.7951 22.7741 36.8171 22.7744 36.839C22.6037 36.8156 22.4316 36.8038 22.2592 36.8035C22.0087 36.8035 21.8057 37.0065 21.8057 37.257C21.8057 37.5076 22.0087 37.7106 22.2592 37.7106C23.8765 37.7106 25.1923 39.0263 25.1923 40.6436C25.1923 40.8942 25.3953 41.0972 25.6458 41.0972C25.8963 41.0972 26.0994 40.8942 26.0994 40.6436C26.0994 39.0343 25.1039 37.6539 23.6967 37.0836C23.6858 36.9805 23.6804 36.8769 23.6804 36.7732C23.6804 35.1559 24.9962 33.8402 26.6134 33.8402C26.7337 33.8402 26.8491 33.7924 26.9342 33.7073C27.0192 33.6223 27.067 33.5069 27.067 33.3866Z" fill="#BCC8D2"/>
<path d="M42.5486 29.5162C42.549 29.008 42.4483 28.5049 42.2524 28.0361C42.0564 27.5672 41.7691 27.1421 41.4071 26.7854C41.5226 26.4165 41.5812 26.0323 41.581 25.6458C41.581 23.7787 40.2414 22.2193 38.4729 21.8764C38.609 21.5366 38.6787 21.1738 38.6782 20.8078C38.6782 19.6251 37.9596 18.6073 36.9362 18.1674C35.2311 16.8093 33.3662 16 31.9352 16C31.1398 16 30.4344 16.3912 30 16.9908C29.5656 16.3912 28.8602 16 28.0648 16C26.6338 16 24.769 16.8093 23.0639 18.1674C22.0405 18.6073 21.3218 19.6251 21.3218 20.8078C21.3218 21.1784 21.3919 21.5395 21.5271 21.8764C19.7587 22.2193 18.419 23.7787 18.419 25.6458C18.419 26.0339 18.4774 26.4159 18.5929 26.7854C18.231 27.1421 17.9436 27.5672 17.7477 28.0361C17.5517 28.5049 17.451 29.008 17.4514 29.5162C17.4514 30.3234 17.7023 31.0729 18.1295 31.6918C17.6856 32.3336 17.4514 33.0822 17.4514 33.8704C17.4514 35.2667 18.2126 36.546 19.4178 37.2205C19.3971 37.3932 19.3866 37.5669 19.3866 37.7408C19.3866 39.6243 20.6152 41.2894 22.3977 41.8569C23.173 43.1839 24.5854 44 26.1296 44C27.8226 44 29.2906 43.0215 30 41.6007C30.7094 43.0215 32.1774 44 33.8704 44C35.4147 44 36.827 43.1839 37.6023 41.8569C39.3849 41.2894 40.6134 39.6242 40.6134 37.7408C40.6134 37.567 40.6029 37.393 40.5822 37.2205C41.7874 36.546 42.5486 35.2667 42.5486 33.8704C42.5486 33.0822 42.3144 32.3336 41.8705 31.6918C42.2977 31.0729 42.5486 30.3234 42.5486 29.5162ZM26.1296 43.0929C24.8579 43.0929 23.699 42.3917 23.1053 41.2631C23.0762 41.2078 23.036 41.1591 22.9872 41.1201C22.9384 41.0811 22.8821 41.0525 22.8218 41.0363C21.3333 40.6357 20.2937 39.2806 20.2937 37.7408C20.2937 37.5104 20.317 37.2796 20.3628 37.0548C20.3834 36.9536 20.3688 36.8484 20.3215 36.7565C20.2742 36.6647 20.197 36.5918 20.1026 36.5498C19.0431 36.0788 18.3585 35.0271 18.3585 33.8704C18.3585 33.3443 18.495 32.8415 18.7553 32.3961C19.4324 32.993 20.3201 33.3564 21.2916 33.3564C21.5421 33.3564 21.7452 33.1534 21.7452 32.9028C21.7452 32.6523 21.5421 32.4492 21.2916 32.4492C19.6743 32.4492 18.3585 31.1335 18.3585 29.5162C18.3585 28.6456 18.7427 27.8251 19.4125 27.2653C19.4862 27.2037 19.5384 27.1203 19.5617 27.0271C19.5849 26.9339 19.578 26.8357 19.5419 26.7467C19.3994 26.3972 19.3261 26.0233 19.3261 25.6458C19.3261 24.0285 20.6419 22.7127 22.2592 22.7127C23.8765 22.7127 25.1922 24.0285 25.1922 25.6458C25.1922 25.8963 25.3953 26.0994 25.6458 26.0994C25.8963 26.0994 26.0994 25.8963 26.0994 25.6458C26.0994 23.6113 24.5087 21.9421 22.5059 21.8144C22.3243 21.5109 22.229 21.1658 22.229 20.8078C22.229 19.9993 22.7198 19.3035 23.419 19.002C23.4463 18.994 23.4728 18.9833 23.4981 18.9702C23.7205 18.8855 23.9564 18.8422 24.1944 18.8423C24.9538 18.8423 25.6317 19.2669 25.9637 19.9505C25.9897 20.0041 26.026 20.0521 26.0705 20.0916C26.1151 20.1312 26.167 20.1616 26.2233 20.181C26.2795 20.2005 26.3391 20.2087 26.3986 20.2052C26.458 20.2017 26.5162 20.1864 26.5698 20.1604C26.6234 20.1344 26.6713 20.0981 26.7109 20.0535C26.7504 20.009 26.7808 19.9571 26.8003 19.9008C26.8198 19.8445 26.828 19.785 26.8244 19.7255C26.8209 19.6661 26.8057 19.6079 26.7796 19.5543C26.4007 18.774 25.6835 18.2131 24.8576 18.0145C26.0152 17.3081 27.1549 16.9071 28.0648 16.9071C28.8818 16.9071 29.5464 17.5717 29.5464 18.3888V24.2579C29.1389 23.9346 28.6242 23.7408 28.0648 23.7408C27.8143 23.7408 27.6112 23.9438 27.6112 24.1944C27.6112 24.4449 27.8143 24.6479 28.0648 24.6479C28.8818 24.6479 29.5464 25.3126 29.5464 26.1296V37.032C28.9825 36.3044 28.1875 35.7553 27.2523 35.504C27.1947 35.4882 27.1345 35.4839 27.0751 35.4914C27.0158 35.4989 26.9586 35.518 26.9067 35.5477C26.8548 35.5774 26.8093 35.6171 26.7728 35.6644C26.7363 35.7118 26.7095 35.7659 26.694 35.8237C26.6785 35.8814 26.6745 35.9416 26.6824 36.0009C26.6902 36.0602 26.7097 36.1173 26.7397 36.169C26.7698 36.2207 26.8097 36.266 26.8573 36.3022C26.9049 36.3384 26.9591 36.3649 27.017 36.3801C28.5063 36.7802 29.5464 38.1355 29.5464 39.676C29.5464 41.5601 28.0136 43.0929 26.1296 43.0929ZM39.8974 36.5499C39.8031 36.5919 39.7258 36.6648 39.6785 36.7566C39.6312 36.8484 39.6167 36.9536 39.6373 37.0549C39.6832 37.2806 39.7063 37.5105 39.7063 37.7409C39.7063 39.2806 38.6667 40.6358 37.1782 41.0364C37.1179 41.0526 37.0616 41.0811 37.0128 41.1202C36.964 41.1592 36.9238 41.2079 36.8947 41.2632C36.301 42.3917 35.1422 43.0929 33.8704 43.0929C31.9864 43.0929 30.4536 41.5601 30.4536 39.676C30.4536 39.5485 30.4476 39.422 30.4366 39.2968C30.4477 39.2572 30.4535 39.2163 30.4536 39.1751V24.1944C30.4536 23.3774 31.1183 22.7127 31.9352 22.7127C32.1857 22.7127 32.3888 22.5097 32.3888 22.2592C32.3888 22.0086 32.1857 21.8056 31.9352 21.8056C31.3758 21.8056 30.8611 21.9994 30.4536 22.3227V18.3888C30.4536 17.5717 31.1183 16.9071 31.9352 16.9071C32.8451 16.9071 33.9848 17.3081 35.1424 18.0145C34.3165 18.2131 33.5993 18.774 33.2204 19.5543C33.1943 19.6079 33.1791 19.6661 33.1756 19.7255C33.172 19.785 33.1803 19.8445 33.1997 19.9008C33.2192 19.9571 33.2496 20.009 33.2892 20.0535C33.3287 20.0981 33.3766 20.1344 33.4302 20.1604C33.4838 20.1864 33.542 20.2016 33.6014 20.2052C33.6609 20.2087 33.7205 20.2005 33.7768 20.181C33.8331 20.1615 33.885 20.1312 33.9295 20.0916C33.974 20.0521 34.0104 20.0041 34.0364 19.9505C34.3683 19.2669 35.0462 18.8423 35.8056 18.8423C36.0507 18.8423 36.2854 18.8878 36.5019 18.9702C36.5275 18.9835 36.5539 18.9939 36.5809 19.002C37.2802 19.3034 37.7711 19.9992 37.7711 20.8078C37.7711 21.1658 37.6757 21.5109 37.4942 21.8144C35.4913 21.9421 33.9007 23.6113 33.9007 25.6458C33.9007 25.8963 34.1037 26.0994 34.3542 26.0994C34.6047 26.0994 34.8078 25.8963 34.8078 25.6458C34.8078 24.0285 36.1235 22.7127 37.7408 22.7127C39.3581 22.7127 40.6739 24.0285 40.6739 25.6458C40.6739 26.0234 40.6013 26.3938 40.4582 26.7467C40.4221 26.8357 40.4151 26.9339 40.4384 27.0271C40.4617 27.1203 40.5139 27.2037 40.5876 27.2653C41.2573 27.8251 41.6415 28.6456 41.6415 29.5162C41.6415 31.1335 40.3257 32.4492 38.7084 32.4492C38.4579 32.4492 38.2549 32.6523 38.2549 32.9028C38.2549 33.1534 38.4579 33.3564 38.7084 33.3564C39.6799 33.3564 40.5676 32.993 41.2447 32.3961C41.5051 32.8415 41.6415 33.3443 41.6415 33.8704C41.6415 35.0271 40.9569 36.0788 39.8974 36.5499Z" fill="#BCC8D2"/>
<path d="M37.7409 30.514C36.8013 30.514 36.0141 29.8512 35.8211 28.9687C37.7034 28.723 39.162 27.1102 39.162 25.162C39.162 24.9114 38.959 24.7084 38.7085 24.7084C38.458 24.7084 38.2549 24.9114 38.2549 25.162C38.2549 26.7793 36.9391 28.095 35.3219 28.095C34.527 28.095 33.783 27.7823 33.2266 27.2145C33.1425 27.1285 33.0276 27.0796 32.9073 27.0783C32.787 27.0771 32.6711 27.1237 32.5852 27.2079C32.4993 27.2921 32.4503 27.407 32.4491 27.5272C32.4479 27.6475 32.4945 27.7634 32.5786 27.8493C33.2077 28.4914 34.0203 28.8836 34.9006 28.9788C35.1089 30.3594 36.3031 31.4212 37.7409 31.4212C37.9914 31.4212 38.1944 31.2182 38.1944 30.9676C38.1944 30.7171 37.9914 30.514 37.7409 30.514ZM36.2895 35.8359C36.1147 35.8359 35.9429 35.8487 35.7743 35.8714C35.7746 35.8495 35.7754 35.8275 35.7754 35.8056C35.7754 33.6881 34.0527 31.9654 31.9353 31.9654C31.6848 31.9654 31.4817 32.1685 31.4817 32.419C31.4817 32.6696 31.6848 32.8726 31.9353 32.8726C33.5525 32.8726 34.8683 34.1883 34.8683 35.8056C34.8683 35.9093 34.8628 36.0129 34.852 36.116C33.4448 36.6863 32.4493 38.0667 32.4493 39.676C32.4493 39.9266 32.6524 40.1296 32.9029 40.1296C33.1533 40.1296 33.3564 39.9266 33.3564 39.676C33.3564 38.0587 34.6722 36.743 36.2895 36.743C36.54 36.743 36.743 36.54 36.743 36.2894C36.743 36.0389 36.54 35.8359 36.2895 35.8359Z" fill="#BCC8D2"/>
</g>
</g>
<defs>
<clipPath id="clip0_4950_46648">
<rect width="60" height="60" fill="white"/>
</clipPath>
<clipPath id="clip1_4950_46648">
<rect width="28" height="28" fill="white" transform="translate(16 16)"/>
</clipPath>
</defs>
</svg>
