<svg width="60" height="60" viewBox="0 0 60 60" fill="none" xmlns="http://www.w3.org/2000/svg">
<g clip-path="url(#clip0_4950_46658)">
<circle cx="30" cy="30" r="29.5" stroke="#87A4BC"/>
<g clip-path="url(#clip1_4950_46658)">
<path d="M30.0001 19.5937C30.2272 19.5937 30.4112 19.4097 30.4112 19.1826V16.4111C30.4112 16.184 30.2272 16 30.0001 16C29.773 16 29.589 16.184 29.589 16.4111V19.1826C29.589 19.4097 29.773 19.5937 30.0001 19.5937ZM22.3302 22.5299C22.4073 22.607 22.5118 22.6503 22.6209 22.6503C22.7299 22.6503 22.8345 22.607 22.9116 22.5299C22.9887 22.4528 23.032 22.3482 23.032 22.2392C23.032 22.1302 22.9887 22.0256 22.9116 21.9485L20.9518 19.9887C20.8747 19.9116 20.7701 19.8683 20.6611 19.8683C20.5521 19.8683 20.4475 19.9116 20.3704 19.9887C20.2933 20.0658 20.25 20.1704 20.25 20.2794C20.25 20.3884 20.2933 20.493 20.3704 20.5701L22.3302 22.5299ZM19.5643 29.2072H16.7928C16.5657 29.2072 16.3817 29.3912 16.3817 29.6183C16.3817 29.8454 16.5657 30.0294 16.7928 30.0294H19.5643C19.7914 30.0294 19.9754 29.8454 19.9754 29.6183C19.9754 29.3912 19.7914 29.2072 19.5643 29.2072ZM22.3302 36.7068L20.3704 38.6665C20.2933 38.7436 20.25 38.8482 20.25 38.9572C20.25 39.0663 20.2933 39.1708 20.3704 39.2479C20.4475 39.325 20.5521 39.3683 20.6611 39.3683C20.7701 39.3683 20.8747 39.325 20.9518 39.2479L22.9116 37.2882C22.9887 37.2111 23.032 37.1065 23.032 36.9975C23.032 36.8884 22.9887 36.7839 22.9116 36.7068C22.8345 36.6297 22.7299 36.5864 22.6209 36.5864C22.5118 36.5864 22.4073 36.6297 22.3302 36.7068ZM37.6699 36.7068C37.6318 36.6686 37.5864 36.6383 37.5366 36.6176C37.4867 36.597 37.4332 36.5864 37.3792 36.5864C37.3252 36.5864 37.2718 36.597 37.2219 36.6176C37.172 36.6383 37.1267 36.6686 37.0885 36.7068C37.0504 36.7449 37.0201 36.7903 36.9994 36.8401C36.9788 36.89 36.9681 36.9435 36.9681 36.9975C36.9681 37.0515 36.9788 37.1049 36.9994 37.1548C37.0201 37.2047 37.0504 37.25 37.0885 37.2882L39.0483 39.2479C39.1254 39.325 39.23 39.3683 39.339 39.3683C39.448 39.3683 39.5526 39.325 39.6297 39.2479C39.7068 39.1708 39.7501 39.0663 39.7501 38.9572C39.7501 38.8482 39.7068 38.7436 39.6297 38.6665L37.6699 36.7068ZM43.2073 29.2072H40.4358C40.2087 29.2072 40.0247 29.3912 40.0247 29.6183C40.0247 29.8454 40.2087 30.0294 40.4358 30.0294H43.2073C43.4344 30.0294 43.6184 29.8454 43.6184 29.6183C43.6184 29.3912 43.4343 29.2072 43.2073 29.2072ZM39.0483 19.9887L37.0885 21.9485C37.0114 22.0256 36.9681 22.1302 36.9681 22.2392C36.9681 22.3482 37.0114 22.4528 37.0885 22.5299C37.1656 22.607 37.2702 22.6503 37.3792 22.6503C37.4883 22.6503 37.5928 22.607 37.6699 22.5299L39.6297 20.5701C39.7068 20.493 39.7501 20.3884 39.7501 20.2794C39.7501 20.1704 39.7068 20.0658 39.6297 19.9887C39.5526 19.9116 39.448 19.8683 39.339 19.8683C39.23 19.8683 39.1254 19.9116 39.0483 19.9887ZM38.1212 28.7874C38.1212 24.2449 34.4781 20.5494 30.0001 20.5494C28.4315 20.5494 26.909 21.004 25.5973 21.8639C24.3212 22.7007 23.3039 23.8778 22.6554 25.268C22.611 25.3665 22.6073 25.4786 22.6449 25.5799C22.6826 25.6812 22.7586 25.7636 22.8565 25.8093C22.9544 25.855 23.0664 25.8602 23.1682 25.824C23.27 25.7878 23.3535 25.7129 23.4005 25.6156C24.603 23.0375 27.1935 21.3716 30.0001 21.3716C34.0247 21.3716 37.299 24.6983 37.299 28.7874C37.299 30.7296 36.5651 32.5658 35.2325 33.9576C34.4644 34.7598 33.8106 35.5263 33.6424 36.6003H26.4653C26.2533 35.4854 25.4928 34.7032 24.8094 34.0008C23.4499 32.6037 22.7011 30.7521 22.7011 28.7874C22.7011 28.3022 22.7476 27.817 22.8391 27.3451C22.8493 27.2921 22.8491 27.2376 22.8383 27.1847C22.8275 27.1318 22.8064 27.0816 22.7762 27.0368C22.746 26.9921 22.7072 26.9537 22.6622 26.924C22.6172 26.8942 22.5667 26.8736 22.5137 26.8633C22.4607 26.853 22.4062 26.8533 22.3533 26.8641C22.3004 26.8749 22.2502 26.896 22.2054 26.9262C22.1607 26.9564 22.1223 26.9951 22.0926 27.0402C22.0628 27.0852 22.0422 27.1356 22.0319 27.1886C21.9301 27.7155 21.8788 28.2508 21.879 28.7874C21.879 30.9675 22.7104 33.0227 24.2202 34.5742C25.0872 35.4653 25.701 36.1765 25.701 37.219C25.701 37.2226 25.7011 37.2263 25.7012 37.23L25.7248 39.6424C25.7248 40.4251 26.1423 41.112 26.7662 41.4924V41.9445C26.7662 43.0779 27.6883 44 28.8217 44H31.343C32.4765 44 33.3985 43.0779 33.3985 41.9445V41.4924C34.0224 41.112 34.4399 40.4251 34.4399 39.6424C34.4399 39.6424 34.437 36.9552 34.4316 36.9284C34.5096 35.9756 35.0871 35.2984 35.8264 34.5262C37.3061 32.9806 38.1212 30.9424 38.1212 28.7874ZM32.5763 41.9445C32.5763 42.6245 32.023 43.1778 31.343 43.1778H28.8216C28.1416 43.1778 27.5883 42.6245 27.5883 41.9445V41.7861C27.6869 41.7999 27.7875 41.8075 27.8898 41.8075H32.2748C32.3771 41.8075 32.4777 41.7998 32.5763 41.7861V41.9445ZM32.2748 40.9853H27.8898C27.1493 40.9853 26.5469 40.3829 26.5469 39.6424V39.615H30.7126C30.9397 39.615 31.1237 39.431 31.1237 39.2039C31.1237 38.9768 30.9397 38.7928 30.7126 38.7928H26.5469V37.4225H33.605L33.6177 38.7928H32.6311C32.404 38.7928 32.22 38.9768 32.22 39.2039C32.22 39.431 32.404 39.615 32.6311 39.615H33.6177V39.6424C33.6177 40.3829 33.0153 40.9853 32.2748 40.9853Z" fill="#BCC8D2"/>
<path d="M32.6727 28.8417C32.6073 28.928 32.5785 29.0365 32.5926 29.1438C32.6067 29.2512 32.6625 29.3486 32.748 29.415C32.8335 29.4814 32.9418 29.5114 33.0492 29.4984C33.1567 29.4855 33.2548 29.4307 33.3221 29.3459L34.1359 28.2979C34.3515 28.0204 34.4459 27.6755 34.4021 27.3269C34.381 27.1553 34.3261 26.9897 34.2405 26.8395C34.1549 26.6894 34.0404 26.5576 33.9036 26.452C33.6261 26.2365 33.2811 26.1415 32.9326 26.1859C32.7611 26.207 32.5955 26.2619 32.4453 26.3475C32.2951 26.433 32.1634 26.5475 32.0578 26.6843L29.4028 30.1037L27.879 28.4178C27.3925 27.8797 26.559 27.8377 26.021 28.324C25.8925 28.4395 25.7881 28.5794 25.714 28.7355C25.6399 28.8917 25.5975 29.061 25.5892 29.2336C25.5801 29.4062 25.6052 29.5789 25.6632 29.7417C25.7212 29.9045 25.8109 30.0541 25.9271 30.1821L28.5033 33.0323C29.0219 33.6338 30.0466 33.5969 30.5183 32.957L32.1454 30.8615C32.2109 30.7753 32.2397 30.6667 32.2256 30.5594C32.2115 30.4521 32.1556 30.3546 32.0701 30.2883C31.9846 30.2219 31.8764 30.1919 31.7689 30.2048C31.6614 30.2177 31.5634 30.2725 31.4961 30.3573L29.8689 32.4528C29.6923 32.6927 29.307 32.7067 29.1134 32.481L26.5372 29.6308C26.3548 29.4289 26.3705 29.1164 26.5724 28.934C26.7741 28.7518 27.0867 28.7673 27.2691 28.9692L29.1218 31.019C29.2833 31.2062 29.6043 31.1955 29.7515 30.9954L32.7074 27.1886C32.8656 26.9759 33.1937 26.9346 33.3995 27.1015C33.6124 27.2598 33.6536 27.5877 33.4866 27.7938L32.6727 28.8417Z" fill="#BCC8D2"/>
</g>
</g>
<defs>
<clipPath id="clip0_4950_46658">
<rect width="60" height="60" fill="white"/>
</clipPath>
<clipPath id="clip1_4950_46658">
<rect width="28" height="28" fill="white" transform="translate(16 16)"/>
</clipPath>
</defs>
</svg>
