<svg width="60" height="60" viewBox="0 0 60 60" fill="none" xmlns="http://www.w3.org/2000/svg">
<g clip-path="url(#clip0_4950_46664)">
<circle cx="30" cy="30" r="29.5" stroke="#87A4BC"/>
<path d="M43.4531 41.1562H42.25V24.6022C42.25 23.8784 41.6612 23.2897 40.9375 23.2897H39.0781C38.3544 23.2897 37.7656 23.8784 37.7656 24.6022V41.1562H35.5781V28.2116C35.5781 27.4878 34.9893 26.8991 34.2656 26.8991H32.4062C31.6826 26.8991 31.0938 27.4878 31.0938 28.2116V41.1562H28.9062V26.7187C28.9062 25.995 28.3174 25.4062 27.5938 25.4062H25.7344C25.0107 25.4062 24.4219 25.995 24.4219 26.7187V41.1562H22.2344V30.3281C22.2344 29.6044 21.6456 29.0156 20.9219 29.0156H19.0625C18.3388 29.0156 17.75 29.6044 17.75 30.3281V41.1562H16.5469C16.4308 41.1562 16.3196 41.2023 16.2375 41.2844C16.1555 41.3664 16.1094 41.4777 16.1094 41.5937C16.1094 41.7098 16.1555 41.8211 16.2375 41.9031C16.3196 41.9852 16.4308 42.0312 16.5469 42.0312H43.4531C44.0209 42.0396 44.0207 41.1479 43.4531 41.1562ZM18.625 41.1562V30.3281C18.625 30.0869 18.8213 29.8906 19.0625 29.8906H20.9219C21.1631 29.8906 21.3594 30.0869 21.3594 30.3281V41.1562H18.625ZM25.2969 41.1562V26.7187C25.2969 26.4775 25.4931 26.2812 25.7344 26.2812H27.5938C27.835 26.2812 28.0312 26.4775 28.0312 26.7187V41.1562H25.2969ZM31.9688 41.1562V28.2116C31.9688 27.9703 32.165 27.7741 32.4062 27.7741H34.2656C34.5069 27.7741 34.7031 27.9703 34.7031 28.2116V41.1562H31.9688ZM38.6406 41.1562V24.6022C38.6406 24.361 38.8369 24.1647 39.0781 24.1647H40.9375C41.1787 24.1647 41.375 24.361 41.375 24.6022V41.1562H38.6406Z" fill="#BCC8D2"/>
<path d="M19.5547 25.418V26.095C19.5547 26.211 19.6008 26.3223 19.6828 26.4043C19.7649 26.4864 19.8762 26.5325 19.9922 26.5325C20.1082 26.5325 20.2195 26.4864 20.3015 26.4043C20.3836 26.3223 20.4297 26.211 20.4297 26.095V25.6774L26.2302 22.5395C26.2568 22.7556 26.4408 22.9231 26.6641 22.9231C26.7801 22.9231 26.8914 22.877 26.9734 22.7949C27.0555 22.7129 27.1016 22.6016 27.1016 22.4856V22.3535L32.8984 23.6506V23.9784C32.8984 24.0944 32.9445 24.2057 33.0266 24.2877C33.1086 24.3698 33.2199 24.4159 33.3359 24.4159C33.452 24.4159 33.5632 24.3698 33.6453 24.2877C33.7273 24.2057 33.7734 24.0944 33.7734 23.9784V23.5609L39.574 20.4229C39.6006 20.639 39.7845 20.8065 40.0078 20.8065C40.1238 20.8065 40.2351 20.7604 40.3172 20.6783C40.3992 20.5963 40.4453 20.485 40.4453 20.369V19.0125C40.4453 18.8964 40.3992 18.7851 40.3172 18.7031C40.2351 18.6211 40.1238 18.575 40.0078 18.575C39.8918 18.575 39.7805 18.6211 39.6985 18.7031C39.6164 18.7851 39.5703 18.8964 39.5703 19.0125V19.4301L33.7698 22.568C33.7432 22.3518 33.5593 22.1843 33.3359 22.1843C33.2199 22.1843 33.1086 22.2304 33.0266 22.3125C32.9445 22.3945 32.8984 22.5058 32.8984 22.6218V22.7538L27.1016 21.4569V21.1291C27.1016 21.0131 27.0555 20.9018 26.9734 20.8198C26.8914 20.7377 26.7801 20.6916 26.6641 20.6916C26.548 20.6916 26.4368 20.7377 26.3547 20.8198C26.2727 20.9018 26.2266 21.0131 26.2266 21.1291V21.5466L20.426 24.6846C20.3994 24.4685 20.2155 24.301 19.9922 24.301C19.8762 24.301 19.7649 24.3471 19.6828 24.4292C19.6008 24.5112 19.5547 24.6225 19.5547 24.7385V25.4148V25.418ZM41.8635 43.0301H18.1875C18.0715 43.0301 17.9602 43.0762 17.8781 43.1582C17.7961 43.2402 17.75 43.3515 17.75 43.4676C17.75 43.5836 17.7961 43.6949 17.8781 43.7769C17.9602 43.859 18.0715 43.9051 18.1875 43.9051H41.8635C41.9796 43.9051 42.0908 43.859 42.1729 43.7769C42.2549 43.6949 42.301 43.5836 42.301 43.4676C42.301 43.3515 42.2549 43.2402 42.1729 43.1582C42.0908 43.0762 41.9796 43.0301 41.8635 43.0301Z" fill="#BCC8D2"/>
</g>
<defs>
<clipPath id="clip0_4950_46664">
<rect width="60" height="60" fill="white"/>
</clipPath>
</defs>
</svg>
