<svg width="60" height="60" viewBox="0 0 60 60" fill="none" xmlns="http://www.w3.org/2000/svg">
<g clip-path="url(#clip0_4950_46669)">
<circle cx="30" cy="30" r="29.5" stroke="#87A4BC"/>
<g clip-path="url(#clip1_4950_46669)">
<mask id="mask0_4950_46669" style="mask-type:luminance" maskUnits="userSpaceOnUse" x="16" y="16" width="28" height="28">
<path d="M16 16.0001H43.9999V44H16V16.0001Z" fill="white"/>
</mask>
<g mask="url(#mask0_4950_46669)">
<path d="M22.1091 31.7536C21.2618 31.7536 20.5748 32.4406 20.5748 33.2879C20.5748 34.1353 21.2618 34.8223 22.1091 34.8223H22.3283C22.3283 38.696 25.4687 41.8363 29.3424 41.8363C33.2162 41.8363 36.3565 38.696 36.3565 34.8223H36.5757C37.4231 34.8223 38.11 34.1353 38.11 33.2879C38.11 32.4406 37.4231 31.7536 36.5757 31.7536" stroke="#BCC8D2" stroke-width="0.6" stroke-miterlimit="10" stroke-linecap="round" stroke-linejoin="round"/>
<path d="M28.4656 22.5476C24.5918 22.5476 21.4515 25.6879 21.4515 29.5617V31.7536" stroke="#BCC8D2" stroke-width="0.6" stroke-miterlimit="10" stroke-linecap="round" stroke-linejoin="round"/>
<path d="M24.0818 43.5898V39.5348" stroke="#BCC8D2" stroke-width="0.6" stroke-miterlimit="10" stroke-linecap="round" stroke-linejoin="round"/>
<path d="M34.603 43.5898V39.5348" stroke="#BCC8D2" stroke-width="0.6" stroke-miterlimit="10" stroke-linecap="round" stroke-linejoin="round"/>
<path d="M34.0947 23.2623L32.4987 22.0653C32.3354 21.9428 32.2028 21.7839 32.1115 21.6012C32.0202 21.4186 31.9727 21.2172 31.9727 21.0129V19.9173H33.2878L31.0959 16.4102L28.9039 19.9173H30.2191V21.0132C30.2191 21.979 30.6738 22.8884 31.4465 23.4679L32.6156 24.3449" stroke="#BCC8D2" stroke-width="0.6" stroke-miterlimit="10" stroke-linecap="round" stroke-linejoin="round"/>
<path d="M35.6882 26.6495L36.7073 27.4138C36.8706 27.5363 37.0032 27.6951 37.0944 27.8777C37.1857 28.0603 37.2333 28.2616 37.2333 28.4657V29.5617C37.2333 29.6779 37.2794 29.7894 37.3617 29.8716C37.4439 29.9539 37.5554 30 37.6716 30H38.5484C38.6646 30 38.7761 29.9539 38.8584 29.8716C38.9406 29.7894 38.9868 29.6779 38.9868 29.5617V28.4658C38.9868 27.9894 38.8758 27.5196 38.6628 27.0935C38.4498 26.6675 38.1405 26.2968 37.7594 26.011L35.7143 24.477" stroke="#BCC8D2" stroke-width="0.6" stroke-miterlimit="10" stroke-linecap="round" stroke-linejoin="round"/>
<path d="M30.5698 26.011L35.8306 22.0651C35.9939 21.9426 36.1264 21.7838 36.2177 21.6012C36.309 21.4187 36.3565 21.2173 36.3565 21.0132V19.9173H35.0414L37.2333 16.4102L39.4252 19.9173H38.11V21.0132C38.11 21.979 37.6553 22.8884 36.8828 23.468L31.6221 27.4136C31.4587 27.5361 31.3261 27.695 31.2348 27.8777C31.1435 28.0603 31.096 28.2617 31.096 28.466V29.5617C31.096 29.6779 31.0498 29.7894 30.9676 29.8716C30.8853 29.9539 30.7738 30 30.6576 30H29.7808C29.7232 30 29.6662 29.9887 29.613 29.9667C29.5598 29.9446 29.5115 29.9124 29.4708 29.8716C29.3886 29.7894 29.3424 29.6779 29.3424 29.5617V28.4657C29.3424 27.9893 29.4533 27.5195 29.6664 27.0935C29.8794 26.6674 30.1887 26.2968 30.5698 26.011Z" stroke="#BCC8D2" stroke-width="0.6" stroke-miterlimit="10" stroke-linecap="round" stroke-linejoin="round"/>
</g>
</g>
</g>
<defs>
<clipPath id="clip0_4950_46669">
<rect width="60" height="60" fill="white"/>
</clipPath>
<clipPath id="clip1_4950_46669">
<rect width="28" height="28" fill="white" transform="translate(16 16)"/>
</clipPath>
</defs>
</svg>
