<svg width="60" height="60" viewBox="0 0 60 60" fill="none" xmlns="http://www.w3.org/2000/svg">
<g clip-path="url(#clip0_4810_73642)">
<circle cx="30" cy="30" r="29.5" stroke="#08587F"/>
<g clip-path="url(#clip1_4810_73642)">
<path d="M42.25 40.0625H42.1695C42.2185 39.9251 42.25 39.779 42.25 39.625V34.375C42.25 33.6514 41.6611 33.0625 40.9375 33.0625H38.232C38.281 32.9251 38.3125 32.779 38.3125 32.625V27.375C38.3125 26.6514 37.7236 26.0625 37 26.0625H33.4611L30.7219 20.8125H31.3125V16.4375H28.6875V20.8125H29.2641L26.4112 26.0625H23C22.2764 26.0625 21.6875 26.6514 21.6875 27.375V32.625C21.6875 32.779 21.719 32.9251 21.768 33.0625H19.0625C18.3389 33.0625 17.75 33.6514 17.75 34.375V39.625C17.75 39.779 17.7815 39.9251 17.8305 40.0625H17.75C17.0264 40.0625 16.4375 40.6514 16.4375 41.375V42.25C16.4375 42.9736 17.0264 43.5625 17.75 43.5625H42.25C42.9736 43.5625 43.5625 42.9736 43.5625 42.25V41.375C43.5625 40.6514 42.9736 40.0625 42.25 40.0625ZM41.375 34.375V39.625C41.375 39.741 41.3289 39.8523 41.2469 39.9344C41.1648 40.0164 41.0535 40.0625 40.9375 40.0625H40.7651L38.939 36.5625H39.625V33.9375H40.9375C41.0535 33.9375 41.1648 33.9836 41.2469 34.0656C41.3289 34.1477 41.375 34.259 41.375 34.375ZM26.5 39.625V34.375C26.5 34.259 26.5461 34.1477 26.6281 34.0656C26.7102 33.9836 26.8215 33.9375 26.9375 33.9375H28.25V36.5625H31.75V33.9375H33.0625C33.1785 33.9375 33.2898 33.9836 33.3719 34.0656C33.4539 34.1477 33.5 34.259 33.5 34.375V39.625C33.5 39.741 33.4539 39.8523 33.3719 39.9344C33.2898 40.0164 33.1785 40.0625 33.0625 40.0625H26.9375C26.8215 40.0625 26.7102 40.0164 26.6281 39.9344C26.5461 39.8523 26.5 39.741 26.5 39.625ZM33.0625 27.1908L33.8434 28.6875H33.0625V27.1908ZM34.3002 29.5625L36.1263 33.0625H30.875C30.759 33.0625 30.6477 33.0164 30.5656 32.9344C30.4836 32.8523 30.4375 32.741 30.4375 32.625V27.375C30.4375 27.1339 30.6335 26.9375 30.875 26.9375H32.1875V29.5625H34.3002ZM38.4827 35.6875L37.5696 33.9375H38.75V35.6875H38.4827ZM30.875 33.9375V35.6875H29.125V33.9375H30.875ZM34.375 39.625V34.375C34.375 34.259 34.4211 34.1477 34.5031 34.0656C34.5852 33.9836 34.6965 33.9375 34.8125 33.9375H36.5826L39.7781 40.0625H34.8125C34.6965 40.0625 34.5852 40.0164 34.5031 39.9344C34.4211 39.8523 34.375 39.741 34.375 39.625ZM37 26.9375C37.2415 26.9375 37.4375 27.1339 37.4375 27.375V32.625C37.4375 32.8302 37.2931 32.9947 37.1024 33.0419L33.9174 26.9375H37ZM29.5625 17.3125H30.4375V19.9375H29.5625V17.3125ZM29.9921 21.306L32.4741 26.0625H30.875C30.5511 26.0636 30.2391 26.1852 30 26.4038C29.7609 26.1851 29.449 26.0634 29.125 26.0625H27.4069L29.9921 21.306ZM25.1875 26.9375H26.9375V28.6875H25.1875V26.9375ZM22.5625 32.625V27.375C22.5625 27.1339 22.7585 26.9375 23 26.9375H24.3125V29.5625H27.8125V26.9375H29.125C29.3665 26.9375 29.5625 27.1339 29.5625 27.375V32.625C29.5625 32.741 29.5164 32.8523 29.4344 32.9344C29.3523 33.0164 29.241 33.0625 29.125 33.0625H23C22.884 33.0625 22.7727 33.0164 22.6906 32.9344C22.6086 32.8523 22.5625 32.741 22.5625 32.625ZM21.25 33.9375H23V35.6875H21.25V33.9375ZM18.625 39.625V34.375C18.625 34.259 18.6711 34.1477 18.7531 34.0656C18.8352 33.9836 18.9465 33.9375 19.0625 33.9375H20.375V36.5625H23.875V33.9375H25.1875C25.3035 33.9375 25.4148 33.9836 25.4969 34.0656C25.5789 34.1477 25.625 34.259 25.625 34.375V39.625C25.625 39.741 25.5789 39.8523 25.4969 39.9344C25.4148 40.0164 25.3035 40.0625 25.1875 40.0625H19.0625C18.9465 40.0625 18.8352 40.0164 18.7531 39.9344C18.6711 39.8523 18.625 39.741 18.625 39.625ZM17.3125 42.25V41.375C17.3125 41.259 17.3586 41.1477 17.4406 41.0656C17.5227 40.9836 17.634 40.9375 17.75 40.9375H40.0625V42.6875H17.75C17.634 42.6875 17.5227 42.6414 17.4406 42.5594C17.3586 42.4773 17.3125 42.366 17.3125 42.25ZM42.6875 42.25C42.6875 42.366 42.6414 42.4773 42.5594 42.5594C42.4773 42.6414 42.366 42.6875 42.25 42.6875H40.9375V40.9375H42.25C42.366 40.9375 42.4773 40.9836 42.5594 41.0656C42.6414 41.1477 42.6875 41.259 42.6875 41.375V42.25Z" fill="#BCC8D2"/>
</g>
</g>
<defs>
<clipPath id="clip0_4810_73642">
<rect width="60" height="60" fill="white"/>
</clipPath>
<clipPath id="clip1_4810_73642">
<rect width="28" height="28" fill="white" transform="translate(16 16)"/>
</clipPath>
</defs>
</svg>
