<svg width="88" height="88" viewBox="0 0 88 88" fill="none" xmlns="http://www.w3.org/2000/svg">
<circle cx="44" cy="44" r="43.5" fill="#48B3DC" fill-opacity="0.08" stroke="#0C99CF"/>
<path d="M61.2942 45.4553C61.031 45.1921 60.7186 44.9833 60.3746 44.8408C60.0307 44.6983 59.6621 44.625 59.2899 44.625C58.9176 44.625 58.549 44.6983 58.2051 44.8408C57.8612 44.9833 57.5487 45.1921 57.2855 45.4553L52.4336 50.3072C52.2207 49.9131 51.9056 49.5837 51.5213 49.3536C51.137 49.1235 50.6978 49.0013 50.2499 48.9997H43.1524C42.5413 48.2601 41.7825 47.6564 40.9245 47.2272C40.0666 46.798 39.1284 46.5528 38.1701 46.5073C37.2119 46.4618 36.2547 46.6171 35.3599 46.9631C34.4652 47.3091 33.6526 47.8382 32.9742 48.5166L30.2499 51.241L29.4417 50.4328C29.3245 50.3157 29.1656 50.2498 28.9999 50.2498C28.8341 50.2498 28.6752 50.3157 28.558 50.4328L26.058 52.9328C25.9408 53.05 25.875 53.209 25.875 53.3747C25.875 53.5404 25.9408 53.6994 26.058 53.8166L36.058 63.8166C36.1752 63.9338 36.3341 63.9996 36.4999 63.9996C36.6656 63.9996 36.8245 63.9338 36.9417 63.8166L39.4417 61.3166C39.5589 61.1994 39.6247 61.0404 39.6247 60.8747C39.6247 60.709 39.5589 60.55 39.4417 60.4328L38.6336 59.6247L39.3349 58.9235C39.6872 58.5735 40.1632 58.3763 40.6599 58.3747H49.7949C50.616 58.3769 51.4294 58.2162 52.188 57.9019C52.9466 57.5875 53.6353 57.1258 54.2142 56.5435L61.2942 49.4641C61.5575 49.2009 61.7663 48.8884 61.9088 48.5445C62.0513 48.2006 62.1246 47.832 62.1246 47.4597C62.1246 47.0875 62.0513 46.7188 61.9088 46.3749C61.7663 46.031 61.5575 45.7185 61.2942 45.4553ZM36.4999 62.491L27.3836 53.3747L28.9999 51.7585L38.1161 60.8747L36.4999 62.491ZM60.4105 48.5803L53.3311 55.6603C52.8678 56.1261 52.3167 56.4954 51.7097 56.7468C51.1027 56.9981 50.4519 57.1266 49.7949 57.1247H40.6605C40.25 57.1236 39.8434 57.2039 39.4642 57.3609C39.0849 57.518 38.7406 57.7487 38.4511 58.0397L37.7499 58.741L31.1336 52.1247L33.858 49.4003C34.4204 48.838 35.0955 48.4011 35.8389 48.1182C36.5822 47.8354 37.3771 47.7131 38.171 47.7594C38.965 47.8057 39.7403 48.0195 40.4457 48.3868C41.1512 48.754 41.7709 49.2665 42.2642 49.8903L42.3605 50.0122C42.419 50.0863 42.4936 50.1461 42.5786 50.1873C42.6635 50.2284 42.7567 50.2498 42.8511 50.2497H50.2499C50.5814 50.2497 50.8993 50.3814 51.1338 50.6158C51.3682 50.8502 51.4999 51.1682 51.4999 51.4997C51.4999 51.8312 51.3682 52.1492 51.1338 52.3836C50.8993 52.618 50.5814 52.7497 50.2499 52.7497H41.4999C41.3341 52.7497 41.1751 52.8156 41.0579 52.9328C40.9407 53.05 40.8749 53.209 40.8749 53.3747C40.8749 53.5405 40.9407 53.6994 41.0579 53.8167C41.1751 53.9339 41.3341 53.9997 41.4999 53.9997H50.2499C50.8612 53.9977 51.4506 53.7712 51.906 53.3634C52.3614 52.9555 52.6513 52.3946 52.7205 51.7872L58.1692 46.3391C58.4711 46.0508 58.8725 45.8899 59.2899 45.8899C59.7073 45.8899 60.1086 46.0508 60.4105 46.3391C60.7077 46.6363 60.8746 47.0394 60.8746 47.4597C60.8746 47.88 60.7077 48.2831 60.4105 48.5803Z" fill="#003E6F"/>
<path d="M36.34 36.7363C36.3313 36.7488 36.3181 36.755 36.31 36.7681C36.3081 36.7719 36.3081 36.7756 36.3063 36.7788C34.4053 39.1931 33.3727 42.1772 33.375 45.25C33.375 45.3525 33.3756 45.4538 33.3825 45.5563C33.3936 45.714 33.464 45.8617 33.5797 45.9695C33.6953 46.0774 33.8475 46.1374 34.0056 46.1375C34.02 46.1375 34.035 46.1369 34.0494 46.1356C34.2146 46.1241 34.3685 46.0475 34.4772 45.9225C34.586 45.7976 34.6407 45.6346 34.6294 45.4694C34.625 45.3956 34.625 45.3231 34.625 45.25C34.6256 42.623 35.4593 40.0639 37.0063 37.9406C38.7738 39.095 39.8081 40.2094 39.8506 41.0406C39.7852 41.8307 39.5357 42.5944 39.1219 43.2706C38.9254 43.668 38.7403 44.0708 38.5669 44.4788C38.533 44.5549 38.5146 44.6371 38.5129 44.7205C38.5112 44.8038 38.5263 44.8867 38.5571 44.9642C38.5879 45.0416 38.6339 45.1122 38.6924 45.1716C38.7509 45.231 38.8207 45.2781 38.8977 45.3101C38.9747 45.3422 39.0573 45.3585 39.1407 45.3581C39.2241 45.3577 39.3065 45.3406 39.3832 45.3079C39.4599 45.2751 39.5293 45.2274 39.5872 45.1674C39.6452 45.1075 39.6905 45.0365 39.7206 44.9588C39.8894 44.5538 40.0731 44.175 40.2475 43.815C40.7661 42.955 41.059 41.9779 41.0988 40.9744C41.0344 39.7138 39.915 38.3656 37.7925 36.9631C38.7495 35.8798 39.8861 34.9695 41.1525 34.2725C42.3694 36.645 43.8344 37.8969 45.4338 37.8969C45.5501 37.8969 45.6663 37.8905 45.7819 37.8775C46.8901 37.807 47.9478 37.3886 48.8044 36.6819C49.3544 36.2569 49.5825 36.0806 50.8438 36.5213C52.0225 36.9319 53.2644 36.4175 54.3894 35.0825C55.3636 35.7803 56.2324 36.6145 56.9694 37.5594C56.217 38.3629 55.6249 39.3026 55.225 40.3281C54.6919 41.4919 54.3313 42.2094 53.6688 42.2713C53.2381 42.298 52.8061 42.2961 52.3756 42.2656C50.7269 42.1844 48.6756 42.0881 47.2106 44.9688C46.8785 45.6177 46.6553 46.3168 46.55 47.0381C46.5385 47.1194 46.5432 47.2022 46.5637 47.2817C46.5842 47.3612 46.6202 47.4359 46.6696 47.5015C46.719 47.5671 46.7808 47.6223 46.8516 47.6639C46.9223 47.7056 47.0006 47.733 47.0819 47.7444C47.1109 47.7484 47.1401 47.7503 47.1694 47.75C47.3201 47.75 47.4656 47.6955 47.5793 47.5966C47.693 47.4977 47.7672 47.3611 47.7881 47.2119C47.873 46.6266 48.0546 46.0595 48.3256 45.5338C49.4231 43.3756 50.7006 43.4394 52.3163 43.5144C52.8048 43.5486 53.2951 43.5492 53.7838 43.5163C55.2013 43.3825 55.7913 42.0944 56.3613 40.8488C56.6843 40.0313 57.1367 39.2712 57.7013 38.5975C58.5373 39.9204 59.1152 41.3896 59.4044 42.9275C59.419 43.0086 59.4495 43.086 59.4942 43.1553C59.5388 43.2245 59.5967 43.2843 59.6645 43.3311C59.7324 43.3779 59.8088 43.4108 59.8894 43.428C59.97 43.4451 60.0532 43.4462 60.1342 43.431C60.2152 43.4159 60.2924 43.3849 60.3614 43.3399C60.4303 43.2948 60.4897 43.2365 60.5361 43.1684C60.5825 43.1003 60.6149 43.0237 60.6316 42.943C60.6482 42.8623 60.6488 42.7791 60.6331 42.6981C60.058 39.6571 58.4728 36.8994 56.1345 34.8718C53.7963 32.8442 50.8418 31.6656 47.75 31.5269V30.8375C47.7501 30.4875 47.8486 30.1446 48.0343 29.8478C48.2199 29.5511 48.4853 29.3125 48.8 29.1594C49.1477 29.5646 49.5789 29.8899 50.064 30.113C50.5491 30.3361 51.0767 30.4517 51.6106 30.4519C52.117 30.4475 52.6189 30.3573 53.095 30.185C53.892 29.9059 54.648 29.521 55.3425 29.0406C55.6433 28.7708 56.0133 28.59 56.411 28.5185C56.8087 28.4471 57.2185 28.4879 57.5944 28.6363C57.7211 28.669 57.8549 28.6612 57.9769 28.6138C58.0989 28.5665 58.2029 28.4821 58.2744 28.3724C58.3459 28.2628 58.3811 28.1335 58.3751 28.0028C58.3692 27.872 58.3224 27.7465 58.2413 27.6438C58.1063 27.4731 54.9244 23.4875 51.8613 24.0569C48.9044 24.6081 48.5581 26.4013 48.4138 27.9569C47.9011 28.1741 47.456 28.5248 47.125 28.9725C46.7941 28.5246 46.349 28.1736 45.8363 27.9563C45.6919 26.4013 45.3456 24.6081 42.3888 24.0563C39.325 23.4831 36.1431 27.4731 36.0088 27.6438C35.9279 27.7465 35.8813 27.872 35.8755 28.0026C35.8696 28.1332 35.9049 28.2623 35.9763 28.3718C36.0477 28.4813 36.1517 28.5656 36.2735 28.613C36.3954 28.6603 36.529 28.6682 36.6556 28.6356C37.0315 28.4872 37.4413 28.4464 37.839 28.5178C38.2368 28.5892 38.6068 28.7701 38.9075 29.04C39.602 29.5204 40.358 29.9053 41.155 30.1844C41.6311 30.3568 42.133 30.447 42.6394 30.4513C43.1733 30.451 43.7009 30.3354 44.186 30.1123C44.6711 29.8892 45.1023 29.5639 45.45 29.1588C45.7648 29.312 46.0302 29.5506 46.2159 29.8475C46.4016 30.1443 46.5 30.4874 46.5 30.8375V31.5163C44.5307 31.6046 42.6036 32.1168 40.8502 33.0177C39.0969 33.9187 37.5585 35.1866 36.34 36.7363ZM52.09 25.2856C53.4594 25.0281 55.0963 26.2169 56.2113 27.2819C55.6463 27.3993 55.1151 27.6428 54.6575 27.9944C54.0474 28.4188 53.3826 28.7586 52.6813 29.0044C52.2487 29.1932 51.7722 29.2584 51.3048 29.1926C50.8374 29.1268 50.3974 28.9327 50.0338 28.6319L51.6856 27.9381C51.7639 27.9082 51.8354 27.8629 51.8958 27.8048C51.9562 27.7467 52.0043 27.6771 52.0372 27.6001C52.0702 27.523 52.0873 27.4401 52.0876 27.3563C52.0879 27.2725 52.0713 27.1895 52.0388 27.1123C52.0064 27.035 51.9587 26.9651 51.8987 26.9066C51.8387 26.8481 51.7675 26.8023 51.6894 26.7719C51.6114 26.7415 51.528 26.7271 51.4442 26.7296C51.3604 26.732 51.278 26.7513 51.2019 26.7863L49.7381 27.4006C49.9119 26.3319 50.3506 25.61 52.09 25.2856ZM41.5688 29.0044C40.8674 28.7588 40.2026 28.4192 39.5925 27.995C39.1348 27.6427 38.6031 27.3986 38.0375 27.2813C39.15 26.2163 40.7825 25.0288 42.1606 25.285C43.9 25.6094 44.3388 26.3313 44.5125 27.4L43.0488 26.7856C42.9729 26.7527 42.8912 26.7352 42.8085 26.734C42.7258 26.7329 42.6437 26.7482 42.5669 26.779C42.4902 26.8098 42.4203 26.8556 42.3614 26.9136C42.3024 26.9716 42.2556 27.0408 42.2236 27.1171C42.1916 27.1933 42.175 27.2752 42.1749 27.3579C42.1748 27.4406 42.191 27.5225 42.2228 27.5989C42.2545 27.6753 42.3011 27.7446 42.3599 27.8028C42.4186 27.8611 42.4884 27.9071 42.565 27.9381L44.2169 28.6319C43.853 28.9324 43.413 29.1262 42.9457 29.1919C42.4783 29.2575 42.002 29.1924 41.5694 29.0038L41.5688 29.0044ZM51.2563 35.3413C49.4875 34.7238 48.8338 35.0794 48.0394 35.6931C47.3635 36.2575 46.5231 36.588 45.6438 36.635C44.1625 36.8044 42.9713 35.0875 42.27 33.7319C44.0412 32.9852 45.9607 32.6571 47.8793 32.7729C49.798 32.8888 51.6641 33.4456 53.3325 34.4C52.7906 35.0094 52.0269 35.61 51.2563 35.3413Z" fill="#003E6F"/>
</svg>
