<svg width="60" height="60" viewBox="0 0 60 60" fill="none" xmlns="http://www.w3.org/2000/svg">
<g clip-path="url(#clip0_4952_47114)">
<circle cx="30" cy="30" r="29.5" stroke="#87A4BC"/>
<path d="M40.8253 36.2096C40.7035 36.0468 40.5453 35.9148 40.3634 35.8241C40.1814 35.7335 39.9808 35.6867 39.7775 35.6875H39.7211L39.8333 35.1268C39.8998 34.7943 39.8396 34.4488 39.6646 34.1583C39.4895 33.8678 39.2122 33.6531 38.8871 33.5565C38.562 33.4598 38.2125 33.4881 37.9072 33.6359C37.6019 33.7836 37.3628 34.0401 37.2368 34.355L36.7038 35.6875H35.6875V34.8125H33.0625V39.1875H35.6875V38.75H35.7626C35.8201 38.7498 35.877 38.7611 35.9301 38.7831C35.9832 38.8051 36.0314 38.8374 36.0719 38.8782L36.4343 39.2406C36.5559 39.3629 36.7006 39.4598 36.8599 39.5258C37.0192 39.5917 37.19 39.6255 37.3624 39.625H39.4025C39.6875 39.6241 39.9645 39.5308 40.192 39.3592C40.4196 39.1876 40.5853 38.9469 40.6645 38.6731L41.0395 37.3606C41.0961 37.1653 41.1063 36.9595 41.0691 36.7596C41.0319 36.5598 40.9484 36.3714 40.8253 36.2096ZM34.8125 38.3125H33.9375V35.6875H34.8125V38.3125ZM40.1981 37.1201L39.8231 38.4327C39.7968 38.524 39.7415 38.6042 39.6657 38.6614C39.5898 38.7186 39.4975 38.7497 39.4025 38.75H37.3624C37.3049 38.7502 37.248 38.7389 37.1949 38.7169C37.1418 38.6949 37.0936 38.6626 37.0531 38.6218L36.6907 38.2594C36.5691 38.1371 36.4244 38.0402 36.2651 37.9742C36.1058 37.9083 35.935 37.8745 35.7626 37.875H35.6875V36.5625H37.2962L38.0492 34.6799C38.0942 34.5676 38.1795 34.4762 38.2883 34.4235C38.3972 34.3708 38.5219 34.3607 38.6378 34.3952C38.7538 34.4297 38.8526 34.5062 38.9151 34.6098C38.9775 34.7134 38.999 34.8366 38.9753 34.9552L38.6539 36.5625H39.7775C39.8452 36.5625 39.912 36.5782 39.9726 36.6084C40.0332 36.6386 40.0859 36.6825 40.1267 36.7365C40.1675 36.7906 40.1952 36.8534 40.2076 36.9199C40.2199 36.9865 40.2167 37.055 40.1981 37.1201Z" fill="#BCC8D2"/>
<path d="M40.5 31.9765V18.1875C40.4996 17.8395 40.3612 17.5059 40.1151 17.2599C39.8691 17.0138 39.5355 16.8754 39.1875 16.875H20.8125C20.4645 16.8754 20.1309 17.0138 19.8849 17.2599C19.6388 17.5059 19.5004 17.8395 19.5 18.1875V40.9375C19.5007 41.5175 19.7313 42.0735 20.1414 42.4836C20.5515 42.8937 21.1075 43.1243 21.6875 43.125H37C38.3038 43.1254 39.5737 42.7096 40.6248 41.9382C41.6759 41.1668 42.4533 40.08 42.8439 38.836C43.2344 37.5921 43.2176 36.2559 42.7961 35.0221C42.3745 33.7884 41.5701 32.7214 40.5 31.9765ZM23 40.9375C23 41.2856 22.8617 41.6194 22.6156 41.8656C22.3694 42.1117 22.0356 42.25 21.6875 42.25C21.3394 42.25 21.0056 42.1117 20.7594 41.8656C20.5133 41.6194 20.375 41.2856 20.375 40.9375V18.1875C20.3751 18.0715 20.4213 17.9603 20.5033 17.8783C20.5853 17.7963 20.6965 17.7501 20.8125 17.75H39.1875C39.3035 17.7501 39.4147 17.7963 39.4967 17.8783C39.5787 17.9603 39.6249 18.0715 39.625 18.1875V31.4668C38.4451 30.9064 37.1169 30.7379 35.8345 30.9862C34.552 31.2344 33.3826 31.8862 32.497 32.8464C31.6114 33.8066 31.0561 35.0248 30.9122 36.3231C30.7683 37.6214 31.0434 38.9317 31.6972 40.0625H23V40.9375ZM23.4363 42.25C23.7215 41.8719 23.8755 41.4111 23.875 40.9375H32.3124C32.7488 41.4564 33.2677 41.8999 33.8483 42.25H23.4363ZM37 42.25C35.9616 42.25 34.9466 41.9421 34.0833 41.3652C33.2199 40.7883 32.547 39.9684 32.1496 39.0091C31.7523 38.0498 31.6483 36.9942 31.8509 35.9758C32.0534 34.9574 32.5535 34.0219 33.2877 33.2877C34.0219 32.5535 34.9574 32.0534 35.9758 31.8509C36.9942 31.6483 38.0498 31.7523 39.0091 32.1496C39.9684 32.547 40.7883 33.2199 41.3652 34.0833C41.9421 34.9466 42.25 35.9616 42.25 37C42.2484 38.3919 41.6948 39.7263 40.7106 40.7106C39.7263 41.6948 38.3919 42.2484 37 42.25Z" fill="#BCC8D2"/>
<path d="M21.6875 28.25H38.3125V29.125H21.6875V28.25ZM21.6875 30.4375H33.0625V31.3125H21.6875V30.4375ZM21.6875 32.625H30.4375V33.5H21.6875V32.625ZM21.6875 35.6875H25.1875V36.5625H21.6875V35.6875ZM21.6875 37.4375H26.9375V38.3125H21.6875V37.4375ZM30 27.375C30.8653 27.375 31.7112 27.1184 32.4306 26.6377C33.1501 26.1569 33.7108 25.4737 34.042 24.6742C34.3731 23.8748 34.4597 22.9951 34.2909 22.1465C34.1221 21.2978 33.7054 20.5183 33.0936 19.9064C32.4817 19.2946 31.7022 18.8779 30.8535 18.7091C30.0049 18.5403 29.1252 18.6269 28.3258 18.958C27.5263 19.2892 26.8431 19.8499 26.3623 20.5694C25.8816 21.2888 25.625 22.1347 25.625 23C25.6263 24.1599 26.0877 25.272 26.9078 26.0922C27.728 26.9123 28.8401 27.3737 30 27.375ZM32.1875 25.7293C31.5675 26.2281 30.7957 26.5 30 26.5C29.2043 26.5 28.4325 26.2281 27.8125 25.7293V25.7283C27.8122 25.647 27.8347 25.5672 27.8775 25.498C27.9202 25.4289 27.9815 25.3731 28.0544 25.337L30 24.3641L31.9457 25.337C32.0185 25.3731 32.0798 25.4289 32.1225 25.4981C32.1653 25.5673 32.1878 25.647 32.1875 25.7283V25.7293ZM29.5625 22.2975V21.6875C29.5625 21.5715 29.6086 21.4602 29.6906 21.3781C29.7727 21.2961 29.884 21.25 30 21.25C30.116 21.25 30.2273 21.2961 30.3094 21.3781C30.3914 21.4602 30.4375 21.5715 30.4375 21.6875V22.2975C30.4376 22.384 30.412 22.4684 30.364 22.5403L30 23.0863L29.636 22.5402C29.588 22.4684 29.5624 22.3839 29.5625 22.2975ZM30 19.5C30.6418 19.4995 31.2713 19.6755 31.8197 20.0089C32.368 20.3423 32.8141 20.8202 33.109 21.3902C33.4039 21.9602 33.5362 22.6003 33.4916 23.2405C33.4469 23.8807 33.2269 24.4963 32.8557 25.0198C32.728 24.8207 32.5487 24.6599 32.337 24.5544L30.6389 23.7053L31.0921 23.0257C31.236 22.8102 31.3127 22.5567 31.3125 22.2975V21.6875C31.3125 21.3394 31.1742 21.0056 30.9281 20.7594C30.6819 20.5133 30.3481 20.375 30 20.375C29.6519 20.375 29.3181 20.5133 29.0719 20.7594C28.8258 21.0056 28.6875 21.3394 28.6875 21.6875V22.2975C28.6872 22.5567 28.764 22.8101 28.9079 23.0257L29.361 23.7053L27.6631 24.5544C27.4513 24.6598 27.2721 24.8207 27.1443 25.0198C26.7731 24.4963 26.5532 23.8807 26.5085 23.2405C26.4638 22.6003 26.5962 21.9602 26.8911 21.3902C27.186 20.8202 27.632 20.3423 28.1804 20.0089C28.7287 19.6756 29.3582 19.4995 30 19.5Z" fill="#BCC8D2"/>
</g>
<defs>
<clipPath id="clip0_4952_47114">
<rect width="60" height="60" fill="white"/>
</clipPath>
</defs>
</svg>
