<svg width="60" height="60" viewBox="0 0 60 60" fill="none" xmlns="http://www.w3.org/2000/svg">
<g clip-path="url(#clip0_4810_73627)">
<circle cx="30" cy="30" r="29.5" stroke="#08587F"/>
<g clip-path="url(#clip1_4810_73627)">
<path d="M45.9992 27.5609C45.988 27.305 45.8455 26.8306 45.0161 26.5288L22.9053 18.4891C21.7719 18.0767 20.514 18.663 20.1015 19.7965L19.5029 21.4409L19.5028 21.4411L18.1562 25.1409C17.7437 26.2744 18.3302 27.5321 19.4638 27.9447L25.908 30.2875C25.8485 30.646 25.8646 31.0131 25.9553 31.365C26.0459 31.717 26.2091 32.0461 26.4344 32.3313L25.0616 36.1027C25.0305 36.1877 24.974 36.261 24.8998 36.3129C24.8257 36.3648 24.7374 36.3927 24.6469 36.3929H20.625V35.0804C20.625 34.3567 20.0362 33.7679 19.3125 33.7679H18.4375C18.3215 33.7679 18.2102 33.814 18.1281 33.8961C18.0461 33.9781 18 34.0894 18 34.2054V41.2054C18 41.3214 18.0461 41.4327 18.1281 41.5148C18.2102 41.5968 18.3215 41.6429 18.4375 41.6429H19.3125C20.0362 41.6429 20.625 41.0541 20.625 40.3304V39.0179H24.6469C25.9314 39.0179 27.0893 38.207 27.5283 37.0002L28.8722 33.308C29.6413 33.2 30.3402 32.751 30.755 32.0497L38.2857 34.7875C38.5247 34.8747 38.7772 34.9194 39.0317 34.9195C39.7837 34.9195 40.4982 34.5286 40.8984 33.8761L41.7625 34.1906C41.8602 34.2261 41.9613 34.2438 42.0622 34.2438C42.1882 34.2438 42.3137 34.2162 42.4312 34.1614C42.5354 34.1132 42.6291 34.0447 42.7067 33.96C42.7843 33.8754 42.8443 33.7761 42.8833 33.6681L44.0808 30.3779C44.2264 29.9778 44.0602 29.5393 43.7073 29.3286L45.1099 28.6747C45.9097 28.3017 46.0103 27.8168 45.9992 27.5609ZM19.75 40.3304C19.75 40.5716 19.5537 40.7679 19.3125 40.7679H18.875V34.6429H19.3125C19.5537 34.6429 19.75 34.8392 19.75 35.0804V40.3304ZM26.7061 36.701C26.3923 37.5634 25.5648 38.1429 24.6469 38.1429H20.625V37.2679H24.6469C25.1982 37.2679 25.6953 36.9199 25.8839 36.402L27.1398 32.9515C27.3915 33.1029 27.6665 33.2116 27.9536 33.2734L26.7061 36.701ZM28.5604 32.4564C28.5503 32.4563 28.5402 32.4564 28.5301 32.4569C28.3158 32.4597 28.1028 32.4234 27.9014 32.3499C27.6661 32.2646 27.4516 32.1302 27.2724 31.9554C27.2564 31.936 27.2387 31.918 27.2195 31.9017C27.056 31.7276 26.9301 31.5217 26.8497 31.2967C26.7693 31.0718 26.7362 30.8328 26.7523 30.5945L29.9109 31.7428C29.7552 31.9569 29.5525 32.1325 29.3184 32.2562C29.0843 32.3799 28.825 32.4484 28.5604 32.4564ZM43.2587 30.0787L42.062 33.3684L41.2391 33.069L42.3742 29.9503L42.6066 29.842L43.2587 30.0787ZM44.7402 27.8816L42.4013 28.9722L42.4006 28.9725L41.8405 29.2337L41.8399 29.234L41.1832 29.5402C40.4126 29.8995 39.0864 29.9574 38.2871 29.6665L25.6319 25.0683C25.5229 25.0287 25.4025 25.034 25.2974 25.0831C25.1922 25.1322 25.1109 25.2211 25.0713 25.3302C25.0317 25.4392 25.037 25.5596 25.0861 25.6647C25.1352 25.7698 25.224 25.8512 25.3331 25.8908L37.9881 30.4889C38.4284 30.6491 38.9712 30.7272 39.5251 30.7272C40.1306 30.7272 40.7489 30.6334 41.2606 30.4518L40.2674 33.1807C40.0199 33.8608 39.2652 34.2127 38.585 33.9651L19.7629 27.1225C19.0828 26.8749 18.731 26.1203 18.9785 25.4402L19.727 23.3835C19.9848 23.7808 20.3652 24.0832 20.8104 24.2447L21.2216 24.3943C21.3304 24.4329 21.45 24.4269 21.5544 24.3777C21.6588 24.3285 21.7396 24.24 21.779 24.1316C21.8185 24.0231 21.8135 23.9035 21.7651 23.7987C21.7168 23.6939 21.629 23.6124 21.5208 23.5721L21.1096 23.4225C20.4297 23.1749 20.0777 22.4205 20.3251 21.7404L20.4748 21.329L20.4749 21.3289L20.9237 20.0957C21.1713 19.4156 21.9259 19.0636 22.6061 19.3113L44.717 27.3511C44.9979 27.4533 45.1018 27.5598 45.1229 27.5991C45.1053 27.6401 45.0111 27.7552 44.7402 27.8816Z" fill="#BCC8D2"/>
<path d="M23.9874 24.4699L23.1651 24.1705C23.0561 24.1308 22.9357 24.1361 22.8306 24.1851C22.7254 24.2342 22.644 24.323 22.6043 24.432C22.5646 24.541 22.5699 24.6614 22.6189 24.7665C22.668 24.8717 22.7568 24.9531 22.8658 24.9928L23.6881 25.2921C23.7361 25.3096 23.7867 25.3186 23.8378 25.3186C23.9275 25.3186 24.0152 25.2909 24.0887 25.2394C24.1623 25.1879 24.2182 25.115 24.2489 25.0306C24.2886 24.9216 24.2833 24.8013 24.2343 24.6961C24.1852 24.591 24.0965 24.5096 23.9874 24.4699Z" fill="#BCC8D2"/>
</g>
</g>
<defs>
<clipPath id="clip0_4810_73627">
<rect width="60" height="60" fill="white"/>
</clipPath>
<clipPath id="clip1_4810_73627">
<rect width="28" height="28" fill="white" transform="translate(18 16)"/>
</clipPath>
</defs>
</svg>
