<svg width="60" height="60" viewBox="0 0 60 60" fill="none" xmlns="http://www.w3.org/2000/svg">
<g clip-path="url(#clip0_4952_46797)">
<circle cx="30" cy="30" r="29.5" stroke="#87A4BC"/>
<g clip-path="url(#clip1_4952_46797)">
<mask id="mask0_4952_46797" style="mask-type:luminance" maskUnits="userSpaceOnUse" x="16" y="16" width="28" height="28">
<path d="M16 16.0001H43.9999V44H16V16.0001Z" fill="white"/>
</mask>
<g mask="url(#mask0_4952_46797)">
<path d="M16.4102 22.2344V18.866C16.4102 18.5639 16.655 18.3191 16.957 18.3191H43.0429C43.3449 18.3191 43.5898 18.5639 43.5898 18.866V38.8673C43.5898 39.1693 43.3449 39.4142 43.0429 39.4142H37.4374" stroke="#BCC8D2" stroke-width="0.7" stroke-miterlimit="10" stroke-linecap="round" stroke-linejoin="round"/>
<path d="M35.0039 39.4141H16.957C16.655 39.4141 16.4102 39.1693 16.4102 38.8673V24.3125" stroke="#BCC8D2" stroke-width="0.7" stroke-miterlimit="10" stroke-linecap="round" stroke-linejoin="round"/>
<path d="M41.912 31.2579V19.9929H18.0879V37.7404H34.9219" stroke="#BCC8D2" stroke-width="0.7" stroke-miterlimit="10" stroke-linecap="round" stroke-linejoin="round"/>
<path d="M37.4648 37.7404H41.9121V33.4453" stroke="#BCC8D2" stroke-width="0.7" stroke-miterlimit="10" stroke-linecap="round" stroke-linejoin="round"/>
<path d="M21.3191 23.4261H35.4583" stroke="#BCC8D2" stroke-width="0.7" stroke-miterlimit="10" stroke-linecap="round" stroke-linejoin="round"/>
<path d="M21.3191 25.9208H38.681" stroke="#BCC8D2" stroke-width="0.7" stroke-miterlimit="10" stroke-linecap="round" stroke-linejoin="round"/>
<path d="M21.3191 28.4155H31.1833" stroke="#BCC8D2" stroke-width="0.7" stroke-miterlimit="10" stroke-linecap="round" stroke-linejoin="round"/>
<path d="M24.8958 34.38C24.8763 34.413 24.856 34.4457 24.8347 34.4782C25.0616 34.6062 25.3445 34.6052 25.7518 34.6038C25.7868 34.6037 25.8228 34.6036 25.8597 34.6035C26.6713 34.6025 27.4831 34.6006 28.295 34.5983H28.295C28.3148 34.5982 28.3229 34.5945 28.324 34.5941C28.3251 34.5935 28.3258 34.5932 28.3272 34.5915C28.3316 34.5864 28.3422 34.5679 28.3422 34.5368C28.3422 34.5056 28.3317 34.4879 28.328 34.4836C28.3269 34.4824 28.3267 34.4823 28.3258 34.4819L28.3258 34.4819C28.325 34.4815 28.3169 34.4779 28.297 34.478L24.8958 34.38ZM24.8958 34.38C25.0205 34.4531 25.1479 34.4765 25.251 34.484C25.3246 34.4894 25.4247 34.4865 25.4877 34.4847C25.5092 34.484 25.5264 34.4835 25.5368 34.4835L25.537 34.4835C26.457 34.4824 27.377 34.4806 28.2969 34.478L24.8958 34.38ZM21.5717 35.228L21.5717 35.228C21.749 34.761 21.8926 34.2827 22.0062 33.7964C21.981 33.7154 21.9578 33.6342 21.9365 33.5528C21.8126 34.1299 21.6473 34.6997 21.4351 35.2585L21.4351 35.2585C21.4341 35.2611 21.4332 35.2635 21.4325 35.2656C21.4378 35.2684 21.4452 35.2716 21.4553 35.2744C21.4859 35.2827 21.5157 35.2796 21.5346 35.2717C21.5429 35.2682 21.5487 35.264 21.5534 35.2592C21.5578 35.2547 21.5649 35.2458 21.5717 35.228ZM22.3246 31.5979C22.3292 31.5269 22.3334 31.4557 22.337 31.3845L22.2966 31.39C22.3063 31.4595 22.3156 31.5288 22.3246 31.5979ZM22.7318 33.7604C22.7845 33.9084 22.8453 34.0524 22.9161 34.1924C23.0981 34.5521 23.4157 34.6927 23.7237 34.5686L23.7238 34.5686C23.78 34.5459 23.8357 34.5149 23.89 34.477C23.8721 34.447 23.855 34.4165 23.8387 34.3856C23.7477 34.4501 23.6005 34.5233 23.4204 34.4917L23.4204 34.4917C23.1948 34.4522 23.0844 34.2714 23.0446 34.1996C23.0192 34.1535 22.9996 34.1082 22.986 34.0757C22.9793 34.0596 22.9745 34.0478 22.9707 34.0386C22.9649 34.0246 22.9616 34.0163 22.9574 34.0074L22.9574 34.0073C22.8836 33.8478 22.8271 33.6843 22.7804 33.5262C22.7649 33.6044 22.7487 33.6825 22.7318 33.7604Z" fill="#060606" stroke="#BCC8D2" stroke-width="0.7"/>
<path d="M37.3766 35.1732V41.681L36.2008 41.1341L35.025 41.681V35.1732" stroke="#BCC8D2" stroke-width="0.7" stroke-miterlimit="10" stroke-linecap="round" stroke-linejoin="round"/>
<path d="M36.2008 35.9901C35.786 35.9901 35.5143 35.2838 35.1535 35.1339C34.7795 34.9786 34.0902 35.2796 33.8084 34.9973C33.5266 34.7149 33.827 34.0244 33.6719 33.6497C33.5223 33.2882 32.8174 33.016 32.8174 32.6004C32.8174 32.1847 33.5223 31.9126 33.6719 31.5511C33.827 31.1765 33.5266 30.4859 33.8084 30.2036C34.0902 29.9212 34.7795 30.2222 35.1535 30.0669C35.5143 29.917 35.786 29.2108 36.2008 29.2108C36.6157 29.2108 36.8874 29.917 37.2482 30.0669C37.6222 30.2222 38.3115 29.9212 38.5933 30.2036C38.8752 30.486 38.5747 31.1765 38.7298 31.5511C38.8794 31.9126 39.5843 32.1847 39.5843 32.6004C39.5843 33.016 38.8794 33.2882 38.7297 33.6497C38.5747 34.0244 38.8752 34.7149 38.5933 34.9973C38.3115 35.2796 37.6222 34.9786 37.2482 35.134C36.8874 35.2838 36.6157 35.9901 36.2008 35.9901Z" stroke="#BCC8D2" stroke-width="0.7" stroke-miterlimit="10" stroke-linecap="round" stroke-linejoin="round"/>
<path d="M37.3928 32.6004C37.3928 33.2587 36.8592 33.7923 36.2009 33.7923C35.5427 33.7923 35.009 33.2587 35.009 32.6004C35.009 31.9422 35.5427 31.4086 36.2009 31.4086C36.8592 31.4086 37.3928 31.9422 37.3928 32.6004Z" stroke="#BCC8D2" stroke-width="0.7" stroke-miterlimit="10" stroke-linecap="round" stroke-linejoin="round"/>
</g>
</g>
</g>
<defs>
<clipPath id="clip0_4952_46797">
<rect width="60" height="60" fill="white"/>
</clipPath>
<clipPath id="clip1_4952_46797">
<rect width="28" height="28" fill="white" transform="translate(16 16)"/>
</clipPath>
</defs>
</svg>
