<svg width="60" height="60" viewBox="0 0 60 60" fill="none" xmlns="http://www.w3.org/2000/svg">
<g clip-path="url(#clip0_4950_46631)">
<circle cx="30" cy="30" r="29.5" stroke="#87A4BC"/>
<g clip-path="url(#clip1_4950_46631)">
<path d="M18.4224 38.2939C19.5254 38.2939 20.4206 37.3988 20.4206 36.2958C20.4203 36.0364 20.3684 35.7797 20.2678 35.5406L22.1515 34.1915C22.7874 34.7106 23.5833 34.9938 24.4042 34.9933C24.4551 34.9933 24.506 34.9933 24.5357 34.9891H29.4018V39.0618C28.9196 39.1659 28.493 39.4447 28.2041 39.8446C27.9153 40.2444 27.7846 40.737 27.8373 41.2275C27.89 41.7179 28.1223 42.1716 28.4895 42.5009C28.8567 42.8303 29.3327 43.0122 29.826 43.0115C30.929 43.0115 31.8242 42.1164 31.8242 41.0133C31.8242 40.0588 31.1496 39.2612 30.2503 39.0661V34.9933H35.9606C36.6521 34.9933 37.2884 34.7473 37.7806 34.3358L39.7321 35.7061C39.6297 35.9507 39.5763 36.213 39.5751 36.4782C39.5751 37.5812 40.4703 38.4764 41.5733 38.4764C42.6763 38.4764 43.5757 37.577 43.5757 36.4782C43.5757 35.3751 42.6806 34.48 41.5775 34.48C41.0557 34.48 40.5848 34.6879 40.2284 35.0145L38.3533 33.6951C38.656 33.2324 38.8168 32.6912 38.8157 32.1382C38.8157 30.7467 37.84 29.597 36.5248 29.3382C36.5418 29.2024 36.5503 29.0624 36.5503 28.9267C36.5503 28.0867 36.2575 27.3145 35.7696 26.7036L37.9333 25.3885C38.2981 25.7703 38.8072 26.0079 39.3757 26.0079C40.4787 26.0079 41.3739 25.1127 41.3739 24.0097C41.3739 22.9067 40.4787 22.0115 39.3757 22.0115C38.2727 22.0115 37.3775 22.9067 37.3775 24.0097C37.3775 24.2388 37.4242 24.4551 37.4963 24.6588L35.1418 26.0885C33.8903 25.1297 32.2781 25.1679 31.1284 25.8721C30.8696 25.5751 30.5769 25.3206 30.2545 25.1V20.9297C31.1496 20.7345 31.8284 19.937 31.8284 18.9824C31.8284 17.8794 30.9333 16.9842 29.8303 16.9842C28.7272 16.9842 27.8321 17.8794 27.8321 18.9824C27.8321 19.937 28.5066 20.7388 29.406 20.9339V24.6376C28.8418 24.4 28.2309 24.2685 27.603 24.2685C26.2454 24.2685 25.0151 24.8539 24.1581 25.7915L21.8927 24.5697C21.9436 24.3915 21.9818 24.2091 21.9818 24.0182C21.9818 22.9151 21.0866 22.02 19.9836 22.02C18.8806 22.02 17.9854 22.9151 17.9854 24.0182C17.9854 25.1212 18.8806 26.0164 19.9836 26.0164C20.586 26.0164 21.1206 25.7406 21.4896 25.3164L23.6363 26.4745C23.3139 26.9921 23.0933 27.5861 23 28.1461C22.9957 28.1461 22.9915 28.1503 22.9872 28.1503C20.8703 29.0455 20.1618 31.7267 21.5618 33.5721L19.7842 34.8406C19.4162 34.4924 18.929 34.2981 18.4224 34.2976C17.3193 34.2976 16.4242 35.1927 16.4242 36.2958C16.4242 37.3988 17.3193 38.2939 18.4224 38.2939ZM30.9757 41.0176C30.9757 41.6497 30.4624 42.1673 29.826 42.1673C29.1939 42.1673 28.6763 41.6539 28.6763 41.0176C28.6763 40.3812 29.1896 39.8679 29.826 39.8679C30.4581 39.8679 30.9757 40.3855 30.9757 41.0176ZM39.3715 22.8642C40.0036 22.8642 40.5212 23.3776 40.5212 24.0139C40.5212 24.6503 40.0078 25.1636 39.3715 25.1636C38.7351 25.1636 38.2218 24.6503 38.2218 24.0139C38.2218 23.3776 38.7351 22.8642 39.3715 22.8642ZM28.6763 18.9824C28.6763 18.3503 29.1896 17.8327 29.826 17.8327C30.4581 17.8327 30.9757 18.3461 30.9757 18.9824C30.9757 19.6188 30.4624 20.1321 29.826 20.1321C29.1939 20.1321 28.6763 19.6145 28.6763 18.9824ZM19.9793 25.1636C19.3472 25.1636 18.8296 24.6503 18.8296 24.0139C18.8296 23.3776 19.343 22.8642 19.9793 22.8642C20.6115 22.8642 21.129 23.3776 21.129 24.0139C21.129 24.6503 20.6115 25.1636 19.9793 25.1636ZM41.5775 35.3285C42.2097 35.3285 42.7272 35.8418 42.7272 36.4782C42.7272 37.1145 42.2139 37.6279 41.5775 37.6279C40.9412 37.6279 40.4278 37.1145 40.4278 36.4782C40.4278 35.8418 40.9454 35.3285 41.5775 35.3285ZM22.9448 29.1303C22.9703 29.7794 23.123 30.3988 23.4072 30.9842L24.1709 30.6109C23.9127 30.0886 23.7791 29.5135 23.7806 28.9309C23.7806 26.8564 25.4606 25.117 27.5945 25.117C28.6933 25.117 29.7327 25.5964 30.4539 26.4151C30.1569 26.7121 29.9024 27.0558 29.7242 27.4503L30.4963 27.8024C31.6969 25.1806 35.6933 26.0079 35.6933 28.9309C35.6933 29.0582 35.6806 29.1854 35.6636 29.3127C34.9376 29.389 34.2675 29.7377 33.7884 30.2885L34.4333 30.84C34.8321 30.3733 35.4387 30.1188 36.0412 30.1442C37.1018 30.1909 37.9587 31.0776 37.9587 32.1424C37.9587 33.2455 37.0593 34.1448 35.9563 34.1448H24.5018C24.4678 34.1448 24.4339 34.1491 24.4 34.1491C21.9733 34.1491 20.4969 31.0267 22.9448 29.1303ZM18.4224 35.1461C19.0545 35.1461 19.5721 35.6594 19.5721 36.2958C19.5721 36.9321 19.0587 37.4454 18.4224 37.4454C17.786 37.4454 17.2727 36.9279 17.2727 36.2958C17.2727 35.6636 17.786 35.1461 18.4224 35.1461Z" fill="#BCC8D2"/>
</g>
</g>
<defs>
<clipPath id="clip0_4950_46631">
<rect width="60" height="60" fill="white"/>
</clipPath>
<clipPath id="clip1_4950_46631">
<rect width="28" height="28" fill="white" transform="translate(16 16)"/>
</clipPath>
</defs>
</svg>
