<svg width="60" height="60" viewBox="0 0 60 60" fill="none" xmlns="http://www.w3.org/2000/svg">
<g clip-path="url(#clip0_4810_73658)">
<circle cx="30" cy="30" r="29.5" stroke="#08587F"/>
<g clip-path="url(#clip1_4810_73658)">
<path d="M35.2788 23.6137H33.5913C33.4825 23.6137 33.3782 23.6569 33.3012 23.7339C33.2243 23.8108 33.1811 23.9151 33.1811 24.0239C33.1811 24.1327 33.2243 24.237 33.3012 24.314C33.3782 24.3909 33.4825 24.4341 33.5913 24.4341H35.2788C35.9886 24.4341 36.5662 25.0116 36.5662 25.7215V37.9868C36.5662 38.6966 35.9887 39.2741 35.2788 39.2741H24.7214C24.0116 39.2741 23.4341 38.6966 23.4341 37.9868V25.7214C23.4341 25.0115 24.0116 24.4341 24.7214 24.4341H31.9505C32.0593 24.4341 32.1636 24.3909 32.2406 24.3139C32.3175 24.237 32.3607 24.1327 32.3607 24.0239C32.3607 23.9151 32.3175 23.8107 32.2406 23.7338C32.1636 23.6569 32.0593 23.6136 31.9505 23.6136H24.7214C23.5592 23.6136 22.6137 24.5592 22.6137 25.7214V37.9867C22.6137 39.1488 23.5592 40.0943 24.7214 40.0943H35.2788C36.441 40.0943 37.3866 39.1488 37.3866 37.9867V25.7214C37.3866 24.5592 36.441 23.6137 35.2788 23.6137Z" fill="#BCC8D2"/>
<path d="M41.9568 26.7218C41.2425 23.145 40.1972 20.5806 39.9911 20.094V17.9331C39.9911 16.5685 38.4705 15.651 37.2717 16.321L37.2479 16.3344C36.7174 16.6349 36.0566 16.6381 35.5266 16.3344C34.7483 15.8884 33.7679 15.8886 32.9897 16.3344C32.4616 16.637 31.7966 16.6369 31.2685 16.3344C30.4901 15.8885 29.5098 15.8886 28.7316 16.3344C28.2034 16.637 27.5384 16.637 27.0103 16.3344C26.2321 15.8885 25.2514 15.8887 24.4734 16.3344C23.9455 16.6369 23.28 16.6368 22.7522 16.3345L22.7285 16.3211C21.5242 15.6391 20.0089 16.5704 20.0089 17.9331V20.094C19.8028 20.5806 18.7575 23.145 18.0433 26.7218C17.5856 29.0137 17.3626 31.242 17.3804 33.3445C17.4028 35.9832 17.8067 38.4312 18.5809 40.6206C19.2957 42.6419 21.2286 44 23.391 44H36.609C38.7715 44 40.7045 42.6419 41.4192 40.6206C42.1934 38.4312 42.5973 35.9831 42.6197 33.3445C42.6375 31.2419 42.4145 29.0137 41.9568 26.7218ZM20.8295 17.9331C20.8295 17.3008 21.3577 16.9094 21.847 16.9094C22.0147 16.9094 22.1766 16.9524 22.3286 17.0373L22.3444 17.0463C23.1261 17.4884 24.1007 17.4935 24.8813 17.0463C25.4094 16.7436 26.0745 16.7437 26.6026 17.0463C27.3807 17.4921 28.3616 17.4919 29.1395 17.0463C29.6676 16.7437 30.3326 16.7436 30.8607 17.0463C31.6387 17.492 32.6199 17.4918 33.3976 17.0463C33.9258 16.7437 34.5908 16.7437 35.1189 17.0463C35.8972 17.4922 36.8776 17.4921 37.6558 17.0463L37.6718 17.0372C38.3344 16.6628 39.1707 17.184 39.1707 17.9331V19.7681H20.8295V17.9331ZM41.7993 33.3375C41.7776 35.8851 41.3895 38.2435 40.6456 40.3471C40.0466 42.0414 38.4244 43.1796 36.6092 43.1796H23.3911C21.5757 43.1796 19.9536 42.0414 19.3545 40.3471C18.6117 38.2467 18.2237 35.8922 18.201 33.349C18.1828 31.3052 18.3991 29.1359 18.8441 26.9016C19.4731 23.7433 20.3891 21.3389 20.693 20.5885H39.3074C39.6105 21.3366 40.5226 23.7291 41.1523 26.8824C41.599 29.1193 41.8167 31.2911 41.7993 33.3375Z" fill="#BCC8D2"/>
<path d="M35.8615 29.9847C35.8352 29.9311 35.7975 29.8839 35.7511 29.8464C35.7047 29.8089 35.6506 29.7819 35.5927 29.7675C35.5702 29.7618 35.0325 29.6297 34.2573 29.6297C33.3343 29.6297 32.0616 29.8171 30.9118 30.6343C30.7322 29.6811 30.3082 28.8827 29.6443 28.255C28.3672 27.0475 26.8177 26.7941 25.7428 26.7941C24.9674 26.7941 24.4299 26.9263 24.4073 26.9319C24.3494 26.9464 24.2954 26.9733 24.249 27.0109C24.2026 27.0484 24.1649 27.0956 24.1386 27.1491C24.1123 27.2027 24.098 27.2614 24.0967 27.321C24.0954 27.3807 24.1072 27.4399 24.1311 27.4946C24.3299 27.9478 24.4153 28.4863 24.5058 29.0565C24.7816 30.7955 25.1229 32.9466 29.0307 33.8502C28.9986 34.1243 28.9851 34.4003 28.9904 34.6762C29.0099 35.7662 29.2925 36.6018 29.3044 36.6368C29.3047 36.6377 29.3052 36.6384 29.3055 36.6392C29.3688 36.8174 29.563 36.9357 29.7503 36.9098C34.8131 36.1887 35.1908 33.8064 35.4943 31.8921C35.5847 31.322 35.6701 30.7834 35.8689 30.3302C35.8929 30.2755 35.9047 30.2163 35.9034 30.1566C35.9021 30.0969 35.8878 30.0383 35.8615 29.9847ZM27.7819 28.8471C27.6895 28.7897 27.5781 28.7714 27.4722 28.7962C27.3662 28.821 27.2745 28.8868 27.2171 28.9792C27.1597 29.0717 27.1414 29.1831 27.1662 29.289C27.191 29.3949 27.2568 29.4867 27.3493 29.5441C28.4801 30.246 29.1279 31.3844 29.4831 32.2742C29.3614 32.5215 29.2627 32.7794 29.1882 33.0448C27.7214 32.7028 26.7222 32.1582 26.1404 31.3854C25.59 30.6544 25.4508 29.7768 25.3161 28.928C25.2487 28.5029 25.1796 28.0676 25.0582 27.6534C25.8808 27.5583 27.6876 27.534 29.0806 28.8512C29.7219 29.4574 30.0886 30.2726 30.172 31.2761C30.1291 31.322 30.0192 31.4494 30.0172 31.4518C29.5821 30.5477 28.8826 29.5304 27.7819 28.8471ZM34.6841 31.7637C34.5411 32.6656 34.3932 33.5982 33.751 34.3578C33.0795 35.1519 31.9216 35.6921 30.222 36.0024C30.4617 35.1021 31.109 33.3369 32.651 32.3797C32.7416 32.3214 32.8056 32.2299 32.8292 32.1249C32.8529 32.0199 32.8344 31.9098 32.7776 31.8183C32.7208 31.7268 32.6304 31.6614 32.5258 31.636C32.4211 31.6106 32.3107 31.6273 32.2184 31.6826C30.9664 32.4598 30.2324 33.659 29.8118 34.6602C29.8004 33.9973 29.9004 33.2322 30.271 32.5376C30.4405 32.2212 30.6595 31.934 30.9195 31.6867C32.0005 30.6646 33.3314 30.4501 34.2574 30.4501C34.5231 30.4501 34.7567 30.4678 34.9419 30.4894C34.8204 30.9035 34.7515 31.3387 34.6841 31.7637Z" fill="#BCC8D2"/>
</g>
</g>
<defs>
<clipPath id="clip0_4810_73658">
<rect width="60" height="60" fill="white"/>
</clipPath>
<clipPath id="clip1_4810_73658">
<rect width="28" height="28" fill="white" transform="translate(16 16)"/>
</clipPath>
</defs>
</svg>
