<svg width="60" height="60" viewBox="0 0 60 60" fill="none" xmlns="http://www.w3.org/2000/svg">
<g clip-path="url(#clip0_4810_73575)">
<circle cx="30" cy="30" r="29.5" stroke="#08587F"/>
<g clip-path="url(#clip1_4810_73575)">
<path d="M38 42C38.4244 42 38.8313 41.8314 39.1314 41.5314C39.4315 41.2313 39.6 40.8243 39.6 40.4V24.4968C39.5989 24.0727 39.4304 23.6662 39.1312 23.3656L34.2344 18.4688C33.9338 18.1696 33.5273 18.0011 33.1032 18H22C21.5757 18 21.1687 18.1686 20.8687 18.4686C20.5686 18.7687 20.4 19.1757 20.4 19.6V40.4C20.4 40.8243 20.5686 41.2313 20.8687 41.5314C21.1687 41.8314 21.5757 42 22 42H38ZM38.2344 23.6H34.8C34.5879 23.6 34.3844 23.5157 34.2343 23.3657C34.0843 23.2157 34 23.0122 34 22.8V19.3656L38.2344 23.6ZM21.2 40.4V19.6C21.2 19.3878 21.2843 19.1843 21.4343 19.0343C21.5844 18.8843 21.7879 18.8 22 18.8H33.1032C33.1357 18.8012 33.168 18.8044 33.2 18.8096V22.8C33.2 23.2243 33.3686 23.6313 33.6687 23.9314C33.9687 24.2314 34.3757 24.4 34.8 24.4H38.7904C38.7956 24.432 38.7988 24.4644 38.8 24.4968V40.4C38.8 40.6122 38.7157 40.8157 38.5657 40.9657C38.4157 41.1157 38.2122 41.2 38 41.2H22C21.7879 41.2 21.5844 41.1157 21.4343 40.9657C21.2843 40.8157 21.2 40.6122 21.2 40.4Z" fill="#BCC8D2"/>
<path d="M24 28.4H36C36.1061 28.4 36.2078 28.3579 36.2828 28.2828C36.3578 28.2078 36.4 28.1061 36.4 28C36.4 27.8939 36.3578 27.7922 36.2828 27.7172C36.2078 27.6421 36.1061 27.6 36 27.6H24C23.8939 27.6 23.7921 27.6421 23.7171 27.7172C23.6421 27.7922 23.6 27.8939 23.6 28C23.6 28.1061 23.6421 28.2078 23.7171 28.2828C23.7921 28.3579 23.8939 28.4 24 28.4ZM24 31.6H36C36.1061 31.6 36.2078 31.5579 36.2828 31.4828C36.3578 31.4078 36.4 31.3061 36.4 31.2C36.4 31.0939 36.3578 30.9922 36.2828 30.9172C36.2078 30.8421 36.1061 30.8 36 30.8H24C23.8939 30.8 23.7921 30.8421 23.7171 30.9172C23.6421 30.9922 23.6 31.0939 23.6 31.2C23.6 31.3061 23.6421 31.4078 23.7171 31.4828C23.7921 31.5579 23.8939 31.6 24 31.6ZM24 34.8H36C36.1061 34.8 36.2078 34.7579 36.2828 34.6828C36.3578 34.6078 36.4 34.5061 36.4 34.4C36.4 34.2939 36.3578 34.1922 36.2828 34.1172C36.2078 34.0421 36.1061 34 36 34H24C23.8939 34 23.7921 34.0421 23.7171 34.1172C23.6421 34.1922 23.6 34.2939 23.6 34.4C23.6 34.5061 23.6421 34.6078 23.7171 34.6828C23.7921 34.7579 23.8939 34.8 24 34.8ZM24 38H32C32.1061 38 32.2078 37.9579 32.2828 37.8828C32.3578 37.8078 32.4 37.7061 32.4 37.6C32.4 37.4939 32.3578 37.3922 32.2828 37.3172C32.2078 37.2421 32.1061 37.2 32 37.2H24C23.8939 37.2 23.7921 37.2421 23.7171 37.3172C23.6421 37.3922 23.6 37.4939 23.6 37.6C23.6 37.7061 23.6421 37.8078 23.7171 37.8828C23.7921 37.9579 23.8939 38 24 38Z" fill="#BCC8D2"/>
</g>
</g>
<defs>
<clipPath id="clip0_4810_73575">
<rect width="60" height="60" fill="white"/>
</clipPath>
<clipPath id="clip1_4810_73575">
<rect width="24" height="24" fill="white" transform="translate(18 18)"/>
</clipPath>
</defs>
</svg>
