<svg width="60" height="60" viewBox="0 0 60 60" fill="none" xmlns="http://www.w3.org/2000/svg">
<g clip-path="url(#clip0_4952_46792)">
<circle cx="30" cy="30" r="29.5" stroke="#87A4BC"/>
<g clip-path="url(#clip1_4952_46792)">
<path d="M44.9523 23.1653C44.9079 23.0005 44.8315 22.8461 44.7274 22.7108C44.6233 22.5756 44.4936 22.4621 44.3457 22.377C44.1977 22.2914 44.0343 22.2359 43.8648 22.2136C43.6953 22.1912 43.5231 22.2026 43.358 22.2469C43.0251 22.3365 42.7414 22.5547 42.5693 22.8535L42.3527 23.2304C42.2537 23.1736 42.1363 23.1581 42.026 23.1873C41.9157 23.2166 41.8213 23.2881 41.7635 23.3865L40.663 25.2623L40.2861 25.0457C40.2366 25.0171 40.182 24.9985 40.1254 24.9911C40.0687 24.9836 40.0112 24.9874 39.956 25.0023C39.9008 25.0173 39.8491 25.0429 39.8039 25.0779C39.7587 25.1128 39.7208 25.1564 39.6924 25.206C39.575 25.4131 39.6465 25.6763 39.8528 25.7952L40.2298 26.0119L36.5471 32.3938L35.6372 34.8245L35.204 35.6345C35.0797 35.8505 35.0202 36.0977 35.0325 36.3466C35.0448 36.5955 35.1284 36.8356 35.2733 37.0384L34.2984 38.234L34.0255 37.5497C33.9653 37.4002 33.8644 37.2704 33.7345 37.1751C33.6045 37.0798 33.4505 37.0226 33.2898 37.01C33.129 36.9973 32.968 37.0298 32.8247 37.1037C32.6814 37.1776 32.5616 37.29 32.4787 37.4282L32.3228 37.6925L32.1755 35.9595C32.1591 35.7606 32.0745 35.5735 31.9361 35.4297C31.7977 35.286 31.614 35.1944 31.4159 35.1704C31.2177 35.1465 31.0174 35.1917 30.8487 35.2984C30.6801 35.405 30.5534 35.5667 30.4901 35.7559L29.4243 38.9534C29.3885 39.062 29.3972 39.1803 29.4483 39.2826C29.4994 39.3848 29.5889 39.4628 29.6972 39.4993C29.7395 39.5191 29.785 39.5308 29.8315 39.5338C29.9224 39.5341 30.011 39.5058 30.0849 39.453C30.1587 39.4001 30.2141 39.3254 30.2432 39.2394L31.3046 36.0419L31.4563 37.8008C31.4714 37.9837 31.5443 38.157 31.6643 38.2959C31.7843 38.4347 31.9453 38.5318 32.1241 38.5733C32.3028 38.6147 32.4901 38.5984 32.659 38.5265C32.8278 38.4547 32.9695 38.3311 33.0637 38.1736L33.224 37.9092L33.4927 38.5895C33.5487 38.7305 33.6408 38.8542 33.7596 38.9484C33.8785 39.0426 34.02 39.104 34.17 39.1263C34.32 39.1487 34.4732 39.1313 34.6144 39.0758C34.7556 39.0204 34.8797 38.9289 34.9744 38.8104L35.9839 37.5324C36.0956 37.5616 36.2107 37.5761 36.3261 37.5757C36.5543 37.5775 36.779 37.5191 36.9775 37.4065C37.176 37.294 37.3414 37.1311 37.457 36.9343L37.8902 36.2108L39.5409 34.2049L43.2626 27.7448L43.6395 27.9615C43.6892 27.9899 43.7329 28.0279 43.7678 28.0733C43.8027 28.1187 43.8283 28.1706 43.8431 28.2259C43.8579 28.2809 43.8618 28.3383 43.8543 28.3948C43.8469 28.4513 43.8284 28.5058 43.7999 28.5551L42.0669 31.5577C42.0345 31.6065 42.0124 31.6613 42.0018 31.7189C41.9912 31.7765 41.9925 31.8356 42.0054 31.8927C42.0184 31.9498 42.0428 32.0037 42.0772 32.0511C42.1115 32.0985 42.1552 32.1384 42.2054 32.1684C42.2549 32.1971 42.3095 32.2158 42.3661 32.2233C42.4228 32.2307 42.4804 32.2269 42.5356 32.212C42.5908 32.1972 42.6425 32.1715 42.6877 32.1365C42.7329 32.1015 42.7708 32.058 42.799 32.0083L44.5321 29.0057C44.6177 28.8577 44.6732 28.6943 44.6955 28.5248C44.7178 28.3553 44.7064 28.1831 44.662 28.018C44.5724 27.6851 44.3542 27.4014 44.0554 27.2293L43.6785 27.0127L44.7617 25.1367C44.8799 24.9308 44.8103 24.6681 44.6057 24.5474L44.8223 24.1705C44.9102 24.0202 44.967 23.8538 44.9893 23.6811C45.0117 23.5084 44.9991 23.3331 44.9523 23.1653ZM43.3189 23.2867C43.3473 23.2369 43.3853 23.1933 43.4307 23.1584C43.4761 23.1234 43.528 23.0978 43.5833 23.0831C43.6946 23.0556 43.8121 23.071 43.9125 23.1265C43.9622 23.1549 44.0058 23.1928 44.0408 23.2382C44.0757 23.2836 44.1014 23.3354 44.1162 23.3907C44.1437 23.502 44.1282 23.6195 44.0728 23.7199L43.8562 24.0969L43.1022 23.6636L43.3189 23.2867ZM37.4136 35.3833L37.1969 35.2577L36.5557 34.8849L37.1709 33.2386L38.5357 34.027L37.4136 35.3833ZM36.1138 36.6353C36.0255 36.5738 35.9632 36.4816 35.9392 36.3766C35.9152 36.2717 35.9311 36.1616 35.9839 36.0678L36.2006 35.6909L36.9543 36.1242L36.7377 36.4967C36.7077 36.5488 36.6672 36.5941 36.6187 36.6297C36.5703 36.6652 36.515 36.6904 36.4563 36.7034C36.3976 36.7164 36.3369 36.7171 36.2779 36.7054C36.2189 36.6937 36.163 36.6698 36.1138 36.6353ZM39.0296 33.3167L37.5306 32.4501L40.9966 26.445L42.4957 27.3115L39.0296 33.3167ZM42.929 26.562L41.4299 25.6955L42.2964 24.1964L43.7955 25.063L42.929 26.562ZM25.8368 36.4187L24.3033 37.9483L23.3846 37.0296C23.3034 36.949 23.1936 36.9037 23.0792 36.9037C22.9647 36.9037 22.8549 36.949 22.7737 37.0296C22.7331 37.0699 22.7008 37.1178 22.6788 37.1706C22.6568 37.2234 22.6455 37.2801 22.6455 37.3373C22.6455 37.3945 22.6568 37.4511 22.6788 37.5039C22.7008 37.5567 22.7331 37.6046 22.7737 37.6449L23.6922 38.5634C23.8547 38.7246 24.0743 38.8149 24.3032 38.8147C24.5334 38.816 24.7549 38.7256 24.9184 38.5634L26.4477 37.0296C26.5187 36.9467 26.5557 36.8401 26.5515 36.7311C26.5472 36.6221 26.502 36.5187 26.4249 36.4415C26.3477 36.3644 26.2443 36.3192 26.1353 36.315C26.0263 36.3107 25.9197 36.3478 25.8368 36.4187Z" fill="#BCC8D2"/>
<path d="M20.733 37.5842C20.733 39.6182 22.3819 41.2669 24.4157 41.2669C26.4496 41.2669 28.0984 39.6182 28.0984 37.5842C28.0984 37.4693 28.0528 37.3591 27.9715 37.2778C27.8903 37.1966 27.7801 37.1509 27.6652 37.1509C27.5503 37.1509 27.4401 37.1966 27.3588 37.2778C27.2776 37.3591 27.2319 37.4693 27.2319 37.5842C27.2319 39.1395 25.9711 40.4004 24.4157 40.4004C22.8604 40.4004 21.5996 39.1395 21.5996 37.5842C21.5996 36.0289 22.8604 34.768 24.4157 34.768C25.0254 34.7662 25.6188 34.9641 26.1054 35.3313C26.151 35.3654 26.2027 35.3903 26.2579 35.4044C26.313 35.4185 26.3703 35.4216 26.4266 35.4136C26.483 35.4055 26.5371 35.3865 26.5861 35.3575C26.635 35.3285 26.6778 35.2901 26.7119 35.2446C26.7461 35.1991 26.7709 35.1473 26.7851 35.0922C26.7992 35.0371 26.8024 34.9797 26.7943 34.9234C26.7863 34.8671 26.7673 34.8129 26.7383 34.7639C26.7093 34.7149 26.6709 34.6722 26.6254 34.638C26.0783 34.2277 25.4277 33.9778 24.7465 33.9163C24.0654 33.8549 23.3805 33.9844 22.7688 34.2902C22.1571 34.5961 21.6426 35.0662 21.2831 35.648C20.9235 36.2298 20.733 36.9002 20.733 37.5842V37.5842ZM34.5973 20.4705C34.7122 20.4705 34.8224 20.4248 34.9037 20.3436C34.9849 20.2623 35.0306 20.1521 35.0306 20.0372C35.0306 19.9223 34.9849 19.8121 34.9037 19.7308C34.8224 19.6496 34.7122 19.6039 34.5973 19.6039H23.3326C23.2177 19.6039 23.1075 19.6496 23.0262 19.7308C22.945 19.8121 22.8993 19.9223 22.8993 20.0372V21.7702C22.8993 22.0096 23.0933 22.2035 23.3326 22.2035H34.5973C34.7122 22.2035 34.8224 22.1579 34.9037 22.0766C34.9849 21.9953 35.0306 21.8851 35.0306 21.7702C35.0306 21.6553 34.9849 21.5451 34.9037 21.4639C34.8224 21.3826 34.7122 21.337 34.5973 21.337H23.7658V20.4705H34.5973ZM24.6324 23.07C24.5175 23.07 24.4073 23.1157 24.326 23.1969C24.2448 23.2782 24.1991 23.3884 24.1991 23.5033C24.1991 23.6182 24.2448 23.7284 24.326 23.8096C24.4073 23.8909 24.5175 23.9365 24.6324 23.9365H33.2976C33.4125 23.9365 33.5227 23.8909 33.6039 23.8096C33.6852 23.7284 33.7308 23.6182 33.7308 23.5033C33.7308 23.3884 33.6852 23.2782 33.6039 23.1969C33.5227 23.1157 33.4125 23.07 33.2976 23.07H24.6324ZM35.8971 26.1028H26.3654C26.2505 26.1028 26.1403 26.1485 26.059 26.2297C25.9778 26.311 25.9321 26.4212 25.9321 26.5361C25.9321 26.651 25.9778 26.7612 26.059 26.8425C26.1403 26.9237 26.2505 26.9694 26.3654 26.9694H35.8971C36.012 26.9694 36.1222 26.9237 36.2035 26.8425C36.2847 26.7612 36.3304 26.651 36.3304 26.5361C36.3304 26.4212 36.2847 26.311 36.2035 26.2297C36.1222 26.1485 36.012 26.1028 35.8971 26.1028ZM31.5645 29.1356C31.5645 29.0207 31.5189 28.9105 31.4376 28.8293C31.3564 28.748 31.2462 28.7024 31.1313 28.7024H22.4661C22.3512 28.7024 22.241 28.748 22.1597 28.8293C22.0785 28.9105 22.0328 29.0207 22.0328 29.1356C22.0328 29.2506 22.0785 29.3608 22.1597 29.442C22.241 29.5233 22.3512 29.5689 22.4661 29.5689H31.1313C31.3705 29.5689 31.5645 29.375 31.5645 29.1356ZM35.8971 28.7024H32.8643C32.7494 28.7024 32.6392 28.748 32.5579 28.8293C32.4767 28.9105 32.431 29.0207 32.431 29.1356C32.431 29.2506 32.4767 29.3608 32.5579 29.442C32.6392 29.5233 32.7494 29.5689 32.8643 29.5689H35.8971C36.012 29.5689 36.1222 29.5233 36.2035 29.442C36.2847 29.3608 36.3304 29.2506 36.3304 29.1356C36.3304 29.0207 36.2847 28.9105 36.2035 28.8293C36.1222 28.748 36.012 28.7024 35.8971 28.7024ZM26.7987 31.7352C26.9136 31.7352 27.0238 31.6896 27.105 31.6083C27.1863 31.5271 27.2319 31.4169 27.2319 31.3019C27.2319 31.187 27.1863 31.0768 27.105 30.9956C27.0238 30.9143 26.9136 30.8687 26.7987 30.8687H22.4661C22.3512 30.8687 22.241 30.9143 22.1597 30.9956C22.0785 31.0768 22.0328 31.187 22.0328 31.3019C22.0328 31.4169 22.0785 31.5271 22.1597 31.6083C22.241 31.6896 22.3512 31.7352 22.4661 31.7352H26.7987ZM28.5317 31.7352H31.5645C31.6794 31.7352 31.7896 31.6896 31.8709 31.6083C31.9521 31.5271 31.9978 31.4169 31.9978 31.3019C31.9978 31.187 31.9521 31.0768 31.8709 30.9956C31.7896 30.9143 31.6794 30.8687 31.5645 30.8687H28.5317C28.4168 30.8687 28.3066 30.9143 28.2253 30.9956C28.1441 31.0768 28.0984 31.187 28.0984 31.3019C28.0984 31.4169 28.1441 31.5271 28.2253 31.6083C28.3066 31.6896 28.4168 31.7352 28.5317 31.7352Z" fill="#BCC8D2"/>
<path d="M38.4967 36.9347C38.3818 36.9347 38.2716 36.9803 38.1903 37.0616C38.1091 37.1428 38.0634 37.253 38.0634 37.3679V41.7005C38.0634 41.9399 37.8694 42.1338 37.6302 42.1338H20.2998C20.0605 42.1338 19.8665 41.9399 19.8665 41.7005V18.3045C19.8665 18.1896 19.9122 18.0794 19.9934 17.9981C20.0747 17.9169 20.1849 17.8712 20.2998 17.8712H37.6302C37.7451 17.8712 37.8553 17.9169 37.9365 17.9981C38.0178 18.0794 38.0634 18.1896 38.0634 18.3045V26.4411C38.0634 26.556 38.1091 26.6662 38.1903 26.7475C38.2716 26.8287 38.3818 26.8744 38.4967 26.8744C38.6116 26.8744 38.7218 26.8287 38.803 26.7475C38.8843 26.6662 38.9299 26.556 38.9299 26.4411V18.3045C38.9299 17.5867 38.348 17.0047 37.6302 17.0047H20.2998C19.582 17.0047 19 17.5867 19 18.3045V41.7005C19 42.4185 19.582 43.0003 20.2998 43.0003H37.6302C38.348 43.0003 38.9299 42.4185 38.9299 41.7005V37.3679C38.9299 37.253 38.8843 37.1428 38.803 37.0616C38.7218 36.9803 38.6116 36.9347 38.4967 36.9347Z" fill="#BCC8D2"/>
</g>
</g>
<defs>
<clipPath id="clip0_4952_46792">
<rect width="60" height="60" fill="white"/>
</clipPath>
<clipPath id="clip1_4952_46792">
<rect width="26" height="26" fill="white" transform="translate(19 17)"/>
</clipPath>
</defs>
</svg>
