<svg width="60" height="60" viewBox="0 0 60 60" fill="none" xmlns="http://www.w3.org/2000/svg">
<circle cx="30" cy="30" r="29.5" stroke="#87A4BC"/>
<path d="M35.8242 44H24.1758C22.8188 44 21.7148 42.896 21.7148 41.5391V18.4609C21.7148 17.104 22.8188 16 24.1758 16H35.8242C37.1812 16 38.2852 17.104 38.2852 18.4609V34.433C38.2852 34.6596 38.1015 34.8432 37.875 34.8432C37.6485 34.8432 37.4648 34.6596 37.4648 34.433V18.4609C37.4648 17.5563 36.7289 16.8203 35.8242 16.8203H24.1758C23.2711 16.8203 22.5352 17.5563 22.5352 18.4609V41.5391C22.5352 42.4437 23.2711 43.1797 24.1758 43.1797H35.8242C36.7289 43.1797 37.4648 42.4437 37.4648 41.5391V36.3567C37.4648 36.1301 37.6485 35.9465 37.875 35.9465C38.1015 35.9465 38.2852 36.1301 38.2852 36.3567V41.5391C38.2852 42.896 37.1812 44 35.8242 44Z" fill="#BCC8D2"/>
<path d="M30.6845 18.4609H27.9501C27.7236 18.4609 27.54 18.2774 27.54 18.0508C27.54 17.8242 27.7236 17.6406 27.9501 17.6406H30.6845C30.911 17.6406 31.0946 17.8242 31.0946 18.0508C31.0946 18.2774 30.911 18.4609 30.6845 18.4609ZM33.1181 41.2656H26.8837C26.2354 41.2656 25.7079 40.7382 25.7079 40.0898V38.832C25.7079 38.1837 26.2354 37.6562 26.8837 37.6562H28.082C28.3085 37.6562 28.4922 37.8398 28.4922 38.0664C28.4922 38.293 28.3085 38.4766 28.082 38.4766H26.8837C26.7895 38.4767 26.6991 38.5142 26.6325 38.5808C26.5658 38.6474 26.5284 38.7378 26.5282 38.832V40.0898C26.5282 40.2858 26.6877 40.4453 26.8837 40.4453H33.1181C33.3141 40.4453 33.4735 40.2858 33.4735 40.0898V38.832C33.4735 38.636 33.3141 38.4766 33.1181 38.4766H30.0282C29.8017 38.4766 29.618 38.293 29.618 38.0664C29.618 37.8398 29.8017 37.6562 30.0282 37.6562H33.1181C33.7664 37.6562 34.2939 38.1837 34.2939 38.832V40.0898C34.2939 40.7382 33.7664 41.2656 33.1181 41.2656ZM30.0273 35.25C26.4992 35.3293 23.3217 32.2012 23.3837 28.6374C23.3754 26.9069 24.0292 25.2652 25.2247 24.0146C25.2619 23.9756 25.3064 23.9444 25.3557 23.9227C25.405 23.9009 25.4581 23.8891 25.512 23.8879C25.5658 23.8867 25.6194 23.8961 25.6696 23.9156C25.7198 23.9351 25.7657 23.9643 25.8046 24.0015C25.8435 24.0388 25.8748 24.0833 25.8965 24.1326C25.9182 24.1819 25.93 24.2349 25.9312 24.2888C25.9325 24.3426 25.9231 24.3962 25.9036 24.4464C25.8841 24.4966 25.8549 24.5425 25.8177 24.5815C24.7698 25.6776 24.1967 27.1167 24.2041 28.6335C24.1488 31.7221 26.9023 34.4988 30.0274 34.4297C33.1369 34.5013 35.938 31.7246 35.8523 28.5775C35.8449 27.0218 35.232 25.5622 34.1267 24.4674C33.0214 23.3727 31.5568 22.7726 30.0002 22.7814C29.037 22.786 28.084 23.0305 27.2444 23.4883C27.1971 23.5141 27.1452 23.5303 27.0916 23.536C27.0381 23.5417 26.9839 23.5369 26.9322 23.5217C26.8279 23.4909 26.74 23.42 26.6879 23.3245C26.6359 23.229 26.6239 23.1167 26.6546 23.0124C26.6853 22.908 26.7562 22.8201 26.8517 22.7681C27.8102 22.2454 28.8976 21.9664 29.9962 21.961C31.7284 21.9473 33.458 22.6399 34.7039 23.8846C35.9649 25.1335 36.6641 26.7988 36.6726 28.5736C36.7704 32.1264 33.6155 35.3308 30.0273 35.25Z" fill="#BCC8D2"/>
<path d="M29.261 32.173C28.9323 32.173 28.6233 32.045 28.3909 31.8126L25.9026 29.3244C25.4674 28.9037 25.4008 28.0735 25.9026 27.5842C26.3232 27.1491 27.1535 27.0824 27.6427 27.5842L29.261 29.2025L32.4104 26.053C32.831 25.6178 33.6613 25.5512 34.1505 26.053C34.5858 26.4736 34.6524 27.3038 34.1505 27.7931L32.6964 29.2473C32.619 29.322 32.5154 29.3634 32.4078 29.3625C32.3002 29.3616 32.1973 29.3184 32.1212 29.2424C32.0451 29.1663 32.002 29.0634 32.0011 28.9558C32.0002 28.8482 32.0416 28.7445 32.1163 28.6672L33.5705 27.213C33.6871 27.0909 33.7564 26.8396 33.5705 26.6331C33.4106 26.4732 33.1504 26.4731 32.9905 26.6331L29.551 30.0726C29.474 30.1495 29.3697 30.1927 29.261 30.1927C29.1522 30.1927 29.0479 30.1495 28.9709 30.0726L27.0627 28.1643C26.9027 28.0043 26.6426 28.0043 26.4827 28.1643C26.366 28.2864 26.2967 28.5378 26.4827 28.7443L28.9709 31.2326C29.0484 31.3101 29.1514 31.3527 29.261 31.3527C29.3705 31.3527 29.4735 31.3101 29.551 31.2326L30.7619 30.0216C30.8393 29.9468 30.9429 29.9054 31.0505 29.9063C31.1581 29.9072 31.261 29.9504 31.3371 30.0265C31.4132 30.1025 31.4563 30.2055 31.4572 30.3131C31.4581 30.4207 31.4167 30.5243 31.3419 30.6016L30.131 31.8126C30.017 31.9273 29.8814 32.0181 29.7321 32.08C29.5828 32.1418 29.4226 32.1735 29.261 32.173Z" fill="#BCC8D2"/>
<path d="M32.0508 18.4609C32.2773 18.4609 32.4609 18.2773 32.4609 18.0508C32.4609 17.8243 32.2773 17.6406 32.0508 17.6406C31.8243 17.6406 31.6406 17.8243 31.6406 18.0508C31.6406 18.2773 31.8243 18.4609 32.0508 18.4609Z" fill="#BCC8D2"/>
</svg>
