<svg width="60" height="60" viewBox="0 0 60 60" fill="none" xmlns="http://www.w3.org/2000/svg">
<g clip-path="url(#clip0_4952_46804)">
<circle cx="30" cy="30" r="29.5" stroke="#87A4BC"/>
<g clip-path="url(#clip1_4952_46804)">
<path d="M22.9178 36.8219C22.8088 36.8219 22.7043 36.8652 22.6272 36.9423C22.5501 37.0194 22.5068 37.1239 22.5068 37.2329C22.5068 37.4897 22.2979 37.6986 22.0411 37.6986C21.7843 37.6986 21.5753 37.4897 21.5753 37.2329C21.5753 36.9761 21.7843 36.7671 22.0411 36.7671C22.1501 36.7671 22.2546 36.7238 22.3317 36.6468C22.4088 36.5697 22.452 36.4652 22.452 36.3562C22.452 36.2472 22.4088 36.1426 22.3317 36.0656C22.2546 35.9885 22.1501 35.9452 22.0411 35.9452C21.3311 35.9452 20.7534 36.5229 20.7534 37.2329C20.7534 37.9429 21.3311 38.5206 22.0411 38.5206C22.7511 38.5206 23.3288 37.9429 23.3288 37.2329C23.3288 37.1239 23.2855 37.0194 23.2084 36.9423C23.1313 36.8652 23.0268 36.8219 22.9178 36.8219ZM36.5068 36.3836C36.3978 36.3836 36.2933 36.4269 36.2163 36.5039C36.1392 36.581 36.0959 36.6855 36.0959 36.7945C36.0959 37.293 35.6903 37.6986 35.1918 37.6986C34.6933 37.6986 34.2877 37.293 34.2877 36.7945C34.2877 36.296 34.6933 35.8904 35.1918 35.8904C35.3008 35.8904 35.4053 35.8471 35.4824 35.77C35.5594 35.693 35.6027 35.5884 35.6027 35.4795C35.6027 35.3705 35.5594 35.2659 35.4824 35.1889C35.4053 35.1118 35.3008 35.0685 35.1918 35.0685C34.24 35.0685 33.4657 35.8428 33.4657 36.7945C33.4657 37.7463 34.24 38.5206 35.1918 38.5206C36.1435 38.5206 36.9178 37.7463 36.9178 36.7945C36.9178 36.6855 36.8745 36.581 36.7974 36.5039C36.7204 36.4269 36.6158 36.3836 36.5068 36.3836Z" fill="#BCC8D2"/>
<path d="M46.589 37.6986H40.0137C40.0064 37.6986 39.9995 37.6957 39.9943 37.6906C39.9892 37.6855 39.9863 37.6785 39.9863 37.6712V30.2192C39.9863 29.7509 39.6053 29.3699 39.137 29.3699H38.2329V20.5753C38.2329 20.107 37.8519 19.726 37.3836 19.726H34.7534C34.6444 19.726 34.5399 19.7693 34.4628 19.8464C34.3858 19.9235 34.3425 20.028 34.3425 20.137C34.3425 20.246 34.3858 20.3505 34.4628 20.4276C34.5399 20.5046 34.6444 20.5479 34.7534 20.5479H35.6575V32.023C35.5027 32.0079 35.3473 32.0002 35.1918 32C35.0346 32 34.8793 32.0078 34.726 32.0227V29.8123C34.726 29.4329 34.6258 29.0587 34.4361 28.7301L31.2087 23.1398C30.8493 22.3969 30.0864 21.9178 29.2603 21.9178H22.9178C22.2078 21.9178 21.6301 22.4955 21.6301 23.2055V30.6849H21.1644C20.2127 30.6849 19.4384 31.4592 19.4384 32.411V35.4795C19.4384 35.5293 19.4477 35.5769 19.464 35.6212C19.1604 36.1039 18.9995 36.6626 19 37.2329C19 38.9098 20.3642 40.274 22.0411 40.274C23.4232 40.274 24.5921 39.3469 24.9606 38.0822H30.8927L30.8955 38.0823L30.8979 38.0822H31.9603C32.4734 39.365 33.728 40.274 35.1917 40.274C37.1103 40.274 38.6712 38.7131 38.6712 36.7945C38.6717 36.2006 38.5192 35.6165 38.2283 35.0987C38.231 35.0798 38.2328 35.0607 38.2328 35.0411V33.3092C38.2335 33.2954 38.2335 33.2816 38.2328 33.2678V30.1918H39.1369C39.1442 30.1918 39.1512 30.1947 39.1563 30.1998C39.1614 30.2049 39.1643 30.2119 39.1643 30.2192V37.6712C39.1643 38.1396 39.5453 38.5205 40.0136 38.5205H46.589C46.698 38.5206 46.8025 38.4773 46.8796 38.4002C46.9567 38.3231 47 38.2186 47 38.1096C47 38.0006 46.9567 37.8961 46.8796 37.819C46.8026 37.7419 46.698 37.6986 46.589 37.6986ZM37.3836 20.5479C37.3908 20.5479 37.3978 20.5508 37.4029 20.556C37.4081 20.5611 37.411 20.5681 37.411 20.5753V29.3699H36.4795V20.5479H37.3836ZM30.4735 23.5075C30.4782 23.5175 30.4834 23.5274 30.489 23.537L33.6033 28.9315H27.274V24.0822C27.274 23.9732 27.2307 23.8687 27.1536 23.7916C27.0765 23.7145 26.972 23.6712 26.863 23.6712C26.754 23.6712 26.6495 23.7145 26.5724 23.7916C26.4954 23.8687 26.4521 23.9732 26.4521 24.0822V28.9315H25.5479C25.0494 28.9315 24.6438 28.5259 24.6438 28.0274V22.7397H29.2603C29.7763 22.7397 30.2525 23.0411 30.4735 23.5075ZM22.4521 23.2055C22.4521 22.9487 22.661 22.7397 22.9178 22.7397H23.8219V28.0274C23.8219 28.9791 24.5962 29.7534 25.5479 29.7534H33.8767C33.8853 29.7534 33.8937 29.7527 33.9021 29.7522C33.903 29.7722 33.9041 29.7922 33.9041 29.8123V32.1758C33.3447 32.3323 32.8185 32.5894 32.3513 32.9345L30.9924 31.5756C30.418 31.0013 29.6544 30.6849 28.8421 30.6849H22.4521V23.2055ZM22.0411 39.4521C20.8174 39.4521 19.8219 38.4565 19.8219 37.2329C19.8219 36.0092 20.8174 35.0137 22.0411 35.0137C23.2648 35.0137 24.2603 36.0092 24.2603 37.2329C24.2603 38.4565 23.2648 39.4521 22.0411 39.4521ZM22.0411 34.1918C21.3764 34.1918 20.7613 34.4067 20.2603 34.77V32.411C20.2603 31.9124 20.6659 31.5069 21.1644 31.5069H28.8421C29.4348 31.5069 29.9921 31.7377 30.4113 32.1568L31.7326 33.4781C30.906 34.3399 30.3973 35.5089 30.3973 36.7945C30.3973 36.9501 30.4052 37.1057 30.4201 37.2603H25.0815C25.0816 37.2511 25.0822 37.2421 25.0822 37.2329C25.0822 35.556 23.718 34.1918 22.0411 34.1918ZM31.2473 37.2603C31.229 37.1057 31.2196 36.9502 31.2192 36.7945C31.2192 34.604 33.0013 32.8219 35.1918 32.8219C35.9919 32.8219 36.7547 33.0559 37.411 33.4996V34.1168C36.8082 33.6164 36.0346 33.3151 35.1918 33.3151C33.2732 33.3151 31.7123 34.8759 31.7123 36.7945C31.7123 36.9525 31.7239 37.1078 31.7444 37.2603H31.2473ZM35.1918 39.4521C33.7264 39.4521 32.5342 38.2599 32.5342 36.7945C32.5342 35.3292 33.7264 34.137 35.1918 34.137C36.6572 34.137 37.8493 35.3292 37.8493 36.7945C37.8493 38.2599 36.6572 39.4521 35.1918 39.4521ZM37.411 32.5427C37.1144 32.3874 36.8021 32.264 36.4795 32.1746V30.1918H37.411V32.5427Z" fill="#BCC8D2"/>
</g>
</g>
<defs>
<clipPath id="clip0_4952_46804">
<rect width="60" height="60" fill="white"/>
</clipPath>
<clipPath id="clip1_4952_46804">
<rect width="28" height="28" fill="white" transform="translate(19 16)"/>
</clipPath>
</defs>
</svg>
