<svg width="60" height="60" viewBox="0 0 60 60" fill="none" xmlns="http://www.w3.org/2000/svg">
<circle cx="30" cy="30" r="29.5" stroke="#87A4BC"/>
<g clip-path="url(#clip0_5451_65469)">
<mask id="mask0_5451_65469" style="mask-type:luminance" maskUnits="userSpaceOnUse" x="16" y="16" width="28" height="28">
<path d="M16 16.0001H43.9999V44H16V16.0001Z" fill="white"/>
</mask>
<g mask="url(#mask0_5451_65469)">
<path d="M22.0156 32.5156L17.4656 25.0503C16.8854 24.1818 16.5469 23.1384 16.5469 22.0157C16.5469 18.9953 18.9952 16.5469 22.0156 16.5469C25.036 16.5469 27.4843 18.9953 27.4843 22.0157C27.4843 23.1384 27.1458 24.1818 26.5656 25.0503L22.0156 32.5156Z" stroke="#BCC8D2" stroke-miterlimit="10" stroke-linecap="round" stroke-linejoin="round"/>
<path d="M24.2031 22.0156C24.2031 23.2237 23.2237 24.2031 22.0156 24.2031C20.8076 24.2031 19.8281 23.2237 19.8281 22.0156C19.8281 20.8076 20.8076 19.8281 22.0156 19.8281C23.2237 19.8281 24.2031 20.8076 24.2031 22.0156Z" stroke="#BCC8D2" stroke-miterlimit="10" stroke-linecap="round" stroke-linejoin="round"/>
<path d="M37.9844 41.2656C38.5887 41.2656 39.0781 41.7556 39.0781 42.3594C39.0781 42.9637 38.5887 43.4531 37.9844 43.4531C37.3801 43.4531 36.8906 42.9637 36.8906 42.3594C36.8906 41.7556 37.3801 41.2656 37.9844 41.2656ZM37.9844 41.2656L33.4344 34.1284C32.8541 33.26 32.5156 32.2165 32.5156 31.0938C32.5156 28.0734 34.964 25.6251 37.9844 25.6251C41.0047 25.6251 43.4531 28.0734 43.4531 31.0938C43.4531 32.2165 43.1146 33.26 42.5343 34.1284L37.9844 41.2656Z" stroke="#BCC8D2" stroke-miterlimit="10" stroke-linecap="round" stroke-linejoin="round"/>
<path d="M40.1719 31.0938C40.1719 32.3018 39.1924 33.2812 37.9844 33.2812C36.7763 33.2812 35.7969 32.3018 35.7969 31.0938C35.7969 29.8857 36.7763 28.9063 37.9844 28.9063C39.1924 28.9063 40.1719 29.8857 40.1719 31.0938Z" stroke="#BCC8D2" stroke-miterlimit="10" stroke-linecap="round" stroke-linejoin="round"/>
<path d="M23.1094 33.6094C23.1094 34.2137 22.6199 34.7031 22.0156 34.7031C21.4113 34.7031 20.9219 34.2137 20.9219 33.6094C20.9219 33.0056 21.4113 32.5156 22.0156 32.5156C22.6199 32.5156 23.1094 33.0056 23.1094 33.6094Z" stroke="#BCC8D2" stroke-miterlimit="10" stroke-linecap="round" stroke-linejoin="round"/>
<path d="M29.7266 42.3594C29.7266 42.6614 29.4817 42.9062 29.1797 42.9062C28.8776 42.9062 28.6328 42.6614 28.6328 42.3594C28.6328 42.0573 28.8776 41.8125 29.1797 41.8125C29.4817 41.8125 29.7266 42.0573 29.7266 42.3594Z" fill="#BCC8D2"/>
<path d="M23.1094 33.6094H27.8125C29.0205 33.6094 30 34.5889 30 35.7969C30 37.0049 29.0205 37.9844 27.8125 37.9844H21.25C20.042 37.9844 19.0625 38.9638 19.0625 40.1719C19.0625 41.3799 20.042 42.3594 21.25 42.3594H26.7187" stroke="#BCC8D2" stroke-miterlimit="10" stroke-linecap="round" stroke-linejoin="round"/>
<path d="M31.6406 42.3594H36.8906" stroke="#BCC8D2" stroke-miterlimit="10" stroke-linecap="round" stroke-linejoin="round"/>
</g>
</g>
<defs>
<clipPath id="clip0_5451_65469">
<rect width="28" height="28" fill="white" transform="translate(16 16)"/>
</clipPath>
</defs>
</svg>
