<svg width="60" height="60" viewBox="0 0 60 60" fill="none" xmlns="http://www.w3.org/2000/svg">
<g clip-path="url(#clip0_4810_73622)">
<circle cx="30" cy="30" r="29.5" stroke="#08587F"/>
<g clip-path="url(#clip1_4810_73622)">
<path d="M16.875 35.07H34.4587C34.5602 35.07 34.6576 35.0296 34.7294 34.9578C34.8012 34.8861 34.8415 34.7887 34.8415 34.6872V25.8953C34.8415 25.83 34.8248 25.7659 34.793 25.7088C34.7612 25.6518 34.7154 25.6039 34.6598 25.5696L26.7264 20.6704C26.7633 20.5585 26.7822 20.4414 26.7823 20.3236C26.7823 20.2296 26.7476 20.1388 26.685 20.0687C26.6223 19.9986 26.536 19.954 26.4426 19.9434C26.3491 19.9329 26.2551 19.9571 26.1783 20.0114C26.1016 20.0658 26.0476 20.1465 26.0266 20.2382L25.868 20.1402C25.8075 20.1029 25.7379 20.0832 25.6669 20.0832C25.5958 20.0832 25.5262 20.1029 25.4657 20.1402L25.3319 20.2229C25.3753 20.0789 25.509 19.9737 25.6669 19.9737C25.7684 19.9737 25.8658 19.9334 25.9376 19.8616C26.0094 19.7898 26.0497 19.6924 26.0497 19.5909V19.0003C26.4567 18.8453 26.7471 18.4521 26.7471 17.9914C26.7471 17.5308 26.4566 17.1376 26.0497 16.9826V16.875C26.0497 16.7735 26.0094 16.6761 25.9376 16.6043C25.8658 16.5325 25.7684 16.4922 25.6669 16.4922C25.5654 16.4922 25.468 16.5325 25.3962 16.6043C25.3244 16.6761 25.2841 16.7735 25.2841 16.875V16.9826C24.8771 17.1376 24.5866 17.5308 24.5866 17.9914C24.5866 18.4521 24.8771 18.8453 25.2841 19.0003V19.2758C24.857 19.4323 24.5514 19.8429 24.5514 20.3236C24.5514 20.4447 24.5714 20.5611 24.6073 20.6704L16.6739 25.5696C16.6183 25.6039 16.5725 25.6518 16.5407 25.7088C16.5089 25.7659 16.4922 25.83 16.4922 25.8953V34.6872C16.4922 34.7887 16.5325 34.8861 16.6043 34.9578C16.6761 35.0296 16.7735 35.07 16.875 35.07ZM25.6668 18.306C25.4934 18.306 25.3522 18.1649 25.3522 17.9914C25.3522 17.818 25.4934 17.6768 25.6668 17.6768C25.8403 17.6768 25.9814 17.818 25.9814 17.9914C25.9814 18.1649 25.8403 18.306 25.6668 18.306ZM17.2578 34.3043V26.2781H34.0759V34.3043H17.2578ZM25.6668 21.4391C25.8796 21.4391 26.0779 21.3781 26.2473 21.2743L33.1102 25.5125H18.2234L25.0863 21.2743C25.2557 21.3781 25.4541 21.4391 25.6668 21.4391ZM26.0496 27.9005V32.7563C26.0496 32.8578 26.0093 32.9552 25.9375 33.027C25.8657 33.0988 25.7683 33.1391 25.6668 33.1391C25.5653 33.1391 25.4679 33.0988 25.3961 33.027C25.3243 32.9552 25.284 32.8578 25.284 32.7563V27.9005C25.284 27.799 25.3243 27.7016 25.3961 27.6299C25.4679 27.5581 25.5653 27.5177 25.6668 27.5177C25.7683 27.5177 25.8657 27.5581 25.9375 27.6299C26.0093 27.7016 26.0496 27.799 26.0496 27.9005ZM28.3111 27.9005V32.7563C28.3111 32.8578 28.2708 32.9552 28.199 33.027C28.1272 33.0988 28.0298 33.1391 27.9283 33.1391C27.8267 33.1391 27.7294 33.0988 27.6576 33.027C27.5858 32.9552 27.5455 32.8578 27.5455 32.7563V27.9005C27.5455 27.799 27.5858 27.7016 27.6576 27.6299C27.7294 27.5581 27.8267 27.5177 27.9283 27.5177C28.0298 27.5177 28.1272 27.5581 28.199 27.6299C28.2708 27.7016 28.3111 27.799 28.3111 27.9005ZM19.2652 27.8262V32.6819C19.2652 32.7835 19.2248 32.8808 19.153 32.9526C19.0813 33.0244 18.9839 33.0647 18.8824 33.0647C18.7808 33.0647 18.6835 33.0244 18.6117 32.9526C18.5399 32.8808 18.4995 32.7835 18.4995 32.6819V27.8262C18.4995 27.7246 18.5399 27.6273 18.6117 27.5555C18.6835 27.4837 18.7808 27.4434 18.8824 27.4434C18.9839 27.4434 19.0813 27.4837 19.153 27.5555C19.2248 27.6273 19.2652 27.7246 19.2652 27.8262ZM30.5726 27.9005V32.7563C30.5726 32.8578 30.5322 32.9552 30.4605 33.027C30.3887 33.0988 30.2913 33.1391 30.1898 33.1391C30.0882 33.1391 29.9909 33.0988 29.9191 33.027C29.8473 32.9552 29.807 32.8578 29.807 32.7563V27.9005C29.807 27.799 29.8473 27.7016 29.9191 27.6299C29.9909 27.5581 30.0882 27.5177 30.1898 27.5177C30.2913 27.5177 30.3887 27.5581 30.4605 27.6299C30.5322 27.7016 30.5726 27.799 30.5726 27.9005ZM21.5267 27.8262V32.6819C21.5267 32.7835 21.4863 32.8808 21.4145 32.9526C21.3427 33.0244 21.2454 33.0647 21.1439 33.0647C21.0423 33.0647 20.945 33.0244 20.8732 32.9526C20.8014 32.8808 20.761 32.7835 20.761 32.6819V27.8262C20.761 27.7246 20.8014 27.6273 20.8732 27.5555C20.945 27.4837 21.0423 27.4434 21.1439 27.4434C21.2454 27.4434 21.3427 27.4837 21.4145 27.5555C21.4863 27.6273 21.5267 27.7246 21.5267 27.8262ZM23.7882 27.9005V32.7563C23.7882 32.8578 23.7478 32.9552 23.676 33.027C23.6042 33.0988 23.5069 33.1391 23.4053 33.1391C23.3038 33.1391 23.2064 33.0988 23.1347 33.027C23.0629 32.9552 23.0225 32.8578 23.0225 32.7563V27.9005C23.0225 27.799 23.0629 27.7016 23.1347 27.6299C23.2064 27.5581 23.3038 27.5177 23.4053 27.5177C23.5069 27.5177 23.6042 27.5581 23.676 27.6299C23.7478 27.7016 23.7882 27.799 23.7882 27.9005ZM32.8341 27.9005V32.7563C32.8341 32.8578 32.7937 32.9552 32.7219 33.027C32.6502 33.0988 32.5528 33.1391 32.4513 33.1391C32.3497 33.1391 32.2524 33.0988 32.1806 33.027C32.1088 32.9552 32.0684 32.8578 32.0684 32.7563V27.9005C32.0684 27.799 32.1088 27.7016 32.1806 27.6299C32.2524 27.5581 32.3497 27.5177 32.4513 27.5177C32.5528 27.5177 32.6502 27.5581 32.7219 27.6299C32.7937 27.7016 32.8341 27.799 32.8341 27.9005ZM43.331 36.8916L41.8337 34.5794C41.6268 34.26 41.29 34.0768 40.9095 34.0768H37.1741C37.0726 34.0768 36.9752 34.1172 36.9034 34.189C36.8316 34.2608 36.7913 34.3581 36.7913 34.4597V39.5089H34.8415V38.4759C34.8415 38.3744 34.8012 38.277 34.7294 38.2052C34.6576 38.1334 34.5602 38.0931 34.4587 38.0931H16.875C16.7735 38.0931 16.6761 38.1334 16.6043 38.2052C16.5325 38.277 16.4922 38.3744 16.4922 38.4759V39.8917C16.4922 39.9932 16.5325 40.0906 16.6043 40.1624C16.6761 40.2342 16.7735 40.2745 16.875 40.2745H17.9725C17.7049 40.6146 17.5447 41.043 17.5447 41.5084C17.5447 42.6109 18.4417 43.5079 19.5442 43.5079C20.6467 43.5079 21.5436 42.6109 21.5436 41.5084C21.5436 41.043 21.3834 40.6147 21.1158 40.2745H22.1451C21.8775 40.6146 21.7173 41.043 21.7173 41.5084C21.7173 42.6109 22.6142 43.5079 23.7168 43.5079C24.8193 43.5079 25.7163 42.6109 25.7163 41.5084C25.7163 41.043 25.556 40.6147 25.2885 40.2745H31.7411C31.4736 40.6146 31.3133 41.043 31.3133 41.5084C31.3133 42.6109 32.2102 43.5079 33.3128 43.5079C34.0347 43.5079 34.6684 43.1233 35.0199 42.5482H37.9628C38.3142 43.1231 38.9479 43.5078 39.6698 43.5078C40.3917 43.5078 41.0254 43.1232 41.3769 42.5482H42.5676C43.086 42.5482 43.5078 42.1264 43.5078 41.6081V37.4902C43.5078 37.2711 43.4499 37.0753 43.331 36.8916ZM17.2578 38.8587H34.0759V39.5089H17.2578V38.8587ZM20.778 41.5083C20.778 42.1886 20.2245 42.7422 19.5442 42.7422C18.8638 42.7422 18.3103 42.1887 18.3103 41.5083C18.3103 40.828 18.8638 40.2745 19.5442 40.2745C20.2245 40.2745 20.778 40.828 20.778 41.5083ZM24.9505 41.5083C24.9505 42.1886 24.397 42.7422 23.7167 42.7422C23.0363 42.7422 22.4828 42.1887 22.4828 41.5083C22.4828 40.828 23.0363 40.2745 23.7167 40.2745C24.397 40.2745 24.9505 40.828 24.9505 41.5083ZM33.3126 42.7422C32.6323 42.7422 32.0788 42.1887 32.0788 41.5083C32.0788 40.828 32.6323 40.2745 33.3126 40.2745C33.993 40.2745 34.5465 40.828 34.5465 41.5083C34.5465 42.1887 33.993 42.7422 33.3126 42.7422ZM34.8843 40.2745H36.7913V41.7825H35.2928C35.3055 41.6916 35.3119 41.6 35.3121 41.5083C35.3121 41.043 35.1519 40.6146 34.8843 40.2745ZM37.6704 41.5083C37.6704 41.6014 37.6772 41.6928 37.6896 41.7825H37.5569V34.8424H40.9094C41.0305 34.8424 41.1252 34.8939 41.191 34.9955L42.6883 37.3078C42.727 37.3677 42.7421 37.4187 42.7421 37.4901V39.04H42.528C42.4265 39.04 42.3291 39.0803 42.2573 39.1521C42.1856 39.2239 42.1452 39.3213 42.1452 39.4228C42.1452 39.5243 42.1856 39.6217 42.2573 39.6935C42.3291 39.7653 42.4265 39.8056 42.528 39.8056H42.7422V40.4686H41.377C41.0254 39.8935 40.3917 39.5088 39.6698 39.5088C38.5673 39.5088 37.6704 40.4058 37.6704 41.5083ZM39.6698 42.7422C38.9895 42.7422 38.4359 42.1887 38.4359 41.5083C38.4359 40.828 38.9894 40.2745 39.6698 40.2745C40.3502 40.2745 40.9036 40.828 40.9036 41.5083C40.9036 42.1887 40.3502 42.7422 39.6698 42.7422ZM42.5677 41.7825H41.65C41.6627 41.6917 41.6691 41.6001 41.6693 41.5083C41.6693 41.4153 41.6624 41.3239 41.65 41.2342H42.7422V41.608C42.7421 41.6543 42.7237 41.6986 42.691 41.7314C42.6583 41.7641 42.6139 41.7825 42.5677 41.7825ZM41.915 37.2789C41.9479 37.2184 41.9639 37.1501 41.9612 37.0813C41.9586 37.0126 41.9375 36.9457 41.9001 36.8879L40.9334 35.3951C40.8987 35.3415 40.8511 35.2974 40.7949 35.2669C40.7388 35.2364 40.6759 35.2204 40.6121 35.2204H38.7299C38.6283 35.2204 38.531 35.2607 38.4592 35.3325C38.3874 35.4043 38.3471 35.5017 38.3471 35.6032V37.096C38.3471 37.1976 38.3874 37.2949 38.4592 37.3667C38.531 37.4385 38.6283 37.4788 38.7299 37.4788H41.5787C41.6476 37.4788 41.7151 37.4602 41.7743 37.425C41.8335 37.3898 41.8821 37.3393 41.915 37.2789ZM39.1127 36.7132V35.986H40.4039L40.8747 36.7132H39.1127ZM23.2941 41.5083C23.2941 41.2749 23.4833 41.0856 23.7167 41.0856C23.9502 41.0856 24.1394 41.2749 24.1394 41.5083C24.1376 41.6193 24.0923 41.725 24.0132 41.8028C23.9342 41.8807 23.8277 41.9243 23.7167 41.9243C23.6058 41.9243 23.4993 41.8807 23.4202 41.8028C23.3412 41.725 23.2958 41.6193 23.2941 41.5083ZM19.1215 41.5083C19.1206 41.4522 19.1308 41.3966 19.1517 41.3445C19.1725 41.2924 19.2035 41.245 19.2428 41.205C19.2822 41.165 19.3291 41.1333 19.3808 41.1116C19.4325 41.09 19.488 41.0788 19.5441 41.0788C19.6002 41.0788 19.6557 41.09 19.7075 41.1116C19.7592 41.1333 19.8061 41.165 19.8454 41.205C19.8848 41.245 19.9158 41.2924 19.9366 41.3445C19.9574 41.3966 19.9677 41.4522 19.9668 41.5083C19.965 41.6193 19.9197 41.725 19.8406 41.8028C19.7616 41.8807 19.6551 41.9243 19.5441 41.9243C19.4332 41.9243 19.3267 41.8807 19.2476 41.8028C19.1686 41.725 19.1232 41.6193 19.1215 41.5083ZM33.7353 41.5083C33.7353 41.6204 33.6908 41.728 33.6115 41.8072C33.5322 41.8865 33.4246 41.931 33.3125 41.931C33.2004 41.931 33.0929 41.8864 33.0136 41.8072C32.9344 41.7279 32.8898 41.6203 32.8899 41.5082C32.8899 41.3961 32.9344 41.2886 33.0137 41.2093C33.053 41.1701 33.0996 41.1389 33.1509 41.1177C33.2022 41.0965 33.2571 41.0855 33.3126 41.0855C33.3682 41.0855 33.4231 41.0965 33.4744 41.1177C33.5257 41.139 33.5723 41.1701 33.6115 41.2094C33.6508 41.2487 33.6819 41.2953 33.7032 41.3465C33.7244 41.3978 33.7353 41.4528 33.7353 41.5083ZM40.0925 41.5083C40.0925 41.5638 40.0815 41.6188 40.0603 41.6701C40.039 41.7214 40.0079 41.768 39.9686 41.8072C39.9294 41.8465 39.8827 41.8776 39.8315 41.8988C39.7802 41.9201 39.7252 41.931 39.6697 41.931C39.6142 41.931 39.5592 41.9201 39.5079 41.8988C39.4566 41.8776 39.41 41.8464 39.3708 41.8072C39.3315 41.7679 39.3004 41.7213 39.2792 41.67C39.2579 41.6187 39.247 41.5637 39.247 41.5082C39.247 41.3961 39.2916 41.2886 39.3709 41.2093C39.4501 41.13 39.5577 41.0855 39.6698 41.0855C39.7819 41.0856 39.8894 41.1301 39.9687 41.2094C40.048 41.2887 40.0925 41.3962 40.0925 41.5083Z" fill="#BCC8D2"/>
</g>
</g>
<defs>
<clipPath id="clip0_4810_73622">
<rect width="60" height="60" fill="white"/>
</clipPath>
<clipPath id="clip1_4810_73622">
<rect width="28" height="28" fill="white" transform="translate(16 16)"/>
</clipPath>
</defs>
</svg>
