<svg width="60" height="60" viewBox="0 0 60 60" fill="none" xmlns="http://www.w3.org/2000/svg">
<g clip-path="url(#clip0_4810_73637)">
<circle cx="30" cy="30" r="29.5" stroke="#08587F"/>
<path d="M42.7822 28.8936C42.6838 28.3427 42.6372 28.0794 42.591 27.816C42.5449 27.5526 42.4979 27.2886 42.3994 26.7369C42.3852 26.6573 42.3461 26.5842 42.2878 26.5282C42.2295 26.4721 42.1549 26.436 42.0748 26.425L38.5483 25.9385C38.195 25.326 38.0325 25.0449 37.8265 24.6896L39.1705 21.3946C39.2011 21.3197 39.2072 21.237 39.1879 21.1584C39.1686 21.0798 39.1249 21.0093 39.063 20.9571L38.6557 20.6134C38.2335 20.2566 37.8106 19.9005 37.387 19.5453C37.3249 19.4932 37.2478 19.4622 37.167 19.4567C37.0861 19.4512 37.0056 19.4715 36.937 19.5147L33.9209 21.4145C33.392 21.2211 33.0929 21.1113 32.5668 20.9179L31.4757 17.5273C31.4508 17.4503 31.4021 17.3831 31.3366 17.3354C31.2711 17.2878 31.1922 17.2622 31.1113 17.2622H28.9216C28.8404 17.262 28.7613 17.2876 28.6956 17.3354C28.6299 17.3831 28.5811 17.4505 28.5563 17.5277L27.4651 20.9184L26.1109 21.4149L23.0967 19.5151C23.0282 19.4719 22.9478 19.4516 22.867 19.4571C22.7862 19.4626 22.7092 19.4935 22.6472 19.5455C22.0784 20.0213 21.9034 20.1694 21.5998 20.4253L20.9685 20.9571C20.9066 21.0093 20.8628 21.0797 20.8434 21.1583C20.824 21.2369 20.8301 21.3196 20.8606 21.3946L22.2068 24.6894C22.0019 25.0418 21.843 25.317 21.485 25.9382L17.9559 26.425C17.8757 26.436 17.8012 26.4721 17.7429 26.5282C17.6846 26.5842 17.6456 26.6573 17.6315 26.7369C17.5122 27.4039 17.4689 27.6502 17.4105 27.9838L17.2506 28.894C17.2363 28.974 17.2477 29.0564 17.2834 29.1294C17.3191 29.2024 17.3771 29.2622 17.449 29.3L20.599 30.9603L20.8493 32.3822L18.4572 35.019C18.4028 35.0791 18.3689 35.1548 18.3603 35.2354C18.3517 35.316 18.3688 35.3972 18.4093 35.4674C18.422 35.4893 19.1929 36.8237 19.3233 37.0503L18.1285 38.0837C17.7196 38.4371 17.4287 38.9071 17.2947 39.4307C17.1606 39.9542 17.1899 40.5062 17.3786 41.0126C17.5673 41.519 17.9064 41.9556 18.3503 42.2638C18.7943 42.572 19.3218 42.737 19.8623 42.7367C19.8938 42.7367 19.9255 42.7367 19.957 42.735C20.3207 42.7213 20.6778 42.6331 21.006 42.4758C21.3343 42.3185 21.6267 42.0954 21.8651 41.8204L24.463 38.8156L24.3676 41.2812C24.3644 41.3621 24.387 41.442 24.4321 41.5094C24.4773 41.5767 24.5426 41.6279 24.6188 41.6557L26.6776 42.406C26.7538 42.4338 26.8367 42.4366 26.9146 42.4142C26.9924 42.3917 27.0611 42.3451 27.1108 42.2811L29.295 39.4673H30.7387L32.9205 42.2808C32.9702 42.3449 33.0389 42.3916 33.1168 42.4141C33.1947 42.4366 33.2777 42.4337 33.3539 42.406L33.7371 42.2666C34.4153 42.0197 34.5113 41.9851 35.413 41.6557C35.489 41.6278 35.5542 41.5767 35.5994 41.5094C35.6445 41.4422 35.6671 41.3625 35.6641 41.2816L35.5289 37.7241C35.8984 37.4156 36.2667 37.1058 36.634 36.7948L40.1174 37.5469C40.1968 37.5639 40.2795 37.5553 40.3536 37.5224C40.4278 37.4894 40.4895 37.4337 40.53 37.3633C40.9627 36.6106 40.9915 36.5603 41.6237 35.4677C41.6643 35.3974 41.6815 35.3161 41.6729 35.2354C41.6643 35.1547 41.6303 35.0789 41.5758 35.0188L39.1834 32.382C39.3557 31.4007 39.3866 31.2239 39.4323 30.9601L42.5836 29.3C42.6556 29.2622 42.7137 29.2024 42.7494 29.1293C42.7851 29.0562 42.7966 28.9736 42.7822 28.8936ZM21.2861 41.3197C21.1167 41.5152 20.9089 41.6738 20.6755 41.7855C20.4421 41.8972 20.1882 41.9597 19.9297 41.9689C19.6711 41.9782 19.4134 41.9341 19.1726 41.8394C18.9318 41.7447 18.7132 41.6013 18.5302 41.4184C18.3473 41.2354 18.204 41.0167 18.1093 40.776C18.0146 40.5352 17.9705 40.2775 17.9798 40.0189C17.9891 39.7603 18.0515 39.5064 18.1632 39.2731C18.275 39.0397 18.4336 38.8319 18.6292 38.6625L26.1938 32.1219C26.2573 32.0668 26.301 31.9924 26.3181 31.9101C26.3351 31.8278 26.3247 31.7422 26.2883 31.6664C25.9763 31.0174 25.834 30.2997 25.8748 29.5807C25.9156 28.8617 26.1381 28.1648 26.5216 27.5552C26.905 26.9456 27.4368 26.4432 28.0672 26.095C28.6976 25.7468 29.4061 25.5643 30.1262 25.5644C30.228 25.5644 30.3297 25.5679 30.4307 25.5749L27.5043 28.5016C27.4546 28.5511 27.4196 28.6134 27.403 28.6816C27.3863 28.7498 27.3888 28.8212 27.41 28.8881L28.2474 31.524C28.266 31.5824 28.2983 31.6355 28.3417 31.6788C28.385 31.7221 28.4381 31.7544 28.4965 31.773L31.1325 32.6106C31.1994 32.6318 31.2708 32.6343 31.339 32.6177C31.4072 32.601 31.4694 32.566 31.519 32.5163L34.3807 29.6544C34.4026 30.227 34.3089 30.7982 34.105 31.3338C33.9012 31.8694 33.5914 32.3584 33.1942 32.7715C32.7971 33.1847 32.3207 33.5135 31.7935 33.7383C31.2664 33.9631 30.6993 34.0793 30.1262 34.0799C29.4882 34.0811 28.8582 33.9371 28.2839 33.659C28.2081 33.6225 28.1224 33.6119 28.04 33.629C27.9576 33.6461 27.8831 33.6899 27.828 33.7535L26.5269 35.2583L26.5193 35.2673L24.5875 37.5014C24.5842 37.5055 24.58 37.5092 24.5768 37.5138L21.2861 41.3197ZM35.035 28.7514C35.0203 28.6842 34.9879 28.6223 34.941 28.572C34.8941 28.5218 34.8346 28.4851 34.7687 28.4657C34.7028 28.4464 34.6328 28.4452 34.5663 28.4622C34.4997 28.4792 34.4389 28.5138 34.3903 28.5624L31.1423 31.8104L28.9172 31.1034L28.2102 28.8785L31.5035 25.585C31.5514 25.5369 31.5857 25.477 31.6029 25.4114C31.6201 25.3457 31.6195 25.2767 31.6012 25.2113C31.583 25.146 31.5476 25.0866 31.4989 25.0394C31.4502 24.9922 31.3898 24.9587 31.3239 24.9425C30.5843 24.7617 29.8132 24.7513 29.069 24.9121C28.3248 25.0728 27.6268 25.4006 27.0277 25.8705C26.4287 26.3404 25.9442 26.9403 25.6109 27.6249C25.2775 28.3094 25.104 29.0608 25.1035 29.8222C25.1022 30.476 25.2297 31.1236 25.4789 31.7281L24.5197 32.5576C23.8778 31.2583 23.7164 29.7738 24.0641 28.3669C24.4119 26.96 25.2463 25.7215 26.4195 24.8709C27.5928 24.0202 29.0293 23.6122 30.4746 23.7191C31.9199 23.826 33.2807 24.4409 34.316 25.4549C35.3514 26.469 35.9945 27.8167 36.1315 29.2594C36.2684 30.7022 35.8904 32.1468 35.0643 33.3376C34.2382 34.5283 33.0174 35.3883 31.6181 35.7652C30.2187 36.1421 28.7312 36.0117 27.4188 35.397L28.2209 34.4693C28.8249 34.7189 29.4723 34.8467 30.1258 34.8455C30.8763 34.8452 31.6172 34.6768 32.2942 34.3527C32.9711 34.0285 33.5668 33.5569 34.0376 32.9724C34.5084 32.3879 34.8423 31.7054 35.0148 30.975C35.1874 30.2445 35.1941 29.4847 35.0345 28.7514H35.035ZM38.9086 30.3701C38.8566 30.3974 38.8116 30.4363 38.7771 30.4838C38.7426 30.5313 38.7195 30.5861 38.7095 30.644C38.6367 31.069 38.6002 31.2712 38.397 32.4347C38.3869 32.4921 38.3901 32.551 38.4063 32.6069C38.4225 32.6629 38.4513 32.7144 38.4904 32.7576L40.8207 35.3266C40.4357 35.9927 40.3885 36.0738 40.0056 36.7397L36.6104 36.0067C36.5531 35.9944 36.4937 35.9954 36.4368 36.0096C36.3799 36.0239 36.3271 36.051 36.2823 36.0889C35.8206 36.4803 35.3574 36.8698 34.8928 37.2577C34.848 37.2952 34.8124 37.3424 34.7887 37.3958C34.765 37.4492 34.7538 37.5073 34.7561 37.5657L34.8873 41.0324C34.4164 41.2045 33.9454 41.3762 33.4742 41.5474L33.3535 41.5911L31.2276 38.85C31.1919 38.8038 31.146 38.7664 31.0936 38.7407C31.0411 38.715 30.9835 38.7017 30.9251 38.7017H29.1075C29.0492 38.7016 28.9916 38.715 28.9392 38.7406C28.8868 38.7663 28.841 38.8036 28.8052 38.8497L26.6772 41.5913L25.1438 41.0322L25.2656 37.8881L26.9023 35.9953C28.3725 36.7409 30.061 36.936 31.6626 36.5452C33.2641 36.1544 34.673 35.2036 35.6346 33.8646C36.5962 32.5256 37.0471 30.8868 36.9057 29.2444C36.7644 27.6019 36.0401 26.0643 34.8639 24.9093C33.6876 23.7543 32.137 23.0582 30.4922 22.9468C28.8475 22.8354 27.2172 23.3161 25.8959 24.302C24.5747 25.2878 23.6497 26.7139 23.2882 28.3222C22.9268 29.9306 23.1526 31.6153 23.9249 33.0717L19.9132 36.5406L19.2132 35.3268L21.5423 32.7576C21.5814 32.7144 21.6102 32.6629 21.6264 32.6069C21.6426 32.551 21.6459 32.4921 21.6359 32.4347C21.2997 30.5025 21.3406 30.4852 21.1223 30.3701L18.0528 28.7531L18.1656 28.1163C18.2153 27.832 18.2531 27.6132 18.3371 27.1453L21.775 26.6713C22.0307 26.6361 21.9922 26.5794 22.9635 24.9121C22.9929 24.8614 23.0102 24.8047 23.0143 24.7463C23.0184 24.6878 23.009 24.6292 22.9869 24.575L21.6744 21.3635L22.0931 21.0109C22.3538 20.7908 22.5201 20.6506 22.9243 20.312L25.8624 22.1628C25.9119 22.1939 25.9679 22.2132 26.026 22.2194C26.0842 22.2255 26.143 22.2183 26.1979 22.1983L27.9042 21.5727C27.9588 21.5526 28.0082 21.5204 28.0485 21.4784C28.0888 21.4365 28.1191 21.3859 28.1369 21.3305L29.1998 18.0274H30.8317L31.8946 21.3305C31.9124 21.3859 31.9426 21.4365 31.9829 21.4784C32.0232 21.5204 32.0725 21.5526 32.1271 21.5727L32.1954 21.5976C32.8497 21.8382 33.1505 21.9487 33.8338 22.1983C33.8888 22.2184 33.9476 22.2257 34.0057 22.2195C34.0639 22.2134 34.1199 22.194 34.1694 22.1628L37.1072 20.3122C37.6132 20.7368 37.7466 20.8495 38.1609 21.1992L38.3554 21.3635L37.0457 24.575C37.0236 24.6293 37.0142 24.6879 37.0184 24.7464C37.0225 24.8049 37.04 24.8617 37.0696 24.9123C37.3647 25.4189 37.5193 25.6876 37.9789 26.4838C38.0081 26.5343 38.0484 26.5774 38.0968 26.61C38.1451 26.6425 38.2003 26.6635 38.258 26.6715L41.6944 27.1453C41.76 27.5172 41.799 27.7335 41.8368 27.949C41.8746 28.1645 41.9129 28.3802 41.9794 28.7527L38.9086 30.3701Z" fill="#BCC8D2"/>
<path d="M19.9997 38.8108C19.7767 38.8108 19.5587 38.877 19.3734 39.0009C19.188 39.1248 19.0435 39.3009 18.9582 39.5069C18.8729 39.7129 18.8506 39.9396 18.8941 40.1583C18.9376 40.3769 19.045 40.5778 19.2027 40.7355C19.3603 40.8931 19.5612 41.0005 19.7799 41.044C19.9985 41.0875 20.2252 41.0652 20.4312 40.9799C20.6372 40.8946 20.8133 40.7501 20.9372 40.5648C21.0611 40.3794 21.1273 40.1614 21.1273 39.9385C21.127 39.6395 21.0081 39.3528 20.7967 39.1414C20.5853 38.93 20.2986 38.8111 19.9997 38.8108ZM19.9997 40.3001C19.9281 40.3 19.8582 40.2788 19.7987 40.239C19.7392 40.1992 19.6929 40.1426 19.6655 40.0765C19.6382 40.0104 19.6311 39.9376 19.6451 39.8674C19.6591 39.7973 19.6936 39.7328 19.7442 39.6822C19.7948 39.6317 19.8593 39.5973 19.9295 39.5833C19.9997 39.5694 20.0724 39.5766 20.1385 39.6041C20.2046 39.6315 20.2611 39.6779 20.3008 39.7374C20.3406 39.7969 20.3617 39.8669 20.3617 39.9385C20.3616 40.0344 20.3234 40.1264 20.2555 40.1942C20.1876 40.262 20.0956 40.3001 19.9997 40.3001Z" fill="#BCC8D2"/>
</g>
<defs>
<clipPath id="clip0_4810_73637">
<rect width="60" height="60" fill="white"/>
</clipPath>
</defs>
</svg>
