<svg width="60" height="60" viewBox="0 0 60 60" fill="none" xmlns="http://www.w3.org/2000/svg">
<circle cx="30" cy="30" r="29.5" stroke="#87A4BC"/>
<g clip-path="url(#clip0_5451_65335)">
<mask id="mask0_5451_65335" style="mask-type:luminance" maskUnits="userSpaceOnUse" x="16" y="16" width="28" height="28">
<path d="M16 16.0001H43.9999V44H16V16.0001Z" fill="white"/>
</mask>
<g mask="url(#mask0_5451_65335)">
<path d="M42.1893 35.2373V41.9492C42.1893 42.8553 41.4547 43.5898 40.5487 43.5898H19.4531C18.5471 43.5898 17.8125 42.8553 17.8125 41.9492V39.667" stroke="#BCC8D2" stroke-width="0.8" stroke-miterlimit="10" stroke-linecap="round" stroke-linejoin="round"/>
<path d="M36.0854 41.9492H19.4559C18.5483 41.9492 17.8125 41.2135 17.8125 40.3059V19.9279C17.8125 19.0204 18.5483 18.2846 19.4559 18.2846H40.5459C41.4535 18.2846 42.1893 19.0204 42.1893 19.9279V35.8453C42.1893 36.2812 42.0161 36.6992 41.7079 37.0074L37.2475 41.4679C37.0949 41.6205 36.9137 41.7415 36.7143 41.8241C36.5149 41.9067 36.3012 41.9492 36.0854 41.9492Z" stroke="#BCC8D2" stroke-width="0.8" stroke-miterlimit="10" stroke-linecap="round" stroke-linejoin="round"/>
<path d="M35.4102 41.9492C36.1538 41.9492 36.7567 41.3464 36.7567 40.6027V37.8649C36.7567 37.1213 37.3595 36.5184 38.1031 36.5184H40.841C41.5846 36.5184 42.1874 35.9156 42.1874 35.1719" stroke="#BCC8D2" stroke-width="0.8" stroke-miterlimit="10" stroke-linecap="round" stroke-linejoin="round"/>
<path d="M22.6618 24.1465H17.8125" stroke="#BCC8D2" stroke-width="0.8" stroke-miterlimit="10" stroke-linecap="round" stroke-linejoin="round"/>
<path d="M42.1876 24.1465H24.3008" stroke="#BCC8D2" stroke-width="0.8" stroke-miterlimit="10" stroke-linecap="round" stroke-linejoin="round"/>
<path d="M22.4582 20.7383C21.9959 20.7383 21.6211 20.3635 21.6211 19.9012V17.2478C21.6211 16.7855 21.9959 16.4107 22.4582 16.4107H22.6465C23.1088 16.4107 23.4836 16.7855 23.4836 17.2478V18.2851" stroke="#BCC8D2" stroke-width="0.8" stroke-miterlimit="10" stroke-linecap="round" stroke-linejoin="round"/>
<path d="M37.3566 20.7383C36.8943 20.7383 36.5195 20.3635 36.5195 19.9012V17.2478C36.5195 16.7855 36.8943 16.4107 37.3566 16.4107H37.5449C38.0072 16.4107 38.382 16.7855 38.382 17.2478V18.2851" stroke="#BCC8D2" stroke-width="0.8" stroke-miterlimit="10" stroke-linecap="round" stroke-linejoin="round"/>
<path d="M22.6172 29.3418H20.6641C20.5605 29.3418 20.4611 29.3006 20.3879 29.2274C20.3146 29.1541 20.2734 29.0548 20.2734 28.9512V26.9981C20.2734 26.8945 20.3146 26.7951 20.3879 26.7218C20.4611 26.6486 20.5605 26.6074 20.6641 26.6074H22.6172C22.7208 26.6074 22.8201 26.6486 22.8934 26.7218C22.9666 26.7951 23.0078 26.8945 23.0078 26.9981V28.9512C23.0078 29.0548 22.9666 29.1541 22.8934 29.2274C22.8201 29.3006 22.7208 29.3418 22.6172 29.3418Z" stroke="#BCC8D2" stroke-width="0.8" stroke-miterlimit="10" stroke-linecap="round" stroke-linejoin="round"/>
<path d="M28.1914 29.3418H26.2383C26.1347 29.3418 26.0353 29.3006 25.9621 29.2274C25.8888 29.1541 25.8477 29.0548 25.8477 28.9512V26.9981C25.8477 26.8945 25.8888 26.7951 25.9621 26.7218C26.0353 26.6486 26.1347 26.6074 26.2383 26.6074H28.1914C28.295 26.6074 28.3944 26.6486 28.4676 26.7218C28.5409 26.7951 28.582 26.8945 28.582 26.9981V28.9512C28.582 29.0548 28.5409 29.1541 28.4676 29.2274C28.3944 29.3006 28.295 29.3418 28.1914 29.3418Z" stroke="#BCC8D2" stroke-width="0.8" stroke-miterlimit="10" stroke-linecap="round" stroke-linejoin="round"/>
<path d="M33.7656 29.3418H31.8125C31.7089 29.3418 31.6095 29.3006 31.5363 29.2274C31.463 29.1541 31.4219 29.0548 31.4219 28.9512V26.9981C31.4219 26.8945 31.463 26.7951 31.5363 26.7218C31.6095 26.6486 31.7089 26.6074 31.8125 26.6074H33.7656C33.8692 26.6074 33.9686 26.6486 34.0418 26.7218C34.1151 26.7951 34.1562 26.8945 34.1562 26.9981V28.9512C34.1562 29.0548 34.1151 29.1541 34.0418 29.2274C33.9686 29.3006 33.8692 29.3418 33.7656 29.3418Z" stroke="#BCC8D2" stroke-width="0.8" stroke-miterlimit="10" stroke-linecap="round" stroke-linejoin="round"/>
<path d="M39.3359 29.3418H37.3828C37.2792 29.3418 37.1799 29.3006 37.1066 29.2274C37.0333 29.1541 36.9922 29.0548 36.9922 28.9512V26.9981C36.9922 26.8945 37.0333 26.7951 37.1066 26.7218C37.1799 26.6486 37.2792 26.6074 37.3828 26.6074H39.3359C39.4395 26.6074 39.5389 26.6486 39.6121 26.7218C39.6854 26.7951 39.7266 26.8945 39.7266 26.9981V28.9512C39.7266 29.0548 39.6854 29.1541 39.6121 29.2274C39.5389 29.3006 39.4395 29.3418 39.3359 29.3418Z" stroke="#BCC8D2" stroke-width="0.8" stroke-miterlimit="10" stroke-linecap="round" stroke-linejoin="round"/>
<path d="M22.6172 34.4141H20.6641C20.5605 34.4141 20.4611 34.3729 20.3879 34.2996C20.3146 34.2264 20.2734 34.127 20.2734 34.0234V32.0703C20.2734 31.9667 20.3146 31.8674 20.3879 31.7941C20.4611 31.7209 20.5605 31.6797 20.6641 31.6797H22.6172C22.7208 31.6797 22.8201 31.7209 22.8934 31.7941C22.9666 31.8674 23.0078 31.9667 23.0078 32.0703V34.0234C23.0078 34.127 22.9666 34.2264 22.8934 34.2996C22.8201 34.3729 22.7208 34.4141 22.6172 34.4141Z" stroke="#BCC8D2" stroke-width="0.8" stroke-miterlimit="10" stroke-linecap="round" stroke-linejoin="round"/>
<path d="M28.1914 34.4141H26.2383C26.1347 34.4141 26.0353 34.3729 25.9621 34.2996C25.8888 34.2264 25.8477 34.127 25.8477 34.0234V32.0703C25.8477 31.9667 25.8888 31.8674 25.9621 31.7941C26.0353 31.7209 26.1347 31.6797 26.2383 31.6797H28.1914C28.295 31.6797 28.3944 31.7209 28.4676 31.7941C28.5409 31.8674 28.582 31.9667 28.582 32.0703V34.0234C28.582 34.127 28.5409 34.2264 28.4676 34.2996C28.3944 34.3729 28.295 34.4141 28.1914 34.4141Z" stroke="#BCC8D2" stroke-width="0.8" stroke-miterlimit="10" stroke-linecap="round" stroke-linejoin="round"/>
<path d="M33.7656 34.4141H31.8125C31.7089 34.4141 31.6095 34.3729 31.5363 34.2996C31.463 34.2264 31.4219 34.127 31.4219 34.0234V32.0703C31.4219 31.9667 31.463 31.8674 31.5363 31.7941C31.6095 31.7209 31.7089 31.6797 31.8125 31.6797H33.7656C33.8692 31.6797 33.9686 31.7209 34.0418 31.7941C34.1151 31.8674 34.1562 31.9667 34.1562 32.0703V34.0234C34.1562 34.127 34.1151 34.2264 34.0418 34.2996C33.9686 34.3729 33.8692 34.4141 33.7656 34.4141Z" stroke="#BCC8D2" stroke-width="0.8" stroke-miterlimit="10" stroke-linecap="round" stroke-linejoin="round"/>
<path d="M39.3359 34.5371H37.3828C37.2792 34.5371 37.1799 34.496 37.1066 34.4227C37.0333 34.3494 36.9922 34.2501 36.9922 34.1465V32.1934C36.9922 32.0898 37.0333 31.9904 37.1066 31.9172C37.1799 31.8439 37.2792 31.8027 37.3828 31.8027H39.3359C39.4395 31.8027 39.5389 31.8439 39.6121 31.9172C39.6854 31.9904 39.7266 32.0898 39.7266 32.1934V34.1465C39.7266 34.2501 39.6854 34.3494 39.6121 34.4227C39.5389 34.496 39.4395 34.5371 39.3359 34.5371Z" stroke="#BCC8D2" stroke-width="0.8" stroke-miterlimit="10" stroke-linecap="round" stroke-linejoin="round"/>
<path d="M22.6172 39.4883H20.6641C20.5605 39.4883 20.4611 39.4471 20.3879 39.3739C20.3146 39.3006 20.2734 39.2013 20.2734 39.0976V37.1445C20.2734 37.0409 20.3146 36.9416 20.3879 36.8683C20.4611 36.7951 20.5605 36.7539 20.6641 36.7539H22.6172C22.7208 36.7539 22.8201 36.7951 22.8934 36.8683C22.9666 36.9416 23.0078 37.0409 23.0078 37.1445V39.0976C23.0078 39.2013 22.9666 39.3006 22.8934 39.3739C22.8201 39.4471 22.7208 39.4883 22.6172 39.4883Z" stroke="#BCC8D2" stroke-width="0.8" stroke-miterlimit="10" stroke-linecap="round" stroke-linejoin="round"/>
<path d="M28.1914 39.4883H26.2383C26.1347 39.4883 26.0353 39.4471 25.9621 39.3739C25.8888 39.3006 25.8477 39.2013 25.8477 39.0976V37.1445C25.8477 37.0409 25.8888 36.9416 25.9621 36.8683C26.0353 36.7951 26.1347 36.7539 26.2383 36.7539H28.1914C28.295 36.7539 28.3944 36.7951 28.4676 36.8683C28.5409 36.9416 28.582 37.0409 28.582 37.1445V39.0976C28.582 39.2013 28.5409 39.3006 28.4676 39.3739C28.3944 39.4471 28.295 39.4883 28.1914 39.4883Z" stroke="#BCC8D2" stroke-width="0.8" stroke-miterlimit="10" stroke-linecap="round" stroke-linejoin="round"/>
<path d="M31.4219 37.7078V37.1445C31.4219 37.0932 31.432 37.0424 31.4516 36.995C31.4712 36.9477 31.5 36.9046 31.5363 36.8683C31.5725 36.832 31.6156 36.8033 31.663 36.7836C31.7104 36.764 31.7612 36.7539 31.8125 36.7539H33.7656C33.8169 36.7539 33.8677 36.764 33.9151 36.7836C33.9625 36.8033 34.0056 36.832 34.0418 36.8683C34.0781 36.9046 34.1069 36.9477 34.1265 36.995C34.1461 37.0424 34.1562 37.0932 34.1562 37.1445V39.0976C34.1562 39.1489 34.1461 39.1997 34.1265 39.2471C34.1069 39.2945 34.0781 39.3376 34.0418 39.3739C34.0056 39.4101 33.9625 39.4389 33.9151 39.4585C33.8677 39.4782 33.8169 39.4883 33.7656 39.4883H31.8125C31.7089 39.4883 31.6095 39.4471 31.5363 39.3739C31.463 39.3006 31.4219 39.2013 31.4219 39.0976" stroke="#BCC8D2" stroke-width="0.8" stroke-miterlimit="10" stroke-linecap="round" stroke-linejoin="round"/>
</g>
</g>
<defs>
<clipPath id="clip0_5451_65335">
<rect width="28" height="28" fill="white" transform="translate(16 16)"/>
</clipPath>
</defs>
</svg>
