<svg width="60" height="60" viewBox="0 0 60 60" fill="none" xmlns="http://www.w3.org/2000/svg">
<g clip-path="url(#clip0_4810_73596)">
<circle cx="30" cy="30" r="29.5" stroke="#08587F"/>
<path d="M26.9269 35.699V33.9454M33.0643 35.699V33.9454M27.3466 35.9808L26.4504 35.4829C26.2322 35.3617 25.957 35.4468 25.8454 35.6701L25.3832 36.5944C25.3187 36.7235 25.287 36.8665 25.291 37.0108C25.295 37.1551 25.3346 37.2962 25.4062 37.4215L26.6637 39.6222C26.8003 39.8612 27.1207 39.9166 27.3296 39.7375L29.9955 37.4525L28.7997 36.7881M31.3151 38.7677L31.0766 39.4833C31.0184 39.6579 30.9067 39.8097 30.7574 39.9173C30.6081 40.0249 30.4288 40.0828 30.2448 40.0828H29.7551C29.5711 40.0828 29.3917 40.0249 29.2424 39.9173C29.0932 39.8097 28.9815 39.6579 28.9233 39.4833L28.6847 38.7677M29.3349 40.0334L28.6848 43.5898M30.658 39.9769L31.3151 43.5898M27.3697 27.8081V28.2464M32.6303 27.8081V28.2464M25.1778 25.8902V26.4929C25.1778 26.9771 24.7852 27.3697 24.301 27.3697H23.7062C23.1329 27.3697 22.6104 27.7821 22.5533 28.3526C22.4876 29.0086 23.001 29.5616 23.6435 29.5616H24.3011V29.1232C24.3011 32.2707 26.8526 34.8222 30.0001 34.8222C33.1461 34.8222 35.6966 32.273 35.6989 29.1275V29.5617H36.294C36.8673 29.5617 37.3898 29.1492 37.4469 28.5787C37.5126 27.9226 36.9992 27.3697 36.3566 27.3697H35.699C35.2148 27.3697 34.8222 26.9772 34.8222 26.4929V25.8902M34.1458 35.6701C34.1193 35.6172 34.0824 35.5702 34.0373 35.5319C33.9922 35.4936 33.9398 35.4649 33.8832 35.4474C33.8267 35.4299 33.7672 35.424 33.7084 35.4301C33.6495 35.4363 33.5925 35.4542 33.5408 35.483L29.9956 37.4525L32.6615 39.7376C32.8705 39.9167 33.1909 39.8612 33.3274 39.6223L34.585 37.4216C34.6566 37.2963 34.6962 37.1552 34.7002 37.0109C34.7042 36.8666 34.6725 36.7236 34.6079 36.5945L34.1458 35.6701Z" stroke="#BCC8D2" stroke-width="0.7" stroke-miterlimit="10" stroke-linecap="round" stroke-linejoin="round"/>
<path d="M23.4243 27.3697V24.301C23.4243 25.5116 26.3683 26.4929 30 26.4929C33.6317 26.4929 36.5757 25.5116 36.5757 24.301V27.3697M29.1232 31.3151H30.8767" stroke="#BCC8D2" stroke-width="0.7" stroke-miterlimit="10" stroke-linecap="round" stroke-linejoin="round"/>
<path d="M33.9454 24.301H36.5757V22.5475C36.5757 22.0633 36.1832 21.6707 35.699 21.6707H24.301C23.8168 21.6707 23.4243 22.0633 23.4243 22.5475V24.301H32.1919M19.4788 43.5898V40.7099C19.4788 39.5554 20.2316 38.5358 21.335 38.1961L21.659 38.0963" stroke="#BCC8D2" stroke-width="0.7" stroke-miterlimit="10" stroke-linecap="round" stroke-linejoin="round"/>
<path d="M30 24.301C30.7263 24.301 31.3151 23.7122 31.3151 22.9859C31.3151 22.2596 30.7263 21.6708 30 21.6708C29.2737 21.6708 28.6849 22.2596 28.6849 22.9859C28.6849 23.7122 29.2737 24.301 30 24.301Z" stroke="#BCC8D2" stroke-width="0.7" stroke-miterlimit="10" stroke-linecap="round" stroke-linejoin="round"/>
<path d="M30 19.9172C30.4842 19.9172 30.8767 19.5247 30.8767 19.0405C30.8767 18.5562 30.4842 18.1637 30 18.1637C29.5158 18.1637 29.1232 18.5562 29.1232 19.0405C29.1232 19.5247 29.5158 19.9172 30 19.9172Z" stroke="#BCC8D2" stroke-width="0.7" stroke-miterlimit="10" stroke-linecap="round" stroke-linejoin="round"/>
<path d="M36.5757 23.7144L38.8326 22.3039C39.3964 21.9515 39.3782 21.1243 38.7994 20.7971L31.9414 16.9208C31.3491 16.5861 30.6803 16.4101 30 16.4101C29.3197 16.4101 28.6509 16.5861 28.0586 16.9208L21.2006 20.7971C20.6218 21.1242 20.6036 21.9515 21.1674 22.3038L23.4243 23.7144M25.5923 37.8026L22.7549 38.6762C22.6712 38.702 22.5842 38.7151 22.4967 38.7152C22.1219 38.7152 21.775 38.4731 21.6589 38.0961C21.5166 37.6333 21.7762 37.1427 22.239 37.0002L25.7144 35.9301M40.5211 43.5898V40.7099C40.5211 39.5554 39.7683 38.5358 38.6649 38.1961L38.341 38.0963M34.4077 37.8026L37.2451 38.6762C37.3287 38.702 37.4157 38.7151 37.5032 38.7152C37.878 38.7152 38.225 38.4731 38.341 38.0961C38.4834 37.6333 38.2237 37.1427 37.7609 37.0002L34.2856 35.9301M25.6162 43.5898H23.4242C22.94 43.5898 22.5475 43.1973 22.5475 42.7131C22.5475 42.2289 22.94 41.8363 23.4242 41.8363H25.6162C26.1004 41.8363 26.4929 42.2289 26.4929 42.7131C26.4929 43.1973 26.1004 43.5898 25.6162 43.5898Z" stroke="#BCC8D2" stroke-width="0.7" stroke-miterlimit="10" stroke-linecap="round" stroke-linejoin="round"/>
</g>
<defs>
<clipPath id="clip0_4810_73596">
<rect width="60" height="60" fill="white"/>
</clipPath>
</defs>
</svg>
