<svg width="60" height="60" viewBox="0 0 60 60" fill="none" xmlns="http://www.w3.org/2000/svg">
<g clip-path="url(#clip0_4809_73555)">
<circle cx="30" cy="30" r="29.5" stroke="#08587F"/>
<path d="M30 24.5C29.536 24.4995 29.0912 24.315 28.7631 23.9869C28.435 23.6588 28.2505 23.214 28.25 22.75C28.25 22.634 28.2961 22.5227 28.3781 22.4406C28.4602 22.3586 28.5715 22.3125 28.6875 22.3125C28.8035 22.3125 28.9148 22.3586 28.9969 22.4406C29.0789 22.5227 29.125 22.634 29.125 22.75C29.125 22.9231 29.1763 23.0922 29.2725 23.2361C29.3686 23.38 29.5053 23.4922 29.6652 23.5584C29.825 23.6246 30.001 23.6419 30.1707 23.6082C30.3404 23.5744 30.4963 23.4911 30.6187 23.3687C30.7411 23.2463 30.8244 23.0904 30.8582 22.9207C30.8919 22.751 30.8746 22.575 30.8084 22.4152C30.7422 22.2553 30.63 22.1186 30.4861 22.0225C30.3422 21.9263 30.1731 21.875 30 21.875C29.884 21.875 29.7727 21.8289 29.6906 21.7469C29.6086 21.6648 29.5625 21.5535 29.5625 21.4375V19.6875C29.5625 19.5715 29.6086 19.4602 29.6906 19.3781C29.7727 19.2961 29.884 19.25 30 19.25C30.116 19.25 30.2273 19.2961 30.3094 19.3781C30.3914 19.4602 30.4375 19.5715 30.4375 19.6875V21.0556C30.8499 21.162 31.2093 21.4153 31.4484 21.7678C31.6875 22.1203 31.7898 22.548 31.7361 22.9705C31.6824 23.3931 31.4765 23.7815 31.1569 24.0631C30.8373 24.3447 30.4259 24.5 30 24.5Z" fill="#BCC8D2"/>
<path d="M18.6246 28C18.5169 28.0002 18.413 27.9607 18.3327 27.8891C18.2523 27.8175 18.2012 27.7188 18.1891 27.6118C18.1769 27.5049 18.2047 27.3972 18.2669 27.3094C18.3292 27.2216 18.4216 27.1599 18.5266 27.1359L29.5625 24.5897V23.1875C29.5625 23.0715 29.6086 22.9602 29.6906 22.8781C29.7727 22.7961 29.884 22.75 30 22.75C30.116 22.75 30.2273 22.7961 30.3094 22.8781C30.3914 22.9602 30.4375 23.0715 30.4375 23.1875V24.9375C30.4376 25.0365 30.4041 25.1325 30.3425 25.21C30.2809 25.2875 30.1949 25.3418 30.0984 25.3641L18.7234 27.9891C18.691 27.9965 18.6578 28.0002 18.6246 28ZM30.875 20.125H29.125C29.009 20.125 28.8977 20.0789 28.8157 19.9968L27.9407 19.1218C27.8586 19.0398 27.8125 18.9285 27.8125 18.8125V16.1875C27.8125 16.0715 27.8586 15.9602 27.9406 15.8781C28.0227 15.7961 28.134 15.75 28.25 15.75H31.75C31.866 15.75 31.9773 15.7961 32.0594 15.8781C32.1414 15.9602 32.1875 16.0715 32.1875 16.1875V18.8125C32.1875 18.9285 32.1414 19.0398 32.0593 19.1218L31.1843 19.9968C31.1023 20.0789 30.991 20.125 30.875 20.125ZM29.3061 19.25H30.6939L31.3125 18.6314V16.625H28.6875V18.6314L29.3061 19.25Z" fill="#BCC8D2"/>
<path d="M41.375 40.25H18.625C18.509 40.25 18.3977 40.2039 18.3156 40.1219C18.2336 40.0398 18.1875 39.9285 18.1875 39.8125V27.5625C18.1875 27.4465 18.2336 27.3352 18.3156 27.2531C18.3977 27.1711 18.509 27.125 18.625 27.125H41.375C41.491 27.125 41.6023 27.1711 41.6844 27.2531C41.7664 27.3352 41.8125 27.4465 41.8125 27.5625V39.8125C41.8125 39.9285 41.7664 40.0398 41.6844 40.1219C41.6023 40.2039 41.491 40.25 41.375 40.25ZM19.0625 39.375H40.9375V28H19.0625V39.375Z" fill="#BCC8D2"/>
<path d="M30 18.375C30.2416 18.375 30.4375 18.1791 30.4375 17.9375C30.4375 17.6959 30.2416 17.5 30 17.5C29.7584 17.5 29.5625 17.6959 29.5625 17.9375C29.5625 18.1791 29.7584 18.375 30 18.375Z" fill="#BCC8D2"/>
<path d="M41.3755 28C41.3422 28.0002 41.309 27.9965 41.2766 27.9891L29.9016 25.3641C29.8456 25.3511 29.7927 25.3273 29.7458 25.2939C29.699 25.2605 29.6593 25.2183 29.6288 25.1695C29.5983 25.1208 29.5778 25.0665 29.5683 25.0098C29.5588 24.9531 29.5605 24.8951 29.5735 24.8391C29.5864 24.783 29.6102 24.7301 29.6436 24.6833C29.677 24.6365 29.7193 24.5967 29.768 24.5663C29.8168 24.5358 29.871 24.5152 29.9277 24.5057C29.9844 24.4962 30.0424 24.498 30.0985 24.5109L41.4735 27.1359C41.5784 27.1599 41.6709 27.2217 41.7332 27.3095C41.7954 27.3973 41.8231 27.505 41.8109 27.612C41.7988 27.719 41.7476 27.8177 41.6671 27.8893C41.5867 27.9609 41.4831 28.0003 41.3755 28Z" fill="#BCC8D2"/>
<rect x="22" y="30" width="1" height="7" rx="0.5" fill="#BCC8D2"/>
<rect x="25" y="30" width="1" height="7" rx="0.5" fill="#BCC8D2"/>
<rect x="28" y="30" width="1" height="7" rx="0.5" fill="#BCC8D2"/>
<rect x="31" y="30" width="1" height="7" rx="0.5" fill="#BCC8D2"/>
<rect x="34" y="30" width="1" height="7" rx="0.5" fill="#BCC8D2"/>
<rect x="37" y="30" width="1" height="7" rx="0.5" fill="#BCC8D2"/>
</g>
<defs>
<clipPath id="clip0_4809_73555">
<rect width="60" height="60" fill="white"/>
</clipPath>
</defs>
</svg>
