<svg width="60" height="60" viewBox="0 0 60 60" fill="none" xmlns="http://www.w3.org/2000/svg">
<g clip-path="url(#clip0_4952_47133)">
<circle cx="30" cy="30" r="29.5" stroke="#87A4BC"/>
<g clip-path="url(#clip1_4952_47133)">
<mask id="mask0_4952_47133" style="mask-type:luminance" maskUnits="userSpaceOnUse" x="16" y="16" width="28" height="28">
<path d="M16 16.0001H43.9999V44H16V16.0001Z" fill="white"/>
</mask>
<g mask="url(#mask0_4952_47133)">
<path d="M23.748 43.5352V38.2999" stroke="white" stroke-width="0.6" stroke-miterlimit="10" stroke-linecap="round" stroke-linejoin="round"/>
<path d="M36.2529 38.2999V43.5352" stroke="white" stroke-width="0.6" stroke-miterlimit="10" stroke-linecap="round" stroke-linejoin="round"/>
<path d="M34.2824 22.1315C33.6698 22.3316 32.2891 22.673 30.0019 22.673C27.7147 22.673 26.334 22.3316 25.7215 22.1315C25.536 22.071 25.3457 22.2087 25.3457 22.4038V23.6537C25.9247 23.9353 26.6688 24.1294 27.3915 24.2628C29.1172 24.5813 30.8866 24.5813 32.6123 24.2628C33.335 24.1294 34.0791 23.9353 34.6581 23.6537V22.4038C34.6581 22.2087 34.4678 22.071 34.2824 22.1315Z" stroke="white" stroke-width="0.6" stroke-miterlimit="10" stroke-linecap="round" stroke-linejoin="round"/>
<path d="M34.6577 23.6537C34.0787 23.9352 33.3347 24.1294 32.612 24.2628C30.8863 24.5813 29.1169 24.5813 27.3912 24.2628C26.6685 24.1294 25.9244 23.9352 25.3454 23.6537C23.7471 25.7337 26.8773 26.4318 28.7459 26.6593C29.5799 26.7609 30.4231 26.7609 31.2571 26.6593C33.1258 26.4318 36.2561 25.7337 34.6577 23.6537Z" stroke="white" stroke-width="0.6" stroke-miterlimit="10" stroke-linecap="round" stroke-linejoin="round"/>
<path d="M26.195 26.0672C25.8256 25.9151 25.5033 25.7305 25.2733 25.5062C24.7916 25.7675 24.4316 26.3394 24.4316 26.9055C24.4316 27.7462 25.2583 28.4383 26.1975 28.3629C26.1965 28.3283 26.195 28.2938 26.195 28.2591V26.0672Z" stroke="white" stroke-width="0.6" stroke-miterlimit="10" stroke-linecap="round" stroke-linejoin="round"/>
<path d="M34.7513 25.4847C34.5202 25.7186 34.1895 25.9103 33.8083 26.0672V28.2591C33.8083 28.2939 33.8066 28.3283 33.8057 28.3629C34.7434 28.4382 35.5716 27.7473 35.5716 26.9055C35.5716 26.3371 35.2467 25.7532 34.7513 25.4847Z" stroke="white" stroke-width="0.6" stroke-miterlimit="10" stroke-linecap="round" stroke-linejoin="round"/>
<path d="M31.2576 26.6593C30.4236 26.7609 29.5803 26.7609 28.7464 26.6593C27.9705 26.5648 26.9773 26.3891 26.1953 26.0672V28.259C26.1953 30.2202 27.7319 32.0114 30.0562 32.0114C32.1253 32.0114 33.8086 30.3281 33.8086 28.259V26.0672C33.0266 26.3891 32.0335 26.5648 31.2576 26.6593Z" stroke="white" stroke-width="0.6" stroke-miterlimit="10" stroke-linecap="round" stroke-linejoin="round"/>
<path d="M30 21.3699V17.9688" stroke="white" stroke-width="0.6" stroke-miterlimit="10" stroke-linecap="round" stroke-linejoin="round"/>
<path d="M29.4346 18.9933H30.5667" stroke="white" stroke-width="0.6" stroke-miterlimit="10" stroke-linecap="round" stroke-linejoin="round"/>
<path d="M29.7656 17.9688H30.2359" stroke="white" stroke-width="0.6" stroke-miterlimit="10" stroke-linecap="round" stroke-linejoin="round"/>
<path d="M28.4697 19.9087C28.6622 20.5729 29.2746 21.0586 30.0009 21.0586C30.7271 21.0586 31.3394 20.5729 31.5319 19.9087" stroke="white" stroke-width="0.6" stroke-miterlimit="10" stroke-linecap="round" stroke-linejoin="round"/>
<path d="M31.5506 35.7271C31.5917 35.7722 31.6413 35.8088 31.6966 35.8348C31.7518 35.8607 31.8116 35.8756 31.8726 35.8784C31.9336 35.8812 31.9945 35.8721 32.052 35.8514C32.1094 35.8306 32.1622 35.7988 32.2073 35.7577L34.3702 33.7878L32.3486 33.0049C32.2953 32.9837 32.2475 32.9507 32.2089 32.9084L30.7896 34.2011C30.7444 34.2422 30.7078 34.2918 30.6819 34.3471C30.6559 34.4023 30.6411 34.4621 30.6382 34.5231C30.6354 34.5841 30.6445 34.645 30.6652 34.7024C30.686 34.7599 30.7178 34.8127 30.7589 34.8578L31.5506 35.7271Z" stroke="white" stroke-width="0.6" stroke-miterlimit="10" stroke-linecap="round" stroke-linejoin="round"/>
<path d="M25.6299 33.7874L27.7932 35.7577C27.8383 35.7988 27.8911 35.8307 27.9485 35.8514C28.006 35.8721 28.0669 35.8812 28.1279 35.8784C28.1888 35.8756 28.2487 35.8607 28.3039 35.8348C28.3592 35.8088 28.4087 35.7722 28.4498 35.7271L29.2415 34.8578C29.3246 34.7667 29.368 34.6463 29.3622 34.5231C29.3565 34.4 29.3021 34.2841 29.2109 34.2011L27.791 32.9078C27.7187 32.9766 27.619 33.0163 27.5244 33.053L25.6299 33.7874Z" stroke="white" stroke-width="0.6" stroke-miterlimit="10" stroke-linecap="round" stroke-linejoin="round"/>
<path d="M30.7593 34.8578C30.6781 34.7688 30.6348 34.6517 30.6386 34.5313H29.3631C29.3669 34.6517 29.3236 34.7688 29.2424 34.8578L28.5918 35.5722L29.2542 36.4453H30.7496L31.411 35.5733L30.7593 34.8578Z" stroke="white" stroke-width="0.6" stroke-miterlimit="10" stroke-linecap="round" stroke-linejoin="round"/>
<path d="M29.211 34.2012C29.2571 34.2432 29.2943 34.2941 29.3203 34.3508C29.3463 34.4075 29.3606 34.4689 29.3623 34.5313H30.6378C30.6395 34.4689 30.6538 34.4075 30.6798 34.3508C30.7058 34.2941 30.743 34.2432 30.7891 34.2012L32.2084 32.9085C32.1999 32.8992 32.1912 32.89 32.1834 32.8799C32.1331 32.8142 32.1055 32.7338 32.105 32.6511L32.104 31.4005C31.5145 31.7862 30.8109 32.0114 30.0554 32.0114C29.2223 32.0114 28.4911 31.7804 27.8949 31.3948V32.6488C27.8949 32.7681 27.8531 32.8487 27.791 32.9079L29.211 34.2012Z" stroke="white" stroke-width="0.6" stroke-miterlimit="10" stroke-linecap="round" stroke-linejoin="round"/>
<path d="M38.0048 34.0857L35.1227 32.972C35.028 32.9354 34.9226 32.9379 34.8297 32.979C34.7369 33.0201 34.6642 33.0964 34.6276 33.1911L34.2777 34.0965C34.2596 34.1434 34.2509 34.1934 34.2521 34.2437C34.2533 34.2939 34.2644 34.3435 34.2847 34.3894C34.3051 34.4354 34.3343 34.4769 34.3707 34.5116C34.4071 34.5463 34.4499 34.5735 34.4968 34.5916L37.379 35.7054C37.4258 35.7235 37.4758 35.7322 37.5261 35.731C37.5763 35.7298 37.6259 35.7187 37.6718 35.6983C37.7178 35.678 37.7593 35.6488 37.794 35.6124C37.8286 35.576 37.8558 35.5331 37.8739 35.4862L38.2239 34.5808C38.2605 34.4861 38.2579 34.3808 38.2169 34.2879C38.1758 34.1951 38.0995 34.1224 38.0048 34.0857Z" stroke="white" stroke-width="0.6" stroke-miterlimit="10" stroke-linecap="round" stroke-linejoin="round"/>
<path d="M21.9958 34.0857L24.8779 32.972C24.9726 32.9354 25.078 32.9379 25.1708 32.979C25.2637 33.0201 25.3364 33.0964 25.373 33.1911L25.7228 34.0965C25.741 34.1434 25.7497 34.1934 25.7485 34.2437C25.7473 34.2939 25.7362 34.3435 25.7158 34.3894C25.6955 34.4354 25.6663 34.4769 25.6299 34.5116C25.5935 34.5463 25.5507 34.5735 25.5038 34.5916L22.6216 35.7054C22.5269 35.7419 22.4216 35.7394 22.3287 35.6983C22.2359 35.6572 22.1632 35.5809 22.1266 35.4862L21.7767 34.5808C21.7586 34.5339 21.7499 34.4839 21.7511 34.4337C21.7523 34.3834 21.7634 34.3339 21.7837 34.2879C21.8041 34.2419 21.8333 34.2004 21.8697 34.1657C21.906 34.131 21.9489 34.1039 21.9958 34.0857Z" stroke="white" stroke-width="0.6" stroke-miterlimit="10" stroke-linecap="round" stroke-linejoin="round"/>
<path d="M37.978 35.2173L37.874 35.4862C37.8374 35.5809 37.7647 35.6572 37.6719 35.6983C37.5791 35.7394 37.4737 35.7419 37.379 35.7054L34.4969 34.5916C34.45 34.5735 34.4071 34.5463 34.3707 34.5116C34.3343 34.4769 34.3051 34.4354 34.2847 34.3894C34.2644 34.3435 34.2533 34.2939 34.2521 34.2437C34.2509 34.1934 34.2596 34.1434 34.2777 34.0965L34.3936 33.7968L34.3701 33.7877L32.2073 35.7577C32.1621 35.7988 32.1093 35.8306 32.0519 35.8513C31.9945 35.872 31.9336 35.8812 31.8726 35.8784C31.8116 35.8755 31.7518 35.8607 31.6965 35.8348C31.6413 35.8088 31.5917 35.7722 31.5506 35.7271L31.4105 35.5733L30.7491 36.4453H29.2538L28.5913 35.5721L28.4502 35.7271C28.3672 35.8182 28.2514 35.8726 28.1283 35.8784C28.0051 35.8841 27.8848 35.8407 27.7936 35.7577L25.6303 33.7874L25.6071 33.7964L25.723 34.0965C25.7412 34.1434 25.7499 34.1934 25.7487 34.2437C25.7475 34.2939 25.7364 34.3435 25.716 34.3894C25.6957 34.4354 25.6665 34.4769 25.6301 34.5116C25.5937 34.5463 25.5509 34.5735 25.504 34.5916L22.6218 35.7054C22.5271 35.7419 22.4218 35.7394 22.3289 35.6983C22.2361 35.6572 22.1634 35.5809 22.1267 35.4862L22.0233 35.2184C21.1716 35.7065 20.6211 36.6373 20.6211 37.6708V43.0766C20.6211 43.144 20.6344 43.2107 20.6602 43.273C20.686 43.3353 20.7238 43.3919 20.7715 43.4395C20.8191 43.4872 20.8757 43.525 20.938 43.5508C21.0003 43.5766 21.067 43.5899 21.1344 43.5899H38.8664C38.9338 43.5899 39.0005 43.5766 39.0628 43.5508C39.1251 43.525 39.1817 43.4872 39.2294 43.4395C39.277 43.3919 39.3149 43.3353 39.3406 43.273C39.3664 43.2107 39.3797 43.144 39.3797 43.0766V37.6732C39.3797 36.6563 38.8455 35.7131 37.978 35.2173Z" stroke="white" stroke-width="0.6" stroke-miterlimit="10" stroke-linecap="round" stroke-linejoin="round"/>
<path d="M33.7123 17.3432C33.19 17.0844 32.658 16.8735 32.166 16.7266C30.7537 16.3047 29.2488 16.3047 27.8365 16.7266C24.8967 17.6045 20.5295 20.7627 25.3451 22.8096V22.4038C25.3451 22.2087 25.5354 22.071 25.7208 22.1315C26.3333 22.3316 27.714 22.673 30.0013 22.673C32.2884 22.673 33.6691 22.3316 34.2817 22.1315C34.4671 22.071 34.6574 22.2087 34.6574 22.4038V22.8096C37.7757 21.4841 37.0435 19.6927 35.3417 18.3561" stroke="white" stroke-width="0.6" stroke-miterlimit="10" stroke-linecap="round" stroke-linejoin="round"/>
<path d="M30.95 39.0607L30.7494 36.4454H29.2541L28.7061 43.59H31.2974L31.0968 40.9747" stroke="white" stroke-width="0.6" stroke-miterlimit="10" stroke-linecap="round" stroke-linejoin="round"/>
</g>
</g>
</g>
<defs>
<clipPath id="clip0_4952_47133">
<rect width="60" height="60" fill="white"/>
</clipPath>
<clipPath id="clip1_4952_47133">
<rect width="28" height="28" fill="white" transform="translate(16 16)"/>
</clipPath>
</defs>
</svg>
