<svg width="60" height="60" viewBox="0 0 60 60" fill="none" xmlns="http://www.w3.org/2000/svg">
<g clip-path="url(#clip0_4952_47081)">
<circle cx="30" cy="30" r="29.5" stroke="#87A4BC"/>
<g clip-path="url(#clip1_4952_47081)">
<path d="M41.1762 33.7996C41.1717 33.7575 41.0527 32.7475 40.2358 31.7852C39.5143 30.9373 38.6564 30.5764 38.2095 30.4365L37.881 30.3344L37.6671 31.0738C37.5784 31.3792 37.4902 31.6847 37.4015 31.99L36.6829 34.4733L37.8327 34.0421C37.6208 34.807 37.1137 36.1684 36.0208 37.1651C35.7164 35.0488 34.1226 33.5799 32.3014 32.2602L31.9296 25.256H36.2197V22.9928H31.8089L31.7185 21.2815C32.44 20.7476 32.9088 19.8914 32.9088 18.9268C32.9088 17.3132 31.5955 16 29.9819 16C28.3677 16 27.0551 17.3132 27.0551 18.9268C27.0551 19.184 27.0882 19.4333 27.1511 19.6701C27.2045 19.8734 27.2802 20.0701 27.3768 20.2567C26.6568 20.7309 25.9115 21.4097 25.4448 22.3513C25.3423 22.5581 25.2561 22.7726 25.1869 22.9929H23.7801V25.2561H25.0535C25.1389 25.7834 25.2987 26.332 25.5338 26.9007C26.011 28.0549 26.8427 29.0034 27.8262 29.8503L27.7844 30.6392L27.4346 37.2189C27.4179 37.4508 27.3293 37.6718 27.1812 37.8511C27.0331 38.0304 26.8328 38.1591 26.6082 38.2194C26.4234 38.2687 25.949 38.2468 25.6588 38.1503C23.3574 37.3901 22.4675 35.1224 22.1677 34.0427L23.3175 34.4739L22.5982 31.9895C22.4702 31.5483 22.3422 31.1064 22.2142 30.6645L22.1188 30.3338L21.7903 30.4365C21.3428 30.5769 20.4849 30.9384 19.764 31.7857C18.9471 32.7474 18.828 33.7569 18.8236 33.7996L18.7725 34.265L20.0408 33.9894C20.0565 34.5671 20.1547 35.6338 20.5972 36.8045C21.5718 39.381 23.2888 40.8767 25.6991 41.2489C28.3929 41.6655 29.5753 43.3387 29.6988 43.5239L29.7168 43.552L30.0043 44L30.2867 43.5463C30.289 43.5421 30.5159 43.1833 31.0027 42.7487C31.354 42.8891 31.7279 42.9601 32.1201 42.9601C32.2652 42.9601 32.4128 42.9504 32.5626 42.9311C33.7276 42.7806 34.748 42.059 35.3062 41.0147C37.1945 40.4165 38.5709 39.0028 39.4023 36.8039C39.8442 35.6361 39.9419 34.5682 39.9587 33.9894L41.2276 34.265L41.1762 33.7996ZM24.9847 24.5823H24.4539V23.6666H25.0323C24.9878 23.9631 24.9721 24.2685 24.9847 24.5823ZM29.982 16.6738C31.2245 16.6738 32.2351 17.685 32.2351 18.9269C32.2351 19.8213 31.7113 20.5955 30.9544 20.9593H30.9145V20.9773C30.6218 21.1109 30.3038 21.1801 29.982 21.1799C29.3378 21.1799 28.7566 20.908 28.3458 20.4736C28.7965 20.2376 29.1888 20.0915 29.4074 20.0184C29.5897 20.1162 29.7934 20.1673 30.0002 20.1671C30.6942 20.1671 31.2584 19.6028 31.2584 18.9089C31.2584 18.2155 30.6942 17.6507 30.0002 17.6507C29.3063 17.6507 28.742 18.2155 28.742 18.9089C28.742 19.1178 28.7934 19.3147 28.8838 19.4883C28.5664 19.6096 28.257 19.7509 27.9574 19.9113C27.8663 19.7261 27.8013 19.5291 27.7642 19.326C27.7412 19.1963 27.7289 19.0633 27.7289 18.9269C27.7288 17.685 28.7394 16.6738 29.982 16.6738ZM31.1346 22.9929H28.8652L28.936 21.66C29.2698 21.7881 29.6244 21.8538 29.982 21.8537C30.3638 21.8537 30.7281 21.7796 31.0628 21.6459L31.1346 22.9929ZM29.4157 18.9089C29.4157 18.5866 29.6779 18.3244 30.0002 18.3244C30.3225 18.3244 30.5847 18.5866 30.5847 18.9089C30.5847 19.2311 30.3225 19.4933 30.0002 19.4933C29.6779 19.4933 29.4157 19.2311 29.4157 18.9089ZM26.0468 22.6542C26.449 21.8405 27.1106 21.2432 27.7541 20.8208C27.909 21.0035 28.0857 21.1665 28.2802 21.3063L28.1909 22.9929H25.9C25.9432 22.8776 25.9922 22.7646 26.0468 22.6542ZM25.7161 23.6666H35.5459V24.5823H25.6605C25.6462 24.2659 25.6645 23.9605 25.7161 23.6666ZM31.6006 31.7648C31.3746 31.6085 31.1481 31.453 30.9211 31.2982C30.0994 30.7369 29.2663 30.1672 28.5168 29.5497L28.745 25.256H31.2547L31.6006 31.7648ZM26.1565 26.6433C25.9577 26.1625 25.8183 25.6998 25.7377 25.2561H28.0702L27.8722 28.9843C27.1324 28.2888 26.521 27.5249 26.1565 26.6433ZM32.4765 42.2629C32.1925 42.2995 31.9204 42.2918 31.6622 42.2421C31.7846 42.1612 31.9099 42.0848 32.0379 42.0131C32.5556 41.7222 33.1267 41.5021 33.7352 41.3591C33.9199 41.3158 34.1103 41.2787 34.3005 41.249C34.3141 41.247 34.3273 41.2446 34.3405 41.2424C33.8669 41.7975 33.2063 42.1686 32.4765 42.2629ZM34.85 40.404C34.8436 40.42 34.8365 40.4356 34.8298 40.4515C34.7464 40.4734 34.6626 40.494 34.577 40.5128C34.4546 40.5392 34.3272 40.5628 34.1974 40.583C34.1301 40.5936 34.0628 40.6049 33.9959 40.6172C33.8561 40.6425 33.7174 40.6712 33.5815 40.7031C32.9112 40.8609 32.2807 41.104 31.7085 41.4251C31.415 41.5892 31.1344 41.7754 30.8692 41.9821L30.8073 42.0316L30.8067 42.0322C30.4446 42.3219 30.1796 42.5993 30.001 42.8103C29.4603 42.1675 28.1539 40.9469 25.8025 40.5831C23.6493 40.2507 22.1098 38.8987 21.2273 36.5658C20.6428 35.0197 20.713 33.6475 20.7163 33.5902L20.7416 33.1478L19.6147 33.3925C19.7226 33.0747 19.9207 32.6413 20.2773 32.2219C20.7428 31.6751 21.2739 31.3673 21.668 31.1995C21.7623 31.5257 21.8567 31.8514 21.9516 32.1769L22.2974 33.3717L21.2851 32.9922L21.3671 33.5559C21.3733 33.598 21.5227 34.5917 22.0919 35.732C22.8555 37.2597 24.0155 38.3176 25.4472 38.7897C25.7997 38.9065 26.4208 38.9671 26.7823 38.87C27.1429 38.7734 27.4644 38.5667 27.702 38.2786C27.9395 37.9906 28.0812 37.6356 28.1073 37.2631L28.4324 31.1383L28.4729 30.3786C29.1355 30.894 29.8423 31.377 30.5411 31.8544C30.9166 32.111 31.2869 32.3642 31.6461 32.6186L31.6889 33.4234L31.8927 37.2631C31.946 38.0267 32.4789 38.6724 33.2172 38.8695C33.5787 38.9671 34.1997 38.9071 34.5528 38.7903C34.5837 38.7801 34.6135 38.7695 34.6427 38.7594C34.7056 38.7375 34.7634 38.7156 34.8173 38.6942C35.0053 38.6218 35.1889 38.5382 35.3669 38.4439L35.3706 38.4418C35.307 39.056 35.1335 39.7066 34.85 40.404ZM35.3859 37.654C35.3321 37.6884 35.2777 37.7217 35.2225 37.7539C35.06 37.8489 34.8916 37.9335 34.7184 38.0071C34.6696 38.028 34.6202 38.0481 34.5708 38.0672C34.5006 38.0953 34.4253 38.1222 34.3406 38.1509C34.0502 38.2469 33.5764 38.2688 33.3917 38.2188C32.9302 38.0958 32.5984 37.6927 32.5653 37.2217L32.3923 33.9653L32.3478 33.1313C33.2377 33.8055 34.0192 34.5089 34.5735 35.3226C35.071 36.053 35.3426 36.8194 35.3905 37.651L35.3859 37.654ZM39.2588 33.1478L39.2835 33.5896C39.2914 33.735 39.3458 35.0505 38.7725 36.5658C38.1053 38.33 37.0612 39.5341 35.661 40.1595C35.9328 39.3721 36.0619 38.6552 36.0727 37.9973C38.1931 36.4125 38.6144 33.6802 38.6327 33.556L38.7147 32.9923L37.703 33.3713L38.0482 32.1782C38.1369 31.8722 38.2256 31.5668 38.3138 31.2613L38.3317 31.1995C38.8683 31.4277 39.3444 31.7776 39.7225 32.2214C40.0784 32.6413 40.2772 33.0753 40.385 33.3925L39.2588 33.1478Z" fill="#BCC8D2"/>
<path d="M28.8568 34.5147L28.7323 37.3138C28.7231 37.5197 28.696 37.7025 28.6494 37.8726C28.5381 38.2792 28.3306 38.6249 28.0328 38.9002L28.4902 39.395C28.882 39.0329 29.1541 38.5805 29.2993 38.0506C29.3584 37.8346 29.3941 37.5968 29.4054 37.3438L29.5299 34.5446L28.8568 34.5147ZM28.8565 32.2801H29.5303V33.8158H28.8565V32.2801Z" fill="#BCC8D2"/>
</g>
</g>
<defs>
<clipPath id="clip0_4952_47081">
<rect width="60" height="60" fill="white"/>
</clipPath>
<clipPath id="clip1_4952_47081">
<rect width="28" height="28" fill="white" transform="translate(16 16)"/>
</clipPath>
</defs>
</svg>
