<svg width="60" height="60" viewBox="0 0 60 60" fill="none" xmlns="http://www.w3.org/2000/svg">
<g clip-path="url(#clip0_4952_47062)">
<circle cx="30" cy="30" r="29.5" stroke="#87A4BC"/>
<g clip-path="url(#clip1_4952_47062)">
<path d="M43.125 29.5625H42.6875V26.8622C42.6889 26.4123 42.6009 25.9666 42.4287 25.5509C42.2565 25.1352 42.0035 24.7578 41.6843 24.4407C41.367 24.1216 40.9895 23.8687 40.5738 23.6965C40.1581 23.5243 39.7123 23.4362 39.2623 23.4375H38.75V22.9641C39.7943 22.3577 40.5 21.2299 40.5 19.9375C40.5 18.0077 38.9298 16.4375 37 16.4375C35.0702 16.4375 33.5 18.0077 33.5 19.9375C33.5 21.2294 34.2057 22.3577 35.25 22.9641V23.4375H34.7377C34.2877 23.4362 33.8419 23.5243 33.4262 23.6965C33.0105 23.8687 32.633 24.1216 32.3157 24.4407C31.9966 24.7579 31.7436 25.1352 31.5714 25.5509C31.3992 25.9666 31.3112 26.4123 31.3125 26.8622V29.5625H30.4375V28.25C30.4375 28.134 30.3914 28.0227 30.3094 27.9406C30.2273 27.8586 30.116 27.8125 30 27.8125H28.6875V27.6624C28.6875 26.3867 29.118 25.1779 29.9068 24.1983C30.0696 24.2705 30.2485 24.3125 30.4375 24.3125C31.1611 24.3125 31.75 23.7236 31.75 23C31.75 22.2764 31.1611 21.6875 30.4375 21.6875C29.7139 21.6875 29.125 22.2764 29.125 23C29.125 23.2135 29.181 23.4117 29.2716 23.5902C28.3247 24.7356 27.8085 26.1763 27.8125 27.6624V27.8125H26.5C26.384 27.8125 26.2727 27.8586 26.1906 27.9406C26.1086 28.0227 26.0625 28.134 26.0625 28.25V29.5625H25.625C25.509 29.5625 25.3977 29.6086 25.3156 29.6906C25.2336 29.7727 25.1875 29.884 25.1875 30V31.75C25.1875 31.866 25.2336 31.9773 25.3156 32.0594C25.3977 32.1414 25.509 32.1875 25.625 32.1875H26.0625V34.8125C24.8563 34.8125 23.875 35.7938 23.875 37C23.875 37.6497 24.1655 38.2276 24.6166 38.6288C23.9319 38.9408 23.3653 39.4642 23 40.122C22.6345 39.4644 22.068 38.9411 21.3834 38.6288C21.8345 38.2276 22.125 37.6497 22.125 37C22.125 35.7938 21.1437 34.8125 19.9375 34.8125C18.7313 34.8125 17.75 35.7938 17.75 37C17.75 37.6497 18.0405 38.2276 18.4916 38.6288C17.2819 39.1805 16.4375 40.3985 16.4375 41.8125V43.125C16.4375 43.241 16.4836 43.3523 16.5656 43.4344C16.6477 43.5164 16.759 43.5625 16.875 43.5625H35.25C35.366 43.5625 35.4773 43.5164 35.5594 43.4344C35.6414 43.3523 35.6875 43.241 35.6875 43.125V42.6875H42.25C42.366 42.6875 42.4773 42.6414 42.5594 42.5594C42.6414 42.4773 42.6875 42.366 42.6875 42.25V32.1875H43.125C43.241 32.1875 43.3523 32.1414 43.4344 32.0594C43.5164 31.9773 43.5625 31.866 43.5625 31.75V30C43.5625 29.884 43.5164 29.7727 43.4344 29.6906C43.3523 29.6086 43.241 29.5625 43.125 29.5625ZM30.4375 22.5625C30.5242 22.5624 30.6089 22.588 30.681 22.6361C30.7531 22.6842 30.8093 22.7526 30.8425 22.8326C30.8757 22.9127 30.8844 23.0008 30.8675 23.0858C30.8506 23.1708 30.8089 23.2488 30.7476 23.3101C30.6863 23.3714 30.6083 23.4131 30.5233 23.43C30.4383 23.4469 30.3502 23.4382 30.2701 23.405C30.1901 23.3718 30.1217 23.3156 30.0736 23.2435C30.0255 23.1714 29.9999 23.0867 30 23C30 22.7585 30.1964 22.5625 30.4375 22.5625ZM41.8125 26.8622V29.5625H40.9375V27.8125H40.0625V29.5625H37.4375V26.3329L38.5544 26.8911C38.6104 26.9195 38.6719 26.9353 38.7346 26.9376C38.7973 26.9399 38.8597 26.9285 38.9176 26.9043C39.0348 26.8557 39.1249 26.7586 39.1652 26.6387L39.912 24.3987C40.3487 24.5123 40.7471 24.7406 41.0661 25.0597C41.3035 25.2959 41.4918 25.5768 41.6199 25.8862C41.748 26.1956 41.8135 26.5274 41.8125 26.8622ZM35.4688 24.3125L36.3354 25.4679L35.5055 25.8831L34.9823 24.3125H35.4688ZM38.5312 24.3125H39.0182L38.4949 25.8831L37.665 25.4679L38.5312 24.3125ZM37 17.3125C38.2862 17.3125 39.3573 18.2431 39.5804 19.4659C38.7492 19.3623 37.9765 18.984 37.385 18.3909L37.3102 18.3157C37.2266 18.2363 37.1157 18.192 37.0004 18.192C36.8852 18.192 36.7743 18.2363 36.6907 18.3157L36.6163 18.3905C36.0248 18.9838 35.2519 19.3622 34.4205 19.4654C34.6427 18.2431 35.7138 17.3125 37 17.3125ZM34.4078 20.3518C35.368 20.2574 36.2745 19.8647 37 19.2287C37.7256 19.8646 38.632 20.2574 39.5922 20.3518C39.3931 21.6031 38.3064 22.5625 37 22.5625C35.6936 22.5625 34.6069 21.6031 34.4078 20.3518ZM37 23.4375C37.3027 23.4375 37.5946 23.3951 37.875 23.3224V23.7293L37 24.8957L36.125 23.7293V23.3224C36.4106 23.3978 36.7046 23.4364 37 23.4375ZM32.1875 26.8622C32.1875 26.1811 32.4526 25.5406 32.9343 25.0593C33.2534 24.7403 33.6518 24.5121 34.0884 24.3982L34.8352 26.6383C34.8552 26.6976 34.8876 26.752 34.9303 26.7978C34.973 26.8436 35.025 26.8797 35.0828 26.9037C35.1406 26.9277 35.2029 26.939 35.2655 26.9369C35.3281 26.9348 35.3895 26.9194 35.4456 26.8916L36.5625 26.3329V29.5625H33.9375V27.8125H33.0625V29.5625H32.1875V26.8622ZM26.9375 28.6875H29.5625V29.5625H26.9375V28.6875ZM24.75 37C24.75 36.2764 25.3389 35.6875 26.0625 35.6875C26.7861 35.6875 27.375 36.2764 27.375 37C27.375 37.7236 26.7861 38.3125 26.0625 38.3125C25.3389 38.3125 24.75 37.7236 24.75 37ZM18.625 37C18.625 36.2764 19.2139 35.6875 19.9375 35.6875C20.6611 35.6875 21.25 36.2764 21.25 37C21.25 37.7236 20.6611 38.3125 19.9375 38.3125C19.2139 38.3125 18.625 37.7236 18.625 37ZM17.3125 41.8125C17.3125 40.3648 18.4898 39.1875 19.9375 39.1875C21.3852 39.1875 22.5625 40.3648 22.5625 41.8125V42.6875H17.3125V41.8125ZM23.4375 41.8125C23.4375 40.3648 24.6148 39.1875 26.0625 39.1875C27.5102 39.1875 28.6875 40.3648 28.6875 41.8125V42.6875H23.4375V41.8125ZM34.8125 42.6875H29.5625V41.8125C29.5625 40.3648 30.7398 39.1875 32.1875 39.1875C33.6352 39.1875 34.8125 40.3648 34.8125 41.8125V42.6875ZM30.875 37C30.875 36.2764 31.4639 35.6875 32.1875 35.6875C32.9111 35.6875 33.5 36.2764 33.5 37C33.5 37.7236 32.9111 38.3125 32.1875 38.3125C31.4639 38.3125 30.875 37.7236 30.875 37ZM41.8125 41.8125H35.6875C35.6875 40.3985 34.8431 39.1805 33.6334 38.6288C34.0845 38.2276 34.375 37.6497 34.375 37C34.375 35.7938 33.3937 34.8125 32.1875 34.8125C30.9813 34.8125 30 35.7938 30 37C30 37.6497 30.2905 38.2276 30.7416 38.6288C30.0569 38.9408 29.4903 39.4642 29.125 40.122C28.7595 39.4644 28.193 38.9411 27.5084 38.6288C27.9595 38.2276 28.25 37.6497 28.25 37C28.2493 36.5749 28.1248 36.1592 27.8917 35.8037C27.6586 35.4482 27.3271 35.1682 26.9375 34.998V32.1875H41.8125V41.8125ZM42.6875 31.3125H26.0625V30.4375H42.6875V31.3125ZM17.75 25.1875H24.75C25.4736 25.1875 26.0625 24.5986 26.0625 23.875V23.1811L27.6843 21.5593C27.725 21.5187 27.7572 21.4705 27.7792 21.4174C27.8013 21.3644 27.8126 21.3075 27.8126 21.25C27.8126 21.1925 27.8013 21.1356 27.7792 21.0826C27.7572 21.0295 27.725 20.9813 27.6843 20.9407L26.0625 19.3189V18.625C26.0625 17.9014 25.4736 17.3125 24.75 17.3125H17.75C17.0264 17.3125 16.4375 17.9014 16.4375 18.625V23.875C16.4375 24.5986 17.0264 25.1875 17.75 25.1875ZM17.3125 18.625C17.3125 18.3835 17.5089 18.1875 17.75 18.1875H24.75C24.9911 18.1875 25.1875 18.3835 25.1875 18.625V19.5C25.1875 19.6164 25.2334 19.7275 25.3157 19.8093L26.7564 21.25L25.3157 22.6907C25.275 22.7312 25.2427 22.7795 25.2207 22.8325C25.1987 22.8856 25.1874 22.9425 25.1875 23V23.875C25.1875 24.1165 24.9911 24.3125 24.75 24.3125H17.75C17.5089 24.3125 17.3125 24.1165 17.3125 23.875V18.625Z" fill="#BCC8D2"/>
<path d="M18.1875 19.0625H24.3125V19.9375H18.1875V19.0625ZM18.1875 22.5625H24.3125V23.4375H18.1875V22.5625ZM19.0625 20.8125H23.4375V21.6875H19.0625V20.8125Z" fill="#BCC8D2"/>
</g>
</g>
<defs>
<clipPath id="clip0_4952_47062">
<rect width="60" height="60" fill="white"/>
</clipPath>
<clipPath id="clip1_4952_47062">
<rect width="28" height="28" fill="white" transform="translate(16 16)"/>
</clipPath>
</defs>
</svg>
