<svg width="88" height="88" viewBox="0 0 88 88" fill="none" xmlns="http://www.w3.org/2000/svg">
<circle cx="44" cy="44" r="43.5" fill="#48B3DC" fill-opacity="0.08" stroke="#0C99CF"/>
<path d="M49.2401 45.6798C49.0442 45.6882 48.8592 45.7727 48.7247 45.9154C48.5902 46.0581 48.5168 46.2478 48.5201 46.4438C48.519 46.5389 48.5369 46.6332 48.5727 46.7212C48.6084 46.8093 48.6614 46.8893 48.7284 46.9567C48.7954 47.0241 48.8751 47.0775 48.963 47.1137C49.0509 47.15 49.1451 47.1684 49.2401 47.1678C49.338 47.1721 49.4358 47.1566 49.5276 47.1222C49.6194 47.0878 49.7033 47.0353 49.7742 46.9676C49.8452 46.9 49.9018 46.8188 49.9406 46.7288C49.9794 46.6388 49.9997 46.5419 50.0001 46.4438C50.0001 46.2419 49.9202 46.0482 49.7777 45.905C49.6353 45.7619 49.442 45.6809 49.2401 45.6798ZM56.3001 43.3398C56.3005 43.0369 56.2361 42.7375 56.1112 42.4615C55.9863 42.1855 55.8039 41.9395 55.5761 41.7398L45.3281 32.6718C44.9606 32.3402 44.4831 32.1566 43.9881 32.1566C43.4931 32.1566 43.0156 32.3402 42.6481 32.6718L32.4001 41.7278C32.1783 41.9299 32.0027 42.1774 31.8853 42.4535C31.7679 42.7297 31.7116 43.0279 31.7201 43.3278V58.5158C31.719 59.0616 31.9328 59.5859 32.3154 59.9752C32.6979 60.3644 33.2184 60.5874 33.7641 60.5958H40.6921V58.8958C40.6932 58.7812 40.6673 58.6679 40.6166 58.5651C40.5659 58.4622 40.4917 58.3728 40.4001 58.3038L38.4441 56.9438C38.3203 56.8904 38.2158 56.8005 38.1443 56.6862C38.0729 56.5719 38.0379 56.4385 38.0441 56.3038V52.2238C38.0441 51.7158 37.5761 51.6278 37.2441 51.2878C37.0426 51.0918 36.8824 50.8573 36.773 50.5983C36.6637 50.3393 36.6073 50.061 36.6073 49.7798C36.6073 49.4987 36.6637 49.2204 36.773 48.9614C36.8824 48.7024 37.0426 48.4679 37.2441 48.2718C37.6495 47.8992 38.1833 47.6975 38.7338 47.7089C39.2844 47.7203 39.8093 47.9439 40.199 48.333C40.5886 48.7222 40.8129 49.2468 40.8251 49.7974C40.8372 50.3479 40.6362 50.8819 40.2641 51.2878C39.9241 51.6278 39.4641 51.7158 39.4641 52.2238V55.6238C39.46 55.7343 39.4857 55.8438 39.5384 55.941C39.5912 56.0381 39.6692 56.1192 39.7641 56.1758L41.7641 57.5798C41.8568 57.6492 41.9322 57.7391 41.9842 57.8425C42.0363 57.946 42.0636 58.0601 42.0641 58.1758V61.2758C42.0674 61.4627 41.997 61.6433 41.8683 61.7787C41.7396 61.9142 41.5628 61.9936 41.3761 61.9998H33.7761C32.8593 61.9873 31.9842 61.615 31.3392 60.9633C30.6943 60.3117 30.3312 59.4327 30.3281 58.5158V43.3398C30.3279 42.8408 30.435 42.3475 30.642 41.8934C30.8491 41.4393 31.1512 41.035 31.5281 40.7078L41.7561 31.6518C42.3759 31.0972 43.1784 30.7905 44.0101 30.7905C44.8418 30.7905 45.6443 31.0972 46.2641 31.6518L56.5121 40.7078C56.8824 41.0375 57.1768 41.4435 57.375 41.8978C57.5732 42.3522 57.6704 42.8442 57.6601 43.3398V58.5158C57.6676 59.4276 57.3145 60.3055 56.6776 60.9581C56.0408 61.6106 55.1718 61.9851 54.2601 61.9998H46.6601C46.4766 61.9965 46.3009 61.925 46.1671 61.7994C46.0333 61.6737 45.951 61.5028 45.9361 61.3198V54.7998C45.9415 54.6917 45.9709 54.586 46.0221 54.4906C46.0733 54.3951 46.145 54.3122 46.2321 54.2478L48.2761 52.8038C48.37 52.7464 48.4469 52.665 48.4989 52.568C48.551 52.471 48.5762 52.3618 48.5721 52.2518V48.8918C48.5721 48.3398 48.1041 48.2558 47.7721 47.9158C47.571 47.7192 47.4112 47.4843 47.302 47.225C47.1929 46.9657 47.1367 46.6872 47.1367 46.4058C47.1367 46.1245 47.1929 45.846 47.302 45.5867C47.4112 45.3274 47.571 45.0925 47.7721 44.8958C48.1756 44.5101 48.714 44.2976 49.2722 44.3039C49.8303 44.3101 50.3639 44.5346 50.7586 44.9293C51.1533 45.3241 51.3778 45.8576 51.3841 46.4158C51.3903 46.9739 51.1779 47.5124 50.7921 47.9158C50.4521 48.2558 49.9921 48.3398 49.9921 48.8918V52.9718C49.9868 53.0986 49.9505 53.2222 49.8863 53.3317C49.8221 53.4411 49.7321 53.5332 49.6241 53.5998C48.9316 54.0299 48.2639 54.4987 47.6241 55.0038C47.5268 55.0575 47.447 55.1381 47.3945 55.2361C47.342 55.334 47.3189 55.4451 47.3281 55.5558V60.5958H54.2601C54.8051 60.5864 55.3246 60.363 55.7062 59.9738C56.0879 59.5846 56.3012 59.0609 56.3001 58.5158V43.3398ZM45.5001 40.7078C45.7016 40.9039 45.8618 41.1384 45.9712 41.3974C46.0805 41.6564 46.1369 41.9347 46.1369 42.2158C46.1369 42.497 46.0805 42.7753 45.9712 43.0343C45.8618 43.2933 45.7016 43.5278 45.5001 43.7238C45.1601 44.0638 44.7001 44.1478 44.7001 44.6998V61.2758C44.7001 61.4562 44.6285 61.6291 44.5009 61.7567C44.3734 61.8842 44.2004 61.9558 44.0201 61.9558C43.8398 61.9558 43.6668 61.8842 43.5393 61.7567C43.4117 61.6291 43.3401 61.4562 43.3401 61.2758V44.6998C43.3401 44.1478 42.8281 44.0638 42.4881 43.7238C42.116 43.3179 41.915 42.7839 41.9271 42.2334C41.9393 41.6828 42.1636 41.1582 42.5532 40.769C42.9429 40.3799 43.4678 40.1563 44.0184 40.1449C44.5689 40.1335 45.1027 40.3352 45.5081 40.7078H45.5001ZM44.0001 41.4718C43.8994 41.4713 43.7997 41.4907 43.7065 41.5288C43.6133 41.567 43.5287 41.6232 43.4573 41.6942C43.3859 41.7652 43.3293 41.8496 43.2906 41.9425C43.252 42.0355 43.2321 42.1352 43.2321 42.2358C43.2325 42.3346 43.253 42.4322 43.2923 42.5227C43.3316 42.6133 43.3889 42.6949 43.4607 42.7627C43.5326 42.8304 43.6174 42.8828 43.7101 42.9167C43.8029 42.9506 43.9015 42.9653 44.0001 42.9598C44.0961 42.9638 44.1918 42.9478 44.2812 42.9128C44.3707 42.8778 44.4518 42.8245 44.5195 42.7564C44.5873 42.6883 44.6401 42.6068 44.6746 42.5172C44.7091 42.4276 44.7246 42.3318 44.7201 42.2358C44.7255 42.1378 44.7109 42.0397 44.6773 41.9474C44.6436 41.8552 44.5915 41.7708 44.5241 41.6993C44.4567 41.6278 44.3756 41.5708 44.2855 41.5317C44.1954 41.4926 44.0983 41.4722 44.0001 41.4718ZM39.2921 49.2478C39.1869 49.1427 39.0529 49.0712 38.9071 49.0422C38.7612 49.0133 38.61 49.0282 38.4727 49.0852C38.3353 49.1421 38.2179 49.2385 38.1353 49.3621C38.0527 49.4858 38.0086 49.6311 38.0086 49.7798C38.0086 49.9285 38.0527 50.0739 38.1353 50.1976C38.2179 50.3212 38.3353 50.4176 38.4727 50.4745C38.61 50.5315 38.7612 50.5464 38.9071 50.5174C39.0529 50.4885 39.1869 50.4169 39.2921 50.3118C39.3625 50.2423 39.4184 50.1594 39.4565 50.0681C39.4946 49.9768 39.5143 49.8788 39.5143 49.7798C39.5143 49.6809 39.4946 49.5829 39.4565 49.4916C39.4184 49.4003 39.3625 49.3174 39.2921 49.2478ZM61.7881 40.2798C61.9165 40.4084 61.9919 40.5805 61.9993 40.762C62.0067 40.9436 61.9456 41.1213 61.8281 41.2598C61.7705 41.3309 61.6992 41.3896 61.6185 41.4325C61.5377 41.4754 61.4491 41.5015 61.358 41.5094C61.2668 41.5172 61.1751 41.5066 61.0882 41.4782C61.0012 41.4497 60.921 41.404 60.8521 41.3438L45.3721 27.9118C44.9947 27.5827 44.5109 27.4013 44.0101 27.4013C43.5093 27.4013 43.0255 27.5827 42.6481 27.9118L36.6481 33.1118C36.5445 33.1961 36.419 33.2491 36.2864 33.2647C36.1537 33.2803 36.0194 33.2579 35.899 33.2C35.7786 33.1421 35.6772 33.0512 35.6066 32.9378C35.536 32.8245 35.499 32.6934 35.5001 32.5598V30.6318C35.5006 30.587 35.4922 30.5426 35.4753 30.5011C35.4584 30.4596 35.4334 30.4219 35.4017 30.3902C35.37 30.3585 35.3323 30.3335 35.2908 30.3166C35.2494 30.2997 35.2049 30.2913 35.1601 30.2918H32.0601C32.0153 30.2913 31.9709 30.2997 31.9294 30.3166C31.8879 30.3335 31.8502 30.3585 31.8185 30.3902C31.7868 30.4219 31.7618 30.4596 31.7449 30.5011C31.728 30.5426 31.7196 30.587 31.7201 30.6318V37.0518C31.7159 37.1659 31.6873 37.2778 31.6362 37.3799C31.5851 37.482 31.5128 37.572 31.4241 37.6438L27.1281 41.3438C27.059 41.4035 26.9787 41.4487 26.8918 41.4769C26.805 41.505 26.7133 41.5155 26.6224 41.5076C26.5314 41.4998 26.443 41.4739 26.3622 41.4313C26.2814 41.3887 26.21 41.3304 26.1521 41.2598C26.0392 41.1163 25.9851 40.9352 26.0007 40.7533C26.0163 40.5713 26.1004 40.4021 26.2361 40.2798L30.1921 36.8398C30.2354 36.8138 30.2702 36.7758 30.2922 36.7303C30.3142 36.6848 30.3225 36.6339 30.3161 36.5838V30.2918C30.33 29.9243 30.4825 29.5756 30.743 29.3159C31.0034 29.0562 31.3525 28.9047 31.7201 28.8918H35.5041C35.872 28.9038 36.2216 29.055 36.4823 29.3149C36.7429 29.5748 36.8951 29.924 36.9081 30.2918C36.9048 30.3572 36.921 30.422 36.9548 30.478C36.9886 30.534 37.0383 30.5787 37.0977 30.6062C37.157 30.6337 37.2232 30.6429 37.2878 30.6325C37.3524 30.6221 37.4124 30.5926 37.4601 30.5478L41.7561 26.8518C42.3786 26.3029 43.1801 26 44.0101 26C44.8401 26 45.6416 26.3029 46.2641 26.8518L61.7881 40.2798Z" fill="#003E6F"/>
</svg>
