<svg width="60" height="60" viewBox="0 0 60 60" fill="none" xmlns="http://www.w3.org/2000/svg">
<g clip-path="url(#clip0_4810_73601)">
<circle cx="30" cy="30" r="29.5" stroke="#08587F"/>
<g clip-path="url(#clip1_4810_73601)">
<path d="M43.8805 30.3007C43.8118 30.1919 43.7166 30.1024 43.6038 30.0404C43.4911 29.9784 43.3644 29.9461 43.2358 29.9465H39.7686C39.1505 29.9465 38.6476 30.4493 38.6476 31.0674C38.6476 31.0796 38.6466 31.0917 38.6452 31.1035V28.4602C38.6452 28.0804 38.3362 27.7714 37.9564 27.7714H34.9545V24.7006C34.9545 24.4081 34.7165 24.1701 34.424 24.1701H27.282C26.9894 24.1701 26.7514 24.4081 26.7514 24.7006V31.3666H25.4809V28.9417C25.779 28.941 26.0212 28.6984 26.0212 28.4002V27.3965C26.0212 27.0979 25.7783 26.8549 25.4796 26.8549H24.258V23.8351C24.258 23.4969 23.9829 23.2218 23.6446 23.2218H21.8819V21.2041C21.8819 21.0939 21.8382 20.9883 21.7603 20.9105C21.6825 20.8326 21.5769 20.7889 21.4668 20.7889C21.3566 20.7889 21.251 20.8326 21.1732 20.9105C21.0953 20.9883 21.0516 21.0939 21.0516 21.2041V23.2219H19.2889C18.9507 23.2219 18.6756 23.497 18.6756 23.8352V26.855H17.4538C17.1552 26.855 16.9122 27.0979 16.9122 27.3966V28.4003C16.9122 28.6985 17.1545 28.9411 17.4525 28.9418V31.3667H16.7112C16.6053 31.3665 16.5007 31.39 16.4051 31.4356C16.3095 31.4812 16.2253 31.5476 16.1587 31.63C16.092 31.712 16.0445 31.8078 16.0197 31.9106C15.9949 32.0133 15.9935 32.1203 16.0156 32.2237C16.314 33.6361 17.0367 35.0136 18.1056 36.2073C18.1609 36.2695 18.1981 36.3457 18.213 36.4276C18.2171 36.4495 18.2195 36.4714 18.2204 36.4933C18.2205 36.4957 18.2208 36.4981 18.2209 36.5005C18.2213 36.5211 18.2204 36.5417 18.218 36.5621C18.2176 36.566 18.2177 36.5699 18.2171 36.5738C18.2144 36.5927 18.2105 36.6114 18.2054 36.6298C18.2041 36.6347 18.2035 36.6397 18.202 36.6445C18.1952 36.6674 18.1867 36.6898 18.1763 36.7116L17.5058 38.1153C17.3918 38.354 17.408 38.6301 17.5491 38.8538C17.6901 39.0775 17.9322 39.2111 18.1968 39.2111H39.601C39.8957 39.2111 40.167 39.0387 40.2923 38.772L43.927 31.0348C43.982 30.9185 44.0066 30.7902 43.9985 30.6618C43.9904 30.5334 43.9497 30.4091 43.8805 30.3007ZM34.9544 28.5931H37.8236V31.3667H34.9544V28.5931ZM31.2637 24.9917H34.1328V27.7714H31.2637V24.9917ZM31.2637 28.5931H34.1328V31.3667H31.2637V28.5931ZM27.573 24.9917H30.4421V27.7714H27.573V24.9917ZM27.573 28.5931H30.4421V31.3667H27.573V28.5931ZM19.4972 24.0435H23.4364V26.855H19.4972V24.0435ZM17.7339 27.6766H25.1996V28.1202H20.5533C20.4443 28.1202 20.3398 28.1635 20.2628 28.2405C20.1857 28.3176 20.1424 28.4221 20.1424 28.531C20.1424 28.64 20.1857 28.7445 20.2628 28.8215C20.3398 28.8986 20.4443 28.9418 20.5533 28.9418H24.6593V31.3667H18.2742V28.9418H18.6214C18.7304 28.9418 18.8349 28.8986 18.9119 28.8215C18.989 28.7445 19.0322 28.64 19.0322 28.531C19.0322 28.4221 18.989 28.3176 18.9119 28.2405C18.8349 28.1635 18.7304 28.1202 18.6214 28.1202H17.7339V27.6766ZM40.7169 35.9362H36.6444C36.5904 35.9362 36.537 35.9468 36.4872 35.9674C36.4373 35.9881 36.3921 36.0183 36.3539 36.0565C36.3158 36.0946 36.2855 36.1399 36.2649 36.1898C36.2442 36.2396 36.2336 36.293 36.2336 36.347C36.2336 36.4009 36.2442 36.4543 36.2649 36.5042C36.2855 36.554 36.3158 36.5993 36.3539 36.6375C36.3921 36.6756 36.4373 36.7059 36.4872 36.7265C36.537 36.7472 36.5904 36.7578 36.6444 36.7578H40.3309L39.5643 38.3895H18.2854L18.9177 37.0658C18.9307 37.0384 18.9425 37.0108 18.9535 36.9828C18.957 36.9741 18.9599 36.9652 18.9632 36.9565C18.9703 36.9372 18.9772 36.918 18.9833 36.8985C18.9868 36.8877 18.9898 36.8768 18.993 36.8659C19.0016 36.8362 19.0091 36.8063 19.0155 36.7761C19.0168 36.77 19.0185 36.7639 19.0197 36.7578H34.7125C34.8215 36.7578 34.926 36.7146 35.003 36.6375C35.08 36.5605 35.1233 36.456 35.1233 36.347C35.1233 36.2381 35.08 36.1336 35.003 36.0565C34.926 35.9795 34.8215 35.9362 34.7125 35.9362H18.906C18.8556 35.8361 18.7923 35.7429 18.7177 35.6593C17.765 34.5953 17.1369 33.4283 16.8492 32.1883L38.2343 32.1944C38.2575 32.1944 38.3262 32.192 38.3482 32.1883C38.9663 32.1883 39.4692 31.6855 39.4692 31.0674C39.4693 30.988 39.5008 30.9119 39.557 30.8558C39.6131 30.7997 39.6892 30.7682 39.7685 30.7681H43.1447L40.7169 35.9362Z" fill="#BCC8D2"/>
</g>
</g>
<defs>
<clipPath id="clip0_4810_73601">
<rect width="60" height="60" fill="white"/>
</clipPath>
<clipPath id="clip1_4810_73601">
<rect width="28" height="28" fill="white" transform="translate(16 16)"/>
</clipPath>
</defs>
</svg>
