<svg width="60" height="60" viewBox="0 0 60 60" fill="none" xmlns="http://www.w3.org/2000/svg">
<g clip-path="url(#clip0_4950_46685)">
<circle cx="30" cy="30" r="29.5" stroke="#87A4BC"/>
<g clip-path="url(#clip1_4950_46685)">
<path d="M39.9744 28.5622C39.9266 28.5621 39.8792 28.553 39.8348 28.5353L36.9818 27.4002C36.9129 27.3728 36.8535 27.3258 36.8111 27.265C36.7686 27.2042 36.745 27.1322 36.7431 27.0581C36.7412 26.984 36.7611 26.9109 36.8004 26.848C36.8397 26.7851 36.8966 26.7352 36.964 26.7043C37.2445 26.5752 37.4648 26.3435 37.5796 26.0569C37.6379 25.9102 37.6667 25.7534 37.6643 25.5955C37.6619 25.4376 37.6284 25.2818 37.5658 25.1369C37.5031 24.9919 37.4125 24.8608 37.2991 24.7509C37.1857 24.641 37.0518 24.5546 36.905 24.4965C36.6088 24.3787 36.278 24.3832 35.9852 24.509C35.6923 24.6349 35.4614 24.8718 35.343 25.1677C35.2851 25.3088 35.2556 25.4599 35.2561 25.6124C35.2566 25.7649 35.2872 25.9158 35.3461 26.0565C35.3754 26.1253 35.3838 26.2011 35.37 26.2746C35.3563 26.348 35.3212 26.4158 35.269 26.4693C35.2168 26.5228 35.15 26.5596 35.0769 26.5752C35.0038 26.5908 34.9278 26.5844 34.8583 26.5568L31.9944 25.4186C31.9482 25.4002 31.906 25.373 31.8703 25.3383C31.8346 25.3036 31.8061 25.2623 31.7865 25.2166C31.7668 25.1709 31.7563 25.1218 31.7556 25.072C31.7549 25.0223 31.7641 24.9729 31.7825 24.9267L32.6649 22.7075C32.4186 22.7061 32.1747 22.6585 31.946 22.5671C31.6791 22.46 31.4391 22.2953 31.243 22.085C31.0469 21.8746 30.8995 21.6236 30.8114 21.3499C30.7232 21.0761 30.6964 20.7863 30.7328 20.501C30.7693 20.2158 30.8681 19.942 31.0223 19.6992C31.1765 19.4564 31.3822 19.2506 31.6249 19.0963C31.8676 18.942 32.1413 18.843 32.4266 18.8064C32.7118 18.7698 33.0017 18.7965 33.2754 18.8845C33.5492 18.9725 33.8003 19.1197 34.0108 19.3157L34.8954 17.0935C34.9138 17.0473 34.9411 17.0052 34.9758 16.9695C35.0105 16.9339 35.0518 16.9054 35.0975 16.8858C35.1432 16.8661 35.1923 16.8557 35.242 16.8551C35.2918 16.8544 35.3411 16.8636 35.3873 16.882L42.5356 19.7232C42.812 19.8335 43.0334 20.0488 43.1513 20.322C43.2692 20.5952 43.2739 20.904 43.1645 21.1808L40.3267 28.3211C40.299 28.3921 40.2506 28.4531 40.1878 28.4961C40.1249 28.5391 40.0506 28.5621 39.9744 28.5622ZM37.8933 26.9495L39.7621 27.6919L42.4603 20.903C42.4948 20.8128 42.4927 20.7127 42.4544 20.624C42.4162 20.5353 42.3449 20.4651 42.2556 20.4282L35.4592 17.725L34.4648 20.2318C34.4374 20.3009 34.3902 20.3605 34.3292 20.403C34.2681 20.4455 34.1959 20.469 34.1215 20.4707C34.0471 20.4723 33.9739 20.452 33.911 20.4123C33.8481 20.3726 33.7983 20.3152 33.7679 20.2473C33.67 20.033 33.5114 19.8521 33.3116 19.7272C33.1118 19.6023 32.8797 19.5388 32.6442 19.5447C32.4086 19.5506 32.18 19.6256 31.9868 19.7604C31.7935 19.8951 31.6441 20.0837 31.5571 20.3027C31.4701 20.5216 31.4494 20.7613 31.4975 20.992C31.5456 21.2226 31.6605 21.4341 31.8278 21.6C31.9951 21.7659 32.2074 21.879 32.4385 21.9252C32.6695 21.9714 32.909 21.9487 33.1273 21.8599C33.196 21.8317 33.2715 21.8242 33.3444 21.8386C33.4173 21.8529 33.4844 21.8884 33.5372 21.9406C33.5901 21.9929 33.6264 22.0595 33.6416 22.1322C33.6569 22.2049 33.6504 22.2805 33.6229 22.3496L32.6255 24.8541L34.4993 25.5991C34.5005 25.2794 34.5799 24.9649 34.7304 24.683C34.8809 24.401 35.0981 24.16 35.3629 23.9811C35.6278 23.8021 35.9324 23.6906 36.2501 23.6561C36.5679 23.6217 36.8893 23.6654 37.1864 23.7835C37.4834 23.9016 37.7471 24.0904 37.9545 24.3336C38.162 24.5768 38.3068 24.867 38.3765 25.179C38.4463 25.4909 38.4387 25.8152 38.3546 26.1236C38.2704 26.4319 38.1122 26.7151 37.8937 26.9484L37.8933 26.9495ZM38.6648 32.3728C38.6151 32.373 38.5659 32.3635 38.5199 32.3447C38.4739 32.3259 38.4321 32.2982 38.3968 32.2632C38.3615 32.2282 38.3334 32.1866 38.3142 32.1408C38.295 32.095 38.285 32.0458 38.2848 31.9961C38.2845 31.9464 38.2941 31.8972 38.3129 31.8512C38.3317 31.8052 38.3594 31.7634 38.3944 31.7281C38.4293 31.6928 38.4709 31.6647 38.5168 31.6455C38.5626 31.6263 38.6117 31.6163 38.6614 31.6161H38.6648C38.7652 31.6161 38.8614 31.6559 38.9324 31.7269C39.0033 31.7978 39.0432 31.8941 39.0432 31.9944C39.0432 32.0948 39.0033 32.191 38.9324 32.262C38.8614 32.3329 38.7652 32.3728 38.6648 32.3728ZM34.7407 32.3728C34.6403 32.3733 34.5439 32.3339 34.4726 32.2633C34.4012 32.1927 34.3609 32.0967 34.3604 31.9963C34.3599 31.896 34.3993 31.7995 34.4699 31.7282C34.5405 31.6569 34.6365 31.6166 34.7369 31.6161H34.7407C34.841 31.6161 34.9373 31.6559 35.0082 31.7269C35.0792 31.7978 35.119 31.8941 35.119 31.9944C35.119 32.0948 35.0792 32.191 35.0082 32.262C34.9373 32.3329 34.841 32.3728 34.7407 32.3728Z" fill="#BCC8D2"/>
<path d="M34.7369 32.3747C34.6369 32.3747 34.541 32.3351 34.4702 32.2647C34.3993 32.1942 34.3591 32.0986 34.3585 31.9986C34.3581 31.9303 34.3761 31.8631 34.4108 31.8042C34.4454 31.7453 34.4954 31.6969 34.5553 31.6642C34.6153 31.6314 34.683 31.6154 34.7513 31.618C34.8195 31.6206 34.8858 31.6416 34.9431 31.6789C35.0004 31.7161 35.0465 31.7682 35.0766 31.8295C35.1067 31.8908 35.1196 31.9592 35.114 32.0273C35.1084 32.0954 35.0844 32.1607 35.0447 32.2162C35.0049 32.2718 34.9509 32.3156 34.8883 32.3429C34.8406 32.364 34.789 32.3749 34.7369 32.3747Z" fill="#BCC8D2"/>
<path d="M37.7071 43.1449H18.0913C17.7379 43.145 17.3989 43.0049 17.1487 42.7553C16.8985 42.5057 16.7575 42.1671 16.7567 41.8137V22.1944C16.7581 21.8416 16.8994 21.5037 17.1496 21.2549C17.3998 21.006 17.7384 20.8666 18.0913 20.8671H27.8954C27.9958 20.8671 28.092 20.9069 28.163 20.9779C28.2339 21.0489 28.2738 21.1451 28.2738 21.2455V25.1685C28.2741 25.2431 28.2523 25.3162 28.2112 25.3785C28.17 25.4407 28.1114 25.4895 28.0426 25.5185C27.9739 25.5476 27.8981 25.5556 27.8247 25.5417C27.7514 25.5277 27.6839 25.4924 27.6306 25.4402C27.3262 25.1458 26.9188 24.9822 26.4954 24.9842C26.0611 24.9842 25.6446 25.1568 25.3374 25.4639C25.0303 25.771 24.8578 26.1875 24.8578 26.6218C24.8578 27.0562 25.0303 27.4727 25.3374 27.7798C25.6446 28.0869 26.0611 28.2595 26.4954 28.2595C26.9185 28.262 27.3259 28.0991 27.6306 27.8054C27.6839 27.7532 27.7514 27.7178 27.8247 27.7039C27.8981 27.69 27.9739 27.698 28.0426 27.7271C28.1114 27.7561 28.17 27.8048 28.2112 27.8671C28.2523 27.9294 28.2741 28.0024 28.2738 28.0771V31.6179H31.1079C30.9364 31.2524 30.86 30.8495 30.8857 30.4466C30.9114 30.0436 31.0384 29.6537 31.255 29.3129C31.4715 28.9721 31.7706 28.6915 32.1245 28.4971C32.4784 28.3027 32.8756 28.2008 33.2794 28.2008C33.6831 28.2008 34.0803 28.3027 34.4342 28.4971C34.7881 28.6915 35.0872 28.9721 35.3037 29.3129C35.5203 29.6537 35.6473 30.0436 35.673 30.4466C35.6988 30.8495 35.6223 31.2524 35.4509 31.6179H38.6561C38.7565 31.6179 38.8527 31.6578 38.9237 31.7288C38.9946 31.7997 39.0345 31.896 39.0345 31.9963V41.8137C39.0347 42.1662 38.895 42.5043 38.6462 42.7539C38.3973 43.0034 38.0596 43.1441 37.7071 43.1449ZM18.0913 21.6238C17.939 21.6231 17.7928 21.6828 17.6845 21.7897C17.5762 21.8967 17.5147 22.0422 17.5135 22.1944V41.8137C17.5142 41.9664 17.5754 42.1126 17.6837 42.2203C17.792 42.328 17.9385 42.3883 18.0913 42.3881H37.7071C37.8589 42.3874 38.0042 42.3265 38.1112 42.2189C38.2181 42.1112 38.278 41.9655 38.2777 41.8137V32.3728H34.7407C34.6666 32.3727 34.5941 32.3509 34.5323 32.3101C34.4705 32.2692 34.4221 32.2111 34.393 32.143C34.3639 32.0749 34.3555 31.9997 34.3687 31.9268C34.3819 31.8539 34.4163 31.7865 34.4675 31.733C34.6516 31.539 34.7854 31.303 34.8572 31.0454C34.929 30.7878 34.9367 30.5166 34.8795 30.2553C34.8223 29.9941 34.702 29.7509 34.5291 29.5469C34.3563 29.3429 34.1361 29.1843 33.8878 29.085C33.6395 28.9857 33.3707 28.9487 33.1048 28.9773C32.8389 29.0059 32.5841 29.0991 32.3626 29.2488C32.141 29.3986 31.9596 29.6003 31.834 29.8364C31.7084 30.0725 31.6425 30.3357 31.6421 30.6031C31.6384 31.0236 31.8017 31.4283 32.0962 31.7284C32.1483 31.7816 32.1835 31.8489 32.1976 31.922C32.2116 31.9951 32.2037 32.0706 32.175 32.1393C32.1463 32.2079 32.098 32.2666 32.0361 32.3079C31.9743 32.3493 31.9016 32.3714 31.8271 32.3717H27.8954C27.7951 32.3717 27.6988 32.3318 27.6279 32.2609C27.5569 32.1899 27.517 32.0936 27.517 31.9933V28.7892C27.1521 28.9599 26.7501 29.0357 26.3481 29.0097C25.9461 28.9837 25.5572 28.8567 25.2173 28.6405C24.8774 28.4242 24.5976 28.1257 24.4037 27.7726C24.2099 27.4195 24.1082 27.0232 24.1082 26.6203C24.1082 26.2175 24.2099 25.8212 24.4037 25.468C24.5976 25.1149 24.8774 24.8164 25.2173 24.6002C25.5572 24.3839 25.9461 24.2569 26.3481 24.2309C26.7501 24.2049 27.1521 24.2808 27.517 24.4515V21.6238H18.0913Z" fill="#BCC8D2"/>
<path d="M27.8993 36.3019C27.7989 36.3019 27.7027 36.262 27.6317 36.1911C27.5607 36.1201 27.5209 36.0239 27.5209 35.9235V31.9986C27.5206 31.9489 27.5301 31.8996 27.5489 31.8536C27.5676 31.8076 27.5953 31.7658 27.6302 31.7304C27.7008 31.6591 27.7968 31.6187 27.8972 31.6181C27.9975 31.6176 28.094 31.6569 28.1653 31.7275C28.2367 31.7981 28.2771 31.8941 28.2776 31.9944V35.9216C28.2779 35.9715 28.2683 36.0209 28.2494 36.067C28.2305 36.1131 28.2026 36.1551 28.1675 36.1904C28.1323 36.2257 28.0905 36.2538 28.0445 36.2729C27.9985 36.292 27.9491 36.3019 27.8993 36.3019ZM27.9019 43.1297C27.8016 43.1297 27.7053 43.0899 27.6344 43.0189C27.5634 42.9479 27.5235 42.8517 27.5235 42.7514V38.8223C27.5235 38.7219 27.5634 38.6257 27.6344 38.5547C27.7053 38.4838 27.8016 38.4439 27.9019 38.4439C28.0023 38.4439 28.0985 38.4838 28.1695 38.5547C28.2404 38.6257 28.2803 38.7219 28.2803 38.8223V42.7514C28.2803 42.8517 28.2404 42.9479 28.1695 43.0189C28.0985 43.0899 28.0023 43.1297 27.9019 43.1297Z" fill="#BCC8D2"/>
<path d="M27.8992 32.3728H23.9838C23.8834 32.3728 23.7872 32.3329 23.7162 32.262C23.6453 32.191 23.6054 32.0948 23.6054 31.9944C23.6054 31.8941 23.6453 31.7978 23.7162 31.7269C23.7872 31.6559 23.8834 31.6161 23.9838 31.6161H27.8992C27.9996 31.6161 28.0958 31.6559 28.1668 31.7269C28.2377 31.7978 28.2776 31.8941 28.2776 31.9944C28.2776 32.0948 28.2377 32.191 28.1668 32.262C28.0958 32.3329 27.9996 32.3728 27.8992 32.3728ZM21.0759 32.3751H17.1457C17.0454 32.3751 16.9491 32.3352 16.8782 32.2643C16.8072 32.1933 16.7673 32.0971 16.7673 31.9967C16.7673 31.8963 16.8072 31.8001 16.8782 31.7291C16.9491 31.6582 17.0454 31.6183 17.1457 31.6183H21.0759C21.1763 31.6183 21.2725 31.6582 21.3435 31.7291C21.4144 31.8001 21.4543 31.8963 21.4543 31.9967C21.4543 32.0971 21.4144 32.1933 21.3435 32.2643C21.2725 32.3352 21.1763 32.3751 21.0759 32.3751Z" fill="#BCC8D2"/>
<path d="M22.5221 35.7926C22.0518 35.7927 21.5919 35.6543 21.1998 35.3945C20.8078 35.1347 20.501 34.7651 20.3178 34.3319C20.1347 33.8988 20.0832 33.4212 20.1699 32.959C20.2566 32.4967 20.4777 32.0703 20.8054 31.733C20.8756 31.6622 20.9709 31.622 21.0706 31.6211C21.1703 31.6202 21.2663 31.6586 21.3378 31.7281C21.4093 31.7976 21.4504 31.8925 21.4523 31.9922C21.4543 32.0919 21.4168 32.1883 21.348 32.2604C21.124 32.491 20.973 32.7825 20.9137 33.0984C20.8544 33.4144 20.8895 33.7408 21.0146 34.0369C21.1398 34.333 21.3494 34.5856 21.6173 34.7633C21.8852 34.941 22.1995 35.0358 22.521 35.0358C22.9556 35.0358 23.3724 34.8634 23.68 34.5564C23.9876 34.2493 24.1608 33.8328 24.1616 33.3982C24.1646 32.9743 24.0001 32.5663 23.7038 32.2631C23.6666 32.2282 23.6369 32.1861 23.6164 32.1395C23.5959 32.0928 23.5851 32.0424 23.5845 31.9915C23.5839 31.9405 23.5937 31.8899 23.6131 31.8428C23.6326 31.7957 23.6614 31.753 23.6978 31.7173C23.7341 31.6816 23.7774 31.6536 23.8248 31.635C23.8723 31.6164 23.923 31.6076 23.974 31.6091C24.0249 31.6106 24.0751 31.6224 24.1213 31.6437C24.1676 31.6651 24.2091 31.6956 24.2433 31.7334C24.6793 32.1782 24.9219 32.7773 24.9184 33.4001C24.9168 34.0348 24.6637 34.643 24.2145 35.0914C23.7654 35.5399 23.1568 35.792 22.5221 35.7926ZM29.3038 39.7735C28.682 39.7737 28.0847 39.5312 27.6389 39.0977C27.6016 39.0636 27.5716 39.0224 27.5505 38.9765C27.5294 38.9306 27.5178 38.8809 27.5162 38.8304C27.5146 38.7799 27.5232 38.7296 27.5414 38.6825C27.5595 38.6353 27.587 38.5923 27.622 38.5559C27.6571 38.5196 27.6991 38.4906 27.7456 38.4707C27.792 38.4509 27.842 38.4405 27.8925 38.4402C27.943 38.44 27.9931 38.4499 28.0397 38.4693C28.0864 38.4887 28.1287 38.5172 28.1641 38.5532C28.3947 38.7754 28.6854 38.9249 29.0002 38.9834C29.315 39.0419 29.64 39.0067 29.935 38.8823C30.23 38.7578 30.482 38.5496 30.6598 38.2833C30.8376 38.017 30.9333 37.7044 30.9352 37.3842C30.937 37.0641 30.8449 36.7504 30.6702 36.4821C30.4955 36.2138 30.2459 36.0026 29.9523 35.8748C29.6588 35.747 29.3342 35.7081 29.0187 35.7629C28.7033 35.8178 28.4109 35.964 28.1777 36.1835C28.126 36.2387 28.0588 36.2772 27.985 36.2939C27.9111 36.3106 27.8339 36.3048 27.7634 36.2772C27.6929 36.2495 27.6323 36.2014 27.5895 36.1389C27.5467 36.0765 27.5235 36.0026 27.5231 35.9269V35.9235C27.5232 35.8727 27.5335 35.8224 27.5533 35.7757C27.5732 35.729 27.6023 35.6867 27.6389 35.6515C27.9213 35.3795 28.2661 35.1809 28.6431 35.0732C29.0201 34.9655 29.4177 34.9519 29.8012 35.0337C30.1846 35.1154 30.5421 35.2901 30.8424 35.5422C31.1426 35.7943 31.3764 36.1163 31.5233 36.4798C31.6701 36.8434 31.7255 37.2374 31.6846 37.6273C31.6436 38.0173 31.5077 38.3912 31.2886 38.7163C31.0695 39.0415 30.7739 39.3079 30.4279 39.4922C30.0818 39.6765 29.6958 39.7731 29.3038 39.7735Z" fill="#BCC8D2"/>
</g>
</g>
<defs>
<clipPath id="clip0_4950_46685">
<rect width="60" height="60" fill="white"/>
</clipPath>
<clipPath id="clip1_4950_46685">
<rect width="28" height="28" fill="white" transform="translate(16 16)"/>
</clipPath>
</defs>
</svg>
