<svg width="60" height="60" viewBox="0 0 60 60" fill="none" xmlns="http://www.w3.org/2000/svg">
<g clip-path="url(#clip0_4952_46831)">
<circle cx="30" cy="30" r="29.5" stroke="#87A4BC"/>
<g clip-path="url(#clip1_4952_46831)">
<path d="M19.7335 35.1333H19.2668C19.1431 35.1333 19.0244 35.1824 18.9369 35.27C18.8493 35.3575 18.8002 35.4762 18.8002 35.5999V36.0666C18.8002 36.1904 18.8493 36.3091 18.9369 36.3966C19.0244 36.4841 19.1431 36.5333 19.2668 36.5333H19.7335C19.8573 36.5333 19.976 36.4841 20.0635 36.3966C20.151 36.3091 20.2002 36.1904 20.2002 36.0666V35.5999C20.2002 35.4762 20.151 35.3575 20.0635 35.27C19.976 35.1824 19.8573 35.1333 19.7335 35.1333ZM41.6667 40.7332H41.2C41.0763 40.7332 40.9576 40.7824 40.8701 40.8699C40.7825 40.9574 40.7334 41.0761 40.7334 41.1999V41.6666C40.7334 41.7903 40.7825 41.909 40.8701 41.9965C40.9576 42.0841 41.0763 42.1332 41.2 42.1332H41.6667C41.7905 42.1332 41.9092 42.0841 41.9967 41.9965C42.0842 41.909 42.1334 41.7903 42.1334 41.6666V41.1999C42.1334 41.0761 42.0842 40.9574 41.9967 40.8699C41.9092 40.7824 41.7905 40.7332 41.6667 40.7332ZM38.8667 40.7332H38.4C38.2763 40.7332 38.1576 40.7824 38.0701 40.8699C37.9826 40.9574 37.9334 41.0761 37.9334 41.1999V41.6666C37.9334 41.7903 37.9826 41.909 38.0701 41.9965C38.1576 42.0841 38.2763 42.1332 38.4 42.1332H38.8667C38.9905 42.1332 39.1092 42.0841 39.1967 41.9965C39.2842 41.909 39.3334 41.7903 39.3334 41.6666V41.1999C39.3334 41.0761 39.2842 40.9574 39.1967 40.8699C39.1092 40.7824 38.9905 40.7332 38.8667 40.7332ZM36.0667 40.7332H35.6001C35.4763 40.7332 35.3576 40.7824 35.2701 40.8699C35.1826 40.9574 35.1334 41.0761 35.1334 41.1999V41.6666C35.1334 41.7903 35.1826 41.909 35.2701 41.9965C35.3576 42.0841 35.4763 42.1332 35.6001 42.1332H36.0667C36.1905 42.1332 36.3092 42.0841 36.3967 41.9965C36.4842 41.909 36.5334 41.7903 36.5334 41.6666V41.1999C36.5334 41.0761 36.4842 40.9574 36.3967 40.8699C36.3092 40.7824 36.1905 40.7332 36.0667 40.7332ZM33.2667 40.7332H32.8001C32.6763 40.7332 32.5576 40.7824 32.4701 40.8699C32.3826 40.9574 32.3334 41.0761 32.3334 41.1999V41.6666C32.3334 41.7903 32.3826 41.909 32.4701 41.9965C32.5576 42.0841 32.6763 42.1332 32.8001 42.1332H33.2667C33.3905 42.1332 33.5092 42.0841 33.5967 41.9965C33.6842 41.909 33.7334 41.7903 33.7334 41.6666V41.1999C33.7334 41.0761 33.6842 40.9574 33.5967 40.8699C33.5092 40.7824 33.3905 40.7332 33.2667 40.7332Z" fill="#BCC8D2"/>
<path d="M43.534 18.8H39.8001V16.4667C39.8002 16.3979 39.785 16.3299 39.7557 16.2676C39.7263 16.2054 39.6836 16.1504 39.6305 16.1066C39.5773 16.0628 39.5152 16.0313 39.4485 16.0144C39.3818 15.9975 39.3121 15.9956 39.2446 16.0087L24.778 18.8087L24.7797 18.8177C24.674 18.8364 24.5781 18.8916 24.5088 18.9736C24.4395 19.0557 24.4011 19.1594 24.4002 19.2668V21.1334C24.4002 21.1947 24.4122 21.2553 24.4356 21.3119C24.459 21.3685 24.4933 21.42 24.5366 21.4633C24.5799 21.5066 24.6313 21.541 24.6879 21.5645C24.7445 21.588 24.8051 21.6 24.8664 21.6001H24.8669V24.8667H23.9336C23.8723 24.8667 23.8116 24.8787 23.755 24.9021C23.6984 24.9255 23.647 24.9599 23.6037 25.0031C23.5603 25.0464 23.526 25.0978 23.5025 25.1544C23.479 25.211 23.4669 25.2716 23.4669 25.3329V26.7334H22.5336C22.4723 26.7333 22.4117 26.7454 22.355 26.7688C22.2984 26.7922 22.247 26.8265 22.2037 26.8698C22.1603 26.9131 22.126 26.9645 22.1025 27.0211C22.079 27.0776 22.0669 27.1383 22.0669 27.1995V30.9334C22.0669 30.9946 22.0789 31.0553 22.1023 31.1119C22.1257 31.1685 22.16 31.2199 22.2033 31.2632C22.2466 31.3066 22.298 31.341 22.3546 31.3644C22.4111 31.3879 22.4718 31.4 22.533 31.4H28.1335C28.1948 31.4001 28.2554 31.388 28.312 31.3646C28.3686 31.3412 28.4201 31.3069 28.4634 31.2636C28.5067 31.2203 28.5411 31.1689 28.5646 31.1123C28.5881 31.0558 28.6002 30.9951 28.6002 30.9339V27.2C28.6002 27.1388 28.5882 27.0781 28.5648 27.0215C28.5414 26.9649 28.5071 26.9135 28.4638 26.8702C28.4205 26.8268 28.3691 26.7924 28.3125 26.769C28.2559 26.7455 28.1953 26.7334 28.134 26.7334H27.2002V25.3334C27.2002 25.2721 27.1882 25.2115 27.1648 25.1549C27.1414 25.0983 27.1071 25.0468 27.0638 25.0035C27.0205 24.9602 26.9691 24.9258 26.9125 24.9023C26.856 24.8789 26.7953 24.8668 26.7341 24.8667H25.8002V21.6001H34.5895L31.9332 38.8666H30.9335C30.8723 38.8666 30.8116 38.8786 30.755 38.902C30.6984 38.9254 30.647 38.9598 30.6036 39.003C30.5603 39.0463 30.5259 39.0977 30.5024 39.1543C30.479 39.2109 30.4669 39.2715 30.4668 39.3328V43.5333C30.4668 43.5945 30.4788 43.6552 30.5022 43.7118C30.5256 43.7684 30.56 43.8198 30.6033 43.8632C30.6465 43.9065 30.6979 43.9409 30.7545 43.9643C30.8111 43.9878 30.8717 43.9999 30.933 43.9999H43.5334C43.5947 44 43.6553 43.988 43.7119 43.9645C43.7685 43.9411 43.82 43.9068 43.8633 43.8635C43.9066 43.8202 43.941 43.7688 43.9645 43.7123C43.988 43.6557 44.0001 43.595 44.0001 43.5338V39.3333C44.0001 39.2721 43.9881 39.2114 43.9647 39.1548C43.9413 39.0982 43.907 39.0468 43.8637 39.0034C43.8204 38.9601 43.769 38.9257 43.7124 38.9022C43.6558 38.8788 43.5952 38.8667 43.534 38.8666H42.5338L39.8774 21.6001H43.5334C43.5947 21.6001 43.6553 21.5881 43.7119 21.5647C43.7685 21.5413 43.82 21.507 43.8633 21.4637C43.9066 21.4204 43.941 21.369 43.9645 21.3124C43.988 21.2558 44.0001 21.1952 44.0001 21.1339V19.2668C44.0001 19.2055 43.9881 19.1448 43.9647 19.0882C43.9413 19.0316 43.907 18.9802 43.8637 18.9368C43.8204 18.8935 43.769 18.8591 43.7124 18.8356C43.6559 18.8122 43.5952 18.8001 43.534 18.8ZM38.8668 17.0323V18.8H29.7332L38.8668 17.0323ZM27.6669 27.6667V30.4666H23.0002V27.6667H27.6669ZM26.2669 25.8V26.7333H24.4002V25.8H26.2669ZM34.5641 27.9038L39.6338 30.4384L33.7802 32.9994L34.5641 27.9038ZM38.6795 24.4383L34.7986 26.379L35.3131 23.035L38.6795 24.4383ZM35.4593 22.0848L35.5339 21.6H38.9331L39.2509 23.6655L35.4593 22.0848ZM43.0668 39.7999V43.0666H31.4002V39.7999H43.0668ZM41.5893 38.8666H32.8776L33.5623 34.4161L41.5514 38.6205L41.5893 38.8666ZM41.3749 37.4731L34.3423 33.772L40.398 31.1226L41.3749 37.4731ZM40.1738 29.665L35.2438 27.2L39.4695 25.0872L40.1738 29.665ZM43.0668 20.6667H25.3335V19.7334H43.0668V20.6667Z" fill="#BCC8D2"/>
<path d="M29.1402 37.6858C29.0982 37.6187 29.0399 37.5634 28.9707 37.5251C28.9015 37.4868 28.8237 37.4666 28.7446 37.4666H22.0669V33.7333C22.0669 33.672 22.0549 33.6114 22.0315 33.5548C22.0081 33.4982 21.9737 33.4467 21.9304 33.4034C21.8872 33.3601 21.8358 33.3257 21.7792 33.3022C21.7226 33.2787 21.662 33.2666 21.6007 33.2666H17.4002C17.339 33.2666 17.2783 33.2786 17.2217 33.302C17.1651 33.3254 17.1137 33.3597 17.0703 33.403C17.027 33.4463 16.9926 33.4977 16.9691 33.5543C16.9457 33.6109 16.9336 33.6715 16.9335 33.7328V37.4666H16.4669C16.3885 37.4665 16.3115 37.4862 16.2427 37.5238C16.174 37.5613 16.1158 37.6156 16.0736 37.6816C16.0314 37.7476 16.0064 37.8231 16.0011 37.9013C15.9957 37.9794 16.0102 38.0577 16.043 38.1288L18.3149 43.0522C18.2692 43.0601 18.2231 43.0649 18.1768 43.0666C18.0285 43.0661 17.882 43.0343 17.7468 42.9733C17.6117 42.9123 17.4909 42.8234 17.3925 42.7125C17.2107 42.5281 16.9939 42.3818 16.7549 42.2823C16.5158 42.1829 16.2592 42.1322 16.0003 42.1332V43.0666C16.1486 43.067 16.2951 43.0988 16.4303 43.1598C16.5654 43.2208 16.6861 43.3097 16.7846 43.4206C17.5487 44.1895 18.7915 44.1934 19.5604 43.4293L19.569 43.4206C19.9507 42.9876 20.6111 42.9459 21.0442 43.3276C21.0771 43.3566 21.1081 43.3877 21.1372 43.4206C21.9017 44.1897 23.1448 44.1934 23.9138 43.429L23.9217 43.4211C24.3051 42.9869 24.9679 42.9458 25.402 43.3292C25.4345 43.3579 25.4652 43.3886 25.4939 43.4211C26.2604 44.1906 27.5056 44.1931 28.2752 43.4266L28.2807 43.4211C28.3794 43.31 28.5004 43.221 28.6359 43.1599C28.7713 43.0988 28.9182 43.067 29.0668 43.0666V42.1332C28.8078 42.1321 28.5511 42.1828 28.3119 42.2821C28.0726 42.3815 27.8557 42.5277 27.6736 42.712C27.5749 42.8232 27.4538 42.9122 27.3182 42.9733C27.1827 43.0344 27.0358 43.0662 26.8871 43.0666C26.8498 43.0647 26.8126 43.0608 26.7758 43.055L29.1643 38.137C29.1989 38.0659 29.2148 37.9872 29.2105 37.9083C29.2063 37.8293 29.1821 37.7528 29.1402 37.6858ZM17.8669 34.1999H21.1335V37.4666H17.8669V34.1999ZM25.9617 42.5955C25.6162 42.2897 25.1686 42.1248 24.7074 42.1333C24.4484 42.1321 24.1917 42.1827 23.9526 42.2821C23.7134 42.3815 23.4965 42.5277 23.3147 42.7121C22.9327 43.1456 22.2716 43.1874 21.8381 42.8054C21.8052 42.7764 21.7741 42.7454 21.7451 42.7125C21.5634 42.5281 21.3466 42.3819 21.1075 42.2824C20.8684 42.1829 20.6119 42.1322 20.3529 42.1333C19.9025 42.1246 19.4647 42.2827 19.1238 42.5773L17.1961 38.4H27.9991L25.9617 42.5955Z" fill="#BCC8D2"/>
</g>
</g>
<defs>
<clipPath id="clip0_4952_46831">
<rect width="60" height="60" fill="white"/>
</clipPath>
<clipPath id="clip1_4952_46831">
<rect width="28" height="28" fill="white" transform="translate(16 16)"/>
</clipPath>
</defs>
</svg>
