<svg width="88" height="88" viewBox="0 0 88 88" fill="none" xmlns="http://www.w3.org/2000/svg">
<circle cx="44" cy="44" r="43.5" fill="#48B3DC" fill-opacity="0.08" stroke="#0C99CF"/>
<g clip-path="url(#clip0_5294_68491)">
<path d="M63.3333 61.6673H60.102L61.2587 53.5672C61.6653 53.442 62.0212 53.1901 62.2745 52.8483C62.5278 52.5065 62.6652 52.0927 62.6667 51.6672V51.0006C62.6658 50.5482 62.5116 50.1095 62.2292 49.756C61.9469 49.4026 61.553 49.1553 61.112 49.0546C61.0159 48.9007 60.931 48.74 60.858 48.5739C60.8107 48.4692 60.7753 48.3639 60.74 48.2619C60.627 47.8443 60.3993 47.4667 60.0827 47.1719C59.7549 46.9079 59.3875 46.6973 58.994 46.5479C58.6786 46.4438 58.3911 46.2691 58.1533 46.0373C57.9067 45.7173 57.682 45.3813 57.4827 45.0299C57.3233 44.7633 57.164 44.5012 56.99 44.2512C56.6011 43.6696 56.0112 43.252 55.3333 43.0786V38.2999C57.0351 38.1289 58.606 37.3103 59.7212 36.0136C60.8364 34.7169 61.4106 33.0411 61.325 31.3329C61.2393 29.6247 60.5005 28.0148 59.2612 26.8361C58.0219 25.6573 56.377 25 54.6667 25C52.9563 25 51.3114 25.6573 50.0721 26.8361C48.8328 28.0148 48.094 29.6247 48.0084 31.3329C47.9227 33.0411 48.4969 34.7169 49.6121 36.0136C50.7273 37.3103 52.2982 38.1289 54 38.2999V43.0892C53.34 43.2706 52.7667 43.6833 52.3853 44.2526C52.212 44.5012 52.052 44.7652 51.8927 45.0312C51.6934 45.383 51.4691 45.7198 51.2213 46.0392C50.9837 46.2702 50.6967 46.4441 50.382 46.5479C49.9896 46.697 49.6232 46.9069 49.296 47.1699C48.9782 47.4649 48.7498 47.8433 48.6367 48.2619C48.6007 48.3639 48.5653 48.4692 48.512 48.5879C48.4434 48.7442 48.3638 48.8955 48.274 49.0406C47.8209 49.1313 47.4132 49.3761 47.1202 49.7334C46.8272 50.0907 46.6669 50.5385 46.6667 51.0006V51.6672C46.6681 52.0927 46.8056 52.5065 47.0589 52.8483C47.3122 53.1901 47.6681 53.442 48.0747 53.5672L49.2313 61.6673H44.3953C44.5709 61.3246 44.6638 60.9456 44.6667 60.5606V53.6672C44.6645 52.9802 44.4496 52.3106 44.0517 51.7506C43.6537 51.1905 43.0921 50.7674 42.444 50.5392C42.454 50.5092 42.468 50.4812 42.4767 50.4499C42.6091 49.9639 42.5514 49.4456 42.3153 49.0006H44C44.5304 49.0006 45.0391 48.7899 45.4142 48.4148C45.7893 48.0397 46 47.531 46 47.0006C45.9974 46.471 45.7858 45.9638 45.4113 45.5893C45.0368 45.2148 44.5296 45.0032 44 45.0006H40.684L40.9133 44.5693C41.018 44.3759 41.102 44.1719 41.1627 43.9606C41.276 43.6119 41.334 43.2472 41.3333 42.8806C41.3333 42.2139 41.1493 41.5592 40.8 40.9906C40.8667 40.9906 40.9333 41.0006 41 41.0006C41.982 41.0045 42.9365 40.676 43.7082 40.0686C44.4798 39.4612 45.0233 38.6106 45.2502 37.6551C45.4771 36.6997 45.3741 35.6955 44.9578 34.806C44.5416 33.9166 43.8367 33.1941 42.9578 32.756C42.0789 32.318 41.0776 32.1902 40.1168 32.3935C39.156 32.5967 38.2923 33.1191 37.666 33.8755C37.0398 34.632 36.6878 35.578 36.6675 36.5599C36.6472 37.5417 36.9596 38.5015 37.554 39.2832C36.9271 39.3021 36.3167 39.4879 35.7856 39.8216C35.2546 40.1553 34.8223 40.6246 34.5333 41.1812L31.4427 47.0006C31.4347 47.0139 31.4307 47.0319 31.4233 47.0466L31.4193 47.0519L30.486 48.8246C30.1904 49.3866 30.0122 50.0029 29.9624 50.6359C29.9125 51.2689 29.992 51.9055 30.196 52.5069C30.4 53.1082 30.7242 53.6617 31.149 54.1338C31.5737 54.6058 32.0901 54.9865 32.6667 55.2526V58.3339H27.6667C27.36 58.3327 27.0561 58.3924 26.7727 58.5094C26.4892 58.6265 26.2318 58.7986 26.0153 59.0159C25.6114 59.4221 25.37 59.962 25.3367 60.5339C25.3189 60.9276 25.4066 61.3188 25.5907 61.6673H24.6667C24.4899 61.6673 24.3203 61.7375 24.1953 61.8625C24.0702 61.9875 24 62.1571 24 62.3339C24 62.5107 24.0702 62.6803 24.1953 62.8053C24.3203 62.9303 24.4899 63.0006 24.6667 63.0006H63.3333C63.5101 63.0006 63.6797 62.9303 63.8047 62.8053C63.9298 62.6803 64 62.5107 64 62.3339C64 62.1571 63.9298 61.9875 63.8047 61.8625C63.6797 61.7375 63.5101 61.6673 63.3333 61.6673ZM49.3333 31.6672C49.3325 30.6407 49.628 29.6357 50.1843 28.7729C50.7406 27.9102 51.5341 27.2263 52.4695 26.8034C53.4049 26.3805 54.4425 26.2365 55.4577 26.3887C56.4729 26.541 57.4226 26.983 58.1928 27.6617C58.963 28.3404 59.5209 29.227 59.7996 30.215C60.0784 31.203 60.066 32.2504 59.7641 33.2316C59.4622 34.2127 58.8836 35.0859 58.0976 35.7463C57.3117 36.4067 56.3518 36.8263 55.3333 36.9546V34.6099L57.8047 32.1386C57.9261 32.0128 57.9933 31.8444 57.9918 31.6696C57.9903 31.4949 57.9202 31.3276 57.7965 31.204C57.6729 31.0804 57.5057 31.0103 57.3309 31.0088C57.1561 31.0073 56.9877 31.0745 56.862 31.1959L55.3333 32.7246V29.6672C55.3333 29.4904 55.2631 29.3209 55.1381 29.1958C55.013 29.0708 54.8435 29.0006 54.6667 29.0006C54.4899 29.0006 54.3203 29.0708 54.1953 29.1958C54.0702 29.3209 54 29.4904 54 29.6672V32.7246L52.4713 31.1959C52.3456 31.0745 52.1772 31.0073 52.0024 31.0088C51.8276 31.0103 51.6604 31.0804 51.5368 31.204C51.4132 31.3276 51.3431 31.4949 51.3416 31.6696C51.34 31.8444 51.4072 32.0128 51.5287 32.1386L54 34.6099V36.9546C52.7123 36.7912 51.5283 36.1643 50.6694 35.1911C49.8105 34.218 49.3355 32.9652 49.3333 31.6672ZM50.172 48.1753C50.3987 48.0053 50.6487 47.8686 50.914 47.7699C51.4273 47.5899 51.8873 47.2859 52.2527 46.8839C52.542 46.5153 52.804 46.1259 53.036 45.7186C53.18 45.4786 53.3227 45.2393 53.478 45.0166C53.604 44.8085 53.7815 44.6364 53.9934 44.517C54.2053 44.3975 54.4444 44.3348 54.6877 44.3348C54.9309 44.3348 55.1701 44.3975 55.382 44.517C55.5939 44.6364 55.7714 44.8085 55.8973 45.0166C56.0533 45.2406 56.196 45.4832 56.34 45.7192C56.5713 46.1259 56.8333 46.5153 57.122 46.8839C57.4879 47.2867 57.9485 47.5919 58.462 47.7719C58.7287 47.8709 58.9795 48.0081 59.2067 48.1793C59.3427 48.3259 59.4373 48.5059 59.48 48.7006C59.516 48.8032 59.5553 48.9006 59.5953 49.0026H49.7807C49.8213 48.9012 49.8613 48.8026 49.896 48.7006C49.9387 48.5039 50.034 48.3219 50.172 48.1753ZM44 46.3339C44.18 46.3339 44.3513 46.4072 44.4747 46.5379C44.5993 46.6593 44.668 46.8266 44.6667 47.0006C44.6667 47.1774 44.5964 47.347 44.4714 47.472C44.3464 47.597 44.1768 47.6672 44 47.6672H39.8667L39.3413 47.5239L39.9753 46.3339H44ZM41 33.6672C41.394 33.6672 41.7841 33.7448 42.1481 33.8956C42.512 34.0464 42.8427 34.2674 43.1213 34.5459C43.3999 34.8245 43.6209 35.1552 43.7716 35.5192C43.9224 35.8832 44 36.2733 44 36.6672C44 37.0612 43.9224 37.4513 43.7716 37.8153C43.6209 38.1793 43.3999 38.51 43.1213 38.7886C42.8427 39.0671 42.512 39.2881 42.1481 39.4389C41.7841 39.5897 41.394 39.6672 41 39.6672C40.2044 39.6672 39.4413 39.3512 38.8787 38.7886C38.3161 38.226 38 37.4629 38 36.6672C38 35.8716 38.3161 35.1085 38.8787 34.5459C39.4413 33.9833 40.2044 33.6672 41 33.6672ZM35.71 41.8086C35.9749 41.3017 36.421 40.9133 36.9595 40.7205C37.4979 40.5277 38.0892 40.5447 38.6156 40.7682C39.1421 40.9917 39.565 41.4053 39.8003 41.9266C40.0356 42.4478 40.066 43.0386 39.8853 43.5812C39.848 43.7079 39.7973 43.8312 39.734 43.9473L38.0233 47.1639L36.096 46.6379L37.672 43.4852C37.7119 43.4069 37.736 43.3213 37.7427 43.2336C37.7494 43.1459 37.7387 43.0577 37.7112 42.9741C37.6837 42.8905 37.6399 42.8132 37.5824 42.7467C37.5248 42.6801 37.4547 42.6256 37.376 42.5863C37.2973 42.5469 37.2116 42.5236 37.1238 42.5175C37.036 42.5115 36.9479 42.5229 36.8646 42.551C36.7812 42.5792 36.7043 42.6236 36.6381 42.6816C36.572 42.7397 36.518 42.8102 36.4793 42.8892L34.5393 46.7692C34.4952 46.8575 34.4712 46.9544 34.4691 47.053C34.4669 47.1516 34.4867 47.2494 34.5269 47.3395C34.5672 47.4295 34.6269 47.5095 34.7018 47.5737C34.7767 47.6378 34.8649 47.6846 34.96 47.7106L40.7267 49.2832C40.8974 49.3295 41.0427 49.4416 41.1307 49.595C41.2188 49.7485 41.2422 49.9305 41.196 50.1012C41.1498 50.272 41.0376 50.4173 40.8842 50.5053C40.7308 50.5933 40.5487 50.6168 40.378 50.5706L37.2513 49.7173L33.046 48.5706C32.9517 48.5442 32.8643 48.4977 32.7898 48.4342C32.7153 48.3707 32.6556 48.2917 32.6147 48.2028C32.5737 48.1139 32.5527 48.0171 32.5529 47.9192C32.5531 47.8213 32.5747 47.7246 32.616 47.6359C32.616 47.6319 32.616 47.6279 32.6193 47.6239C32.6227 47.6199 32.626 47.6139 32.6287 47.6079L35.71 41.8086ZM31.516 52.2353C31.3336 51.7878 31.2525 51.3056 31.2784 50.8231C31.3044 50.3406 31.4367 49.8699 31.666 49.4446L31.75 49.2846C32.0047 49.5599 32.332 49.7579 32.694 49.8573L36.9007 51.0039L40.0133 51.8532C40.1867 51.9032 40.3667 51.9279 40.5467 51.9272C40.88 51.9272 41.2067 51.8433 41.4993 51.6839C41.998 51.7244 42.4633 51.9507 42.803 52.318C43.1427 52.6854 43.332 53.1669 43.3333 53.6672V60.5606C43.3333 60.8779 43.2033 61.1819 42.9733 61.4006C42.8854 61.4872 42.7813 61.5557 42.6669 61.602C42.5525 61.6484 42.4301 61.6717 42.3067 61.6706H42.2747C42.0192 61.6556 41.7792 61.5432 41.604 61.3565C41.4289 61.1699 41.332 60.9232 41.3333 60.6673V55.0006C41.3333 54.8238 41.2631 54.6542 41.1381 54.5292C41.013 54.4042 40.8435 54.3339 40.6667 54.3339H34.6093C34.2486 54.3344 33.89 54.2784 33.5467 54.1679C33.0881 54.0126 32.669 53.7592 32.3183 53.4254C31.9676 53.0917 31.6938 52.6855 31.516 52.2353ZM37.3333 55.6672H40V60.6673C40.002 61.0139 40.0813 61.3553 40.2327 61.6673H36.9647C37.2047 61.2639 37.3313 60.8032 37.3333 60.3339V55.6672ZM27.776 61.6673C27.6193 61.6667 27.4643 61.6343 27.3205 61.5721C27.1767 61.5099 27.047 61.4191 26.9393 61.3053C26.8488 61.2141 26.778 61.1054 26.7311 60.9858C26.6842 60.8662 26.6623 60.7383 26.6667 60.6099C26.682 60.3645 26.786 60.133 26.9593 59.9586C27.0522 59.8658 27.1625 59.7922 27.2839 59.7422C27.4053 59.6922 27.5354 59.6668 27.6667 59.6673H33.3333C33.5101 59.6673 33.6797 59.597 33.8047 59.472C33.9298 59.347 34 59.1774 34 59.0006V55.6199C34.2013 55.6486 34.404 55.6639 34.6073 55.6672H36V60.3339C36 60.6875 35.8595 61.0267 35.6095 61.2767C35.3594 61.5268 35.0203 61.6673 34.6667 61.6673H27.776ZM50.576 61.6673L49.4353 53.6672H51.3333C51.5101 53.6672 51.6797 53.597 51.8047 53.472C51.9298 53.347 52 53.1774 52 53.0006C52 52.8238 51.9298 52.6542 51.8047 52.5292C51.6797 52.4042 51.5101 52.3339 51.3333 52.3339H48.6667C48.4899 52.3339 48.3203 52.2637 48.1953 52.1387C48.0702 52.0136 48 51.8441 48 51.6672V51.0006C48 50.8238 48.0702 50.6542 48.1953 50.5292C48.3203 50.4042 48.4899 50.3339 48.6667 50.3339H60.6667C60.8435 50.3339 61.0131 50.4042 61.1381 50.5292C61.2631 50.6542 61.3333 50.8238 61.3333 51.0006V51.6672C61.3333 51.8441 61.2631 52.0136 61.1381 52.1387C61.0131 52.2637 60.8435 52.3339 60.6667 52.3339H54C53.8232 52.3339 53.6536 52.4042 53.5286 52.5292C53.4036 52.6542 53.3333 52.8238 53.3333 53.0006C53.3333 53.1774 53.4036 53.347 53.5286 53.472C53.6536 53.597 53.8232 53.6672 54 53.6672H59.898L58.7553 61.6673H50.576Z" fill="#003E6F"/>
</g>
<defs>
<clipPath id="clip0_5294_68491">
<rect width="40" height="40" fill="white" transform="translate(24 24)"/>
</clipPath>
</defs>
</svg>
