<svg width="60" height="60" viewBox="0 0 60 60" fill="none" xmlns="http://www.w3.org/2000/svg">
<g clip-path="url(#clip0_4952_47055)">
<circle cx="30" cy="30" r="29.5" stroke="#87A4BC"/>
<g clip-path="url(#clip1_4952_47055)">
<path d="M43.125 30C43.241 30 43.3523 29.9539 43.4344 29.8719C43.5164 29.7898 43.5625 29.6785 43.5625 29.5625V27.8125C43.5625 27.6965 43.5164 27.5852 43.4344 27.5031C43.3523 27.4211 43.241 27.375 43.125 27.375H40.7188L39.5375 25.8C39.4967 25.7457 39.4439 25.7016 39.3832 25.6712C39.3224 25.6408 39.2554 25.625 39.1875 25.625H38.75V24.75C38.75 24.634 38.7039 24.5227 38.6219 24.4406C38.5398 24.3586 38.4285 24.3125 38.3125 24.3125H36.5625C36.4465 24.3125 36.3352 24.3586 36.2531 24.4406C36.1711 24.5227 36.125 24.634 36.125 24.75V25.625H35.6875C35.6196 25.625 35.5526 25.6408 35.4918 25.6712C35.4311 25.7016 35.3783 25.7457 35.3375 25.8L34.1562 27.375H31.75C31.634 27.375 31.5227 27.4211 31.4406 27.5031C31.3586 27.5852 31.3125 27.6965 31.3125 27.8125V29.5625C31.3125 29.6785 31.3586 29.7898 31.4406 29.8719C31.5227 29.9539 31.634 30 31.75 30H32.625V32.7164L31.6004 33.0892C31.4959 33.1273 31.4099 33.2037 31.3598 33.3029C31.3096 33.4021 31.2991 33.5167 31.3304 33.6234L33.3224 40.3967C33.1311 40.3236 32.9571 40.2116 32.8114 40.0678L32.5489 39.8053C32.2149 39.4696 31.8176 39.2035 31.3801 39.0224C30.9426 38.8413 30.4735 38.7487 30 38.75C29.8537 38.7509 29.7076 38.7607 29.5625 38.7793V37.875H30.4375C30.5535 37.875 30.6648 37.8289 30.7469 37.7469C30.8289 37.6648 30.875 37.5535 30.875 37.4375V35.6875C30.875 35.5715 30.8289 35.4602 30.7469 35.3781C30.6648 35.2961 30.5535 35.25 30.4375 35.25H23.3937L21.8848 21.6875H22.5625C22.5968 21.6875 22.631 21.6835 22.6644 21.6757L33.0625 19.1802V22.125H33.9375V18.625C33.9375 18.509 33.8914 18.3977 33.8094 18.3156C33.7273 18.2336 33.616 18.1875 33.5 18.1875H21.6875V16.875C21.6875 16.759 21.6414 16.6477 21.5594 16.5656C21.4773 16.4836 21.366 16.4375 21.25 16.4375H18.625C18.509 16.4375 18.3977 16.4836 18.3156 16.5656C18.2336 16.6477 18.1875 16.759 18.1875 16.875V18.1875H17.3125C17.1965 18.1875 17.0852 18.2336 17.0031 18.3156C16.9211 18.3977 16.875 18.509 16.875 18.625V21.25C16.875 21.366 16.9211 21.4773 17.0031 21.5594C17.0852 21.6414 17.1965 21.6875 17.3125 21.6875H17.9902L16.4401 35.6394C16.4384 35.6554 16.4375 35.6714 16.4375 35.6875V37.4375C16.4375 37.5535 16.4836 37.6648 16.5656 37.7469C16.6477 37.8289 16.759 37.875 16.875 37.875H17.75V39.625L17.225 38.925L16.525 39.45L17.2626 40.4339C17.4826 40.7255 17.767 40.9621 18.0937 41.1254C18.4204 41.2886 18.7804 41.3741 19.1456 41.375C19.4596 41.3746 19.7693 41.3013 20.0501 41.1609C20.331 41.0206 20.5755 40.8169 20.7644 40.5661C20.9839 40.2747 21.2679 40.0381 21.5941 39.8748C21.9203 39.7115 22.2799 39.626 22.6447 39.625C22.9588 39.6257 23.2683 39.6992 23.5492 39.8396C23.83 39.98 24.0745 40.1836 24.2635 40.4344C24.4831 40.7258 24.7673 40.9624 25.0937 41.1256C25.4201 41.2888 25.7798 41.3742 26.1447 41.375C26.4536 41.3759 26.7596 41.3154 27.045 41.1972C27.3304 41.079 27.5894 40.9054 27.8073 40.6864L28.0697 40.4239C28.582 39.9118 29.2766 39.6241 30.0009 39.6241C30.7252 39.6241 31.4198 39.9118 31.932 40.4239L32.1945 40.6864C32.4121 40.9052 32.6709 41.0787 32.956 41.1969C33.241 41.3151 33.5467 41.3756 33.8552 41.375C34.2202 41.3742 34.5799 41.2888 34.9063 41.1256C35.2327 40.9624 35.5169 40.7258 35.7365 40.4344C35.9255 40.1836 36.17 39.98 36.4508 39.8396C36.7317 39.6992 37.0412 39.6257 37.3552 39.625C37.7202 39.6261 38.0799 39.7116 38.4063 39.8749C38.7326 40.0381 39.0168 40.2747 39.2365 40.5661C39.4253 40.8168 39.6696 41.0204 39.9503 41.1607C40.2311 41.3011 40.5405 41.3744 40.8544 41.375C41.2193 41.3738 41.5791 41.2882 41.9054 41.1249C42.2318 40.9615 42.5159 40.7249 42.7356 40.4335L43.475 39.45L42.775 38.925L42.0378 39.9081C41.9141 40.0694 41.7585 40.2034 41.5806 40.3018L43.5446 33.6247C43.5759 33.518 43.5654 33.4034 43.5152 33.3042C43.4651 33.205 43.3791 33.1286 43.2746 33.0905L42.25 32.7164V30H43.125ZM21.5974 27.0285L21.7982 28.8332L19.9515 30.6794L18.0812 28.7934L18.2776 27.0289L19.9375 25.3686L21.5974 27.0285ZM20.5561 24.75L21.2653 24.0408L21.4429 25.6368L20.5561 24.75ZM21.922 29.9471L22.2619 33.0096L20.5679 31.3011L21.922 29.9471ZM18.4321 25.6368L18.6097 24.0408L19.3189 24.75L18.4321 25.6368ZM19.3329 31.2985L17.6118 33.0188L17.9569 29.9125L19.3329 31.2985ZM17.4569 34.4118L19.9506 31.918L22.419 34.4069L22.5109 35.25H17.3637L17.4569 34.4118ZM23 20.6953V19.0625H29.8022L23 20.6953ZM19.0625 17.3125H20.8125V18.1875H19.0625V17.3125ZM17.75 19.0625H22.125V20.8125H17.75V19.0625ZM21.0041 21.6875L21.1419 22.9269L19.9375 24.1314L18.7331 22.9269L18.8709 21.6875H21.0041ZM17.3125 36.125H30V37H17.3125V36.125ZM27.4503 39.8061L27.1877 40.0686C27.0381 40.2182 26.8581 40.3338 26.6599 40.4078C26.4617 40.4817 26.2499 40.5122 26.0388 40.4972C25.8278 40.4822 25.6225 40.422 25.4367 40.3207C25.251 40.2195 25.0891 40.0795 24.9622 39.9102C24.6915 39.551 24.3413 39.2594 23.939 39.0582C23.5367 38.857 23.0932 38.7519 22.6434 38.7509C22.1427 38.7523 21.6491 38.8696 21.2012 39.0936C20.7534 39.3177 20.3635 39.6424 20.0622 40.0424C19.9551 40.1842 19.8166 40.2993 19.6576 40.3787C19.4986 40.4581 19.3234 40.4996 19.1456 40.5C18.9671 40.4967 18.7906 40.4608 18.625 40.3941V37.875H28.6875V38.9981C28.2236 39.1789 27.8023 39.454 27.4503 39.8061ZM42.6875 29.125H41.8125V28.25H42.6875V29.125ZM40.9375 28.25V29.125H40.0625V28.25H40.9375ZM37 28.25V29.125H35.6875V28.25H37ZM37.875 28.25H39.1875V29.125H37.875V28.25ZM35.9062 26.5H36.5625C36.6785 26.5 36.7898 26.4539 36.8719 26.3719C36.9539 26.2898 37 26.1785 37 26.0625V25.1875H37.875V26.0625C37.875 26.1785 37.9211 26.2898 38.0031 26.3719C38.0852 26.4539 38.1965 26.5 38.3125 26.5H38.9688L39.625 27.375H35.25L35.9062 26.5ZM34.375 28.25H34.8125V29.125H33.9375V28.25H34.375ZM32.1875 29.125V28.25H33.0625V29.125H32.1875ZM40.6186 40.472C40.3469 40.4156 40.1049 40.2627 39.9374 40.0415C39.6359 39.6414 39.2459 39.3167 38.798 39.0926C38.35 38.8685 37.8562 38.7512 37.3552 38.75C36.9054 38.7509 36.462 38.8561 36.0597 39.0573C35.6574 39.2584 35.3071 39.5501 35.0365 39.9094C34.8396 40.1683 34.5628 40.3551 34.249 40.4409L32.2859 33.7708L36.6395 32.1875H38.2355L42.5891 33.7708L40.6186 40.472ZM38.4621 31.3392C38.4142 31.3216 38.3636 31.3126 38.3125 31.3125H36.5625C36.5114 31.3126 36.4608 31.3216 36.4129 31.3392L33.5 32.3984V30H41.375V32.3984L38.4621 31.3392Z" fill="#BCC8D2"/>
<path d="M40.0625 37.875C40.3221 37.875 40.5759 37.798 40.7917 37.6538C41.0075 37.5096 41.1758 37.3046 41.2751 37.0648C41.3745 36.8249 41.4004 36.561 41.3498 36.3064C41.2992 36.0518 41.1742 35.818 40.9906 35.6344C40.807 35.4509 40.5732 35.3259 40.3186 35.2752C40.064 35.2246 39.8001 35.2506 39.5603 35.3499C39.3204 35.4492 39.1154 35.6175 38.9712 35.8333C38.827 36.0492 38.75 36.3029 38.75 36.5625C38.75 36.9106 38.8883 37.2444 39.1344 37.4906C39.3806 37.7367 39.7144 37.875 40.0625 37.875ZM40.0625 36.125C40.1491 36.125 40.2336 36.1507 40.3056 36.1987C40.3775 36.2468 40.4336 36.3151 40.4667 36.3951C40.4998 36.475 40.5085 36.563 40.4916 36.6479C40.4747 36.7327 40.4331 36.8107 40.3719 36.8719C40.3107 36.933 40.2327 36.9747 40.1479 36.9916C40.063 37.0085 39.975 36.9998 39.8951 36.9667C39.8152 36.9336 39.7468 36.8775 39.6988 36.8056C39.6507 36.7336 39.625 36.649 39.625 36.5625C39.625 36.4465 39.6711 36.3352 39.7532 36.2531C39.8352 36.1711 39.9465 36.125 40.0625 36.125ZM34.8125 35.25C34.5529 35.25 34.2992 35.327 34.0833 35.4712C33.8675 35.6154 33.6993 35.8204 33.5999 36.0602C33.5006 36.3001 33.4746 36.564 33.5252 36.8186C33.5759 37.0732 33.7009 37.307 33.8844 37.4906C34.068 37.6741 34.3019 37.7991 34.5565 37.8498C34.8111 37.9004 35.075 37.8744 35.3148 37.7751C35.5546 37.6758 35.7596 37.5075 35.9038 37.2917C36.048 37.0758 36.125 36.8221 36.125 36.5625C36.125 36.2144 35.9867 35.8806 35.7406 35.6344C35.4945 35.3883 35.1606 35.25 34.8125 35.25ZM34.8125 37C34.726 37 34.6414 36.9743 34.5695 36.9263C34.4975 36.8782 34.4414 36.8099 34.4083 36.7299C34.3752 36.65 34.3665 36.562 34.3834 36.4771C34.4003 36.3923 34.442 36.3143 34.5032 36.2531C34.5644 36.192 34.6423 36.1503 34.7272 36.1334C34.812 36.1165 34.9 36.1252 34.9799 36.1583C35.0599 36.1914 35.1282 36.2475 35.1763 36.3194C35.2244 36.3914 35.25 36.476 35.25 36.5625C35.25 36.6785 35.2039 36.7898 35.1219 36.8719C35.0398 36.9539 34.9286 37 34.8125 37ZM42.0378 42.0956C41.8996 42.2789 41.7209 42.4277 41.5156 42.5304C41.3103 42.6331 41.084 42.6868 40.8544 42.6875C40.6762 42.6874 40.5005 42.6459 40.3411 42.5663C40.1817 42.4868 40.0429 42.3713 39.9356 42.229C39.6344 41.8292 39.2447 41.5045 38.797 41.2805C38.3493 41.0564 37.8559 40.939 37.3553 40.9375C36.9055 40.9384 36.462 41.0436 36.0597 41.2448C35.6574 41.4459 35.3072 41.7376 35.0365 42.0969C34.9096 42.2661 34.7477 42.4061 34.562 42.5074C34.3762 42.6086 34.1709 42.6688 33.9599 42.6838C33.7488 42.6988 33.5371 42.6683 33.3388 42.5944C33.1406 42.5205 32.9606 42.4048 32.811 42.2553L32.5485 41.9927C32.2136 41.6579 31.8161 41.3923 31.3786 41.2111C30.9411 41.0299 30.4722 40.9366 29.9987 40.9366C29.5252 40.9366 29.0563 41.0299 28.6188 41.2111C28.1813 41.3923 27.7838 41.6579 27.449 41.9927L27.1865 42.2553C27.0368 42.4048 26.8568 42.5205 26.6586 42.5944C26.4604 42.6683 26.2486 42.6988 26.0375 42.6838C25.8265 42.6688 25.6212 42.6086 25.4354 42.5074C25.2497 42.4061 25.0879 42.2661 24.9609 42.0969C24.6902 41.7376 24.34 41.446 23.9377 41.2448C23.5354 41.0437 23.0919 40.9385 22.6421 40.9375C22.1414 40.9389 21.6478 41.0562 21.1999 41.2803C20.7521 41.5043 20.3622 41.8291 20.0609 42.229C19.954 42.3708 19.8158 42.486 19.657 42.5655C19.4983 42.6451 19.3232 42.6868 19.1456 42.6875C18.9165 42.6866 18.6907 42.6327 18.4858 42.5301C18.2809 42.4275 18.1024 42.2789 17.9644 42.096L17.225 41.1125L16.525 41.6375L17.2626 42.6214C17.4826 42.913 17.7671 43.1496 18.0937 43.3129C18.4204 43.4761 18.7805 43.5616 19.1456 43.5625C19.4597 43.5621 19.7693 43.4888 20.0502 43.3484C20.3311 43.2081 20.5755 43.0044 20.7644 42.7536C20.9839 42.4622 21.2679 42.2256 21.5941 42.0623C21.9204 41.899 22.28 41.8135 22.6448 41.8125C22.9588 41.8132 23.2683 41.8867 23.5492 42.0271C23.8301 42.1675 24.0746 42.3711 24.2635 42.6219C24.4832 42.9133 24.7673 43.1499 25.0937 43.3131C25.4201 43.4763 25.7799 43.5617 26.1448 43.5625C26.4537 43.5634 26.7596 43.5029 27.045 43.3847C27.3304 43.2665 27.5895 43.0929 27.8073 42.8739L28.0698 42.6114C28.582 42.0993 29.2766 41.8116 30.0009 41.8116C30.7252 41.8116 31.4198 42.0993 31.932 42.6114L32.1945 42.8739C32.4121 43.0927 32.6709 43.2662 32.956 43.3844C33.241 43.5026 33.5467 43.5631 33.8553 43.5625C34.2202 43.5617 34.58 43.4763 34.9064 43.3131C35.2327 43.1499 35.5169 42.9133 35.7365 42.6219C35.9255 42.3711 36.17 42.1675 36.4508 42.0271C36.7317 41.8867 37.0413 41.8132 37.3553 41.8125C37.7202 41.8136 38.0799 41.8991 38.4063 42.0624C38.7326 42.2256 39.0168 42.4622 39.2365 42.7536C39.4253 43.0043 39.6696 43.2079 39.9504 43.3482C40.2311 43.4886 40.5405 43.5619 40.8544 43.5625C41.2194 43.5613 41.5791 43.4757 41.9054 43.3124C42.2318 43.149 42.516 42.9124 42.7356 42.621L43.475 41.6375L42.775 41.1125L42.0378 42.0956Z" fill="#BCC8D2"/>
</g>
</g>
<defs>
<clipPath id="clip0_4952_47055">
<rect width="60" height="60" fill="white"/>
</clipPath>
<clipPath id="clip1_4952_47055">
<rect width="28" height="28" fill="white" transform="translate(16 16)"/>
</clipPath>
</defs>
</svg>
