<svg width="14" height="14" viewBox="0 0 14 14" fill="none" xmlns="http://www.w3.org/2000/svg">
<g clip-path="url(#clip0_4075_37728)">
<path d="M13.3076 4.9988C13.3035 5.0034 13.2993 5.00788 13.2949 5.01226L5.62294 12.6843C4.96664 13.3406 4.18824 13.6836 3.36145 13.6836C3.29864 13.6836 3.23559 13.6817 3.17226 13.6777C2.38241 13.6281 1.61613 13.2696 1.01459 12.6681C0.413055 12.0666 0.054524 11.3003 0.00497709 10.5104C-0.0512963 9.61334 0.292223 8.76593 0.998376 8.05975L8.64522 0.412984C8.77338 0.284851 8.98114 0.284878 9.10927 0.412984C9.2374 0.541144 9.2374 0.748902 9.10927 0.877035L1.46243 8.5238C0.203711 9.78254 0.588493 11.3139 1.47864 12.2041C2.36882 13.0942 3.90018 13.479 5.15889 12.2202L12.8242 4.55496C13.6661 3.60567 13.3813 2.51873 12.7239 1.86141C12.0666 1.20407 10.9796 0.919226 10.0303 1.76117L5.13278 6.65868C4.48591 7.30555 4.6713 8.07005 5.14197 8.54072C5.61266 9.01142 6.37716 9.19675 7.02404 8.54988L11.2625 4.31138C11.3907 4.18322 11.5984 4.18322 11.7266 4.31138C11.8547 4.43954 11.8547 4.64727 11.7266 4.77543L7.48809 9.01393C6.56865 9.93337 5.37846 9.70527 4.67794 9.00477C3.97742 8.30428 3.74935 7.11406 4.66873 6.19466L9.57305 1.29039C9.57739 1.28604 9.58188 1.2818 9.58647 1.2777C10.1538 0.770968 10.8211 0.53491 11.5161 0.595285C12.1302 0.64855 12.724 0.93339 13.1879 1.39736C13.6519 1.8613 13.9367 2.45504 13.99 3.06918C14.0503 3.76423 13.8144 4.4315 13.3076 4.9988Z" fill="#002542"/>
</g>
<defs>
<clipPath id="clip0_4075_37728">
<rect width="14" height="14" fill="white"/>
</clipPath>
</defs>
</svg>
