<svg width="92" height="35" viewBox="0 0 92 35" fill="none" xmlns="http://www.w3.org/2000/svg">
<mask id="mask0_5519_28753" style="mask-type:luminance" maskUnits="userSpaceOnUse" x="1" y="0" width="90" height="35">
<path d="M90.2744 0H1.72852V35H90.2744V0Z" fill="white"/>
</mask>
<g mask="url(#mask0_5519_28753)">
<path fill-rule="evenodd" clip-rule="evenodd" d="M16.1104 33.4591C15.492 33.7213 14.8259 33.8559 14.153 33.8547C13.4792 33.858 12.8118 33.7244 12.1924 33.4622C11.6042 33.2121 11.0791 32.8368 10.6544 32.3633L9.77734 33.1137C10.3151 33.7164 10.9814 34.1936 11.7284 34.5109C12.494 34.8372 13.3192 35.005 14.153 35.0039C14.9856 35.0067 15.8099 34.84 16.5744 34.5141C17.3214 34.1967 17.9878 33.7195 18.5255 33.1168L17.6484 32.3664C17.2244 32.8407 16.6991 33.216 16.1104 33.4654" fill="#022D26"/>
<path fill-rule="evenodd" clip-rule="evenodd" d="M23.9815 25.7989C23.3616 26.0599 22.6948 26.1945 22.0209 26.1945C21.3471 26.1945 20.6802 26.0599 20.0603 25.7989C19.4726 25.5509 18.9483 25.1766 18.5255 24.7031L18.0901 24.207L17.6516 24.7031C17.2285 25.1776 16.7029 25.5521 16.1136 25.7989C15.4943 26.06 14.8279 26.1946 14.1546 26.1946C13.4813 26.1946 12.8149 26.06 12.1956 25.7989C11.605 25.5511 11.0776 25.1768 10.6512 24.7031L10.2127 24.207L9.77735 24.7031C9.35473 25.1768 8.83036 25.5512 8.24253 25.7989C7.6224 26.0591 6.9556 26.1931 6.28191 26.1931C5.60821 26.1931 4.94142 26.0591 4.32128 25.7989C3.73247 25.5513 3.20703 25.1769 2.78329 24.7031L1.90625 25.4567C2.44379 26.0588 3.11029 26.535 3.85734 26.8508C4.62219 27.176 5.44609 27.3437 6.27873 27.3437C7.11137 27.3437 7.93527 27.176 8.70012 26.8508C9.25349 26.6197 9.76536 26.3016 10.2159 25.9088C10.6649 26.3019 11.1758 26.6201 11.7284 26.8508C12.4933 27.176 13.3172 27.3437 14.1498 27.3437C14.9825 27.3437 15.8064 27.176 16.5712 26.8508C17.1239 26.6202 17.6348 26.302 18.0838 25.9088C18.5329 26.3019 19.0437 26.6201 19.5964 26.8508C20.3617 27.176 21.1862 27.3438 22.0193 27.3438C22.8525 27.3438 23.6769 27.176 24.4423 26.8508C25.1894 26.535 25.8559 26.0588 26.3934 25.4567L25.5164 24.7031C25.0926 25.1769 24.5672 25.5513 23.9784 25.7989" fill="#022D26"/>
<path fill-rule="evenodd" clip-rule="evenodd" d="M20.048 29.6302C19.428 29.8912 18.7612 30.0257 18.0873 30.0257C17.4135 30.0257 16.7466 29.8912 16.1267 29.6302C15.5381 29.3822 15.0127 29.0079 14.5887 28.5344L14.1502 28.0352L13.7117 28.5344C13.2895 29.0085 12.765 29.383 12.1769 29.6302C11.5575 29.8913 10.8912 30.0259 10.2178 30.0259C9.54448 30.0259 8.87811 29.8913 8.25878 29.6302C7.66971 29.383 7.14417 29.0086 6.72079 28.5344L5.84375 29.2817C6.38048 29.8862 7.04707 30.3646 7.79484 30.6821C8.56023 31.0073 9.38465 31.175 10.2178 31.175C11.051 31.175 11.8754 31.0073 12.6408 30.6821C13.192 30.4505 13.7017 30.1324 14.1502 29.7401C14.6003 30.1318 15.1109 30.4498 15.6628 30.6821C16.4281 31.0073 17.2526 31.175 18.0857 31.175C18.9189 31.175 19.7433 31.0073 20.5087 30.6821C21.2576 30.3665 21.9245 29.8878 22.4598 29.2817L21.5828 28.5344C21.1606 29.0085 20.6361 29.383 20.048 29.6302Z" fill="#022D26"/>
<path fill-rule="evenodd" clip-rule="evenodd" d="M25.9424 17.9119L24.9192 17.7863V7.30859H3.38726V17.7863L2.36405 17.9119L1.72852 17.9841L1.86516 18.6121L2.61826 21.978C3.02623 22.3674 3.49787 22.6859 4.01326 22.92L3.13622 18.9732L14.1532 17.6544V23.3847C14.8935 23.3953 15.6276 23.2498 16.3065 22.958C16.9854 22.6662 17.5935 22.2347 18.0904 21.6923C18.5857 22.2348 19.1926 22.6665 19.8706 22.9584C20.5485 23.2503 21.2817 23.3956 22.0211 23.3847C22.8047 23.3851 23.5793 23.2203 24.2932 22.9011H24.3218C24.5635 22.7916 24.7962 22.6635 25.0177 22.5181C25.2568 22.3592 25.4803 22.1784 25.685 21.978L26.4381 18.6027L26.5747 17.9747L25.9424 17.9119ZM10.1684 16.9762L4.54711 17.6481V15.4314H10.1684V16.9762ZM10.1684 10.797H4.54711V8.45778H10.1684V10.797ZM16.9591 14.2822H11.3378V11.9462H16.9655L16.9591 14.2822ZM16.9591 10.797H11.3378V8.45778H16.9655L16.9591 10.797ZM23.7561 17.6481L18.1285 16.9762V15.4314H23.7561V17.6481ZM23.7561 14.2822H18.1285V11.9462H23.7561V14.2822Z" fill="#022D26"/>
<path fill-rule="evenodd" clip-rule="evenodd" d="M8.192 5.03848H8.89427V0.0429688H8.192L7.49609 0.557905V1.31775L8.192 0.799674V5.03848Z" fill="#022D26"/>
<path fill-rule="evenodd" clip-rule="evenodd" d="M10.168 3.58C10.1605 3.78119 10.1966 3.98164 10.2738 4.16792C10.3511 4.3542 10.4678 4.52201 10.616 4.66011C10.7538 4.79546 10.9175 4.90236 11.0975 4.97459C11.2776 5.04683 11.4704 5.08295 11.6646 5.08086C12.0632 5.0844 12.447 4.93203 12.7323 4.65697C12.8764 4.51704 12.9895 4.34906 13.0645 4.16367C13.1394 3.97827 13.1746 3.77952 13.1677 3.58C13.1721 3.35763 13.1197 3.13774 13.0153 2.9407C12.9108 2.74366 12.7578 2.57585 12.5703 2.45279C12.7176 2.32531 12.8413 2.17335 12.9357 2.00379C13.0309 1.83289 13.0781 1.63991 13.0724 1.4449C13.0792 1.06235 12.9356 0.692083 12.672 0.411887C12.5416 0.276983 12.384 0.170655 12.2094 0.0997969C12.0347 0.0289385 11.847 -0.00486927 11.6583 0.000565169C11.4735 -0.00348831 11.29 0.0310564 11.1197 0.101938C10.9494 0.17282 10.7962 0.278441 10.67 0.411887C10.5352 0.548307 10.4292 0.709926 10.3582 0.887296C10.2873 1.06467 10.2529 1.25423 10.2569 1.4449C10.2521 1.64241 10.3039 1.83723 10.4063 2.00693C10.4927 2.17816 10.6126 2.33077 10.759 2.45593C10.5714 2.57772 10.4186 2.74501 10.3151 2.94181C10.2117 3.1386 10.161 3.35834 10.168 3.58ZM11.1816 0.889145C11.3181 0.775363 11.4909 0.712948 11.6694 0.712948C11.848 0.712948 12.0207 0.775363 12.1572 0.889145C12.2301 0.958552 12.287 1.04279 12.3237 1.13604C12.3605 1.22929 12.3763 1.32932 12.3701 1.4292C12.3756 1.5276 12.3593 1.626 12.3226 1.71761C12.2858 1.80922 12.2294 1.89186 12.1572 1.95984C12.0245 2.08121 11.8503 2.14863 11.6694 2.14863C11.4886 2.14863 11.3144 2.08121 11.1816 1.95984C11.1079 1.8927 11.0501 1.81036 11.0122 1.71865C10.9743 1.62695 10.9573 1.52813 10.9624 1.4292C10.9563 1.32877 10.9728 1.22826 11.0107 1.13488C11.0486 1.04151 11.107 0.957584 11.1816 0.889145ZM11.1213 3.00227C11.2707 2.85898 11.4707 2.77884 11.6789 2.77884C11.8872 2.77884 12.0872 2.85898 12.2366 3.00227C12.314 3.07618 12.3751 3.16508 12.4162 3.26342C12.4572 3.36175 12.4772 3.46739 12.475 3.57372C12.477 3.67864 12.4569 3.78282 12.4159 3.87961C12.3748 3.97639 12.3138 4.06364 12.2366 4.13576C12.1641 4.20934 12.0774 4.26782 11.9816 4.30775C11.8858 4.34768 11.7829 4.36826 11.6789 4.36826C11.575 4.36826 11.4721 4.34768 11.3763 4.30775C11.2805 4.26782 11.1938 4.20934 11.1213 4.13576C11.0431 4.06407 10.981 3.97705 10.9389 3.88027C10.8967 3.78348 10.8755 3.67907 10.8766 3.57372C10.8756 3.46699 10.8967 3.36118 10.9388 3.26287C10.9809 3.16457 11.043 3.07586 11.1213 3.00227Z" fill="#022D26"/>
<path fill-rule="evenodd" clip-rule="evenodd" d="M15.2683 3.28449C15.5928 3.28597 15.9152 3.23288 16.2216 3.12749V3.60161C16.2216 4.10713 15.9769 4.36146 15.5321 4.36774C15.3943 4.3753 15.2577 4.33834 15.1431 4.26243C15.0284 4.18653 14.9419 4.0758 14.8965 3.947H14.1498C14.2056 4.27525 14.3821 4.57156 14.6455 4.77906C14.8914 4.97589 15.1966 5.08635 15.513 5.09305C15.875 5.09426 16.2235 4.95699 16.4854 4.70998C16.6262 4.57166 16.7362 4.40582 16.8084 4.22308C16.8807 4.04034 16.9135 3.84471 16.9048 3.64871V1.45081C16.9137 1.25431 16.881 1.05814 16.8088 0.874855C16.7366 0.691566 16.6264 0.525197 16.4854 0.386398C16.357 0.261965 16.205 0.163797 16.0381 0.0975235C15.8713 0.0312502 15.6928 -0.0018247 15.513 0.000195506C15.1581 -0.00582488 14.8153 0.127409 14.5597 0.370699C14.4128 0.505874 14.2977 0.671243 14.2224 0.855151C14.1472 1.03906 14.1137 1.23703 14.1244 1.43511V1.88411C14.1041 2.07199 14.1217 2.26197 14.1763 2.44306C14.2308 2.62415 14.3212 2.79275 14.4421 2.9391C14.5462 3.04847 14.6724 3.13492 14.8126 3.19281C14.9528 3.2507 15.1037 3.27873 15.2556 3.27507M14.8107 1.46965C14.8107 0.967272 15.0522 0.712943 15.5003 0.703524C15.9483 0.694104 16.2057 0.976691 16.2057 1.47907V1.88411C16.2057 2.38963 15.9611 2.6471 15.513 2.65024C15.0649 2.65338 14.833 2.39277 14.8234 1.88411L14.8107 1.46965Z" fill="#022D26"/>
<path fill-rule="evenodd" clip-rule="evenodd" d="M18.7225 0.755717H20.019L18.3666 5.03848H19.1483L20.8071 0.755717V0.0429688H18.0234V1.48102H18.7225V0.755717Z" fill="#022D26"/>
<path fill-rule="evenodd" clip-rule="evenodd" d="M41.0843 13.8158C41.6763 13.5819 42.18 13.1719 42.5256 12.6425C42.8712 12.1131 43.0416 11.4906 43.0132 10.8612C43.0132 8.64449 41.3322 7.33203 38.736 7.33203H32.1328V21.6937H39.2762C40.792 21.6937 41.9772 21.3264 42.8479 20.5885C43.2812 20.2319 43.6257 19.7818 43.8549 19.2727C44.0841 18.7637 44.1919 18.2095 44.1698 17.6527C44.1698 15.5396 42.8416 14.1455 41.078 13.819M34.4048 9.42318H38.3293C39.845 9.42318 40.738 10.0511 40.738 11.2694C40.738 12.4877 39.845 13.1345 38.3293 13.1345H34.4176L34.4048 9.42318ZM38.8536 19.6371H34.4048V15.1095H38.8536C40.6617 15.1095 41.7135 15.9101 41.7135 17.3262C41.7135 18.7423 40.6331 19.6214 38.8536 19.6214" fill="#022D26"/>
<path fill-rule="evenodd" clip-rule="evenodd" d="M53.6421 13.7978L48.9296 7.33594H46.6035V21.6976H48.8883V10.7804L52.9398 16.1966H54.2681L58.3164 10.7804V21.6976H60.598V7.33594H58.3164L53.6421 13.7978Z" fill="#022D26"/>
<path fill-rule="evenodd" clip-rule="evenodd" d="M63.585 9.4051H68.3801V21.6945H70.668V9.4051H75.4822V7.33594H63.585V9.4051Z" fill="#022D26"/>
<path fill-rule="evenodd" clip-rule="evenodd" d="M78.46 7.33594V21.6945H80.7447V9.4051H87.9898V21.6945H90.2745V7.33594H78.46Z" fill="#022D26"/>
</g>
</svg>
