<svg width="92" height="35" viewBox="0 0 92 35" fill="none" xmlns="http://www.w3.org/2000/svg">
<mask id="mask0_4401_18875" style="mask-type:luminance" maskUnits="userSpaceOnUse" x="1" y="0" width="90" height="35">
<path d="M90.2744 0H1.72852V35H90.2744V0Z" fill="white"/>
</mask>
<g mask="url(#mask0_4401_18875)">
<path fill-rule="evenodd" clip-rule="evenodd" d="M16.1104 33.4581C15.492 33.7203 14.8259 33.8549 14.153 33.8537C13.4792 33.857 12.8118 33.7234 12.1924 33.4613C11.6042 33.2111 11.0791 32.8359 10.6544 32.3623L9.77734 33.1127C10.3151 33.7154 10.9814 34.1926 11.7284 34.51C12.494 34.8363 13.3192 35.004 14.153 35.0029C14.9856 35.0058 15.8099 34.839 16.5744 34.5131C17.3214 34.1958 17.9878 33.7185 18.5255 33.1159L17.6484 32.3654C17.2244 32.8397 16.6991 33.215 16.1104 33.4644" fill="white"/>
<path fill-rule="evenodd" clip-rule="evenodd" d="M23.9815 25.7999C23.3616 26.0609 22.6948 26.1954 22.0209 26.1954C21.3471 26.1954 20.6802 26.0609 20.0603 25.7999C19.4726 25.5519 18.9483 25.1775 18.5255 24.7041L18.0901 24.208L17.6516 24.7041C17.2285 25.1786 16.7029 25.553 16.1136 25.7999C15.4943 26.061 14.8279 26.1956 14.1546 26.1956C13.4813 26.1956 12.8149 26.061 12.1956 25.7999C11.605 25.5521 11.0776 25.1778 10.6512 24.7041L10.2127 24.208L9.77735 24.7041C9.35473 25.1778 8.83036 25.5522 8.24253 25.7999C7.6224 26.06 6.9556 26.1941 6.28191 26.1941C5.60821 26.1941 4.94142 26.06 4.32128 25.7999C3.73247 25.5523 3.20703 25.1779 2.78329 24.7041L1.90625 25.4577C2.44379 26.0597 3.11029 26.536 3.85734 26.8518C4.62219 27.1769 5.44609 27.3446 6.27873 27.3446C7.11137 27.3446 7.93527 27.1769 8.70012 26.8518C9.25349 26.6206 9.76536 26.3026 10.2159 25.9098C10.6649 26.3029 11.1758 26.621 11.7284 26.8518C12.4933 27.1769 13.3172 27.3446 14.1498 27.3446C14.9825 27.3446 15.8064 27.1769 16.5712 26.8518C17.1239 26.6212 17.6348 26.303 18.0838 25.9098C18.5329 26.3029 19.0437 26.621 19.5964 26.8518C20.3617 27.177 21.1862 27.3448 22.0193 27.3448C22.8525 27.3448 23.6769 27.177 24.4423 26.8518C25.1894 26.536 25.8559 26.0597 26.3934 25.4577L25.5164 24.7041C25.0926 25.1779 24.5672 25.5523 23.9784 25.7999" fill="white"/>
<path fill-rule="evenodd" clip-rule="evenodd" d="M20.048 29.6273C19.428 29.8883 18.7612 30.0228 18.0873 30.0228C17.4135 30.0228 16.7466 29.8883 16.1267 29.6273C15.5381 29.3793 15.0127 29.005 14.5887 28.5315L14.1502 28.0322L13.7117 28.5315C13.2895 29.0056 12.765 29.3801 12.1769 29.6273C11.5575 29.8884 10.8912 30.023 10.2178 30.023C9.54448 30.023 8.87811 29.8884 8.25878 29.6273C7.66971 29.3801 7.14417 29.0057 6.72079 28.5315L5.84375 29.2788C6.38048 29.8833 7.04707 30.3617 7.79484 30.6791C8.56023 31.0044 9.38465 31.1721 10.2178 31.1721C11.051 31.1721 11.8754 31.0044 12.6408 30.6791C13.192 30.4476 13.7017 30.1295 14.1502 29.7372C14.6003 30.1289 15.1109 30.4469 15.6628 30.6791C16.4281 31.0044 17.2526 31.1721 18.0857 31.1721C18.9189 31.1721 19.7433 31.0044 20.5087 30.6791C21.2576 30.3636 21.9245 29.8848 22.4598 29.2788L21.5828 28.5315C21.1606 29.0056 20.6361 29.3801 20.048 29.6273Z" fill="white"/>
<path fill-rule="evenodd" clip-rule="evenodd" d="M25.9424 17.9129L24.9192 17.7873V7.30957H3.38726V17.7873L2.36405 17.9129L1.72852 17.9851L1.86516 18.6131L2.61826 21.979C3.02623 22.3684 3.49787 22.6869 4.01326 22.9209L3.13622 18.9741L14.1532 17.6554V23.3856C14.8935 23.3963 15.6276 23.2508 16.3065 22.959C16.9854 22.6672 17.5935 22.2357 18.0904 21.6933C18.5857 22.2358 19.1926 22.6675 19.8706 22.9594C20.5485 23.2513 21.2817 23.3966 22.0211 23.3856C22.8047 23.3861 23.5793 23.2213 24.2932 22.9021H24.3218C24.5635 22.7926 24.7962 22.6645 25.0177 22.519C25.2568 22.3602 25.4803 22.1794 25.685 21.979L26.4381 18.6036L26.5747 17.9757L25.9424 17.9129ZM10.1684 16.9772L4.54711 17.6491V15.4324H10.1684V16.9772ZM10.1684 10.798H4.54711V8.45876H10.1684V10.798ZM16.9591 14.2832H11.3378V11.9471H16.9655L16.9591 14.2832ZM16.9591 10.798H11.3378V8.45876H16.9655L16.9591 10.798ZM23.7561 17.6491L18.1285 16.9772V15.4324H23.7561V17.6491ZM23.7561 14.2832H18.1285V11.9471H23.7561V14.2832Z" fill="white"/>
<path fill-rule="evenodd" clip-rule="evenodd" d="M8.192 5.03555H8.89427V0.0400391H8.192L7.49609 0.554976V1.31482L8.192 0.796745V5.03555Z" fill="white"/>
<path fill-rule="evenodd" clip-rule="evenodd" d="M10.1689 3.57903C10.1614 3.78021 10.1975 3.98066 10.2748 4.16694C10.3521 4.35322 10.4687 4.52103 10.617 4.65914C10.7548 4.79448 10.9185 4.90138 11.0985 4.97362C11.2786 5.04585 11.4713 5.08197 11.6656 5.07988C12.0642 5.08343 12.448 4.93105 12.7333 4.656C12.8774 4.51607 12.9905 4.34808 13.0655 4.16269C13.1404 3.9773 13.1755 3.77854 13.1687 3.57903C13.1731 3.35665 13.1207 3.13676 13.0163 2.93972C12.9118 2.74269 12.7588 2.57487 12.5713 2.45182C12.7186 2.32433 12.8423 2.17238 12.9367 2.00282C13.0319 1.83191 13.0791 1.63893 13.0733 1.44392C13.0801 1.06137 12.9366 0.691106 12.6729 0.41091C12.5426 0.276006 12.385 0.169679 12.2103 0.0988204C12.0357 0.0279619 11.848 -0.00584583 11.6593 -0.000411394C11.4745 -0.00446487 11.291 0.0300799 11.1207 0.100962C10.9504 0.171843 10.7971 0.277464 10.671 0.41091C10.5361 0.547331 10.4301 0.70895 10.3592 0.88632C10.2883 1.06369 10.2538 1.25325 10.2579 1.44392C10.2531 1.64143 10.3049 1.83625 10.4073 2.00596C10.4937 2.17719 10.6135 2.3298 10.76 2.45496C10.5724 2.57675 10.4196 2.74403 10.3161 2.94083C10.2126 3.13763 10.162 3.35736 10.1689 3.57903ZM11.1826 0.888169C11.3191 0.774387 11.4918 0.711972 11.6704 0.711972C11.8489 0.711972 12.0217 0.774387 12.1582 0.888169C12.2311 0.957576 12.2879 1.04182 12.3247 1.13507C12.3615 1.22831 12.3773 1.32834 12.3711 1.42822C12.3765 1.52662 12.3603 1.62502 12.3236 1.71663C12.2868 1.80825 12.2304 1.89089 12.1582 1.95886C12.0254 2.08023 11.8512 2.14765 11.6704 2.14765C11.4895 2.14765 11.3154 2.08023 11.1826 1.95886C11.1089 1.89172 11.0511 1.80938 11.0132 1.71768C10.9753 1.62597 10.9583 1.52715 10.9634 1.42822C10.9573 1.32779 10.9738 1.22728 11.0117 1.13391C11.0496 1.04053 11.108 0.956608 11.1826 0.888169ZM11.1222 3.00129C11.2717 2.85801 11.4717 2.77787 11.6799 2.77787C11.8881 2.77787 12.0882 2.85801 12.2376 3.00129C12.315 3.0752 12.3761 3.16411 12.4171 3.26244C12.4581 3.36077 12.4782 3.46641 12.4759 3.57275C12.478 3.67766 12.4579 3.78185 12.4168 3.87863C12.3758 3.97541 12.3147 4.06266 12.2376 4.13478C12.1651 4.20836 12.0783 4.26684 11.9826 4.30678C11.8868 4.34671 11.7839 4.36728 11.6799 4.36728C11.576 4.36728 11.4731 4.34671 11.3773 4.30678C11.2815 4.26684 11.1948 4.20836 11.1222 4.13478C11.0441 4.06309 10.982 3.97607 10.9398 3.87929C10.8977 3.78251 10.8765 3.6781 10.8776 3.57275C10.8765 3.46601 10.8977 3.3602 10.9398 3.2619C10.9819 3.16359 11.044 3.07489 11.1222 3.00129Z" fill="white"/>
<path fill-rule="evenodd" clip-rule="evenodd" d="M15.2693 3.28351C15.5938 3.285 15.9161 3.23191 16.2226 3.12652V3.60064C16.2226 4.10615 15.9779 4.36048 15.533 4.36676C15.3952 4.37433 15.2587 4.33736 15.144 4.26146C15.0294 4.18555 14.9428 4.07483 14.8975 3.94602H14.1508C14.2065 4.27427 14.3831 4.57059 14.6465 4.77808C14.8924 4.97492 15.1976 5.08537 15.514 5.09207C15.876 5.09328 16.2245 4.95601 16.4863 4.70901C16.6271 4.57068 16.7372 4.40485 16.8094 4.2221C16.8816 4.03936 16.9145 3.84373 16.9058 3.64773V1.44983C16.9147 1.25334 16.882 1.05717 16.8098 0.873878C16.7376 0.690589 16.6274 0.524221 16.4863 0.385422C16.358 0.260988 16.206 0.16282 16.0391 0.0965469C15.8723 0.0302736 15.6938 -0.00280126 15.514 -0.000781057C15.1591 -0.00680145 14.8163 0.126432 14.5607 0.369722C14.4138 0.504898 14.2986 0.670267 14.2234 0.854175C14.1482 1.03808 14.1147 1.23605 14.1253 1.43413V1.88313C14.1051 2.07101 14.1227 2.26099 14.1773 2.44208C14.2318 2.62317 14.3222 2.79178 14.4431 2.93813C14.5472 3.04749 14.6734 3.13394 14.8136 3.19183C14.9538 3.24972 15.1047 3.27775 15.2566 3.27409M14.8117 1.46867C14.8117 0.966295 15.0532 0.711967 15.5013 0.702547C15.9493 0.693128 16.2067 0.975715 16.2067 1.47809V1.88313C16.2067 2.38865 15.962 2.64612 15.514 2.64926C15.0659 2.6524 14.834 2.39179 14.8244 1.88313L14.8117 1.46867Z" fill="white"/>
<path fill-rule="evenodd" clip-rule="evenodd" d="M18.7225 0.752787H20.019L18.3666 5.03555H19.1483L20.8071 0.752787V0.0400391H18.0234V1.47809H18.7225V0.752787Z" fill="white"/>
<path fill-rule="evenodd" clip-rule="evenodd" d="M41.0843 13.8149C41.6763 13.581 42.18 13.1709 42.5256 12.6415C42.8712 12.1121 43.0416 11.4896 43.0132 10.8603C43.0132 8.64352 41.3322 7.33105 38.736 7.33105H32.1328V21.6928H39.2762C40.792 21.6928 41.9772 21.3254 42.8479 20.5875C43.2812 20.231 43.6257 19.7808 43.8549 19.2718C44.0841 18.7627 44.1919 18.2085 44.1698 17.6518C44.1698 15.5386 42.8416 14.1445 41.078 13.818M34.4048 9.4222H38.3293C39.845 9.4222 40.738 10.0502 40.738 11.2684C40.738 12.4867 39.845 13.1335 38.3293 13.1335H34.4176L34.4048 9.4222ZM38.8536 19.6362H34.4048V15.1085H38.8536C40.6617 15.1085 41.7135 15.9091 41.7135 17.3252C41.7135 18.7413 40.6331 19.6205 38.8536 19.6205" fill="white"/>
<path fill-rule="evenodd" clip-rule="evenodd" d="M53.6421 13.7958L48.9296 7.33398H46.6035V21.6957H48.8883V10.7784L52.9398 16.1947H54.2681L58.3164 10.7784V21.6957H60.598V7.33398H58.3164L53.6421 13.7958Z" fill="white"/>
<path fill-rule="evenodd" clip-rule="evenodd" d="M63.5859 9.40315H68.381V21.6926H70.669V9.40315H75.4831V7.33398H63.5859V9.40315Z" fill="white"/>
<path fill-rule="evenodd" clip-rule="evenodd" d="M78.459 7.33398V21.6926H80.7437V9.40315H87.9888V21.6926H90.2736V7.33398H78.459Z" fill="white"/>
</g>
</svg>
