<svg width="92" height="35" viewBox="0 0 92 35" fill="none" xmlns="http://www.w3.org/2000/svg">
<path fill-rule="evenodd" clip-rule="evenodd" d="M4.0957 10.7725H10.4488V7.46875H4.0957V10.7725Z" fill="#02A7EA"/>
<path fill-rule="evenodd" clip-rule="evenodd" d="M16.8047 10.7725H23.1597V7.46875H16.8047V10.7725Z" fill="#F14624"/>
<path fill-rule="evenodd" clip-rule="evenodd" d="M10.4492 10.7725H16.8043V7.46875H10.4492V10.7725Z" fill="#02A7EA"/>
<path fill-rule="evenodd" clip-rule="evenodd" d="M4.0957 14.075H10.4488V10.7732H4.0957V14.075Z" fill="#F14624"/>
<path fill-rule="evenodd" clip-rule="evenodd" d="M16.8047 14.075H23.1597V10.7732H16.8047V14.075Z" fill="#02A7EA"/>
<path fill-rule="evenodd" clip-rule="evenodd" d="M10.4492 14.075H16.8043V10.7732H10.4492V14.075Z" fill="#02A7EA"/>
<path fill-rule="evenodd" clip-rule="evenodd" d="M4.0957 17.378H10.4488V14.0742H4.0957V17.378Z" fill="#02A7EA"/>
<path fill-rule="evenodd" clip-rule="evenodd" d="M16.8047 17.378H23.1597V14.0742H16.8047V17.378Z" fill="#02A7EA"/>
<path fill-rule="evenodd" clip-rule="evenodd" d="M10.4492 17.378H16.8043V14.0742H10.4492V17.378Z" fill="#F9A72B"/>
<path fill-rule="evenodd" clip-rule="evenodd" d="M13.627 22.1488V16.3574L24.5952 17.6864L23.7927 21.3209C23.0157 21.8396 22.0469 22.1488 20.9919 22.1488C19.4868 22.1488 18.154 21.5186 17.3104 20.5498C16.4649 21.5186 15.132 22.1488 13.627 22.1488Z" fill="#02A7EA"/>
<path fill-rule="evenodd" clip-rule="evenodd" d="M13.6264 22.1488V16.3574L2.65625 17.6864L3.45871 21.3209C4.23572 21.8396 5.20649 22.1488 6.26143 22.1488C7.76456 22.1488 9.09938 21.5186 9.94294 20.5498C10.7885 21.5186 12.1213 22.1488 13.6264 22.1488Z" fill="#003E6F"/>
<path d="M17.3484 13.5294H22.6153V11.3158H17.3484V13.5294ZM9.90517 11.3158H4.64027V13.5294H9.90517V11.3158ZM10.9934 13.5294H16.2602V11.3158H10.9934V13.5294ZM10.9934 10.2276H16.2602V8.01204H10.9934V10.2276ZM9.90517 8.01204H4.64027V10.2276H9.90517V8.01204ZM17.3484 16.0797L22.6153 16.7177V14.6176H17.3484V16.0797ZM10.9934 15.9466L13.5632 15.6354L13.6278 15.6275L13.6904 15.6354L16.2602 15.9466V14.6176H10.9934V15.9466ZM4.64027 16.7177L9.90517 16.0797V14.6176H4.64027V16.7177ZM2.83377 20.8181L2.12918 17.6219L2 17.0367L2.59499 16.9643L3.55011 16.8488V6.92383H23.7035V16.8488L24.6606 16.9643L25.2536 17.0367L25.1244 17.6219L24.4198 20.8181C24.0499 21.1743 23.6095 21.4737 23.1163 21.6968L23.9384 17.9723L13.6278 16.7236L3.3172 17.9723L4.13727 21.6968C3.64406 21.4737 3.20368 21.1743 2.83377 20.8181ZM17.3484 10.2276H22.6153V8.01204H17.3484" fill="#003E6F"/>
<path d="M10.3552 30.6504C10.733 31.0829 11.2242 31.4411 11.7938 31.6897C12.3418 31.9284 12.9642 32.0635 13.6277 32.0635V32.0655C14.2853 32.0655 14.9097 31.9284 15.4616 31.6897C16.0311 31.4411 16.5224 31.0829 16.8982 30.6504L17.7202 31.3589C17.2368 31.9147 16.6124 32.3727 15.8941 32.6839C15.2111 32.9814 14.4419 33.1497 13.6277 33.1497V33.1517C12.8154 33.1517 12.0463 32.9834 11.3593 32.6839C10.6429 32.3727 10.0186 31.9147 9.5332 31.3589" fill="#003E6F"/>
<path d="M2.98999 23.3975C3.36969 23.8339 3.86095 24.1921 4.42854 24.4387C4.97656 24.6775 5.59895 24.8106 6.26245 24.8106C6.92594 24.8106 7.54833 24.6775 8.09635 24.4387C8.66394 24.1921 9.15716 23.8339 9.5349 23.3975L9.94396 22.9277L10.353 23.3975C10.7327 23.832 11.2259 24.1921 11.7974 24.4387C12.3435 24.6775 12.9659 24.8106 13.6294 24.8106C14.2929 24.8106 14.9153 24.6775 15.4633 24.4387H15.4652C16.0328 24.1921 16.526 23.8339 16.9057 23.3975L17.3148 22.9297L17.7239 23.3994C18.0996 23.8339 18.5909 24.1921 19.1605 24.4387C19.7085 24.6775 20.3309 24.8106 20.9944 24.8106C21.6579 24.8106 22.2802 24.6775 22.8283 24.4387C23.3959 24.1921 23.8871 23.8339 24.2668 23.3975L25.0888 24.1118C24.6054 24.6657 23.9811 25.1198 23.2628 25.433C22.5758 25.7305 21.8046 25.8988 20.9944 25.8988C20.1821 25.8988 19.4129 25.7305 18.726 25.433C18.1995 25.204 17.7199 24.8947 17.3128 24.5268C16.9057 24.8947 16.4262 25.202 15.8958 25.433C15.2108 25.7305 14.4416 25.8988 13.6294 25.8988C12.8171 25.8988 12.048 25.7305 11.3629 25.433C10.8345 25.204 10.3569 24.8947 9.94787 24.5287C9.53881 24.8947 9.06125 25.202 8.53085 25.433C7.84387 25.7305 7.07469 25.8988 6.26245 25.8988C5.45412 25.8988 4.68298 25.7305 3.99795 25.433H3.996C3.27574 25.1198 2.6514 24.6657 2.16992 24.1118" fill="#003E6F"/>
<path d="M6.67163 27.0244C7.04937 27.4589 7.54063 27.8171 8.11018 28.0637C8.6582 28.3025 9.28255 28.4375 9.94409 28.4375C10.6076 28.4375 11.23 28.3025 11.778 28.0637C12.3475 27.8171 12.8388 27.4589 13.2165 27.0244L13.6276 26.5527L14.0366 27.0244C14.4144 27.4589 14.9056 27.8171 15.4752 28.0637C16.0251 28.3025 16.6475 28.4375 17.311 28.4375C17.9726 28.4375 18.5949 28.3025 19.143 28.0637C19.7125 27.8171 20.2057 27.4589 20.5815 27.0244L21.4035 27.7349C20.9201 28.2907 20.2958 28.7468 19.5775 29.058C18.8905 29.3574 18.1213 29.5257 17.311 29.5257C16.4988 29.5257 15.7276 29.3574 15.0407 29.058C14.5122 28.829 14.0347 28.5197 13.6276 28.1518C13.2185 28.5197 12.7409 28.829 12.2105 29.058C11.5255 29.3574 10.7544 29.5257 9.94409 29.5257C9.1338 29.5257 8.36266 29.3574 7.67764 29.058C6.95934 28.7468 6.33499 28.2907 5.85156 27.7349" fill="#003E6F"/>
<path fill-rule="evenodd" clip-rule="evenodd" d="M8.04823 0.757354L7.39648 1.25057V0.528361L8.04823 0.0410156H8.7039V4.7755H8.04823" fill="#003E6F"/>
<path fill-rule="evenodd" clip-rule="evenodd" d="M9.89258 3.39184C9.89649 2.93581 10.0824 2.5796 10.4523 2.32712C10.3114 2.20382 10.1999 2.06094 10.1196 1.90045C10.0276 1.7517 9.98065 1.5736 9.98065 1.36809C9.98457 0.97469 10.1137 0.647836 10.3682 0.389485C10.607 0.135047 10.9162 0.00587175 11.2939 0C11.6776 0.00587175 11.9927 0.135047 12.2354 0.389485C12.48 0.647836 12.6053 0.972733 12.6092 1.36809C12.6092 1.5736 12.5681 1.74974 12.4839 1.90045C12.3958 2.05898 12.2804 2.20186 12.1395 2.32516C12.5074 2.5796 12.6933 2.93386 12.6973 3.38989C12.6933 3.81656 12.5583 4.15711 12.2902 4.41351C12.0201 4.67577 11.6873 4.80886 11.2939 4.81278C10.9025 4.80886 10.5756 4.67577 10.3114 4.41351C10.0355 4.15907 9.89649 3.81851 9.89258 3.39184ZM10.5482 3.38597C10.5522 3.60322 10.6285 3.77937 10.7772 3.91833C10.9182 4.06512 11.0904 4.13754 11.2939 4.13754C11.5014 4.13754 11.6776 4.06512 11.8204 3.91833C11.9653 3.77937 12.0377 3.60322 12.0416 3.38597C12.0377 3.16481 11.9653 2.98474 11.8204 2.84578C11.6776 2.70878 11.5014 2.63832 11.2939 2.6344C11.0904 2.63832 10.9182 2.70878 10.7772 2.84578C10.6285 2.98474 10.5522 3.16481 10.5482 3.38597ZM10.6363 1.35439C10.6402 1.5736 10.7087 1.74192 10.8418 1.85739C10.973 1.97678 11.1217 2.03745 11.2939 2.03745C11.4701 2.03745 11.6247 1.97678 11.7558 1.85739C11.885 1.74192 11.9516 1.5736 11.9555 1.35439C11.9516 1.12931 11.885 0.957075 11.7558 0.843557C11.6247 0.731996 11.4701 0.677194 11.2939 0.677194C11.1217 0.677194 10.973 0.731996 10.8418 0.843557C10.7087 0.957075 10.6402 1.12931 10.6363 1.35439Z" fill="#003E6F"/>
<path fill-rule="evenodd" clip-rule="evenodd" d="M13.6018 1.3583C13.6057 0.921842 13.7408 0.587158 14.0069 0.350336C14.2575 0.117428 14.555 0.00195312 14.9014 0.00195312C15.2576 0.00195312 15.561 0.117428 15.8115 0.352294C16.064 0.587159 16.1951 0.923798 16.2049 1.36026V3.4486C16.1951 3.8831 16.064 4.21974 15.8115 4.4546C15.561 4.68947 15.2576 4.8069 14.9014 4.81277C14.5961 4.8069 14.326 4.71295 14.0891 4.52702C13.8504 4.345 13.6957 4.08273 13.6253 3.74022H14.3044C14.4062 4.00444 14.6058 4.13754 14.9033 4.13754C15.3202 4.13362 15.5355 3.89093 15.5492 3.41141V2.96517C15.2361 3.06694 14.9444 3.11587 14.6724 3.11C14.3749 3.11587 14.1205 3.01018 13.9091 2.79293C13.6997 2.58351 13.5959 2.24883 13.6018 1.79476V1.3583ZM14.2555 1.78888C14.2653 2.2684 14.4786 2.50914 14.9014 2.51305C15.3202 2.50914 15.5355 2.2684 15.5492 1.78888V1.40136C15.5355 0.925756 15.3202 0.685019 14.9014 0.675233C14.4806 0.685019 14.2653 0.925756 14.2555 1.40136" fill="#003E6F"/>
<path fill-rule="evenodd" clip-rule="evenodd" d="M17.25 0.0410156H19.857V0.716253L18.3049 4.7755H17.5729L19.1211 0.716253H17.9057V1.40323H17.25" fill="#003E6F"/>
<mask id="mask0_4341_29387" style="mask-type:luminance" maskUnits="userSpaceOnUse" x="1" y="0" width="90" height="35">
<path d="M90.2744 0H1.72852V35H90.2744V0Z" fill="white"/>
</mask>
<g mask="url(#mask0_4341_29387)">
<path fill-rule="evenodd" clip-rule="evenodd" d="M41.0843 13.8154C41.6763 13.5814 42.18 13.1714 42.5256 12.642C42.8712 12.1126 43.0416 11.4901 43.0132 10.8607C43.0132 8.644 41.3322 7.33154 38.736 7.33154H32.1328V21.6933H39.2762C40.792 21.6933 41.9772 21.3259 42.8479 20.588C43.2812 20.2315 43.6257 19.7813 43.8549 19.2723C44.0841 18.7632 44.1919 18.209 44.1698 17.6523C44.1698 15.5391 42.8416 14.145 41.078 13.8185M34.4048 9.42269H38.3293C39.845 9.42269 40.738 10.0507 40.738 11.2689C40.738 12.4872 39.845 13.134 38.3293 13.134H34.4176L34.4048 9.42269ZM38.8536 19.6366H34.4048V15.109H38.8536C40.6617 15.109 41.7135 15.9096 41.7135 17.3257C41.7135 18.7418 40.6331 19.6209 38.8536 19.6209" fill="#003E6F"/>
<path fill-rule="evenodd" clip-rule="evenodd" d="M53.6421 13.7965L48.9296 7.33472H46.6035V21.6964H48.8883V10.7791L52.9398 16.1954H54.2681L58.3164 10.7791V21.6964H60.598V7.33472H58.3164L53.6421 13.7965Z" fill="#003E6F"/>
<path fill-rule="evenodd" clip-rule="evenodd" d="M63.5859 9.40388H68.381V21.6933H70.669V9.40388H75.4831V7.33472H63.5859V9.40388Z" fill="#003E6F"/>
<path fill-rule="evenodd" clip-rule="evenodd" d="M78.4609 7.33472V21.6933H80.7457V9.40388H87.9908V21.6933H90.2755V7.33472H78.4609Z" fill="#003E6F"/>
</g>
</svg>
