<svg width="92" height="34" viewBox="0 0 92 34" fill="none" xmlns="http://www.w3.org/2000/svg">
<path fill-rule="evenodd" clip-rule="evenodd" d="M2.0957 10.773H8.4488V7.46924H2.0957V10.773Z" fill="#02A7EA"/>
<path fill-rule="evenodd" clip-rule="evenodd" d="M14.8037 10.773H21.1588V7.46924H14.8037V10.773Z" fill="#F14624"/>
<path fill-rule="evenodd" clip-rule="evenodd" d="M8.44922 10.773H14.8043V7.46924H8.44922V10.773Z" fill="#02A7EA"/>
<path fill-rule="evenodd" clip-rule="evenodd" d="M2.0957 14.0752H8.4488V10.7734H2.0957V14.0752Z" fill="#F14624"/>
<path fill-rule="evenodd" clip-rule="evenodd" d="M14.8037 14.0752H21.1588V10.7734H14.8037V14.0752Z" fill="#02A7EA"/>
<path fill-rule="evenodd" clip-rule="evenodd" d="M8.44922 14.0752H14.8043V10.7734H8.44922V14.0752Z" fill="#02A7EA"/>
<path fill-rule="evenodd" clip-rule="evenodd" d="M2.0957 17.3775H8.4488V14.0737H2.0957V17.3775Z" fill="#02A7EA"/>
<path fill-rule="evenodd" clip-rule="evenodd" d="M14.8037 17.3775H21.1588V14.0737H14.8037V17.3775Z" fill="#02A7EA"/>
<path fill-rule="evenodd" clip-rule="evenodd" d="M8.44922 17.3775H14.8043V14.0737H8.44922V17.3775Z" fill="#F9A72B"/>
<path fill-rule="evenodd" clip-rule="evenodd" d="M11.6279 22.1493V16.3579L22.5961 17.6869L21.7937 21.3214C21.0167 21.8401 20.0478 22.1493 18.9929 22.1493C17.4878 22.1493 16.155 21.5191 15.3114 20.5503C14.4659 21.5191 13.133 22.1493 11.6279 22.1493Z" fill="#02A7EA"/>
<path fill-rule="evenodd" clip-rule="evenodd" d="M11.6264 22.1493V16.3579L0.65625 17.6869L1.45871 21.3214C2.23572 21.8401 3.20649 22.1493 4.26143 22.1493C5.76456 22.1493 7.09938 21.5191 7.94294 20.5503C8.78845 21.5191 10.1213 22.1493 11.6264 22.1493Z" fill="white"/>
<path d="M15.3484 13.5299H20.6153V11.3163H15.3484V13.5299ZM7.90517 11.3163H2.64027V13.5299H7.90517V11.3163ZM8.99337 13.5299H14.2602V11.3163H8.99337V13.5299ZM8.99337 10.2281H14.2602V8.01252H8.99337V10.2281ZM7.90517 8.01252H2.64027V10.2281H7.90517V8.01252ZM15.3484 16.0801L20.6153 16.7182V14.6181H15.3484V16.0801ZM8.99337 15.947L11.5632 15.6359L11.6278 15.628L11.6904 15.6359L14.2602 15.947V14.6181H8.99337V15.947ZM2.64027 16.7182L7.90517 16.0801V14.6181H2.64027V16.7182ZM0.833771 20.8185L0.129176 17.6224L0 17.0372L0.594992 16.9648L1.55011 16.8493V6.92432H21.7035V16.8493L22.6606 16.9648L23.2536 17.0372L23.1244 17.6224L22.4198 20.8185C22.0499 21.1748 21.6095 21.4742 21.1163 21.6973L21.9384 17.9728L11.6278 16.7241L1.3172 17.9728L2.13727 21.6973C1.64406 21.4742 1.20368 21.1748 0.833771 20.8185ZM15.3484 10.2281H20.6153V8.01252H15.3484" fill="white"/>
<path d="M8.35523 30.6509C8.73297 31.0834 9.22423 31.4416 9.79378 31.6902C10.3418 31.9289 10.9642 32.064 11.6277 32.064V32.0659C12.2853 32.0659 12.9097 31.9289 13.4616 31.6902C14.0311 31.4416 14.5224 31.0834 14.8982 30.6509L15.7202 31.3594C15.2368 31.9152 14.6124 32.3732 13.8941 32.6844C13.2111 32.9819 12.4419 33.1502 11.6277 33.1502V33.1522C10.8154 33.1522 10.0463 32.9839 9.35928 32.6844C8.64294 32.3732 8.01859 31.9152 7.5332 31.3594" fill="white"/>
<path d="M0.989992 23.398C1.36969 23.8344 1.86095 24.1926 2.42854 24.4392C2.97656 24.678 3.59895 24.8111 4.26245 24.8111C4.92594 24.8111 5.54833 24.678 6.09635 24.4392C6.66394 24.1926 7.15716 23.8344 7.5349 23.398L7.94396 22.9282L8.35301 23.398C8.73271 23.8325 9.22593 24.1926 9.79743 24.4392C10.3435 24.678 10.9659 24.8111 11.6294 24.8111C12.2929 24.8111 12.9153 24.678 13.4633 24.4392H13.4652C14.0328 24.1926 14.526 23.8344 14.9057 23.398L15.3148 22.9302L15.7239 23.3999C16.0996 23.8344 16.5909 24.1926 17.1605 24.4392C17.7085 24.678 18.3309 24.8111 18.9944 24.8111C19.6579 24.8111 20.2802 24.678 20.8283 24.4392C21.3959 24.1926 21.8871 23.8344 22.2668 23.398L23.0888 24.1123C22.6054 24.6662 21.9811 25.1203 21.2628 25.4334C20.5758 25.7309 19.8046 25.8993 18.9944 25.8993C18.1821 25.8993 17.4129 25.7309 16.726 25.4334C16.1995 25.2045 15.7199 24.8952 15.3128 24.5273C14.9057 24.8952 14.4262 25.2025 13.8958 25.4334C13.2108 25.7309 12.4416 25.8993 11.6294 25.8993C10.8171 25.8993 10.048 25.7309 9.36293 25.4334C8.83449 25.2045 8.35693 24.8952 7.94787 24.5292C7.53881 24.8952 7.06125 25.2025 6.53085 25.4334C5.84387 25.7309 5.07469 25.8993 4.26245 25.8993C3.45412 25.8993 2.68298 25.7309 1.99795 25.4334H1.996C1.27574 25.1203 0.651395 24.6662 0.169922 24.1123" fill="white"/>
<path d="M4.67163 27.0239C5.04937 27.4584 5.54063 27.8166 6.11018 28.0632C6.6582 28.302 7.28255 28.437 7.94409 28.437C8.60758 28.437 9.22997 28.302 9.77799 28.0632C10.3475 27.8166 10.8388 27.4584 11.2165 27.0239L11.6276 26.5522L12.0366 27.0239C12.4144 27.4584 12.9056 27.8166 13.4752 28.0632C14.0251 28.302 14.6475 28.437 15.311 28.437C15.9726 28.437 16.5949 28.302 17.143 28.0632C17.7125 27.8166 18.2057 27.4584 18.5815 27.0239L19.4035 27.7344C18.9201 28.2902 18.2958 28.7463 17.5775 29.0575C16.8905 29.3569 16.1213 29.5252 15.311 29.5252C14.4988 29.5252 13.7276 29.3569 13.0407 29.0575C12.5122 28.8285 12.0347 28.5192 11.6276 28.1513C11.2185 28.5192 10.7409 28.8285 10.2105 29.0575C9.52551 29.3569 8.75437 29.5252 7.94409 29.5252C7.1338 29.5252 6.36266 29.3569 5.67764 29.0575C4.95934 28.7463 4.33499 28.2902 3.85156 27.7344" fill="white"/>
<path fill-rule="evenodd" clip-rule="evenodd" d="M6.04823 0.756378L5.39648 1.24959V0.527384L6.04823 0.0400391H6.7039V4.77453H6.04823" fill="white"/>
<path fill-rule="evenodd" clip-rule="evenodd" d="M7.89258 3.39184C7.89649 2.93581 8.08243 2.5796 8.45234 2.32712C8.31142 2.20382 8.19986 2.06094 8.11961 1.90045C8.02763 1.7517 7.98065 1.5736 7.98065 1.36809C7.98457 0.97469 8.11374 0.647836 8.36818 0.389485C8.60696 0.135047 8.9162 0.00587175 9.29394 0C9.67755 0.00587175 9.99266 0.135047 10.2354 0.389485C10.48 0.647836 10.6053 0.972733 10.6092 1.36809C10.6092 1.5736 10.5681 1.74974 10.4839 1.90045C10.3958 2.05898 10.2804 2.20186 10.1395 2.32516C10.5074 2.5796 10.6933 2.93386 10.6973 3.38989C10.6933 3.81656 10.5583 4.15711 10.2902 4.41351C10.0201 4.67577 9.68734 4.80886 9.29394 4.81278C8.9025 4.80886 8.57564 4.67577 8.31142 4.41351C8.03545 4.15907 7.89649 3.81851 7.89258 3.39184ZM8.54824 3.38597C8.55216 3.60322 8.62849 3.77937 8.77724 3.91833C8.91816 4.06512 9.09039 4.13754 9.29394 4.13754C9.5014 4.13754 9.67755 4.06512 9.82043 3.91833C9.96526 3.77937 10.0377 3.60322 10.0416 3.38597C10.0377 3.16481 9.96526 2.98474 9.82043 2.84578C9.67755 2.70878 9.5014 2.63832 9.29394 2.6344C9.09039 2.63832 8.91816 2.70878 8.77724 2.84578C8.62849 2.98474 8.55216 3.16481 8.54824 3.38597ZM8.63632 1.35439C8.64023 1.5736 8.70873 1.74192 8.84182 1.85739C8.97296 1.97678 9.12171 2.03745 9.29394 2.03745C9.47009 2.03745 9.62471 1.97678 9.75584 1.85739C9.88502 1.74192 9.95156 1.5736 9.95548 1.35439C9.95156 1.12931 9.88502 0.957075 9.75584 0.843557C9.62471 0.731996 9.47009 0.677194 9.29394 0.677194C9.12171 0.677194 8.97296 0.731996 8.84182 0.843557C8.70873 0.957075 8.64023 1.12931 8.63632 1.35439Z" fill="white"/>
<path fill-rule="evenodd" clip-rule="evenodd" d="M11.6028 1.3583C11.6067 0.921842 11.7417 0.587158 12.0079 0.350336C12.2584 0.117428 12.5559 0.00195312 12.9024 0.00195312C13.2586 0.00195312 13.5619 0.117428 13.8125 0.352294C14.0649 0.587159 14.1961 0.923798 14.2059 1.36026V3.4486C14.1961 3.8831 14.0649 4.21974 13.8125 4.4546C13.5619 4.68947 13.2586 4.8069 12.9024 4.81277C12.597 4.8069 12.3269 4.71295 12.0901 4.52702C11.8513 4.345 11.6967 4.08273 11.6263 3.74022H12.3054C12.4072 4.00444 12.6068 4.13754 12.9043 4.13754C13.3212 4.13362 13.5365 3.89093 13.5502 3.41141V2.96517C13.237 3.06694 12.9454 3.11587 12.6734 3.11C12.3759 3.11587 12.1214 3.01018 11.9101 2.79293C11.7006 2.58351 11.5969 2.24883 11.6028 1.79476V1.3583ZM12.2565 1.78888C12.2663 2.2684 12.4796 2.50914 12.9024 2.51305C13.3212 2.50914 13.5365 2.2684 13.5502 1.78888V1.40136C13.5365 0.925756 13.3212 0.685019 12.9024 0.675233C12.4816 0.685019 12.2663 0.925756 12.2565 1.40136" fill="white"/>
<path fill-rule="evenodd" clip-rule="evenodd" d="M15.25 0.0400391H17.857V0.715276L16.3049 4.77453H15.5729L17.1211 0.715276H15.9057V1.40226H15.25" fill="white"/>
<path d="M69.2477 27.7983C69.2477 28.0625 69.2947 28.3052 69.3847 28.5244C69.4767 28.7436 69.6137 28.9433 69.7977 29.1214C69.9797 29.2975 70.1872 29.4287 70.4221 29.5167C70.653 29.6048 70.9133 29.6498 71.1971 29.6498C71.4829 29.6498 71.7412 29.6048 71.9741 29.5167C72.207 29.4287 72.4145 29.2975 72.5985 29.1214C72.7805 28.9433 72.9175 28.7436 73.0095 28.5244C73.1015 28.3052 73.1465 28.0625 73.1465 27.7983C73.1465 27.2855 72.9645 26.8491 72.5985 26.4909C72.4145 26.3108 72.207 26.1777 71.9741 26.0877C71.7412 25.9996 71.4829 25.9546 71.1971 25.9546C70.9133 25.9546 70.653 25.9996 70.4221 26.0877C70.1872 26.1777 69.9797 26.3108 69.7977 26.4909C69.4317 26.8412 69.2477 27.2777 69.2477 27.7983ZM70.5003 28.5029C70.4103 28.407 70.3399 28.3013 70.2948 28.1858C70.2479 28.0684 70.2263 27.9392 70.2263 27.7983C70.2263 27.5184 70.3183 27.2855 70.5003 27.1015C70.5923 27.0076 70.6961 26.9371 70.8135 26.8902C70.929 26.8432 71.0562 26.8217 71.1971 26.8217C71.338 26.8217 71.4672 26.8432 71.5827 26.8902C71.7001 26.9371 71.8019 27.0076 71.8939 27.1015C72.0779 27.2855 72.1679 27.5184 72.1679 27.7983C72.1679 27.9392 72.1464 28.0684 72.1013 28.1858C72.0544 28.3013 71.9859 28.407 71.8939 28.5029C71.8019 28.5988 71.7001 28.6673 71.5827 28.7143C71.4672 28.7613 71.338 28.7847 71.1971 28.7847C71.0562 28.7847 70.929 28.7613 70.8135 28.7143C70.6961 28.6673 70.5923 28.5988 70.5003 28.5029ZM66.1162 29.5578V26.8765H67.5176V29.5578H68.5099V26.0466H65.1239V29.5578H66.1162ZM60.5988 25.6591C60.7789 25.6591 60.9452 25.6336 61.094 25.5808C61.2467 25.526 61.3817 25.4457 61.4991 25.3361C61.6205 25.2265 61.7105 25.1013 61.7692 24.9545C61.8319 24.8077 61.8632 24.6433 61.8671 24.4554H61.1136C61.1116 24.5591 61.0881 24.6492 61.0451 24.7275C61.002 24.8038 60.9433 24.8645 60.867 24.9056C60.7887 24.9486 60.6986 24.9682 60.593 24.9701C60.4873 24.9682 60.3933 24.9486 60.317 24.9056C60.2387 24.8645 60.178 24.8038 60.1369 24.7275C60.0939 24.6492 60.0723 24.5591 60.0723 24.4554H59.3247C59.3306 24.704 59.3873 24.9173 59.495 25.0974C59.6026 25.2755 59.7533 25.4144 59.9432 25.5123C60.133 25.6102 60.3503 25.6591 60.5988 25.6591ZM59.7827 29.5578L61.3739 27.4891V29.5578H62.3525V26.0466H61.4228L59.8316 28.1154V26.0466H58.8549V29.5578H59.7827ZM54.3142 27.814H54.8779C55.0717 27.814 55.2224 27.857 55.33 27.9431C55.4357 28.0293 55.4885 28.1506 55.4905 28.3052C55.4885 28.4618 55.4357 28.5812 55.33 28.6654C55.2224 28.7476 55.0717 28.7906 54.8779 28.7906H54.3142V27.814ZM55.0814 29.5578C55.3026 29.5578 55.5003 29.5285 55.6725 29.4698C55.8448 29.4111 55.9935 29.323 56.1168 29.2075C56.2401 29.0862 56.3321 28.9531 56.3928 28.8043C56.4515 28.6556 56.4828 28.4912 56.4828 28.3131C56.4809 28.0606 56.4202 27.8414 56.3027 27.6574C56.1834 27.4715 56.015 27.3286 55.7997 27.2288C55.5825 27.127 55.3281 27.0761 55.0325 27.0741H54.3142V26.0466H53.3239V29.5578H55.0814ZM57.8822 26.0466H56.9056V29.5598H57.8822V26.0466ZM50.1845 26.7297H50.8734C51.032 26.7297 51.1514 26.759 51.2277 26.8178C51.306 26.8784 51.3451 26.9685 51.3451 27.0878C51.3451 27.2072 51.306 27.2973 51.2277 27.3579C51.1514 27.4186 51.032 27.446 50.8734 27.446H50.1845V26.7297ZM50.1845 28.0743H51.0281C51.2003 28.0743 51.3295 28.1056 51.4136 28.1741C51.4998 28.2387 51.5428 28.3365 51.5428 28.4677C51.5428 28.5988 51.4998 28.6967 51.4136 28.7613C51.3295 28.8298 51.2003 28.8611 51.0281 28.8611H50.1845V28.0743ZM51.2747 29.5578C51.5487 29.5578 51.7796 29.5167 51.9695 29.4404C52.1613 29.3621 52.3061 29.2506 52.4059 29.1077C52.5058 28.9629 52.5547 28.7926 52.5567 28.5949C52.5567 28.3718 52.4999 28.1858 52.3883 28.0371C52.2748 27.8844 52.1084 27.7709 51.8873 27.6926C52.0321 27.6202 52.1398 27.5204 52.2102 27.3971C52.2807 27.2738 52.3159 27.1231 52.3159 26.9469C52.3159 26.7747 52.2729 26.6201 52.1867 26.485C52.1026 26.35 51.9754 26.2443 51.807 26.166C51.6407 26.0877 51.4352 26.0486 51.1905 26.0466H49.2059V29.5578H51.2747ZM44.5752 27.7983C44.5752 28.0625 44.6221 28.3052 44.7122 28.5244C44.8041 28.7436 44.9411 28.9433 45.1251 29.1214C45.3071 29.2975 45.5146 29.4287 45.7475 29.5167C45.9804 29.6048 46.2388 29.6498 46.5245 29.6498C46.8103 29.6498 47.0686 29.6048 47.3015 29.5167C47.5345 29.4287 47.7419 29.2975 47.9259 29.1214C48.1079 28.9433 48.2449 28.7436 48.3369 28.5244C48.4289 28.3052 48.4739 28.0625 48.4739 27.7983C48.4739 27.2855 48.2919 26.8491 47.9259 26.4909C47.7419 26.3108 47.5345 26.1777 47.3015 26.0877C47.0686 25.9996 46.8103 25.9546 46.5245 25.9546C46.2388 25.9546 45.9804 25.9996 45.7475 26.0877C45.5146 26.1777 45.3071 26.3108 45.1251 26.4909C44.7591 26.8412 44.5752 27.2777 44.5752 27.7983ZM45.8278 28.5029C45.7358 28.407 45.6673 28.3013 45.6223 28.1858C45.5753 28.0684 45.5538 27.9392 45.5538 27.7983C45.5538 27.5184 45.6457 27.2855 45.8278 27.1015C45.9198 27.0076 46.0235 26.9371 46.139 26.8902C46.2564 26.8432 46.3836 26.8217 46.5245 26.8217C46.6655 26.8217 46.7946 26.8432 46.9101 26.8902C47.0275 26.9371 47.1293 27.0076 47.2213 27.1015C47.4053 27.2855 47.4953 27.5184 47.4953 27.7983C47.4953 27.9392 47.4738 28.0684 47.4268 28.1858C47.3818 28.3013 47.3133 28.407 47.2213 28.5029C47.1293 28.5988 47.0275 28.6673 46.9101 28.7143C46.7946 28.7613 46.6655 28.7847 46.5245 28.7847C46.3836 28.7847 46.2564 28.7613 46.139 28.7143C46.0235 28.6673 45.9198 28.5988 45.8278 28.5029ZM42.3929 29.5578V26.8765H44.1876V26.0466H41.4025V29.5578H42.3929ZM38.7348 26.8217C38.8718 26.8217 38.9991 26.8432 39.1126 26.8902C39.2261 26.9371 39.3298 27.0076 39.4159 27.1015C39.506 27.1974 39.5725 27.3031 39.6156 27.4206C39.6626 27.536 39.6841 27.6652 39.6841 27.8061C39.6841 27.9431 39.6626 28.0704 39.6156 28.1858C39.5725 28.3013 39.506 28.407 39.4159 28.5029C39.3298 28.5988 39.2261 28.6673 39.1126 28.7143C38.9991 28.7613 38.8718 28.7847 38.7348 28.7847C38.6057 28.7828 38.4843 28.7613 38.3708 28.7162C38.2612 28.6712 38.1614 28.6106 38.0753 28.5323C37.9872 28.454 37.9167 28.3659 37.8619 28.2641V27.3482C37.9167 27.2464 37.9872 27.1563 38.0753 27.0781C38.1614 26.9978 38.2612 26.9352 38.3708 26.8902C38.4843 26.8452 38.6037 26.8217 38.7348 26.8217ZM39.0167 25.9546C38.7622 25.9546 38.5391 25.9996 38.3454 26.0858C38.1535 26.1738 37.9931 26.303 37.8619 26.4752V26.0466H36.8696V30.9651H37.8619V29.1292C37.9989 29.3014 38.1633 29.4326 38.3551 29.5187C38.545 29.6068 38.7662 29.6498 39.0167 29.6498C39.4942 29.6498 39.8876 29.4737 40.1988 29.1214C40.3554 28.9433 40.4748 28.7436 40.5531 28.5244C40.6314 28.3052 40.6686 28.0665 40.6686 27.8061C40.6686 27.5419 40.6314 27.3012 40.5531 27.082C40.4748 26.8628 40.3554 26.667 40.1988 26.4909C40.0423 26.3108 39.8681 26.1777 39.6704 26.0877C39.4727 25.9996 39.2555 25.9546 39.0167 25.9546ZM32.2389 27.7983C32.2389 28.0625 32.2839 28.3052 32.3759 28.5244C32.4679 28.7436 32.6049 28.9433 32.7888 29.1214C32.9709 29.2975 33.1783 29.4287 33.4112 29.5167C33.6441 29.6048 33.9025 29.6498 34.1882 29.6498C34.474 29.6498 34.7323 29.6048 34.9653 29.5167C35.1982 29.4287 35.4056 29.2975 35.5896 29.1214C35.7716 28.9433 35.9086 28.7436 36.0006 28.5244C36.0926 28.3052 36.1376 28.0625 36.1376 27.7983C36.1376 27.2855 35.9556 26.8491 35.5896 26.4909C35.4056 26.3108 35.1982 26.1777 34.9653 26.0877C34.7323 25.9996 34.474 25.9546 34.1882 25.9546C33.9025 25.9546 33.6441 25.9996 33.4112 26.0877C33.1783 26.1777 32.9709 26.3108 32.7888 26.4909C32.4209 26.8412 32.2389 27.2777 32.2389 27.7983ZM33.4915 28.5029C33.3995 28.407 33.331 28.3013 33.286 28.1858C33.239 28.0684 33.2175 27.9392 33.2175 27.7983C33.2175 27.5184 33.3095 27.2855 33.4915 27.1015C33.5835 27.0076 33.6872 26.9371 33.8046 26.8902C33.9201 26.8432 34.0473 26.8217 34.1882 26.8217C34.3292 26.8217 34.4583 26.8432 34.5738 26.8902C34.6912 26.9371 34.793 27.0076 34.885 27.1015C35.069 27.2855 35.159 27.5184 35.159 27.7983C35.159 27.9392 35.1375 28.0684 35.0905 28.1858C35.0455 28.3013 34.977 28.407 34.885 28.5029C34.793 28.5988 34.6912 28.6673 34.5738 28.7143C34.4583 28.7613 34.3292 28.7847 34.1882 28.7847C34.0473 28.7847 33.9201 28.7613 33.8046 28.7143C33.6872 28.6673 33.5835 28.5988 33.4915 28.5029ZM30.7749 29.5578V26.8765H31.8866V26.0466H28.6846V26.8765H29.7826V29.5578H30.7749ZM56.9604 16.8066C57.1404 16.8066 57.3048 16.7792 57.4555 16.7264C57.6062 16.6735 57.7413 16.5913 57.8607 16.4837C57.982 16.3741 58.0721 16.2469 58.1308 16.1001C58.1915 15.9552 58.2247 15.7908 58.2267 15.6029H57.4751C57.4712 15.7067 57.4477 15.7967 57.4066 15.875C57.3636 15.9513 57.3048 16.01 57.2285 16.0531C57.1502 16.0942 57.0602 16.1157 56.9525 16.1177C56.8488 16.1157 56.7549 16.0942 56.6785 16.0531C56.6002 16.01 56.5396 15.9513 56.4985 15.875C56.4554 15.7967 56.4339 15.7067 56.4339 15.6029H55.6862C55.6921 15.8515 55.7489 16.0648 55.8565 16.2449C55.9642 16.423 56.1149 16.562 56.3027 16.6598C56.4946 16.7557 56.7118 16.8066 56.9604 16.8066ZM56.1442 20.7054L57.7354 18.6366V20.7054H58.714V17.1942H57.7844L56.1931 19.2629V17.1942H55.2145V20.7054H56.1442ZM50.5857 18.9459C50.5857 19.2101 50.6308 19.4508 50.7227 19.672C50.8128 19.8912 50.9517 20.0908 51.1338 20.2689C51.3158 20.4451 51.5232 20.5762 51.7581 20.6643C51.991 20.7524 52.2494 20.7974 52.5351 20.7974C52.8189 20.7974 53.0792 20.7524 53.3102 20.6643C53.5431 20.5762 53.7525 20.4451 53.9345 20.2689C54.1185 20.0908 54.2555 19.8912 54.3475 19.672C54.4375 19.4508 54.4845 19.2101 54.4845 18.9459C54.4845 18.4331 54.3005 17.9966 53.9345 17.6384C53.7525 17.4584 53.5431 17.3253 53.3102 17.2353C53.0792 17.1472 52.8189 17.1022 52.5351 17.1022C52.2494 17.1022 51.991 17.1472 51.7581 17.2353C51.5232 17.3253 51.3158 17.4584 51.1338 17.6384C50.7678 17.9888 50.5857 18.4252 50.5857 18.9459ZM51.8384 19.6505C51.7464 19.5545 51.6779 19.4489 51.6309 19.3334C51.5859 19.216 51.5624 19.0868 51.5624 18.9459C51.5624 18.666 51.6544 18.4331 51.8384 18.2491C51.9284 18.1551 52.0341 18.0847 52.1495 18.0377C52.265 17.9907 52.3942 17.9673 52.5351 17.9673C52.676 17.9673 52.8033 17.9907 52.9207 18.0377C53.0362 18.0847 53.1399 18.1551 53.2319 18.2491C53.4139 18.4331 53.5059 18.666 53.5059 18.9459C53.5059 19.0868 53.4824 19.216 53.4374 19.3334C53.3924 19.4489 53.3219 19.5545 53.2319 19.6505C53.1399 19.7444 53.0362 19.8149 52.9207 19.8618C52.8033 19.9088 52.676 19.9303 52.5351 19.9303C52.3942 19.9303 52.265 19.9088 52.1495 19.8618C52.0341 19.8149 51.9284 19.7444 51.8384 19.6505ZM47.5932 20.7054V19.1925L48.9808 20.7054H50.2608L48.4954 18.7775L50.0221 17.1942H48.8047L47.5932 18.4742V17.1942H46.6028V20.7054H47.5932ZM44.6456 20.7974C44.8531 20.7974 45.0488 20.7758 45.2328 20.7328C45.4167 20.6897 45.5929 20.6251 45.7573 20.5371V19.6916C45.6203 19.7738 45.4735 19.8325 45.315 19.8736C45.1564 19.9108 44.9862 19.9303 44.8081 19.9303C44.6554 19.9303 44.5164 19.9088 44.3853 19.8638C44.2561 19.8168 44.1387 19.7483 44.033 19.6563C43.9273 19.5663 43.849 19.4606 43.7942 19.3412C43.7433 19.2218 43.7159 19.0907 43.7159 18.9459C43.7159 18.801 43.7433 18.6699 43.7942 18.5525C43.8471 18.4331 43.9234 18.3313 44.0252 18.2432C44.2366 18.0592 44.4988 17.9673 44.8081 17.9673C44.9509 17.9673 45.0997 17.9849 45.2484 18.0201C45.3991 18.0573 45.5498 18.1082 45.7005 18.1786V17.3351C45.5459 17.2568 45.3815 17.1981 45.2093 17.1609C45.0371 17.1217 44.8531 17.1022 44.6593 17.1022C44.3951 17.1022 44.1504 17.1452 43.9254 17.2294C43.7003 17.3135 43.4909 17.4408 43.301 17.6091C43.1151 17.7754 42.9742 17.9673 42.8802 18.1904C42.7863 18.4115 42.7393 18.6621 42.7393 18.94C42.7393 19.2179 42.7863 19.4684 42.8802 19.6955C42.9742 19.9205 43.1151 20.1182 43.301 20.2905C43.4869 20.4588 43.6924 20.586 43.9175 20.6702C44.1426 20.7543 44.3853 20.7974 44.6456 20.7974ZM40.3045 17.9673C40.4415 17.9673 40.5668 17.9907 40.6823 18.0377C40.7958 18.0847 40.8976 18.1551 40.9856 18.2491C41.0737 18.345 41.1402 18.4507 41.1853 18.5681C41.2322 18.6836 41.2538 18.8128 41.2538 18.9537C41.2538 19.0907 41.2322 19.2179 41.1853 19.3334C41.1402 19.4489 41.0737 19.5545 40.9856 19.6505C40.8976 19.7444 40.7958 19.8149 40.6823 19.8618C40.5668 19.9088 40.4415 19.9303 40.3045 19.9303C40.1753 19.9303 40.054 19.9088 39.9405 19.8638C39.8289 19.8188 39.7291 19.7581 39.643 19.6798C39.5569 19.6015 39.4844 19.5134 39.4316 19.4097V18.4957C39.4844 18.3939 39.5569 18.3039 39.643 18.2256C39.7291 18.1454 39.8289 18.0827 39.9405 18.0377C40.052 17.9907 40.1734 17.9692 40.3045 17.9673ZM40.5844 17.1022C40.3319 17.1022 40.1088 17.1452 39.915 17.2333C39.7232 17.3214 39.5608 17.4505 39.4316 17.6228V17.1942H38.4393V22.1126H39.4316V20.2768C39.5686 20.449 39.733 20.5782 39.9229 20.6662C40.1147 20.7543 40.3358 20.7974 40.5844 20.7974C41.0639 20.7974 41.4573 20.6212 41.7666 20.2689C41.9251 20.0908 42.0445 19.8912 42.1208 19.672C42.2011 19.4528 42.2382 19.214 42.2382 18.9537C42.2382 18.6895 42.2011 18.4468 42.1208 18.2295C42.0445 18.0103 41.9251 17.8126 41.7666 17.6384C41.6119 17.4584 41.4358 17.3253 41.2401 17.2353C41.0424 17.1472 40.8251 17.1022 40.5844 17.1022ZM33.8085 18.9459C33.8085 19.2101 33.8536 19.4508 33.9455 19.672C34.0375 19.8912 34.1745 20.0908 34.3585 20.2689C34.5405 20.4451 34.748 20.5762 34.9809 20.6643C35.2138 20.7524 35.4722 20.7974 35.7579 20.7974C36.0437 20.7974 36.302 20.7524 36.533 20.6643C36.7678 20.5762 36.9753 20.4451 37.1573 20.2689C37.3413 20.0908 37.4783 19.8912 37.5703 19.672C37.6603 19.4508 37.7073 19.2101 37.7073 18.9459C37.7073 18.4331 37.5233 17.9966 37.1573 17.6384C36.9753 17.4584 36.7678 17.3253 36.533 17.2353C36.302 17.1472 36.0437 17.1022 35.7579 17.1022C35.4722 17.1022 35.2138 17.1472 34.9809 17.2353C34.748 17.3253 34.5405 17.4584 34.3585 17.6384C33.9906 17.9888 33.8085 18.4252 33.8085 18.9459ZM35.0612 19.6505C34.9692 19.5545 34.9007 19.4489 34.8537 19.3334C34.8087 19.216 34.7871 19.0868 34.7871 18.9459C34.7871 18.666 34.8772 18.4331 35.0612 18.2491C35.1531 18.1551 35.2569 18.0847 35.3724 18.0377C35.4898 17.9907 35.617 17.9673 35.7579 17.9673C35.8988 17.9673 36.028 17.9907 36.1435 18.0377C36.259 18.0847 36.3627 18.1551 36.4547 18.2491C36.6367 18.4331 36.7287 18.666 36.7287 18.9459C36.7287 19.0868 36.7072 19.216 36.6602 19.3334C36.6152 19.4489 36.5467 19.5545 36.4547 19.6505C36.3627 19.7444 36.259 19.8149 36.1435 19.8618C36.028 19.9088 35.8988 19.9303 35.7579 19.9303C35.617 19.9303 35.4898 19.9088 35.3724 19.8618C35.2569 19.8149 35.1531 19.7444 35.0612 19.6505ZM30.0018 20.7054V18.5388L30.8669 19.6289H31.2603L32.1332 18.5388V20.7054H33.0707V17.1942H32.0921L31.0645 18.5035L30.0429 17.1942H29.0662V20.7054H30.0018ZM90.2466 7.95417C90.4267 7.95417 90.5931 7.92677 90.7418 7.87393C90.8945 7.82108 91.0295 7.73888 91.1469 7.63123C91.2683 7.52163 91.3583 7.39441 91.417 7.24762C91.4797 7.10279 91.511 6.93642 91.5149 6.75049H90.7614C90.7594 6.85422 90.7359 6.94425 90.6929 7.02254C90.6518 7.09887 90.5911 7.15759 90.5148 7.20065C90.4365 7.24175 90.3464 7.26328 90.2408 7.26523C90.1351 7.26328 90.0411 7.24175 89.9648 7.20065C89.8865 7.15759 89.8258 7.09887 89.7847 7.02254C89.7417 6.94425 89.7201 6.85422 89.7201 6.75049H88.9725C88.9784 6.99905 89.0351 7.21239 89.1428 7.3905C89.2524 7.57056 89.4011 7.70952 89.591 7.80738C89.7808 7.90328 89.9981 7.95417 90.2466 7.95417ZM89.4305 11.8529L91.0217 9.78416V11.8529H92.0003V8.3417H91.0706L89.4794 10.4105V8.3417H88.5028V11.8529H89.4305ZM84.9622 11.8529L86.5534 9.78416V11.8529H87.53V8.3417H86.6023L85.0111 10.4105V8.3417H84.0344V11.8529H84.9622ZM80.8109 11.8529V10.34L82.1966 11.8529H83.4766L81.7112 9.92508L83.2379 8.3417H82.0205L80.8109 9.62171V8.3417H79.8186V11.8529H80.8109ZM77.8614 11.9449C78.0689 11.9449 78.2646 11.9234 78.4486 11.8803C78.6345 11.8373 78.8087 11.7727 78.9731 11.6846V10.8391C78.8361 10.9213 78.6893 10.98 78.5308 11.0211C78.3722 11.0583 78.202 11.0779 78.0239 11.0779C77.8712 11.0779 77.7322 11.0563 77.6031 11.0113C77.4719 10.9644 77.3545 10.8959 77.2488 10.8039C77.1451 10.7138 77.0648 10.6081 77.012 10.4888C76.9591 10.3694 76.9317 10.2382 76.9317 10.0934C76.9317 9.94857 76.9591 9.81743 77.012 9.7C77.0629 9.58061 77.1412 9.47688 77.2429 9.38881C77.4543 9.20679 77.7146 9.1148 78.0239 9.1148C78.1687 9.1148 78.3155 9.13241 78.4642 9.16764C78.6149 9.20287 78.7656 9.25572 78.9183 9.32618V8.48262C78.7617 8.40433 78.5973 8.34561 78.4251 8.30647C78.2528 8.26928 78.0689 8.24971 77.8771 8.24971C77.6128 8.24971 77.3662 8.29277 77.1412 8.37693C76.9161 8.46109 76.7086 8.58831 76.5188 8.75663C76.3309 8.92103 76.1899 9.1148 76.096 9.33792C76.0021 9.55908 75.9551 9.80961 75.9551 10.0875C75.9551 10.3635 76.0021 10.616 76.096 10.8411C76.1899 11.0681 76.3309 11.2658 76.5188 11.438C76.7047 11.6063 76.9102 11.7335 77.1353 11.8177C77.3584 11.9019 77.6011 11.9449 77.8614 11.9449ZM72.9645 11.8529V10.34L74.3502 11.8529H75.6302L73.8648 9.92508L75.3914 8.3417H74.174L72.9645 9.62171V8.3417H71.9722V11.8529H72.9645ZM67.3414 10.0934C67.3414 10.3576 67.3864 10.5984 67.4784 10.8176C67.5704 11.0368 67.7074 11.2364 67.8894 11.4165C68.0734 11.5926 68.2809 11.7238 68.5138 11.8118C68.7467 11.8999 69.005 11.9449 69.2908 11.9449C69.5746 11.9449 69.8349 11.8999 70.0678 11.8118C70.3007 11.7238 70.5082 11.5926 70.6902 11.4165C70.8742 11.2364 71.0112 11.0368 71.1032 10.8176C71.1952 10.5984 71.2402 10.3576 71.2402 10.0934C71.2402 9.58061 71.0562 9.14415 70.6902 8.78403C70.5082 8.60592 70.3007 8.47087 70.0678 8.3828C69.8349 8.29473 69.5746 8.24971 69.2908 8.24971C69.005 8.24971 68.7467 8.29473 68.5138 8.3828C68.2809 8.47087 68.0734 8.60592 67.8894 8.78403C67.5234 9.13633 67.3414 9.57278 67.3414 10.0934ZM68.594 10.798C68.502 10.7021 68.4335 10.5964 68.3866 10.479C68.3415 10.3635 68.32 10.2343 68.32 10.0934C68.32 9.81156 68.41 9.58061 68.594 9.39663C68.686 9.30073 68.7897 9.23223 68.9052 9.18526C69.0227 9.13828 69.1499 9.1148 69.2908 9.1148C69.4317 9.1148 69.5609 9.13828 69.6764 9.18526C69.7918 9.23223 69.8956 9.30073 69.9876 9.39663C70.1696 9.58061 70.2616 9.81156 70.2616 10.0934C70.2616 10.2343 70.24 10.3635 70.1931 10.479C70.148 10.5964 70.0776 10.7021 69.9876 10.798C69.8956 10.8919 69.7918 10.9624 69.6764 11.0094C69.5609 11.0544 69.4317 11.0779 69.2908 11.0779C69.1499 11.0779 69.0227 11.0544 68.9052 11.0094C68.7897 10.9624 68.686 10.8919 68.594 10.798ZM65.8774 11.8529V9.17156H66.9891V8.3417H63.7871V9.17156H64.8851V11.8529H65.8774ZM62.2116 11.9449C62.419 11.9449 62.6147 11.9234 62.7987 11.8803C62.9827 11.8373 63.1569 11.7727 63.3233 11.6846V10.8391C63.1863 10.9213 63.0375 10.98 62.879 11.0211C62.7204 11.0583 62.5521 11.0779 62.3721 11.0779C62.2213 11.0779 62.0804 11.0563 61.9513 11.0113C61.8221 10.9644 61.7046 10.8959 61.599 10.8039C61.4933 10.7138 61.413 10.6081 61.3602 10.4888C61.3073 10.3694 61.2819 10.2382 61.2819 10.0934C61.2819 9.94857 61.3073 9.81743 61.3602 9.7C61.413 9.58061 61.4894 9.47688 61.5911 9.38881C61.8025 9.20679 62.0628 9.1148 62.3721 9.1148C62.5169 9.1148 62.6656 9.13241 62.8144 9.16764C62.9631 9.20287 63.1158 9.25572 63.2665 9.32618V8.48262C63.1119 8.40433 62.9475 8.34561 62.7752 8.30647C62.601 8.26928 62.419 8.24971 62.2253 8.24971C61.961 8.24971 61.7164 8.29277 61.4913 8.37693C61.2643 8.46109 61.0568 8.58831 60.867 8.75663C60.681 8.92103 60.5401 9.1148 60.4462 9.33792C60.3503 9.55908 60.3033 9.80961 60.3033 10.0875C60.3033 10.3635 60.3503 10.616 60.4462 10.8411C60.5401 11.0681 60.681 11.2658 60.867 11.438C61.0529 11.6063 61.2584 11.7335 61.4835 11.8177C61.7086 11.9019 61.9513 11.9449 62.2116 11.9449ZM55.9054 10.0934C55.9054 10.3576 55.9504 10.5984 56.0424 10.8176C56.1344 11.0368 56.2714 11.2364 56.4554 11.4165C56.6374 11.5926 56.8449 11.7238 57.0778 11.8118C57.3107 11.8999 57.5691 11.9449 57.8548 11.9449C58.1406 11.9449 58.3989 11.8999 58.6318 11.8118C58.8647 11.7238 59.0722 11.5926 59.2562 11.4165C59.4382 11.2364 59.5752 11.0368 59.6672 10.8176C59.7592 10.5984 59.8042 10.3576 59.8042 10.0934C59.8042 9.58061 59.6202 9.14415 59.2562 8.78403C59.0722 8.60592 58.8647 8.47087 58.6318 8.3828C58.3989 8.29473 58.1406 8.24971 57.8548 8.24971C57.5691 8.24971 57.3107 8.29473 57.0778 8.3828C56.8449 8.47087 56.6374 8.60592 56.4554 8.78403C56.0875 9.13633 55.9054 9.57278 55.9054 10.0934ZM57.158 10.798C57.0661 10.7021 56.9976 10.5964 56.9506 10.479C56.9056 10.3635 56.884 10.2343 56.884 10.0934C56.884 9.81156 56.9741 9.58061 57.158 9.39663C57.25 9.30073 57.3538 9.23223 57.4692 9.18526C57.5867 9.13828 57.7139 9.1148 57.8548 9.1148C57.9957 9.1148 58.1249 9.13828 58.2404 9.18526C58.3578 9.23223 58.4596 9.30073 58.5516 9.39663C58.7356 9.58061 58.8256 9.81156 58.8256 10.0934C58.8256 10.2343 58.8041 10.3635 58.7571 10.479C58.7121 10.5964 58.6436 10.7021 58.5516 10.798C58.4596 10.8919 58.3578 10.9624 58.2404 11.0094C58.1249 11.0544 57.9957 11.0779 57.8548 11.0779C57.7139 11.0779 57.5867 11.0544 57.4692 11.0094C57.3538 10.9624 57.25 10.8919 57.158 10.798ZM52.999 9.02477H53.6879C53.8465 9.02477 53.9658 9.05217 54.0422 9.11284C54.1224 9.17351 54.1596 9.26354 54.1596 9.38293C54.1596 9.50232 54.1224 9.59236 54.0422 9.65107C53.9658 9.71175 53.8465 9.7411 53.6879 9.7411H52.999V9.02477ZM52.999 10.3674H53.8425C54.0167 10.3674 54.1459 10.4007 54.2301 10.4672C54.3142 10.5338 54.3573 10.6316 54.3573 10.7628C54.3573 10.8919 54.3142 10.9898 54.2301 11.0563C54.1459 11.1229 54.0167 11.1562 53.8425 11.1562H52.999V10.3674ZM54.0891 11.8529C54.3632 11.851 54.5941 11.8118 54.7859 11.7355C54.9758 11.6553 55.1206 11.5457 55.2204 11.4008C55.3202 11.2579 55.3692 11.0877 55.3711 10.888C55.3711 10.6669 55.3144 10.4809 55.2028 10.3302C55.0893 10.1795 54.9229 10.066 54.7017 9.98771C54.8466 9.91334 54.9542 9.81548 55.0247 9.69022C55.0951 9.56887 55.1304 9.41816 55.1304 9.24202C55.1304 9.06978 55.0873 8.91516 55.0032 8.78011C54.917 8.64507 54.7898 8.53938 54.6215 8.46109C54.4551 8.3828 54.2496 8.3417 54.005 8.3417H52.0204V11.8529H54.0891ZM48.4817 11.8529L50.071 9.78416V11.8529H51.0496V8.3417H50.1199L48.5307 10.4105V8.3417H47.5521V11.8529H48.4817ZM43.9136 11.0231C44.0154 10.7726 44.0937 10.4927 44.1446 10.1834C44.1974 9.87615 44.2229 9.53755 44.2229 9.17156H45.3208V11.0231H43.9136ZM43.4008 12.7474V11.8529H45.9335V12.7474H46.869V11.0231H46.2936V8.3417H43.3362L43.3225 9.02477C43.3147 9.48471 43.2775 9.88202 43.2071 10.2128C43.1366 10.5455 43.0348 10.8156 42.8998 11.0231H42.4496V12.7474H43.4008ZM40.6686 10.8176C40.5785 10.9389 40.465 11.0289 40.3339 11.0877C40.1988 11.1483 40.0462 11.1777 39.8739 11.1777C39.7506 11.1777 39.643 11.1601 39.549 11.1288C39.4551 11.0935 39.3827 11.0446 39.3298 10.9761C39.277 10.9096 39.2496 10.8234 39.2476 10.7197C39.2496 10.6238 39.277 10.5416 39.3318 10.4731C39.3885 10.4046 39.4688 10.3537 39.5725 10.3165C39.6743 10.2813 39.7956 10.2617 39.9385 10.2617C40.0814 10.2617 40.2145 10.2793 40.3358 10.3146C40.4552 10.3498 40.5668 10.4007 40.6686 10.4672V10.8176ZM41.9016 11.0857C41.8214 11.0857 41.7587 11.0642 41.7176 11.0172C41.6765 10.9722 41.655 10.9056 41.655 10.8176V9.62954C41.655 9.19896 41.5004 8.86232 41.1911 8.61571C41.0385 8.4924 40.8623 8.40042 40.6588 8.33974C40.4552 8.28103 40.2301 8.24971 39.9796 8.24971C39.7232 8.24971 39.4884 8.2732 39.2711 8.31821C39.0558 8.36519 38.8581 8.43564 38.6781 8.53155V9.3614C38.8425 9.26354 39.0167 9.18917 39.1928 9.14024C39.3709 9.09131 39.5549 9.06587 39.7408 9.06587C40.0501 9.06587 40.283 9.12067 40.4376 9.23027C40.5922 9.33988 40.6686 9.50624 40.6686 9.7274V9.83309C40.5296 9.75872 40.373 9.70392 40.2047 9.66869C40.0364 9.63346 39.8524 9.61388 39.6567 9.61388C39.4668 9.61388 39.2907 9.63933 39.1282 9.68826C38.9658 9.73719 38.8151 9.81156 38.6781 9.90942C38.5411 10.0092 38.4393 10.1306 38.3708 10.2735C38.3043 10.4183 38.271 10.5827 38.271 10.7686C38.2729 11.0074 38.3277 11.2149 38.4354 11.3891C38.545 11.5652 38.6977 11.7022 38.8914 11.7981C39.0852 11.894 39.3083 11.943 39.5647 11.9449C39.8152 11.9449 40.0403 11.9038 40.2419 11.8236C40.4415 11.7433 40.6196 11.6239 40.7762 11.4654C40.8428 11.6161 40.9406 11.7296 41.0737 11.804C41.2048 11.8784 41.3692 11.9156 41.5708 11.9156C41.6863 11.9156 41.7881 11.9038 41.8781 11.8784C41.9662 11.8529 42.0425 11.8177 42.1052 11.7688V11.0446C42.0797 11.0583 42.0523 11.0681 42.0171 11.0759C41.9818 11.0818 41.9427 11.0857 41.9016 11.0857ZM36.5956 9.17156V11.8529H37.5879V8.3417H34.5542L34.5327 9.37511C34.5308 9.5219 34.5288 9.65107 34.5249 9.76459C34.521 9.87811 34.5151 9.98184 34.5073 10.0758C34.4975 10.1678 34.4857 10.2558 34.474 10.34C34.4583 10.4222 34.4427 10.5044 34.4212 10.5866C34.382 10.7432 34.3252 10.8587 34.2509 10.9291C34.1745 11.0035 34.0786 11.0368 33.9632 11.0368C33.924 11.0368 33.8888 11.0348 33.8536 11.0309C33.8183 11.025 33.787 11.0192 33.7596 11.0074V11.8177C33.7968 11.8392 33.8477 11.8529 33.9123 11.8647C33.9729 11.8745 34.0473 11.8803 34.1315 11.8803C34.3624 11.8725 34.5582 11.8275 34.7167 11.7472C34.8752 11.667 35.0024 11.5535 35.1023 11.4086C35.2021 11.2658 35.2804 11.0935 35.3352 10.8959C35.3743 10.7569 35.4037 10.6238 35.4252 10.4966C35.4467 10.3694 35.4624 10.2382 35.4722 10.1051C35.482 9.97205 35.4917 9.82526 35.4976 9.66477L35.5113 9.17156H36.5956ZM30.1349 7.77215H31.274C31.4893 7.77215 31.6537 7.82108 31.7711 7.91698C31.8885 8.01093 31.9492 8.14598 31.9512 8.32017C31.9492 8.49045 31.8885 8.62158 31.7711 8.71357C31.6537 8.80751 31.4893 8.85449 31.274 8.85449H30.1349V7.77215ZM30.1349 9.69217H31.409C31.5754 9.69217 31.7202 9.71762 31.8396 9.7685C31.959 9.81743 32.051 9.88985 32.1136 9.98575C32.1782 10.0836 32.2115 10.201 32.2115 10.34C32.2115 10.479 32.1782 10.5964 32.1136 10.6903C32.051 10.7863 31.959 10.8567 31.8396 10.9056C31.7202 10.9546 31.5754 10.98 31.409 10.98H30.1349V9.69217ZM31.5989 11.8529C31.8592 11.8529 32.094 11.8216 32.3015 11.757C32.509 11.6924 32.689 11.5965 32.8436 11.4654C33.1529 11.2051 33.3095 10.8665 33.3095 10.4516C33.3095 10.2735 33.284 10.111 33.2351 9.96423C33.1862 9.81939 33.1118 9.68826 33.0139 9.57278C32.9141 9.45731 32.8065 9.3614 32.691 9.28899C32.5735 9.21461 32.4463 9.16373 32.3093 9.13633C32.4228 9.08935 32.5266 9.02085 32.6205 8.93082C32.7125 8.84274 32.7869 8.73118 32.8436 8.60201C32.8984 8.47283 32.9278 8.32408 32.9278 8.15772C32.9278 7.8935 32.8652 7.67233 32.7419 7.48836C32.6186 7.30634 32.4463 7.16542 32.2232 7.07147C32.002 6.97557 31.7398 6.92664 31.4364 6.92664H29.121V11.8529" fill="white"/>
<path d="M80.1195 29.5583V26.8769H81.2312V26.0471H78.0311V26.8769H79.1291V29.5583H80.1195ZM75.7431 26.8221C75.8802 26.8221 76.0074 26.8437 76.1228 26.8906C76.2364 26.9376 76.3381 27.0081 76.4262 27.102C76.5143 27.1979 76.5808 27.3036 76.6259 27.421C76.6709 27.5365 76.6924 27.6657 76.6924 27.8066C76.6924 27.9436 76.6709 28.0708 76.6259 28.1863C76.5808 28.3037 76.5143 28.4075 76.4262 28.5034C76.3381 28.5993 76.2364 28.6678 76.1228 28.7147C76.0074 28.7617 75.8802 28.7852 75.7431 28.7852C75.614 28.7832 75.4926 28.7617 75.3811 28.7167C75.2695 28.6717 75.1697 28.611 75.0836 28.5347C74.9955 28.4544 74.925 28.3664 74.8702 28.2646V27.3486C74.925 27.2468 74.9955 27.1568 75.0836 27.0785C75.1697 26.9983 75.2695 26.9356 75.3811 26.8906C75.4926 26.8456 75.612 26.8221 75.7431 26.8221ZM76.025 25.9551C75.7706 25.9551 75.5474 25.9981 75.3556 26.0862C75.1619 26.1743 75.0014 26.3035 74.8702 26.4757V26.0471H73.8779V30.9655H74.8702V29.1297C75.0072 29.3019 75.1716 29.433 75.3635 29.5192C75.5533 29.6072 75.7745 29.6503 76.025 29.6503C76.5025 29.6503 76.8979 29.4741 77.2071 29.1218C77.3657 28.9437 77.4831 28.7441 77.5614 28.5249C77.6397 28.3057 77.6788 28.0669 77.6788 27.8066C77.6788 27.5424 77.6397 27.3016 77.5614 27.0824C77.4831 26.8632 77.3657 26.6655 77.2071 26.4914C77.0525 26.3113 76.8764 26.1782 76.6787 26.0882C76.483 26.0001 76.2638 25.9551 76.025 25.9551Z" fill="white"/>
</svg>
