<svg width="504" height="200" viewBox="0 0 504 200" fill="none" xmlns="http://www.w3.org/2000/svg">
<path d="M390.332 60.6683C426.588 96.9243 447.256 145.854 448.023 197.045H444.958C444.191 146.667 423.846 98.5164 388.165 62.8352C351.786 26.4568 302.447 6.01964 251 6.01964C199.553 6.01963 150.214 26.4568 113.835 62.8351C78.1539 98.5164 57.8088 146.667 57.0421 197.045H53.9774C54.7443 145.854 75.4124 96.9242 111.668 60.6683C148.621 23.7152 198.74 2.95523 251 2.95523C303.26 2.95524 353.379 23.7153 390.332 60.6683Z" stroke="url(#paint0_linear_5294_68348)" stroke-width="5.91047"/>
<rect y="200" width="2.22222" height="53.2863" transform="rotate(-90 0 200)" fill="url(#paint1_linear_5294_68348)"/>
<rect width="2.22222" height="53.2863" transform="matrix(-4.37114e-08 -1 -1 4.37114e-08 504.001 200)" fill="url(#paint2_linear_5294_68348)"/>
<rect x="419.628" y="200" width="2.22222" height="11.1013" transform="rotate(-90 419.628 200)" fill="url(#paint3_linear_5294_68348)"/>
<rect width="1.4767" height="11.8185" transform="matrix(0.588304 0.80864 -0.809394 0.587267 396.559 93.1211)" fill="url(#paint4_linear_5294_68348)"/>
<rect width="1.47765" height="11.8238" transform="matrix(0.309394 0.950934 -0.951179 0.30864 422.485 143.422)" fill="url(#paint5_linear_5294_68348)"/>
<rect width="1.47732" height="11.8136" transform="matrix(0.809394 0.587267 -0.588304 0.80864 356.344 53.2812)" fill="url(#paint6_linear_5294_68348)"/>
<rect width="1.47629" height="11.8083" transform="matrix(0.951179 0.30864 -0.309394 0.950934 305.771 27.8047)" fill="url(#paint7_linear_5294_68348)"/>
<rect x="249.79" y="19.1875" width="1.47632" height="11.8081" fill="url(#paint8_linear_5294_68348)"/>
<rect width="1.47629" height="11.8083" transform="matrix(0.951179 -0.30864 0.309394 0.950934 193.874 28.2617)" fill="url(#paint9_linear_5294_68348)"/>
<rect width="1.47732" height="11.8136" transform="matrix(0.809394 -0.587267 0.588304 0.80864 143.501 54.1523)" fill="url(#paint10_linear_5294_68348)"/>
<rect width="1.4767" height="11.8185" transform="matrix(0.588304 -0.80864 0.809394 0.587267 103.606 94.3125)" fill="url(#paint11_linear_5294_68348)"/>
<rect width="1.47765" height="11.8238" transform="matrix(0.309394 -0.950934 0.951179 0.30864 78.1016 144.824)" fill="url(#paint12_linear_5294_68348)"/>
<rect x="68.8281" y="200" width="2.22222" height="11.1013" transform="rotate(-90 68.8281 200)" fill="url(#paint13_linear_5294_68348)"/>
<defs>
<linearGradient id="paint0_linear_5294_68348" x1="50.9961" y1="200" x2="450.996" y2="200" gradientUnits="userSpaceOnUse">
<stop offset="0.5" stop-color="#3A861F"/>
<stop offset="1" stop-color="#D62017"/>
</linearGradient>
<linearGradient id="paint1_linear_5294_68348" x1="1.11111" y1="200" x2="1.11111" y2="253.286" gradientUnits="userSpaceOnUse">
<stop stop-color="#3C976C" stop-opacity="0"/>
<stop offset="1" stop-color="#3C976C"/>
</linearGradient>
<linearGradient id="paint2_linear_5294_68348" x1="1.11111" y1="0" x2="1.11111" y2="53.2863" gradientUnits="userSpaceOnUse">
<stop stop-color="#D32319" stop-opacity="0"/>
<stop offset="1" stop-color="#D42219"/>
</linearGradient>
<linearGradient id="paint3_linear_5294_68348" x1="420.739" y1="200" x2="420.739" y2="211.101" gradientUnits="userSpaceOnUse">
<stop stop-color="#C82B1F" stop-opacity="0"/>
<stop offset="1" stop-color="#C92B1F"/>
</linearGradient>
<linearGradient id="paint4_linear_5294_68348" x1="0.738352" y1="0" x2="0.738352" y2="11.8185" gradientUnits="userSpaceOnUse">
<stop stop-color="#B43B2A"/>
<stop offset="1" stop-color="#B33B2A" stop-opacity="0"/>
</linearGradient>
<linearGradient id="paint5_linear_5294_68348" x1="0.738827" y1="0" x2="0.738827" y2="11.8238" gradientUnits="userSpaceOnUse">
<stop stop-color="#C92B1F"/>
<stop offset="1" stop-color="#C82B1F" stop-opacity="0"/>
</linearGradient>
<linearGradient id="paint6_linear_5294_68348" x1="0.738659" y1="0" x2="0.738659" y2="11.8136" gradientUnits="userSpaceOnUse">
<stop stop-color="#92553D"/>
<stop offset="1" stop-color="#92553D" stop-opacity="0"/>
</linearGradient>
<linearGradient id="paint7_linear_5294_68348" x1="0.738143" y1="0" x2="0.738143" y2="11.8083" gradientUnits="userSpaceOnUse">
<stop stop-color="#697554"/>
<stop offset="1" stop-color="#687554" stop-opacity="0"/>
</linearGradient>
<linearGradient id="paint8_linear_5294_68348" x1="250.528" y1="19.1875" x2="250.528" y2="30.9956" gradientUnits="userSpaceOnUse">
<stop stop-color="#3A861F"/>
<stop offset="1" stop-color="#3A861F" stop-opacity="0"/>
</linearGradient>
<linearGradient id="paint9_linear_5294_68348" x1="0.738143" y1="0" x2="0.738143" y2="11.8083" gradientUnits="userSpaceOnUse">
<stop stop-color="#3A861F"/>
<stop offset="1" stop-color="#3A861F" stop-opacity="0"/>
</linearGradient>
<linearGradient id="paint10_linear_5294_68348" x1="0.738659" y1="0" x2="0.738659" y2="11.8136" gradientUnits="userSpaceOnUse">
<stop stop-color="#3A861F"/>
<stop offset="1" stop-color="#3A861F" stop-opacity="0"/>
</linearGradient>
<linearGradient id="paint11_linear_5294_68348" x1="0.738351" y1="0" x2="0.738351" y2="11.8185" gradientUnits="userSpaceOnUse">
<stop stop-color="#3A861F"/>
<stop offset="1" stop-color="#3A861F" stop-opacity="0"/>
</linearGradient>
<linearGradient id="paint12_linear_5294_68348" x1="0.738827" y1="0" x2="0.738827" y2="11.8238" gradientUnits="userSpaceOnUse">
<stop stop-color="#3A861F"/>
<stop offset="1" stop-color="#3A861F" stop-opacity="0"/>
</linearGradient>
<linearGradient id="paint13_linear_5294_68348" x1="69.9392" y1="200" x2="69.9392" y2="211.101" gradientUnits="userSpaceOnUse">
<stop stop-color="#3A861F"/>
<stop offset="1" stop-color="#3A861F" stop-opacity="0"/>
</linearGradient>
</defs>
</svg>
