<svg width="188" height="134" viewBox="0 0 188 134" fill="none" xmlns="http://www.w3.org/2000/svg">
<path d="M9.00977 111V100.979H4.56641C3.67318 100.979 2.99414 101.07 2.5293 101.252C2.06445 101.43 1.69303 101.746 1.41504 102.202C1.13704 102.658 0.998047 103.161 0.998047 103.713C0.998047 104.424 1.22819 105.023 1.68848 105.511C2.14876 105.998 2.8597 106.308 3.82129 106.44C3.47038 106.609 3.20378 106.775 3.02148 106.939C2.63411 107.295 2.26725 107.739 1.9209 108.272L0.177734 111H1.8457L3.17188 108.915C3.55924 108.313 3.87826 107.853 4.12891 107.534C4.37956 107.215 4.60286 106.992 4.79883 106.864C4.99935 106.737 5.20215 106.648 5.40723 106.598C5.55762 106.566 5.80371 106.55 6.14551 106.55H7.68359V111H9.00977ZM7.68359 105.401H4.83301C4.22689 105.401 3.75293 105.34 3.41113 105.217C3.06934 105.089 2.80957 104.889 2.63184 104.615C2.4541 104.337 2.36523 104.036 2.36523 103.713C2.36523 103.239 2.53613 102.849 2.87793 102.544C3.22428 102.239 3.76888 102.086 4.51172 102.086H7.68359V105.401ZM11.0469 103.74H12.2773V106.762H15.6885V103.74H16.9189V111H15.6885V107.78H12.2773V111H11.0469V103.74ZM18.1152 103.74H24.0146V104.759H21.6768V111H20.4531V104.759H18.1152V103.74ZM29.7637 110.104C29.3079 110.492 28.8682 110.765 28.4443 110.925C28.0251 111.084 27.5739 111.164 27.0908 111.164C26.2933 111.164 25.6803 110.97 25.252 110.583C24.8236 110.191 24.6094 109.692 24.6094 109.086C24.6094 108.73 24.6891 108.407 24.8486 108.115C25.0127 107.819 25.2246 107.582 25.4844 107.404C25.7487 107.227 26.0449 107.092 26.373 107.001C26.6146 106.937 26.9792 106.876 27.4668 106.816C28.4603 106.698 29.1917 106.557 29.6611 106.393C29.6657 106.224 29.668 106.117 29.668 106.071C29.668 105.57 29.5518 105.217 29.3193 105.012C29.0049 104.734 28.5378 104.595 27.918 104.595C27.3392 104.595 26.9108 104.697 26.6328 104.902C26.3594 105.103 26.1566 105.461 26.0244 105.976L24.8213 105.812C24.9307 105.297 25.1107 104.882 25.3613 104.567C25.612 104.248 25.9743 104.005 26.4482 103.836C26.9222 103.663 27.4714 103.576 28.0957 103.576C28.7155 103.576 29.2191 103.649 29.6064 103.795C29.9938 103.941 30.2786 104.125 30.4609 104.349C30.6432 104.567 30.7708 104.845 30.8438 105.183C30.8848 105.392 30.9053 105.771 30.9053 106.317V107.958C30.9053 109.102 30.9303 109.826 30.9805 110.132C31.0352 110.433 31.14 110.722 31.2949 111H30.0098C29.8822 110.745 29.8001 110.446 29.7637 110.104ZM29.6611 107.356C29.2145 107.539 28.5446 107.694 27.6514 107.821C27.1455 107.894 26.7878 107.976 26.5781 108.067C26.3685 108.159 26.2067 108.293 26.0928 108.471C25.9788 108.644 25.9219 108.838 25.9219 109.052C25.9219 109.38 26.0449 109.653 26.291 109.872C26.5417 110.091 26.9062 110.2 27.3848 110.2C27.8587 110.2 28.2803 110.098 28.6494 109.893C29.0186 109.683 29.2897 109.398 29.4629 109.038C29.5951 108.76 29.6611 108.35 29.6611 107.808V107.356ZM32.8262 103.74H34.0566V106.762H37.4678V103.74H38.6982V111H37.4678V107.78H34.0566V111H32.8262V103.74ZM40.5371 103.74H41.7676V106.577H43.3262C44.3424 106.577 45.124 106.775 45.6709 107.172C46.2223 107.564 46.498 108.106 46.498 108.799C46.498 109.405 46.2679 109.924 45.8076 110.357C45.3519 110.786 44.6204 111 43.6133 111H40.5371V103.74ZM41.7676 109.988H43.0596C43.8389 109.988 44.3949 109.893 44.7275 109.701C45.0602 109.51 45.2266 109.211 45.2266 108.806C45.2266 108.491 45.1035 108.211 44.8574 107.965C44.6113 107.719 44.0667 107.596 43.2236 107.596H41.7676V109.988Z" fill="white"/>
<path d="M135.025 12V1.97852H138.785C139.551 1.97852 140.164 2.08105 140.624 2.28613C141.089 2.48665 141.451 2.79883 141.711 3.22266C141.975 3.64193 142.107 4.08171 142.107 4.54199C142.107 4.97038 141.991 5.3737 141.759 5.75195C141.526 6.13021 141.175 6.43555 140.706 6.66797C141.312 6.8457 141.777 7.14876 142.101 7.57715C142.429 8.00553 142.593 8.51139 142.593 9.09473C142.593 9.56413 142.493 10.0016 142.292 10.4072C142.096 10.8083 141.852 11.1182 141.561 11.3369C141.269 11.5557 140.902 11.722 140.46 11.8359C140.022 11.9453 139.485 12 138.847 12H135.025ZM136.352 6.18945H138.519C139.106 6.18945 139.528 6.15072 139.783 6.07324C140.12 5.97298 140.373 5.80664 140.542 5.57422C140.715 5.3418 140.802 5.05013 140.802 4.69922C140.802 4.36654 140.722 4.07487 140.562 3.82422C140.403 3.56901 140.175 3.39583 139.879 3.30469C139.583 3.20898 139.075 3.16113 138.354 3.16113H136.352V6.18945ZM136.352 10.8174H138.847C139.275 10.8174 139.576 10.8014 139.749 10.7695C140.054 10.7148 140.31 10.6237 140.515 10.4961C140.72 10.3685 140.888 10.1839 141.021 9.94238C141.153 9.69629 141.219 9.41374 141.219 9.09473C141.219 8.72103 141.123 8.39746 140.932 8.12402C140.74 7.84603 140.474 7.65234 140.132 7.54297C139.795 7.42904 139.307 7.37207 138.669 7.37207H136.352V10.8174ZM144.377 12V1.97852H146.373L148.745 9.07422C148.964 9.73503 149.123 10.2295 149.224 10.5576C149.338 10.193 149.515 9.65755 149.757 8.95117L152.156 1.97852H153.94V12H152.662V3.6123L149.75 12H148.554L145.655 3.46875V12H144.377ZM158.63 12V3.16113H155.328V1.97852H163.271V3.16113H159.956V12H158.63ZM164.652 1.97852H172.534V12H171.201V3.16113H165.979V12H164.652V1.97852Z" fill="white"/>
<path d="M180.5 21C181.692 52.2863 138.5 97.1339 119.5 98.5C100.5 99.8661 85.5 128 69 121" stroke="#87A4BC" stroke-miterlimit="3.99393" stroke-linecap="round" stroke-dasharray="2 4"/>
<path d="M180.5 21C181.603 49.9635 161.376 81.8473 113.5 108.5C65 135.5 57.1045 140.778 45 121.5" stroke="#87A4BC" stroke-miterlimit="3.99393" stroke-linecap="round" stroke-dasharray="2 4"/>
<path d="M68.9999 121.779C61.4999 131 52.4999 129.5 46.4173 121.779" stroke="#87A4BC" stroke-miterlimit="3.99393" stroke-linecap="round" stroke-dasharray="2 4"/>
<g filter="url(#filter0_d_5077_52794)">
<circle cx="45" cy="121" r="2" fill="#0C99CF"/>
<circle cx="45" cy="121" r="2.5" stroke="white"/>
</g>
<g filter="url(#filter1_d_5077_52794)">
<circle cx="69" cy="121" r="2" fill="#0C99CF"/>
<circle cx="69" cy="121" r="2.5" stroke="white"/>
</g>
<g filter="url(#filter2_d_5077_52794)">
<circle cx="181" cy="21" r="3" fill="#0C99CF"/>
<circle cx="181" cy="21" r="4" stroke="white" stroke-width="2"/>
</g>
<path d="M67.2305 107.486L68.5566 107.821C68.2786 108.91 67.7773 109.742 67.0527 110.316C66.3327 110.886 65.4508 111.171 64.4072 111.171C63.3271 111.171 62.4476 110.952 61.7686 110.515C61.0941 110.073 60.5791 109.435 60.2236 108.601C59.8727 107.767 59.6973 106.871 59.6973 105.914C59.6973 104.87 59.8955 103.961 60.292 103.187C60.693 102.407 61.2604 101.817 61.9941 101.416C62.7324 101.01 63.5436 100.808 64.4277 100.808C65.4303 100.808 66.2734 101.063 66.957 101.573C67.6406 102.084 68.1169 102.801 68.3857 103.727L67.0801 104.034C66.8477 103.305 66.5104 102.774 66.0684 102.441C65.6263 102.109 65.0703 101.942 64.4004 101.942C63.6302 101.942 62.9854 102.127 62.4658 102.496C61.9508 102.865 61.5885 103.362 61.3789 103.986C61.1693 104.606 61.0645 105.246 61.0645 105.907C61.0645 106.759 61.1875 107.505 61.4336 108.143C61.6842 108.776 62.0716 109.25 62.5957 109.564C63.1198 109.879 63.6872 110.036 64.2979 110.036C65.0407 110.036 65.6696 109.822 66.1846 109.394C66.6995 108.965 67.0482 108.329 67.2305 107.486ZM75.7549 103.74V111H74.5312V108.17H73.8203C73.3874 108.17 73.0638 108.227 72.8496 108.341C72.64 108.45 72.3324 108.808 71.9268 109.414L70.8535 111H69.3291L70.6553 109.045C71.0609 108.448 71.4642 108.111 71.8652 108.033C71.1634 107.938 70.6416 107.685 70.2998 107.274C69.9626 106.864 69.7939 106.393 69.7939 105.859C69.7939 105.23 70.015 104.72 70.457 104.328C70.9036 103.936 71.5485 103.74 72.3916 103.74H75.7549ZM74.5312 104.759H72.7812C72.0475 104.759 71.5736 104.873 71.3594 105.101C71.1497 105.328 71.0449 105.595 71.0449 105.9C71.0449 106.333 71.1999 106.652 71.5098 106.857C71.8242 107.058 72.3779 107.158 73.1709 107.158H74.5312V104.759ZM77.6621 103.74H79.5762L81.4834 109.551L83.6025 103.74H85.373V111H84.1426V105.155L81.9961 111H80.8955L78.8652 104.875V111H77.6621V103.74ZM94.1641 103.74H95.3945V111H94.1641V103.74ZM87.2803 103.74H88.5107V106.577H90.0693C91.0856 106.577 91.8672 106.775 92.4141 107.172C92.9655 107.564 93.2412 108.106 93.2412 108.799C93.2412 109.405 93.0111 109.924 92.5508 110.357C92.0951 110.786 91.3636 111 90.3564 111H87.2803V103.74ZM88.5107 109.988H89.8027C90.582 109.988 91.138 109.893 91.4707 109.701C91.8034 109.51 91.9697 109.211 91.9697 108.806C91.9697 108.491 91.8467 108.211 91.6006 107.965C91.3545 107.719 90.8099 107.596 89.9668 107.596H88.5107V109.988ZM97.3223 103.74H98.5527V106.762H101.964V103.74H103.194V111H101.964V107.78H98.5527V111H97.3223V103.74ZM105.033 103.74H106.264V106.577H107.822C108.839 106.577 109.62 106.775 110.167 107.172C110.718 107.564 110.994 108.106 110.994 108.799C110.994 109.405 110.764 109.924 110.304 110.357C109.848 110.786 109.117 111 108.109 111H105.033V103.74ZM106.264 109.988H107.556C108.335 109.988 108.891 109.893 109.224 109.701C109.556 109.51 109.723 109.211 109.723 108.806C109.723 108.491 109.6 108.211 109.354 107.965C109.107 107.719 108.563 107.596 107.72 107.596H106.264V109.988Z" fill="white"/>
<defs>
<filter id="filter0_d_5077_52794" x="40.1634" y="117.388" width="9.67311" height="9.67311" filterUnits="userSpaceOnUse" color-interpolation-filters="sRGB">
<feFlood flood-opacity="0" result="BackgroundImageFix"/>
<feColorMatrix in="SourceAlpha" type="matrix" values="0 0 0 0 0 0 0 0 0 0 0 0 0 0 0 0 0 0 127 0" result="hardAlpha"/>
<feOffset dy="1.22437"/>
<feGaussianBlur stdDeviation="0.918278"/>
<feColorMatrix type="matrix" values="0 0 0 0 0 0 0 0 0 0 0 0 0 0 0 0 0 0 0.2 0"/>
<feBlend mode="normal" in2="BackgroundImageFix" result="effect1_dropShadow_5077_52794"/>
<feBlend mode="normal" in="SourceGraphic" in2="effect1_dropShadow_5077_52794" result="shape"/>
</filter>
<filter id="filter1_d_5077_52794" x="64.1634" y="117.388" width="9.67311" height="9.67311" filterUnits="userSpaceOnUse" color-interpolation-filters="sRGB">
<feFlood flood-opacity="0" result="BackgroundImageFix"/>
<feColorMatrix in="SourceAlpha" type="matrix" values="0 0 0 0 0 0 0 0 0 0 0 0 0 0 0 0 0 0 127 0" result="hardAlpha"/>
<feOffset dy="1.22437"/>
<feGaussianBlur stdDeviation="0.918278"/>
<feColorMatrix type="matrix" values="0 0 0 0 0 0 0 0 0 0 0 0 0 0 0 0 0 0 0.2 0"/>
<feBlend mode="normal" in2="BackgroundImageFix" result="effect1_dropShadow_5077_52794"/>
<feBlend mode="normal" in="SourceGraphic" in2="effect1_dropShadow_5077_52794" result="shape"/>
</filter>
<filter id="filter2_d_5077_52794" x="174.163" y="15.3878" width="13.6731" height="13.6731" filterUnits="userSpaceOnUse" color-interpolation-filters="sRGB">
<feFlood flood-opacity="0" result="BackgroundImageFix"/>
<feColorMatrix in="SourceAlpha" type="matrix" values="0 0 0 0 0 0 0 0 0 0 0 0 0 0 0 0 0 0 127 0" result="hardAlpha"/>
<feOffset dy="1.22437"/>
<feGaussianBlur stdDeviation="0.918278"/>
<feColorMatrix type="matrix" values="0 0 0 0 0 0 0 0 0 0 0 0 0 0 0 0 0 0 0.2 0"/>
<feBlend mode="normal" in2="BackgroundImageFix" result="effect1_dropShadow_5077_52794"/>
<feBlend mode="normal" in="SourceGraphic" in2="effect1_dropShadow_5077_52794" result="shape"/>
</filter>
</defs>
</svg>
