<svg width="234" height="112" viewBox="0 0 234 112" fill="none" xmlns="http://www.w3.org/2000/svg">
<path d="M1.12109 110V99.9785H2.44727V104.094H7.65625V99.9785H8.98242V110H7.65625V105.276H2.44727V110H1.12109ZM11.04 102.74H12.2705V108.277L15.6816 102.74H17.0078V110H15.7773V104.497L12.3662 110H11.04V102.74ZM18.8945 102.74H20.8086L22.7158 108.551L24.835 102.74H26.6055V110H25.375V104.155L23.2285 110H22.1279L20.0977 103.875V110H18.8945V102.74ZM33.6396 99.7393L34.7266 99.7529C34.6764 100.241 34.5671 100.58 34.3984 100.771C34.2344 100.963 34.0202 101.086 33.7559 101.141C33.4961 101.195 32.9834 101.223 32.2178 101.223C31.2015 101.223 30.5088 101.321 30.1396 101.517C29.7705 101.713 29.5039 102.027 29.3398 102.46C29.1803 102.888 29.0915 103.442 29.0732 104.121C29.3831 103.661 29.7454 103.317 30.1602 103.089C30.5749 102.856 31.042 102.74 31.5615 102.74C32.514 102.74 33.3024 103.068 33.9268 103.725C34.5511 104.376 34.8633 105.26 34.8633 106.377C34.8633 107.225 34.7061 107.92 34.3916 108.462C34.0771 109.004 33.7035 109.424 33.2705 109.72C32.8421 110.016 32.2565 110.164 31.5137 110.164C30.6523 110.164 29.9824 109.968 29.5039 109.576C29.0254 109.18 28.6585 108.674 28.4033 108.059C28.1481 107.443 28.0205 106.372 28.0205 104.846C28.0205 102.927 28.3441 101.635 28.9912 100.97C29.6429 100.304 30.6432 99.9717 31.9922 99.9717C32.8307 99.9717 33.307 99.958 33.4209 99.9307C33.5348 99.9033 33.6077 99.8395 33.6396 99.7393ZM33.5781 106.343C33.5781 105.586 33.3981 104.966 33.0381 104.483C32.6826 104 32.179 103.759 31.5273 103.759C30.8483 103.759 30.3242 104.014 29.9551 104.524C29.5859 105.035 29.4014 105.716 29.4014 106.568C29.4014 107.411 29.6042 108.056 30.0098 108.503C30.4199 108.95 30.9235 109.173 31.5205 109.173C32.1312 109.173 32.6257 108.915 33.0039 108.4C33.3867 107.881 33.5781 107.195 33.5781 106.343ZM35.8887 106.37C35.8887 105.026 36.2624 104.03 37.0098 103.383C37.6341 102.845 38.3952 102.576 39.293 102.576C40.291 102.576 41.1068 102.904 41.7402 103.561C42.3737 104.212 42.6904 105.115 42.6904 106.268C42.6904 107.202 42.5492 107.938 42.2666 108.476C41.9886 109.009 41.5807 109.424 41.043 109.72C40.5098 110.016 39.9264 110.164 39.293 110.164C38.2767 110.164 37.4541 109.838 36.8252 109.187C36.2008 108.535 35.8887 107.596 35.8887 106.37ZM37.1533 106.37C37.1533 107.3 37.3561 107.997 37.7617 108.462C38.1673 108.922 38.6777 109.152 39.293 109.152C39.9036 109.152 40.4118 108.92 40.8174 108.455C41.223 107.99 41.4258 107.282 41.4258 106.329C41.4258 105.431 41.2207 104.752 40.8105 104.292C40.4049 103.827 39.8991 103.595 39.293 103.595C38.6777 103.595 38.1673 103.825 37.7617 104.285C37.3561 104.745 37.1533 105.44 37.1533 106.37Z" fill="white"/>
<path d="M19.0869 31.9785H20.4131V40.8174H25.6357V31.9785H26.9688V40.8174H27.8848V44.7822H26.709V42H19.0869V31.9785ZM29.2861 34.7402H30.5166V40.2773L33.9277 34.7402H35.2539V42H34.0234V36.4971L30.6123 42H29.2861V34.7402ZM37.1133 34.7402H38.3438V37.7617H41.7549V34.7402H42.9854V42H41.7549V38.7803H38.3438V42H37.1133V34.7402ZM45.8154 34.7402H50.874V40.9883H51.6602V44.0576H50.6484V42H44.9336V44.0576H43.9219V40.9883H44.5713C45.4372 39.8125 45.8519 37.7298 45.8154 34.7402ZM46.8408 35.7588C46.7497 38.1149 46.3851 39.8581 45.7471 40.9883H49.6504V35.7588H46.8408ZM57.7578 41.1045C57.3021 41.4919 56.8623 41.7653 56.4385 41.9248C56.0192 42.0843 55.568 42.1641 55.085 42.1641C54.2874 42.1641 53.6745 41.9704 53.2461 41.583C52.8177 41.1911 52.6035 40.6921 52.6035 40.0859C52.6035 39.7305 52.6833 39.4069 52.8428 39.1152C53.0068 38.819 53.2188 38.582 53.4785 38.4043C53.7428 38.2266 54.0391 38.0921 54.3672 38.001C54.6087 37.9372 54.9733 37.8757 55.4609 37.8164C56.4544 37.6979 57.1859 37.5566 57.6553 37.3926C57.6598 37.224 57.6621 37.1169 57.6621 37.0713C57.6621 36.57 57.5459 36.2168 57.3135 36.0117C56.999 35.7337 56.5319 35.5947 55.9121 35.5947C55.3333 35.5947 54.9049 35.6973 54.627 35.9023C54.3535 36.1029 54.1507 36.4606 54.0186 36.9756L52.8154 36.8115C52.9248 36.2965 53.1048 35.8818 53.3555 35.5674C53.6061 35.2484 53.9684 35.0046 54.4424 34.8359C54.9163 34.6628 55.4655 34.5762 56.0898 34.5762C56.7096 34.5762 57.2132 34.6491 57.6006 34.7949C57.988 34.9408 58.2728 35.1253 58.4551 35.3486C58.6374 35.5674 58.765 35.8454 58.8379 36.1826C58.8789 36.3923 58.8994 36.7705 58.8994 37.3174V38.958C58.8994 40.1019 58.9245 40.8265 58.9746 41.1318C59.0293 41.4326 59.1341 41.722 59.2891 42H58.0039C57.8763 41.7448 57.7943 41.4463 57.7578 41.1045ZM57.6553 38.3564C57.2087 38.5387 56.5387 38.6937 55.6455 38.8213C55.1396 38.8942 54.7819 38.9762 54.5723 39.0674C54.3626 39.1585 54.2008 39.293 54.0869 39.4707C53.973 39.6439 53.916 39.8376 53.916 40.0518C53.916 40.3799 54.0391 40.6533 54.2852 40.8721C54.5358 41.0908 54.9004 41.2002 55.3789 41.2002C55.8529 41.2002 56.2744 41.0977 56.6436 40.8926C57.0127 40.6829 57.2839 40.3981 57.457 40.0381C57.5892 39.7601 57.6553 39.3499 57.6553 38.8076V38.3564ZM60.3555 38.3701C60.3555 37.0257 60.7292 36.0299 61.4766 35.3828C62.1009 34.8451 62.862 34.5762 63.7598 34.5762C64.7578 34.5762 65.5736 34.9043 66.207 35.5605C66.8405 36.2122 67.1572 37.1146 67.1572 38.2676C67.1572 39.2018 67.016 39.9378 66.7334 40.4756C66.4554 41.0088 66.0475 41.4235 65.5098 41.7197C64.9766 42.016 64.3932 42.1641 63.7598 42.1641C62.7435 42.1641 61.9209 41.8382 61.292 41.1865C60.6676 40.5348 60.3555 39.596 60.3555 38.3701ZM61.6201 38.3701C61.6201 39.2998 61.8229 39.9971 62.2285 40.4619C62.6341 40.9222 63.1445 41.1523 63.7598 41.1523C64.3704 41.1523 64.8786 40.9199 65.2842 40.4551C65.6898 39.9902 65.8926 39.2816 65.8926 38.3291C65.8926 37.4313 65.6875 36.7523 65.2773 36.292C64.8717 35.8271 64.3659 35.5947 63.7598 35.5947C63.1445 35.5947 62.6341 35.8249 62.2285 36.2852C61.8229 36.7454 61.6201 37.4404 61.6201 38.3701Z" fill="white"/>
<path d="M164.025 12V1.97852H167.785C168.551 1.97852 169.164 2.08105 169.624 2.28613C170.089 2.48665 170.451 2.79883 170.711 3.22266C170.975 3.64193 171.107 4.08171 171.107 4.54199C171.107 4.97038 170.991 5.3737 170.759 5.75195C170.526 6.13021 170.175 6.43555 169.706 6.66797C170.312 6.8457 170.777 7.14876 171.101 7.57715C171.429 8.00553 171.593 8.51139 171.593 9.09473C171.593 9.56413 171.493 10.0016 171.292 10.4072C171.096 10.8083 170.852 11.1182 170.561 11.3369C170.269 11.5557 169.902 11.722 169.46 11.8359C169.022 11.9453 168.485 12 167.847 12H164.025ZM165.352 6.18945H167.519C168.106 6.18945 168.528 6.15072 168.783 6.07324C169.12 5.97298 169.373 5.80664 169.542 5.57422C169.715 5.3418 169.802 5.05013 169.802 4.69922C169.802 4.36654 169.722 4.07487 169.562 3.82422C169.403 3.56901 169.175 3.39583 168.879 3.30469C168.583 3.20898 168.075 3.16113 167.354 3.16113H165.352V6.18945ZM165.352 10.8174H167.847C168.275 10.8174 168.576 10.8014 168.749 10.7695C169.054 10.7148 169.31 10.6237 169.515 10.4961C169.72 10.3685 169.888 10.1839 170.021 9.94238C170.153 9.69629 170.219 9.41374 170.219 9.09473C170.219 8.72103 170.123 8.39746 169.932 8.12402C169.74 7.84603 169.474 7.65234 169.132 7.54297C168.795 7.42904 168.307 7.37207 167.669 7.37207H165.352V10.8174ZM172.803 8.37012C172.803 7.02572 173.176 6.02995 173.924 5.38281C174.548 4.84505 175.309 4.57617 176.207 4.57617C177.205 4.57617 178.021 4.9043 178.654 5.56055C179.288 6.21224 179.604 7.11458 179.604 8.26758C179.604 9.20182 179.463 9.93783 179.181 10.4756C178.903 11.0088 178.495 11.4235 177.957 11.7197C177.424 12.016 176.84 12.1641 176.207 12.1641C175.191 12.1641 174.368 11.8382 173.739 11.1865C173.115 10.5348 172.803 9.59603 172.803 8.37012ZM174.067 8.37012C174.067 9.2998 174.27 9.99707 174.676 10.4619C175.081 10.9222 175.592 11.1523 176.207 11.1523C176.818 11.1523 177.326 10.9199 177.731 10.4551C178.137 9.99023 178.34 9.28158 178.34 8.3291C178.34 7.43132 178.135 6.75228 177.725 6.29199C177.319 5.82715 176.813 5.59473 176.207 5.59473C175.592 5.59473 175.081 5.82487 174.676 6.28516C174.27 6.74544 174.067 7.44043 174.067 8.37012ZM185.791 9.34082L187.001 9.49805C186.869 10.332 186.529 10.986 185.982 11.46C185.44 11.9294 184.772 12.1641 183.979 12.1641C182.986 12.1641 182.186 11.8405 181.58 11.1934C180.979 10.5417 180.678 9.6097 180.678 8.39746C180.678 7.61361 180.808 6.92773 181.067 6.33984C181.327 5.75195 181.721 5.31217 182.25 5.02051C182.783 4.72428 183.362 4.57617 183.986 4.57617C184.775 4.57617 185.42 4.77669 185.921 5.17773C186.422 5.57422 186.743 6.13932 186.885 6.87305L185.688 7.05762C185.575 6.56999 185.372 6.20312 185.08 5.95703C184.793 5.71094 184.444 5.58789 184.034 5.58789C183.414 5.58789 182.911 5.8112 182.523 6.25781C182.136 6.69987 181.942 7.40169 181.942 8.36328C181.942 9.33854 182.129 10.0472 182.503 10.4893C182.877 10.9313 183.364 11.1523 183.966 11.1523C184.449 11.1523 184.852 11.0042 185.176 10.708C185.499 10.4118 185.704 9.95605 185.791 9.34082ZM187.391 4.74023H193.29V5.75879H190.952V12H189.729V5.75879H187.391V4.74023ZM193.844 8.37012C193.844 7.02572 194.217 6.02995 194.965 5.38281C195.589 4.84505 196.35 4.57617 197.248 4.57617C198.246 4.57617 199.062 4.9043 199.695 5.56055C200.329 6.21224 200.646 7.11458 200.646 8.26758C200.646 9.20182 200.504 9.93783 200.222 10.4756C199.944 11.0088 199.536 11.4235 198.998 11.7197C198.465 12.016 197.882 12.1641 197.248 12.1641C196.232 12.1641 195.409 11.8382 194.78 11.1865C194.156 10.5348 193.844 9.59603 193.844 8.37012ZM195.108 8.37012C195.108 9.2998 195.311 9.99707 195.717 10.4619C196.122 10.9222 196.633 11.1523 197.248 11.1523C197.859 11.1523 198.367 10.9199 198.772 10.4551C199.178 9.99023 199.381 9.28158 199.381 8.3291C199.381 7.43132 199.176 6.75228 198.766 6.29199C198.36 5.82715 197.854 5.59473 197.248 5.59473C196.633 5.59473 196.122 5.82487 195.717 6.28516C195.311 6.74544 195.108 7.44043 195.108 8.37012ZM201.329 4.74023H202.56V6.11426C202.56 6.70671 202.594 7.13737 202.662 7.40625C202.735 7.67057 202.906 7.90299 203.175 8.10352C203.444 8.29948 203.781 8.39746 204.187 8.39746C204.651 8.39746 205.253 8.27441 205.991 8.02832V4.74023H207.222V12H205.991V9.07422C205.235 9.3112 204.528 9.42969 203.872 9.42969C203.321 9.42969 202.833 9.29069 202.409 9.0127C201.99 8.73014 201.705 8.38607 201.555 7.98047C201.404 7.57487 201.329 7.12826 201.329 6.64062V4.74023ZM209.088 4.74023H210.318V7.76172H213.729V4.74023H214.96V12H213.729V8.78027H210.318V12H209.088V4.74023ZM223.73 4.74023H224.961V12H223.73V4.74023ZM216.847 4.74023H218.077V7.57715H219.636C220.652 7.57715 221.434 7.77539 221.98 8.17188C222.532 8.5638 222.808 9.10612 222.808 9.79883C222.808 10.4049 222.577 10.9245 222.117 11.3574C221.661 11.7858 220.93 12 219.923 12H216.847V4.74023ZM218.077 10.9883H219.369C220.148 10.9883 220.704 10.8926 221.037 10.7012C221.37 10.5098 221.536 10.2113 221.536 9.80566C221.536 9.49121 221.413 9.21094 221.167 8.96484C220.921 8.71875 220.376 8.5957 219.533 8.5957H218.077V10.9883ZM226.882 4.74023H228.112V10.2773L231.523 4.74023H232.85V12H231.619V6.49707L228.208 12H226.882V4.74023ZM231.154 1.99219H231.995C231.927 2.56185 231.717 2.99935 231.366 3.30469C231.02 3.61003 230.557 3.7627 229.979 3.7627C229.395 3.7627 228.928 3.6123 228.577 3.31152C228.231 3.00618 228.023 2.56641 227.955 1.99219H228.796C228.86 2.30208 228.985 2.53451 229.172 2.68945C229.363 2.83984 229.618 2.91504 229.938 2.91504C230.307 2.91504 230.585 2.84212 230.771 2.69629C230.963 2.5459 231.09 2.3112 231.154 1.99219Z" fill="white"/>
<path d="M95.0254 12V1.97852H98.7852C99.5508 1.97852 100.164 2.08105 100.624 2.28613C101.089 2.48665 101.451 2.79883 101.711 3.22266C101.975 3.64193 102.107 4.08171 102.107 4.54199C102.107 4.97038 101.991 5.3737 101.759 5.75195C101.526 6.13021 101.175 6.43555 100.706 6.66797C101.312 6.8457 101.777 7.14876 102.101 7.57715C102.429 8.00553 102.593 8.51139 102.593 9.09473C102.593 9.56413 102.493 10.0016 102.292 10.4072C102.096 10.8083 101.852 11.1182 101.561 11.3369C101.269 11.5557 100.902 11.722 100.46 11.8359C100.022 11.9453 99.4847 12 98.8467 12H95.0254ZM96.3516 6.18945H98.5186C99.1064 6.18945 99.528 6.15072 99.7832 6.07324C100.12 5.97298 100.373 5.80664 100.542 5.57422C100.715 5.3418 100.802 5.05013 100.802 4.69922C100.802 4.36654 100.722 4.07487 100.562 3.82422C100.403 3.56901 100.175 3.39583 99.8789 3.30469C99.5827 3.20898 99.0745 3.16113 98.3545 3.16113H96.3516V6.18945ZM96.3516 10.8174H98.8467C99.2751 10.8174 99.5758 10.8014 99.749 10.7695C100.054 10.7148 100.31 10.6237 100.515 10.4961C100.72 10.3685 100.888 10.1839 101.021 9.94238C101.153 9.69629 101.219 9.41374 101.219 9.09473C101.219 8.72103 101.123 8.39746 100.932 8.12402C100.74 7.84603 100.474 7.65234 100.132 7.54297C99.7946 7.42904 99.307 7.37207 98.6689 7.37207H96.3516V10.8174ZM104.377 12V1.97852H106.373L108.745 9.07422C108.964 9.73503 109.123 10.2295 109.224 10.5576C109.338 10.193 109.515 9.65755 109.757 8.95117L112.156 1.97852H113.94V12H112.662V3.6123L109.75 12H108.554L105.655 3.46875V12H104.377ZM118.63 12V3.16113H115.328V1.97852H123.271V3.16113H119.956V12H118.63ZM124.652 1.97852H132.534V12H131.201V3.16113H125.979V12H124.652V1.97852Z" fill="white"/>
<path d="M5.10059 73.9785H6.42676V82.8174H9.75586V73.9785H11.082V82.8174H14.4111V73.9785H15.7373V84H5.10059V73.9785ZM22.498 83.1045C22.0423 83.4919 21.6025 83.7653 21.1787 83.9248C20.7594 84.0843 20.3083 84.1641 19.8252 84.1641C19.0277 84.1641 18.4147 83.9704 17.9863 83.583C17.5579 83.1911 17.3438 82.6921 17.3438 82.0859C17.3438 81.7305 17.4235 81.4069 17.583 81.1152C17.7471 80.819 17.959 80.582 18.2188 80.4043C18.4831 80.2266 18.7793 80.0921 19.1074 80.001C19.349 79.9372 19.7135 79.8757 20.2012 79.8164C21.1947 79.6979 21.9261 79.5566 22.3955 79.3926C22.4001 79.224 22.4023 79.1169 22.4023 79.0713C22.4023 78.57 22.2861 78.2168 22.0537 78.0117C21.7393 77.7337 21.2721 77.5947 20.6523 77.5947C20.0736 77.5947 19.6452 77.6973 19.3672 77.9023C19.0938 78.1029 18.891 78.4606 18.7588 78.9756L17.5557 78.8115C17.665 78.2965 17.8451 77.8818 18.0957 77.5674C18.3464 77.2484 18.7087 77.0046 19.1826 76.8359C19.6566 76.6628 20.2057 76.5762 20.8301 76.5762C21.4499 76.5762 21.9535 76.6491 22.3408 76.7949C22.7282 76.9408 23.013 77.1253 23.1953 77.3486C23.3776 77.5674 23.5052 77.8454 23.5781 78.1826C23.6191 78.3923 23.6396 78.7705 23.6396 79.3174V80.958C23.6396 82.1019 23.6647 82.8265 23.7148 83.1318C23.7695 83.4326 23.8743 83.722 24.0293 84H22.7441C22.6165 83.7448 22.5345 83.4463 22.498 83.1045ZM22.3955 80.3564C21.9489 80.5387 21.279 80.6937 20.3857 80.8213C19.8799 80.8942 19.5221 80.9762 19.3125 81.0674C19.1029 81.1585 18.9411 81.293 18.8271 81.4707C18.7132 81.6439 18.6562 81.8376 18.6562 82.0518C18.6562 82.3799 18.7793 82.6533 19.0254 82.8721C19.276 83.0908 19.6406 83.2002 20.1191 83.2002C20.5931 83.2002 21.0146 83.0977 21.3838 82.8926C21.7529 82.6829 22.0241 82.3981 22.1973 82.0381C22.3294 81.7601 22.3955 81.3499 22.3955 80.8076V80.3564ZM25.5605 76.7402H26.791V79.7617H30.2021V76.7402H31.4326V84H30.2021V80.7803H26.791V84H25.5605V76.7402ZM32.4717 84L35.124 80.2266L32.6699 76.7402H34.208L35.3223 78.4424C35.5319 78.766 35.7005 79.0371 35.8281 79.2559C36.0286 78.9551 36.2132 78.6885 36.3818 78.4561L37.6055 76.7402H39.0752L36.5664 80.1582L39.2666 84H37.7559L36.2656 81.7441L35.8691 81.1357L33.9619 84H32.4717ZM44.8652 83.1045C44.4095 83.4919 43.9697 83.7653 43.5459 83.9248C43.1266 84.0843 42.6755 84.1641 42.1924 84.1641C41.3949 84.1641 40.7819 83.9704 40.3535 83.583C39.9251 83.1911 39.7109 82.6921 39.7109 82.0859C39.7109 81.7305 39.7907 81.4069 39.9502 81.1152C40.1143 80.819 40.3262 80.582 40.5859 80.4043C40.8503 80.2266 41.1465 80.0921 41.4746 80.001C41.7161 79.9372 42.0807 79.8757 42.5684 79.8164C43.5618 79.6979 44.2933 79.5566 44.7627 79.3926C44.7673 79.224 44.7695 79.1169 44.7695 79.0713C44.7695 78.57 44.6533 78.2168 44.4209 78.0117C44.1064 77.7337 43.6393 77.5947 43.0195 77.5947C42.4408 77.5947 42.0124 77.6973 41.7344 77.9023C41.4609 78.1029 41.2581 78.4606 41.126 78.9756L39.9229 78.8115C40.0322 78.2965 40.2122 77.8818 40.4629 77.5674C40.7135 77.2484 41.0758 77.0046 41.5498 76.8359C42.0238 76.6628 42.5729 76.5762 43.1973 76.5762C43.8171 76.5762 44.3206 76.6491 44.708 76.7949C45.0954 76.9408 45.3802 77.1253 45.5625 77.3486C45.7448 77.5674 45.8724 77.8454 45.9453 78.1826C45.9863 78.3923 46.0068 78.7705 46.0068 79.3174V80.958C46.0068 82.1019 46.0319 82.8265 46.082 83.1318C46.1367 83.4326 46.2415 83.722 46.3965 84H45.1113C44.9837 83.7448 44.9017 83.4463 44.8652 83.1045ZM44.7627 80.3564C44.3161 80.5387 43.6462 80.6937 42.7529 80.8213C42.2471 80.8942 41.8893 80.9762 41.6797 81.0674C41.4701 81.1585 41.3083 81.293 41.1943 81.4707C41.0804 81.6439 41.0234 81.8376 41.0234 82.0518C41.0234 82.3799 41.1465 82.6533 41.3926 82.8721C41.6432 83.0908 42.0078 83.2002 42.4863 83.2002C42.9603 83.2002 43.3818 83.0977 43.751 82.8926C44.1201 82.6829 44.3913 82.3981 44.5645 82.0381C44.6966 81.7601 44.7627 81.3499 44.7627 80.8076V80.3564ZM47.9209 76.7402H49.1514V82.2773L52.5625 76.7402H53.8887V84H52.6582V78.4971L49.2471 84H47.9209V76.7402ZM52.1934 73.9922H53.0342C52.9658 74.5618 52.7562 74.9993 52.4053 75.3047C52.0589 75.61 51.5964 75.7627 51.0176 75.7627C50.4342 75.7627 49.9671 75.6123 49.6162 75.3115C49.2699 75.0062 49.0625 74.5664 48.9941 73.9922H49.835C49.8988 74.3021 50.0241 74.5345 50.2109 74.6895C50.4023 74.8398 50.6576 74.915 50.9766 74.915C51.3457 74.915 51.6237 74.8421 51.8105 74.6963C52.002 74.5459 52.1296 74.3112 52.1934 73.9922Z" fill="white"/>
<path d="M160 18C173.5 40 113.5 127.5 68.5 50" stroke="#87A4BC" stroke-miterlimit="3.99393" stroke-linecap="round" stroke-dasharray="2 4"/>
<path d="M141 21.5C141 67 103.5 112.5 56 104" stroke="#87A4BC" stroke-miterlimit="3.99393" stroke-linecap="round" stroke-dasharray="2 4"/>
<path d="M67.9998 49.9998C68.4998 50.9998 75.9999 70.9998 65.9999 80.9998" stroke="#87A4BC" stroke-miterlimit="3.99393" stroke-linecap="round" stroke-dasharray="2 4"/>
<path d="M65.9997 80.9999C66.4997 81.9999 72.4997 95.4999 55.9997 104" stroke="#87A4BC" stroke-miterlimit="3.99393" stroke-linecap="round" stroke-dasharray="2 4"/>
<path d="M160.5 18.0005C158.5 27.0005 147.5 30.5004 141 21.5005" stroke="#87A4BC" stroke-miterlimit="3.99393" stroke-linecap="round" stroke-dasharray="2 4"/>
<g filter="url(#filter0_d_5077_52777)">
<circle cx="66" cy="81" r="2" fill="#0C99CF"/>
<circle cx="66" cy="81" r="2.5" stroke="white"/>
</g>
<g filter="url(#filter1_d_5077_52777)">
<circle cx="68" cy="50" r="2" fill="#0C99CF"/>
<circle cx="68" cy="50" r="2.5" stroke="white"/>
</g>
<g filter="url(#filter2_d_5077_52777)">
<circle cx="56" cy="104" r="2" fill="#0C99CF"/>
<circle cx="56" cy="104" r="2.5" stroke="white"/>
</g>
<g filter="url(#filter3_d_5077_52777)">
<circle cx="160" cy="18" r="2" fill="#0C99CF"/>
<circle cx="160" cy="18" r="2.5" stroke="white"/>
</g>
<g filter="url(#filter4_d_5077_52777)">
<circle cx="141" cy="21" r="3" fill="#0C99CF"/>
<circle cx="141" cy="21" r="4" stroke="white" stroke-width="2"/>
</g>
<defs>
<filter id="filter0_d_5077_52777" x="61.1634" y="77.3878" width="9.67311" height="9.67311" filterUnits="userSpaceOnUse" color-interpolation-filters="sRGB">
<feFlood flood-opacity="0" result="BackgroundImageFix"/>
<feColorMatrix in="SourceAlpha" type="matrix" values="0 0 0 0 0 0 0 0 0 0 0 0 0 0 0 0 0 0 127 0" result="hardAlpha"/>
<feOffset dy="1.22437"/>
<feGaussianBlur stdDeviation="0.918278"/>
<feColorMatrix type="matrix" values="0 0 0 0 0 0 0 0 0 0 0 0 0 0 0 0 0 0 0.2 0"/>
<feBlend mode="normal" in2="BackgroundImageFix" result="effect1_dropShadow_5077_52777"/>
<feBlend mode="normal" in="SourceGraphic" in2="effect1_dropShadow_5077_52777" result="shape"/>
</filter>
<filter id="filter1_d_5077_52777" x="63.1634" y="46.3878" width="9.67311" height="9.67311" filterUnits="userSpaceOnUse" color-interpolation-filters="sRGB">
<feFlood flood-opacity="0" result="BackgroundImageFix"/>
<feColorMatrix in="SourceAlpha" type="matrix" values="0 0 0 0 0 0 0 0 0 0 0 0 0 0 0 0 0 0 127 0" result="hardAlpha"/>
<feOffset dy="1.22437"/>
<feGaussianBlur stdDeviation="0.918278"/>
<feColorMatrix type="matrix" values="0 0 0 0 0 0 0 0 0 0 0 0 0 0 0 0 0 0 0.2 0"/>
<feBlend mode="normal" in2="BackgroundImageFix" result="effect1_dropShadow_5077_52777"/>
<feBlend mode="normal" in="SourceGraphic" in2="effect1_dropShadow_5077_52777" result="shape"/>
</filter>
<filter id="filter2_d_5077_52777" x="51.1634" y="100.388" width="9.67311" height="9.67311" filterUnits="userSpaceOnUse" color-interpolation-filters="sRGB">
<feFlood flood-opacity="0" result="BackgroundImageFix"/>
<feColorMatrix in="SourceAlpha" type="matrix" values="0 0 0 0 0 0 0 0 0 0 0 0 0 0 0 0 0 0 127 0" result="hardAlpha"/>
<feOffset dy="1.22437"/>
<feGaussianBlur stdDeviation="0.918278"/>
<feColorMatrix type="matrix" values="0 0 0 0 0 0 0 0 0 0 0 0 0 0 0 0 0 0 0.2 0"/>
<feBlend mode="normal" in2="BackgroundImageFix" result="effect1_dropShadow_5077_52777"/>
<feBlend mode="normal" in="SourceGraphic" in2="effect1_dropShadow_5077_52777" result="shape"/>
</filter>
<filter id="filter3_d_5077_52777" x="155.163" y="14.3878" width="9.67311" height="9.67311" filterUnits="userSpaceOnUse" color-interpolation-filters="sRGB">
<feFlood flood-opacity="0" result="BackgroundImageFix"/>
<feColorMatrix in="SourceAlpha" type="matrix" values="0 0 0 0 0 0 0 0 0 0 0 0 0 0 0 0 0 0 127 0" result="hardAlpha"/>
<feOffset dy="1.22437"/>
<feGaussianBlur stdDeviation="0.918278"/>
<feColorMatrix type="matrix" values="0 0 0 0 0 0 0 0 0 0 0 0 0 0 0 0 0 0 0.2 0"/>
<feBlend mode="normal" in2="BackgroundImageFix" result="effect1_dropShadow_5077_52777"/>
<feBlend mode="normal" in="SourceGraphic" in2="effect1_dropShadow_5077_52777" result="shape"/>
</filter>
<filter id="filter4_d_5077_52777" x="134.163" y="15.3878" width="13.6731" height="13.6731" filterUnits="userSpaceOnUse" color-interpolation-filters="sRGB">
<feFlood flood-opacity="0" result="BackgroundImageFix"/>
<feColorMatrix in="SourceAlpha" type="matrix" values="0 0 0 0 0 0 0 0 0 0 0 0 0 0 0 0 0 0 127 0" result="hardAlpha"/>
<feOffset dy="1.22437"/>
<feGaussianBlur stdDeviation="0.918278"/>
<feColorMatrix type="matrix" values="0 0 0 0 0 0 0 0 0 0 0 0 0 0 0 0 0 0 0.2 0"/>
<feBlend mode="normal" in2="BackgroundImageFix" result="effect1_dropShadow_5077_52777"/>
<feBlend mode="normal" in="SourceGraphic" in2="effect1_dropShadow_5077_52777" result="shape"/>
</filter>
</defs>
</svg>
