<svg width="190" height="121" viewBox="0 0 190 121" fill="none" xmlns="http://www.w3.org/2000/svg">
<path d="M34.0254 12V1.97852H37.7852C38.5508 1.97852 39.1637 2.08105 39.624 2.28613C40.0889 2.48665 40.4512 2.79883 40.7109 3.22266C40.9753 3.64193 41.1074 4.08171 41.1074 4.54199C41.1074 4.97038 40.9912 5.3737 40.7588 5.75195C40.5264 6.13021 40.1755 6.43555 39.7061 6.66797C40.3122 6.8457 40.777 7.14876 41.1006 7.57715C41.4287 8.00553 41.5928 8.51139 41.5928 9.09473C41.5928 9.56413 41.4925 10.0016 41.292 10.4072C41.096 10.8083 40.8522 11.1182 40.5605 11.3369C40.2689 11.5557 39.902 11.722 39.46 11.8359C39.0225 11.9453 38.4847 12 37.8467 12H34.0254ZM35.3516 6.18945H37.5186C38.1064 6.18945 38.528 6.15072 38.7832 6.07324C39.1204 5.97298 39.3734 5.80664 39.542 5.57422C39.7152 5.3418 39.8018 5.05013 39.8018 4.69922C39.8018 4.36654 39.722 4.07487 39.5625 3.82422C39.403 3.56901 39.1751 3.39583 38.8789 3.30469C38.5827 3.20898 38.0745 3.16113 37.3545 3.16113H35.3516V6.18945ZM35.3516 10.8174H37.8467C38.2751 10.8174 38.5758 10.8014 38.749 10.7695C39.0544 10.7148 39.3096 10.6237 39.5146 10.4961C39.7197 10.3685 39.8883 10.1839 40.0205 9.94238C40.1527 9.69629 40.2188 9.41374 40.2188 9.09473C40.2188 8.72103 40.123 8.39746 39.9316 8.12402C39.7402 7.84603 39.4736 7.65234 39.1318 7.54297C38.7946 7.42904 38.307 7.37207 37.6689 7.37207H35.3516V10.8174ZM43.377 12V1.97852H45.373L47.7451 9.07422C47.9639 9.73503 48.1234 10.2295 48.2236 10.5576C48.3376 10.193 48.5153 9.65755 48.7568 8.95117L51.1562 1.97852H52.9404V12H51.6621V3.6123L48.75 12H47.5537L44.6553 3.46875V12H43.377ZM57.6299 12V3.16113H54.3281V1.97852H62.2715V3.16113H58.9561V12H57.6299ZM63.6523 1.97852H71.5342V12H70.2012V3.16113H64.9785V12H63.6523V1.97852Z" fill="white"/>
<path d="M80 21.5C82.5 40.5 69 63 52.5 65" stroke="#87A4BC" stroke-miterlimit="3.99393" stroke-linecap="round" stroke-dasharray="2 4"/>
<path d="M99.0004 17.9996C101.5 21.4996 89.5003 36.9996 80.0004 20.9996" stroke="#87A4BC" stroke-miterlimit="3.99393" stroke-linecap="round" stroke-dasharray="2 4"/>
<path d="M99.0004 17.9996C109 21.4996 89.5004 45.9996 80.0004 20.9996" stroke="#87A4BC" stroke-miterlimit="3.99393" stroke-linecap="round" stroke-dasharray="2 4"/>
<path d="M80.0003 21.4997C96.5004 41.4997 72.5003 66.4997 89.5003 79.9997" stroke="#87A4BC" stroke-miterlimit="3.99393" stroke-linecap="round" stroke-dasharray="2 4"/>
<path d="M109 91.9997C115 101.5 98.5 114 89 99.2976" stroke="#87A4BC" stroke-miterlimit="3.99393" stroke-linecap="round" stroke-dasharray="2 4"/>
<path d="M117 79.0003C124.5 85.0003 116 95.5003 110.476 92.3785" stroke="#87A4BC" stroke-miterlimit="3.99393" stroke-linecap="round" stroke-dasharray="2 4"/>
<path d="M89.0004 79.9998C103 29.4999 148.5 56.9999 117.5 78.9999" stroke="#87A4BC" stroke-miterlimit="3.99393" stroke-linecap="round" stroke-dasharray="2 4"/>
<path d="M52.5 65.0004C58.0001 74.5004 54.5001 85.0004 51.5001 88.5004" stroke="#87A4BC" stroke-miterlimit="3.99393" stroke-linecap="round" stroke-dasharray="2 4"/>
<path d="M73.4999 82.5C61.9999 70.4999 54.4999 85 52.4998 89.9999" stroke="#87A4BC" stroke-miterlimit="3.99393" stroke-linecap="round" stroke-dasharray="2 4"/>
<path d="M73.5 82.5C35 81.5 69.5 115.5 88.9999 99.5" stroke="#87A4BC" stroke-miterlimit="3.99393" stroke-linecap="round" stroke-dasharray="2 4"/>
<g filter="url(#filter0_d_5077_52669)">
<circle cx="52" cy="90" r="2" fill="#0C99CF"/>
<circle cx="52" cy="90" r="2.5" stroke="white"/>
</g>
<g filter="url(#filter1_d_5077_52669)">
<circle cx="73" cy="83" r="2" fill="#0C99CF"/>
<circle cx="73" cy="83" r="2.5" stroke="white"/>
</g>
<g filter="url(#filter2_d_5077_52669)">
<circle cx="89" cy="99" r="2" fill="#0C99CF"/>
<circle cx="89" cy="99" r="2.5" stroke="white"/>
</g>
<g filter="url(#filter3_d_5077_52669)">
<circle cx="117" cy="79" r="2" fill="#0C99CF"/>
<circle cx="117" cy="79" r="2.5" stroke="white"/>
</g>
<g filter="url(#filter4_d_5077_52669)">
<circle cx="89" cy="80" r="2" fill="#0C99CF"/>
<circle cx="89" cy="80" r="2.5" stroke="white"/>
</g>
<g filter="url(#filter5_d_5077_52669)">
<circle cx="109" cy="92" r="2" fill="#0C99CF"/>
<circle cx="109" cy="92" r="2.5" stroke="white"/>
</g>
<g filter="url(#filter6_d_5077_52669)">
<circle cx="80" cy="21" r="3" fill="#0C99CF"/>
<circle cx="80" cy="21" r="4" stroke="white" stroke-width="2"/>
</g>
<path d="M7.09375 54.9785H14.9756V65H13.6426V56.1611H8.41992V65H7.09375V54.9785ZM16.9307 67.7959L16.7939 66.6406C17.0628 66.7135 17.2975 66.75 17.498 66.75C17.7715 66.75 17.9902 66.7044 18.1543 66.6133C18.3184 66.5221 18.4528 66.3945 18.5576 66.2305C18.6351 66.1074 18.7604 65.8021 18.9336 65.3145C18.9564 65.2461 18.9928 65.1458 19.043 65.0137L16.2881 57.7402H17.6143L19.125 61.9443C19.321 62.4775 19.4964 63.0381 19.6514 63.626C19.7926 63.0609 19.9613 62.5094 20.1572 61.9717L21.709 57.7402H22.9395L20.1777 65.123C19.8815 65.9206 19.6514 66.4697 19.4873 66.7705C19.2686 67.1761 19.0179 67.4723 18.7354 67.6592C18.4528 67.8506 18.1156 67.9463 17.7236 67.9463C17.4867 67.9463 17.2223 67.8962 16.9307 67.7959ZM28.5586 62.3408L29.7686 62.498C29.6364 63.332 29.2969 63.986 28.75 64.46C28.2077 64.9294 27.54 65.1641 26.7471 65.1641C25.7536 65.1641 24.9538 64.8405 24.3477 64.1934C23.7461 63.5417 23.4453 62.6097 23.4453 61.3975C23.4453 60.6136 23.5752 59.9277 23.835 59.3398C24.0947 58.752 24.4889 58.3122 25.0176 58.0205C25.5508 57.7243 26.1296 57.5762 26.7539 57.5762C27.5423 57.5762 28.1872 57.7767 28.6885 58.1777C29.1898 58.5742 29.5111 59.1393 29.6523 59.873L28.4561 60.0576C28.3421 59.57 28.1393 59.2031 27.8477 58.957C27.5605 58.7109 27.2119 58.5879 26.8018 58.5879C26.182 58.5879 25.6784 58.8112 25.291 59.2578C24.9036 59.6999 24.71 60.4017 24.71 61.3633C24.71 62.3385 24.8968 63.0472 25.2705 63.4893C25.6442 63.9313 26.1318 64.1523 26.7334 64.1523C27.2165 64.1523 27.6198 64.0042 27.9434 63.708C28.2669 63.4118 28.472 62.9561 28.5586 62.3408ZM35.5586 64.1045C35.1029 64.4919 34.6631 64.7653 34.2393 64.9248C33.82 65.0843 33.3688 65.1641 32.8857 65.1641C32.0882 65.1641 31.4753 64.9704 31.0469 64.583C30.6185 64.1911 30.4043 63.6921 30.4043 63.0859C30.4043 62.7305 30.484 62.4069 30.6436 62.1152C30.8076 61.819 31.0195 61.582 31.2793 61.4043C31.5436 61.2266 31.8398 61.0921 32.168 61.001C32.4095 60.9372 32.7741 60.8757 33.2617 60.8164C34.2552 60.6979 34.9867 60.5566 35.4561 60.3926C35.4606 60.224 35.4629 60.1169 35.4629 60.0713C35.4629 59.57 35.3467 59.2168 35.1143 59.0117C34.7998 58.7337 34.3327 58.5947 33.7129 58.5947C33.1341 58.5947 32.7057 58.6973 32.4277 58.9023C32.1543 59.1029 31.9515 59.4606 31.8193 59.9756L30.6162 59.8115C30.7256 59.2965 30.9056 58.8818 31.1562 58.5674C31.4069 58.2484 31.7692 58.0046 32.2432 57.8359C32.7171 57.6628 33.2663 57.5762 33.8906 57.5762C34.5104 57.5762 35.014 57.6491 35.4014 57.7949C35.7887 57.9408 36.0736 58.1253 36.2559 58.3486C36.4382 58.5674 36.5658 58.8454 36.6387 59.1826C36.6797 59.3923 36.7002 59.7705 36.7002 60.3174V61.958C36.7002 63.1019 36.7253 63.8265 36.7754 64.1318C36.8301 64.4326 36.9349 64.722 37.0898 65H35.8047C35.6771 64.7448 35.5951 64.4463 35.5586 64.1045ZM35.4561 61.3564C35.0094 61.5387 34.3395 61.6937 33.4463 61.8213C32.9404 61.8942 32.5827 61.9762 32.373 62.0674C32.1634 62.1585 32.0016 62.293 31.8877 62.4707C31.7738 62.6439 31.7168 62.8376 31.7168 63.0518C31.7168 63.3799 31.8398 63.6533 32.0859 63.8721C32.3366 64.0908 32.7012 64.2002 33.1797 64.2002C33.6536 64.2002 34.0752 64.0977 34.4443 63.8926C34.8135 63.6829 35.0846 63.3981 35.2578 63.0381C35.39 62.7601 35.4561 62.3499 35.4561 61.8076V61.3564ZM38.6211 57.7402H39.8516V60.7617H43.2627V57.7402H44.4932V65H43.2627V61.7803H39.8516V65H38.6211V57.7402Z" fill="white"/>
<path d="M0.0615234 95L3.9375 89.7773L0.519531 84.9785H2.09863L3.91699 87.5488C4.29525 88.082 4.56413 88.4922 4.72363 88.7793C4.94694 88.4147 5.21126 88.0342 5.5166 87.6377L7.5332 84.9785H8.97559L5.45508 89.7021L9.24902 95H7.6084L5.08594 91.4248C4.94466 91.2197 4.79883 90.9964 4.64844 90.7549C4.42513 91.1195 4.26562 91.3701 4.16992 91.5068L1.6543 95H0.0615234ZM14.998 94.1045C14.5423 94.4919 14.1025 94.7653 13.6787 94.9248C13.2594 95.0843 12.8083 95.1641 12.3252 95.1641C11.5277 95.1641 10.9147 94.9704 10.4863 94.583C10.0579 94.1911 9.84375 93.6921 9.84375 93.0859C9.84375 92.7305 9.9235 92.4069 10.083 92.1152C10.2471 91.819 10.459 91.582 10.7188 91.4043C10.9831 91.2266 11.2793 91.0921 11.6074 91.001C11.849 90.9372 12.2135 90.8757 12.7012 90.8164C13.6947 90.6979 14.4261 90.5566 14.8955 90.3926C14.9001 90.224 14.9023 90.1169 14.9023 90.0713C14.9023 89.57 14.7861 89.2168 14.5537 89.0117C14.2393 88.7337 13.7721 88.5947 13.1523 88.5947C12.5736 88.5947 12.1452 88.6973 11.8672 88.9023C11.5938 89.1029 11.391 89.4606 11.2588 89.9756L10.0557 89.8115C10.165 89.2965 10.3451 88.8818 10.5957 88.5674C10.8464 88.2484 11.2087 88.0046 11.6826 87.8359C12.1566 87.6628 12.7057 87.5762 13.3301 87.5762C13.9499 87.5762 14.4535 87.6491 14.8408 87.7949C15.2282 87.9408 15.513 88.1253 15.6953 88.3486C15.8776 88.5674 16.0052 88.8454 16.0781 89.1826C16.1191 89.3923 16.1396 89.7705 16.1396 90.3174V91.958C16.1396 93.1019 16.1647 93.8265 16.2148 94.1318C16.2695 94.4326 16.3743 94.722 16.5293 95H15.2441C15.1165 94.7448 15.0345 94.4463 14.998 94.1045ZM14.8955 91.3564C14.4489 91.5387 13.779 91.6937 12.8857 91.8213C12.3799 91.8942 12.0221 91.9762 11.8125 92.0674C11.6029 92.1585 11.4411 92.293 11.3271 92.4707C11.2132 92.6439 11.1562 92.8376 11.1562 93.0518C11.1562 93.3799 11.2793 93.6533 11.5254 93.8721C11.776 94.0908 12.1406 94.2002 12.6191 94.2002C13.0931 94.2002 13.5146 94.0977 13.8838 93.8926C14.2529 93.6829 14.5241 93.3981 14.6973 93.0381C14.8294 92.7601 14.8955 92.3499 14.8955 91.8076V91.3564ZM18.0469 87.7402H19.2773V90.8779C19.6693 90.8779 19.9427 90.8027 20.0977 90.6523C20.2572 90.502 20.4896 90.0645 20.7949 89.3398C21.0365 88.7656 21.2324 88.3874 21.3828 88.2051C21.5332 88.0228 21.7064 87.8997 21.9023 87.8359C22.0983 87.7721 22.4128 87.7402 22.8457 87.7402H23.0918V88.7588L22.75 88.752C22.4264 88.752 22.2191 88.7998 22.1279 88.8955C22.0322 88.9958 21.8864 89.2943 21.6904 89.791C21.5036 90.265 21.3327 90.5931 21.1777 90.7754C21.0228 90.9577 20.7835 91.124 20.46 91.2744C20.9886 91.4157 21.5081 91.9079 22.0186 92.751L23.3652 95H22.0117L20.6992 92.751C20.4303 92.2998 20.1956 92.0036 19.9951 91.8623C19.7946 91.7165 19.5553 91.6436 19.2773 91.6436V95H18.0469V87.7402ZM29.2305 94.1045C28.7747 94.4919 28.335 94.7653 27.9111 94.9248C27.4919 95.0843 27.0407 95.1641 26.5576 95.1641C25.7601 95.1641 25.1471 94.9704 24.7188 94.583C24.2904 94.1911 24.0762 93.6921 24.0762 93.0859C24.0762 92.7305 24.1559 92.4069 24.3154 92.1152C24.4795 91.819 24.6914 91.582 24.9512 91.4043C25.2155 91.2266 25.5117 91.0921 25.8398 91.001C26.0814 90.9372 26.446 90.8757 26.9336 90.8164C27.9271 90.6979 28.6585 90.5566 29.1279 90.3926C29.1325 90.224 29.1348 90.1169 29.1348 90.0713C29.1348 89.57 29.0186 89.2168 28.7861 89.0117C28.4717 88.7337 28.0046 88.5947 27.3848 88.5947C26.806 88.5947 26.3776 88.6973 26.0996 88.9023C25.8262 89.1029 25.6234 89.4606 25.4912 89.9756L24.2881 89.8115C24.3975 89.2965 24.5775 88.8818 24.8281 88.5674C25.0788 88.2484 25.4411 88.0046 25.915 87.8359C26.389 87.6628 26.9382 87.5762 27.5625 87.5762C28.1823 87.5762 28.6859 87.6491 29.0732 87.7949C29.4606 87.9408 29.7454 88.1253 29.9277 88.3486C30.11 88.5674 30.2376 88.8454 30.3105 89.1826C30.3516 89.3923 30.3721 89.7705 30.3721 90.3174V91.958C30.3721 93.1019 30.3971 93.8265 30.4473 94.1318C30.502 94.4326 30.6068 94.722 30.7617 95H29.4766C29.349 94.7448 29.2669 94.4463 29.2305 94.1045ZM29.1279 91.3564C28.6813 91.5387 28.0114 91.6937 27.1182 91.8213C26.6123 91.8942 26.2546 91.9762 26.0449 92.0674C25.8353 92.1585 25.6735 92.293 25.5596 92.4707C25.4456 92.6439 25.3887 92.8376 25.3887 93.0518C25.3887 93.3799 25.5117 93.6533 25.7578 93.8721C26.0085 94.0908 26.373 94.2002 26.8516 94.2002C27.3255 94.2002 27.7471 94.0977 28.1162 93.8926C28.4854 93.6829 28.7565 93.3981 28.9297 93.0381C29.0618 92.7601 29.1279 92.3499 29.1279 91.8076V91.3564ZM31.3086 87.7402H37.208V88.7588H34.8701V95H33.6465V88.7588H31.3086V87.7402ZM42.957 94.1045C42.5013 94.4919 42.0615 94.7653 41.6377 94.9248C41.2184 95.0843 40.7673 95.1641 40.2842 95.1641C39.4867 95.1641 38.8737 94.9704 38.4453 94.583C38.0169 94.1911 37.8027 93.6921 37.8027 93.0859C37.8027 92.7305 37.8825 92.4069 38.042 92.1152C38.2061 91.819 38.418 91.582 38.6777 91.4043C38.9421 91.2266 39.2383 91.0921 39.5664 91.001C39.8079 90.9372 40.1725 90.8757 40.6602 90.8164C41.6536 90.6979 42.3851 90.5566 42.8545 90.3926C42.859 90.224 42.8613 90.1169 42.8613 90.0713C42.8613 89.57 42.7451 89.2168 42.5127 89.0117C42.1982 88.7337 41.7311 88.5947 41.1113 88.5947C40.5326 88.5947 40.1042 88.6973 39.8262 88.9023C39.5527 89.1029 39.3499 89.4606 39.2178 89.9756L38.0146 89.8115C38.124 89.2965 38.304 88.8818 38.5547 88.5674C38.8053 88.2484 39.1676 88.0046 39.6416 87.8359C40.1156 87.6628 40.6647 87.5762 41.2891 87.5762C41.9089 87.5762 42.4124 87.6491 42.7998 87.7949C43.1872 87.9408 43.472 88.1253 43.6543 88.3486C43.8366 88.5674 43.9642 88.8454 44.0371 89.1826C44.0781 89.3923 44.0986 89.7705 44.0986 90.3174V91.958C44.0986 93.1019 44.1237 93.8265 44.1738 94.1318C44.2285 94.4326 44.3333 94.722 44.4883 95H43.2031C43.0755 94.7448 42.9935 94.4463 42.957 94.1045ZM42.8545 91.3564C42.4079 91.5387 41.738 91.6937 40.8447 91.8213C40.3389 91.8942 39.9811 91.9762 39.7715 92.0674C39.5618 92.1585 39.4001 92.293 39.2861 92.4707C39.1722 92.6439 39.1152 92.8376 39.1152 93.0518C39.1152 93.3799 39.2383 93.6533 39.4844 93.8721C39.735 94.0908 40.0996 94.2002 40.5781 94.2002C41.0521 94.2002 41.4736 94.0977 41.8428 93.8926C42.2119 93.6829 42.4831 93.3981 42.6562 93.0381C42.7884 92.7601 42.8545 92.3499 42.8545 91.8076V91.3564Z" fill="white"/>
<path d="M48.1211 119V108.979H49.4473V113.094H54.6562V108.979H55.9824V119H54.6562V114.276H49.4473V119H48.1211ZM62.7773 118.104C62.3216 118.492 61.8818 118.765 61.458 118.925C61.0387 119.084 60.5876 119.164 60.1045 119.164C59.307 119.164 58.694 118.97 58.2656 118.583C57.8372 118.191 57.623 117.692 57.623 117.086C57.623 116.73 57.7028 116.407 57.8623 116.115C58.0264 115.819 58.2383 115.582 58.498 115.404C58.7624 115.227 59.0586 115.092 59.3867 115.001C59.6283 114.937 59.9928 114.876 60.4805 114.816C61.474 114.698 62.2054 114.557 62.6748 114.393C62.6794 114.224 62.6816 114.117 62.6816 114.071C62.6816 113.57 62.5654 113.217 62.333 113.012C62.0186 112.734 61.5514 112.595 60.9316 112.595C60.3529 112.595 59.9245 112.697 59.6465 112.902C59.373 113.103 59.1702 113.461 59.0381 113.976L57.835 113.812C57.9443 113.297 58.1243 112.882 58.375 112.567C58.6257 112.248 58.988 112.005 59.4619 111.836C59.9359 111.663 60.485 111.576 61.1094 111.576C61.7292 111.576 62.2327 111.649 62.6201 111.795C63.0075 111.941 63.2923 112.125 63.4746 112.349C63.6569 112.567 63.7845 112.845 63.8574 113.183C63.8984 113.392 63.9189 113.771 63.9189 114.317V115.958C63.9189 117.102 63.944 117.826 63.9941 118.132C64.0488 118.433 64.1536 118.722 64.3086 119H63.0234C62.8958 118.745 62.8138 118.446 62.7773 118.104ZM62.6748 115.356C62.2282 115.539 61.5583 115.694 60.665 115.821C60.1592 115.894 59.8014 115.976 59.5918 116.067C59.3822 116.159 59.2204 116.293 59.1064 116.471C58.9925 116.644 58.9355 116.838 58.9355 117.052C58.9355 117.38 59.0586 117.653 59.3047 117.872C59.5553 118.091 59.9199 118.2 60.3984 118.2C60.8724 118.2 61.2939 118.098 61.6631 117.893C62.0322 117.683 62.3034 117.398 62.4766 117.038C62.6087 116.76 62.6748 116.35 62.6748 115.808V115.356ZM65.8398 111.74H70.0166V112.759H67.0703V119H65.8398V111.74ZM70.1738 115.37C70.1738 114.026 70.5475 113.03 71.2949 112.383C71.9193 111.845 72.6803 111.576 73.5781 111.576C74.5762 111.576 75.3919 111.904 76.0254 112.561C76.6589 113.212 76.9756 114.115 76.9756 115.268C76.9756 116.202 76.8343 116.938 76.5518 117.476C76.2738 118.009 75.8659 118.424 75.3281 118.72C74.7949 119.016 74.2116 119.164 73.5781 119.164C72.5618 119.164 71.7393 118.838 71.1104 118.187C70.486 117.535 70.1738 116.596 70.1738 115.37ZM71.4385 115.37C71.4385 116.3 71.6413 116.997 72.0469 117.462C72.4525 117.922 72.9629 118.152 73.5781 118.152C74.1888 118.152 74.6969 117.92 75.1025 117.455C75.5081 116.99 75.7109 116.282 75.7109 115.329C75.7109 114.431 75.5059 113.752 75.0957 113.292C74.6901 112.827 74.1842 112.595 73.5781 112.595C72.9629 112.595 72.4525 112.825 72.0469 113.285C71.6413 113.745 71.4385 114.44 71.4385 115.37ZM78.4248 111.74H79.6553V117.277L83.0664 111.74H84.3926V119H83.1621V113.497L79.751 119H78.4248V111.74ZM82.6973 108.992H83.5381C83.4697 109.562 83.2601 109.999 82.9092 110.305C82.5628 110.61 82.1003 110.763 81.5215 110.763C80.9382 110.763 80.471 110.612 80.1201 110.312C79.7738 110.006 79.5664 109.566 79.498 108.992H80.3389C80.4027 109.302 80.528 109.535 80.7148 109.689C80.9062 109.84 81.1615 109.915 81.4805 109.915C81.8496 109.915 82.1276 109.842 82.3145 109.696C82.5059 109.546 82.6335 109.311 82.6973 108.992ZM91.96 111.74V119H90.7363V116.17H90.0254C89.5924 116.17 89.2689 116.227 89.0547 116.341C88.8451 116.45 88.5374 116.808 88.1318 117.414L87.0586 119H85.5342L86.8604 117.045C87.266 116.448 87.6693 116.111 88.0703 116.033C87.3685 115.938 86.8467 115.685 86.5049 115.274C86.1676 114.864 85.999 114.393 85.999 113.859C85.999 113.23 86.2201 112.72 86.6621 112.328C87.1087 111.936 87.7536 111.74 88.5967 111.74H91.96ZM90.7363 112.759H88.9863C88.2526 112.759 87.7786 112.873 87.5645 113.101C87.3548 113.328 87.25 113.595 87.25 113.9C87.25 114.333 87.4049 114.652 87.7148 114.857C88.0293 115.058 88.583 115.158 89.376 115.158H90.7363V112.759Z" fill="white"/>
<path d="M118.101 95.9785H119.427V104.817H122.756V95.9785H124.082V104.817H127.411V95.9785H128.737V106H118.101V95.9785ZM130.761 98.7402H131.991V104.277L135.402 98.7402H136.729V106H135.498V100.497L132.087 106H130.761V98.7402ZM138.615 98.7402H140.529L142.437 104.551L144.556 98.7402H146.326V106H145.096V100.155L142.949 106H141.849L139.818 99.875V106H138.615V98.7402ZM148.206 98.7402H149.437V104.277L152.848 98.7402H154.174V106H152.943V100.497L149.532 106H148.206V98.7402ZM157.633 102.719V101.755C158.152 101.75 158.506 101.73 158.692 101.693C158.884 101.657 159.064 101.548 159.232 101.365C159.401 101.183 159.485 100.955 159.485 100.682C159.485 100.349 159.374 100.085 159.15 99.8887C158.932 99.6882 158.647 99.5879 158.296 99.5879C157.603 99.5879 157.118 99.9958 156.84 100.812L155.671 100.62C156.035 99.2575 156.915 98.5762 158.31 98.5762C159.084 98.5762 159.69 98.7881 160.128 99.2119C160.57 99.6357 160.791 100.142 160.791 100.729C160.791 101.322 160.504 101.794 159.93 102.145C160.294 102.34 160.568 102.591 160.75 102.896C160.932 103.197 161.023 103.555 161.023 103.97C161.023 104.621 160.786 105.15 160.312 105.556C159.839 105.961 159.175 106.164 158.323 106.164C156.669 106.164 155.71 105.428 155.445 103.956L156.601 103.71C156.705 104.175 156.917 104.535 157.236 104.79C157.56 105.045 157.929 105.173 158.344 105.173C158.758 105.173 159.103 105.057 159.376 104.824C159.654 104.587 159.793 104.286 159.793 103.922C159.793 103.639 159.706 103.393 159.533 103.184C159.36 102.974 159.175 102.844 158.979 102.794C158.784 102.739 158.428 102.712 157.913 102.712C157.872 102.712 157.779 102.714 157.633 102.719ZM162.233 108.796L162.097 107.641C162.366 107.714 162.6 107.75 162.801 107.75C163.074 107.75 163.293 107.704 163.457 107.613C163.621 107.522 163.756 107.395 163.86 107.23C163.938 107.107 164.063 106.802 164.236 106.314C164.259 106.246 164.296 106.146 164.346 106.014L161.591 98.7402H162.917L164.428 102.944C164.624 103.478 164.799 104.038 164.954 104.626C165.095 104.061 165.264 103.509 165.46 102.972L167.012 98.7402H168.242L165.48 106.123C165.184 106.921 164.954 107.47 164.79 107.771C164.571 108.176 164.321 108.472 164.038 108.659C163.756 108.851 163.418 108.946 163.026 108.946C162.789 108.946 162.525 108.896 162.233 108.796Z" fill="white"/>
<path d="M129.101 72.9785H130.304V80.915L135.636 72.9785H136.969V83H135.766V75.084L130.427 83H129.101V72.9785ZM134.084 70.5928H134.925C134.856 71.1624 134.647 71.5999 134.296 71.9053C133.95 72.2106 133.487 72.3633 132.908 72.3633C132.325 72.3633 131.858 72.2129 131.507 71.9121C131.16 71.6068 130.953 71.167 130.885 70.5928H131.726C131.789 70.9027 131.915 71.1351 132.102 71.29C132.293 71.4404 132.548 71.5156 132.867 71.5156C133.236 71.5156 133.514 71.4427 133.701 71.2969C133.893 71.1465 134.02 70.9118 134.084 70.5928ZM138.527 79.3701C138.527 78.0257 138.901 77.0299 139.648 76.3828C140.273 75.8451 141.034 75.5762 141.932 75.5762C142.93 75.5762 143.745 75.9043 144.379 76.5605C145.012 77.2122 145.329 78.1146 145.329 79.2676C145.329 80.2018 145.188 80.9378 144.905 81.4756C144.627 82.0088 144.219 82.4235 143.682 82.7197C143.148 83.016 142.565 83.1641 141.932 83.1641C140.915 83.1641 140.093 82.8382 139.464 82.1865C138.84 81.5348 138.527 80.596 138.527 79.3701ZM139.792 79.3701C139.792 80.2998 139.995 80.9971 140.4 81.4619C140.806 81.9222 141.316 82.1523 141.932 82.1523C142.542 82.1523 143.05 81.9199 143.456 81.4551C143.862 80.9902 144.064 80.2816 144.064 79.3291C144.064 78.4313 143.859 77.7523 143.449 77.292C143.044 76.8271 142.538 76.5947 141.932 76.5947C141.316 76.5947 140.806 76.8249 140.4 77.2852C139.995 77.7454 139.792 78.4404 139.792 79.3701ZM146.771 75.7402H148.002V78.8779C148.394 78.8779 148.667 78.8027 148.822 78.6523C148.982 78.502 149.214 78.0645 149.52 77.3398C149.761 76.7656 149.957 76.3874 150.107 76.2051C150.258 76.0228 150.431 75.8997 150.627 75.8359C150.823 75.7721 151.137 75.7402 151.57 75.7402H151.816V76.7588L151.475 76.752C151.151 76.752 150.944 76.7998 150.853 76.8955C150.757 76.9958 150.611 77.2943 150.415 77.791C150.228 78.265 150.057 78.5931 149.902 78.7754C149.747 78.9577 149.508 79.124 149.185 79.2744C149.713 79.4157 150.233 79.9079 150.743 80.751L152.09 83H150.736L149.424 80.751C149.155 80.2998 148.92 80.0036 148.72 79.8623C148.519 79.7165 148.28 79.6436 148.002 79.6436V83H146.771V75.7402ZM152.609 79.3701C152.609 78.0257 152.983 77.0299 153.73 76.3828C154.355 75.8451 155.116 75.5762 156.014 75.5762C157.012 75.5762 157.827 75.9043 158.461 76.5605C159.094 77.2122 159.411 78.1146 159.411 79.2676C159.411 80.2018 159.27 80.9378 158.987 81.4756C158.709 82.0088 158.301 82.4235 157.764 82.7197C157.23 83.016 156.647 83.1641 156.014 83.1641C154.997 83.1641 154.175 82.8382 153.546 82.1865C152.922 81.5348 152.609 80.596 152.609 79.3701ZM153.874 79.3701C153.874 80.2998 154.077 80.9971 154.482 81.4619C154.888 81.9222 155.398 82.1523 156.014 82.1523C156.624 82.1523 157.132 81.9199 157.538 81.4551C157.944 80.9902 158.146 80.2816 158.146 79.3291C158.146 78.4313 157.941 77.7523 157.531 77.292C157.126 76.8271 156.62 76.5947 156.014 76.5947C155.398 76.5947 154.888 76.8249 154.482 77.2852C154.077 77.7454 153.874 78.4404 153.874 79.3701ZM160.867 75.7402H165.044V76.7588H162.098V83H160.867V75.7402ZM170.396 82.1045C169.941 82.4919 169.501 82.7653 169.077 82.9248C168.658 83.0843 168.207 83.1641 167.724 83.1641C166.926 83.1641 166.313 82.9704 165.885 82.583C165.456 82.1911 165.242 81.6921 165.242 81.0859C165.242 80.7305 165.322 80.4069 165.481 80.1152C165.646 79.819 165.857 79.582 166.117 79.4043C166.382 79.2266 166.678 79.0921 167.006 79.001C167.247 78.9372 167.612 78.8757 168.1 78.8164C169.093 78.6979 169.825 78.5566 170.294 78.3926C170.299 78.224 170.301 78.1169 170.301 78.0713C170.301 77.57 170.185 77.2168 169.952 77.0117C169.638 76.7337 169.171 76.5947 168.551 76.5947C167.972 76.5947 167.544 76.6973 167.266 76.9023C166.992 77.1029 166.789 77.4606 166.657 77.9756L165.454 77.8115C165.563 77.2965 165.743 76.8818 165.994 76.5674C166.245 76.2484 166.607 76.0046 167.081 75.8359C167.555 75.6628 168.104 75.5762 168.729 75.5762C169.348 75.5762 169.852 75.6491 170.239 75.7949C170.627 75.9408 170.911 76.1253 171.094 76.3486C171.276 76.5674 171.404 76.8454 171.477 77.1826C171.518 77.3923 171.538 77.7705 171.538 78.3174V79.958C171.538 81.1019 171.563 81.8265 171.613 82.1318C171.668 82.4326 171.773 82.722 171.928 83H170.643C170.515 82.7448 170.433 82.4463 170.396 82.1045ZM170.294 79.3564C169.847 79.5387 169.177 79.6937 168.284 79.8213C167.778 79.8942 167.421 79.9762 167.211 80.0674C167.001 80.1585 166.84 80.293 166.726 80.4707C166.612 80.6439 166.555 80.8376 166.555 81.0518C166.555 81.3799 166.678 81.6533 166.924 81.8721C167.174 82.0908 167.539 82.2002 168.018 82.2002C168.492 82.2002 168.913 82.0977 169.282 81.8926C169.651 81.6829 169.923 81.3981 170.096 81.0381C170.228 80.7601 170.294 80.3499 170.294 79.8076V79.3564ZM173.486 75.7402H175.4L177.308 81.5508L179.427 75.7402H181.197V83H179.967V77.1553L177.82 83H176.72L174.689 76.875V83H173.486V75.7402ZM187.814 82.1045C187.359 82.4919 186.919 82.7653 186.495 82.9248C186.076 83.0843 185.625 83.1641 185.142 83.1641C184.344 83.1641 183.731 82.9704 183.303 82.583C182.874 82.1911 182.66 81.6921 182.66 81.0859C182.66 80.7305 182.74 80.4069 182.899 80.1152C183.063 79.819 183.275 79.582 183.535 79.4043C183.799 79.2266 184.096 79.0921 184.424 79.001C184.665 78.9372 185.03 78.8757 185.518 78.8164C186.511 78.6979 187.243 78.5566 187.712 78.3926C187.716 78.224 187.719 78.1169 187.719 78.0713C187.719 77.57 187.603 77.2168 187.37 77.0117C187.056 76.7337 186.589 76.5947 185.969 76.5947C185.39 76.5947 184.962 76.6973 184.684 76.9023C184.41 77.1029 184.207 77.4606 184.075 77.9756L182.872 77.8115C182.981 77.2965 183.161 76.8818 183.412 76.5674C183.663 76.2484 184.025 76.0046 184.499 75.8359C184.973 75.6628 185.522 75.5762 186.146 75.5762C186.766 75.5762 187.27 75.6491 187.657 75.7949C188.045 75.9408 188.329 76.1253 188.512 76.3486C188.694 76.5674 188.822 76.8454 188.895 77.1826C188.936 77.3923 188.956 77.7705 188.956 78.3174V79.958C188.956 81.1019 188.981 81.8265 189.031 82.1318C189.086 82.4326 189.191 82.722 189.346 83H188.061C187.933 82.7448 187.851 82.4463 187.814 82.1045ZM187.712 79.3564C187.265 79.5387 186.595 79.6937 185.702 79.8213C185.196 79.8942 184.839 79.9762 184.629 80.0674C184.419 80.1585 184.257 80.293 184.144 80.4707C184.03 80.6439 183.973 80.8376 183.973 81.0518C183.973 81.3799 184.096 81.6533 184.342 81.8721C184.592 82.0908 184.957 82.2002 185.436 82.2002C185.91 82.2002 186.331 82.0977 186.7 81.8926C187.069 81.6829 187.34 81.3981 187.514 81.0381C187.646 80.7601 187.712 80.3499 187.712 79.8076V79.3564Z" fill="white"/>
<path d="M90.6299 65V56.1611H87.3281V54.9785H95.2715V56.1611H91.9561V65H90.6299ZM94.9297 61.3701C94.9297 60.0257 95.3034 59.0299 96.0508 58.3828C96.6751 57.8451 97.4362 57.5762 98.334 57.5762C99.332 57.5762 100.148 57.9043 100.781 58.5605C101.415 59.2122 101.731 60.1146 101.731 61.2676C101.731 62.2018 101.59 62.9378 101.308 63.4756C101.03 64.0088 100.622 64.4235 100.084 64.7197C99.5508 65.016 98.9674 65.1641 98.334 65.1641C97.3177 65.1641 96.4951 64.8382 95.8662 64.1865C95.2419 63.5348 94.9297 62.596 94.9297 61.3701ZM96.1943 61.3701C96.1943 62.2998 96.3971 62.9971 96.8027 63.4619C97.2083 63.9222 97.7188 64.1523 98.334 64.1523C98.9447 64.1523 99.4528 63.9199 99.8584 63.4551C100.264 62.9902 100.467 62.2816 100.467 61.3291C100.467 60.4313 100.262 59.7523 99.8516 59.292C99.446 58.8271 98.9401 58.5947 98.334 58.5947C97.7188 58.5947 97.2083 58.8249 96.8027 59.2852C96.3971 59.7454 96.1943 60.4404 96.1943 61.3701ZM108.896 57.7402V65H107.672V62.1699H106.961C106.528 62.1699 106.204 62.2269 105.99 62.3408C105.781 62.4502 105.473 62.8079 105.067 63.4141L103.994 65H102.47L103.796 63.0449C104.201 62.4479 104.605 62.1107 105.006 62.0332C104.304 61.9375 103.782 61.6846 103.44 61.2744C103.103 60.8643 102.935 60.3926 102.935 59.8594C102.935 59.2305 103.156 58.7201 103.598 58.3281C104.044 57.9362 104.689 57.7402 105.532 57.7402H108.896ZM107.672 58.7588H105.922C105.188 58.7588 104.714 58.8727 104.5 59.1006C104.29 59.3285 104.186 59.5951 104.186 59.9004C104.186 60.3333 104.34 60.6523 104.65 60.8574C104.965 61.0579 105.519 61.1582 106.312 61.1582H107.672V58.7588ZM110.803 57.7402H112.717L114.624 63.5508L116.743 57.7402H118.514V65H117.283V59.1553L115.137 65H114.036L112.006 58.875V65H110.803V57.7402ZM125.131 64.1045C124.675 64.4919 124.235 64.7653 123.812 64.9248C123.392 65.0843 122.941 65.1641 122.458 65.1641C121.66 65.1641 121.048 64.9704 120.619 64.583C120.191 64.1911 119.977 63.6921 119.977 63.0859C119.977 62.7305 120.056 62.4069 120.216 62.1152C120.38 61.819 120.592 61.582 120.852 61.4043C121.116 61.2266 121.412 61.0921 121.74 61.001C121.982 60.9372 122.346 60.8757 122.834 60.8164C123.827 60.6979 124.559 60.5566 125.028 60.3926C125.033 60.224 125.035 60.1169 125.035 60.0713C125.035 59.57 124.919 59.2168 124.687 59.0117C124.372 58.7337 123.905 58.5947 123.285 58.5947C122.706 58.5947 122.278 58.6973 122 58.9023C121.727 59.1029 121.524 59.4606 121.392 59.9756L120.188 59.8115C120.298 59.2965 120.478 58.8818 120.729 58.5674C120.979 58.2484 121.341 58.0046 121.815 57.8359C122.289 57.6628 122.839 57.5762 123.463 57.5762C124.083 57.5762 124.586 57.6491 124.974 57.7949C125.361 57.9408 125.646 58.1253 125.828 58.3486C126.01 58.5674 126.138 58.8454 126.211 59.1826C126.252 59.3923 126.272 59.7705 126.272 60.3174V61.958C126.272 63.1019 126.298 63.8265 126.348 64.1318C126.402 64.4326 126.507 64.722 126.662 65H125.377C125.249 64.7448 125.167 64.4463 125.131 64.1045ZM125.028 61.3564C124.582 61.5387 123.912 61.6937 123.019 61.8213C122.513 61.8942 122.155 61.9762 121.945 62.0674C121.736 62.1585 121.574 62.293 121.46 62.4707C121.346 62.6439 121.289 62.8376 121.289 63.0518C121.289 63.3799 121.412 63.6533 121.658 63.8721C121.909 64.0908 122.273 64.2002 122.752 64.2002C123.226 64.2002 123.647 64.0977 124.017 63.8926C124.386 63.6829 124.657 63.3981 124.83 63.0381C124.962 62.7601 125.028 62.3499 125.028 61.8076V61.3564Z" fill="white"/>
<path d="M50.1006 68.9785H51.4268V73.3672C52.0329 73.3672 52.459 73.251 52.7051 73.0186C52.9512 72.7816 53.2656 72.2165 53.6484 71.3232C53.9264 70.667 54.1543 70.2044 54.332 69.9355C54.5143 69.6621 54.7718 69.4342 55.1045 69.252C55.4372 69.0651 55.804 68.9717 56.2051 68.9717C56.7155 68.9717 56.9844 68.9762 57.0117 68.9854V70.1338C56.9661 70.1338 56.8773 70.1315 56.7451 70.127C56.5993 70.1224 56.5104 70.1201 56.4785 70.1201C56.0547 70.1201 55.7402 70.2227 55.5352 70.4277C55.3255 70.6328 55.0863 71.0703 54.8174 71.7402C54.4801 72.5879 54.1953 73.1234 53.9629 73.3467C53.7305 73.5654 53.4525 73.7409 53.1289 73.873C53.776 74.0508 54.4141 74.6478 55.043 75.6641L57.1074 79H55.46L53.7852 76.2793C53.3249 75.5273 52.9398 75.0124 52.6299 74.7344C52.32 74.4518 51.9189 74.3105 51.4268 74.3105V79H50.1006V68.9785ZM57.627 75.3701C57.627 74.0257 58.0007 73.0299 58.748 72.3828C59.3724 71.8451 60.1335 71.5762 61.0312 71.5762C62.0293 71.5762 62.8451 71.9043 63.4785 72.5605C64.112 73.2122 64.4287 74.1146 64.4287 75.2676C64.4287 76.2018 64.2874 76.9378 64.0049 77.4756C63.7269 78.0088 63.319 78.4235 62.7812 78.7197C62.248 79.016 61.6647 79.1641 61.0312 79.1641C60.015 79.1641 59.1924 78.8382 58.5635 78.1865C57.9391 77.5348 57.627 76.596 57.627 75.3701ZM58.8916 75.3701C58.8916 76.2998 59.0944 76.9971 59.5 77.4619C59.9056 77.9222 60.416 78.1523 61.0312 78.1523C61.6419 78.1523 62.1501 77.9199 62.5557 77.4551C62.9613 76.9902 63.1641 76.2816 63.1641 75.3291C63.1641 74.4313 62.959 73.7523 62.5488 73.292C62.1432 72.8271 61.6374 72.5947 61.0312 72.5947C60.416 72.5947 59.9056 72.8249 59.5 73.2852C59.0944 73.7454 58.8916 74.4404 58.8916 75.3701ZM71.1963 68.7393L72.2832 68.7529C72.2331 69.2406 72.1237 69.5801 71.9551 69.7715C71.791 69.9629 71.5768 70.0859 71.3125 70.1406C71.0527 70.1953 70.54 70.2227 69.7744 70.2227C68.7581 70.2227 68.0654 70.3206 67.6963 70.5166C67.3271 70.7126 67.0605 71.027 66.8965 71.46C66.737 71.8883 66.6481 72.4421 66.6299 73.1211C66.9398 72.6608 67.3021 72.3167 67.7168 72.0889C68.1315 71.8564 68.5986 71.7402 69.1182 71.7402C70.0706 71.7402 70.859 72.0684 71.4834 72.7246C72.1077 73.3763 72.4199 74.2604 72.4199 75.377C72.4199 76.2246 72.2627 76.9196 71.9482 77.4619C71.6338 78.0042 71.2601 78.4235 70.8271 78.7197C70.3988 79.016 69.8132 79.1641 69.0703 79.1641C68.209 79.1641 67.5391 78.9681 67.0605 78.5762C66.582 78.1797 66.2152 77.6738 65.96 77.0586C65.7048 76.4434 65.5771 75.3724 65.5771 73.8457C65.5771 71.9271 65.9007 70.6351 66.5479 69.9697C67.1995 69.3044 68.1999 68.9717 69.5488 68.9717C70.3874 68.9717 70.8636 68.958 70.9775 68.9307C71.0915 68.9033 71.1644 68.8395 71.1963 68.7393ZM71.1348 75.3428C71.1348 74.5863 70.9548 73.9665 70.5947 73.4834C70.2393 73.0003 69.7357 72.7588 69.084 72.7588C68.4049 72.7588 67.8809 73.014 67.5117 73.5244C67.1426 74.0348 66.958 74.7161 66.958 75.5684C66.958 76.4115 67.1608 77.0563 67.5664 77.5029C67.9766 77.9495 68.4801 78.1729 69.0771 78.1729C69.6878 78.1729 70.1823 77.9154 70.5605 77.4004C70.9434 76.8809 71.1348 76.195 71.1348 75.3428ZM78.709 76.6621L79.9805 76.8193C79.7799 77.5622 79.4085 78.1387 78.8662 78.5488C78.3239 78.959 77.6312 79.1641 76.7881 79.1641C75.7262 79.1641 74.8831 78.8382 74.2588 78.1865C73.639 77.5303 73.3291 76.612 73.3291 75.4316C73.3291 74.2103 73.6436 73.2624 74.2725 72.5879C74.9014 71.9134 75.7171 71.5762 76.7197 71.5762C77.6904 71.5762 78.4834 71.9066 79.0986 72.5674C79.7139 73.2282 80.0215 74.1579 80.0215 75.3564C80.0215 75.4294 80.0192 75.5387 80.0146 75.6846H74.6006C74.6462 76.4821 74.8717 77.0928 75.2773 77.5166C75.6829 77.9404 76.1888 78.1523 76.7949 78.1523C77.2461 78.1523 77.6312 78.0339 77.9502 77.7969C78.2692 77.5599 78.5221 77.1816 78.709 76.6621ZM74.6689 74.6729H78.7227C78.668 74.0622 78.513 73.6042 78.2578 73.2988C77.8659 72.8249 77.3577 72.5879 76.7334 72.5879C76.1683 72.5879 75.6921 72.777 75.3047 73.1553C74.9219 73.5335 74.71 74.0394 74.6689 74.6729Z" fill="white"/>
<g filter="url(#filter7_d_5077_52669)">
<circle cx="52" cy="65" r="2" fill="#0C99CF"/>
<circle cx="52" cy="65" r="2.5" stroke="white"/>
</g>
<g filter="url(#filter8_d_5077_52669)">
<circle cx="99" cy="18" r="2" fill="#0C99CF"/>
<circle cx="99" cy="18" r="2.5" stroke="white"/>
</g>
<path d="M103.025 12V1.97852H106.785C107.551 1.97852 108.164 2.08105 108.624 2.28613C109.089 2.48665 109.451 2.79883 109.711 3.22266C109.975 3.64193 110.107 4.08171 110.107 4.54199C110.107 4.97038 109.991 5.3737 109.759 5.75195C109.526 6.13021 109.175 6.43555 108.706 6.66797C109.312 6.8457 109.777 7.14876 110.101 7.57715C110.429 8.00553 110.593 8.51139 110.593 9.09473C110.593 9.56413 110.493 10.0016 110.292 10.4072C110.096 10.8083 109.852 11.1182 109.561 11.3369C109.269 11.5557 108.902 11.722 108.46 11.8359C108.022 11.9453 107.485 12 106.847 12H103.025ZM104.352 6.18945H106.519C107.106 6.18945 107.528 6.15072 107.783 6.07324C108.12 5.97298 108.373 5.80664 108.542 5.57422C108.715 5.3418 108.802 5.05013 108.802 4.69922C108.802 4.36654 108.722 4.07487 108.562 3.82422C108.403 3.56901 108.175 3.39583 107.879 3.30469C107.583 3.20898 107.075 3.16113 106.354 3.16113H104.352V6.18945ZM104.352 10.8174H106.847C107.275 10.8174 107.576 10.8014 107.749 10.7695C108.054 10.7148 108.31 10.6237 108.515 10.4961C108.72 10.3685 108.888 10.1839 109.021 9.94238C109.153 9.69629 109.219 9.41374 109.219 9.09473C109.219 8.72103 109.123 8.39746 108.932 8.12402C108.74 7.84603 108.474 7.65234 108.132 7.54297C107.795 7.42904 107.307 7.37207 106.669 7.37207H104.352V10.8174ZM111.803 8.37012C111.803 7.02572 112.176 6.02995 112.924 5.38281C113.548 4.84505 114.309 4.57617 115.207 4.57617C116.205 4.57617 117.021 4.9043 117.654 5.56055C118.288 6.21224 118.604 7.11458 118.604 8.26758C118.604 9.20182 118.463 9.93783 118.181 10.4756C117.903 11.0088 117.495 11.4235 116.957 11.7197C116.424 12.016 115.84 12.1641 115.207 12.1641C114.191 12.1641 113.368 11.8382 112.739 11.1865C112.115 10.5348 111.803 9.59603 111.803 8.37012ZM113.067 8.37012C113.067 9.2998 113.27 9.99707 113.676 10.4619C114.081 10.9222 114.592 11.1523 115.207 11.1523C115.818 11.1523 116.326 10.9199 116.731 10.4551C117.137 9.99023 117.34 9.28158 117.34 8.3291C117.34 7.43132 117.135 6.75228 116.725 6.29199C116.319 5.82715 115.813 5.59473 115.207 5.59473C114.592 5.59473 114.081 5.82487 113.676 6.28516C113.27 6.74544 113.067 7.44043 113.067 8.37012ZM124.791 9.34082L126.001 9.49805C125.869 10.332 125.529 10.986 124.982 11.46C124.44 11.9294 123.772 12.1641 122.979 12.1641C121.986 12.1641 121.186 11.8405 120.58 11.1934C119.979 10.5417 119.678 9.6097 119.678 8.39746C119.678 7.61361 119.808 6.92773 120.067 6.33984C120.327 5.75195 120.721 5.31217 121.25 5.02051C121.783 4.72428 122.362 4.57617 122.986 4.57617C123.775 4.57617 124.42 4.77669 124.921 5.17773C125.422 5.57422 125.743 6.13932 125.885 6.87305L124.688 7.05762C124.575 6.56999 124.372 6.20312 124.08 5.95703C123.793 5.71094 123.444 5.58789 123.034 5.58789C122.414 5.58789 121.911 5.8112 121.523 6.25781C121.136 6.69987 120.942 7.40169 120.942 8.36328C120.942 9.33854 121.129 10.0472 121.503 10.4893C121.877 10.9313 122.364 11.1523 122.966 11.1523C123.449 11.1523 123.852 11.0042 124.176 10.708C124.499 10.4118 124.704 9.95605 124.791 9.34082ZM126.391 4.74023H132.29V5.75879H129.952V12H128.729V5.75879H126.391V4.74023ZM132.844 8.37012C132.844 7.02572 133.217 6.02995 133.965 5.38281C134.589 4.84505 135.35 4.57617 136.248 4.57617C137.246 4.57617 138.062 4.9043 138.695 5.56055C139.329 6.21224 139.646 7.11458 139.646 8.26758C139.646 9.20182 139.504 9.93783 139.222 10.4756C138.944 11.0088 138.536 11.4235 137.998 11.7197C137.465 12.016 136.882 12.1641 136.248 12.1641C135.232 12.1641 134.409 11.8382 133.78 11.1865C133.156 10.5348 132.844 9.59603 132.844 8.37012ZM134.108 8.37012C134.108 9.2998 134.311 9.99707 134.717 10.4619C135.122 10.9222 135.633 11.1523 136.248 11.1523C136.859 11.1523 137.367 10.9199 137.772 10.4551C138.178 9.99023 138.381 9.28158 138.381 8.3291C138.381 7.43132 138.176 6.75228 137.766 6.29199C137.36 5.82715 136.854 5.59473 136.248 5.59473C135.633 5.59473 135.122 5.82487 134.717 6.28516C134.311 6.74544 134.108 7.44043 134.108 8.37012ZM140.329 4.74023H141.56V6.11426C141.56 6.70671 141.594 7.13737 141.662 7.40625C141.735 7.67057 141.906 7.90299 142.175 8.10352C142.444 8.29948 142.781 8.39746 143.187 8.39746C143.651 8.39746 144.253 8.27441 144.991 8.02832V4.74023H146.222V12H144.991V9.07422C144.235 9.3112 143.528 9.42969 142.872 9.42969C142.321 9.42969 141.833 9.29069 141.409 9.0127C140.99 8.73014 140.705 8.38607 140.555 7.98047C140.404 7.57487 140.329 7.12826 140.329 6.64062V4.74023ZM148.088 4.74023H149.318V7.76172H152.729V4.74023H153.96V12H152.729V8.78027H149.318V12H148.088V4.74023ZM162.73 4.74023H163.961V12H162.73V4.74023ZM155.847 4.74023H157.077V7.57715H158.636C159.652 7.57715 160.434 7.77539 160.98 8.17188C161.532 8.5638 161.808 9.10612 161.808 9.79883C161.808 10.4049 161.577 10.9245 161.117 11.3574C160.661 11.7858 159.93 12 158.923 12H155.847V4.74023ZM157.077 10.9883H158.369C159.148 10.9883 159.704 10.8926 160.037 10.7012C160.37 10.5098 160.536 10.2113 160.536 9.80566C160.536 9.49121 160.413 9.21094 160.167 8.96484C159.921 8.71875 159.376 8.5957 158.533 8.5957H157.077V10.9883ZM165.882 4.74023H167.112V10.2773L170.523 4.74023H171.85V12H170.619V6.49707L167.208 12H165.882V4.74023ZM170.154 1.99219H170.995C170.927 2.56185 170.717 2.99935 170.366 3.30469C170.02 3.61003 169.557 3.7627 168.979 3.7627C168.395 3.7627 167.928 3.6123 167.577 3.31152C167.231 3.00618 167.023 2.56641 166.955 1.99219H167.796C167.86 2.30208 167.985 2.53451 168.172 2.68945C168.363 2.83984 168.618 2.91504 168.938 2.91504C169.307 2.91504 169.585 2.84212 169.771 2.69629C169.963 2.5459 170.09 2.3112 170.154 1.99219Z" fill="white"/>
<defs>
<filter id="filter0_d_5077_52669" x="47.1634" y="86.3878" width="9.67311" height="9.67311" filterUnits="userSpaceOnUse" color-interpolation-filters="sRGB">
<feFlood flood-opacity="0" result="BackgroundImageFix"/>
<feColorMatrix in="SourceAlpha" type="matrix" values="0 0 0 0 0 0 0 0 0 0 0 0 0 0 0 0 0 0 127 0" result="hardAlpha"/>
<feOffset dy="1.22437"/>
<feGaussianBlur stdDeviation="0.918278"/>
<feColorMatrix type="matrix" values="0 0 0 0 0 0 0 0 0 0 0 0 0 0 0 0 0 0 0.2 0"/>
<feBlend mode="normal" in2="BackgroundImageFix" result="effect1_dropShadow_5077_52669"/>
<feBlend mode="normal" in="SourceGraphic" in2="effect1_dropShadow_5077_52669" result="shape"/>
</filter>
<filter id="filter1_d_5077_52669" x="68.1634" y="79.3878" width="9.67311" height="9.67311" filterUnits="userSpaceOnUse" color-interpolation-filters="sRGB">
<feFlood flood-opacity="0" result="BackgroundImageFix"/>
<feColorMatrix in="SourceAlpha" type="matrix" values="0 0 0 0 0 0 0 0 0 0 0 0 0 0 0 0 0 0 127 0" result="hardAlpha"/>
<feOffset dy="1.22437"/>
<feGaussianBlur stdDeviation="0.918278"/>
<feColorMatrix type="matrix" values="0 0 0 0 0 0 0 0 0 0 0 0 0 0 0 0 0 0 0.2 0"/>
<feBlend mode="normal" in2="BackgroundImageFix" result="effect1_dropShadow_5077_52669"/>
<feBlend mode="normal" in="SourceGraphic" in2="effect1_dropShadow_5077_52669" result="shape"/>
</filter>
<filter id="filter2_d_5077_52669" x="84.1634" y="95.3878" width="9.67311" height="9.67311" filterUnits="userSpaceOnUse" color-interpolation-filters="sRGB">
<feFlood flood-opacity="0" result="BackgroundImageFix"/>
<feColorMatrix in="SourceAlpha" type="matrix" values="0 0 0 0 0 0 0 0 0 0 0 0 0 0 0 0 0 0 127 0" result="hardAlpha"/>
<feOffset dy="1.22437"/>
<feGaussianBlur stdDeviation="0.918278"/>
<feColorMatrix type="matrix" values="0 0 0 0 0 0 0 0 0 0 0 0 0 0 0 0 0 0 0.2 0"/>
<feBlend mode="normal" in2="BackgroundImageFix" result="effect1_dropShadow_5077_52669"/>
<feBlend mode="normal" in="SourceGraphic" in2="effect1_dropShadow_5077_52669" result="shape"/>
</filter>
<filter id="filter3_d_5077_52669" x="112.163" y="75.3878" width="9.67311" height="9.67311" filterUnits="userSpaceOnUse" color-interpolation-filters="sRGB">
<feFlood flood-opacity="0" result="BackgroundImageFix"/>
<feColorMatrix in="SourceAlpha" type="matrix" values="0 0 0 0 0 0 0 0 0 0 0 0 0 0 0 0 0 0 127 0" result="hardAlpha"/>
<feOffset dy="1.22437"/>
<feGaussianBlur stdDeviation="0.918278"/>
<feColorMatrix type="matrix" values="0 0 0 0 0 0 0 0 0 0 0 0 0 0 0 0 0 0 0.2 0"/>
<feBlend mode="normal" in2="BackgroundImageFix" result="effect1_dropShadow_5077_52669"/>
<feBlend mode="normal" in="SourceGraphic" in2="effect1_dropShadow_5077_52669" result="shape"/>
</filter>
<filter id="filter4_d_5077_52669" x="84.1634" y="76.3878" width="9.67311" height="9.67311" filterUnits="userSpaceOnUse" color-interpolation-filters="sRGB">
<feFlood flood-opacity="0" result="BackgroundImageFix"/>
<feColorMatrix in="SourceAlpha" type="matrix" values="0 0 0 0 0 0 0 0 0 0 0 0 0 0 0 0 0 0 127 0" result="hardAlpha"/>
<feOffset dy="1.22437"/>
<feGaussianBlur stdDeviation="0.918278"/>
<feColorMatrix type="matrix" values="0 0 0 0 0 0 0 0 0 0 0 0 0 0 0 0 0 0 0.2 0"/>
<feBlend mode="normal" in2="BackgroundImageFix" result="effect1_dropShadow_5077_52669"/>
<feBlend mode="normal" in="SourceGraphic" in2="effect1_dropShadow_5077_52669" result="shape"/>
</filter>
<filter id="filter5_d_5077_52669" x="104.163" y="88.3878" width="9.67311" height="9.67311" filterUnits="userSpaceOnUse" color-interpolation-filters="sRGB">
<feFlood flood-opacity="0" result="BackgroundImageFix"/>
<feColorMatrix in="SourceAlpha" type="matrix" values="0 0 0 0 0 0 0 0 0 0 0 0 0 0 0 0 0 0 127 0" result="hardAlpha"/>
<feOffset dy="1.22437"/>
<feGaussianBlur stdDeviation="0.918278"/>
<feColorMatrix type="matrix" values="0 0 0 0 0 0 0 0 0 0 0 0 0 0 0 0 0 0 0.2 0"/>
<feBlend mode="normal" in2="BackgroundImageFix" result="effect1_dropShadow_5077_52669"/>
<feBlend mode="normal" in="SourceGraphic" in2="effect1_dropShadow_5077_52669" result="shape"/>
</filter>
<filter id="filter6_d_5077_52669" x="73.1634" y="15.3878" width="13.6731" height="13.6731" filterUnits="userSpaceOnUse" color-interpolation-filters="sRGB">
<feFlood flood-opacity="0" result="BackgroundImageFix"/>
<feColorMatrix in="SourceAlpha" type="matrix" values="0 0 0 0 0 0 0 0 0 0 0 0 0 0 0 0 0 0 127 0" result="hardAlpha"/>
<feOffset dy="1.22437"/>
<feGaussianBlur stdDeviation="0.918278"/>
<feColorMatrix type="matrix" values="0 0 0 0 0 0 0 0 0 0 0 0 0 0 0 0 0 0 0.2 0"/>
<feBlend mode="normal" in2="BackgroundImageFix" result="effect1_dropShadow_5077_52669"/>
<feBlend mode="normal" in="SourceGraphic" in2="effect1_dropShadow_5077_52669" result="shape"/>
</filter>
<filter id="filter7_d_5077_52669" x="47.1634" y="61.3878" width="9.67311" height="9.67311" filterUnits="userSpaceOnUse" color-interpolation-filters="sRGB">
<feFlood flood-opacity="0" result="BackgroundImageFix"/>
<feColorMatrix in="SourceAlpha" type="matrix" values="0 0 0 0 0 0 0 0 0 0 0 0 0 0 0 0 0 0 127 0" result="hardAlpha"/>
<feOffset dy="1.22437"/>
<feGaussianBlur stdDeviation="0.918278"/>
<feColorMatrix type="matrix" values="0 0 0 0 0 0 0 0 0 0 0 0 0 0 0 0 0 0 0.2 0"/>
<feBlend mode="normal" in2="BackgroundImageFix" result="effect1_dropShadow_5077_52669"/>
<feBlend mode="normal" in="SourceGraphic" in2="effect1_dropShadow_5077_52669" result="shape"/>
</filter>
<filter id="filter8_d_5077_52669" x="94.1634" y="14.3878" width="9.67311" height="9.67311" filterUnits="userSpaceOnUse" color-interpolation-filters="sRGB">
<feFlood flood-opacity="0" result="BackgroundImageFix"/>
<feColorMatrix in="SourceAlpha" type="matrix" values="0 0 0 0 0 0 0 0 0 0 0 0 0 0 0 0 0 0 127 0" result="hardAlpha"/>
<feOffset dy="1.22437"/>
<feGaussianBlur stdDeviation="0.918278"/>
<feColorMatrix type="matrix" values="0 0 0 0 0 0 0 0 0 0 0 0 0 0 0 0 0 0 0.2 0"/>
<feBlend mode="normal" in2="BackgroundImageFix" result="effect1_dropShadow_5077_52669"/>
<feBlend mode="normal" in="SourceGraphic" in2="effect1_dropShadow_5077_52669" result="shape"/>
</filter>
</defs>
</svg>
