<svg width="253" height="80" viewBox="0 0 253 80" fill="none" xmlns="http://www.w3.org/2000/svg">
<path d="M108.101 10.9785H109.427V15.3672C110.033 15.3672 110.459 15.251 110.705 15.0186C110.951 14.7816 111.266 14.2165 111.648 13.3232C111.926 12.667 112.154 12.2044 112.332 11.9355C112.514 11.6621 112.772 11.4342 113.104 11.252C113.437 11.0651 113.804 10.9717 114.205 10.9717C114.715 10.9717 114.984 10.9762 115.012 10.9854V12.1338C114.966 12.1338 114.877 12.1315 114.745 12.127C114.599 12.1224 114.51 12.1201 114.479 12.1201C114.055 12.1201 113.74 12.2227 113.535 12.4277C113.326 12.6328 113.086 13.0703 112.817 13.7402C112.48 14.5879 112.195 15.1234 111.963 15.3467C111.73 15.5654 111.452 15.7409 111.129 15.873C111.776 16.0508 112.414 16.6478 113.043 17.6641L115.107 21H113.46L111.785 18.2793C111.325 17.5273 110.94 17.0124 110.63 16.7344C110.32 16.4518 109.919 16.3105 109.427 16.3105V21H108.101V10.9785ZM116.03 23.7959L115.894 22.6406C116.162 22.7135 116.397 22.75 116.598 22.75C116.871 22.75 117.09 22.7044 117.254 22.6133C117.418 22.5221 117.552 22.3945 117.657 22.2305C117.735 22.1074 117.86 21.8021 118.033 21.3145C118.056 21.2461 118.092 21.1458 118.143 21.0137L115.388 13.7402H116.714L118.225 17.9443C118.421 18.4775 118.596 19.0381 118.751 19.626C118.892 19.0609 119.061 18.5094 119.257 17.9717L120.809 13.7402H122.039L119.277 21.123C118.981 21.9206 118.751 22.4697 118.587 22.7705C118.368 23.1761 118.118 23.4723 117.835 23.6592C117.552 23.8506 117.215 23.9463 116.823 23.9463C116.586 23.9463 116.322 23.8962 116.03 23.7959ZM122.921 23.7822V13.7402H124.042V14.6836C124.306 14.3145 124.605 14.0387 124.938 13.8564C125.27 13.6696 125.674 13.5762 126.147 13.5762C126.767 13.5762 127.314 13.7357 127.788 14.0547C128.262 14.3737 128.62 14.8249 128.861 15.4082C129.103 15.987 129.224 16.6227 129.224 17.3154C129.224 18.0583 129.089 18.7282 128.82 19.3252C128.556 19.9176 128.169 20.3734 127.658 20.6924C127.152 21.0068 126.619 21.1641 126.059 21.1641C125.648 21.1641 125.279 21.0775 124.951 20.9043C124.628 20.7311 124.361 20.5124 124.151 20.248V23.7822H122.921ZM124.035 17.4111C124.035 18.3454 124.224 19.0358 124.603 19.4824C124.981 19.929 125.439 20.1523 125.977 20.1523C126.523 20.1523 126.991 19.9222 127.378 19.4619C127.77 18.9971 127.966 18.2793 127.966 17.3086C127.966 16.3835 127.774 15.6908 127.392 15.2305C127.013 14.7702 126.56 14.54 126.031 14.54C125.507 14.54 125.042 14.7861 124.637 15.2783C124.236 15.766 124.035 16.4769 124.035 17.4111ZM130.714 13.7402H131.944V19.2773L135.355 13.7402H136.682V21H135.451V15.4971L132.04 21H130.714V13.7402ZM139.136 13.7402H144.851V21H143.627V14.7588H140.366V18.375C140.366 19.2181 140.339 19.7741 140.284 20.043C140.229 20.3118 140.079 20.5465 139.833 20.7471C139.587 20.9476 139.231 21.0479 138.767 21.0479C138.479 21.0479 138.149 21.0296 137.775 20.9932V19.9678H138.315C138.571 19.9678 138.753 19.9427 138.862 19.8926C138.972 19.8379 139.045 19.7536 139.081 19.6396C139.118 19.5257 139.136 19.1543 139.136 18.5254V13.7402ZM146.689 13.7402H147.92V16.5771H149.479C150.495 16.5771 151.276 16.7754 151.823 17.1719C152.375 17.5638 152.65 18.1061 152.65 18.7988C152.65 19.4049 152.42 19.9245 151.96 20.3574C151.504 20.7858 150.773 21 149.766 21H146.689V13.7402ZM147.92 19.9883H149.212C149.991 19.9883 150.547 19.8926 150.88 19.7012C151.213 19.5098 151.379 19.2113 151.379 18.8057C151.379 18.4912 151.256 18.2109 151.01 17.9648C150.764 17.7188 150.219 17.5957 149.376 17.5957H147.92V19.9883ZM158.748 18.3408L159.958 18.498C159.826 19.332 159.486 19.986 158.939 20.46C158.397 20.9294 157.729 21.1641 156.937 21.1641C155.943 21.1641 155.143 20.8405 154.537 20.1934C153.936 19.5417 153.635 18.6097 153.635 17.3975C153.635 16.6136 153.765 15.9277 154.024 15.3398C154.284 14.752 154.678 14.3122 155.207 14.0205C155.74 13.7243 156.319 13.5762 156.943 13.5762C157.732 13.5762 158.377 13.7767 158.878 14.1777C159.379 14.5742 159.701 15.1393 159.842 15.873L158.646 16.0576C158.532 15.57 158.329 15.2031 158.037 14.957C157.75 14.7109 157.401 14.5879 156.991 14.5879C156.371 14.5879 155.868 14.8112 155.48 15.2578C155.093 15.6999 154.899 16.4017 154.899 17.3633C154.899 18.3385 155.086 19.0472 155.46 19.4893C155.834 19.9313 156.321 20.1523 156.923 20.1523C157.406 20.1523 157.809 20.0042 158.133 19.708C158.456 19.4118 158.661 18.9561 158.748 18.3408ZM161.004 13.7402H162.234V16.8779C162.626 16.8779 162.9 16.8027 163.055 16.6523C163.214 16.502 163.447 16.0645 163.752 15.3398C163.993 14.7656 164.189 14.3874 164.34 14.2051C164.49 14.0228 164.663 13.8997 164.859 13.8359C165.055 13.7721 165.37 13.7402 165.803 13.7402H166.049V14.7588L165.707 14.752C165.383 14.752 165.176 14.7998 165.085 14.8955C164.989 14.9958 164.843 15.2943 164.647 15.791C164.461 16.265 164.29 16.5931 164.135 16.7754C163.98 16.9577 163.741 17.124 163.417 17.2744C163.946 17.4157 164.465 17.9079 164.976 18.751L166.322 21H164.969L163.656 18.751C163.387 18.2998 163.153 18.0036 162.952 17.8623C162.752 17.7165 162.512 17.6436 162.234 17.6436V21H161.004V13.7402Z" fill="white"/>
<path d="M150.121 35.9785H151.447V40.4766H153.375C153.471 39.0547 153.938 37.9222 154.776 37.0791C155.615 36.2314 156.654 35.8076 157.894 35.8076C159.201 35.8076 160.284 36.2679 161.141 37.1885C162.002 38.109 162.433 39.3577 162.433 40.9346C162.433 42.5752 162.004 43.8581 161.147 44.7832C160.291 45.7083 159.195 46.1709 157.859 46.1709C156.647 46.1709 155.635 45.7721 154.824 44.9746C154.018 44.1725 153.544 43.0651 153.402 41.6523H151.447V46H150.121V35.9785ZM154.708 41.0371C154.708 42.304 155 43.2884 155.583 43.9902C156.166 44.6875 156.932 45.0361 157.88 45.0361C158.851 45.0361 159.625 44.6852 160.204 43.9834C160.783 43.2816 161.072 42.2721 161.072 40.9551C161.072 39.7064 160.787 38.7243 160.218 38.0088C159.648 37.2887 158.878 36.9287 157.907 36.9287C156.918 36.9287 156.137 37.2933 155.562 38.0225C154.993 38.7471 154.708 39.752 154.708 41.0371ZM168.462 38.7402V41.8779C168.854 41.8779 169.13 41.8027 169.289 41.6523C169.449 41.502 169.681 41.0645 169.986 40.3398C170.273 39.6517 170.531 39.2119 170.759 39.0205C170.982 38.8337 171.338 38.7402 171.825 38.7402H172.276V39.7588L171.941 39.752C171.613 39.752 171.404 39.7998 171.312 39.8955C171.217 39.9958 171.071 40.2943 170.875 40.791C170.693 41.265 170.524 41.5931 170.369 41.7754C170.214 41.9577 169.973 42.124 169.645 42.2744C170.178 42.4157 170.697 42.9079 171.203 43.751L172.557 46H171.203L169.884 43.751C169.615 43.2952 169.38 42.9967 169.18 42.8555C168.979 42.7142 168.74 42.6436 168.462 42.6436V46H167.204V42.6436C166.931 42.6436 166.694 42.7142 166.493 42.8555C166.293 42.9922 166.058 43.2907 165.789 43.751L164.47 46H163.116L164.463 43.751C164.973 42.9079 165.495 42.4157 166.028 42.2744C165.664 42.1058 165.409 41.9235 165.263 41.7275C165.117 41.527 164.898 41.0531 164.606 40.3057C164.506 40.055 164.399 39.9001 164.285 39.8408C164.167 39.7816 163.991 39.752 163.759 39.752C163.7 39.752 163.579 39.7542 163.396 39.7588V38.7402H163.567C164.041 38.7402 164.374 38.7699 164.565 38.8291C164.761 38.8838 164.935 39.0046 165.085 39.1914C165.24 39.3737 165.44 39.7565 165.687 40.3398C165.987 41.0553 166.215 41.4906 166.37 41.6455C166.53 41.8005 166.808 41.8779 167.204 41.8779V38.7402H168.462ZM173.445 38.7402H174.676V41.7617H178.087V38.7402H179.317V46H178.087V42.7803H174.676V46H173.445V38.7402ZM180.719 42.3701C180.719 41.0257 181.092 40.0299 181.84 39.3828C182.464 38.8451 183.225 38.5762 184.123 38.5762C185.121 38.5762 185.937 38.9043 186.57 39.5605C187.204 40.2122 187.521 41.1146 187.521 42.2676C187.521 43.2018 187.379 43.9378 187.097 44.4756C186.819 45.0088 186.411 45.4235 185.873 45.7197C185.34 46.016 184.757 46.1641 184.123 46.1641C183.107 46.1641 182.284 45.8382 181.655 45.1865C181.031 44.5348 180.719 43.596 180.719 42.3701ZM181.983 42.3701C181.983 43.2998 182.186 43.9971 182.592 44.4619C182.997 44.9222 183.508 45.1523 184.123 45.1523C184.734 45.1523 185.242 44.9199 185.647 44.4551C186.053 43.9902 186.256 43.2816 186.256 42.3291C186.256 41.4313 186.051 40.7523 185.641 40.292C185.235 39.8271 184.729 39.5947 184.123 39.5947C183.508 39.5947 182.997 39.8249 182.592 40.2852C182.186 40.7454 181.983 41.4404 181.983 42.3701ZM188.491 42.9922V41.7549H192.271V42.9922H188.491ZM193.81 35.9785H195.136V40.3672C195.742 40.3672 196.168 40.251 196.414 40.0186C196.66 39.7816 196.975 39.2165 197.357 38.3232C197.635 37.667 197.863 37.2044 198.041 36.9355C198.223 36.6621 198.481 36.4342 198.813 36.252C199.146 36.0651 199.513 35.9717 199.914 35.9717C200.424 35.9717 200.693 35.9762 200.721 35.9854V37.1338C200.675 37.1338 200.586 37.1315 200.454 37.127C200.308 37.1224 200.219 37.1201 200.188 37.1201C199.764 37.1201 199.449 37.2227 199.244 37.4277C199.035 37.6328 198.795 38.0703 198.526 38.7402C198.189 39.5879 197.904 40.1234 197.672 40.3467C197.439 40.5654 197.161 40.7409 196.838 40.873C197.485 41.0508 198.123 41.6478 198.752 42.6641L200.816 46H199.169L197.494 43.2793C197.034 42.5273 196.649 42.0124 196.339 41.7344C196.029 41.4518 195.628 41.3105 195.136 41.3105V46H193.81V35.9785ZM201.739 48.7959L201.603 47.6406C201.871 47.7135 202.106 47.75 202.307 47.75C202.58 47.75 202.799 47.7044 202.963 47.6133C203.127 47.5221 203.261 47.3945 203.366 47.2305C203.444 47.1074 203.569 46.8021 203.742 46.3145C203.765 46.2461 203.801 46.1458 203.852 46.0137L201.097 38.7402H202.423L203.934 42.9443C204.13 43.4775 204.305 44.0381 204.46 44.626C204.601 44.0609 204.77 43.5094 204.966 42.9717L206.518 38.7402H207.748L204.986 46.123C204.69 46.9206 204.46 47.4697 204.296 47.7705C204.077 48.1761 203.826 48.4723 203.544 48.6592C203.261 48.8506 202.924 48.9463 202.532 48.9463C202.295 48.9463 202.031 48.8962 201.739 48.7959ZM208.63 48.7822V38.7402H209.751V39.6836C210.015 39.3145 210.314 39.0387 210.646 38.8564C210.979 38.6696 211.382 38.5762 211.856 38.5762C212.476 38.5762 213.023 38.7357 213.497 39.0547C213.971 39.3737 214.329 39.8249 214.57 40.4082C214.812 40.987 214.933 41.6227 214.933 42.3154C214.933 43.0583 214.798 43.7282 214.529 44.3252C214.265 44.9176 213.878 45.3734 213.367 45.6924C212.861 46.0068 212.328 46.1641 211.768 46.1641C211.357 46.1641 210.988 46.0775 210.66 45.9043C210.337 45.7311 210.07 45.5124 209.86 45.248V48.7822H208.63ZM209.744 42.4111C209.744 43.3454 209.933 44.0358 210.312 44.4824C210.69 44.929 211.148 45.1523 211.686 45.1523C212.232 45.1523 212.7 44.9222 213.087 44.4619C213.479 43.9971 213.675 43.2793 213.675 42.3086C213.675 41.3835 213.483 40.6908 213.101 40.2305C212.722 39.7702 212.269 39.54 211.74 39.54C211.216 39.54 210.751 39.7861 210.346 40.2783C209.945 40.766 209.744 41.4769 209.744 42.4111ZM216.423 38.7402H217.653V44.2773L221.064 38.7402H222.391V46H221.16V40.4971L217.749 46H216.423V38.7402ZM224.845 38.7402H230.56V46H229.336V39.7588H226.075V43.375C226.075 44.2181 226.048 44.7741 225.993 45.043C225.938 45.3118 225.788 45.5465 225.542 45.7471C225.296 45.9476 224.94 46.0479 224.476 46.0479C224.188 46.0479 223.858 46.0296 223.484 45.9932V44.9678H224.024C224.28 44.9678 224.462 44.9427 224.571 44.8926C224.681 44.8379 224.754 44.7536 224.79 44.6396C224.826 44.5257 224.845 44.1543 224.845 43.5254V38.7402ZM232.398 38.7402H233.629V41.5771H235.188C236.204 41.5771 236.985 41.7754 237.532 42.1719C238.084 42.5638 238.359 43.1061 238.359 43.7988C238.359 44.4049 238.129 44.9245 237.669 45.3574C237.213 45.7858 236.482 46 235.475 46H232.398V38.7402ZM233.629 44.9883H234.921C235.7 44.9883 236.256 44.8926 236.589 44.7012C236.922 44.5098 237.088 44.2113 237.088 43.8057C237.088 43.4912 236.965 43.2109 236.719 42.9648C236.473 42.7188 235.928 42.5957 235.085 42.5957H233.629V44.9883ZM244.457 43.3408L245.667 43.498C245.535 44.332 245.195 44.986 244.648 45.46C244.106 45.9294 243.438 46.1641 242.646 46.1641C241.652 46.1641 240.852 45.8405 240.246 45.1934C239.645 44.5417 239.344 43.6097 239.344 42.3975C239.344 41.6136 239.474 40.9277 239.733 40.3398C239.993 39.752 240.387 39.3122 240.916 39.0205C241.449 38.7243 242.028 38.5762 242.652 38.5762C243.441 38.5762 244.086 38.7767 244.587 39.1777C245.088 39.5742 245.41 40.1393 245.551 40.873L244.354 41.0576C244.241 40.57 244.038 40.2031 243.746 39.957C243.459 39.7109 243.11 39.5879 242.7 39.5879C242.08 39.5879 241.577 39.8112 241.189 40.2578C240.802 40.6999 240.608 41.4017 240.608 42.3633C240.608 43.3385 240.795 44.0472 241.169 44.4893C241.543 44.9313 242.03 45.1523 242.632 45.1523C243.115 45.1523 243.518 45.0042 243.842 44.708C244.165 44.4118 244.37 43.9561 244.457 43.3408ZM246.713 38.7402H247.943V41.8779C248.335 41.8779 248.609 41.8027 248.764 41.6523C248.923 41.502 249.156 41.0645 249.461 40.3398C249.702 39.7656 249.898 39.3874 250.049 39.2051C250.199 39.0228 250.372 38.8997 250.568 38.8359C250.764 38.7721 251.079 38.7402 251.512 38.7402H251.758V39.7588L251.416 39.752C251.092 39.752 250.885 39.7998 250.794 39.8955C250.698 39.9958 250.552 40.2943 250.356 40.791C250.17 41.265 249.999 41.5931 249.844 41.7754C249.689 41.9577 249.45 42.124 249.126 42.2744C249.655 42.4157 250.174 42.9079 250.685 43.751L252.031 46H250.678L249.365 43.751C249.096 43.2998 248.862 43.0036 248.661 42.8623C248.461 42.7165 248.221 42.6436 247.943 42.6436V46H246.713V38.7402Z" fill="white"/>
<path d="M118.121 66.9785H119.447V71.4766H121.375C121.471 70.0547 121.938 68.9222 122.776 68.0791C123.615 67.2314 124.654 66.8076 125.894 66.8076C127.201 66.8076 128.284 67.2679 129.141 68.1885C130.002 69.109 130.433 70.3577 130.433 71.9346C130.433 73.5752 130.004 74.8581 129.147 75.7832C128.291 76.7083 127.195 77.1709 125.859 77.1709C124.647 77.1709 123.635 76.7721 122.824 75.9746C122.018 75.1725 121.544 74.0651 121.402 72.6523H119.447V77H118.121V66.9785ZM122.708 72.0371C122.708 73.304 123 74.2884 123.583 74.9902C124.166 75.6875 124.932 76.0361 125.88 76.0361C126.851 76.0361 127.625 75.6852 128.204 74.9834C128.783 74.2816 129.072 73.2721 129.072 71.9551C129.072 70.7064 128.787 69.7243 128.218 69.0088C127.648 68.2887 126.878 67.9287 125.907 67.9287C124.918 67.9287 124.137 68.2933 123.562 69.0225C122.993 69.7471 122.708 70.752 122.708 72.0371ZM136.462 69.7402V72.8779C136.854 72.8779 137.13 72.8027 137.289 72.6523C137.449 72.502 137.681 72.0645 137.986 71.3398C138.273 70.6517 138.531 70.2119 138.759 70.0205C138.982 69.8337 139.338 69.7402 139.825 69.7402H140.276V70.7588L139.941 70.752C139.613 70.752 139.404 70.7998 139.312 70.8955C139.217 70.9958 139.071 71.2943 138.875 71.791C138.693 72.265 138.524 72.5931 138.369 72.7754C138.214 72.9577 137.973 73.124 137.645 73.2744C138.178 73.4157 138.697 73.9079 139.203 74.751L140.557 77H139.203L137.884 74.751C137.615 74.2952 137.38 73.9967 137.18 73.8555C136.979 73.7142 136.74 73.6436 136.462 73.6436V77H135.204V73.6436C134.931 73.6436 134.694 73.7142 134.493 73.8555C134.293 73.9922 134.058 74.2907 133.789 74.751L132.47 77H131.116L132.463 74.751C132.973 73.9079 133.495 73.4157 134.028 73.2744C133.664 73.1058 133.409 72.9235 133.263 72.7275C133.117 72.527 132.898 72.0531 132.606 71.3057C132.506 71.055 132.399 70.9001 132.285 70.8408C132.167 70.7816 131.991 70.752 131.759 70.752C131.7 70.752 131.579 70.7542 131.396 70.7588V69.7402H131.567C132.041 69.7402 132.374 69.7699 132.565 69.8291C132.761 69.8838 132.935 70.0046 133.085 70.1914C133.24 70.3737 133.44 70.7565 133.687 71.3398C133.987 72.0553 134.215 72.4906 134.37 72.6455C134.53 72.8005 134.808 72.8779 135.204 72.8779V69.7402H136.462ZM141.445 69.7402H142.676V72.7617H146.087V69.7402H147.317V77H146.087V73.7803H142.676V77H141.445V69.7402ZM148.719 73.3701C148.719 72.0257 149.092 71.0299 149.84 70.3828C150.464 69.8451 151.225 69.5762 152.123 69.5762C153.121 69.5762 153.937 69.9043 154.57 70.5605C155.204 71.2122 155.521 72.1146 155.521 73.2676C155.521 74.2018 155.379 74.9378 155.097 75.4756C154.819 76.0088 154.411 76.4235 153.873 76.7197C153.34 77.016 152.757 77.1641 152.123 77.1641C151.107 77.1641 150.284 76.8382 149.655 76.1865C149.031 75.5348 148.719 74.596 148.719 73.3701ZM149.983 73.3701C149.983 74.2998 150.186 74.9971 150.592 75.4619C150.997 75.9222 151.508 76.1523 152.123 76.1523C152.734 76.1523 153.242 75.9199 153.647 75.4551C154.053 74.9902 154.256 74.2816 154.256 73.3291C154.256 72.4313 154.051 71.7523 153.641 71.292C153.235 70.8271 152.729 70.5947 152.123 70.5947C151.508 70.5947 150.997 70.8249 150.592 71.2852C150.186 71.7454 149.983 72.4404 149.983 73.3701ZM156.491 73.9922V72.7549H160.271V73.9922H156.491ZM161.81 66.9785H163.136V71.3672C163.742 71.3672 164.168 71.251 164.414 71.0186C164.66 70.7816 164.975 70.2165 165.357 69.3232C165.635 68.667 165.863 68.2044 166.041 67.9355C166.223 67.6621 166.481 67.4342 166.813 67.252C167.146 67.0651 167.513 66.9717 167.914 66.9717C168.424 66.9717 168.693 66.9762 168.721 66.9854V68.1338C168.675 68.1338 168.586 68.1315 168.454 68.127C168.308 68.1224 168.219 68.1201 168.188 68.1201C167.764 68.1201 167.449 68.2227 167.244 68.4277C167.035 68.6328 166.795 69.0703 166.526 69.7402C166.189 70.5879 165.904 71.1234 165.672 71.3467C165.439 71.5654 165.161 71.7409 164.838 71.873C165.485 72.0508 166.123 72.6478 166.752 73.6641L168.816 77H167.169L165.494 74.2793C165.034 73.5273 164.649 73.0124 164.339 72.7344C164.029 72.4518 163.628 72.3105 163.136 72.3105V77H161.81V66.9785ZM169.739 79.7959L169.603 78.6406C169.871 78.7135 170.106 78.75 170.307 78.75C170.58 78.75 170.799 78.7044 170.963 78.6133C171.127 78.5221 171.261 78.3945 171.366 78.2305C171.444 78.1074 171.569 77.8021 171.742 77.3145C171.765 77.2461 171.801 77.1458 171.852 77.0137L169.097 69.7402H170.423L171.934 73.9443C172.13 74.4775 172.305 75.0381 172.46 75.626C172.601 75.0609 172.77 74.5094 172.966 73.9717L174.518 69.7402H175.748L172.986 77.123C172.69 77.9206 172.46 78.4697 172.296 78.7705C172.077 79.1761 171.826 79.4723 171.544 79.6592C171.261 79.8506 170.924 79.9463 170.532 79.9463C170.295 79.9463 170.031 79.8962 169.739 79.7959ZM176.63 79.7822V69.7402H177.751V70.6836C178.015 70.3145 178.314 70.0387 178.646 69.8564C178.979 69.6696 179.382 69.5762 179.856 69.5762C180.476 69.5762 181.023 69.7357 181.497 70.0547C181.971 70.3737 182.329 70.8249 182.57 71.4082C182.812 71.987 182.933 72.6227 182.933 73.3154C182.933 74.0583 182.798 74.7282 182.529 75.3252C182.265 75.9176 181.878 76.3734 181.367 76.6924C180.861 77.0068 180.328 77.1641 179.768 77.1641C179.357 77.1641 178.988 77.0775 178.66 76.9043C178.337 76.7311 178.07 76.5124 177.86 76.248V79.7822H176.63ZM177.744 73.4111C177.744 74.3454 177.933 75.0358 178.312 75.4824C178.69 75.929 179.148 76.1523 179.686 76.1523C180.232 76.1523 180.7 75.9222 181.087 75.4619C181.479 74.9971 181.675 74.2793 181.675 73.3086C181.675 72.3835 181.483 71.6908 181.101 71.2305C180.722 70.7702 180.269 70.54 179.74 70.54C179.216 70.54 178.751 70.7861 178.346 71.2783C177.945 71.766 177.744 72.4769 177.744 73.4111ZM184.423 69.7402H185.653V75.2773L189.064 69.7402H190.391V77H189.16V71.4971L185.749 77H184.423V69.7402ZM192.845 69.7402H198.56V77H197.336V70.7588H194.075V74.375C194.075 75.2181 194.048 75.7741 193.993 76.043C193.938 76.3118 193.788 76.5465 193.542 76.7471C193.296 76.9476 192.94 77.0479 192.476 77.0479C192.188 77.0479 191.858 77.0296 191.484 76.9932V75.9678H192.024C192.28 75.9678 192.462 75.9427 192.571 75.8926C192.681 75.8379 192.754 75.7536 192.79 75.6396C192.826 75.5257 192.845 75.1543 192.845 74.5254V69.7402ZM200.398 69.7402H201.629V72.5771H203.188C204.204 72.5771 204.985 72.7754 205.532 73.1719C206.084 73.5638 206.359 74.1061 206.359 74.7988C206.359 75.4049 206.129 75.9245 205.669 76.3574C205.213 76.7858 204.482 77 203.475 77H200.398V69.7402ZM201.629 75.9883H202.921C203.7 75.9883 204.256 75.8926 204.589 75.7012C204.922 75.5098 205.088 75.2113 205.088 74.8057C205.088 74.4912 204.965 74.2109 204.719 73.9648C204.473 73.7188 203.928 73.5957 203.085 73.5957H201.629V75.9883ZM212.457 74.3408L213.667 74.498C213.535 75.332 213.195 75.986 212.648 76.46C212.106 76.9294 211.438 77.1641 210.646 77.1641C209.652 77.1641 208.852 76.8405 208.246 76.1934C207.645 75.5417 207.344 74.6097 207.344 73.3975C207.344 72.6136 207.474 71.9277 207.733 71.3398C207.993 70.752 208.387 70.3122 208.916 70.0205C209.449 69.7243 210.028 69.5762 210.652 69.5762C211.441 69.5762 212.086 69.7767 212.587 70.1777C213.088 70.5742 213.41 71.1393 213.551 71.873L212.354 72.0576C212.241 71.57 212.038 71.2031 211.746 70.957C211.459 70.7109 211.11 70.5879 210.7 70.5879C210.08 70.5879 209.577 70.8112 209.189 71.2578C208.802 71.6999 208.608 72.4017 208.608 73.3633C208.608 74.3385 208.795 75.0472 209.169 75.4893C209.543 75.9313 210.03 76.1523 210.632 76.1523C211.115 76.1523 211.518 76.0042 211.842 75.708C212.165 75.4118 212.37 74.9561 212.457 74.3408ZM214.713 69.7402H215.943V72.8779C216.335 72.8779 216.609 72.8027 216.764 72.6523C216.923 72.502 217.156 72.0645 217.461 71.3398C217.702 70.7656 217.898 70.3874 218.049 70.2051C218.199 70.0228 218.372 69.8997 218.568 69.8359C218.764 69.7721 219.079 69.7402 219.512 69.7402H219.758V70.7588L219.416 70.752C219.092 70.752 218.885 70.7998 218.794 70.8955C218.698 70.9958 218.552 71.2943 218.356 71.791C218.17 72.265 217.999 72.5931 217.844 72.7754C217.689 72.9577 217.45 73.124 217.126 73.2744C217.655 73.4157 218.174 73.9079 218.685 74.751L220.031 77H218.678L217.365 74.751C217.096 74.2998 216.862 74.0036 216.661 73.8623C216.461 73.7165 216.221 73.6436 215.943 73.6436V77H214.713V69.7402Z" fill="white"/>
<path d="M112.5 33.5C113 23 124.5 92 47 21.5" stroke="#87A4BC" stroke-miterlimit="3.99393" stroke-linecap="round" stroke-dasharray="2 4"/>
<path d="M119 56.5C122.5 47.5 110.5 90 47 21.5" stroke="#87A4BC" stroke-miterlimit="3.99393" stroke-linecap="round" stroke-dasharray="2 4"/>
<path d="M137 41C125 46 115 35.5 113.5 33" stroke="#87A4BC" stroke-miterlimit="3.99393" stroke-linecap="round" stroke-dasharray="2 4"/>
<path d="M136.964 41.2928C136.581 54.2872 129.5 57 119.5 56" stroke="#87A4BC" stroke-miterlimit="3.99393" stroke-linecap="round" stroke-dasharray="2 4"/>
<g filter="url(#filter0_d_5077_52827)">
<circle cx="119" cy="56" r="2" fill="#0C99CF"/>
<circle cx="119" cy="56" r="2.5" stroke="white"/>
</g>
<g filter="url(#filter1_d_5077_52827)">
<circle cx="137" cy="41" r="2" fill="#0C99CF"/>
<circle cx="137" cy="41" r="2.5" stroke="white"/>
</g>
<g filter="url(#filter2_d_5077_52827)">
<circle cx="47" cy="21" r="3" fill="#0C99CF"/>
<circle cx="47" cy="21" r="4" stroke="white" stroke-width="2"/>
</g>
<g filter="url(#filter3_d_5077_52827)">
<circle cx="113" cy="33" r="2" fill="#0C99CF"/>
<circle cx="113" cy="33" r="2.5" stroke="white"/>
</g>
<path d="M1.02539 12V1.97852H4.78516C5.55078 1.97852 6.16374 2.08105 6.62402 2.28613C7.08887 2.48665 7.45117 2.79883 7.71094 3.22266C7.97526 3.64193 8.10742 4.08171 8.10742 4.54199C8.10742 4.97038 7.99121 5.3737 7.75879 5.75195C7.52637 6.13021 7.17546 6.43555 6.70605 6.66797C7.31217 6.8457 7.77702 7.14876 8.10059 7.57715C8.42871 8.00553 8.59277 8.51139 8.59277 9.09473C8.59277 9.56413 8.49251 10.0016 8.29199 10.4072C8.09603 10.8083 7.85221 11.1182 7.56055 11.3369C7.26888 11.5557 6.90202 11.722 6.45996 11.8359C6.02246 11.9453 5.4847 12 4.84668 12H1.02539ZM2.35156 6.18945H4.51855C5.10645 6.18945 5.52799 6.15072 5.7832 6.07324C6.12044 5.97298 6.37337 5.80664 6.54199 5.57422C6.71517 5.3418 6.80176 5.05013 6.80176 4.69922C6.80176 4.36654 6.72201 4.07487 6.5625 3.82422C6.40299 3.56901 6.17513 3.39583 5.87891 3.30469C5.58268 3.20898 5.07454 3.16113 4.35449 3.16113H2.35156V6.18945ZM2.35156 10.8174H4.84668C5.27507 10.8174 5.57585 10.8014 5.74902 10.7695C6.05436 10.7148 6.30957 10.6237 6.51465 10.4961C6.71973 10.3685 6.88835 10.1839 7.02051 9.94238C7.15267 9.69629 7.21875 9.41374 7.21875 9.09473C7.21875 8.72103 7.12305 8.39746 6.93164 8.12402C6.74023 7.84603 6.47363 7.65234 6.13184 7.54297C5.7946 7.42904 5.30697 7.37207 4.66895 7.37207H2.35156V10.8174ZM10.377 12V1.97852H12.373L14.7451 9.07422C14.9639 9.73503 15.1234 10.2295 15.2236 10.5576C15.3376 10.193 15.5153 9.65755 15.7568 8.95117L18.1562 1.97852H19.9404V12H18.6621V3.6123L15.75 12H14.5537L11.6553 3.46875V12H10.377ZM24.6299 12V3.16113H21.3281V1.97852H29.2715V3.16113H25.9561V12H24.6299ZM30.6523 1.97852H38.5342V12H37.2012V3.16113H31.9785V12H30.6523V1.97852Z" fill="white"/>
<defs>
<filter id="filter0_d_5077_52827" x="114.163" y="52.3878" width="9.67311" height="9.67311" filterUnits="userSpaceOnUse" color-interpolation-filters="sRGB">
<feFlood flood-opacity="0" result="BackgroundImageFix"/>
<feColorMatrix in="SourceAlpha" type="matrix" values="0 0 0 0 0 0 0 0 0 0 0 0 0 0 0 0 0 0 127 0" result="hardAlpha"/>
<feOffset dy="1.22437"/>
<feGaussianBlur stdDeviation="0.918278"/>
<feColorMatrix type="matrix" values="0 0 0 0 0 0 0 0 0 0 0 0 0 0 0 0 0 0 0.2 0"/>
<feBlend mode="normal" in2="BackgroundImageFix" result="effect1_dropShadow_5077_52827"/>
<feBlend mode="normal" in="SourceGraphic" in2="effect1_dropShadow_5077_52827" result="shape"/>
</filter>
<filter id="filter1_d_5077_52827" x="132.163" y="37.3878" width="9.67311" height="9.67311" filterUnits="userSpaceOnUse" color-interpolation-filters="sRGB">
<feFlood flood-opacity="0" result="BackgroundImageFix"/>
<feColorMatrix in="SourceAlpha" type="matrix" values="0 0 0 0 0 0 0 0 0 0 0 0 0 0 0 0 0 0 127 0" result="hardAlpha"/>
<feOffset dy="1.22437"/>
<feGaussianBlur stdDeviation="0.918278"/>
<feColorMatrix type="matrix" values="0 0 0 0 0 0 0 0 0 0 0 0 0 0 0 0 0 0 0.2 0"/>
<feBlend mode="normal" in2="BackgroundImageFix" result="effect1_dropShadow_5077_52827"/>
<feBlend mode="normal" in="SourceGraphic" in2="effect1_dropShadow_5077_52827" result="shape"/>
</filter>
<filter id="filter2_d_5077_52827" x="40.1634" y="15.3878" width="13.6731" height="13.6731" filterUnits="userSpaceOnUse" color-interpolation-filters="sRGB">
<feFlood flood-opacity="0" result="BackgroundImageFix"/>
<feColorMatrix in="SourceAlpha" type="matrix" values="0 0 0 0 0 0 0 0 0 0 0 0 0 0 0 0 0 0 127 0" result="hardAlpha"/>
<feOffset dy="1.22437"/>
<feGaussianBlur stdDeviation="0.918278"/>
<feColorMatrix type="matrix" values="0 0 0 0 0 0 0 0 0 0 0 0 0 0 0 0 0 0 0.2 0"/>
<feBlend mode="normal" in2="BackgroundImageFix" result="effect1_dropShadow_5077_52827"/>
<feBlend mode="normal" in="SourceGraphic" in2="effect1_dropShadow_5077_52827" result="shape"/>
</filter>
<filter id="filter3_d_5077_52827" x="108.163" y="29.3878" width="9.67311" height="9.67311" filterUnits="userSpaceOnUse" color-interpolation-filters="sRGB">
<feFlood flood-opacity="0" result="BackgroundImageFix"/>
<feColorMatrix in="SourceAlpha" type="matrix" values="0 0 0 0 0 0 0 0 0 0 0 0 0 0 0 0 0 0 127 0" result="hardAlpha"/>
<feOffset dy="1.22437"/>
<feGaussianBlur stdDeviation="0.918278"/>
<feColorMatrix type="matrix" values="0 0 0 0 0 0 0 0 0 0 0 0 0 0 0 0 0 0 0.2 0"/>
<feBlend mode="normal" in2="BackgroundImageFix" result="effect1_dropShadow_5077_52827"/>
<feBlend mode="normal" in="SourceGraphic" in2="effect1_dropShadow_5077_52827" result="shape"/>
</filter>
</defs>
</svg>
