<svg width="148" height="112" viewBox="0 0 148 112" fill="none" xmlns="http://www.w3.org/2000/svg">
<path d="M1.12109 110V99.9785H2.44727V104.094H7.65625V99.9785H8.98242V110H7.65625V105.276H2.44727V110H1.12109ZM11.04 102.74H12.2705V108.277L15.6816 102.74H17.0078V110H15.7773V104.497L12.3662 110H11.04V102.74ZM18.8945 102.74H20.8086L22.7158 108.551L24.835 102.74H26.6055V110H25.375V104.155L23.2285 110H22.1279L20.0977 103.875V110H18.8945V102.74ZM33.6396 99.7393L34.7266 99.7529C34.6764 100.241 34.5671 100.58 34.3984 100.771C34.2344 100.963 34.0202 101.086 33.7559 101.141C33.4961 101.195 32.9834 101.223 32.2178 101.223C31.2015 101.223 30.5088 101.321 30.1396 101.517C29.7705 101.713 29.5039 102.027 29.3398 102.46C29.1803 102.888 29.0915 103.442 29.0732 104.121C29.3831 103.661 29.7454 103.317 30.1602 103.089C30.5749 102.856 31.042 102.74 31.5615 102.74C32.514 102.74 33.3024 103.068 33.9268 103.725C34.5511 104.376 34.8633 105.26 34.8633 106.377C34.8633 107.225 34.7061 107.92 34.3916 108.462C34.0771 109.004 33.7035 109.424 33.2705 109.72C32.8421 110.016 32.2565 110.164 31.5137 110.164C30.6523 110.164 29.9824 109.968 29.5039 109.576C29.0254 109.18 28.6585 108.674 28.4033 108.059C28.1481 107.443 28.0205 106.372 28.0205 104.846C28.0205 102.927 28.3441 101.635 28.9912 100.97C29.6429 100.304 30.6432 99.9717 31.9922 99.9717C32.8307 99.9717 33.307 99.958 33.4209 99.9307C33.5348 99.9033 33.6077 99.8395 33.6396 99.7393ZM33.5781 106.343C33.5781 105.586 33.3981 104.966 33.0381 104.483C32.6826 104 32.179 103.759 31.5273 103.759C30.8483 103.759 30.3242 104.014 29.9551 104.524C29.5859 105.035 29.4014 105.716 29.4014 106.568C29.4014 107.411 29.6042 108.056 30.0098 108.503C30.4199 108.95 30.9235 109.173 31.5205 109.173C32.1312 109.173 32.6257 108.915 33.0039 108.4C33.3867 107.881 33.5781 107.195 33.5781 106.343ZM35.8887 106.37C35.8887 105.026 36.2624 104.03 37.0098 103.383C37.6341 102.845 38.3952 102.576 39.293 102.576C40.291 102.576 41.1068 102.904 41.7402 103.561C42.3737 104.212 42.6904 105.115 42.6904 106.268C42.6904 107.202 42.5492 107.938 42.2666 108.476C41.9886 109.009 41.5807 109.424 41.043 109.72C40.5098 110.016 39.9264 110.164 39.293 110.164C38.2767 110.164 37.4541 109.838 36.8252 109.187C36.2008 108.535 35.8887 107.596 35.8887 106.37ZM37.1533 106.37C37.1533 107.3 37.3561 107.997 37.7617 108.462C38.1673 108.922 38.6777 109.152 39.293 109.152C39.9036 109.152 40.4118 108.92 40.8174 108.455C41.223 107.99 41.4258 107.282 41.4258 106.329C41.4258 105.431 41.2207 104.752 40.8105 104.292C40.4049 103.827 39.8991 103.595 39.293 103.595C38.6777 103.595 38.1673 103.825 37.7617 104.285C37.3561 104.745 37.1533 105.44 37.1533 106.37Z" fill="white"/>
<path d="M95.0254 12V1.97852H98.7852C99.5508 1.97852 100.164 2.08105 100.624 2.28613C101.089 2.48665 101.451 2.79883 101.711 3.22266C101.975 3.64193 102.107 4.08171 102.107 4.54199C102.107 4.97038 101.991 5.3737 101.759 5.75195C101.526 6.13021 101.175 6.43555 100.706 6.66797C101.312 6.8457 101.777 7.14876 102.101 7.57715C102.429 8.00553 102.593 8.51139 102.593 9.09473C102.593 9.56413 102.493 10.0016 102.292 10.4072C102.096 10.8083 101.852 11.1182 101.561 11.3369C101.269 11.5557 100.902 11.722 100.46 11.8359C100.022 11.9453 99.4847 12 98.8467 12H95.0254ZM96.3516 6.18945H98.5186C99.1064 6.18945 99.528 6.15072 99.7832 6.07324C100.12 5.97298 100.373 5.80664 100.542 5.57422C100.715 5.3418 100.802 5.05013 100.802 4.69922C100.802 4.36654 100.722 4.07487 100.562 3.82422C100.403 3.56901 100.175 3.39583 99.8789 3.30469C99.5827 3.20898 99.0745 3.16113 98.3545 3.16113H96.3516V6.18945ZM96.3516 10.8174H98.8467C99.2751 10.8174 99.5758 10.8014 99.749 10.7695C100.054 10.7148 100.31 10.6237 100.515 10.4961C100.72 10.3685 100.888 10.1839 101.021 9.94238C101.153 9.69629 101.219 9.41374 101.219 9.09473C101.219 8.72103 101.123 8.39746 100.932 8.12402C100.74 7.84603 100.474 7.65234 100.132 7.54297C99.7946 7.42904 99.307 7.37207 98.6689 7.37207H96.3516V10.8174ZM104.377 12V1.97852H106.373L108.745 9.07422C108.964 9.73503 109.123 10.2295 109.224 10.5576C109.338 10.193 109.515 9.65755 109.757 8.95117L112.156 1.97852H113.94V12H112.662V3.6123L109.75 12H108.554L105.655 3.46875V12H104.377ZM118.63 12V3.16113H115.328V1.97852H123.271V3.16113H119.956V12H118.63ZM124.652 1.97852H132.534V12H131.201V3.16113H125.979V12H124.652V1.97852Z" fill="white"/>
<path d="M141 21.5C141 67 103.5 112.5 56 104" stroke="#87A4BC" stroke-miterlimit="3.99393" stroke-linecap="round" stroke-dasharray="2 4"/>
<path d="M141 21.5C131 75.5 102.5 103 56 104" stroke="#87A4BC" stroke-miterlimit="3.99393" stroke-linecap="round" stroke-dasharray="2 4"/>
<g filter="url(#filter0_d_5077_52585)">
<circle cx="56" cy="104" r="2" fill="#0C99CF"/>
<circle cx="56" cy="104" r="2.5" stroke="white"/>
</g>
<g filter="url(#filter1_d_5077_52585)">
<circle cx="141" cy="21" r="3" fill="#0C99CF"/>
<circle cx="141" cy="21" r="4" stroke="white" stroke-width="2"/>
</g>
<defs>
<filter id="filter0_d_5077_52585" x="51.1634" y="100.388" width="9.67311" height="9.67311" filterUnits="userSpaceOnUse" color-interpolation-filters="sRGB">
<feFlood flood-opacity="0" result="BackgroundImageFix"/>
<feColorMatrix in="SourceAlpha" type="matrix" values="0 0 0 0 0 0 0 0 0 0 0 0 0 0 0 0 0 0 127 0" result="hardAlpha"/>
<feOffset dy="1.22437"/>
<feGaussianBlur stdDeviation="0.918278"/>
<feColorMatrix type="matrix" values="0 0 0 0 0 0 0 0 0 0 0 0 0 0 0 0 0 0 0.2 0"/>
<feBlend mode="normal" in2="BackgroundImageFix" result="effect1_dropShadow_5077_52585"/>
<feBlend mode="normal" in="SourceGraphic" in2="effect1_dropShadow_5077_52585" result="shape"/>
</filter>
<filter id="filter1_d_5077_52585" x="134.163" y="15.3878" width="13.6731" height="13.6731" filterUnits="userSpaceOnUse" color-interpolation-filters="sRGB">
<feFlood flood-opacity="0" result="BackgroundImageFix"/>
<feColorMatrix in="SourceAlpha" type="matrix" values="0 0 0 0 0 0 0 0 0 0 0 0 0 0 0 0 0 0 127 0" result="hardAlpha"/>
<feOffset dy="1.22437"/>
<feGaussianBlur stdDeviation="0.918278"/>
<feColorMatrix type="matrix" values="0 0 0 0 0 0 0 0 0 0 0 0 0 0 0 0 0 0 0.2 0"/>
<feBlend mode="normal" in2="BackgroundImageFix" result="effect1_dropShadow_5077_52585"/>
<feBlend mode="normal" in="SourceGraphic" in2="effect1_dropShadow_5077_52585" result="shape"/>
</filter>
</defs>
</svg>
