<svg width="275" height="68" viewBox="0 0 275 68" fill="none" xmlns="http://www.w3.org/2000/svg">
<path d="M97.0938 1.97852H104.976V12H103.643V3.16113H98.4199V12H97.0938V1.97852ZM111.955 9.66211L113.227 9.81934C113.026 10.5622 112.655 11.1387 112.112 11.5488C111.57 11.959 110.877 12.1641 110.034 12.1641C108.972 12.1641 108.129 11.8382 107.505 11.1865C106.885 10.5303 106.575 9.61198 106.575 8.43164C106.575 7.21029 106.89 6.26237 107.519 5.58789C108.147 4.91341 108.963 4.57617 109.966 4.57617C110.937 4.57617 111.729 4.90658 112.345 5.56738C112.96 6.22819 113.268 7.15788 113.268 8.35645C113.268 8.42936 113.265 8.53874 113.261 8.68457H107.847C107.892 9.4821 108.118 10.0928 108.523 10.5166C108.929 10.9404 109.435 11.1523 110.041 11.1523C110.492 11.1523 110.877 11.0339 111.196 10.7969C111.515 10.5599 111.768 10.1816 111.955 9.66211ZM107.915 7.67285H111.969C111.914 7.06217 111.759 6.60417 111.504 6.29883C111.112 5.82487 110.604 5.58789 109.979 5.58789C109.414 5.58789 108.938 5.77702 108.551 6.15527C108.168 6.53353 107.956 7.03939 107.915 7.67285ZM113.65 4.74023H119.55V5.75879H117.212V12H115.988V5.75879H113.65V4.74023ZM120.726 14.7822V4.74023H121.847V5.68359C122.111 5.31445 122.41 5.03874 122.742 4.85645C123.075 4.6696 123.478 4.57617 123.952 4.57617C124.572 4.57617 125.119 4.73568 125.593 5.05469C126.067 5.3737 126.424 5.82487 126.666 6.4082C126.908 6.98698 127.028 7.62272 127.028 8.31543C127.028 9.05827 126.894 9.72819 126.625 10.3252C126.361 10.9176 125.973 11.3734 125.463 11.6924C124.957 12.0068 124.424 12.1641 123.863 12.1641C123.453 12.1641 123.084 12.0775 122.756 11.9043C122.432 11.7311 122.166 11.5124 121.956 11.248V14.7822H120.726ZM121.84 8.41113C121.84 9.34538 122.029 10.0358 122.407 10.4824C122.785 10.929 123.243 11.1523 123.781 11.1523C124.328 11.1523 124.795 10.9222 125.183 10.4619C125.575 9.99707 125.771 9.2793 125.771 8.30859C125.771 7.38346 125.579 6.69076 125.196 6.23047C124.818 5.77018 124.365 5.54004 123.836 5.54004C123.312 5.54004 122.847 5.78613 122.441 6.27832C122.04 6.76595 121.84 7.47689 121.84 8.41113ZM128.061 8.37012C128.061 7.02572 128.434 6.02995 129.182 5.38281C129.806 4.84505 130.567 4.57617 131.465 4.57617C132.463 4.57617 133.279 4.9043 133.912 5.56055C134.546 6.21224 134.862 7.11458 134.862 8.26758C134.862 9.20182 134.721 9.93783 134.438 10.4756C134.16 11.0088 133.753 11.4235 133.215 11.7197C132.682 12.016 132.098 12.1641 131.465 12.1641C130.449 12.1641 129.626 11.8382 128.997 11.1865C128.373 10.5348 128.061 9.59603 128.061 8.37012ZM129.325 8.37012C129.325 9.2998 129.528 9.99707 129.934 10.4619C130.339 10.9222 130.85 11.1523 131.465 11.1523C132.076 11.1523 132.584 10.9199 132.989 10.4551C133.395 9.99023 133.598 9.28158 133.598 8.3291C133.598 7.43132 133.393 6.75228 132.982 6.29199C132.577 5.82715 132.071 5.59473 131.465 5.59473C130.85 5.59473 130.339 5.82487 129.934 6.28516C129.528 6.74544 129.325 7.44043 129.325 8.37012ZM136.318 4.74023H142.047V12H140.816V5.75879H137.549V12H136.318V4.74023ZM148.637 11.1045C148.181 11.4919 147.741 11.7653 147.317 11.9248C146.898 12.0843 146.447 12.1641 145.964 12.1641C145.166 12.1641 144.553 11.9704 144.125 11.583C143.697 11.1911 143.482 10.6921 143.482 10.0859C143.482 9.73047 143.562 9.4069 143.722 9.11523C143.886 8.81901 144.098 8.58203 144.357 8.4043C144.622 8.22656 144.918 8.09212 145.246 8.00098C145.488 7.93717 145.852 7.87565 146.34 7.81641C147.333 7.69792 148.065 7.55664 148.534 7.39258C148.539 7.22396 148.541 7.11686 148.541 7.07129C148.541 6.56999 148.425 6.2168 148.192 6.01172C147.878 5.73372 147.411 5.59473 146.791 5.59473C146.212 5.59473 145.784 5.69727 145.506 5.90234C145.232 6.10286 145.03 6.46061 144.897 6.97559L143.694 6.81152C143.804 6.29655 143.984 5.88184 144.234 5.56738C144.485 5.24837 144.847 5.00456 145.321 4.83594C145.795 4.66276 146.344 4.57617 146.969 4.57617C147.589 4.57617 148.092 4.64909 148.479 4.79492C148.867 4.94076 149.152 5.12533 149.334 5.34863C149.516 5.56738 149.644 5.84538 149.717 6.18262C149.758 6.39225 149.778 6.77051 149.778 7.31738V8.95801C149.778 10.1019 149.803 10.8265 149.854 11.1318C149.908 11.4326 150.013 11.722 150.168 12H148.883C148.755 11.7448 148.673 11.4463 148.637 11.1045ZM148.534 8.35645C148.088 8.53874 147.418 8.69368 146.524 8.82129C146.019 8.89421 145.661 8.97624 145.451 9.06738C145.242 9.15853 145.08 9.29297 144.966 9.4707C144.852 9.64388 144.795 9.83757 144.795 10.0518C144.795 10.3799 144.918 10.6533 145.164 10.8721C145.415 11.0908 145.779 11.2002 146.258 11.2002C146.732 11.2002 147.153 11.0977 147.522 10.8926C147.892 10.6829 148.163 10.3981 148.336 10.0381C148.468 9.76009 148.534 9.34993 148.534 8.80762V8.35645ZM151.699 4.74023H154.536C155.233 4.74023 155.751 4.79948 156.088 4.91797C156.43 5.0319 156.721 5.24382 156.963 5.55371C157.209 5.86361 157.332 6.23503 157.332 6.66797C157.332 7.01432 157.259 7.31738 157.113 7.57715C156.972 7.83236 156.758 8.04655 156.471 8.21973C156.812 8.33366 157.095 8.54785 157.318 8.8623C157.546 9.1722 157.66 9.54134 157.66 9.96973C157.615 10.6579 157.368 11.1683 156.922 11.501C156.475 11.8337 155.826 12 154.974 12H151.699V4.74023ZM152.93 7.7959H154.242C154.766 7.7959 155.126 7.76855 155.322 7.71387C155.518 7.65918 155.694 7.5498 155.849 7.38574C156.004 7.21712 156.081 7.0166 156.081 6.78418C156.081 6.40137 155.944 6.13477 155.671 5.98438C155.402 5.83398 154.939 5.75879 154.283 5.75879H152.93V7.7959ZM152.93 10.9883H154.55C155.247 10.9883 155.726 10.9085 155.985 10.749C156.245 10.585 156.382 10.3047 156.396 9.9082C156.396 9.67578 156.32 9.46159 156.17 9.26562C156.02 9.0651 155.824 8.93978 155.582 8.88965C155.34 8.83496 154.953 8.80762 154.42 8.80762H152.93V10.9883ZM159.403 4.74023H165.118V12H163.895V5.75879H160.634V9.375C160.634 10.2181 160.606 10.7741 160.552 11.043C160.497 11.3118 160.347 11.5465 160.101 11.7471C159.854 11.9476 159.499 12.0479 159.034 12.0479C158.747 12.0479 158.417 12.0296 158.043 11.9932V10.9678H158.583C158.838 10.9678 159.021 10.9427 159.13 10.8926C159.239 10.8379 159.312 10.7536 159.349 10.6396C159.385 10.5257 159.403 10.1543 159.403 9.52539V4.74023ZM166.684 8.37012C166.684 7.02572 167.057 6.02995 167.805 5.38281C168.429 4.84505 169.19 4.57617 170.088 4.57617C171.086 4.57617 171.902 4.9043 172.535 5.56055C173.169 6.21224 173.485 7.11458 173.485 8.26758C173.485 9.20182 173.344 9.93783 173.062 10.4756C172.784 11.0088 172.376 11.4235 171.838 11.7197C171.305 12.016 170.721 12.1641 170.088 12.1641C169.072 12.1641 168.249 11.8382 167.62 11.1865C166.996 10.5348 166.684 9.59603 166.684 8.37012ZM167.948 8.37012C167.948 9.2998 168.151 9.99707 168.557 10.4619C168.962 10.9222 169.473 11.1523 170.088 11.1523C170.699 11.1523 171.207 10.9199 171.612 10.4551C172.018 9.99023 172.221 9.28158 172.221 8.3291C172.221 7.43132 172.016 6.75228 171.605 6.29199C171.2 5.82715 170.694 5.59473 170.088 5.59473C169.473 5.59473 168.962 5.82487 168.557 6.28516C168.151 6.74544 167.948 7.44043 167.948 8.37012ZM174.941 4.74023H177.778C178.476 4.74023 178.993 4.79948 179.33 4.91797C179.672 5.0319 179.964 5.24382 180.205 5.55371C180.451 5.86361 180.574 6.23503 180.574 6.66797C180.574 7.01432 180.501 7.31738 180.355 7.57715C180.214 7.83236 180 8.04655 179.713 8.21973C180.055 8.33366 180.337 8.54785 180.561 8.8623C180.788 9.1722 180.902 9.54134 180.902 9.96973C180.857 10.6579 180.611 11.1683 180.164 11.501C179.717 11.8337 179.068 12 178.216 12H174.941V4.74023ZM176.172 7.7959H177.484C178.008 7.7959 178.368 7.76855 178.564 7.71387C178.76 7.65918 178.936 7.5498 179.091 7.38574C179.246 7.21712 179.323 7.0166 179.323 6.78418C179.323 6.40137 179.187 6.13477 178.913 5.98438C178.644 5.83398 178.182 5.75879 177.525 5.75879H176.172V7.7959ZM176.172 10.9883H177.792C178.489 10.9883 178.968 10.9085 179.228 10.749C179.487 10.585 179.624 10.3047 179.638 9.9082C179.638 9.67578 179.562 9.46159 179.412 9.26562C179.262 9.0651 179.066 8.93978 178.824 8.88965C178.583 8.83496 178.195 8.80762 177.662 8.80762H176.172V10.9883ZM186.945 9.34082L188.155 9.49805C188.023 10.332 187.684 10.986 187.137 11.46C186.594 11.9294 185.927 12.1641 185.134 12.1641C184.14 12.1641 183.34 11.8405 182.734 11.1934C182.133 10.5417 181.832 9.6097 181.832 8.39746C181.832 7.61361 181.962 6.92773 182.222 6.33984C182.481 5.75195 182.876 5.31217 183.404 5.02051C183.938 4.72428 184.516 4.57617 185.141 4.57617C185.929 4.57617 186.574 4.77669 187.075 5.17773C187.576 5.57422 187.898 6.13932 188.039 6.87305L186.843 7.05762C186.729 6.56999 186.526 6.20312 186.234 5.95703C185.947 5.71094 185.599 5.58789 185.188 5.58789C184.569 5.58789 184.065 5.8112 183.678 6.25781C183.29 6.69987 183.097 7.40169 183.097 8.36328C183.097 9.33854 183.284 10.0472 183.657 10.4893C184.031 10.9313 184.519 11.1523 185.12 11.1523C185.603 11.1523 186.007 11.0042 186.33 10.708C186.654 10.4118 186.859 9.95605 186.945 9.34082ZM189.201 4.74023H190.432V7.87793C190.824 7.87793 191.097 7.80273 191.252 7.65234C191.411 7.50195 191.644 7.06445 191.949 6.33984C192.191 5.76562 192.387 5.38737 192.537 5.20508C192.688 5.02279 192.861 4.89974 193.057 4.83594C193.253 4.77214 193.567 4.74023 194 4.74023H194.246V5.75879L193.904 5.75195C193.581 5.75195 193.373 5.7998 193.282 5.89551C193.187 5.99577 193.041 6.29427 192.845 6.79102C192.658 7.26497 192.487 7.5931 192.332 7.77539C192.177 7.95768 191.938 8.12402 191.614 8.27441C192.143 8.41569 192.662 8.90788 193.173 9.75098L194.52 12H193.166L191.854 9.75098C191.585 9.2998 191.35 9.00358 191.149 8.8623C190.949 8.71647 190.71 8.64355 190.432 8.64355V12H189.201V4.74023ZM194.854 8.99219V7.75488H198.635V8.99219H194.854ZM200.173 1.97852H201.499V6.36719C202.105 6.36719 202.531 6.25098 202.777 6.01855C203.023 5.78158 203.338 5.21647 203.721 4.32324C203.999 3.66699 204.227 3.20443 204.404 2.93555C204.587 2.66211 204.844 2.43424 205.177 2.25195C205.509 2.0651 205.876 1.97168 206.277 1.97168C206.788 1.97168 207.057 1.97624 207.084 1.98535V3.13379C207.038 3.13379 206.95 3.13151 206.817 3.12695C206.672 3.1224 206.583 3.12012 206.551 3.12012C206.127 3.12012 205.812 3.22266 205.607 3.42773C205.398 3.63281 205.159 4.07031 204.89 4.74023C204.552 5.58789 204.268 6.12337 204.035 6.34668C203.803 6.56543 203.525 6.74089 203.201 6.87305C203.848 7.05078 204.486 7.64779 205.115 8.66406L207.18 12H205.532L203.857 9.2793C203.397 8.52734 203.012 8.01237 202.702 7.73438C202.392 7.45182 201.991 7.31055 201.499 7.31055V12H200.173V1.97852ZM212.895 11.1045C212.439 11.4919 211.999 11.7653 211.575 11.9248C211.156 12.0843 210.705 12.1641 210.222 12.1641C209.424 12.1641 208.811 11.9704 208.383 11.583C207.954 11.1911 207.74 10.6921 207.74 10.0859C207.74 9.73047 207.82 9.4069 207.979 9.11523C208.144 8.81901 208.355 8.58203 208.615 8.4043C208.88 8.22656 209.176 8.09212 209.504 8.00098C209.745 7.93717 210.11 7.87565 210.598 7.81641C211.591 7.69792 212.323 7.55664 212.792 7.39258C212.797 7.22396 212.799 7.11686 212.799 7.07129C212.799 6.56999 212.683 6.2168 212.45 6.01172C212.136 5.73372 211.669 5.59473 211.049 5.59473C210.47 5.59473 210.042 5.69727 209.764 5.90234C209.49 6.10286 209.287 6.46061 209.155 6.97559L207.952 6.81152C208.062 6.29655 208.242 5.88184 208.492 5.56738C208.743 5.24837 209.105 5.00456 209.579 4.83594C210.053 4.66276 210.602 4.57617 211.227 4.57617C211.846 4.57617 212.35 4.64909 212.737 4.79492C213.125 4.94076 213.41 5.12533 213.592 5.34863C213.774 5.56738 213.902 5.84538 213.975 6.18262C214.016 6.39225 214.036 6.77051 214.036 7.31738V8.95801C214.036 10.1019 214.061 10.8265 214.111 11.1318C214.166 11.4326 214.271 11.722 214.426 12H213.141C213.013 11.7448 212.931 11.4463 212.895 11.1045ZM212.792 8.35645C212.345 8.53874 211.675 8.69368 210.782 8.82129C210.276 8.89421 209.919 8.97624 209.709 9.06738C209.499 9.15853 209.338 9.29297 209.224 9.4707C209.11 9.64388 209.053 9.83757 209.053 10.0518C209.053 10.3799 209.176 10.6533 209.422 10.8721C209.673 11.0908 210.037 11.2002 210.516 11.2002C210.99 11.2002 211.411 11.0977 211.78 10.8926C212.149 10.6829 212.421 10.3981 212.594 10.0381C212.726 9.76009 212.792 9.34993 212.792 8.80762V8.35645ZM215.984 4.74023H217.898L219.806 10.5508L221.925 4.74023H223.695V12H222.465V6.15527L220.318 12H219.218L217.188 5.875V12H215.984V4.74023ZM225.124 4.74023H226.354V6.11426C226.354 6.70671 226.389 7.13737 226.457 7.40625C226.53 7.67057 226.701 7.90299 226.97 8.10352C227.239 8.29948 227.576 8.39746 227.981 8.39746C228.446 8.39746 229.048 8.27441 229.786 8.02832V4.74023H231.017V12H229.786V9.07422C229.03 9.3112 228.323 9.42969 227.667 9.42969C227.116 9.42969 226.628 9.29069 226.204 9.0127C225.785 8.73014 225.5 8.38607 225.35 7.98047C225.199 7.57487 225.124 7.12826 225.124 6.64062V4.74023ZM237.613 11.1045C237.158 11.4919 236.718 11.7653 236.294 11.9248C235.875 12.0843 235.424 12.1641 234.94 12.1641C234.143 12.1641 233.53 11.9704 233.102 11.583C232.673 11.1911 232.459 10.6921 232.459 10.0859C232.459 9.73047 232.539 9.4069 232.698 9.11523C232.862 8.81901 233.074 8.58203 233.334 8.4043C233.598 8.22656 233.895 8.09212 234.223 8.00098C234.464 7.93717 234.829 7.87565 235.316 7.81641C236.31 7.69792 237.041 7.55664 237.511 7.39258C237.515 7.22396 237.518 7.11686 237.518 7.07129C237.518 6.56999 237.401 6.2168 237.169 6.01172C236.854 5.73372 236.387 5.59473 235.768 5.59473C235.189 5.59473 234.76 5.69727 234.482 5.90234C234.209 6.10286 234.006 6.46061 233.874 6.97559L232.671 6.81152C232.78 6.29655 232.96 5.88184 233.211 5.56738C233.462 5.24837 233.824 5.00456 234.298 4.83594C234.772 4.66276 235.321 4.57617 235.945 4.57617C236.565 4.57617 237.069 4.64909 237.456 4.79492C237.843 4.94076 238.128 5.12533 238.311 5.34863C238.493 5.56738 238.62 5.84538 238.693 6.18262C238.734 6.39225 238.755 6.77051 238.755 7.31738V8.95801C238.755 10.1019 238.78 10.8265 238.83 11.1318C238.885 11.4326 238.99 11.722 239.145 12H237.859C237.732 11.7448 237.65 11.4463 237.613 11.1045ZM237.511 8.35645C237.064 8.53874 236.394 8.69368 235.501 8.82129C234.995 8.89421 234.637 8.97624 234.428 9.06738C234.218 9.15853 234.056 9.29297 233.942 9.4707C233.828 9.64388 233.771 9.83757 233.771 10.0518C233.771 10.3799 233.895 10.6533 234.141 10.8721C234.391 11.0908 234.756 11.2002 235.234 11.2002C235.708 11.2002 236.13 11.0977 236.499 10.8926C236.868 10.6829 237.139 10.3981 237.312 10.0381C237.445 9.76009 237.511 9.34993 237.511 8.80762V8.35645ZM239.691 4.74023H245.591V5.75879H243.253V12H242.029V5.75879H239.691V4.74023ZM251.34 9.34082L252.55 9.49805C252.418 10.332 252.078 10.986 251.531 11.46C250.989 11.9294 250.321 12.1641 249.528 12.1641C248.535 12.1641 247.735 11.8405 247.129 11.1934C246.527 10.5417 246.227 9.6097 246.227 8.39746C246.227 7.61361 246.356 6.92773 246.616 6.33984C246.876 5.75195 247.27 5.31217 247.799 5.02051C248.332 4.72428 248.911 4.57617 249.535 4.57617C250.324 4.57617 250.968 4.77669 251.47 5.17773C251.971 5.57422 252.292 6.13932 252.434 6.87305L251.237 7.05762C251.123 6.56999 250.921 6.20312 250.629 5.95703C250.342 5.71094 249.993 5.58789 249.583 5.58789C248.963 5.58789 248.46 5.8112 248.072 6.25781C247.685 6.69987 247.491 7.40169 247.491 8.36328C247.491 9.33854 247.678 10.0472 248.052 10.4893C248.425 10.9313 248.913 11.1523 249.515 11.1523C249.998 11.1523 250.401 11.0042 250.725 10.708C251.048 10.4118 251.253 9.95605 251.34 9.34082ZM253.596 4.74023H254.826V7.87793C255.218 7.87793 255.492 7.80273 255.646 7.65234C255.806 7.50195 256.038 7.06445 256.344 6.33984C256.585 5.76562 256.781 5.38737 256.932 5.20508C257.082 5.02279 257.255 4.89974 257.451 4.83594C257.647 4.77214 257.962 4.74023 258.395 4.74023H258.641V5.75879L258.299 5.75195C257.975 5.75195 257.768 5.7998 257.677 5.89551C257.581 5.99577 257.435 6.29427 257.239 6.79102C257.052 7.26497 256.882 7.5931 256.727 7.77539C256.572 7.95768 256.332 8.12402 256.009 8.27441C256.537 8.41569 257.057 8.90788 257.567 9.75098L258.914 12H257.561L256.248 9.75098C255.979 9.2998 255.744 9.00358 255.544 8.8623C255.343 8.71647 255.104 8.64355 254.826 8.64355V12H253.596V4.74023ZM259.728 4.74023H260.958V10.2773L264.369 4.74023H265.695V12H264.465V6.49707L261.054 12H259.728V4.74023ZM267.548 4.74023H268.778V10.2773L272.189 4.74023H273.516V12H272.285V6.49707L268.874 12H267.548V4.74023ZM271.82 1.99219H272.661C272.593 2.56185 272.383 2.99935 272.032 3.30469C271.686 3.61003 271.223 3.7627 270.645 3.7627C270.061 3.7627 269.594 3.6123 269.243 3.31152C268.897 3.00618 268.689 2.56641 268.621 1.99219H269.462C269.526 2.30208 269.651 2.53451 269.838 2.68945C270.029 2.83984 270.285 2.91504 270.604 2.91504C270.973 2.91504 271.251 2.84212 271.438 2.69629C271.629 2.5459 271.757 2.3112 271.82 1.99219Z" fill="white"/>
<path d="M186.5 23.5C198.5 42.5 134 72 102.5 55C78.7759 42.1965 62 81.5 47 58.5" stroke="#87A4BC" stroke-miterlimit="3.99393" stroke-linecap="round" stroke-dasharray="2 4"/>
<path d="M186.5 23.5C198.5 42.5 133.5 77 102 60C78.2759 47.1965 62 81.5 47 58.5" stroke="#87A4BC" stroke-miterlimit="3.99393" stroke-linecap="round" stroke-dasharray="2 4"/>
<g filter="url(#filter0_d_5077_52728)">
<circle cx="47" cy="58" r="3" fill="#0C99CF"/>
<circle cx="47" cy="58" r="4" stroke="white" stroke-width="2"/>
</g>
<g filter="url(#filter1_d_5077_52728)">
<circle cx="186" cy="23" r="2" fill="#0C99CF"/>
<circle cx="186" cy="23" r="2.5" stroke="white"/>
</g>
<path d="M1.02539 49V38.9785H4.78516C5.55078 38.9785 6.16374 39.0811 6.62402 39.2861C7.08887 39.4867 7.45117 39.7988 7.71094 40.2227C7.97526 40.6419 8.10742 41.0817 8.10742 41.542C8.10742 41.9704 7.99121 42.3737 7.75879 42.752C7.52637 43.1302 7.17546 43.4355 6.70605 43.668C7.31217 43.8457 7.77702 44.1488 8.10059 44.5771C8.42871 45.0055 8.59277 45.5114 8.59277 46.0947C8.59277 46.5641 8.49251 47.0016 8.29199 47.4072C8.09603 47.8083 7.85221 48.1182 7.56055 48.3369C7.26888 48.5557 6.90202 48.722 6.45996 48.8359C6.02246 48.9453 5.4847 49 4.84668 49H1.02539ZM2.35156 43.1895H4.51855C5.10645 43.1895 5.52799 43.1507 5.7832 43.0732C6.12044 42.973 6.37337 42.8066 6.54199 42.5742C6.71517 42.3418 6.80176 42.0501 6.80176 41.6992C6.80176 41.3665 6.72201 41.0749 6.5625 40.8242C6.40299 40.569 6.17513 40.3958 5.87891 40.3047C5.58268 40.209 5.07454 40.1611 4.35449 40.1611H2.35156V43.1895ZM2.35156 47.8174H4.84668C5.27507 47.8174 5.57585 47.8014 5.74902 47.7695C6.05436 47.7148 6.30957 47.6237 6.51465 47.4961C6.71973 47.3685 6.88835 47.1839 7.02051 46.9424C7.15267 46.6963 7.21875 46.4137 7.21875 46.0947C7.21875 45.721 7.12305 45.3975 6.93164 45.124C6.74023 44.846 6.47363 44.6523 6.13184 44.543C5.7946 44.429 5.30697 44.3721 4.66895 44.3721H2.35156V47.8174ZM10.377 49V38.9785H12.373L14.7451 46.0742C14.9639 46.735 15.1234 47.2295 15.2236 47.5576C15.3376 47.193 15.5153 46.6576 15.7568 45.9512L18.1562 38.9785H19.9404V49H18.6621V40.6123L15.75 49H14.5537L11.6553 40.4688V49H10.377ZM24.6299 49V40.1611H21.3281V38.9785H29.2715V40.1611H25.9561V49H24.6299ZM30.6523 38.9785H38.5342V49H37.2012V40.1611H31.9785V49H30.6523V38.9785Z" fill="white"/>
<defs>
<filter id="filter0_d_5077_52728" x="40.1634" y="52.3878" width="13.6731" height="13.6731" filterUnits="userSpaceOnUse" color-interpolation-filters="sRGB">
<feFlood flood-opacity="0" result="BackgroundImageFix"/>
<feColorMatrix in="SourceAlpha" type="matrix" values="0 0 0 0 0 0 0 0 0 0 0 0 0 0 0 0 0 0 127 0" result="hardAlpha"/>
<feOffset dy="1.22437"/>
<feGaussianBlur stdDeviation="0.918278"/>
<feColorMatrix type="matrix" values="0 0 0 0 0 0 0 0 0 0 0 0 0 0 0 0 0 0 0.2 0"/>
<feBlend mode="normal" in2="BackgroundImageFix" result="effect1_dropShadow_5077_52728"/>
<feBlend mode="normal" in="SourceGraphic" in2="effect1_dropShadow_5077_52728" result="shape"/>
</filter>
<filter id="filter1_d_5077_52728" x="181.163" y="19.3878" width="9.67311" height="9.67311" filterUnits="userSpaceOnUse" color-interpolation-filters="sRGB">
<feFlood flood-opacity="0" result="BackgroundImageFix"/>
<feColorMatrix in="SourceAlpha" type="matrix" values="0 0 0 0 0 0 0 0 0 0 0 0 0 0 0 0 0 0 127 0" result="hardAlpha"/>
<feOffset dy="1.22437"/>
<feGaussianBlur stdDeviation="0.918278"/>
<feColorMatrix type="matrix" values="0 0 0 0 0 0 0 0 0 0 0 0 0 0 0 0 0 0 0.2 0"/>
<feBlend mode="normal" in2="BackgroundImageFix" result="effect1_dropShadow_5077_52728"/>
<feBlend mode="normal" in="SourceGraphic" in2="effect1_dropShadow_5077_52728" result="shape"/>
</filter>
</defs>
</svg>
