<svg width="494" height="431" viewBox="0 0 494 431" fill="none" xmlns="http://www.w3.org/2000/svg">
<path d="M364.094 15.9785H371.976V26H370.643V17.1611H365.42V26H364.094V15.9785ZM378.955 23.6621L380.227 23.8193C380.026 24.5622 379.655 25.1387 379.112 25.5488C378.57 25.959 377.877 26.1641 377.034 26.1641C375.972 26.1641 375.129 25.8382 374.505 25.1865C373.885 24.5303 373.575 23.612 373.575 22.4316C373.575 21.2103 373.89 20.2624 374.519 19.5879C375.147 18.9134 375.963 18.5762 376.966 18.5762C377.937 18.5762 378.729 18.9066 379.345 19.5674C379.96 20.2282 380.268 21.1579 380.268 22.3564C380.268 22.4294 380.265 22.5387 380.261 22.6846H374.847C374.892 23.4821 375.118 24.0928 375.523 24.5166C375.929 24.9404 376.435 25.1523 377.041 25.1523C377.492 25.1523 377.877 25.0339 378.196 24.7969C378.515 24.5599 378.768 24.1816 378.955 23.6621ZM374.915 21.6729H378.969C378.914 21.0622 378.759 20.6042 378.504 20.2988C378.112 19.8249 377.604 19.5879 376.979 19.5879C376.414 19.5879 375.938 19.777 375.551 20.1553C375.168 20.5335 374.956 21.0394 374.915 21.6729ZM381.785 18.7402H384.622C385.319 18.7402 385.837 18.7995 386.174 18.918C386.516 19.0319 386.807 19.2438 387.049 19.5537C387.295 19.8636 387.418 20.235 387.418 20.668C387.418 21.0143 387.345 21.3174 387.199 21.5771C387.058 21.8324 386.844 22.0465 386.557 22.2197C386.898 22.3337 387.181 22.5479 387.404 22.8623C387.632 23.1722 387.746 23.5413 387.746 23.9697C387.701 24.6579 387.454 25.1683 387.008 25.501C386.561 25.8337 385.912 26 385.06 26H381.785V18.7402ZM383.016 21.7959H384.328C384.852 21.7959 385.212 21.7686 385.408 21.7139C385.604 21.6592 385.78 21.5498 385.935 21.3857C386.09 21.2171 386.167 21.0166 386.167 20.7842C386.167 20.4014 386.03 20.1348 385.757 19.9844C385.488 19.834 385.025 19.7588 384.369 19.7588H383.016V21.7959ZM383.016 24.9883H384.636C385.333 24.9883 385.812 24.9085 386.071 24.749C386.331 24.585 386.468 24.3047 386.481 23.9082C386.481 23.6758 386.406 23.4616 386.256 23.2656C386.105 23.0651 385.91 22.9398 385.668 22.8896C385.426 22.835 385.039 22.8076 384.506 22.8076H383.016V24.9883ZM394.021 23.6621L395.293 23.8193C395.092 24.5622 394.721 25.1387 394.179 25.5488C393.636 25.959 392.944 26.1641 392.101 26.1641C391.039 26.1641 390.196 25.8382 389.571 25.1865C388.951 24.5303 388.642 23.612 388.642 22.4316C388.642 21.2103 388.956 20.2624 389.585 19.5879C390.214 18.9134 391.03 18.5762 392.032 18.5762C393.003 18.5762 393.796 18.9066 394.411 19.5674C395.026 20.2282 395.334 21.1579 395.334 22.3564C395.334 22.4294 395.332 22.5387 395.327 22.6846H389.913C389.959 23.4821 390.184 24.0928 390.59 24.5166C390.995 24.9404 391.501 25.1523 392.107 25.1523C392.559 25.1523 392.944 25.0339 393.263 24.7969C393.582 24.5599 393.835 24.1816 394.021 23.6621ZM389.981 21.6729H394.035C393.98 21.0622 393.826 20.6042 393.57 20.2988C393.178 19.8249 392.67 19.5879 392.046 19.5879C391.481 19.5879 391.005 19.777 390.617 20.1553C390.234 20.5335 390.022 21.0394 389.981 21.6729ZM396.838 18.7402H398.068V21.8779C398.46 21.8779 398.734 21.8027 398.889 21.6523C399.048 21.502 399.281 21.0645 399.586 20.3398C399.827 19.7656 400.023 19.3874 400.174 19.2051C400.324 19.0228 400.497 18.8997 400.693 18.8359C400.889 18.7721 401.204 18.7402 401.637 18.7402H401.883V19.7588L401.541 19.752C401.217 19.752 401.01 19.7998 400.919 19.8955C400.823 19.9958 400.677 20.2943 400.481 20.791C400.295 21.265 400.124 21.5931 399.969 21.7754C399.814 21.9577 399.575 22.124 399.251 22.2744C399.78 22.4157 400.299 22.9079 400.81 23.751L402.156 26H400.803L399.49 23.751C399.221 23.2998 398.987 23.0036 398.786 22.8623C398.586 22.7165 398.346 22.6436 398.068 22.6436V26H396.838V18.7402Z" fill="white"/>
<path d="M9.00977 391V380.979H4.56641C3.67318 380.979 2.99414 381.07 2.5293 381.252C2.06445 381.43 1.69303 381.746 1.41504 382.202C1.13704 382.658 0.998047 383.161 0.998047 383.713C0.998047 384.424 1.22819 385.023 1.68848 385.511C2.14876 385.998 2.8597 386.308 3.82129 386.44C3.47038 386.609 3.20378 386.775 3.02148 386.939C2.63411 387.295 2.26725 387.739 1.9209 388.272L0.177734 391H1.8457L3.17188 388.915C3.55924 388.313 3.87826 387.853 4.12891 387.534C4.37956 387.215 4.60286 386.992 4.79883 386.864C4.99935 386.737 5.20215 386.648 5.40723 386.598C5.55762 386.566 5.80371 386.55 6.14551 386.55H7.68359V391H9.00977ZM7.68359 385.401H4.83301C4.22689 385.401 3.75293 385.34 3.41113 385.217C3.06934 385.089 2.80957 384.889 2.63184 384.615C2.4541 384.337 2.36523 384.036 2.36523 383.713C2.36523 383.239 2.53613 382.849 2.87793 382.544C3.22428 382.239 3.76888 382.086 4.51172 382.086H7.68359V385.401ZM11.0469 383.74H12.2773V386.762H15.6885V383.74H16.9189V391H15.6885V387.78H12.2773V391H11.0469V383.74ZM18.1152 383.74H24.0146V384.759H21.6768V391H20.4531V384.759H18.1152V383.74ZM29.7637 390.104C29.3079 390.492 28.8682 390.765 28.4443 390.925C28.0251 391.084 27.5739 391.164 27.0908 391.164C26.2933 391.164 25.6803 390.97 25.252 390.583C24.8236 390.191 24.6094 389.692 24.6094 389.086C24.6094 388.73 24.6891 388.407 24.8486 388.115C25.0127 387.819 25.2246 387.582 25.4844 387.404C25.7487 387.227 26.0449 387.092 26.373 387.001C26.6146 386.937 26.9792 386.876 27.4668 386.816C28.4603 386.698 29.1917 386.557 29.6611 386.393C29.6657 386.224 29.668 386.117 29.668 386.071C29.668 385.57 29.5518 385.217 29.3193 385.012C29.0049 384.734 28.5378 384.595 27.918 384.595C27.3392 384.595 26.9108 384.697 26.6328 384.902C26.3594 385.103 26.1566 385.461 26.0244 385.976L24.8213 385.812C24.9307 385.297 25.1107 384.882 25.3613 384.567C25.612 384.248 25.9743 384.005 26.4482 383.836C26.9222 383.663 27.4714 383.576 28.0957 383.576C28.7155 383.576 29.2191 383.649 29.6064 383.795C29.9938 383.941 30.2786 384.125 30.4609 384.349C30.6432 384.567 30.7708 384.845 30.8438 385.183C30.8848 385.392 30.9053 385.771 30.9053 386.317V387.958C30.9053 389.102 30.9303 389.826 30.9805 390.132C31.0352 390.433 31.14 390.722 31.2949 391H30.0098C29.8822 390.745 29.8001 390.446 29.7637 390.104ZM29.6611 387.356C29.2145 387.539 28.5446 387.694 27.6514 387.821C27.1455 387.894 26.7878 387.976 26.5781 388.067C26.3685 388.159 26.2067 388.293 26.0928 388.471C25.9788 388.644 25.9219 388.838 25.9219 389.052C25.9219 389.38 26.0449 389.653 26.291 389.872C26.5417 390.091 26.9062 390.2 27.3848 390.2C27.8587 390.2 28.2803 390.098 28.6494 389.893C29.0186 389.683 29.2897 389.398 29.4629 389.038C29.5951 388.76 29.6611 388.35 29.6611 387.808V387.356ZM32.8262 383.74H34.0566V386.762H37.4678V383.74H38.6982V391H37.4678V387.78H34.0566V391H32.8262V383.74ZM40.5371 383.74H41.7676V386.577H43.3262C44.3424 386.577 45.124 386.775 45.6709 387.172C46.2223 387.564 46.498 388.106 46.498 388.799C46.498 389.405 46.2679 389.924 45.8076 390.357C45.3519 390.786 44.6204 391 43.6133 391H40.5371V383.74ZM41.7676 389.988H43.0596C43.8389 389.988 44.3949 389.893 44.7275 389.701C45.0602 389.51 45.2266 389.211 45.2266 388.806C45.2266 388.491 45.1035 388.211 44.8574 387.965C44.6113 387.719 44.0667 387.596 43.2236 387.596H41.7676V389.988Z" fill="white"/>
<path d="M59.0869 311.979H60.4131V320.817H65.6357V311.979H66.9688V320.817H67.8848V324.782H66.709V322H59.0869V311.979ZM69.2861 314.74H70.5166V320.277L73.9277 314.74H75.2539V322H74.0234V316.497L70.6123 322H69.2861V314.74ZM77.1133 314.74H78.3438V317.762H81.7549V314.74H82.9854V322H81.7549V318.78H78.3438V322H77.1133V314.74ZM85.8154 314.74H90.874V320.988H91.6602V324.058H90.6484V322H84.9336V324.058H83.9219V320.988H84.5713C85.4372 319.812 85.8519 317.73 85.8154 314.74ZM86.8408 315.759C86.7497 318.115 86.3851 319.858 85.7471 320.988H89.6504V315.759H86.8408ZM97.7578 321.104C97.3021 321.492 96.8623 321.765 96.4385 321.925C96.0192 322.084 95.568 322.164 95.085 322.164C94.2874 322.164 93.6745 321.97 93.2461 321.583C92.8177 321.191 92.6035 320.692 92.6035 320.086C92.6035 319.73 92.6833 319.407 92.8428 319.115C93.0068 318.819 93.2188 318.582 93.4785 318.404C93.7428 318.227 94.0391 318.092 94.3672 318.001C94.6087 317.937 94.9733 317.876 95.4609 317.816C96.4544 317.698 97.1859 317.557 97.6553 317.393C97.6598 317.224 97.6621 317.117 97.6621 317.071C97.6621 316.57 97.5459 316.217 97.3135 316.012C96.999 315.734 96.5319 315.595 95.9121 315.595C95.3333 315.595 94.9049 315.697 94.627 315.902C94.3535 316.103 94.1507 316.461 94.0186 316.976L92.8154 316.812C92.9248 316.297 93.1048 315.882 93.3555 315.567C93.6061 315.248 93.9684 315.005 94.4424 314.836C94.9163 314.663 95.4655 314.576 96.0898 314.576C96.7096 314.576 97.2132 314.649 97.6006 314.795C97.988 314.941 98.2728 315.125 98.4551 315.349C98.6374 315.567 98.765 315.845 98.8379 316.183C98.8789 316.392 98.8994 316.771 98.8994 317.317V318.958C98.8994 320.102 98.9245 320.826 98.9746 321.132C99.0293 321.433 99.1341 321.722 99.2891 322H98.0039C97.8763 321.745 97.7943 321.446 97.7578 321.104ZM97.6553 318.356C97.2087 318.539 96.5387 318.694 95.6455 318.821C95.1396 318.894 94.7819 318.976 94.5723 319.067C94.3626 319.159 94.2008 319.293 94.0869 319.471C93.973 319.644 93.916 319.838 93.916 320.052C93.916 320.38 94.0391 320.653 94.2852 320.872C94.5358 321.091 94.9004 321.2 95.3789 321.2C95.8529 321.2 96.2744 321.098 96.6436 320.893C97.0127 320.683 97.2839 320.398 97.457 320.038C97.5892 319.76 97.6553 319.35 97.6553 318.808V318.356ZM100.355 318.37C100.355 317.026 100.729 316.03 101.477 315.383C102.101 314.845 102.862 314.576 103.76 314.576C104.758 314.576 105.574 314.904 106.207 315.561C106.84 316.212 107.157 317.115 107.157 318.268C107.157 319.202 107.016 319.938 106.733 320.476C106.455 321.009 106.048 321.424 105.51 321.72C104.977 322.016 104.393 322.164 103.76 322.164C102.743 322.164 101.921 321.838 101.292 321.187C100.668 320.535 100.355 319.596 100.355 318.37ZM101.62 318.37C101.62 319.3 101.823 319.997 102.229 320.462C102.634 320.922 103.145 321.152 103.76 321.152C104.37 321.152 104.879 320.92 105.284 320.455C105.69 319.99 105.893 319.282 105.893 318.329C105.893 317.431 105.688 316.752 105.277 316.292C104.872 315.827 104.366 315.595 103.76 315.595C103.145 315.595 102.634 315.825 102.229 316.285C101.823 316.745 101.62 317.44 101.62 318.37Z" fill="white"/>
<path d="M162.094 348.979H169.976V359H168.643V350.161H163.42V359H162.094V348.979ZM171.931 361.796L171.794 360.641C172.063 360.714 172.298 360.75 172.498 360.75C172.771 360.75 172.99 360.704 173.154 360.613C173.318 360.522 173.453 360.395 173.558 360.23C173.635 360.107 173.76 359.802 173.934 359.314C173.956 359.246 173.993 359.146 174.043 359.014L171.288 351.74H172.614L174.125 355.944C174.321 356.478 174.496 357.038 174.651 357.626C174.793 357.061 174.961 356.509 175.157 355.972L176.709 351.74H177.939L175.178 359.123C174.882 359.921 174.651 360.47 174.487 360.771C174.269 361.176 174.018 361.472 173.735 361.659C173.453 361.851 173.116 361.946 172.724 361.946C172.487 361.946 172.222 361.896 171.931 361.796ZM183.559 356.341L184.769 356.498C184.636 357.332 184.297 357.986 183.75 358.46C183.208 358.929 182.54 359.164 181.747 359.164C180.754 359.164 179.954 358.84 179.348 358.193C178.746 357.542 178.445 356.61 178.445 355.397C178.445 354.614 178.575 353.928 178.835 353.34C179.095 352.752 179.489 352.312 180.018 352.021C180.551 351.724 181.13 351.576 181.754 351.576C182.542 351.576 183.187 351.777 183.688 352.178C184.19 352.574 184.511 353.139 184.652 353.873L183.456 354.058C183.342 353.57 183.139 353.203 182.848 352.957C182.561 352.711 182.212 352.588 181.802 352.588C181.182 352.588 180.678 352.811 180.291 353.258C179.904 353.7 179.71 354.402 179.71 355.363C179.71 356.339 179.897 357.047 180.271 357.489C180.644 357.931 181.132 358.152 181.733 358.152C182.216 358.152 182.62 358.004 182.943 357.708C183.267 357.412 183.472 356.956 183.559 356.341ZM190.559 358.104C190.103 358.492 189.663 358.765 189.239 358.925C188.82 359.084 188.369 359.164 187.886 359.164C187.088 359.164 186.475 358.97 186.047 358.583C185.618 358.191 185.404 357.692 185.404 357.086C185.404 356.73 185.484 356.407 185.644 356.115C185.808 355.819 186.02 355.582 186.279 355.404C186.544 355.227 186.84 355.092 187.168 355.001C187.41 354.937 187.774 354.876 188.262 354.816C189.255 354.698 189.987 354.557 190.456 354.393C190.461 354.224 190.463 354.117 190.463 354.071C190.463 353.57 190.347 353.217 190.114 353.012C189.8 352.734 189.333 352.595 188.713 352.595C188.134 352.595 187.706 352.697 187.428 352.902C187.154 353.103 186.951 353.461 186.819 353.976L185.616 353.812C185.726 353.297 185.906 352.882 186.156 352.567C186.407 352.248 186.769 352.005 187.243 351.836C187.717 351.663 188.266 351.576 188.891 351.576C189.51 351.576 190.014 351.649 190.401 351.795C190.789 351.941 191.074 352.125 191.256 352.349C191.438 352.567 191.566 352.845 191.639 353.183C191.68 353.392 191.7 353.771 191.7 354.317V355.958C191.7 357.102 191.725 357.826 191.775 358.132C191.83 358.433 191.935 358.722 192.09 359H190.805C190.677 358.745 190.595 358.446 190.559 358.104ZM190.456 355.356C190.009 355.539 189.34 355.694 188.446 355.821C187.94 355.894 187.583 355.976 187.373 356.067C187.163 356.159 187.002 356.293 186.888 356.471C186.774 356.644 186.717 356.838 186.717 357.052C186.717 357.38 186.84 357.653 187.086 357.872C187.337 358.091 187.701 358.2 188.18 358.2C188.654 358.2 189.075 358.098 189.444 357.893C189.813 357.683 190.085 357.398 190.258 357.038C190.39 356.76 190.456 356.35 190.456 355.808V355.356ZM193.621 351.74H194.852V354.762H198.263V351.74H199.493V359H198.263V355.78H194.852V359H193.621V351.74Z" fill="white"/>
<path d="M196.121 294V283.979H197.447V288.094H202.656V283.979H203.982V294H202.656V289.276H197.447V294H196.121ZM210.777 293.104C210.322 293.492 209.882 293.765 209.458 293.925C209.039 294.084 208.588 294.164 208.104 294.164C207.307 294.164 206.694 293.97 206.266 293.583C205.837 293.191 205.623 292.692 205.623 292.086C205.623 291.73 205.703 291.407 205.862 291.115C206.026 290.819 206.238 290.582 206.498 290.404C206.762 290.227 207.059 290.092 207.387 290.001C207.628 289.937 207.993 289.876 208.48 289.816C209.474 289.698 210.205 289.557 210.675 289.393C210.679 289.224 210.682 289.117 210.682 289.071C210.682 288.57 210.565 288.217 210.333 288.012C210.019 287.734 209.551 287.595 208.932 287.595C208.353 287.595 207.924 287.697 207.646 287.902C207.373 288.103 207.17 288.461 207.038 288.976L205.835 288.812C205.944 288.297 206.124 287.882 206.375 287.567C206.626 287.248 206.988 287.005 207.462 286.836C207.936 286.663 208.485 286.576 209.109 286.576C209.729 286.576 210.233 286.649 210.62 286.795C211.007 286.941 211.292 287.125 211.475 287.349C211.657 287.567 211.785 287.845 211.857 288.183C211.898 288.392 211.919 288.771 211.919 289.317V290.958C211.919 292.102 211.944 292.826 211.994 293.132C212.049 293.433 212.154 293.722 212.309 294H211.023C210.896 293.745 210.814 293.446 210.777 293.104ZM210.675 290.356C210.228 290.539 209.558 290.694 208.665 290.821C208.159 290.894 207.801 290.976 207.592 291.067C207.382 291.159 207.22 291.293 207.106 291.471C206.993 291.644 206.936 291.838 206.936 292.052C206.936 292.38 207.059 292.653 207.305 292.872C207.555 293.091 207.92 293.2 208.398 293.2C208.872 293.2 209.294 293.098 209.663 292.893C210.032 292.683 210.303 292.398 210.477 292.038C210.609 291.76 210.675 291.35 210.675 290.808V290.356ZM213.013 294L215.665 290.227L213.211 286.74H214.749L215.863 288.442C216.073 288.766 216.242 289.037 216.369 289.256C216.57 288.955 216.754 288.688 216.923 288.456L218.146 286.74H219.616L217.107 290.158L219.808 294H218.297L216.807 291.744L216.41 291.136L214.503 294H213.013ZM220.211 290.37C220.211 289.026 220.585 288.03 221.332 287.383C221.956 286.845 222.717 286.576 223.615 286.576C224.613 286.576 225.429 286.904 226.062 287.561C226.696 288.212 227.013 289.115 227.013 290.268C227.013 291.202 226.871 291.938 226.589 292.476C226.311 293.009 225.903 293.424 225.365 293.72C224.832 294.016 224.249 294.164 223.615 294.164C222.599 294.164 221.776 293.838 221.147 293.187C220.523 292.535 220.211 291.596 220.211 290.37ZM221.476 290.37C221.476 291.3 221.678 291.997 222.084 292.462C222.49 292.922 223 293.152 223.615 293.152C224.226 293.152 224.734 292.92 225.14 292.455C225.545 291.99 225.748 291.282 225.748 290.329C225.748 289.431 225.543 288.752 225.133 288.292C224.727 287.827 224.221 287.595 223.615 287.595C223 287.595 222.49 287.825 222.084 288.285C221.678 288.745 221.476 289.44 221.476 290.37ZM229.118 286.74H234.177V292.988H234.963V296.058H233.951V294H228.236V296.058H227.225V292.988H227.874C228.74 291.812 229.155 289.73 229.118 286.74ZM230.144 287.759C230.052 290.115 229.688 291.858 229.05 292.988H232.953V287.759H230.144ZM236.316 286.74H237.547V289.878C237.939 289.878 238.212 289.803 238.367 289.652C238.527 289.502 238.759 289.064 239.064 288.34C239.306 287.766 239.502 287.387 239.652 287.205C239.803 287.023 239.976 286.9 240.172 286.836C240.368 286.772 240.682 286.74 241.115 286.74H241.361V287.759L241.02 287.752C240.696 287.752 240.489 287.8 240.397 287.896C240.302 287.996 240.156 288.294 239.96 288.791C239.773 289.265 239.602 289.593 239.447 289.775C239.292 289.958 239.053 290.124 238.729 290.274C239.258 290.416 239.778 290.908 240.288 291.751L241.635 294H240.281L238.969 291.751C238.7 291.3 238.465 291.004 238.265 290.862C238.064 290.716 237.825 290.644 237.547 290.644V294H236.316V286.74ZM247.5 293.104C247.044 293.492 246.604 293.765 246.181 293.925C245.761 294.084 245.31 294.164 244.827 294.164C244.03 294.164 243.417 293.97 242.988 293.583C242.56 293.191 242.346 292.692 242.346 292.086C242.346 291.73 242.425 291.407 242.585 291.115C242.749 290.819 242.961 290.582 243.221 290.404C243.485 290.227 243.781 290.092 244.109 290.001C244.351 289.937 244.715 289.876 245.203 289.816C246.197 289.698 246.928 289.557 247.397 289.393C247.402 289.224 247.404 289.117 247.404 289.071C247.404 288.57 247.288 288.217 247.056 288.012C246.741 287.734 246.274 287.595 245.654 287.595C245.076 287.595 244.647 287.697 244.369 287.902C244.096 288.103 243.893 288.461 243.761 288.976L242.558 288.812C242.667 288.297 242.847 287.882 243.098 287.567C243.348 287.248 243.711 287.005 244.185 286.836C244.659 286.663 245.208 286.576 245.832 286.576C246.452 286.576 246.955 286.649 247.343 286.795C247.73 286.941 248.015 287.125 248.197 287.349C248.38 287.567 248.507 287.845 248.58 288.183C248.621 288.392 248.642 288.771 248.642 289.317V290.958C248.642 292.102 248.667 292.826 248.717 293.132C248.771 293.433 248.876 293.722 249.031 294H247.746C247.618 293.745 247.536 293.446 247.5 293.104ZM247.397 290.356C246.951 290.539 246.281 290.694 245.388 290.821C244.882 290.894 244.524 290.976 244.314 291.067C244.105 291.159 243.943 291.293 243.829 291.471C243.715 291.644 243.658 291.838 243.658 292.052C243.658 292.38 243.781 292.653 244.027 292.872C244.278 293.091 244.643 293.2 245.121 293.2C245.595 293.2 246.017 293.098 246.386 292.893C246.755 292.683 247.026 292.398 247.199 292.038C247.331 291.76 247.397 291.35 247.397 290.808V290.356Z" fill="white"/>
<path d="M135.025 292V281.979H138.785C139.551 281.979 140.164 282.081 140.624 282.286C141.089 282.487 141.451 282.799 141.711 283.223C141.975 283.642 142.107 284.082 142.107 284.542C142.107 284.97 141.991 285.374 141.759 285.752C141.526 286.13 141.175 286.436 140.706 286.668C141.312 286.846 141.777 287.149 142.101 287.577C142.429 288.006 142.593 288.511 142.593 289.095C142.593 289.564 142.493 290.002 142.292 290.407C142.096 290.808 141.852 291.118 141.561 291.337C141.269 291.556 140.902 291.722 140.46 291.836C140.022 291.945 139.485 292 138.847 292H135.025ZM136.352 286.189H138.519C139.106 286.189 139.528 286.151 139.783 286.073C140.12 285.973 140.373 285.807 140.542 285.574C140.715 285.342 140.802 285.05 140.802 284.699C140.802 284.367 140.722 284.075 140.562 283.824C140.403 283.569 140.175 283.396 139.879 283.305C139.583 283.209 139.075 283.161 138.354 283.161H136.352V286.189ZM136.352 290.817H138.847C139.275 290.817 139.576 290.801 139.749 290.77C140.054 290.715 140.31 290.624 140.515 290.496C140.72 290.368 140.888 290.184 141.021 289.942C141.153 289.696 141.219 289.414 141.219 289.095C141.219 288.721 141.123 288.397 140.932 288.124C140.74 287.846 140.474 287.652 140.132 287.543C139.795 287.429 139.307 287.372 138.669 287.372H136.352V290.817ZM144.377 292V281.979H146.373L148.745 289.074C148.964 289.735 149.123 290.229 149.224 290.558C149.338 290.193 149.515 289.658 149.757 288.951L152.156 281.979H153.94V292H152.662V283.612L149.75 292H148.554L145.655 283.469V292H144.377ZM158.63 292V283.161H155.328V281.979H163.271V283.161H159.956V292H158.63ZM164.652 281.979H172.534V292H171.201V283.161H165.979V292H164.652V281.979Z" fill="white"/>
<path d="M50.6299 346V337.161H47.3281V335.979H55.2715V337.161H51.9561V346H50.6299ZM60.5898 345.104C60.1341 345.492 59.6943 345.765 59.2705 345.925C58.8512 346.084 58.4001 346.164 57.917 346.164C57.1195 346.164 56.5065 345.97 56.0781 345.583C55.6497 345.191 55.4355 344.692 55.4355 344.086C55.4355 343.73 55.5153 343.407 55.6748 343.115C55.8389 342.819 56.0508 342.582 56.3105 342.404C56.5749 342.227 56.8711 342.092 57.1992 342.001C57.4408 341.937 57.8053 341.876 58.293 341.816C59.2865 341.698 60.0179 341.557 60.4873 341.393C60.4919 341.224 60.4941 341.117 60.4941 341.071C60.4941 340.57 60.3779 340.217 60.1455 340.012C59.8311 339.734 59.3639 339.595 58.7441 339.595C58.1654 339.595 57.737 339.697 57.459 339.902C57.1855 340.103 56.9827 340.461 56.8506 340.976L55.6475 340.812C55.7568 340.297 55.9368 339.882 56.1875 339.567C56.4382 339.248 56.8005 339.005 57.2744 338.836C57.7484 338.663 58.2975 338.576 58.9219 338.576C59.5417 338.576 60.0452 338.649 60.4326 338.795C60.82 338.941 61.1048 339.125 61.2871 339.349C61.4694 339.567 61.597 339.845 61.6699 340.183C61.7109 340.392 61.7314 340.771 61.7314 341.317V342.958C61.7314 344.102 61.7565 344.826 61.8066 345.132C61.8613 345.433 61.9661 345.722 62.1211 346H60.8359C60.7083 345.745 60.6263 345.446 60.5898 345.104ZM60.4873 342.356C60.0407 342.539 59.3708 342.694 58.4775 342.821C57.9717 342.894 57.6139 342.976 57.4043 343.067C57.1947 343.159 57.0329 343.293 56.9189 343.471C56.805 343.644 56.748 343.838 56.748 344.052C56.748 344.38 56.8711 344.653 57.1172 344.872C57.3678 345.091 57.7324 345.2 58.2109 345.2C58.6849 345.2 59.1064 345.098 59.4756 344.893C59.8447 344.683 60.1159 344.398 60.2891 344.038C60.4212 343.76 60.4873 343.35 60.4873 342.808V342.356ZM63.6455 338.74H64.876V344.277L68.2871 338.74H69.6133V346H68.3828V340.497L64.9717 346H63.6455V338.74ZM67.918 335.992H68.7588C68.6904 336.562 68.4808 336.999 68.1299 337.305C67.7835 337.61 67.321 337.763 66.7422 337.763C66.1589 337.763 65.6917 337.612 65.3408 337.312C64.9945 337.006 64.7871 336.566 64.7188 335.992H65.5596C65.6234 336.302 65.7487 336.535 65.9355 336.689C66.127 336.84 66.3822 336.915 66.7012 336.915C67.0703 336.915 67.3483 336.842 67.5352 336.696C67.7266 336.546 67.8542 336.311 67.918 335.992ZM71.4863 338.74H72.7168V344.988H76.1211V338.74H77.3516V344.988H78.1445V348.058H77.1328V346H71.4863V338.74ZM84.2285 345.104C83.7728 345.492 83.333 345.765 82.9092 345.925C82.4899 346.084 82.0387 346.164 81.5557 346.164C80.7581 346.164 80.1452 345.97 79.7168 345.583C79.2884 345.191 79.0742 344.692 79.0742 344.086C79.0742 343.73 79.154 343.407 79.3135 343.115C79.4775 342.819 79.6895 342.582 79.9492 342.404C80.2135 342.227 80.5098 342.092 80.8379 342.001C81.0794 341.937 81.444 341.876 81.9316 341.816C82.9251 341.698 83.6566 341.557 84.126 341.393C84.1305 341.224 84.1328 341.117 84.1328 341.071C84.1328 340.57 84.0166 340.217 83.7842 340.012C83.4697 339.734 83.0026 339.595 82.3828 339.595C81.804 339.595 81.3757 339.697 81.0977 339.902C80.8242 340.103 80.6214 340.461 80.4893 340.976L79.2861 340.812C79.3955 340.297 79.5755 339.882 79.8262 339.567C80.0768 339.248 80.4391 339.005 80.9131 338.836C81.387 338.663 81.9362 338.576 82.5605 338.576C83.1803 338.576 83.6839 338.649 84.0713 338.795C84.4587 338.941 84.7435 339.125 84.9258 339.349C85.1081 339.567 85.2357 339.845 85.3086 340.183C85.3496 340.392 85.3701 340.771 85.3701 341.317V342.958C85.3701 344.102 85.3952 344.826 85.4453 345.132C85.5 345.433 85.6048 345.722 85.7598 346H84.4746C84.347 345.745 84.265 345.446 84.2285 345.104ZM84.126 342.356C83.6794 342.539 83.0094 342.694 82.1162 342.821C81.6104 342.894 81.2526 342.976 81.043 343.067C80.8333 343.159 80.6715 343.293 80.5576 343.471C80.4437 343.644 80.3867 343.838 80.3867 344.052C80.3867 344.38 80.5098 344.653 80.7559 344.872C81.0065 345.091 81.3711 345.2 81.8496 345.2C82.3236 345.2 82.7451 345.098 83.1143 344.893C83.4834 344.683 83.7546 344.398 83.9277 344.038C84.0599 343.76 84.126 343.35 84.126 342.808V342.356ZM87.291 338.74H88.5215V341.762H91.9326V338.74H93.1631V346H91.9326V342.78H88.5215V346H87.291V338.74Z" fill="white"/>
<path d="M194.5 302C199.5 314.5 172.5 345 153 345" stroke="#87A4BC" stroke-miterlimit="3.99393" stroke-linecap="round" stroke-dasharray="2 4"/>
<path d="M153.5 345C164.5 370 113.5 361.5 105 343" stroke="#87A4BC" stroke-miterlimit="3.99393" stroke-linecap="round" stroke-dasharray="2 4"/>
<path d="M108 330C108.5 331 114.5 338 105 343.5" stroke="#87A4BC" stroke-miterlimit="3.99393" stroke-linecap="round" stroke-dasharray="2 4"/>
<path d="M194 302.5C193.172 303.251 187 312 180.5 302" stroke="#87A4BC" stroke-miterlimit="3.99393" stroke-linecap="round" stroke-dasharray="2 4"/>
<g filter="url(#filter0_d_5077_52805)">
<circle cx="369" cy="38" r="2" fill="#0C99CF"/>
<circle cx="369" cy="38" r="2.5" stroke="white"/>
</g>
<g filter="url(#filter1_d_5077_52805)">
<circle cx="153" cy="345" r="2" fill="#0C99CF"/>
<circle cx="153" cy="345" r="2.5" stroke="white"/>
</g>
<g filter="url(#filter2_d_5077_52805)">
<circle cx="45" cy="401" r="2" fill="#0C99CF"/>
<circle cx="45" cy="401" r="2.5" stroke="white"/>
</g>
<g filter="url(#filter3_d_5077_52805)">
<circle cx="108" cy="330" r="2" fill="#0C99CF"/>
<circle cx="108" cy="330" r="2.5" stroke="white"/>
</g>
<g filter="url(#filter4_d_5077_52805)">
<circle cx="105" cy="343" r="2" fill="#0C99CF"/>
<circle cx="105" cy="343" r="2.5" stroke="white"/>
</g>
<g filter="url(#filter5_d_5077_52805)">
<circle cx="194" cy="302" r="2" fill="#0C99CF"/>
<circle cx="194" cy="302" r="2.5" stroke="white"/>
</g>
<path d="M369 38C355.5 -27.5004 475.6 10.0999 482 124.5C488.4 238.9 294.5 331.5 244.5 302C227.705 292.091 213 299.501 203.5 312C194 324.5 182 309.5 181 300.5" stroke="#87A4BC" stroke-miterlimit="3.99393" stroke-linecap="round" stroke-dasharray="2 4"/>
<path d="M369 38C358 -43.0004 486.1 17.0996 492.5 131.5C498.9 245.9 262.398 389.566 208 396C161.5 401.5 145.5 424.5 103.5 429.5C61.5 434.5 46.5 410.5 45.5 401.5" stroke="#87A4BC" stroke-miterlimit="3.99393" stroke-linecap="round" stroke-dasharray="2 4"/>
<g filter="url(#filter6_d_5077_52805)">
<circle cx="181" cy="301" r="3" fill="#0C99CF"/>
<circle cx="181" cy="301" r="4" stroke="white" stroke-width="2"/>
</g>
<defs>
<filter id="filter0_d_5077_52805" x="364.163" y="34.3878" width="9.67311" height="9.67311" filterUnits="userSpaceOnUse" color-interpolation-filters="sRGB">
<feFlood flood-opacity="0" result="BackgroundImageFix"/>
<feColorMatrix in="SourceAlpha" type="matrix" values="0 0 0 0 0 0 0 0 0 0 0 0 0 0 0 0 0 0 127 0" result="hardAlpha"/>
<feOffset dy="1.22437"/>
<feGaussianBlur stdDeviation="0.918278"/>
<feColorMatrix type="matrix" values="0 0 0 0 0 0 0 0 0 0 0 0 0 0 0 0 0 0 0.2 0"/>
<feBlend mode="normal" in2="BackgroundImageFix" result="effect1_dropShadow_5077_52805"/>
<feBlend mode="normal" in="SourceGraphic" in2="effect1_dropShadow_5077_52805" result="shape"/>
</filter>
<filter id="filter1_d_5077_52805" x="148.163" y="341.388" width="9.67311" height="9.67311" filterUnits="userSpaceOnUse" color-interpolation-filters="sRGB">
<feFlood flood-opacity="0" result="BackgroundImageFix"/>
<feColorMatrix in="SourceAlpha" type="matrix" values="0 0 0 0 0 0 0 0 0 0 0 0 0 0 0 0 0 0 127 0" result="hardAlpha"/>
<feOffset dy="1.22437"/>
<feGaussianBlur stdDeviation="0.918278"/>
<feColorMatrix type="matrix" values="0 0 0 0 0 0 0 0 0 0 0 0 0 0 0 0 0 0 0.2 0"/>
<feBlend mode="normal" in2="BackgroundImageFix" result="effect1_dropShadow_5077_52805"/>
<feBlend mode="normal" in="SourceGraphic" in2="effect1_dropShadow_5077_52805" result="shape"/>
</filter>
<filter id="filter2_d_5077_52805" x="40.1634" y="397.388" width="9.67311" height="9.67311" filterUnits="userSpaceOnUse" color-interpolation-filters="sRGB">
<feFlood flood-opacity="0" result="BackgroundImageFix"/>
<feColorMatrix in="SourceAlpha" type="matrix" values="0 0 0 0 0 0 0 0 0 0 0 0 0 0 0 0 0 0 127 0" result="hardAlpha"/>
<feOffset dy="1.22437"/>
<feGaussianBlur stdDeviation="0.918278"/>
<feColorMatrix type="matrix" values="0 0 0 0 0 0 0 0 0 0 0 0 0 0 0 0 0 0 0.2 0"/>
<feBlend mode="normal" in2="BackgroundImageFix" result="effect1_dropShadow_5077_52805"/>
<feBlend mode="normal" in="SourceGraphic" in2="effect1_dropShadow_5077_52805" result="shape"/>
</filter>
<filter id="filter3_d_5077_52805" x="103.163" y="326.388" width="9.67311" height="9.67311" filterUnits="userSpaceOnUse" color-interpolation-filters="sRGB">
<feFlood flood-opacity="0" result="BackgroundImageFix"/>
<feColorMatrix in="SourceAlpha" type="matrix" values="0 0 0 0 0 0 0 0 0 0 0 0 0 0 0 0 0 0 127 0" result="hardAlpha"/>
<feOffset dy="1.22437"/>
<feGaussianBlur stdDeviation="0.918278"/>
<feColorMatrix type="matrix" values="0 0 0 0 0 0 0 0 0 0 0 0 0 0 0 0 0 0 0.2 0"/>
<feBlend mode="normal" in2="BackgroundImageFix" result="effect1_dropShadow_5077_52805"/>
<feBlend mode="normal" in="SourceGraphic" in2="effect1_dropShadow_5077_52805" result="shape"/>
</filter>
<filter id="filter4_d_5077_52805" x="100.163" y="339.388" width="9.67311" height="9.67311" filterUnits="userSpaceOnUse" color-interpolation-filters="sRGB">
<feFlood flood-opacity="0" result="BackgroundImageFix"/>
<feColorMatrix in="SourceAlpha" type="matrix" values="0 0 0 0 0 0 0 0 0 0 0 0 0 0 0 0 0 0 127 0" result="hardAlpha"/>
<feOffset dy="1.22437"/>
<feGaussianBlur stdDeviation="0.918278"/>
<feColorMatrix type="matrix" values="0 0 0 0 0 0 0 0 0 0 0 0 0 0 0 0 0 0 0.2 0"/>
<feBlend mode="normal" in2="BackgroundImageFix" result="effect1_dropShadow_5077_52805"/>
<feBlend mode="normal" in="SourceGraphic" in2="effect1_dropShadow_5077_52805" result="shape"/>
</filter>
<filter id="filter5_d_5077_52805" x="189.163" y="298.388" width="9.67311" height="9.67311" filterUnits="userSpaceOnUse" color-interpolation-filters="sRGB">
<feFlood flood-opacity="0" result="BackgroundImageFix"/>
<feColorMatrix in="SourceAlpha" type="matrix" values="0 0 0 0 0 0 0 0 0 0 0 0 0 0 0 0 0 0 127 0" result="hardAlpha"/>
<feOffset dy="1.22437"/>
<feGaussianBlur stdDeviation="0.918278"/>
<feColorMatrix type="matrix" values="0 0 0 0 0 0 0 0 0 0 0 0 0 0 0 0 0 0 0.2 0"/>
<feBlend mode="normal" in2="BackgroundImageFix" result="effect1_dropShadow_5077_52805"/>
<feBlend mode="normal" in="SourceGraphic" in2="effect1_dropShadow_5077_52805" result="shape"/>
</filter>
<filter id="filter6_d_5077_52805" x="174.163" y="295.388" width="13.6731" height="13.6731" filterUnits="userSpaceOnUse" color-interpolation-filters="sRGB">
<feFlood flood-opacity="0" result="BackgroundImageFix"/>
<feColorMatrix in="SourceAlpha" type="matrix" values="0 0 0 0 0 0 0 0 0 0 0 0 0 0 0 0 0 0 127 0" result="hardAlpha"/>
<feOffset dy="1.22437"/>
<feGaussianBlur stdDeviation="0.918278"/>
<feColorMatrix type="matrix" values="0 0 0 0 0 0 0 0 0 0 0 0 0 0 0 0 0 0 0.2 0"/>
<feBlend mode="normal" in2="BackgroundImageFix" result="effect1_dropShadow_5077_52805"/>
<feBlend mode="normal" in="SourceGraphic" in2="effect1_dropShadow_5077_52805" result="shape"/>
</filter>
</defs>
</svg>
