<svg width="272" height="178" viewBox="0 0 272 178" fill="none" xmlns="http://www.w3.org/2000/svg">
<path d="M128.121 107V96.9785H129.447V101.094H134.656V96.9785H135.982V107H134.656V102.276H129.447V107H128.121ZM138.04 99.7402H139.271V105.277L142.682 99.7402H144.008V107H142.777V101.497L139.366 107H138.04V99.7402ZM145.895 99.7402H147.809L149.716 105.551L151.835 99.7402H153.605V107H152.375V101.155L150.229 107H149.128L147.098 100.875V107H145.895V99.7402ZM160.64 96.7393L161.727 96.7529C161.676 97.2406 161.567 97.5801 161.398 97.7715C161.234 97.9629 161.02 98.0859 160.756 98.1406C160.496 98.1953 159.983 98.2227 159.218 98.2227C158.201 98.2227 157.509 98.3206 157.14 98.5166C156.771 98.7126 156.504 99.027 156.34 99.46C156.18 99.8883 156.091 100.442 156.073 101.121C156.383 100.661 156.745 100.317 157.16 100.089C157.575 99.8564 158.042 99.7402 158.562 99.7402C159.514 99.7402 160.302 100.068 160.927 100.725C161.551 101.376 161.863 102.26 161.863 103.377C161.863 104.225 161.706 104.92 161.392 105.462C161.077 106.004 160.703 106.424 160.271 106.72C159.842 107.016 159.257 107.164 158.514 107.164C157.652 107.164 156.982 106.968 156.504 106.576C156.025 106.18 155.659 105.674 155.403 105.059C155.148 104.443 155.021 103.372 155.021 101.846C155.021 99.9271 155.344 98.6351 155.991 97.9697C156.643 97.3044 157.643 96.9717 158.992 96.9717C159.831 96.9717 160.307 96.958 160.421 96.9307C160.535 96.9033 160.608 96.8395 160.64 96.7393ZM160.578 103.343C160.578 102.586 160.398 101.966 160.038 101.483C159.683 101 159.179 100.759 158.527 100.759C157.848 100.759 157.324 101.014 156.955 101.524C156.586 102.035 156.401 102.716 156.401 103.568C156.401 104.411 156.604 105.056 157.01 105.503C157.42 105.95 157.924 106.173 158.521 106.173C159.131 106.173 159.626 105.915 160.004 105.4C160.387 104.881 160.578 104.195 160.578 103.343ZM162.889 103.37C162.889 102.026 163.262 101.03 164.01 100.383C164.634 99.8451 165.395 99.5762 166.293 99.5762C167.291 99.5762 168.107 99.9043 168.74 100.561C169.374 101.212 169.69 102.115 169.69 103.268C169.69 104.202 169.549 104.938 169.267 105.476C168.989 106.009 168.581 106.424 168.043 106.72C167.51 107.016 166.926 107.164 166.293 107.164C165.277 107.164 164.454 106.838 163.825 106.187C163.201 105.535 162.889 104.596 162.889 103.37ZM164.153 103.37C164.153 104.3 164.356 104.997 164.762 105.462C165.167 105.922 165.678 106.152 166.293 106.152C166.904 106.152 167.412 105.92 167.817 105.455C168.223 104.99 168.426 104.282 168.426 103.329C168.426 102.431 168.221 101.752 167.811 101.292C167.405 100.827 166.899 100.595 166.293 100.595C165.678 100.595 165.167 100.825 164.762 101.285C164.356 101.745 164.153 102.44 164.153 103.37Z" fill="white"/>
<path d="M219.025 12V1.97852H222.785C223.551 1.97852 224.164 2.08105 224.624 2.28613C225.089 2.48665 225.451 2.79883 225.711 3.22266C225.975 3.64193 226.107 4.08171 226.107 4.54199C226.107 4.97038 225.991 5.3737 225.759 5.75195C225.526 6.13021 225.175 6.43555 224.706 6.66797C225.312 6.8457 225.777 7.14876 226.101 7.57715C226.429 8.00553 226.593 8.51139 226.593 9.09473C226.593 9.56413 226.493 10.0016 226.292 10.4072C226.096 10.8083 225.852 11.1182 225.561 11.3369C225.269 11.5557 224.902 11.722 224.46 11.8359C224.022 11.9453 223.485 12 222.847 12H219.025ZM220.352 6.18945H222.519C223.106 6.18945 223.528 6.15072 223.783 6.07324C224.12 5.97298 224.373 5.80664 224.542 5.57422C224.715 5.3418 224.802 5.05013 224.802 4.69922C224.802 4.36654 224.722 4.07487 224.562 3.82422C224.403 3.56901 224.175 3.39583 223.879 3.30469C223.583 3.20898 223.075 3.16113 222.354 3.16113H220.352V6.18945ZM220.352 10.8174H222.847C223.275 10.8174 223.576 10.8014 223.749 10.7695C224.054 10.7148 224.31 10.6237 224.515 10.4961C224.72 10.3685 224.888 10.1839 225.021 9.94238C225.153 9.69629 225.219 9.41374 225.219 9.09473C225.219 8.72103 225.123 8.39746 224.932 8.12402C224.74 7.84603 224.474 7.65234 224.132 7.54297C223.795 7.42904 223.307 7.37207 222.669 7.37207H220.352V10.8174ZM228.377 12V1.97852H230.373L232.745 9.07422C232.964 9.73503 233.123 10.2295 233.224 10.5576C233.338 10.193 233.515 9.65755 233.757 8.95117L236.156 1.97852H237.94V12H236.662V3.6123L233.75 12H232.554L229.655 3.46875V12H228.377ZM242.63 12V3.16113H239.328V1.97852H247.271V3.16113H243.956V12H242.63ZM248.652 1.97852H256.534V12H255.201V3.16113H249.979V12H248.652V1.97852Z" fill="white"/>
<path d="M0.0615234 174L3.9375 168.777L0.519531 163.979H2.09863L3.91699 166.549C4.29525 167.082 4.56413 167.492 4.72363 167.779C4.94694 167.415 5.21126 167.034 5.5166 166.638L7.5332 163.979H8.97559L5.45508 168.702L9.24902 174H7.6084L5.08594 170.425C4.94466 170.22 4.79883 169.996 4.64844 169.755C4.42513 170.119 4.26562 170.37 4.16992 170.507L1.6543 174H0.0615234ZM9.63867 170.37C9.63867 169.026 10.0124 168.03 10.7598 167.383C11.3841 166.845 12.1452 166.576 13.043 166.576C14.041 166.576 14.8568 166.904 15.4902 167.561C16.1237 168.212 16.4404 169.115 16.4404 170.268C16.4404 171.202 16.2992 171.938 16.0166 172.476C15.7386 173.009 15.3307 173.424 14.793 173.72C14.2598 174.016 13.6764 174.164 13.043 174.164C12.0267 174.164 11.2041 173.838 10.5752 173.187C9.95085 172.535 9.63867 171.596 9.63867 170.37ZM10.9033 170.37C10.9033 171.3 11.1061 171.997 11.5117 172.462C11.9173 172.922 12.4277 173.152 13.043 173.152C13.6536 173.152 14.1618 172.92 14.5674 172.455C14.973 171.99 15.1758 171.282 15.1758 170.329C15.1758 169.431 14.9707 168.752 14.5605 168.292C14.1549 167.827 13.6491 167.595 13.043 167.595C12.4277 167.595 11.9173 167.825 11.5117 168.285C11.1061 168.745 10.9033 169.44 10.9033 170.37ZM17.9307 166.74H19.1611V172.981H21.9639V166.74H23.1943V172.981H26.0039V166.74H27.2275V174H17.9307V166.74ZM29.1279 166.74H30.3584V172.277L33.7695 166.74H35.0957V174H33.8652V168.497L30.4541 174H29.1279V166.74ZM36.9824 166.74H38.8965L40.8037 172.551L42.9229 166.74H44.6934V174H43.4629V168.155L41.3164 174H40.2158L38.1855 167.875V174H36.9824V166.74ZM46.5732 166.74H47.8037V172.277L51.2148 166.74H52.541V174H51.3105V168.497L47.8994 174H46.5732V166.74ZM54.4004 166.74H55.6309V169.762H59.042V166.74H60.2725V174H59.042V170.78H55.6309V174H54.4004V166.74Z" fill="white"/>
<path d="M27.0615 118L30.9375 112.777L27.5195 107.979H29.0986L30.917 110.549C31.2952 111.082 31.5641 111.492 31.7236 111.779C31.9469 111.415 32.2113 111.034 32.5166 110.638L34.5332 107.979H35.9756L32.4551 112.702L36.249 118H34.6084L32.0859 114.425C31.9447 114.22 31.7988 113.996 31.6484 113.755C31.4251 114.119 31.2656 114.37 31.1699 114.507L28.6543 118H27.0615ZM41.998 117.104C41.5423 117.492 41.1025 117.765 40.6787 117.925C40.2594 118.084 39.8083 118.164 39.3252 118.164C38.5277 118.164 37.9147 117.97 37.4863 117.583C37.0579 117.191 36.8438 116.692 36.8438 116.086C36.8438 115.73 36.9235 115.407 37.083 115.115C37.2471 114.819 37.459 114.582 37.7188 114.404C37.9831 114.227 38.2793 114.092 38.6074 114.001C38.849 113.937 39.2135 113.876 39.7012 113.816C40.6947 113.698 41.4261 113.557 41.8955 113.393C41.9001 113.224 41.9023 113.117 41.9023 113.071C41.9023 112.57 41.7861 112.217 41.5537 112.012C41.2393 111.734 40.7721 111.595 40.1523 111.595C39.5736 111.595 39.1452 111.697 38.8672 111.902C38.5938 112.103 38.391 112.461 38.2588 112.976L37.0557 112.812C37.165 112.297 37.3451 111.882 37.5957 111.567C37.8464 111.248 38.2087 111.005 38.6826 110.836C39.1566 110.663 39.7057 110.576 40.3301 110.576C40.9499 110.576 41.4535 110.649 41.8408 110.795C42.2282 110.941 42.513 111.125 42.6953 111.349C42.8776 111.567 43.0052 111.845 43.0781 112.183C43.1191 112.392 43.1396 112.771 43.1396 113.317V114.958C43.1396 116.102 43.1647 116.826 43.2148 117.132C43.2695 117.433 43.3743 117.722 43.5293 118H42.2441C42.1165 117.745 42.0345 117.446 41.998 117.104ZM41.8955 114.356C41.4489 114.539 40.779 114.694 39.8857 114.821C39.3799 114.894 39.0221 114.976 38.8125 115.067C38.6029 115.159 38.4411 115.293 38.3271 115.471C38.2132 115.644 38.1562 115.838 38.1562 116.052C38.1562 116.38 38.2793 116.653 38.5254 116.872C38.776 117.091 39.1406 117.2 39.6191 117.2C40.0931 117.2 40.5146 117.098 40.8838 116.893C41.2529 116.683 41.5241 116.398 41.6973 116.038C41.8294 115.76 41.8955 115.35 41.8955 114.808V114.356ZM45.0537 110.74H46.2842V116.277L49.6953 110.74H51.0215V118H49.791V112.497L46.3799 118H45.0537V110.74ZM49.3262 107.992H50.167C50.0986 108.562 49.889 108.999 49.5381 109.305C49.1917 109.61 48.7292 109.763 48.1504 109.763C47.5671 109.763 47.0999 109.612 46.749 109.312C46.4027 109.006 46.1953 108.566 46.127 107.992H46.9678C47.0316 108.302 47.1569 108.535 47.3438 108.689C47.5352 108.84 47.7904 108.915 48.1094 108.915C48.4785 108.915 48.7565 108.842 48.9434 108.696C49.1348 108.546 49.2624 108.311 49.3262 107.992ZM57.0986 107.979H58.3291V111.444C58.5843 111.153 58.8646 110.936 59.1699 110.795C59.4753 110.649 59.8034 110.576 60.1543 110.576C61.0156 110.576 61.6969 110.936 62.1982 111.656C62.7041 112.372 62.957 113.274 62.957 114.363C62.957 115.498 62.6859 116.416 62.1436 117.118C61.6012 117.815 60.9268 118.164 60.1201 118.164C59.8558 118.164 59.5869 118.123 59.3135 118.041C59.04 117.959 58.7119 117.736 58.3291 117.371V120.782H57.0986V117.371C56.8525 117.635 56.5791 117.834 56.2783 117.966C55.9821 118.098 55.6608 118.164 55.3145 118.164C54.5534 118.164 53.888 117.831 53.3184 117.166C52.7487 116.496 52.4639 115.539 52.4639 114.295C52.4639 113.242 52.7214 112.36 53.2363 111.649C53.7513 110.934 54.444 110.576 55.3145 110.576C55.679 110.576 56.0094 110.649 56.3057 110.795C56.6019 110.936 56.8662 111.153 57.0986 111.444V107.979ZM58.3223 114.397C58.3223 115.491 58.4727 116.227 58.7734 116.605C59.0742 116.979 59.4502 117.166 59.9014 117.166C60.4027 117.166 60.8288 116.936 61.1797 116.476C61.5352 116.011 61.7129 115.291 61.7129 114.315C61.7129 113.395 61.5488 112.709 61.2207 112.258C60.8971 111.807 60.4801 111.581 59.9697 111.581C59.4229 111.581 59.0104 111.816 58.7324 112.285C58.459 112.755 58.3223 113.459 58.3223 114.397ZM53.7148 114.261C53.7148 115.286 53.8857 116.024 54.2275 116.476C54.5739 116.927 55.0023 117.152 55.5127 117.152C56.0459 117.152 56.4447 116.929 56.709 116.482C56.9733 116.031 57.1055 115.357 57.1055 114.459C57.1055 113.502 56.9665 112.784 56.6885 112.306C56.4105 111.827 55.9912 111.588 55.4307 111.588C54.9248 111.588 54.5124 111.823 54.1934 112.292C53.8743 112.757 53.7148 113.413 53.7148 114.261ZM63.9414 114.37C63.9414 113.026 64.3151 112.03 65.0625 111.383C65.6868 110.845 66.4479 110.576 67.3457 110.576C68.3438 110.576 69.1595 110.904 69.793 111.561C70.4264 112.212 70.7432 113.115 70.7432 114.268C70.7432 115.202 70.6019 115.938 70.3193 116.476C70.0413 117.009 69.6335 117.424 69.0957 117.72C68.5625 118.016 67.9792 118.164 67.3457 118.164C66.3294 118.164 65.5068 117.838 64.8779 117.187C64.2536 116.535 63.9414 115.596 63.9414 114.37ZM65.2061 114.37C65.2061 115.3 65.4089 115.997 65.8145 116.462C66.2201 116.922 66.7305 117.152 67.3457 117.152C67.9564 117.152 68.4645 116.92 68.8701 116.455C69.2757 115.99 69.4785 115.282 69.4785 114.329C69.4785 113.431 69.2734 112.752 68.8633 112.292C68.4577 111.827 67.9518 111.595 67.3457 111.595C66.7305 111.595 66.2201 111.825 65.8145 112.285C65.4089 112.745 65.2061 113.44 65.2061 114.37ZM72.1992 110.74H73.4297V113.762H76.8408V110.74H78.0713V118H76.8408V114.78H73.4297V118H72.1992V110.74Z" fill="white"/>
<path d="M265 21.5C271.5 43 177 174.5 89 115" stroke="#87A4BC" stroke-miterlimit="3.99393" stroke-linecap="round" stroke-dasharray="2 4"/>
<path d="M180 104C182 119 118 176 70 171" stroke="#87A4BC" stroke-miterlimit="3.99393" stroke-linecap="round" stroke-dasharray="2 4"/>
<path d="M89.5 115C92 127.5 114.5 177.5 70 171" stroke="#87A4BC" stroke-miterlimit="3.99393" stroke-linecap="round" stroke-dasharray="2 4"/>
<g filter="url(#filter0_d_5077_52715)">
<circle cx="70" cy="171" r="2" fill="#0C99CF"/>
<circle cx="70" cy="171" r="2.5" stroke="white"/>
</g>
<g filter="url(#filter1_d_5077_52715)">
<circle cx="89" cy="115" r="2" fill="#0C99CF"/>
<circle cx="89" cy="115" r="2.5" stroke="white"/>
</g>
<g filter="url(#filter2_d_5077_52715)">
<circle cx="180" cy="104" r="2" fill="#0C99CF"/>
<circle cx="180" cy="104" r="2.5" stroke="white"/>
</g>
<g filter="url(#filter3_d_5077_52715)">
<circle cx="265" cy="21" r="3" fill="#0C99CF"/>
<circle cx="265" cy="21" r="4" stroke="white" stroke-width="2"/>
</g>
<defs>
<filter id="filter0_d_5077_52715" x="65.1634" y="167.388" width="9.67311" height="9.67311" filterUnits="userSpaceOnUse" color-interpolation-filters="sRGB">
<feFlood flood-opacity="0" result="BackgroundImageFix"/>
<feColorMatrix in="SourceAlpha" type="matrix" values="0 0 0 0 0 0 0 0 0 0 0 0 0 0 0 0 0 0 127 0" result="hardAlpha"/>
<feOffset dy="1.22437"/>
<feGaussianBlur stdDeviation="0.918278"/>
<feColorMatrix type="matrix" values="0 0 0 0 0 0 0 0 0 0 0 0 0 0 0 0 0 0 0.2 0"/>
<feBlend mode="normal" in2="BackgroundImageFix" result="effect1_dropShadow_5077_52715"/>
<feBlend mode="normal" in="SourceGraphic" in2="effect1_dropShadow_5077_52715" result="shape"/>
</filter>
<filter id="filter1_d_5077_52715" x="84.1634" y="111.388" width="9.67311" height="9.67311" filterUnits="userSpaceOnUse" color-interpolation-filters="sRGB">
<feFlood flood-opacity="0" result="BackgroundImageFix"/>
<feColorMatrix in="SourceAlpha" type="matrix" values="0 0 0 0 0 0 0 0 0 0 0 0 0 0 0 0 0 0 127 0" result="hardAlpha"/>
<feOffset dy="1.22437"/>
<feGaussianBlur stdDeviation="0.918278"/>
<feColorMatrix type="matrix" values="0 0 0 0 0 0 0 0 0 0 0 0 0 0 0 0 0 0 0.2 0"/>
<feBlend mode="normal" in2="BackgroundImageFix" result="effect1_dropShadow_5077_52715"/>
<feBlend mode="normal" in="SourceGraphic" in2="effect1_dropShadow_5077_52715" result="shape"/>
</filter>
<filter id="filter2_d_5077_52715" x="175.163" y="100.388" width="9.67311" height="9.67311" filterUnits="userSpaceOnUse" color-interpolation-filters="sRGB">
<feFlood flood-opacity="0" result="BackgroundImageFix"/>
<feColorMatrix in="SourceAlpha" type="matrix" values="0 0 0 0 0 0 0 0 0 0 0 0 0 0 0 0 0 0 127 0" result="hardAlpha"/>
<feOffset dy="1.22437"/>
<feGaussianBlur stdDeviation="0.918278"/>
<feColorMatrix type="matrix" values="0 0 0 0 0 0 0 0 0 0 0 0 0 0 0 0 0 0 0.2 0"/>
<feBlend mode="normal" in2="BackgroundImageFix" result="effect1_dropShadow_5077_52715"/>
<feBlend mode="normal" in="SourceGraphic" in2="effect1_dropShadow_5077_52715" result="shape"/>
</filter>
<filter id="filter3_d_5077_52715" x="258.163" y="15.3878" width="13.6731" height="13.6731" filterUnits="userSpaceOnUse" color-interpolation-filters="sRGB">
<feFlood flood-opacity="0" result="BackgroundImageFix"/>
<feColorMatrix in="SourceAlpha" type="matrix" values="0 0 0 0 0 0 0 0 0 0 0 0 0 0 0 0 0 0 127 0" result="hardAlpha"/>
<feOffset dy="1.22437"/>
<feGaussianBlur stdDeviation="0.918278"/>
<feColorMatrix type="matrix" values="0 0 0 0 0 0 0 0 0 0 0 0 0 0 0 0 0 0 0.2 0"/>
<feBlend mode="normal" in2="BackgroundImageFix" result="effect1_dropShadow_5077_52715"/>
<feBlend mode="normal" in="SourceGraphic" in2="effect1_dropShadow_5077_52715" result="shape"/>
</filter>
</defs>
</svg>
