<svg width="172" height="30" viewBox="0 0 172 30" fill="none" xmlns="http://www.w3.org/2000/svg">
<path d="M112.101 6.97852H113.427V11.3672C114.033 11.3672 114.459 11.251 114.705 11.0186C114.951 10.7816 115.266 10.2165 115.648 9.32324C115.926 8.66699 116.154 8.20443 116.332 7.93555C116.514 7.66211 116.772 7.43424 117.104 7.25195C117.437 7.0651 117.804 6.97168 118.205 6.97168C118.715 6.97168 118.984 6.97624 119.012 6.98535V8.13379C118.966 8.13379 118.877 8.13151 118.745 8.12695C118.599 8.1224 118.51 8.12012 118.479 8.12012C118.055 8.12012 117.74 8.22266 117.535 8.42773C117.326 8.63281 117.086 9.07031 116.817 9.74023C116.48 10.5879 116.195 11.1234 115.963 11.3467C115.73 11.5654 115.452 11.7409 115.129 11.873C115.776 12.0508 116.414 12.6478 117.043 13.6641L119.107 17H117.46L115.785 14.2793C115.325 13.5273 114.94 13.0124 114.63 12.7344C114.32 12.4518 113.919 12.3105 113.427 12.3105V17H112.101V6.97852ZM119.627 13.3701C119.627 12.0257 120.001 11.0299 120.748 10.3828C121.372 9.84505 122.133 9.57617 123.031 9.57617C124.029 9.57617 124.845 9.9043 125.479 10.5605C126.112 11.2122 126.429 12.1146 126.429 13.2676C126.429 14.2018 126.287 14.9378 126.005 15.4756C125.727 16.0088 125.319 16.4235 124.781 16.7197C124.248 17.016 123.665 17.1641 123.031 17.1641C122.015 17.1641 121.192 16.8382 120.563 16.1865C119.939 15.5348 119.627 14.596 119.627 13.3701ZM120.892 13.3701C120.892 14.2998 121.094 14.9971 121.5 15.4619C121.906 15.9222 122.416 16.1523 123.031 16.1523C123.642 16.1523 124.15 15.9199 124.556 15.4551C124.961 14.9902 125.164 14.2816 125.164 13.3291C125.164 12.4313 124.959 11.7523 124.549 11.292C124.143 10.8271 123.637 10.5947 123.031 10.5947C122.416 10.5947 121.906 10.8249 121.5 11.2852C121.094 11.7454 120.892 12.4404 120.892 13.3701ZM127.878 19.7822V9.74023H128.999V10.6836C129.263 10.3145 129.562 10.0387 129.895 9.85645C130.227 9.6696 130.631 9.57617 131.104 9.57617C131.724 9.57617 132.271 9.73568 132.745 10.0547C133.219 10.3737 133.577 10.8249 133.818 11.4082C134.06 11.987 134.181 12.6227 134.181 13.3154C134.181 14.0583 134.046 14.7282 133.777 15.3252C133.513 15.9176 133.126 16.3734 132.615 16.6924C132.109 17.0068 131.576 17.1641 131.016 17.1641C130.605 17.1641 130.236 17.0775 129.908 16.9043C129.585 16.7311 129.318 16.5124 129.108 16.248V19.7822H127.878ZM128.992 13.4111C128.992 14.3454 129.181 15.0358 129.56 15.4824C129.938 15.929 130.396 16.1523 130.934 16.1523C131.48 16.1523 131.948 15.9222 132.335 15.4619C132.727 14.9971 132.923 14.2793 132.923 13.3086C132.923 12.3835 132.731 11.6908 132.349 11.2305C131.97 10.7702 131.517 10.54 130.988 10.54C130.464 10.54 129.999 10.7861 129.594 11.2783C129.193 11.766 128.992 12.4769 128.992 13.4111ZM140.408 14.3408L141.618 14.498C141.486 15.332 141.146 15.986 140.6 16.46C140.057 16.9294 139.39 17.1641 138.597 17.1641C137.603 17.1641 136.803 16.8405 136.197 16.1934C135.596 15.5417 135.295 14.6097 135.295 13.3975C135.295 12.6136 135.425 11.9277 135.685 11.3398C135.944 10.752 136.339 10.3122 136.867 10.0205C137.4 9.72428 137.979 9.57617 138.604 9.57617C139.392 9.57617 140.037 9.77669 140.538 10.1777C141.039 10.5742 141.361 11.1393 141.502 11.873L140.306 12.0576C140.192 11.57 139.989 11.2031 139.697 10.957C139.41 10.7109 139.062 10.5879 138.651 10.5879C138.032 10.5879 137.528 10.8112 137.141 11.2578C136.753 11.6999 136.56 12.4017 136.56 13.3633C136.56 14.3385 136.746 15.0472 137.12 15.4893C137.494 15.9313 137.981 16.1523 138.583 16.1523C139.066 16.1523 139.469 16.0042 139.793 15.708C140.117 15.4118 140.322 14.9561 140.408 14.3408ZM147.408 16.1045C146.952 16.4919 146.513 16.7653 146.089 16.9248C145.67 17.0843 145.218 17.1641 144.735 17.1641C143.938 17.1641 143.325 16.9704 142.896 16.583C142.468 16.1911 142.254 15.6921 142.254 15.0859C142.254 14.7305 142.334 14.4069 142.493 14.1152C142.657 13.819 142.869 13.582 143.129 13.4043C143.393 13.2266 143.689 13.0921 144.018 13.001C144.259 12.9372 144.624 12.8757 145.111 12.8164C146.105 12.6979 146.836 12.5566 147.306 12.3926C147.31 12.224 147.312 12.1169 147.312 12.0713C147.312 11.57 147.196 11.2168 146.964 11.0117C146.649 10.7337 146.182 10.5947 145.562 10.5947C144.984 10.5947 144.555 10.6973 144.277 10.9023C144.004 11.1029 143.801 11.4606 143.669 11.9756L142.466 11.8115C142.575 11.2965 142.755 10.8818 143.006 10.5674C143.257 10.2484 143.619 10.0046 144.093 9.83594C144.567 9.66276 145.116 9.57617 145.74 9.57617C146.36 9.57617 146.864 9.64909 147.251 9.79492C147.638 9.94076 147.923 10.1253 148.105 10.3486C148.288 10.5674 148.415 10.8454 148.488 11.1826C148.529 11.3923 148.55 11.7705 148.55 12.3174V13.958C148.55 15.1019 148.575 15.8265 148.625 16.1318C148.68 16.4326 148.785 16.722 148.939 17H147.654C147.527 16.7448 147.445 16.4463 147.408 16.1045ZM147.306 13.3564C146.859 13.5387 146.189 13.6937 145.296 13.8213C144.79 13.8942 144.432 13.9762 144.223 14.0674C144.013 14.1585 143.851 14.293 143.737 14.4707C143.623 14.6439 143.566 14.8376 143.566 15.0518C143.566 15.3799 143.689 15.6533 143.936 15.8721C144.186 16.0908 144.551 16.2002 145.029 16.2002C145.503 16.2002 145.925 16.0977 146.294 15.8926C146.663 15.6829 146.934 15.3981 147.107 15.0381C147.24 14.7601 147.306 14.3499 147.306 13.8076V13.3564ZM150.457 9.74023H151.688V12.8779C152.079 12.8779 152.353 12.8027 152.508 12.6523C152.667 12.502 152.9 12.0645 153.205 11.3398C153.447 10.7656 153.643 10.3874 153.793 10.2051C153.943 10.0228 154.117 9.89974 154.312 9.83594C154.508 9.77214 154.823 9.74023 155.256 9.74023H155.502V10.7588L155.16 10.752C154.837 10.752 154.629 10.7998 154.538 10.8955C154.442 10.9958 154.297 11.2943 154.101 11.791C153.914 12.265 153.743 12.5931 153.588 12.7754C153.433 12.9577 153.194 13.124 152.87 13.2744C153.399 13.4157 153.918 13.9079 154.429 14.751L155.775 17H154.422L153.109 14.751C152.84 14.2998 152.606 14.0036 152.405 13.8623C152.205 13.7165 151.965 13.6436 151.688 13.6436V17H150.457V9.74023ZM156.295 13.3701C156.295 12.0257 156.669 11.0299 157.416 10.3828C158.04 9.84505 158.801 9.57617 159.699 9.57617C160.697 9.57617 161.513 9.9043 162.146 10.5605C162.78 11.2122 163.097 12.1146 163.097 13.2676C163.097 14.2018 162.955 14.9378 162.673 15.4756C162.395 16.0088 161.987 16.4235 161.449 16.7197C160.916 17.016 160.333 17.1641 159.699 17.1641C158.683 17.1641 157.86 16.8382 157.231 16.1865C156.607 15.5348 156.295 14.596 156.295 13.3701ZM157.56 13.3701C157.56 14.2998 157.762 14.9971 158.168 15.4619C158.574 15.9222 159.084 16.1523 159.699 16.1523C160.31 16.1523 160.818 15.9199 161.224 15.4551C161.629 14.9902 161.832 14.2816 161.832 13.3291C161.832 12.4313 161.627 11.7523 161.217 11.292C160.811 10.8271 160.305 10.5947 159.699 10.5947C159.084 10.5947 158.574 10.8249 158.168 11.2852C157.762 11.7454 157.56 12.4404 157.56 13.3701ZM164.553 9.74023H167.39C168.087 9.74023 168.604 9.79948 168.941 9.91797C169.283 10.0319 169.575 10.2438 169.816 10.5537C170.062 10.8636 170.186 11.235 170.186 11.668C170.186 12.0143 170.113 12.3174 169.967 12.5771C169.826 12.8324 169.611 13.0465 169.324 13.2197C169.666 13.3337 169.949 13.5479 170.172 13.8623C170.4 14.1722 170.514 14.5413 170.514 14.9697C170.468 15.6579 170.222 16.1683 169.775 16.501C169.329 16.8337 168.679 17 167.827 17H164.553V9.74023ZM165.783 12.7959H167.096C167.62 12.7959 167.98 12.7686 168.176 12.7139C168.372 12.6592 168.547 12.5498 168.702 12.3857C168.857 12.2171 168.935 12.0166 168.935 11.7842C168.935 11.4014 168.798 11.1348 168.524 10.9844C168.256 10.834 167.793 10.7588 167.137 10.7588H165.783V12.7959ZM165.783 15.9883H167.403C168.101 15.9883 168.579 15.9085 168.839 15.749C169.099 15.585 169.235 15.3047 169.249 14.9082C169.249 14.6758 169.174 14.4616 169.023 14.2656C168.873 14.0651 168.677 13.9398 168.436 13.8896C168.194 13.835 167.807 13.8076 167.273 13.8076H165.783V15.9883Z" fill="white"/>
<path d="M105 13.5C97 19 61 28.5 47 21.5" stroke="#87A4BC" stroke-miterlimit="3.99393" stroke-linecap="round" stroke-dasharray="2 4"/>
<path d="M105 14C99 21 66.5 35 47 21.5" stroke="#87A4BC" stroke-miterlimit="3.99393" stroke-linecap="round" stroke-dasharray="2 4"/>
<g filter="url(#filter0_d_5077_52758)">
<circle cx="47" cy="21" r="3" fill="#0C99CF"/>
<circle cx="47" cy="21" r="4" stroke="white" stroke-width="2"/>
</g>
<g filter="url(#filter1_d_5077_52758)">
<circle cx="105" cy="13" r="2" fill="#0C99CF"/>
<circle cx="105" cy="13" r="2.5" stroke="white"/>
</g>
<path d="M1.02539 12V1.97852H4.78516C5.55078 1.97852 6.16374 2.08105 6.62402 2.28613C7.08887 2.48665 7.45117 2.79883 7.71094 3.22266C7.97526 3.64193 8.10742 4.08171 8.10742 4.54199C8.10742 4.97038 7.99121 5.3737 7.75879 5.75195C7.52637 6.13021 7.17546 6.43555 6.70605 6.66797C7.31217 6.8457 7.77702 7.14876 8.10059 7.57715C8.42871 8.00553 8.59277 8.51139 8.59277 9.09473C8.59277 9.56413 8.49251 10.0016 8.29199 10.4072C8.09603 10.8083 7.85221 11.1182 7.56055 11.3369C7.26888 11.5557 6.90202 11.722 6.45996 11.8359C6.02246 11.9453 5.4847 12 4.84668 12H1.02539ZM2.35156 6.18945H4.51855C5.10645 6.18945 5.52799 6.15072 5.7832 6.07324C6.12044 5.97298 6.37337 5.80664 6.54199 5.57422C6.71517 5.3418 6.80176 5.05013 6.80176 4.69922C6.80176 4.36654 6.72201 4.07487 6.5625 3.82422C6.40299 3.56901 6.17513 3.39583 5.87891 3.30469C5.58268 3.20898 5.07454 3.16113 4.35449 3.16113H2.35156V6.18945ZM2.35156 10.8174H4.84668C5.27507 10.8174 5.57585 10.8014 5.74902 10.7695C6.05436 10.7148 6.30957 10.6237 6.51465 10.4961C6.71973 10.3685 6.88835 10.1839 7.02051 9.94238C7.15267 9.69629 7.21875 9.41374 7.21875 9.09473C7.21875 8.72103 7.12305 8.39746 6.93164 8.12402C6.74023 7.84603 6.47363 7.65234 6.13184 7.54297C5.7946 7.42904 5.30697 7.37207 4.66895 7.37207H2.35156V10.8174ZM10.377 12V1.97852H12.373L14.7451 9.07422C14.9639 9.73503 15.1234 10.2295 15.2236 10.5576C15.3376 10.193 15.5153 9.65755 15.7568 8.95117L18.1562 1.97852H19.9404V12H18.6621V3.6123L15.75 12H14.5537L11.6553 3.46875V12H10.377ZM24.6299 12V3.16113H21.3281V1.97852H29.2715V3.16113H25.9561V12H24.6299ZM30.6523 1.97852H38.5342V12H37.2012V3.16113H31.9785V12H30.6523V1.97852Z" fill="white"/>
<defs>
<filter id="filter0_d_5077_52758" x="40.1634" y="15.3878" width="13.6731" height="13.6731" filterUnits="userSpaceOnUse" color-interpolation-filters="sRGB">
<feFlood flood-opacity="0" result="BackgroundImageFix"/>
<feColorMatrix in="SourceAlpha" type="matrix" values="0 0 0 0 0 0 0 0 0 0 0 0 0 0 0 0 0 0 127 0" result="hardAlpha"/>
<feOffset dy="1.22437"/>
<feGaussianBlur stdDeviation="0.918278"/>
<feColorMatrix type="matrix" values="0 0 0 0 0 0 0 0 0 0 0 0 0 0 0 0 0 0 0.2 0"/>
<feBlend mode="normal" in2="BackgroundImageFix" result="effect1_dropShadow_5077_52758"/>
<feBlend mode="normal" in="SourceGraphic" in2="effect1_dropShadow_5077_52758" result="shape"/>
</filter>
<filter id="filter1_d_5077_52758" x="100.163" y="9.38781" width="9.67311" height="9.67311" filterUnits="userSpaceOnUse" color-interpolation-filters="sRGB">
<feFlood flood-opacity="0" result="BackgroundImageFix"/>
<feColorMatrix in="SourceAlpha" type="matrix" values="0 0 0 0 0 0 0 0 0 0 0 0 0 0 0 0 0 0 127 0" result="hardAlpha"/>
<feOffset dy="1.22437"/>
<feGaussianBlur stdDeviation="0.918278"/>
<feColorMatrix type="matrix" values="0 0 0 0 0 0 0 0 0 0 0 0 0 0 0 0 0 0 0.2 0"/>
<feBlend mode="normal" in2="BackgroundImageFix" result="effect1_dropShadow_5077_52758"/>
<feBlend mode="normal" in="SourceGraphic" in2="effect1_dropShadow_5077_52758" result="shape"/>
</filter>
</defs>
</svg>
