<svg width="67" height="82" viewBox="0 0 67 82" fill="none" xmlns="http://www.w3.org/2000/svg">
<path d="M1.02539 12V1.97852H4.78516C5.55078 1.97852 6.16374 2.08105 6.62402 2.28613C7.08887 2.48665 7.45117 2.79883 7.71094 3.22266C7.97526 3.64193 8.10742 4.08171 8.10742 4.54199C8.10742 4.97038 7.99121 5.3737 7.75879 5.75195C7.52637 6.13021 7.17546 6.43555 6.70605 6.66797C7.31217 6.8457 7.77702 7.14876 8.10059 7.57715C8.42871 8.00553 8.59277 8.51139 8.59277 9.09473C8.59277 9.56413 8.49251 10.0016 8.29199 10.4072C8.09603 10.8083 7.85221 11.1182 7.56055 11.3369C7.26888 11.5557 6.90202 11.722 6.45996 11.8359C6.02246 11.9453 5.4847 12 4.84668 12H1.02539ZM2.35156 6.18945H4.51855C5.10645 6.18945 5.52799 6.15072 5.7832 6.07324C6.12044 5.97298 6.37337 5.80664 6.54199 5.57422C6.71517 5.3418 6.80176 5.05013 6.80176 4.69922C6.80176 4.36654 6.72201 4.07487 6.5625 3.82422C6.40299 3.56901 6.17513 3.39583 5.87891 3.30469C5.58268 3.20898 5.07454 3.16113 4.35449 3.16113H2.35156V6.18945ZM2.35156 10.8174H4.84668C5.27507 10.8174 5.57585 10.8014 5.74902 10.7695C6.05436 10.7148 6.30957 10.6237 6.51465 10.4961C6.71973 10.3685 6.88835 10.1839 7.02051 9.94238C7.15267 9.69629 7.21875 9.41374 7.21875 9.09473C7.21875 8.72103 7.12305 8.39746 6.93164 8.12402C6.74023 7.84603 6.47363 7.65234 6.13184 7.54297C5.7946 7.42904 5.30697 7.37207 4.66895 7.37207H2.35156V10.8174ZM10.377 12V1.97852H12.373L14.7451 9.07422C14.9639 9.73503 15.1234 10.2295 15.2236 10.5576C15.3376 10.193 15.5153 9.65755 15.7568 8.95117L18.1562 1.97852H19.9404V12H18.6621V3.6123L15.75 12H14.5537L11.6553 3.46875V12H10.377ZM24.6299 12V3.16113H21.3281V1.97852H29.2715V3.16113H25.9561V12H24.6299ZM30.6523 1.97852H38.5342V12H37.2012V3.16113H31.9785V12H30.6523V1.97852Z" fill="white"/>
<path d="M47 21.5C48.5 36.5 55 68 19.5 65" stroke="#87A4BC" stroke-miterlimit="3.99393" stroke-linecap="round" stroke-dasharray="2 4"/>
<path d="M47 21.5C45.5 48 38.5 61 19.5 65" stroke="#87A4BC" stroke-miterlimit="3.99393" stroke-linecap="round" stroke-dasharray="2 4"/>
<g filter="url(#filter0_d_5077_52645)">
<circle cx="47" cy="21" r="3" fill="#0C99CF"/>
<circle cx="47" cy="21" r="4" stroke="white" stroke-width="2"/>
</g>
<path d="M28.0938 68.9785H35.9756V79H34.6426V70.1611H29.4199V79H28.0938V68.9785ZM37.9307 81.7959L37.7939 80.6406C38.0628 80.7135 38.2975 80.75 38.498 80.75C38.7715 80.75 38.9902 80.7044 39.1543 80.6133C39.3184 80.5221 39.4528 80.3945 39.5576 80.2305C39.6351 80.1074 39.7604 79.8021 39.9336 79.3145C39.9564 79.2461 39.9928 79.1458 40.043 79.0137L37.2881 71.7402H38.6143L40.125 75.9443C40.321 76.4775 40.4964 77.0381 40.6514 77.626C40.7926 77.0609 40.9613 76.5094 41.1572 75.9717L42.709 71.7402H43.9395L41.1777 79.123C40.8815 79.9206 40.6514 80.4697 40.4873 80.7705C40.2686 81.1761 40.0179 81.4723 39.7354 81.6592C39.4528 81.8506 39.1156 81.9463 38.7236 81.9463C38.4867 81.9463 38.2223 81.8962 37.9307 81.7959ZM49.5586 76.3408L50.7686 76.498C50.6364 77.332 50.2969 77.986 49.75 78.46C49.2077 78.9294 48.54 79.1641 47.7471 79.1641C46.7536 79.1641 45.9538 78.8405 45.3477 78.1934C44.7461 77.5417 44.4453 76.6097 44.4453 75.3975C44.4453 74.6136 44.5752 73.9277 44.835 73.3398C45.0947 72.752 45.4889 72.3122 46.0176 72.0205C46.5508 71.7243 47.1296 71.5762 47.7539 71.5762C48.5423 71.5762 49.1872 71.7767 49.6885 72.1777C50.1898 72.5742 50.5111 73.1393 50.6523 73.873L49.4561 74.0576C49.3421 73.57 49.1393 73.2031 48.8477 72.957C48.5605 72.7109 48.2119 72.5879 47.8018 72.5879C47.182 72.5879 46.6784 72.8112 46.291 73.2578C45.9036 73.6999 45.71 74.4017 45.71 75.3633C45.71 76.3385 45.8968 77.0472 46.2705 77.4893C46.6442 77.9313 47.1318 78.1523 47.7334 78.1523C48.2165 78.1523 48.6198 78.0042 48.9434 77.708C49.2669 77.4118 49.472 76.9561 49.5586 76.3408ZM56.5586 78.1045C56.1029 78.4919 55.6631 78.7653 55.2393 78.9248C54.82 79.0843 54.3688 79.1641 53.8857 79.1641C53.0882 79.1641 52.4753 78.9704 52.0469 78.583C51.6185 78.1911 51.4043 77.6921 51.4043 77.0859C51.4043 76.7305 51.484 76.4069 51.6436 76.1152C51.8076 75.819 52.0195 75.582 52.2793 75.4043C52.5436 75.2266 52.8398 75.0921 53.168 75.001C53.4095 74.9372 53.7741 74.8757 54.2617 74.8164C55.2552 74.6979 55.9867 74.5566 56.4561 74.3926C56.4606 74.224 56.4629 74.1169 56.4629 74.0713C56.4629 73.57 56.3467 73.2168 56.1143 73.0117C55.7998 72.7337 55.3327 72.5947 54.7129 72.5947C54.1341 72.5947 53.7057 72.6973 53.4277 72.9023C53.1543 73.1029 52.9515 73.4606 52.8193 73.9756L51.6162 73.8115C51.7256 73.2965 51.9056 72.8818 52.1562 72.5674C52.4069 72.2484 52.7692 72.0046 53.2432 71.8359C53.7171 71.6628 54.2663 71.5762 54.8906 71.5762C55.5104 71.5762 56.014 71.6491 56.4014 71.7949C56.7887 71.9408 57.0736 72.1253 57.2559 72.3486C57.4382 72.5674 57.5658 72.8454 57.6387 73.1826C57.6797 73.3923 57.7002 73.7705 57.7002 74.3174V75.958C57.7002 77.1019 57.7253 77.8265 57.7754 78.1318C57.8301 78.4326 57.9349 78.722 58.0898 79H56.8047C56.6771 78.7448 56.5951 78.4463 56.5586 78.1045ZM56.4561 75.3564C56.0094 75.5387 55.3395 75.6937 54.4463 75.8213C53.9404 75.8942 53.5827 75.9762 53.373 76.0674C53.1634 76.1585 53.0016 76.293 52.8877 76.4707C52.7738 76.6439 52.7168 76.8376 52.7168 77.0518C52.7168 77.3799 52.8398 77.6533 53.0859 77.8721C53.3366 78.0908 53.7012 78.2002 54.1797 78.2002C54.6536 78.2002 55.0752 78.0977 55.4443 77.8926C55.8135 77.6829 56.0846 77.3981 56.2578 77.0381C56.39 76.7601 56.4561 76.3499 56.4561 75.8076V75.3564ZM59.6211 71.7402H60.8516V74.7617H64.2627V71.7402H65.4932V79H64.2627V75.7803H60.8516V79H59.6211V71.7402Z" fill="white"/>
<g filter="url(#filter1_d_5077_52645)">
<circle cx="19" cy="65" r="2" fill="#0C99CF"/>
<circle cx="19" cy="65" r="2.5" stroke="white"/>
</g>
<defs>
<filter id="filter0_d_5077_52645" x="40.1634" y="15.3878" width="13.6731" height="13.6731" filterUnits="userSpaceOnUse" color-interpolation-filters="sRGB">
<feFlood flood-opacity="0" result="BackgroundImageFix"/>
<feColorMatrix in="SourceAlpha" type="matrix" values="0 0 0 0 0 0 0 0 0 0 0 0 0 0 0 0 0 0 127 0" result="hardAlpha"/>
<feOffset dy="1.22437"/>
<feGaussianBlur stdDeviation="0.918278"/>
<feColorMatrix type="matrix" values="0 0 0 0 0 0 0 0 0 0 0 0 0 0 0 0 0 0 0.2 0"/>
<feBlend mode="normal" in2="BackgroundImageFix" result="effect1_dropShadow_5077_52645"/>
<feBlend mode="normal" in="SourceGraphic" in2="effect1_dropShadow_5077_52645" result="shape"/>
</filter>
<filter id="filter1_d_5077_52645" x="14.1634" y="61.3878" width="9.67311" height="9.67311" filterUnits="userSpaceOnUse" color-interpolation-filters="sRGB">
<feFlood flood-opacity="0" result="BackgroundImageFix"/>
<feColorMatrix in="SourceAlpha" type="matrix" values="0 0 0 0 0 0 0 0 0 0 0 0 0 0 0 0 0 0 127 0" result="hardAlpha"/>
<feOffset dy="1.22437"/>
<feGaussianBlur stdDeviation="0.918278"/>
<feColorMatrix type="matrix" values="0 0 0 0 0 0 0 0 0 0 0 0 0 0 0 0 0 0 0.2 0"/>
<feBlend mode="normal" in2="BackgroundImageFix" result="effect1_dropShadow_5077_52645"/>
<feBlend mode="normal" in="SourceGraphic" in2="effect1_dropShadow_5077_52645" result="shape"/>
</filter>
</defs>
</svg>
