<svg width="164" height="87" viewBox="0 0 164 87" fill="none" xmlns="http://www.w3.org/2000/svg">
<path d="M1.10059 15.9785H2.42676V20.3672C3.03288 20.3672 3.45898 20.251 3.70508 20.0186C3.95117 19.7816 4.26562 19.2165 4.64844 18.3232C4.92643 17.667 5.1543 17.2044 5.33203 16.9355C5.51432 16.6621 5.77181 16.4342 6.10449 16.252C6.43717 16.0651 6.80404 15.9717 7.20508 15.9717C7.71549 15.9717 7.98438 15.9762 8.01172 15.9854V17.1338C7.96615 17.1338 7.87728 17.1315 7.74512 17.127C7.59928 17.1224 7.51042 17.1201 7.47852 17.1201C7.05469 17.1201 6.74023 17.2227 6.53516 17.4277C6.32552 17.6328 6.08626 18.0703 5.81738 18.7402C5.48014 19.5879 5.19531 20.1234 4.96289 20.3467C4.73047 20.5654 4.45247 20.7409 4.12891 20.873C4.77604 21.0508 5.41406 21.6478 6.04297 22.6641L8.10742 26H6.45996L4.78516 23.2793C4.32487 22.5273 3.93978 22.0124 3.62988 21.7344C3.31999 21.4518 2.91895 21.3105 2.42676 21.3105V26H1.10059V15.9785ZM13.8223 23.3408L15.0322 23.498C14.9001 24.332 14.5605 24.986 14.0137 25.46C13.4714 25.9294 12.8037 26.1641 12.0107 26.1641C11.0173 26.1641 10.2174 25.8405 9.61133 25.1934C9.00977 24.5417 8.70898 23.6097 8.70898 22.3975C8.70898 21.6136 8.83887 20.9277 9.09863 20.3398C9.3584 19.752 9.7526 19.3122 10.2812 19.0205C10.8145 18.7243 11.3932 18.5762 12.0176 18.5762C12.806 18.5762 13.4508 18.7767 13.9521 19.1777C14.4535 19.5742 14.7747 20.1393 14.916 20.873L13.7197 21.0576C13.6058 20.57 13.403 20.2031 13.1113 19.957C12.8242 19.7109 12.4756 19.5879 12.0654 19.5879C11.4456 19.5879 10.9421 19.8112 10.5547 20.2578C10.1673 20.6999 9.97363 21.4017 9.97363 22.3633C9.97363 23.3385 10.1605 24.0472 10.5342 24.4893C10.9079 24.9313 11.3955 25.1523 11.9971 25.1523C12.4801 25.1523 12.8835 25.0042 13.207 24.708C13.5306 24.4118 13.7357 23.9561 13.8223 23.3408ZM16.085 18.7402H17.3154V24.2773L20.7266 18.7402H22.0527V26H20.8223V20.4971L17.4111 26H16.085V18.7402ZM23.9121 18.7402H25.1426V21.7617H28.5537V18.7402H29.7842V26H28.5537V22.7803H25.1426V26H23.9121V18.7402ZM31.6504 18.7402H35.8271V19.7588H32.8809V26H31.6504V18.7402ZM41.1797 25.1045C40.724 25.4919 40.2842 25.7653 39.8604 25.9248C39.4411 26.0843 38.9899 26.1641 38.5068 26.1641C37.7093 26.1641 37.0964 25.9704 36.668 25.583C36.2396 25.1911 36.0254 24.6921 36.0254 24.0859C36.0254 23.7305 36.1051 23.4069 36.2646 23.1152C36.4287 22.819 36.6406 22.582 36.9004 22.4043C37.1647 22.2266 37.4609 22.0921 37.7891 22.001C38.0306 21.9372 38.3952 21.8757 38.8828 21.8164C39.8763 21.6979 40.6077 21.5566 41.0771 21.3926C41.0817 21.224 41.084 21.1169 41.084 21.0713C41.084 20.57 40.9678 20.2168 40.7354 20.0117C40.4209 19.7337 39.9538 19.5947 39.334 19.5947C38.7552 19.5947 38.3268 19.6973 38.0488 19.9023C37.7754 20.1029 37.5726 20.4606 37.4404 20.9756L36.2373 20.8115C36.3467 20.2965 36.5267 19.8818 36.7773 19.5674C37.028 19.2484 37.3903 19.0046 37.8643 18.8359C38.3382 18.6628 38.8874 18.5762 39.5117 18.5762C40.1315 18.5762 40.6351 18.6491 41.0225 18.7949C41.4098 18.9408 41.6947 19.1253 41.877 19.3486C42.0592 19.5674 42.1868 19.8454 42.2598 20.1826C42.3008 20.3923 42.3213 20.7705 42.3213 21.3174V22.958C42.3213 24.1019 42.3464 24.8265 42.3965 25.1318C42.4512 25.4326 42.556 25.722 42.7109 26H41.4258C41.2982 25.7448 41.2161 25.4463 41.1797 25.1045ZM41.0771 22.3564C40.6305 22.5387 39.9606 22.6937 39.0674 22.8213C38.5615 22.8942 38.2038 22.9762 37.9941 23.0674C37.7845 23.1585 37.6227 23.293 37.5088 23.4707C37.3949 23.6439 37.3379 23.8376 37.3379 24.0518C37.3379 24.3799 37.4609 24.6533 37.707 24.8721C37.9577 25.0908 38.3223 25.2002 38.8008 25.2002C39.2747 25.2002 39.6963 25.0977 40.0654 24.8926C40.4346 24.6829 40.7057 24.3981 40.8789 24.0381C41.0111 23.7601 41.0771 23.3499 41.0771 22.8076V22.3564ZM44.2422 18.7402H45.4727V21.7617H48.8838V18.7402H50.1143V26H48.8838V22.7803H45.4727V26H44.2422V18.7402ZM51.9805 18.7402H56.1572V19.7588H53.2109V26H51.9805V18.7402Z" fill="white"/>
<path d="M98.0254 12V1.97852H101.785C102.551 1.97852 103.164 2.08105 103.624 2.28613C104.089 2.48665 104.451 2.79883 104.711 3.22266C104.975 3.64193 105.107 4.08171 105.107 4.54199C105.107 4.97038 104.991 5.3737 104.759 5.75195C104.526 6.13021 104.175 6.43555 103.706 6.66797C104.312 6.8457 104.777 7.14876 105.101 7.57715C105.429 8.00553 105.593 8.51139 105.593 9.09473C105.593 9.56413 105.493 10.0016 105.292 10.4072C105.096 10.8083 104.852 11.1182 104.561 11.3369C104.269 11.5557 103.902 11.722 103.46 11.8359C103.022 11.9453 102.485 12 101.847 12H98.0254ZM99.3516 6.18945H101.519C102.106 6.18945 102.528 6.15072 102.783 6.07324C103.12 5.97298 103.373 5.80664 103.542 5.57422C103.715 5.3418 103.802 5.05013 103.802 4.69922C103.802 4.36654 103.722 4.07487 103.562 3.82422C103.403 3.56901 103.175 3.39583 102.879 3.30469C102.583 3.20898 102.075 3.16113 101.354 3.16113H99.3516V6.18945ZM99.3516 10.8174H101.847C102.275 10.8174 102.576 10.8014 102.749 10.7695C103.054 10.7148 103.31 10.6237 103.515 10.4961C103.72 10.3685 103.888 10.1839 104.021 9.94238C104.153 9.69629 104.219 9.41374 104.219 9.09473C104.219 8.72103 104.123 8.39746 103.932 8.12402C103.74 7.84603 103.474 7.65234 103.132 7.54297C102.795 7.42904 102.307 7.37207 101.669 7.37207H99.3516V10.8174ZM107.377 12V1.97852H109.373L111.745 9.07422C111.964 9.73503 112.123 10.2295 112.224 10.5576C112.338 10.193 112.515 9.65755 112.757 8.95117L115.156 1.97852H116.94V12H115.662V3.6123L112.75 12H111.554L108.655 3.46875V12H107.377ZM121.63 12V3.16113H118.328V1.97852H126.271V3.16113H122.956V12H121.63ZM127.652 1.97852H135.534V12H134.201V3.16113H128.979V12H127.652V1.97852Z" fill="white"/>
<path d="M144 21.5C153.332 36.7071 137.884 100.692 102.5 83C78.5 71 98.4208 48.7268 85 39.5C77 34 67 30.5 64.5 23.5" stroke="#87A4BC" stroke-miterlimit="3.99393" stroke-linecap="round" stroke-dasharray="2 4"/>
<path d="M116.5 65C121 76.5 115 82.9359 105.5 80.5C86 75.5 101 49 89 36.5C82.2767 29.4966 67 30.5 64.5 23.5" stroke="#87A4BC" stroke-miterlimit="3.99393" stroke-linecap="round" stroke-dasharray="2 4"/>
<path d="M144 21.5C145.5 46.5 133 60 116.5 65" stroke="#87A4BC" stroke-miterlimit="3.99393" stroke-linecap="round" stroke-dasharray="2 4"/>
<g filter="url(#filter0_d_5077_52766)">
<circle cx="64" cy="23" r="2" fill="#0C99CF"/>
<circle cx="64" cy="23" r="2.5" stroke="white"/>
</g>
<g filter="url(#filter1_d_5077_52766)">
<circle cx="144" cy="21" r="3" fill="#0C99CF"/>
<circle cx="144" cy="21" r="4" stroke="white" stroke-width="2"/>
</g>
<path d="M125.094 68.9785H132.976V79H131.643V70.1611H126.42V79H125.094V68.9785ZM134.931 81.7959L134.794 80.6406C135.063 80.7135 135.298 80.75 135.498 80.75C135.771 80.75 135.99 80.7044 136.154 80.6133C136.318 80.5221 136.453 80.3945 136.558 80.2305C136.635 80.1074 136.76 79.8021 136.934 79.3145C136.956 79.2461 136.993 79.1458 137.043 79.0137L134.288 71.7402H135.614L137.125 75.9443C137.321 76.4775 137.496 77.0381 137.651 77.626C137.793 77.0609 137.961 76.5094 138.157 75.9717L139.709 71.7402H140.939L138.178 79.123C137.882 79.9206 137.651 80.4697 137.487 80.7705C137.269 81.1761 137.018 81.4723 136.735 81.6592C136.453 81.8506 136.116 81.9463 135.724 81.9463C135.487 81.9463 135.222 81.8962 134.931 81.7959ZM146.559 76.3408L147.769 76.498C147.636 77.332 147.297 77.986 146.75 78.46C146.208 78.9294 145.54 79.1641 144.747 79.1641C143.754 79.1641 142.954 78.8405 142.348 78.1934C141.746 77.5417 141.445 76.6097 141.445 75.3975C141.445 74.6136 141.575 73.9277 141.835 73.3398C142.095 72.752 142.489 72.3122 143.018 72.0205C143.551 71.7243 144.13 71.5762 144.754 71.5762C145.542 71.5762 146.187 71.7767 146.688 72.1777C147.19 72.5742 147.511 73.1393 147.652 73.873L146.456 74.0576C146.342 73.57 146.139 73.2031 145.848 72.957C145.561 72.7109 145.212 72.5879 144.802 72.5879C144.182 72.5879 143.678 72.8112 143.291 73.2578C142.904 73.6999 142.71 74.4017 142.71 75.3633C142.71 76.3385 142.897 77.0472 143.271 77.4893C143.644 77.9313 144.132 78.1523 144.733 78.1523C145.216 78.1523 145.62 78.0042 145.943 77.708C146.267 77.4118 146.472 76.9561 146.559 76.3408ZM153.559 78.1045C153.103 78.4919 152.663 78.7653 152.239 78.9248C151.82 79.0843 151.369 79.1641 150.886 79.1641C150.088 79.1641 149.475 78.9704 149.047 78.583C148.618 78.1911 148.404 77.6921 148.404 77.0859C148.404 76.7305 148.484 76.4069 148.644 76.1152C148.808 75.819 149.02 75.582 149.279 75.4043C149.544 75.2266 149.84 75.0921 150.168 75.001C150.41 74.9372 150.774 74.8757 151.262 74.8164C152.255 74.6979 152.987 74.5566 153.456 74.3926C153.461 74.224 153.463 74.1169 153.463 74.0713C153.463 73.57 153.347 73.2168 153.114 73.0117C152.8 72.7337 152.333 72.5947 151.713 72.5947C151.134 72.5947 150.706 72.6973 150.428 72.9023C150.154 73.1029 149.951 73.4606 149.819 73.9756L148.616 73.8115C148.726 73.2965 148.906 72.8818 149.156 72.5674C149.407 72.2484 149.769 72.0046 150.243 71.8359C150.717 71.6628 151.266 71.5762 151.891 71.5762C152.51 71.5762 153.014 71.6491 153.401 71.7949C153.789 71.9408 154.074 72.1253 154.256 72.3486C154.438 72.5674 154.566 72.8454 154.639 73.1826C154.68 73.3923 154.7 73.7705 154.7 74.3174V75.958C154.7 77.1019 154.725 77.8265 154.775 78.1318C154.83 78.4326 154.935 78.722 155.09 79H153.805C153.677 78.7448 153.595 78.4463 153.559 78.1045ZM153.456 75.3564C153.009 75.5387 152.34 75.6937 151.446 75.8213C150.94 75.8942 150.583 75.9762 150.373 76.0674C150.163 76.1585 150.002 76.293 149.888 76.4707C149.774 76.6439 149.717 76.8376 149.717 77.0518C149.717 77.3799 149.84 77.6533 150.086 77.8721C150.337 78.0908 150.701 78.2002 151.18 78.2002C151.654 78.2002 152.075 78.0977 152.444 77.8926C152.813 77.6829 153.085 77.3981 153.258 77.0381C153.39 76.7601 153.456 76.3499 153.456 75.8076V75.3564ZM156.621 71.7402H157.852V74.7617H161.263V71.7402H162.493V79H161.263V75.7803H157.852V79H156.621V71.7402Z" fill="white"/>
<g filter="url(#filter2_d_5077_52766)">
<circle cx="116" cy="65" r="2" fill="#0C99CF"/>
<circle cx="116" cy="65" r="2.5" stroke="white"/>
</g>
<defs>
<filter id="filter0_d_5077_52766" x="59.1634" y="19.3878" width="9.67311" height="9.67311" filterUnits="userSpaceOnUse" color-interpolation-filters="sRGB">
<feFlood flood-opacity="0" result="BackgroundImageFix"/>
<feColorMatrix in="SourceAlpha" type="matrix" values="0 0 0 0 0 0 0 0 0 0 0 0 0 0 0 0 0 0 127 0" result="hardAlpha"/>
<feOffset dy="1.22437"/>
<feGaussianBlur stdDeviation="0.918278"/>
<feColorMatrix type="matrix" values="0 0 0 0 0 0 0 0 0 0 0 0 0 0 0 0 0 0 0.2 0"/>
<feBlend mode="normal" in2="BackgroundImageFix" result="effect1_dropShadow_5077_52766"/>
<feBlend mode="normal" in="SourceGraphic" in2="effect1_dropShadow_5077_52766" result="shape"/>
</filter>
<filter id="filter1_d_5077_52766" x="137.163" y="15.3878" width="13.6731" height="13.6731" filterUnits="userSpaceOnUse" color-interpolation-filters="sRGB">
<feFlood flood-opacity="0" result="BackgroundImageFix"/>
<feColorMatrix in="SourceAlpha" type="matrix" values="0 0 0 0 0 0 0 0 0 0 0 0 0 0 0 0 0 0 127 0" result="hardAlpha"/>
<feOffset dy="1.22437"/>
<feGaussianBlur stdDeviation="0.918278"/>
<feColorMatrix type="matrix" values="0 0 0 0 0 0 0 0 0 0 0 0 0 0 0 0 0 0 0.2 0"/>
<feBlend mode="normal" in2="BackgroundImageFix" result="effect1_dropShadow_5077_52766"/>
<feBlend mode="normal" in="SourceGraphic" in2="effect1_dropShadow_5077_52766" result="shape"/>
</filter>
<filter id="filter2_d_5077_52766" x="111.163" y="61.3878" width="9.67311" height="9.67311" filterUnits="userSpaceOnUse" color-interpolation-filters="sRGB">
<feFlood flood-opacity="0" result="BackgroundImageFix"/>
<feColorMatrix in="SourceAlpha" type="matrix" values="0 0 0 0 0 0 0 0 0 0 0 0 0 0 0 0 0 0 127 0" result="hardAlpha"/>
<feOffset dy="1.22437"/>
<feGaussianBlur stdDeviation="0.918278"/>
<feColorMatrix type="matrix" values="0 0 0 0 0 0 0 0 0 0 0 0 0 0 0 0 0 0 0.2 0"/>
<feBlend mode="normal" in2="BackgroundImageFix" result="effect1_dropShadow_5077_52766"/>
<feBlend mode="normal" in="SourceGraphic" in2="effect1_dropShadow_5077_52766" result="shape"/>
</filter>
</defs>
</svg>
