<svg width="143" height="93" viewBox="0 0 143 93" fill="none" xmlns="http://www.w3.org/2000/svg">
<path d="M1.08691 31.9785H2.41309V40.8174H7.63574V31.9785H8.96875V40.8174H9.88477V44.7822H8.70898V42H1.08691V31.9785ZM11.2861 34.7402H12.5166V40.2773L15.9277 34.7402H17.2539V42H16.0234V36.4971L12.6123 42H11.2861V34.7402ZM19.1133 34.7402H20.3438V37.7617H23.7549V34.7402H24.9854V42H23.7549V38.7803H20.3438V42H19.1133V34.7402ZM27.8154 34.7402H32.874V40.9883H33.6602V44.0576H32.6484V42H26.9336V44.0576H25.9219V40.9883H26.5713C27.4372 39.8125 27.8519 37.7298 27.8154 34.7402ZM28.8408 35.7588C28.7497 38.1149 28.3851 39.8581 27.7471 40.9883H31.6504V35.7588H28.8408ZM39.7578 41.1045C39.3021 41.4919 38.8623 41.7653 38.4385 41.9248C38.0192 42.0843 37.568 42.1641 37.085 42.1641C36.2874 42.1641 35.6745 41.9704 35.2461 41.583C34.8177 41.1911 34.6035 40.6921 34.6035 40.0859C34.6035 39.7305 34.6833 39.4069 34.8428 39.1152C35.0068 38.819 35.2188 38.582 35.4785 38.4043C35.7428 38.2266 36.0391 38.0921 36.3672 38.001C36.6087 37.9372 36.9733 37.8757 37.4609 37.8164C38.4544 37.6979 39.1859 37.5566 39.6553 37.3926C39.6598 37.224 39.6621 37.1169 39.6621 37.0713C39.6621 36.57 39.5459 36.2168 39.3135 36.0117C38.999 35.7337 38.5319 35.5947 37.9121 35.5947C37.3333 35.5947 36.9049 35.6973 36.627 35.9023C36.3535 36.1029 36.1507 36.4606 36.0186 36.9756L34.8154 36.8115C34.9248 36.2965 35.1048 35.8818 35.3555 35.5674C35.6061 35.2484 35.9684 35.0046 36.4424 34.8359C36.9163 34.6628 37.4655 34.5762 38.0898 34.5762C38.7096 34.5762 39.2132 34.6491 39.6006 34.7949C39.988 34.9408 40.2728 35.1253 40.4551 35.3486C40.6374 35.5674 40.765 35.8454 40.8379 36.1826C40.8789 36.3923 40.8994 36.7705 40.8994 37.3174V38.958C40.8994 40.1019 40.9245 40.8265 40.9746 41.1318C41.0293 41.4326 41.1341 41.722 41.2891 42H40.0039C39.8763 41.7448 39.7943 41.4463 39.7578 41.1045ZM39.6553 38.3564C39.2087 38.5387 38.5387 38.6937 37.6455 38.8213C37.1396 38.8942 36.7819 38.9762 36.5723 39.0674C36.3626 39.1585 36.2008 39.293 36.0869 39.4707C35.973 39.6439 35.916 39.8376 35.916 40.0518C35.916 40.3799 36.0391 40.6533 36.2852 40.8721C36.5358 41.0908 36.9004 41.2002 37.3789 41.2002C37.8529 41.2002 38.2744 41.0977 38.6436 40.8926C39.0127 40.6829 39.2839 40.3981 39.457 40.0381C39.5892 39.7601 39.6553 39.3499 39.6553 38.8076V38.3564ZM42.3555 38.3701C42.3555 37.0257 42.7292 36.0299 43.4766 35.3828C44.1009 34.8451 44.862 34.5762 45.7598 34.5762C46.7578 34.5762 47.5736 34.9043 48.207 35.5605C48.8405 36.2122 49.1572 37.1146 49.1572 38.2676C49.1572 39.2018 49.016 39.9378 48.7334 40.4756C48.4554 41.0088 48.0475 41.4235 47.5098 41.7197C46.9766 42.016 46.3932 42.1641 45.7598 42.1641C44.7435 42.1641 43.9209 41.8382 43.292 41.1865C42.6676 40.5348 42.3555 39.596 42.3555 38.3701ZM43.6201 38.3701C43.6201 39.2998 43.8229 39.9971 44.2285 40.4619C44.6341 40.9222 45.1445 41.1523 45.7598 41.1523C46.3704 41.1523 46.8786 40.9199 47.2842 40.4551C47.6898 39.9902 47.8926 39.2816 47.8926 38.3291C47.8926 37.4313 47.6875 36.7523 47.2773 36.292C46.8717 35.8271 46.3659 35.5947 45.7598 35.5947C45.1445 35.5947 44.6341 35.8249 44.2285 36.2852C43.8229 36.7454 43.6201 37.4404 43.6201 38.3701Z" fill="white"/>
<path d="M21.1006 80.9785H22.4268V85.3672C23.0329 85.3672 23.459 85.251 23.7051 85.0186C23.9512 84.7816 24.2656 84.2165 24.6484 83.3232C24.9264 82.667 25.1543 82.2044 25.332 81.9355C25.5143 81.6621 25.7718 81.4342 26.1045 81.252C26.4372 81.0651 26.804 80.9717 27.2051 80.9717C27.7155 80.9717 27.9844 80.9762 28.0117 80.9854V82.1338C27.9661 82.1338 27.8773 82.1315 27.7451 82.127C27.5993 82.1224 27.5104 82.1201 27.4785 82.1201C27.0547 82.1201 26.7402 82.2227 26.5352 82.4277C26.3255 82.6328 26.0863 83.0703 25.8174 83.7402C25.4801 84.5879 25.1953 85.1234 24.9629 85.3467C24.7305 85.5654 24.4525 85.7409 24.1289 85.873C24.776 86.0508 25.4141 86.6478 26.043 87.6641L28.1074 91H26.46L24.7852 88.2793C24.3249 87.5273 23.9398 87.0124 23.6299 86.7344C23.32 86.4518 22.9189 86.3105 22.4268 86.3105V91H21.1006V80.9785ZM29.0918 83.7402H31.9287C32.626 83.7402 33.1432 83.7995 33.4805 83.918C33.8223 84.0319 34.1139 84.2438 34.3555 84.5537C34.6016 84.8636 34.7246 85.235 34.7246 85.668C34.7246 86.0143 34.6517 86.3174 34.5059 86.5771C34.3646 86.8324 34.1504 87.0465 33.8633 87.2197C34.2051 87.3337 34.4876 87.5479 34.7109 87.8623C34.9388 88.1722 35.0527 88.5413 35.0527 88.9697C35.0072 89.6579 34.7611 90.1683 34.3145 90.501C33.8678 90.8337 33.2184 91 32.3662 91H29.0918V83.7402ZM30.3223 86.7959H31.6348C32.1589 86.7959 32.5189 86.7686 32.7148 86.7139C32.9108 86.6592 33.0863 86.5498 33.2412 86.3857C33.3962 86.2171 33.4736 86.0166 33.4736 85.7842C33.4736 85.4014 33.3369 85.1348 33.0635 84.9844C32.7946 84.834 32.332 84.7588 31.6758 84.7588H30.3223V86.7959ZM30.3223 89.9883H31.9424C32.6396 89.9883 33.1182 89.9085 33.3779 89.749C33.6377 89.585 33.7744 89.3047 33.7881 88.9082C33.7881 88.6758 33.7129 88.4616 33.5625 88.2656C33.4121 88.0651 33.2161 87.9398 32.9746 87.8896C32.7331 87.835 32.3457 87.8076 31.8125 87.8076H30.3223V89.9883ZM41.0957 90.1045C40.64 90.4919 40.2002 90.7653 39.7764 90.9248C39.3571 91.0843 38.9059 91.1641 38.4229 91.1641C37.6253 91.1641 37.0124 90.9704 36.584 90.583C36.1556 90.1911 35.9414 89.6921 35.9414 89.0859C35.9414 88.7305 36.0212 88.4069 36.1807 88.1152C36.3447 87.819 36.5566 87.582 36.8164 87.4043C37.0807 87.2266 37.377 87.0921 37.7051 87.001C37.9466 86.9372 38.3112 86.8757 38.7988 86.8164C39.7923 86.6979 40.5238 86.5566 40.9932 86.3926C40.9977 86.224 41 86.1169 41 86.0713C41 85.57 40.8838 85.2168 40.6514 85.0117C40.3369 84.7337 39.8698 84.5947 39.25 84.5947C38.6712 84.5947 38.2428 84.6973 37.9648 84.9023C37.6914 85.1029 37.4886 85.4606 37.3564 85.9756L36.1533 85.8115C36.2627 85.2965 36.4427 84.8818 36.6934 84.5674C36.944 84.2484 37.3063 84.0046 37.7803 83.8359C38.2542 83.6628 38.8034 83.5762 39.4277 83.5762C40.0475 83.5762 40.5511 83.6491 40.9385 83.7949C41.3258 83.9408 41.6107 84.1253 41.793 84.3486C41.9753 84.5674 42.1029 84.8454 42.1758 85.1826C42.2168 85.3923 42.2373 85.7705 42.2373 86.3174V87.958C42.2373 89.1019 42.2624 89.8265 42.3125 90.1318C42.3672 90.4326 42.472 90.722 42.627 91H41.3418C41.2142 90.7448 41.1322 90.4463 41.0957 90.1045ZM40.9932 87.3564C40.5465 87.5387 39.8766 87.6937 38.9834 87.8213C38.4775 87.8942 38.1198 87.9762 37.9102 88.0674C37.7005 88.1585 37.5387 88.293 37.4248 88.4707C37.3109 88.6439 37.2539 88.8376 37.2539 89.0518C37.2539 89.3799 37.377 89.6533 37.623 89.8721C37.8737 90.0908 38.2383 90.2002 38.7168 90.2002C39.1908 90.2002 39.6123 90.0977 39.9814 89.8926C40.3506 89.6829 40.6217 89.3981 40.7949 89.0381C40.9271 88.7601 40.9932 88.3499 40.9932 87.8076V87.3564ZM44.1582 83.7402H45.3887V86.7617H48.7998V83.7402H50.0303V91H48.7998V87.7803H45.3887V91H44.1582V83.7402ZM51.2402 83.7402H54.4873V86.5771H56.0527C57.1602 86.5771 57.9645 86.7936 58.4658 87.2266C58.9671 87.6549 59.2178 88.1813 59.2178 88.8057C59.2178 89.4528 58.974 89.9814 58.4863 90.3916C58.0033 90.7972 57.2878 91 56.3398 91H53.2568V84.7588H51.2402V83.7402ZM54.4873 90.002H55.7793C56.5632 90.002 57.1191 89.9085 57.4473 89.7217C57.7754 89.5303 57.9395 89.2249 57.9395 88.8057C57.9395 88.4229 57.7982 88.1266 57.5156 87.917C57.2376 87.7074 56.7135 87.6025 55.9434 87.6025H54.4873V90.002ZM66.3545 83.7402V91H65.1309V88.1699H64.4199C63.987 88.1699 63.6634 88.2269 63.4492 88.3408C63.2396 88.4502 62.932 88.8079 62.5264 89.4141L61.4531 91H59.9287L61.2549 89.0449C61.6605 88.4479 62.0638 88.1107 62.4648 88.0332C61.763 87.9375 61.2412 87.6846 60.8994 87.2744C60.5622 86.8643 60.3936 86.3926 60.3936 85.8594C60.3936 85.2305 60.6146 84.7201 61.0566 84.3281C61.5033 83.9362 62.1481 83.7402 62.9912 83.7402H66.3545ZM65.1309 84.7588H63.3809C62.6471 84.7588 62.1732 84.8727 61.959 85.1006C61.7493 85.3285 61.6445 85.5951 61.6445 85.9004C61.6445 86.3333 61.7995 86.6523 62.1094 86.8574C62.4238 87.0579 62.9775 87.1582 63.7705 87.1582H65.1309V84.7588ZM68.2344 83.7402H69.4648V86.7617H72.876V83.7402H74.1064V91H72.876V87.7803H69.4648V91H68.2344V83.7402Z" fill="white"/>
<path d="M77.0254 12V1.97852H80.7852C81.5508 1.97852 82.1637 2.08105 82.624 2.28613C83.0889 2.48665 83.4512 2.79883 83.7109 3.22266C83.9753 3.64193 84.1074 4.08171 84.1074 4.54199C84.1074 4.97038 83.9912 5.3737 83.7588 5.75195C83.5264 6.13021 83.1755 6.43555 82.7061 6.66797C83.3122 6.8457 83.777 7.14876 84.1006 7.57715C84.4287 8.00553 84.5928 8.51139 84.5928 9.09473C84.5928 9.56413 84.4925 10.0016 84.292 10.4072C84.096 10.8083 83.8522 11.1182 83.5605 11.3369C83.2689 11.5557 82.902 11.722 82.46 11.8359C82.0225 11.9453 81.4847 12 80.8467 12H77.0254ZM78.3516 6.18945H80.5186C81.1064 6.18945 81.528 6.15072 81.7832 6.07324C82.1204 5.97298 82.3734 5.80664 82.542 5.57422C82.7152 5.3418 82.8018 5.05013 82.8018 4.69922C82.8018 4.36654 82.722 4.07487 82.5625 3.82422C82.403 3.56901 82.1751 3.39583 81.8789 3.30469C81.5827 3.20898 81.0745 3.16113 80.3545 3.16113H78.3516V6.18945ZM78.3516 10.8174H80.8467C81.2751 10.8174 81.5758 10.8014 81.749 10.7695C82.0544 10.7148 82.3096 10.6237 82.5146 10.4961C82.7197 10.3685 82.8883 10.1839 83.0205 9.94238C83.1527 9.69629 83.2188 9.41374 83.2188 9.09473C83.2188 8.72103 83.123 8.39746 82.9316 8.12402C82.7402 7.84603 82.4736 7.65234 82.1318 7.54297C81.7946 7.42904 81.307 7.37207 80.6689 7.37207H78.3516V10.8174ZM86.377 12V1.97852H88.373L90.7451 9.07422C90.9639 9.73503 91.1234 10.2295 91.2236 10.5576C91.3376 10.193 91.5153 9.65755 91.7568 8.95117L94.1562 1.97852H95.9404V12H94.6621V3.6123L91.75 12H90.5537L87.6553 3.46875V12H86.377ZM100.63 12V3.16113H97.3281V1.97852H105.271V3.16113H101.956V12H100.63ZM106.652 1.97852H114.534V12H113.201V3.16113H107.979V12H106.652V1.97852Z" fill="white"/>
<path d="M81 72.5C72 75 51.5 74 50.5 50" stroke="#87A4BC" stroke-miterlimit="3.99393" stroke-linecap="round" stroke-dasharray="2 4"/>
<path d="M81.0003 72.5C74.0003 87 40.0002 79.5 50.5003 50" stroke="#87A4BC" stroke-miterlimit="3.99393" stroke-linecap="round" stroke-dasharray="2 4"/>
<path d="M123 21.5C125.5 40.5 112 63 95.5 65" stroke="#87A4BC" stroke-miterlimit="3.99393" stroke-linecap="round" stroke-dasharray="2 4"/>
<path d="M123 21.5C131 33.5 127 67 95.5 65" stroke="#87A4BC" stroke-miterlimit="3.99393" stroke-linecap="round" stroke-dasharray="2 4"/>
<path d="M94.9996 65C106 68 90.9996 88.5 81.4997 72.5" stroke="#87A4BC" stroke-miterlimit="3.99393" stroke-linecap="round" stroke-dasharray="2 4"/>
<path d="M94.9996 65C116.5 70 84.4996 98.5 81.4997 72.5" stroke="#87A4BC" stroke-miterlimit="3.99393" stroke-linecap="round" stroke-dasharray="2 4"/>
<g filter="url(#filter0_d_5077_52699)">
<circle cx="81" cy="72" r="2" fill="#0C99CF"/>
<circle cx="81" cy="72" r="2.5" stroke="white"/>
</g>
<g filter="url(#filter1_d_5077_52699)">
<circle cx="50" cy="50" r="2" fill="#0C99CF"/>
<circle cx="50" cy="50" r="2.5" stroke="white"/>
</g>
<g filter="url(#filter2_d_5077_52699)">
<circle cx="123" cy="21" r="3" fill="#0C99CF"/>
<circle cx="123" cy="21" r="4" stroke="white" stroke-width="2"/>
</g>
<path d="M104.094 68.9785H111.976V79H110.643V70.1611H105.42V79H104.094V68.9785ZM113.931 81.7959L113.794 80.6406C114.063 80.7135 114.298 80.75 114.498 80.75C114.771 80.75 114.99 80.7044 115.154 80.6133C115.318 80.5221 115.453 80.3945 115.558 80.2305C115.635 80.1074 115.76 79.8021 115.934 79.3145C115.956 79.2461 115.993 79.1458 116.043 79.0137L113.288 71.7402H114.614L116.125 75.9443C116.321 76.4775 116.496 77.0381 116.651 77.626C116.793 77.0609 116.961 76.5094 117.157 75.9717L118.709 71.7402H119.939L117.178 79.123C116.882 79.9206 116.651 80.4697 116.487 80.7705C116.269 81.1761 116.018 81.4723 115.735 81.6592C115.453 81.8506 115.116 81.9463 114.724 81.9463C114.487 81.9463 114.222 81.8962 113.931 81.7959ZM125.559 76.3408L126.769 76.498C126.636 77.332 126.297 77.986 125.75 78.46C125.208 78.9294 124.54 79.1641 123.747 79.1641C122.754 79.1641 121.954 78.8405 121.348 78.1934C120.746 77.5417 120.445 76.6097 120.445 75.3975C120.445 74.6136 120.575 73.9277 120.835 73.3398C121.095 72.752 121.489 72.3122 122.018 72.0205C122.551 71.7243 123.13 71.5762 123.754 71.5762C124.542 71.5762 125.187 71.7767 125.688 72.1777C126.19 72.5742 126.511 73.1393 126.652 73.873L125.456 74.0576C125.342 73.57 125.139 73.2031 124.848 72.957C124.561 72.7109 124.212 72.5879 123.802 72.5879C123.182 72.5879 122.678 72.8112 122.291 73.2578C121.904 73.6999 121.71 74.4017 121.71 75.3633C121.71 76.3385 121.897 77.0472 122.271 77.4893C122.644 77.9313 123.132 78.1523 123.733 78.1523C124.216 78.1523 124.62 78.0042 124.943 77.708C125.267 77.4118 125.472 76.9561 125.559 76.3408ZM132.559 78.1045C132.103 78.4919 131.663 78.7653 131.239 78.9248C130.82 79.0843 130.369 79.1641 129.886 79.1641C129.088 79.1641 128.475 78.9704 128.047 78.583C127.618 78.1911 127.404 77.6921 127.404 77.0859C127.404 76.7305 127.484 76.4069 127.644 76.1152C127.808 75.819 128.02 75.582 128.279 75.4043C128.544 75.2266 128.84 75.0921 129.168 75.001C129.41 74.9372 129.774 74.8757 130.262 74.8164C131.255 74.6979 131.987 74.5566 132.456 74.3926C132.461 74.224 132.463 74.1169 132.463 74.0713C132.463 73.57 132.347 73.2168 132.114 73.0117C131.8 72.7337 131.333 72.5947 130.713 72.5947C130.134 72.5947 129.706 72.6973 129.428 72.9023C129.154 73.1029 128.951 73.4606 128.819 73.9756L127.616 73.8115C127.726 73.2965 127.906 72.8818 128.156 72.5674C128.407 72.2484 128.769 72.0046 129.243 71.8359C129.717 71.6628 130.266 71.5762 130.891 71.5762C131.51 71.5762 132.014 71.6491 132.401 71.7949C132.789 71.9408 133.074 72.1253 133.256 72.3486C133.438 72.5674 133.566 72.8454 133.639 73.1826C133.68 73.3923 133.7 73.7705 133.7 74.3174V75.958C133.7 77.1019 133.725 77.8265 133.775 78.1318C133.83 78.4326 133.935 78.722 134.09 79H132.805C132.677 78.7448 132.595 78.4463 132.559 78.1045ZM132.456 75.3564C132.009 75.5387 131.34 75.6937 130.446 75.8213C129.94 75.8942 129.583 75.9762 129.373 76.0674C129.163 76.1585 129.002 76.293 128.888 76.4707C128.774 76.6439 128.717 76.8376 128.717 77.0518C128.717 77.3799 128.84 77.6533 129.086 77.8721C129.337 78.0908 129.701 78.2002 130.18 78.2002C130.654 78.2002 131.075 78.0977 131.444 77.8926C131.813 77.6829 132.085 77.3981 132.258 77.0381C132.39 76.7601 132.456 76.3499 132.456 75.8076V75.3564ZM135.621 71.7402H136.852V74.7617H140.263V71.7402H141.493V79H140.263V75.7803H136.852V79H135.621V71.7402Z" fill="white"/>
<g filter="url(#filter3_d_5077_52699)">
<circle cx="95" cy="65" r="2" fill="#0C99CF"/>
<circle cx="95" cy="65" r="2.5" stroke="white"/>
</g>
<defs>
<filter id="filter0_d_5077_52699" x="76.1634" y="68.3878" width="9.67311" height="9.67311" filterUnits="userSpaceOnUse" color-interpolation-filters="sRGB">
<feFlood flood-opacity="0" result="BackgroundImageFix"/>
<feColorMatrix in="SourceAlpha" type="matrix" values="0 0 0 0 0 0 0 0 0 0 0 0 0 0 0 0 0 0 127 0" result="hardAlpha"/>
<feOffset dy="1.22437"/>
<feGaussianBlur stdDeviation="0.918278"/>
<feColorMatrix type="matrix" values="0 0 0 0 0 0 0 0 0 0 0 0 0 0 0 0 0 0 0.2 0"/>
<feBlend mode="normal" in2="BackgroundImageFix" result="effect1_dropShadow_5077_52699"/>
<feBlend mode="normal" in="SourceGraphic" in2="effect1_dropShadow_5077_52699" result="shape"/>
</filter>
<filter id="filter1_d_5077_52699" x="45.1634" y="46.3878" width="9.67311" height="9.67311" filterUnits="userSpaceOnUse" color-interpolation-filters="sRGB">
<feFlood flood-opacity="0" result="BackgroundImageFix"/>
<feColorMatrix in="SourceAlpha" type="matrix" values="0 0 0 0 0 0 0 0 0 0 0 0 0 0 0 0 0 0 127 0" result="hardAlpha"/>
<feOffset dy="1.22437"/>
<feGaussianBlur stdDeviation="0.918278"/>
<feColorMatrix type="matrix" values="0 0 0 0 0 0 0 0 0 0 0 0 0 0 0 0 0 0 0.2 0"/>
<feBlend mode="normal" in2="BackgroundImageFix" result="effect1_dropShadow_5077_52699"/>
<feBlend mode="normal" in="SourceGraphic" in2="effect1_dropShadow_5077_52699" result="shape"/>
</filter>
<filter id="filter2_d_5077_52699" x="116.163" y="15.3878" width="13.6731" height="13.6731" filterUnits="userSpaceOnUse" color-interpolation-filters="sRGB">
<feFlood flood-opacity="0" result="BackgroundImageFix"/>
<feColorMatrix in="SourceAlpha" type="matrix" values="0 0 0 0 0 0 0 0 0 0 0 0 0 0 0 0 0 0 127 0" result="hardAlpha"/>
<feOffset dy="1.22437"/>
<feGaussianBlur stdDeviation="0.918278"/>
<feColorMatrix type="matrix" values="0 0 0 0 0 0 0 0 0 0 0 0 0 0 0 0 0 0 0.2 0"/>
<feBlend mode="normal" in2="BackgroundImageFix" result="effect1_dropShadow_5077_52699"/>
<feBlend mode="normal" in="SourceGraphic" in2="effect1_dropShadow_5077_52699" result="shape"/>
</filter>
<filter id="filter3_d_5077_52699" x="90.1634" y="61.3878" width="9.67311" height="9.67311" filterUnits="userSpaceOnUse" color-interpolation-filters="sRGB">
<feFlood flood-opacity="0" result="BackgroundImageFix"/>
<feColorMatrix in="SourceAlpha" type="matrix" values="0 0 0 0 0 0 0 0 0 0 0 0 0 0 0 0 0 0 127 0" result="hardAlpha"/>
<feOffset dy="1.22437"/>
<feGaussianBlur stdDeviation="0.918278"/>
<feColorMatrix type="matrix" values="0 0 0 0 0 0 0 0 0 0 0 0 0 0 0 0 0 0 0.2 0"/>
<feBlend mode="normal" in2="BackgroundImageFix" result="effect1_dropShadow_5077_52699"/>
<feBlend mode="normal" in="SourceGraphic" in2="effect1_dropShadow_5077_52699" result="shape"/>
</filter>
</defs>
</svg>
