<svg width="158" height="111" viewBox="0 0 158 111" fill="none" xmlns="http://www.w3.org/2000/svg">
<path d="M16.0869 31.9785H17.4131V40.8174H22.6357V31.9785H23.9688V40.8174H24.8848V44.7822H23.709V42H16.0869V31.9785ZM26.2861 34.7402H27.5166V40.2773L30.9277 34.7402H32.2539V42H31.0234V36.4971L27.6123 42H26.2861V34.7402ZM34.1133 34.7402H35.3438V37.7617H38.7549V34.7402H39.9854V42H38.7549V38.7803H35.3438V42H34.1133V34.7402ZM42.8154 34.7402H47.874V40.9883H48.6602V44.0576H47.6484V42H41.9336V44.0576H40.9219V40.9883H41.5713C42.4372 39.8125 42.8519 37.7298 42.8154 34.7402ZM43.8408 35.7588C43.7497 38.1149 43.3851 39.8581 42.7471 40.9883H46.6504V35.7588H43.8408ZM54.7578 41.1045C54.3021 41.4919 53.8623 41.7653 53.4385 41.9248C53.0192 42.0843 52.568 42.1641 52.085 42.1641C51.2874 42.1641 50.6745 41.9704 50.2461 41.583C49.8177 41.1911 49.6035 40.6921 49.6035 40.0859C49.6035 39.7305 49.6833 39.4069 49.8428 39.1152C50.0068 38.819 50.2188 38.582 50.4785 38.4043C50.7428 38.2266 51.0391 38.0921 51.3672 38.001C51.6087 37.9372 51.9733 37.8757 52.4609 37.8164C53.4544 37.6979 54.1859 37.5566 54.6553 37.3926C54.6598 37.224 54.6621 37.1169 54.6621 37.0713C54.6621 36.57 54.5459 36.2168 54.3135 36.0117C53.999 35.7337 53.5319 35.5947 52.9121 35.5947C52.3333 35.5947 51.9049 35.6973 51.627 35.9023C51.3535 36.1029 51.1507 36.4606 51.0186 36.9756L49.8154 36.8115C49.9248 36.2965 50.1048 35.8818 50.3555 35.5674C50.6061 35.2484 50.9684 35.0046 51.4424 34.8359C51.9163 34.6628 52.4655 34.5762 53.0898 34.5762C53.7096 34.5762 54.2132 34.6491 54.6006 34.7949C54.988 34.9408 55.2728 35.1253 55.4551 35.3486C55.6374 35.5674 55.765 35.8454 55.8379 36.1826C55.8789 36.3923 55.8994 36.7705 55.8994 37.3174V38.958C55.8994 40.1019 55.9245 40.8265 55.9746 41.1318C56.0293 41.4326 56.1341 41.722 56.2891 42H55.0039C54.8763 41.7448 54.7943 41.4463 54.7578 41.1045ZM54.6553 38.3564C54.2087 38.5387 53.5387 38.6937 52.6455 38.8213C52.1396 38.8942 51.7819 38.9762 51.5723 39.0674C51.3626 39.1585 51.2008 39.293 51.0869 39.4707C50.973 39.6439 50.916 39.8376 50.916 40.0518C50.916 40.3799 51.0391 40.6533 51.2852 40.8721C51.5358 41.0908 51.9004 41.2002 52.3789 41.2002C52.8529 41.2002 53.2744 41.0977 53.6436 40.8926C54.0127 40.6829 54.2839 40.3981 54.457 40.0381C54.5892 39.7601 54.6553 39.3499 54.6553 38.8076V38.3564ZM57.3555 38.3701C57.3555 37.0257 57.7292 36.0299 58.4766 35.3828C59.1009 34.8451 59.862 34.5762 60.7598 34.5762C61.7578 34.5762 62.5736 34.9043 63.207 35.5605C63.8405 36.2122 64.1572 37.1146 64.1572 38.2676C64.1572 39.2018 64.016 39.9378 63.7334 40.4756C63.4554 41.0088 63.0475 41.4235 62.5098 41.7197C61.9766 42.016 61.3932 42.1641 60.7598 42.1641C59.7435 42.1641 58.9209 41.8382 58.292 41.1865C57.6676 40.5348 57.3555 39.596 57.3555 38.3701ZM58.6201 38.3701C58.6201 39.2998 58.8229 39.9971 59.2285 40.4619C59.6341 40.9222 60.1445 41.1523 60.7598 41.1523C61.3704 41.1523 61.8786 40.9199 62.2842 40.4551C62.6898 39.9902 62.8926 39.2816 62.8926 38.3291C62.8926 37.4313 62.6875 36.7523 62.2773 36.292C61.8717 35.8271 61.3659 35.5947 60.7598 35.5947C60.1445 35.5947 59.6341 35.8249 59.2285 36.2852C58.8229 36.7454 58.6201 37.4404 58.6201 38.3701Z" fill="white"/>
<path d="M92.0254 12V1.97852H95.7852C96.5508 1.97852 97.1637 2.08105 97.624 2.28613C98.0889 2.48665 98.4512 2.79883 98.7109 3.22266C98.9753 3.64193 99.1074 4.08171 99.1074 4.54199C99.1074 4.97038 98.9912 5.3737 98.7588 5.75195C98.5264 6.13021 98.1755 6.43555 97.7061 6.66797C98.3122 6.8457 98.777 7.14876 99.1006 7.57715C99.4287 8.00553 99.5928 8.51139 99.5928 9.09473C99.5928 9.56413 99.4925 10.0016 99.292 10.4072C99.096 10.8083 98.8522 11.1182 98.5605 11.3369C98.2689 11.5557 97.902 11.722 97.46 11.8359C97.0225 11.9453 96.4847 12 95.8467 12H92.0254ZM93.3516 6.18945H95.5186C96.1064 6.18945 96.528 6.15072 96.7832 6.07324C97.1204 5.97298 97.3734 5.80664 97.542 5.57422C97.7152 5.3418 97.8018 5.05013 97.8018 4.69922C97.8018 4.36654 97.722 4.07487 97.5625 3.82422C97.403 3.56901 97.1751 3.39583 96.8789 3.30469C96.5827 3.20898 96.0745 3.16113 95.3545 3.16113H93.3516V6.18945ZM93.3516 10.8174H95.8467C96.2751 10.8174 96.5758 10.8014 96.749 10.7695C97.0544 10.7148 97.3096 10.6237 97.5146 10.4961C97.7197 10.3685 97.8883 10.1839 98.0205 9.94238C98.1527 9.69629 98.2188 9.41374 98.2188 9.09473C98.2188 8.72103 98.123 8.39746 97.9316 8.12402C97.7402 7.84603 97.4736 7.65234 97.1318 7.54297C96.7946 7.42904 96.307 7.37207 95.6689 7.37207H93.3516V10.8174ZM101.377 12V1.97852H103.373L105.745 9.07422C105.964 9.73503 106.123 10.2295 106.224 10.5576C106.338 10.193 106.515 9.65755 106.757 8.95117L109.156 1.97852H110.94V12H109.662V3.6123L106.75 12H105.554L102.655 3.46875V12H101.377ZM115.63 12V3.16113H112.328V1.97852H120.271V3.16113H116.956V12H115.63ZM121.652 1.97852H129.534V12H128.201V3.16113H122.979V12H121.652V1.97852Z" fill="white"/>
<path d="M63 81C70 88 65 101 53 104" stroke="#87A4BC" stroke-miterlimit="3.99393" stroke-linecap="round" stroke-dasharray="2 4"/>
<path d="M110.5 65C117 81 85.5 104 63.5 81" stroke="#87A4BC" stroke-miterlimit="3.99393" stroke-linecap="round" stroke-dasharray="2 4"/>
<path d="M138 21.5C139.5 36.5 114.5 125.5 65 50" stroke="#87A4BC" stroke-miterlimit="3.99393" stroke-linecap="round" stroke-dasharray="2 4"/>
<path d="M64.5001 50.0004C72.5001 56.5004 86.5 104.5 53.5 104" stroke="#87A4BC" stroke-miterlimit="3.99393" stroke-linecap="round" stroke-dasharray="2 4"/>
<g filter="url(#filter0_d_5077_52653)">
<circle cx="65" cy="50" r="2" fill="#0C99CF"/>
<circle cx="65" cy="50" r="2.5" stroke="white"/>
</g>
<g filter="url(#filter1_d_5077_52653)">
<circle cx="138" cy="21" r="3" fill="#0C99CF"/>
<circle cx="138" cy="21" r="4" stroke="white" stroke-width="2"/>
</g>
<path d="M119.094 68.9785H126.976V79H125.643V70.1611H120.42V79H119.094V68.9785ZM128.931 81.7959L128.794 80.6406C129.063 80.7135 129.298 80.75 129.498 80.75C129.771 80.75 129.99 80.7044 130.154 80.6133C130.318 80.5221 130.453 80.3945 130.558 80.2305C130.635 80.1074 130.76 79.8021 130.934 79.3145C130.956 79.2461 130.993 79.1458 131.043 79.0137L128.288 71.7402H129.614L131.125 75.9443C131.321 76.4775 131.496 77.0381 131.651 77.626C131.793 77.0609 131.961 76.5094 132.157 75.9717L133.709 71.7402H134.939L132.178 79.123C131.882 79.9206 131.651 80.4697 131.487 80.7705C131.269 81.1761 131.018 81.4723 130.735 81.6592C130.453 81.8506 130.116 81.9463 129.724 81.9463C129.487 81.9463 129.222 81.8962 128.931 81.7959ZM140.559 76.3408L141.769 76.498C141.636 77.332 141.297 77.986 140.75 78.46C140.208 78.9294 139.54 79.1641 138.747 79.1641C137.754 79.1641 136.954 78.8405 136.348 78.1934C135.746 77.5417 135.445 76.6097 135.445 75.3975C135.445 74.6136 135.575 73.9277 135.835 73.3398C136.095 72.752 136.489 72.3122 137.018 72.0205C137.551 71.7243 138.13 71.5762 138.754 71.5762C139.542 71.5762 140.187 71.7767 140.688 72.1777C141.19 72.5742 141.511 73.1393 141.652 73.873L140.456 74.0576C140.342 73.57 140.139 73.2031 139.848 72.957C139.561 72.7109 139.212 72.5879 138.802 72.5879C138.182 72.5879 137.678 72.8112 137.291 73.2578C136.904 73.6999 136.71 74.4017 136.71 75.3633C136.71 76.3385 136.897 77.0472 137.271 77.4893C137.644 77.9313 138.132 78.1523 138.733 78.1523C139.216 78.1523 139.62 78.0042 139.943 77.708C140.267 77.4118 140.472 76.9561 140.559 76.3408ZM147.559 78.1045C147.103 78.4919 146.663 78.7653 146.239 78.9248C145.82 79.0843 145.369 79.1641 144.886 79.1641C144.088 79.1641 143.475 78.9704 143.047 78.583C142.618 78.1911 142.404 77.6921 142.404 77.0859C142.404 76.7305 142.484 76.4069 142.644 76.1152C142.808 75.819 143.02 75.582 143.279 75.4043C143.544 75.2266 143.84 75.0921 144.168 75.001C144.41 74.9372 144.774 74.8757 145.262 74.8164C146.255 74.6979 146.987 74.5566 147.456 74.3926C147.461 74.224 147.463 74.1169 147.463 74.0713C147.463 73.57 147.347 73.2168 147.114 73.0117C146.8 72.7337 146.333 72.5947 145.713 72.5947C145.134 72.5947 144.706 72.6973 144.428 72.9023C144.154 73.1029 143.951 73.4606 143.819 73.9756L142.616 73.8115C142.726 73.2965 142.906 72.8818 143.156 72.5674C143.407 72.2484 143.769 72.0046 144.243 71.8359C144.717 71.6628 145.266 71.5762 145.891 71.5762C146.51 71.5762 147.014 71.6491 147.401 71.7949C147.789 71.9408 148.074 72.1253 148.256 72.3486C148.438 72.5674 148.566 72.8454 148.639 73.1826C148.68 73.3923 148.7 73.7705 148.7 74.3174V75.958C148.7 77.1019 148.725 77.8265 148.775 78.1318C148.83 78.4326 148.935 78.722 149.09 79H147.805C147.677 78.7448 147.595 78.4463 147.559 78.1045ZM147.456 75.3564C147.009 75.5387 146.34 75.6937 145.446 75.8213C144.94 75.8942 144.583 75.9762 144.373 76.0674C144.163 76.1585 144.002 76.293 143.888 76.4707C143.774 76.6439 143.717 76.8376 143.717 77.0518C143.717 77.3799 143.84 77.6533 144.086 77.8721C144.337 78.0908 144.701 78.2002 145.18 78.2002C145.654 78.2002 146.075 78.0977 146.444 77.8926C146.813 77.6829 147.085 77.3981 147.258 77.0381C147.39 76.7601 147.456 76.3499 147.456 75.8076V75.3564ZM150.621 71.7402H151.852V74.7617H155.263V71.7402H156.493V79H155.263V75.7803H151.852V79H150.621V71.7402Z" fill="white"/>
<g filter="url(#filter2_d_5077_52653)">
<circle cx="110" cy="65" r="2" fill="#0C99CF"/>
<circle cx="110" cy="65" r="2.5" stroke="white"/>
</g>
<path d="M1.12109 107V96.9785H2.44727V101.094H7.65625V96.9785H8.98242V107H7.65625V102.276H2.44727V107H1.12109ZM11.04 99.7402H12.2705V105.277L15.6816 99.7402H17.0078V107H15.7773V101.497L12.3662 107H11.04V99.7402ZM18.8945 99.7402H20.8086L22.7158 105.551L24.835 99.7402H26.6055V107H25.375V101.155L23.2285 107H22.1279L20.0977 100.875V107H18.8945V99.7402ZM33.6396 96.7393L34.7266 96.7529C34.6764 97.2406 34.5671 97.5801 34.3984 97.7715C34.2344 97.9629 34.0202 98.0859 33.7559 98.1406C33.4961 98.1953 32.9834 98.2227 32.2178 98.2227C31.2015 98.2227 30.5088 98.3206 30.1396 98.5166C29.7705 98.7126 29.5039 99.027 29.3398 99.46C29.1803 99.8883 29.0915 100.442 29.0732 101.121C29.3831 100.661 29.7454 100.317 30.1602 100.089C30.5749 99.8564 31.042 99.7402 31.5615 99.7402C32.514 99.7402 33.3024 100.068 33.9268 100.725C34.5511 101.376 34.8633 102.26 34.8633 103.377C34.8633 104.225 34.7061 104.92 34.3916 105.462C34.0771 106.004 33.7035 106.424 33.2705 106.72C32.8421 107.016 32.2565 107.164 31.5137 107.164C30.6523 107.164 29.9824 106.968 29.5039 106.576C29.0254 106.18 28.6585 105.674 28.4033 105.059C28.1481 104.443 28.0205 103.372 28.0205 101.846C28.0205 99.9271 28.3441 98.6351 28.9912 97.9697C29.6429 97.3044 30.6432 96.9717 31.9922 96.9717C32.8307 96.9717 33.307 96.958 33.4209 96.9307C33.5348 96.9033 33.6077 96.8395 33.6396 96.7393ZM33.5781 103.343C33.5781 102.586 33.3981 101.966 33.0381 101.483C32.6826 101 32.179 100.759 31.5273 100.759C30.8483 100.759 30.3242 101.014 29.9551 101.524C29.5859 102.035 29.4014 102.716 29.4014 103.568C29.4014 104.411 29.6042 105.056 30.0098 105.503C30.4199 105.95 30.9235 106.173 31.5205 106.173C32.1312 106.173 32.6257 105.915 33.0039 105.4C33.3867 104.881 33.5781 104.195 33.5781 103.343ZM35.8887 103.37C35.8887 102.026 36.2624 101.03 37.0098 100.383C37.6341 99.8451 38.3952 99.5762 39.293 99.5762C40.291 99.5762 41.1068 99.9043 41.7402 100.561C42.3737 101.212 42.6904 102.115 42.6904 103.268C42.6904 104.202 42.5492 104.938 42.2666 105.476C41.9886 106.009 41.5807 106.424 41.043 106.72C40.5098 107.016 39.9264 107.164 39.293 107.164C38.2767 107.164 37.4541 106.838 36.8252 106.187C36.2008 105.535 35.8887 104.596 35.8887 103.37ZM37.1533 103.37C37.1533 104.3 37.3561 104.997 37.7617 105.462C38.1673 105.922 38.6777 106.152 39.293 106.152C39.9036 106.152 40.4118 105.92 40.8174 105.455C41.223 104.99 41.4258 104.282 41.4258 103.329C41.4258 102.431 41.2207 101.752 40.8105 101.292C40.4049 100.827 39.8991 100.595 39.293 100.595C38.6777 100.595 38.1673 100.825 37.7617 101.285C37.3561 101.745 37.1533 102.44 37.1533 103.37Z" fill="white"/>
<g filter="url(#filter3_d_5077_52653)">
<circle cx="53" cy="104" r="2" fill="#0C99CF"/>
<circle cx="53" cy="104" r="2.5" stroke="white"/>
</g>
<path d="M2.10059 73.9785H3.42676V82.8174H6.75586V73.9785H8.08203V82.8174H11.4111V73.9785H12.7373V84H2.10059V73.9785ZM19.498 83.1045C19.0423 83.4919 18.6025 83.7653 18.1787 83.9248C17.7594 84.0843 17.3083 84.1641 16.8252 84.1641C16.0277 84.1641 15.4147 83.9704 14.9863 83.583C14.5579 83.1911 14.3438 82.6921 14.3438 82.0859C14.3438 81.7305 14.4235 81.4069 14.583 81.1152C14.7471 80.819 14.959 80.582 15.2188 80.4043C15.4831 80.2266 15.7793 80.0921 16.1074 80.001C16.349 79.9372 16.7135 79.8757 17.2012 79.8164C18.1947 79.6979 18.9261 79.5566 19.3955 79.3926C19.4001 79.224 19.4023 79.1169 19.4023 79.0713C19.4023 78.57 19.2861 78.2168 19.0537 78.0117C18.7393 77.7337 18.2721 77.5947 17.6523 77.5947C17.0736 77.5947 16.6452 77.6973 16.3672 77.9023C16.0938 78.1029 15.891 78.4606 15.7588 78.9756L14.5557 78.8115C14.665 78.2965 14.8451 77.8818 15.0957 77.5674C15.3464 77.2484 15.7087 77.0046 16.1826 76.8359C16.6566 76.6628 17.2057 76.5762 17.8301 76.5762C18.4499 76.5762 18.9535 76.6491 19.3408 76.7949C19.7282 76.9408 20.013 77.1253 20.1953 77.3486C20.3776 77.5674 20.5052 77.8454 20.5781 78.1826C20.6191 78.3923 20.6396 78.7705 20.6396 79.3174V80.958C20.6396 82.1019 20.6647 82.8265 20.7148 83.1318C20.7695 83.4326 20.8743 83.722 21.0293 84H19.7441C19.6165 83.7448 19.5345 83.4463 19.498 83.1045ZM19.3955 80.3564C18.9489 80.5387 18.279 80.6937 17.3857 80.8213C16.8799 80.8942 16.5221 80.9762 16.3125 81.0674C16.1029 81.1585 15.9411 81.293 15.8271 81.4707C15.7132 81.6439 15.6562 81.8376 15.6562 82.0518C15.6562 82.3799 15.7793 82.6533 16.0254 82.8721C16.276 83.0908 16.6406 83.2002 17.1191 83.2002C17.5931 83.2002 18.0146 83.0977 18.3838 82.8926C18.7529 82.6829 19.0241 82.3981 19.1973 82.0381C19.3294 81.7601 19.3955 81.3499 19.3955 80.8076V80.3564ZM22.5605 76.7402H23.791V79.7617H27.2021V76.7402H28.4326V84H27.2021V80.7803H23.791V84H22.5605V76.7402ZM29.4717 84L32.124 80.2266L29.6699 76.7402H31.208L32.3223 78.4424C32.5319 78.766 32.7005 79.0371 32.8281 79.2559C33.0286 78.9551 33.2132 78.6885 33.3818 78.4561L34.6055 76.7402H36.0752L33.5664 80.1582L36.2666 84H34.7559L33.2656 81.7441L32.8691 81.1357L30.9619 84H29.4717ZM41.8652 83.1045C41.4095 83.4919 40.9697 83.7653 40.5459 83.9248C40.1266 84.0843 39.6755 84.1641 39.1924 84.1641C38.3949 84.1641 37.7819 83.9704 37.3535 83.583C36.9251 83.1911 36.7109 82.6921 36.7109 82.0859C36.7109 81.7305 36.7907 81.4069 36.9502 81.1152C37.1143 80.819 37.3262 80.582 37.5859 80.4043C37.8503 80.2266 38.1465 80.0921 38.4746 80.001C38.7161 79.9372 39.0807 79.8757 39.5684 79.8164C40.5618 79.6979 41.2933 79.5566 41.7627 79.3926C41.7673 79.224 41.7695 79.1169 41.7695 79.0713C41.7695 78.57 41.6533 78.2168 41.4209 78.0117C41.1064 77.7337 40.6393 77.5947 40.0195 77.5947C39.4408 77.5947 39.0124 77.6973 38.7344 77.9023C38.4609 78.1029 38.2581 78.4606 38.126 78.9756L36.9229 78.8115C37.0322 78.2965 37.2122 77.8818 37.4629 77.5674C37.7135 77.2484 38.0758 77.0046 38.5498 76.8359C39.0238 76.6628 39.5729 76.5762 40.1973 76.5762C40.8171 76.5762 41.3206 76.6491 41.708 76.7949C42.0954 76.9408 42.3802 77.1253 42.5625 77.3486C42.7448 77.5674 42.8724 77.8454 42.9453 78.1826C42.9863 78.3923 43.0068 78.7705 43.0068 79.3174V80.958C43.0068 82.1019 43.0319 82.8265 43.082 83.1318C43.1367 83.4326 43.2415 83.722 43.3965 84H42.1113C41.9837 83.7448 41.9017 83.4463 41.8652 83.1045ZM41.7627 80.3564C41.3161 80.5387 40.6462 80.6937 39.7529 80.8213C39.2471 80.8942 38.8893 80.9762 38.6797 81.0674C38.4701 81.1585 38.3083 81.293 38.1943 81.4707C38.0804 81.6439 38.0234 81.8376 38.0234 82.0518C38.0234 82.3799 38.1465 82.6533 38.3926 82.8721C38.6432 83.0908 39.0078 83.2002 39.4863 83.2002C39.9603 83.2002 40.3818 83.0977 40.751 82.8926C41.1201 82.6829 41.3913 82.3981 41.5645 82.0381C41.6966 81.7601 41.7627 81.3499 41.7627 80.8076V80.3564ZM44.9209 76.7402H46.1514V82.2773L49.5625 76.7402H50.8887V84H49.6582V78.4971L46.2471 84H44.9209V76.7402ZM49.1934 73.9922H50.0342C49.9658 74.5618 49.7562 74.9993 49.4053 75.3047C49.0589 75.61 48.5964 75.7627 48.0176 75.7627C47.4342 75.7627 46.9671 75.6123 46.6162 75.3115C46.2699 75.0062 46.0625 74.5664 45.9941 73.9922H46.835C46.8988 74.3021 47.0241 74.5345 47.2109 74.6895C47.4023 74.8398 47.6576 74.915 47.9766 74.915C48.3457 74.915 48.6237 74.8421 48.8105 74.6963C49.002 74.5459 49.1296 74.3112 49.1934 73.9922Z" fill="white"/>
<g filter="url(#filter4_d_5077_52653)">
<circle cx="63" cy="81" r="2" fill="#0C99CF"/>
<circle cx="63" cy="81" r="2.5" stroke="white"/>
</g>
<defs>
<filter id="filter0_d_5077_52653" x="60.1634" y="46.3878" width="9.67311" height="9.67311" filterUnits="userSpaceOnUse" color-interpolation-filters="sRGB">
<feFlood flood-opacity="0" result="BackgroundImageFix"/>
<feColorMatrix in="SourceAlpha" type="matrix" values="0 0 0 0 0 0 0 0 0 0 0 0 0 0 0 0 0 0 127 0" result="hardAlpha"/>
<feOffset dy="1.22437"/>
<feGaussianBlur stdDeviation="0.918278"/>
<feColorMatrix type="matrix" values="0 0 0 0 0 0 0 0 0 0 0 0 0 0 0 0 0 0 0.2 0"/>
<feBlend mode="normal" in2="BackgroundImageFix" result="effect1_dropShadow_5077_52653"/>
<feBlend mode="normal" in="SourceGraphic" in2="effect1_dropShadow_5077_52653" result="shape"/>
</filter>
<filter id="filter1_d_5077_52653" x="131.163" y="15.3878" width="13.6731" height="13.6731" filterUnits="userSpaceOnUse" color-interpolation-filters="sRGB">
<feFlood flood-opacity="0" result="BackgroundImageFix"/>
<feColorMatrix in="SourceAlpha" type="matrix" values="0 0 0 0 0 0 0 0 0 0 0 0 0 0 0 0 0 0 127 0" result="hardAlpha"/>
<feOffset dy="1.22437"/>
<feGaussianBlur stdDeviation="0.918278"/>
<feColorMatrix type="matrix" values="0 0 0 0 0 0 0 0 0 0 0 0 0 0 0 0 0 0 0.2 0"/>
<feBlend mode="normal" in2="BackgroundImageFix" result="effect1_dropShadow_5077_52653"/>
<feBlend mode="normal" in="SourceGraphic" in2="effect1_dropShadow_5077_52653" result="shape"/>
</filter>
<filter id="filter2_d_5077_52653" x="105.163" y="61.3878" width="9.67311" height="9.67311" filterUnits="userSpaceOnUse" color-interpolation-filters="sRGB">
<feFlood flood-opacity="0" result="BackgroundImageFix"/>
<feColorMatrix in="SourceAlpha" type="matrix" values="0 0 0 0 0 0 0 0 0 0 0 0 0 0 0 0 0 0 127 0" result="hardAlpha"/>
<feOffset dy="1.22437"/>
<feGaussianBlur stdDeviation="0.918278"/>
<feColorMatrix type="matrix" values="0 0 0 0 0 0 0 0 0 0 0 0 0 0 0 0 0 0 0.2 0"/>
<feBlend mode="normal" in2="BackgroundImageFix" result="effect1_dropShadow_5077_52653"/>
<feBlend mode="normal" in="SourceGraphic" in2="effect1_dropShadow_5077_52653" result="shape"/>
</filter>
<filter id="filter3_d_5077_52653" x="48.1634" y="100.388" width="9.67311" height="9.67311" filterUnits="userSpaceOnUse" color-interpolation-filters="sRGB">
<feFlood flood-opacity="0" result="BackgroundImageFix"/>
<feColorMatrix in="SourceAlpha" type="matrix" values="0 0 0 0 0 0 0 0 0 0 0 0 0 0 0 0 0 0 127 0" result="hardAlpha"/>
<feOffset dy="1.22437"/>
<feGaussianBlur stdDeviation="0.918278"/>
<feColorMatrix type="matrix" values="0 0 0 0 0 0 0 0 0 0 0 0 0 0 0 0 0 0 0.2 0"/>
<feBlend mode="normal" in2="BackgroundImageFix" result="effect1_dropShadow_5077_52653"/>
<feBlend mode="normal" in="SourceGraphic" in2="effect1_dropShadow_5077_52653" result="shape"/>
</filter>
<filter id="filter4_d_5077_52653" x="58.1634" y="77.3878" width="9.67311" height="9.67311" filterUnits="userSpaceOnUse" color-interpolation-filters="sRGB">
<feFlood flood-opacity="0" result="BackgroundImageFix"/>
<feColorMatrix in="SourceAlpha" type="matrix" values="0 0 0 0 0 0 0 0 0 0 0 0 0 0 0 0 0 0 127 0" result="hardAlpha"/>
<feOffset dy="1.22437"/>
<feGaussianBlur stdDeviation="0.918278"/>
<feColorMatrix type="matrix" values="0 0 0 0 0 0 0 0 0 0 0 0 0 0 0 0 0 0 0.2 0"/>
<feBlend mode="normal" in2="BackgroundImageFix" result="effect1_dropShadow_5077_52653"/>
<feBlend mode="normal" in="SourceGraphic" in2="effect1_dropShadow_5077_52653" result="shape"/>
</filter>
</defs>
</svg>
