<svg width="263" height="136" viewBox="0 0 263 136" fill="none" xmlns="http://www.w3.org/2000/svg">
<path d="M91.0254 12V1.97852H94.7852C95.5508 1.97852 96.1637 2.08105 96.624 2.28613C97.0889 2.48665 97.4512 2.79883 97.7109 3.22266C97.9753 3.64193 98.1074 4.08171 98.1074 4.54199C98.1074 4.97038 97.9912 5.3737 97.7588 5.75195C97.5264 6.13021 97.1755 6.43555 96.7061 6.66797C97.3122 6.8457 97.777 7.14876 98.1006 7.57715C98.4287 8.00553 98.5928 8.51139 98.5928 9.09473C98.5928 9.56413 98.4925 10.0016 98.292 10.4072C98.096 10.8083 97.8522 11.1182 97.5605 11.3369C97.2689 11.5557 96.902 11.722 96.46 11.8359C96.0225 11.9453 95.4847 12 94.8467 12H91.0254ZM92.3516 6.18945H94.5186C95.1064 6.18945 95.528 6.15072 95.7832 6.07324C96.1204 5.97298 96.3734 5.80664 96.542 5.57422C96.7152 5.3418 96.8018 5.05013 96.8018 4.69922C96.8018 4.36654 96.722 4.07487 96.5625 3.82422C96.403 3.56901 96.1751 3.39583 95.8789 3.30469C95.5827 3.20898 95.0745 3.16113 94.3545 3.16113H92.3516V6.18945ZM92.3516 10.8174H94.8467C95.2751 10.8174 95.5758 10.8014 95.749 10.7695C96.0544 10.7148 96.3096 10.6237 96.5146 10.4961C96.7197 10.3685 96.8883 10.1839 97.0205 9.94238C97.1527 9.69629 97.2188 9.41374 97.2188 9.09473C97.2188 8.72103 97.123 8.39746 96.9316 8.12402C96.7402 7.84603 96.4736 7.65234 96.1318 7.54297C95.7946 7.42904 95.307 7.37207 94.6689 7.37207H92.3516V10.8174ZM100.377 12V1.97852H102.373L104.745 9.07422C104.964 9.73503 105.123 10.2295 105.224 10.5576C105.338 10.193 105.515 9.65755 105.757 8.95117L108.156 1.97852H109.94V12H108.662V3.6123L105.75 12H104.554L101.655 3.46875V12H100.377ZM114.63 12V3.16113H111.328V1.97852H119.271V3.16113H115.956V12H114.63ZM120.652 1.97852H128.534V12H127.201V3.16113H121.979V12H120.652V1.97852Z" fill="white"/>
<path d="M150 22.5C152.5 41.5 126 63 109.5 65" stroke="#87A4BC" stroke-miterlimit="3.99393" stroke-linecap="round" stroke-dasharray="2 4"/>
<path d="M109.5 65.0004C111 86.0004 72.0003 93.0004 62.0003 81.0004" stroke="#87A4BC" stroke-miterlimit="3.99393" stroke-linecap="round" stroke-dasharray="2 4"/>
<path d="M178 61.9999C236.5 89.9998 145 185.5 61.9998 80.9999" stroke="#87A4BC" stroke-miterlimit="3.99393" stroke-linecap="round" stroke-dasharray="2 4"/>
<path d="M174 78.9996C180 88.4996 155.5 114 146 99.2975" stroke="#87A4BC" stroke-miterlimit="3.99393" stroke-linecap="round" stroke-dasharray="2 4"/>
<path d="M130.5 82.9997C143 48.9997 194.5 43.9997 178 61.9997" stroke="#87A4BC" stroke-miterlimit="3.99393" stroke-linecap="round" stroke-dasharray="2 4"/>
<path d="M130.5 82.5C92 81.5 126.5 115.5 146 99.5" stroke="#87A4BC" stroke-miterlimit="3.99393" stroke-linecap="round" stroke-dasharray="2 4"/>
<g filter="url(#filter0_d_5077_52593)">
<circle cx="130" cy="83" r="2" fill="#0C99CF"/>
<circle cx="130" cy="83" r="2.5" stroke="white"/>
</g>
<g filter="url(#filter1_d_5077_52593)">
<circle cx="146" cy="99" r="2" fill="#0C99CF"/>
<circle cx="146" cy="99" r="2.5" stroke="white"/>
</g>
<g filter="url(#filter2_d_5077_52593)">
<circle cx="174" cy="79" r="2" fill="#0C99CF"/>
<circle cx="174" cy="79" r="2.5" stroke="white"/>
</g>
<g filter="url(#filter3_d_5077_52593)">
<circle cx="178" cy="62" r="2" fill="#0C99CF"/>
<circle cx="178" cy="62" r="2.5" stroke="white"/>
</g>
<path d="M64.0938 54.9785H71.9756V65H70.6426V56.1611H65.4199V65H64.0938V54.9785ZM73.9307 67.7959L73.7939 66.6406C74.0628 66.7135 74.2975 66.75 74.498 66.75C74.7715 66.75 74.9902 66.7044 75.1543 66.6133C75.3184 66.5221 75.4528 66.3945 75.5576 66.2305C75.6351 66.1074 75.7604 65.8021 75.9336 65.3145C75.9564 65.2461 75.9928 65.1458 76.043 65.0137L73.2881 57.7402H74.6143L76.125 61.9443C76.321 62.4775 76.4964 63.0381 76.6514 63.626C76.7926 63.0609 76.9613 62.5094 77.1572 61.9717L78.709 57.7402H79.9395L77.1777 65.123C76.8815 65.9206 76.6514 66.4697 76.4873 66.7705C76.2686 67.1761 76.0179 67.4723 75.7354 67.6592C75.4528 67.8506 75.1156 67.9463 74.7236 67.9463C74.4867 67.9463 74.2223 67.8962 73.9307 67.7959ZM85.5586 62.3408L86.7686 62.498C86.6364 63.332 86.2969 63.986 85.75 64.46C85.2077 64.9294 84.54 65.1641 83.7471 65.1641C82.7536 65.1641 81.9538 64.8405 81.3477 64.1934C80.7461 63.5417 80.4453 62.6097 80.4453 61.3975C80.4453 60.6136 80.5752 59.9277 80.835 59.3398C81.0947 58.752 81.4889 58.3122 82.0176 58.0205C82.5508 57.7243 83.1296 57.5762 83.7539 57.5762C84.5423 57.5762 85.1872 57.7767 85.6885 58.1777C86.1898 58.5742 86.5111 59.1393 86.6523 59.873L85.4561 60.0576C85.3421 59.57 85.1393 59.2031 84.8477 58.957C84.5605 58.7109 84.2119 58.5879 83.8018 58.5879C83.182 58.5879 82.6784 58.8112 82.291 59.2578C81.9036 59.6999 81.71 60.4017 81.71 61.3633C81.71 62.3385 81.8968 63.0472 82.2705 63.4893C82.6442 63.9313 83.1318 64.1523 83.7334 64.1523C84.2165 64.1523 84.6198 64.0042 84.9434 63.708C85.2669 63.4118 85.472 62.9561 85.5586 62.3408ZM92.5586 64.1045C92.1029 64.4919 91.6631 64.7653 91.2393 64.9248C90.82 65.0843 90.3688 65.1641 89.8857 65.1641C89.0882 65.1641 88.4753 64.9704 88.0469 64.583C87.6185 64.1911 87.4043 63.6921 87.4043 63.0859C87.4043 62.7305 87.484 62.4069 87.6436 62.1152C87.8076 61.819 88.0195 61.582 88.2793 61.4043C88.5436 61.2266 88.8398 61.0921 89.168 61.001C89.4095 60.9372 89.7741 60.8757 90.2617 60.8164C91.2552 60.6979 91.9867 60.5566 92.4561 60.3926C92.4606 60.224 92.4629 60.1169 92.4629 60.0713C92.4629 59.57 92.3467 59.2168 92.1143 59.0117C91.7998 58.7337 91.3327 58.5947 90.7129 58.5947C90.1341 58.5947 89.7057 58.6973 89.4277 58.9023C89.1543 59.1029 88.9515 59.4606 88.8193 59.9756L87.6162 59.8115C87.7256 59.2965 87.9056 58.8818 88.1562 58.5674C88.4069 58.2484 88.7692 58.0046 89.2432 57.8359C89.7171 57.6628 90.2663 57.5762 90.8906 57.5762C91.5104 57.5762 92.014 57.6491 92.4014 57.7949C92.7887 57.9408 93.0736 58.1253 93.2559 58.3486C93.4382 58.5674 93.5658 58.8454 93.6387 59.1826C93.6797 59.3923 93.7002 59.7705 93.7002 60.3174V61.958C93.7002 63.1019 93.7253 63.8265 93.7754 64.1318C93.8301 64.4326 93.9349 64.722 94.0898 65H92.8047C92.6771 64.7448 92.5951 64.4463 92.5586 64.1045ZM92.4561 61.3564C92.0094 61.5387 91.3395 61.6937 90.4463 61.8213C89.9404 61.8942 89.5827 61.9762 89.373 62.0674C89.1634 62.1585 89.0016 62.293 88.8877 62.4707C88.7738 62.6439 88.7168 62.8376 88.7168 63.0518C88.7168 63.3799 88.8398 63.6533 89.0859 63.8721C89.3366 64.0908 89.7012 64.2002 90.1797 64.2002C90.6536 64.2002 91.0752 64.0977 91.4443 63.8926C91.8135 63.6829 92.0846 63.3981 92.2578 63.0381C92.39 62.7601 92.4561 62.3499 92.4561 61.8076V61.3564ZM95.6211 57.7402H96.8516V60.7617H100.263V57.7402H101.493V65H100.263V61.7803H96.8516V65H95.6211V57.7402Z" fill="white"/>
<path d="M105.121 119V108.979H106.447V113.094H111.656V108.979H112.982V119H111.656V114.276H106.447V119H105.121ZM119.777 118.104C119.322 118.492 118.882 118.765 118.458 118.925C118.039 119.084 117.588 119.164 117.104 119.164C116.307 119.164 115.694 118.97 115.266 118.583C114.837 118.191 114.623 117.692 114.623 117.086C114.623 116.73 114.703 116.407 114.862 116.115C115.026 115.819 115.238 115.582 115.498 115.404C115.762 115.227 116.059 115.092 116.387 115.001C116.628 114.937 116.993 114.876 117.48 114.816C118.474 114.698 119.205 114.557 119.675 114.393C119.679 114.224 119.682 114.117 119.682 114.071C119.682 113.57 119.565 113.217 119.333 113.012C119.019 112.734 118.551 112.595 117.932 112.595C117.353 112.595 116.924 112.697 116.646 112.902C116.373 113.103 116.17 113.461 116.038 113.976L114.835 113.812C114.944 113.297 115.124 112.882 115.375 112.567C115.626 112.248 115.988 112.005 116.462 111.836C116.936 111.663 117.485 111.576 118.109 111.576C118.729 111.576 119.233 111.649 119.62 111.795C120.007 111.941 120.292 112.125 120.475 112.349C120.657 112.567 120.785 112.845 120.857 113.183C120.898 113.392 120.919 113.771 120.919 114.317V115.958C120.919 117.102 120.944 117.826 120.994 118.132C121.049 118.433 121.154 118.722 121.309 119H120.023C119.896 118.745 119.814 118.446 119.777 118.104ZM119.675 115.356C119.228 115.539 118.558 115.694 117.665 115.821C117.159 115.894 116.801 115.976 116.592 116.067C116.382 116.159 116.22 116.293 116.106 116.471C115.993 116.644 115.936 116.838 115.936 117.052C115.936 117.38 116.059 117.653 116.305 117.872C116.555 118.091 116.92 118.2 117.398 118.2C117.872 118.2 118.294 118.098 118.663 117.893C119.032 117.683 119.303 117.398 119.477 117.038C119.609 116.76 119.675 116.35 119.675 115.808V115.356ZM122.84 111.74H127.017V112.759H124.07V119H122.84V111.74ZM127.174 115.37C127.174 114.026 127.548 113.03 128.295 112.383C128.919 111.845 129.68 111.576 130.578 111.576C131.576 111.576 132.392 111.904 133.025 112.561C133.659 113.212 133.976 114.115 133.976 115.268C133.976 116.202 133.834 116.938 133.552 117.476C133.274 118.009 132.866 118.424 132.328 118.72C131.795 119.016 131.212 119.164 130.578 119.164C129.562 119.164 128.739 118.838 128.11 118.187C127.486 117.535 127.174 116.596 127.174 115.37ZM128.438 115.37C128.438 116.3 128.641 116.997 129.047 117.462C129.452 117.922 129.963 118.152 130.578 118.152C131.189 118.152 131.697 117.92 132.103 117.455C132.508 116.99 132.711 116.282 132.711 115.329C132.711 114.431 132.506 113.752 132.096 113.292C131.69 112.827 131.184 112.595 130.578 112.595C129.963 112.595 129.452 112.825 129.047 113.285C128.641 113.745 128.438 114.44 128.438 115.37ZM135.425 111.74H136.655V117.277L140.066 111.74H141.393V119H140.162V113.497L136.751 119H135.425V111.74ZM139.697 108.992H140.538C140.47 109.562 140.26 109.999 139.909 110.305C139.563 110.61 139.1 110.763 138.521 110.763C137.938 110.763 137.471 110.612 137.12 110.312C136.774 110.006 136.566 109.566 136.498 108.992H137.339C137.403 109.302 137.528 109.535 137.715 109.689C137.906 109.84 138.161 109.915 138.48 109.915C138.85 109.915 139.128 109.842 139.314 109.696C139.506 109.546 139.633 109.311 139.697 108.992ZM148.96 111.74V119H147.736V116.17H147.025C146.592 116.17 146.269 116.227 146.055 116.341C145.845 116.45 145.537 116.808 145.132 117.414L144.059 119H142.534L143.86 117.045C144.266 116.448 144.669 116.111 145.07 116.033C144.368 115.938 143.847 115.685 143.505 115.274C143.168 114.864 142.999 114.393 142.999 113.859C142.999 113.23 143.22 112.72 143.662 112.328C144.109 111.936 144.754 111.74 145.597 111.74H148.96ZM147.736 112.759H145.986C145.253 112.759 144.779 112.873 144.564 113.101C144.355 113.328 144.25 113.595 144.25 113.9C144.25 114.333 144.405 114.652 144.715 114.857C145.029 115.058 145.583 115.158 146.376 115.158H147.736V112.759Z" fill="white"/>
<path d="M188.062 60L191.938 54.7773L188.52 49.9785H190.099L191.917 52.5488C192.295 53.082 192.564 53.4922 192.724 53.7793C192.947 53.4147 193.211 53.0342 193.517 52.6377L195.533 49.9785H196.976L193.455 54.7021L197.249 60H195.608L193.086 56.4248C192.945 56.2197 192.799 55.9964 192.648 55.7549C192.425 56.1195 192.266 56.3701 192.17 56.5068L189.654 60H188.062ZM198.261 52.7402H199.491V58.2773L202.902 52.7402H204.229V60H202.998V54.4971L199.587 60H198.261V52.7402ZM205.418 52.7402H211.317V53.7588H208.979V60H207.756V53.7588H205.418V52.7402ZM217.066 59.1045C216.611 59.4919 216.171 59.7653 215.747 59.9248C215.328 60.0843 214.877 60.1641 214.394 60.1641C213.596 60.1641 212.983 59.9704 212.555 59.583C212.126 59.1911 211.912 58.6921 211.912 58.0859C211.912 57.7305 211.992 57.4069 212.151 57.1152C212.315 56.819 212.527 56.582 212.787 56.4043C213.051 56.2266 213.348 56.0921 213.676 56.001C213.917 55.9372 214.282 55.8757 214.77 55.8164C215.763 55.6979 216.494 55.5566 216.964 55.3926C216.968 55.224 216.971 55.1169 216.971 55.0713C216.971 54.57 216.854 54.2168 216.622 54.0117C216.308 53.7337 215.84 53.5947 215.221 53.5947C214.642 53.5947 214.214 53.6973 213.936 53.9023C213.662 54.1029 213.459 54.4606 213.327 54.9756L212.124 54.8115C212.233 54.2965 212.413 53.8818 212.664 53.5674C212.915 53.2484 213.277 53.0046 213.751 52.8359C214.225 52.6628 214.774 52.5762 215.398 52.5762C216.018 52.5762 216.522 52.6491 216.909 52.7949C217.297 52.9408 217.581 53.1253 217.764 53.3486C217.946 53.5674 218.074 53.8454 218.146 54.1826C218.188 54.3923 218.208 54.7705 218.208 55.3174V56.958C218.208 58.1019 218.233 58.8265 218.283 59.1318C218.338 59.4326 218.443 59.722 218.598 60H217.312C217.185 59.7448 217.103 59.4463 217.066 59.1045ZM216.964 56.3564C216.517 56.5387 215.847 56.6937 214.954 56.8213C214.448 56.8942 214.09 56.9762 213.881 57.0674C213.671 57.1585 213.509 57.293 213.396 57.4707C213.282 57.6439 213.225 57.8376 213.225 58.0518C213.225 58.3799 213.348 58.6533 213.594 58.8721C213.844 59.0908 214.209 59.2002 214.688 59.2002C215.161 59.2002 215.583 59.0977 215.952 58.8926C216.321 58.6829 216.592 58.3981 216.766 58.0381C216.898 57.7601 216.964 57.3499 216.964 56.8076V56.3564ZM219.145 52.7402H225.044V53.7588H222.706V60H221.482V53.7588H219.145V52.7402ZM226.22 52.7402H227.45V58.2773L230.861 52.7402H232.188V60H230.957V54.4971L227.546 60H226.22V52.7402ZM234.047 52.7402H235.277V55.7617H238.688V52.7402H239.919V60H238.688V56.7803H235.277V60H234.047V52.7402ZM246.516 59.1045C246.06 59.4919 245.62 59.7653 245.196 59.9248C244.777 60.0843 244.326 60.1641 243.843 60.1641C243.045 60.1641 242.432 59.9704 242.004 59.583C241.576 59.1911 241.361 58.6921 241.361 58.0859C241.361 57.7305 241.441 57.4069 241.601 57.1152C241.765 56.819 241.977 56.582 242.236 56.4043C242.501 56.2266 242.797 56.0921 243.125 56.001C243.367 55.9372 243.731 55.8757 244.219 55.8164C245.212 55.6979 245.944 55.5566 246.413 55.3926C246.418 55.224 246.42 55.1169 246.42 55.0713C246.42 54.57 246.304 54.2168 246.071 54.0117C245.757 53.7337 245.29 53.5947 244.67 53.5947C244.091 53.5947 243.663 53.6973 243.385 53.9023C243.111 54.1029 242.909 54.4606 242.776 54.9756L241.573 54.8115C241.683 54.2965 241.863 53.8818 242.113 53.5674C242.364 53.2484 242.726 53.0046 243.2 52.8359C243.674 52.6628 244.223 52.5762 244.848 52.5762C245.467 52.5762 245.971 52.6491 246.358 52.7949C246.746 52.9408 247.031 53.1253 247.213 53.3486C247.395 53.5674 247.523 53.8454 247.596 54.1826C247.637 54.3923 247.657 54.7705 247.657 55.3174V56.958C247.657 58.1019 247.682 58.8265 247.732 59.1318C247.787 59.4326 247.892 59.722 248.047 60H246.762C246.634 59.7448 246.552 59.4463 246.516 59.1045ZM246.413 56.3564C245.966 56.5387 245.297 56.6937 244.403 56.8213C243.897 56.8942 243.54 56.9762 243.33 57.0674C243.12 57.1585 242.959 57.293 242.845 57.4707C242.731 57.6439 242.674 57.8376 242.674 58.0518C242.674 58.3799 242.797 58.6533 243.043 58.8721C243.294 59.0908 243.658 59.2002 244.137 59.2002C244.611 59.2002 245.032 59.0977 245.401 58.8926C245.771 58.6829 246.042 58.3981 246.215 58.0381C246.347 57.7601 246.413 57.3499 246.413 56.8076V56.3564ZM249.564 52.7402H250.795V55.8779C251.187 55.8779 251.46 55.8027 251.615 55.6523C251.775 55.502 252.007 55.0645 252.312 54.3398C252.554 53.7656 252.75 53.3874 252.9 53.2051C253.051 53.0228 253.224 52.8997 253.42 52.8359C253.616 52.7721 253.93 52.7402 254.363 52.7402H254.609V53.7588L254.268 53.752C253.944 53.752 253.737 53.7998 253.646 53.8955C253.55 53.9958 253.404 54.2943 253.208 54.791C253.021 55.265 252.85 55.5931 252.695 55.7754C252.54 55.9577 252.301 56.124 251.978 56.2744C252.506 56.4157 253.026 56.9079 253.536 57.751L254.883 60H253.529L252.217 57.751C251.948 57.2998 251.713 57.0036 251.513 56.8623C251.312 56.7165 251.073 56.6436 250.795 56.6436V60H249.564V52.7402ZM260.748 59.1045C260.292 59.4919 259.853 59.7653 259.429 59.9248C259.009 60.0843 258.558 60.1641 258.075 60.1641C257.278 60.1641 256.665 59.9704 256.236 59.583C255.808 59.1911 255.594 58.6921 255.594 58.0859C255.594 57.7305 255.674 57.4069 255.833 57.1152C255.997 56.819 256.209 56.582 256.469 56.4043C256.733 56.2266 257.029 56.0921 257.357 56.001C257.599 55.9372 257.964 55.8757 258.451 55.8164C259.445 55.6979 260.176 55.5566 260.646 55.3926C260.65 55.224 260.652 55.1169 260.652 55.0713C260.652 54.57 260.536 54.2168 260.304 54.0117C259.989 53.7337 259.522 53.5947 258.902 53.5947C258.324 53.5947 257.895 53.6973 257.617 53.9023C257.344 54.1029 257.141 54.4606 257.009 54.9756L255.806 54.8115C255.915 54.2965 256.095 53.8818 256.346 53.5674C256.596 53.2484 256.959 53.0046 257.433 52.8359C257.907 52.6628 258.456 52.5762 259.08 52.5762C259.7 52.5762 260.203 52.6491 260.591 52.7949C260.978 52.9408 261.263 53.1253 261.445 53.3486C261.628 53.5674 261.755 53.8454 261.828 54.1826C261.869 54.3923 261.89 54.7705 261.89 55.3174V56.958C261.89 58.1019 261.915 58.8265 261.965 59.1318C262.02 59.4326 262.124 59.722 262.279 60H260.994C260.867 59.7448 260.785 59.4463 260.748 59.1045ZM260.646 56.3564C260.199 56.5387 259.529 56.6937 258.636 56.8213C258.13 56.8942 257.772 56.9762 257.562 57.0674C257.353 57.1585 257.191 57.293 257.077 57.4707C256.963 57.6439 256.906 57.8376 256.906 58.0518C256.906 58.3799 257.029 58.6533 257.275 58.8721C257.526 59.0908 257.891 59.2002 258.369 59.2002C258.843 59.2002 259.265 59.0977 259.634 58.8926C260.003 58.6829 260.274 58.3981 260.447 58.0381C260.579 57.7601 260.646 57.3499 260.646 56.8076V56.3564Z" fill="white"/>
<path d="M186.101 72.9785H187.304V80.915L192.636 72.9785H193.969V83H192.766V75.084L187.427 83H186.101V72.9785ZM191.084 70.5928H191.925C191.856 71.1624 191.647 71.5999 191.296 71.9053C190.95 72.2106 190.487 72.3633 189.908 72.3633C189.325 72.3633 188.858 72.2129 188.507 71.9121C188.16 71.6068 187.953 71.167 187.885 70.5928H188.726C188.789 70.9027 188.915 71.1351 189.102 71.29C189.293 71.4404 189.548 71.5156 189.867 71.5156C190.236 71.5156 190.514 71.4427 190.701 71.2969C190.893 71.1465 191.02 70.9118 191.084 70.5928ZM195.527 79.3701C195.527 78.0257 195.901 77.0299 196.648 76.3828C197.273 75.8451 198.034 75.5762 198.932 75.5762C199.93 75.5762 200.745 75.9043 201.379 76.5605C202.012 77.2122 202.329 78.1146 202.329 79.2676C202.329 80.2018 202.188 80.9378 201.905 81.4756C201.627 82.0088 201.219 82.4235 200.682 82.7197C200.148 83.016 199.565 83.1641 198.932 83.1641C197.915 83.1641 197.093 82.8382 196.464 82.1865C195.84 81.5348 195.527 80.596 195.527 79.3701ZM196.792 79.3701C196.792 80.2998 196.995 80.9971 197.4 81.4619C197.806 81.9222 198.316 82.1523 198.932 82.1523C199.542 82.1523 200.05 81.9199 200.456 81.4551C200.862 80.9902 201.064 80.2816 201.064 79.3291C201.064 78.4313 200.859 77.7523 200.449 77.292C200.044 76.8271 199.538 76.5947 198.932 76.5947C198.316 76.5947 197.806 76.8249 197.4 77.2852C196.995 77.7454 196.792 78.4404 196.792 79.3701ZM203.771 75.7402H205.002V78.8779C205.394 78.8779 205.667 78.8027 205.822 78.6523C205.982 78.502 206.214 78.0645 206.52 77.3398C206.761 76.7656 206.957 76.3874 207.107 76.2051C207.258 76.0228 207.431 75.8997 207.627 75.8359C207.823 75.7721 208.137 75.7402 208.57 75.7402H208.816V76.7588L208.475 76.752C208.151 76.752 207.944 76.7998 207.853 76.8955C207.757 76.9958 207.611 77.2943 207.415 77.791C207.228 78.265 207.057 78.5931 206.902 78.7754C206.747 78.9577 206.508 79.124 206.185 79.2744C206.713 79.4157 207.233 79.9079 207.743 80.751L209.09 83H207.736L206.424 80.751C206.155 80.2998 205.92 80.0036 205.72 79.8623C205.519 79.7165 205.28 79.6436 205.002 79.6436V83H203.771V75.7402ZM209.609 79.3701C209.609 78.0257 209.983 77.0299 210.73 76.3828C211.355 75.8451 212.116 75.5762 213.014 75.5762C214.012 75.5762 214.827 75.9043 215.461 76.5605C216.094 77.2122 216.411 78.1146 216.411 79.2676C216.411 80.2018 216.27 80.9378 215.987 81.4756C215.709 82.0088 215.301 82.4235 214.764 82.7197C214.23 83.016 213.647 83.1641 213.014 83.1641C211.997 83.1641 211.175 82.8382 210.546 82.1865C209.922 81.5348 209.609 80.596 209.609 79.3701ZM210.874 79.3701C210.874 80.2998 211.077 80.9971 211.482 81.4619C211.888 81.9222 212.398 82.1523 213.014 82.1523C213.624 82.1523 214.132 81.9199 214.538 81.4551C214.944 80.9902 215.146 80.2816 215.146 79.3291C215.146 78.4313 214.941 77.7523 214.531 77.292C214.126 76.8271 213.62 76.5947 213.014 76.5947C212.398 76.5947 211.888 76.8249 211.482 77.2852C211.077 77.7454 210.874 78.4404 210.874 79.3701ZM217.867 75.7402H222.044V76.7588H219.098V83H217.867V75.7402ZM227.396 82.1045C226.941 82.4919 226.501 82.7653 226.077 82.9248C225.658 83.0843 225.207 83.1641 224.724 83.1641C223.926 83.1641 223.313 82.9704 222.885 82.583C222.456 82.1911 222.242 81.6921 222.242 81.0859C222.242 80.7305 222.322 80.4069 222.481 80.1152C222.646 79.819 222.857 79.582 223.117 79.4043C223.382 79.2266 223.678 79.0921 224.006 79.001C224.247 78.9372 224.612 78.8757 225.1 78.8164C226.093 78.6979 226.825 78.5566 227.294 78.3926C227.299 78.224 227.301 78.1169 227.301 78.0713C227.301 77.57 227.185 77.2168 226.952 77.0117C226.638 76.7337 226.171 76.5947 225.551 76.5947C224.972 76.5947 224.544 76.6973 224.266 76.9023C223.992 77.1029 223.789 77.4606 223.657 77.9756L222.454 77.8115C222.563 77.2965 222.743 76.8818 222.994 76.5674C223.245 76.2484 223.607 76.0046 224.081 75.8359C224.555 75.6628 225.104 75.5762 225.729 75.5762C226.348 75.5762 226.852 75.6491 227.239 75.7949C227.627 75.9408 227.911 76.1253 228.094 76.3486C228.276 76.5674 228.404 76.8454 228.477 77.1826C228.518 77.3923 228.538 77.7705 228.538 78.3174V79.958C228.538 81.1019 228.563 81.8265 228.613 82.1318C228.668 82.4326 228.773 82.722 228.928 83H227.643C227.515 82.7448 227.433 82.4463 227.396 82.1045ZM227.294 79.3564C226.847 79.5387 226.177 79.6937 225.284 79.8213C224.778 79.8942 224.421 79.9762 224.211 80.0674C224.001 80.1585 223.84 80.293 223.726 80.4707C223.612 80.6439 223.555 80.8376 223.555 81.0518C223.555 81.3799 223.678 81.6533 223.924 81.8721C224.174 82.0908 224.539 82.2002 225.018 82.2002C225.492 82.2002 225.913 82.0977 226.282 81.8926C226.651 81.6829 226.923 81.3981 227.096 81.0381C227.228 80.7601 227.294 80.3499 227.294 79.8076V79.3564ZM230.486 75.7402H232.4L234.308 81.5508L236.427 75.7402H238.197V83H236.967V77.1553L234.82 83H233.72L231.689 76.875V83H230.486V75.7402ZM244.814 82.1045C244.359 82.4919 243.919 82.7653 243.495 82.9248C243.076 83.0843 242.625 83.1641 242.142 83.1641C241.344 83.1641 240.731 82.9704 240.303 82.583C239.874 82.1911 239.66 81.6921 239.66 81.0859C239.66 80.7305 239.74 80.4069 239.899 80.1152C240.063 79.819 240.275 79.582 240.535 79.4043C240.799 79.2266 241.096 79.0921 241.424 79.001C241.665 78.9372 242.03 78.8757 242.518 78.8164C243.511 78.6979 244.243 78.5566 244.712 78.3926C244.716 78.224 244.719 78.1169 244.719 78.0713C244.719 77.57 244.603 77.2168 244.37 77.0117C244.056 76.7337 243.589 76.5947 242.969 76.5947C242.39 76.5947 241.962 76.6973 241.684 76.9023C241.41 77.1029 241.207 77.4606 241.075 77.9756L239.872 77.8115C239.981 77.2965 240.161 76.8818 240.412 76.5674C240.663 76.2484 241.025 76.0046 241.499 75.8359C241.973 75.6628 242.522 75.5762 243.146 75.5762C243.766 75.5762 244.27 75.6491 244.657 75.7949C245.045 75.9408 245.329 76.1253 245.512 76.3486C245.694 76.5674 245.822 76.8454 245.895 77.1826C245.936 77.3923 245.956 77.7705 245.956 78.3174V79.958C245.956 81.1019 245.981 81.8265 246.031 82.1318C246.086 82.4326 246.191 82.722 246.346 83H245.061C244.933 82.7448 244.851 82.4463 244.814 82.1045ZM244.712 79.3564C244.265 79.5387 243.595 79.6937 242.702 79.8213C242.196 79.8942 241.839 79.9762 241.629 80.0674C241.419 80.1585 241.257 80.293 241.144 80.4707C241.03 80.6439 240.973 80.8376 240.973 81.0518C240.973 81.3799 241.096 81.6533 241.342 81.8721C241.592 82.0908 241.957 82.2002 242.436 82.2002C242.91 82.2002 243.331 82.0977 243.7 81.8926C244.069 81.6829 244.34 81.3981 244.514 81.0381C244.646 80.7601 244.712 80.3499 244.712 79.8076V79.3564Z" fill="white"/>
<path d="M107.101 68.9785H108.427V73.3672C109.033 73.3672 109.459 73.251 109.705 73.0186C109.951 72.7816 110.266 72.2165 110.648 71.3232C110.926 70.667 111.154 70.2044 111.332 69.9355C111.514 69.6621 111.772 69.4342 112.104 69.252C112.437 69.0651 112.804 68.9717 113.205 68.9717C113.715 68.9717 113.984 68.9762 114.012 68.9854V70.1338C113.966 70.1338 113.877 70.1315 113.745 70.127C113.599 70.1224 113.51 70.1201 113.479 70.1201C113.055 70.1201 112.74 70.2227 112.535 70.4277C112.326 70.6328 112.086 71.0703 111.817 71.7402C111.48 72.5879 111.195 73.1234 110.963 73.3467C110.73 73.5654 110.452 73.7409 110.129 73.873C110.776 74.0508 111.414 74.6478 112.043 75.6641L114.107 79H112.46L110.785 76.2793C110.325 75.5273 109.94 75.0124 109.63 74.7344C109.32 74.4518 108.919 74.3105 108.427 74.3105V79H107.101V68.9785ZM114.627 75.3701C114.627 74.0257 115.001 73.0299 115.748 72.3828C116.372 71.8451 117.133 71.5762 118.031 71.5762C119.029 71.5762 119.845 71.9043 120.479 72.5605C121.112 73.2122 121.429 74.1146 121.429 75.2676C121.429 76.2018 121.287 76.9378 121.005 77.4756C120.727 78.0088 120.319 78.4235 119.781 78.7197C119.248 79.016 118.665 79.1641 118.031 79.1641C117.015 79.1641 116.192 78.8382 115.563 78.1865C114.939 77.5348 114.627 76.596 114.627 75.3701ZM115.892 75.3701C115.892 76.2998 116.094 76.9971 116.5 77.4619C116.906 77.9222 117.416 78.1523 118.031 78.1523C118.642 78.1523 119.15 77.9199 119.556 77.4551C119.961 76.9902 120.164 76.2816 120.164 75.3291C120.164 74.4313 119.959 73.7523 119.549 73.292C119.143 72.8271 118.637 72.5947 118.031 72.5947C117.416 72.5947 116.906 72.8249 116.5 73.2852C116.094 73.7454 115.892 74.4404 115.892 75.3701ZM128.196 68.7393L129.283 68.7529C129.233 69.2406 129.124 69.5801 128.955 69.7715C128.791 69.9629 128.577 70.0859 128.312 70.1406C128.053 70.1953 127.54 70.2227 126.774 70.2227C125.758 70.2227 125.065 70.3206 124.696 70.5166C124.327 70.7126 124.061 71.027 123.896 71.46C123.737 71.8883 123.648 72.4421 123.63 73.1211C123.94 72.6608 124.302 72.3167 124.717 72.0889C125.132 71.8564 125.599 71.7402 126.118 71.7402C127.071 71.7402 127.859 72.0684 128.483 72.7246C129.108 73.3763 129.42 74.2604 129.42 75.377C129.42 76.2246 129.263 76.9196 128.948 77.4619C128.634 78.0042 128.26 78.4235 127.827 78.7197C127.399 79.016 126.813 79.1641 126.07 79.1641C125.209 79.1641 124.539 78.9681 124.061 78.5762C123.582 78.1797 123.215 77.6738 122.96 77.0586C122.705 76.4434 122.577 75.3724 122.577 73.8457C122.577 71.9271 122.901 70.6351 123.548 69.9697C124.2 69.3044 125.2 68.9717 126.549 68.9717C127.387 68.9717 127.864 68.958 127.978 68.9307C128.091 68.9033 128.164 68.8395 128.196 68.7393ZM128.135 75.3428C128.135 74.5863 127.955 73.9665 127.595 73.4834C127.239 73.0003 126.736 72.7588 126.084 72.7588C125.405 72.7588 124.881 73.014 124.512 73.5244C124.143 74.0348 123.958 74.7161 123.958 75.5684C123.958 76.4115 124.161 77.0563 124.566 77.5029C124.977 77.9495 125.48 78.1729 126.077 78.1729C126.688 78.1729 127.182 77.9154 127.561 77.4004C127.943 76.8809 128.135 76.195 128.135 75.3428ZM135.709 76.6621L136.98 76.8193C136.78 77.5622 136.409 78.1387 135.866 78.5488C135.324 78.959 134.631 79.1641 133.788 79.1641C132.726 79.1641 131.883 78.8382 131.259 78.1865C130.639 77.5303 130.329 76.612 130.329 75.4316C130.329 74.2103 130.644 73.2624 131.272 72.5879C131.901 71.9134 132.717 71.5762 133.72 71.5762C134.69 71.5762 135.483 71.9066 136.099 72.5674C136.714 73.2282 137.021 74.1579 137.021 75.3564C137.021 75.4294 137.019 75.5387 137.015 75.6846H131.601C131.646 76.4821 131.872 77.0928 132.277 77.5166C132.683 77.9404 133.189 78.1523 133.795 78.1523C134.246 78.1523 134.631 78.0339 134.95 77.7969C135.269 77.5599 135.522 77.1816 135.709 76.6621ZM131.669 74.6729H135.723C135.668 74.0622 135.513 73.6042 135.258 73.2988C134.866 72.8249 134.358 72.5879 133.733 72.5879C133.168 72.5879 132.692 72.777 132.305 73.1553C131.922 73.5335 131.71 74.0394 131.669 74.6729Z" fill="white"/>
<g filter="url(#filter4_d_5077_52593)">
<circle cx="109" cy="65" r="2" fill="#0C99CF"/>
<circle cx="109" cy="65" r="2.5" stroke="white"/>
</g>
<path d="M1.10059 73.9785H2.42676V82.8174H5.75586V73.9785H7.08203V82.8174H10.4111V73.9785H11.7373V84H1.10059V73.9785ZM18.498 83.1045C18.0423 83.4919 17.6025 83.7653 17.1787 83.9248C16.7594 84.0843 16.3083 84.1641 15.8252 84.1641C15.0277 84.1641 14.4147 83.9704 13.9863 83.583C13.5579 83.1911 13.3438 82.6921 13.3438 82.0859C13.3438 81.7305 13.4235 81.4069 13.583 81.1152C13.7471 80.819 13.959 80.582 14.2188 80.4043C14.4831 80.2266 14.7793 80.0921 15.1074 80.001C15.349 79.9372 15.7135 79.8757 16.2012 79.8164C17.1947 79.6979 17.9261 79.5566 18.3955 79.3926C18.4001 79.224 18.4023 79.1169 18.4023 79.0713C18.4023 78.57 18.2861 78.2168 18.0537 78.0117C17.7393 77.7337 17.2721 77.5947 16.6523 77.5947C16.0736 77.5947 15.6452 77.6973 15.3672 77.9023C15.0938 78.1029 14.891 78.4606 14.7588 78.9756L13.5557 78.8115C13.665 78.2965 13.8451 77.8818 14.0957 77.5674C14.3464 77.2484 14.7087 77.0046 15.1826 76.8359C15.6566 76.6628 16.2057 76.5762 16.8301 76.5762C17.4499 76.5762 17.9535 76.6491 18.3408 76.7949C18.7282 76.9408 19.013 77.1253 19.1953 77.3486C19.3776 77.5674 19.5052 77.8454 19.5781 78.1826C19.6191 78.3923 19.6396 78.7705 19.6396 79.3174V80.958C19.6396 82.1019 19.6647 82.8265 19.7148 83.1318C19.7695 83.4326 19.8743 83.722 20.0293 84H18.7441C18.6165 83.7448 18.5345 83.4463 18.498 83.1045ZM18.3955 80.3564C17.9489 80.5387 17.279 80.6937 16.3857 80.8213C15.8799 80.8942 15.5221 80.9762 15.3125 81.0674C15.1029 81.1585 14.9411 81.293 14.8271 81.4707C14.7132 81.6439 14.6562 81.8376 14.6562 82.0518C14.6562 82.3799 14.7793 82.6533 15.0254 82.8721C15.276 83.0908 15.6406 83.2002 16.1191 83.2002C16.5931 83.2002 17.0146 83.0977 17.3838 82.8926C17.7529 82.6829 18.0241 82.3981 18.1973 82.0381C18.3294 81.7601 18.3955 81.3499 18.3955 80.8076V80.3564ZM21.5605 76.7402H22.791V79.7617H26.2021V76.7402H27.4326V84H26.2021V80.7803H22.791V84H21.5605V76.7402ZM28.4717 84L31.124 80.2266L28.6699 76.7402H30.208L31.3223 78.4424C31.5319 78.766 31.7005 79.0371 31.8281 79.2559C32.0286 78.9551 32.2132 78.6885 32.3818 78.4561L33.6055 76.7402H35.0752L32.5664 80.1582L35.2666 84H33.7559L32.2656 81.7441L31.8691 81.1357L29.9619 84H28.4717ZM40.8652 83.1045C40.4095 83.4919 39.9697 83.7653 39.5459 83.9248C39.1266 84.0843 38.6755 84.1641 38.1924 84.1641C37.3949 84.1641 36.7819 83.9704 36.3535 83.583C35.9251 83.1911 35.7109 82.6921 35.7109 82.0859C35.7109 81.7305 35.7907 81.4069 35.9502 81.1152C36.1143 80.819 36.3262 80.582 36.5859 80.4043C36.8503 80.2266 37.1465 80.0921 37.4746 80.001C37.7161 79.9372 38.0807 79.8757 38.5684 79.8164C39.5618 79.6979 40.2933 79.5566 40.7627 79.3926C40.7673 79.224 40.7695 79.1169 40.7695 79.0713C40.7695 78.57 40.6533 78.2168 40.4209 78.0117C40.1064 77.7337 39.6393 77.5947 39.0195 77.5947C38.4408 77.5947 38.0124 77.6973 37.7344 77.9023C37.4609 78.1029 37.2581 78.4606 37.126 78.9756L35.9229 78.8115C36.0322 78.2965 36.2122 77.8818 36.4629 77.5674C36.7135 77.2484 37.0758 77.0046 37.5498 76.8359C38.0238 76.6628 38.5729 76.5762 39.1973 76.5762C39.8171 76.5762 40.3206 76.6491 40.708 76.7949C41.0954 76.9408 41.3802 77.1253 41.5625 77.3486C41.7448 77.5674 41.8724 77.8454 41.9453 78.1826C41.9863 78.3923 42.0068 78.7705 42.0068 79.3174V80.958C42.0068 82.1019 42.0319 82.8265 42.082 83.1318C42.1367 83.4326 42.2415 83.722 42.3965 84H41.1113C40.9837 83.7448 40.9017 83.4463 40.8652 83.1045ZM40.7627 80.3564C40.3161 80.5387 39.6462 80.6937 38.7529 80.8213C38.2471 80.8942 37.8893 80.9762 37.6797 81.0674C37.4701 81.1585 37.3083 81.293 37.1943 81.4707C37.0804 81.6439 37.0234 81.8376 37.0234 82.0518C37.0234 82.3799 37.1465 82.6533 37.3926 82.8721C37.6432 83.0908 38.0078 83.2002 38.4863 83.2002C38.9603 83.2002 39.3818 83.0977 39.751 82.8926C40.1201 82.6829 40.3913 82.3981 40.5645 82.0381C40.6966 81.7601 40.7627 81.3499 40.7627 80.8076V80.3564ZM43.9209 76.7402H45.1514V82.2773L48.5625 76.7402H49.8887V84H48.6582V78.4971L45.2471 84H43.9209V76.7402ZM48.1934 73.9922H49.0342C48.9658 74.5618 48.7562 74.9993 48.4053 75.3047C48.0589 75.61 47.5964 75.7627 47.0176 75.7627C46.4342 75.7627 45.9671 75.6123 45.6162 75.3115C45.2699 75.0062 45.0625 74.5664 44.9941 73.9922H45.835C45.8988 74.3021 46.0241 74.5345 46.2109 74.6895C46.4023 74.8398 46.6576 74.915 46.9766 74.915C47.3457 74.915 47.6237 74.8421 47.8105 74.6963C48.002 74.5459 48.1296 74.3112 48.1934 73.9922Z" fill="white"/>
<g filter="url(#filter5_d_5077_52593)">
<circle cx="62" cy="81" r="2" fill="#0C99CF"/>
<circle cx="62" cy="81" r="2.5" stroke="white"/>
</g>
<path d="M152.121 14V3.97852H153.447V8.09375H158.656V3.97852H159.982V14H158.656V9.27637H153.447V14H152.121ZM166.777 13.1045C166.322 13.4919 165.882 13.7653 165.458 13.9248C165.039 14.0843 164.588 14.1641 164.104 14.1641C163.307 14.1641 162.694 13.9704 162.266 13.583C161.837 13.1911 161.623 12.6921 161.623 12.0859C161.623 11.7305 161.703 11.4069 161.862 11.1152C162.026 10.819 162.238 10.582 162.498 10.4043C162.762 10.2266 163.059 10.0921 163.387 10.001C163.628 9.93717 163.993 9.87565 164.48 9.81641C165.474 9.69792 166.205 9.55664 166.675 9.39258C166.679 9.22396 166.682 9.11686 166.682 9.07129C166.682 8.56999 166.565 8.2168 166.333 8.01172C166.019 7.73372 165.551 7.59473 164.932 7.59473C164.353 7.59473 163.924 7.69727 163.646 7.90234C163.373 8.10286 163.17 8.46061 163.038 8.97559L161.835 8.81152C161.944 8.29655 162.124 7.88184 162.375 7.56738C162.626 7.24837 162.988 7.00456 163.462 6.83594C163.936 6.66276 164.485 6.57617 165.109 6.57617C165.729 6.57617 166.233 6.64909 166.62 6.79492C167.007 6.94076 167.292 7.12533 167.475 7.34863C167.657 7.56738 167.785 7.84538 167.857 8.18262C167.898 8.39225 167.919 8.77051 167.919 9.31738V10.958C167.919 12.1019 167.944 12.8265 167.994 13.1318C168.049 13.4326 168.154 13.722 168.309 14H167.023C166.896 13.7448 166.814 13.4463 166.777 13.1045ZM166.675 10.3564C166.228 10.5387 165.558 10.6937 164.665 10.8213C164.159 10.8942 163.801 10.9762 163.592 11.0674C163.382 11.1585 163.22 11.293 163.106 11.4707C162.993 11.6439 162.936 11.8376 162.936 12.0518C162.936 12.3799 163.059 12.6533 163.305 12.8721C163.555 13.0908 163.92 13.2002 164.398 13.2002C164.872 13.2002 165.294 13.0977 165.663 12.8926C166.032 12.6829 166.303 12.3981 166.477 12.0381C166.609 11.7601 166.675 11.3499 166.675 10.8076V10.3564ZM169.013 14L171.665 10.2266L169.211 6.74023H170.749L171.863 8.44238C172.073 8.76595 172.242 9.03711 172.369 9.25586C172.57 8.95508 172.754 8.68848 172.923 8.45605L174.146 6.74023H175.616L173.107 10.1582L175.808 14H174.297L172.807 11.7441L172.41 11.1357L170.503 14H169.013ZM176.211 10.3701C176.211 9.02572 176.585 8.02995 177.332 7.38281C177.956 6.84505 178.717 6.57617 179.615 6.57617C180.613 6.57617 181.429 6.9043 182.062 7.56055C182.696 8.21224 183.013 9.11458 183.013 10.2676C183.013 11.2018 182.871 11.9378 182.589 12.4756C182.311 13.0088 181.903 13.4235 181.365 13.7197C180.832 14.016 180.249 14.1641 179.615 14.1641C178.599 14.1641 177.776 13.8382 177.147 13.1865C176.523 12.5348 176.211 11.596 176.211 10.3701ZM177.476 10.3701C177.476 11.2998 177.678 11.9971 178.084 12.4619C178.49 12.9222 179 13.1523 179.615 13.1523C180.226 13.1523 180.734 12.9199 181.14 12.4551C181.545 11.9902 181.748 11.2816 181.748 10.3291C181.748 9.43132 181.543 8.75228 181.133 8.29199C180.727 7.82715 180.221 7.59473 179.615 7.59473C179 7.59473 178.49 7.82487 178.084 8.28516C177.678 8.74544 177.476 9.44043 177.476 10.3701ZM185.118 6.74023H190.177V12.9883H190.963V16.0576H189.951V14H184.236V16.0576H183.225V12.9883H183.874C184.74 11.8125 185.155 9.72982 185.118 6.74023ZM186.144 7.75879C186.052 10.1149 185.688 11.8581 185.05 12.9883H188.953V7.75879H186.144ZM192.316 6.74023H193.547V9.87793C193.939 9.87793 194.212 9.80273 194.367 9.65234C194.527 9.50195 194.759 9.06445 195.064 8.33984C195.306 7.76562 195.502 7.38737 195.652 7.20508C195.803 7.02279 195.976 6.89974 196.172 6.83594C196.368 6.77214 196.682 6.74023 197.115 6.74023H197.361V7.75879L197.02 7.75195C196.696 7.75195 196.489 7.7998 196.397 7.89551C196.302 7.99577 196.156 8.29427 195.96 8.79102C195.773 9.26497 195.602 9.5931 195.447 9.77539C195.292 9.95768 195.053 10.124 194.729 10.2744C195.258 10.4157 195.778 10.9079 196.288 11.751L197.635 14H196.281L194.969 11.751C194.7 11.2998 194.465 11.0036 194.265 10.8623C194.064 10.7165 193.825 10.6436 193.547 10.6436V14H192.316V6.74023ZM203.5 13.1045C203.044 13.4919 202.604 13.7653 202.181 13.9248C201.761 14.0843 201.31 14.1641 200.827 14.1641C200.03 14.1641 199.417 13.9704 198.988 13.583C198.56 13.1911 198.346 12.6921 198.346 12.0859C198.346 11.7305 198.425 11.4069 198.585 11.1152C198.749 10.819 198.961 10.582 199.221 10.4043C199.485 10.2266 199.781 10.0921 200.109 10.001C200.351 9.93717 200.715 9.87565 201.203 9.81641C202.197 9.69792 202.928 9.55664 203.397 9.39258C203.402 9.22396 203.404 9.11686 203.404 9.07129C203.404 8.56999 203.288 8.2168 203.056 8.01172C202.741 7.73372 202.274 7.59473 201.654 7.59473C201.076 7.59473 200.647 7.69727 200.369 7.90234C200.096 8.10286 199.893 8.46061 199.761 8.97559L198.558 8.81152C198.667 8.29655 198.847 7.88184 199.098 7.56738C199.348 7.24837 199.711 7.00456 200.185 6.83594C200.659 6.66276 201.208 6.57617 201.832 6.57617C202.452 6.57617 202.955 6.64909 203.343 6.79492C203.73 6.94076 204.015 7.12533 204.197 7.34863C204.38 7.56738 204.507 7.84538 204.58 8.18262C204.621 8.39225 204.642 8.77051 204.642 9.31738V10.958C204.642 12.1019 204.667 12.8265 204.717 13.1318C204.771 13.4326 204.876 13.722 205.031 14H203.746C203.618 13.7448 203.536 13.4463 203.5 13.1045ZM203.397 10.3564C202.951 10.5387 202.281 10.6937 201.388 10.8213C200.882 10.8942 200.524 10.9762 200.314 11.0674C200.105 11.1585 199.943 11.293 199.829 11.4707C199.715 11.6439 199.658 11.8376 199.658 12.0518C199.658 12.3799 199.781 12.6533 200.027 12.8721C200.278 13.0908 200.643 13.2002 201.121 13.2002C201.595 13.2002 202.017 13.0977 202.386 12.8926C202.755 12.6829 203.026 12.3981 203.199 12.0381C203.331 11.7601 203.397 11.3499 203.397 10.8076V10.3564Z" fill="white"/>
<path d="M150 22.4999C149.172 23.2509 143 31.9999 136.5 21.9999" stroke="#87A4BC" stroke-miterlimit="3.99393" stroke-linecap="round" stroke-dasharray="2 4"/>
<g filter="url(#filter6_d_5077_52593)">
<circle cx="137" cy="21" r="3" fill="#0C99CF"/>
<circle cx="137" cy="21" r="4" stroke="white" stroke-width="2"/>
</g>
<g filter="url(#filter7_d_5077_52593)">
<circle cx="150" cy="22" r="2" fill="#0C99CF"/>
<circle cx="150" cy="22" r="2.5" stroke="white"/>
</g>
<defs>
<filter id="filter0_d_5077_52593" x="125.163" y="79.3878" width="9.67311" height="9.67311" filterUnits="userSpaceOnUse" color-interpolation-filters="sRGB">
<feFlood flood-opacity="0" result="BackgroundImageFix"/>
<feColorMatrix in="SourceAlpha" type="matrix" values="0 0 0 0 0 0 0 0 0 0 0 0 0 0 0 0 0 0 127 0" result="hardAlpha"/>
<feOffset dy="1.22437"/>
<feGaussianBlur stdDeviation="0.918278"/>
<feColorMatrix type="matrix" values="0 0 0 0 0 0 0 0 0 0 0 0 0 0 0 0 0 0 0.2 0"/>
<feBlend mode="normal" in2="BackgroundImageFix" result="effect1_dropShadow_5077_52593"/>
<feBlend mode="normal" in="SourceGraphic" in2="effect1_dropShadow_5077_52593" result="shape"/>
</filter>
<filter id="filter1_d_5077_52593" x="141.163" y="95.3878" width="9.67311" height="9.67311" filterUnits="userSpaceOnUse" color-interpolation-filters="sRGB">
<feFlood flood-opacity="0" result="BackgroundImageFix"/>
<feColorMatrix in="SourceAlpha" type="matrix" values="0 0 0 0 0 0 0 0 0 0 0 0 0 0 0 0 0 0 127 0" result="hardAlpha"/>
<feOffset dy="1.22437"/>
<feGaussianBlur stdDeviation="0.918278"/>
<feColorMatrix type="matrix" values="0 0 0 0 0 0 0 0 0 0 0 0 0 0 0 0 0 0 0.2 0"/>
<feBlend mode="normal" in2="BackgroundImageFix" result="effect1_dropShadow_5077_52593"/>
<feBlend mode="normal" in="SourceGraphic" in2="effect1_dropShadow_5077_52593" result="shape"/>
</filter>
<filter id="filter2_d_5077_52593" x="169.163" y="75.3878" width="9.67311" height="9.67311" filterUnits="userSpaceOnUse" color-interpolation-filters="sRGB">
<feFlood flood-opacity="0" result="BackgroundImageFix"/>
<feColorMatrix in="SourceAlpha" type="matrix" values="0 0 0 0 0 0 0 0 0 0 0 0 0 0 0 0 0 0 127 0" result="hardAlpha"/>
<feOffset dy="1.22437"/>
<feGaussianBlur stdDeviation="0.918278"/>
<feColorMatrix type="matrix" values="0 0 0 0 0 0 0 0 0 0 0 0 0 0 0 0 0 0 0.2 0"/>
<feBlend mode="normal" in2="BackgroundImageFix" result="effect1_dropShadow_5077_52593"/>
<feBlend mode="normal" in="SourceGraphic" in2="effect1_dropShadow_5077_52593" result="shape"/>
</filter>
<filter id="filter3_d_5077_52593" x="173.163" y="58.3878" width="9.67311" height="9.67311" filterUnits="userSpaceOnUse" color-interpolation-filters="sRGB">
<feFlood flood-opacity="0" result="BackgroundImageFix"/>
<feColorMatrix in="SourceAlpha" type="matrix" values="0 0 0 0 0 0 0 0 0 0 0 0 0 0 0 0 0 0 127 0" result="hardAlpha"/>
<feOffset dy="1.22437"/>
<feGaussianBlur stdDeviation="0.918278"/>
<feColorMatrix type="matrix" values="0 0 0 0 0 0 0 0 0 0 0 0 0 0 0 0 0 0 0.2 0"/>
<feBlend mode="normal" in2="BackgroundImageFix" result="effect1_dropShadow_5077_52593"/>
<feBlend mode="normal" in="SourceGraphic" in2="effect1_dropShadow_5077_52593" result="shape"/>
</filter>
<filter id="filter4_d_5077_52593" x="104.163" y="61.3878" width="9.67311" height="9.67311" filterUnits="userSpaceOnUse" color-interpolation-filters="sRGB">
<feFlood flood-opacity="0" result="BackgroundImageFix"/>
<feColorMatrix in="SourceAlpha" type="matrix" values="0 0 0 0 0 0 0 0 0 0 0 0 0 0 0 0 0 0 127 0" result="hardAlpha"/>
<feOffset dy="1.22437"/>
<feGaussianBlur stdDeviation="0.918278"/>
<feColorMatrix type="matrix" values="0 0 0 0 0 0 0 0 0 0 0 0 0 0 0 0 0 0 0.2 0"/>
<feBlend mode="normal" in2="BackgroundImageFix" result="effect1_dropShadow_5077_52593"/>
<feBlend mode="normal" in="SourceGraphic" in2="effect1_dropShadow_5077_52593" result="shape"/>
</filter>
<filter id="filter5_d_5077_52593" x="57.1634" y="77.3878" width="9.67311" height="9.67311" filterUnits="userSpaceOnUse" color-interpolation-filters="sRGB">
<feFlood flood-opacity="0" result="BackgroundImageFix"/>
<feColorMatrix in="SourceAlpha" type="matrix" values="0 0 0 0 0 0 0 0 0 0 0 0 0 0 0 0 0 0 127 0" result="hardAlpha"/>
<feOffset dy="1.22437"/>
<feGaussianBlur stdDeviation="0.918278"/>
<feColorMatrix type="matrix" values="0 0 0 0 0 0 0 0 0 0 0 0 0 0 0 0 0 0 0.2 0"/>
<feBlend mode="normal" in2="BackgroundImageFix" result="effect1_dropShadow_5077_52593"/>
<feBlend mode="normal" in="SourceGraphic" in2="effect1_dropShadow_5077_52593" result="shape"/>
</filter>
<filter id="filter6_d_5077_52593" x="130.163" y="15.3878" width="13.6731" height="13.6731" filterUnits="userSpaceOnUse" color-interpolation-filters="sRGB">
<feFlood flood-opacity="0" result="BackgroundImageFix"/>
<feColorMatrix in="SourceAlpha" type="matrix" values="0 0 0 0 0 0 0 0 0 0 0 0 0 0 0 0 0 0 127 0" result="hardAlpha"/>
<feOffset dy="1.22437"/>
<feGaussianBlur stdDeviation="0.918278"/>
<feColorMatrix type="matrix" values="0 0 0 0 0 0 0 0 0 0 0 0 0 0 0 0 0 0 0.2 0"/>
<feBlend mode="normal" in2="BackgroundImageFix" result="effect1_dropShadow_5077_52593"/>
<feBlend mode="normal" in="SourceGraphic" in2="effect1_dropShadow_5077_52593" result="shape"/>
</filter>
<filter id="filter7_d_5077_52593" x="145.163" y="18.3878" width="9.67311" height="9.67311" filterUnits="userSpaceOnUse" color-interpolation-filters="sRGB">
<feFlood flood-opacity="0" result="BackgroundImageFix"/>
<feColorMatrix in="SourceAlpha" type="matrix" values="0 0 0 0 0 0 0 0 0 0 0 0 0 0 0 0 0 0 127 0" result="hardAlpha"/>
<feOffset dy="1.22437"/>
<feGaussianBlur stdDeviation="0.918278"/>
<feColorMatrix type="matrix" values="0 0 0 0 0 0 0 0 0 0 0 0 0 0 0 0 0 0 0.2 0"/>
<feBlend mode="normal" in2="BackgroundImageFix" result="effect1_dropShadow_5077_52593"/>
<feBlend mode="normal" in="SourceGraphic" in2="effect1_dropShadow_5077_52593" result="shape"/>
</filter>
</defs>
</svg>
