<svg width="157" height="91" viewBox="0 0 157 91" fill="none" xmlns="http://www.w3.org/2000/svg">
<path d="M15.0869 31.9785H16.4131V40.8174H21.6357V31.9785H22.9688V40.8174H23.8848V44.7822H22.709V42H15.0869V31.9785ZM25.2861 34.7402H26.5166V40.2773L29.9277 34.7402H31.2539V42H30.0234V36.4971L26.6123 42H25.2861V34.7402ZM33.1133 34.7402H34.3438V37.7617H37.7549V34.7402H38.9854V42H37.7549V38.7803H34.3438V42H33.1133V34.7402ZM41.8154 34.7402H46.874V40.9883H47.6602V44.0576H46.6484V42H40.9336V44.0576H39.9219V40.9883H40.5713C41.4372 39.8125 41.8519 37.7298 41.8154 34.7402ZM42.8408 35.7588C42.7497 38.1149 42.3851 39.8581 41.7471 40.9883H45.6504V35.7588H42.8408ZM53.7578 41.1045C53.3021 41.4919 52.8623 41.7653 52.4385 41.9248C52.0192 42.0843 51.568 42.1641 51.085 42.1641C50.2874 42.1641 49.6745 41.9704 49.2461 41.583C48.8177 41.1911 48.6035 40.6921 48.6035 40.0859C48.6035 39.7305 48.6833 39.4069 48.8428 39.1152C49.0068 38.819 49.2188 38.582 49.4785 38.4043C49.7428 38.2266 50.0391 38.0921 50.3672 38.001C50.6087 37.9372 50.9733 37.8757 51.4609 37.8164C52.4544 37.6979 53.1859 37.5566 53.6553 37.3926C53.6598 37.224 53.6621 37.1169 53.6621 37.0713C53.6621 36.57 53.5459 36.2168 53.3135 36.0117C52.999 35.7337 52.5319 35.5947 51.9121 35.5947C51.3333 35.5947 50.9049 35.6973 50.627 35.9023C50.3535 36.1029 50.1507 36.4606 50.0186 36.9756L48.8154 36.8115C48.9248 36.2965 49.1048 35.8818 49.3555 35.5674C49.6061 35.2484 49.9684 35.0046 50.4424 34.8359C50.9163 34.6628 51.4655 34.5762 52.0898 34.5762C52.7096 34.5762 53.2132 34.6491 53.6006 34.7949C53.988 34.9408 54.2728 35.1253 54.4551 35.3486C54.6374 35.5674 54.765 35.8454 54.8379 36.1826C54.8789 36.3923 54.8994 36.7705 54.8994 37.3174V38.958C54.8994 40.1019 54.9245 40.8265 54.9746 41.1318C55.0293 41.4326 55.1341 41.722 55.2891 42H54.0039C53.8763 41.7448 53.7943 41.4463 53.7578 41.1045ZM53.6553 38.3564C53.2087 38.5387 52.5387 38.6937 51.6455 38.8213C51.1396 38.8942 50.7819 38.9762 50.5723 39.0674C50.3626 39.1585 50.2008 39.293 50.0869 39.4707C49.973 39.6439 49.916 39.8376 49.916 40.0518C49.916 40.3799 50.0391 40.6533 50.2852 40.8721C50.5358 41.0908 50.9004 41.2002 51.3789 41.2002C51.8529 41.2002 52.2744 41.0977 52.6436 40.8926C53.0127 40.6829 53.2839 40.3981 53.457 40.0381C53.5892 39.7601 53.6553 39.3499 53.6553 38.8076V38.3564ZM56.3555 38.3701C56.3555 37.0257 56.7292 36.0299 57.4766 35.3828C58.1009 34.8451 58.862 34.5762 59.7598 34.5762C60.7578 34.5762 61.5736 34.9043 62.207 35.5605C62.8405 36.2122 63.1572 37.1146 63.1572 38.2676C63.1572 39.2018 63.016 39.9378 62.7334 40.4756C62.4554 41.0088 62.0475 41.4235 61.5098 41.7197C60.9766 42.016 60.3932 42.1641 59.7598 42.1641C58.7435 42.1641 57.9209 41.8382 57.292 41.1865C56.6676 40.5348 56.3555 39.596 56.3555 38.3701ZM57.6201 38.3701C57.6201 39.2998 57.8229 39.9971 58.2285 40.4619C58.6341 40.9222 59.1445 41.1523 59.7598 41.1523C60.3704 41.1523 60.8786 40.9199 61.2842 40.4551C61.6898 39.9902 61.8926 39.2816 61.8926 38.3291C61.8926 37.4313 61.6875 36.7523 61.2773 36.292C60.8717 35.8271 60.3659 35.5947 59.7598 35.5947C59.1445 35.5947 58.6341 35.8249 58.2285 36.2852C57.8229 36.7454 57.6201 37.4404 57.6201 38.3701Z" fill="white"/>
<path d="M91.0254 12V1.97852H94.7852C95.5508 1.97852 96.1637 2.08105 96.624 2.28613C97.0889 2.48665 97.4512 2.79883 97.7109 3.22266C97.9753 3.64193 98.1074 4.08171 98.1074 4.54199C98.1074 4.97038 97.9912 5.3737 97.7588 5.75195C97.5264 6.13021 97.1755 6.43555 96.7061 6.66797C97.3122 6.8457 97.777 7.14876 98.1006 7.57715C98.4287 8.00553 98.5928 8.51139 98.5928 9.09473C98.5928 9.56413 98.4925 10.0016 98.292 10.4072C98.096 10.8083 97.8522 11.1182 97.5605 11.3369C97.2689 11.5557 96.902 11.722 96.46 11.8359C96.0225 11.9453 95.4847 12 94.8467 12H91.0254ZM92.3516 6.18945H94.5186C95.1064 6.18945 95.528 6.15072 95.7832 6.07324C96.1204 5.97298 96.3734 5.80664 96.542 5.57422C96.7152 5.3418 96.8018 5.05013 96.8018 4.69922C96.8018 4.36654 96.722 4.07487 96.5625 3.82422C96.403 3.56901 96.1751 3.39583 95.8789 3.30469C95.5827 3.20898 95.0745 3.16113 94.3545 3.16113H92.3516V6.18945ZM92.3516 10.8174H94.8467C95.2751 10.8174 95.5758 10.8014 95.749 10.7695C96.0544 10.7148 96.3096 10.6237 96.5146 10.4961C96.7197 10.3685 96.8883 10.1839 97.0205 9.94238C97.1527 9.69629 97.2188 9.41374 97.2188 9.09473C97.2188 8.72103 97.123 8.39746 96.9316 8.12402C96.7402 7.84603 96.4736 7.65234 96.1318 7.54297C95.7946 7.42904 95.307 7.37207 94.6689 7.37207H92.3516V10.8174ZM100.377 12V1.97852H102.373L104.745 9.07422C104.964 9.73503 105.123 10.2295 105.224 10.5576C105.338 10.193 105.515 9.65755 105.757 8.95117L108.156 1.97852H109.94V12H108.662V3.6123L105.75 12H104.554L101.655 3.46875V12H100.377ZM114.63 12V3.16113H111.328V1.97852H119.271V3.16113H115.956V12H114.63ZM120.652 1.97852H128.534V12H127.201V3.16113H121.979V12H120.652V1.97852Z" fill="white"/>
<path d="M62 81C62 99 162 96 137 21" stroke="#87A4BC" stroke-miterlimit="3.99393" stroke-linecap="round" stroke-dasharray="2 4"/>
<path d="M109.5 65C116 81 97 99 64.5 49.5" stroke="#87A4BC" stroke-miterlimit="3.99393" stroke-linecap="round" stroke-dasharray="2 4"/>
<path d="M137 21.5C138.5 36.5 137 56.5 109.5 65" stroke="#87A4BC" stroke-miterlimit="3.99393" stroke-linecap="round" stroke-dasharray="2 4"/>
<path d="M63.4996 49.9999C75.4995 58.9999 72.4995 77.4999 62.4995 80.9999" stroke="#87A4BC" stroke-miterlimit="3.99393" stroke-linecap="round" stroke-dasharray="2 4"/>
<g filter="url(#filter0_d_5077_52631)">
<circle cx="64" cy="50" r="2" fill="#0C99CF"/>
<circle cx="64" cy="50" r="2.5" stroke="white"/>
</g>
<g filter="url(#filter1_d_5077_52631)">
<circle cx="137" cy="21" r="3" fill="#0C99CF"/>
<circle cx="137" cy="21" r="4" stroke="white" stroke-width="2"/>
</g>
<path d="M118.094 68.9785H125.976V79H124.643V70.1611H119.42V79H118.094V68.9785ZM127.931 81.7959L127.794 80.6406C128.063 80.7135 128.298 80.75 128.498 80.75C128.771 80.75 128.99 80.7044 129.154 80.6133C129.318 80.5221 129.453 80.3945 129.558 80.2305C129.635 80.1074 129.76 79.8021 129.934 79.3145C129.956 79.2461 129.993 79.1458 130.043 79.0137L127.288 71.7402H128.614L130.125 75.9443C130.321 76.4775 130.496 77.0381 130.651 77.626C130.793 77.0609 130.961 76.5094 131.157 75.9717L132.709 71.7402H133.939L131.178 79.123C130.882 79.9206 130.651 80.4697 130.487 80.7705C130.269 81.1761 130.018 81.4723 129.735 81.6592C129.453 81.8506 129.116 81.9463 128.724 81.9463C128.487 81.9463 128.222 81.8962 127.931 81.7959ZM139.559 76.3408L140.769 76.498C140.636 77.332 140.297 77.986 139.75 78.46C139.208 78.9294 138.54 79.1641 137.747 79.1641C136.754 79.1641 135.954 78.8405 135.348 78.1934C134.746 77.5417 134.445 76.6097 134.445 75.3975C134.445 74.6136 134.575 73.9277 134.835 73.3398C135.095 72.752 135.489 72.3122 136.018 72.0205C136.551 71.7243 137.13 71.5762 137.754 71.5762C138.542 71.5762 139.187 71.7767 139.688 72.1777C140.19 72.5742 140.511 73.1393 140.652 73.873L139.456 74.0576C139.342 73.57 139.139 73.2031 138.848 72.957C138.561 72.7109 138.212 72.5879 137.802 72.5879C137.182 72.5879 136.678 72.8112 136.291 73.2578C135.904 73.6999 135.71 74.4017 135.71 75.3633C135.71 76.3385 135.897 77.0472 136.271 77.4893C136.644 77.9313 137.132 78.1523 137.733 78.1523C138.216 78.1523 138.62 78.0042 138.943 77.708C139.267 77.4118 139.472 76.9561 139.559 76.3408ZM146.559 78.1045C146.103 78.4919 145.663 78.7653 145.239 78.9248C144.82 79.0843 144.369 79.1641 143.886 79.1641C143.088 79.1641 142.475 78.9704 142.047 78.583C141.618 78.1911 141.404 77.6921 141.404 77.0859C141.404 76.7305 141.484 76.4069 141.644 76.1152C141.808 75.819 142.02 75.582 142.279 75.4043C142.544 75.2266 142.84 75.0921 143.168 75.001C143.41 74.9372 143.774 74.8757 144.262 74.8164C145.255 74.6979 145.987 74.5566 146.456 74.3926C146.461 74.224 146.463 74.1169 146.463 74.0713C146.463 73.57 146.347 73.2168 146.114 73.0117C145.8 72.7337 145.333 72.5947 144.713 72.5947C144.134 72.5947 143.706 72.6973 143.428 72.9023C143.154 73.1029 142.951 73.4606 142.819 73.9756L141.616 73.8115C141.726 73.2965 141.906 72.8818 142.156 72.5674C142.407 72.2484 142.769 72.0046 143.243 71.8359C143.717 71.6628 144.266 71.5762 144.891 71.5762C145.51 71.5762 146.014 71.6491 146.401 71.7949C146.789 71.9408 147.074 72.1253 147.256 72.3486C147.438 72.5674 147.566 72.8454 147.639 73.1826C147.68 73.3923 147.7 73.7705 147.7 74.3174V75.958C147.7 77.1019 147.725 77.8265 147.775 78.1318C147.83 78.4326 147.935 78.722 148.09 79H146.805C146.677 78.7448 146.595 78.4463 146.559 78.1045ZM146.456 75.3564C146.009 75.5387 145.34 75.6937 144.446 75.8213C143.94 75.8942 143.583 75.9762 143.373 76.0674C143.163 76.1585 143.002 76.293 142.888 76.4707C142.774 76.6439 142.717 76.8376 142.717 77.0518C142.717 77.3799 142.84 77.6533 143.086 77.8721C143.337 78.0908 143.701 78.2002 144.18 78.2002C144.654 78.2002 145.075 78.0977 145.444 77.8926C145.813 77.6829 146.085 77.3981 146.258 77.0381C146.39 76.7601 146.456 76.3499 146.456 75.8076V75.3564ZM149.621 71.7402H150.852V74.7617H154.263V71.7402H155.493V79H154.263V75.7803H150.852V79H149.621V71.7402Z" fill="white"/>
<g filter="url(#filter2_d_5077_52631)">
<circle cx="109" cy="65" r="2" fill="#0C99CF"/>
<circle cx="109" cy="65" r="2.5" stroke="white"/>
</g>
<path d="M1.10059 73.9785H2.42676V82.8174H5.75586V73.9785H7.08203V82.8174H10.4111V73.9785H11.7373V84H1.10059V73.9785ZM18.498 83.1045C18.0423 83.4919 17.6025 83.7653 17.1787 83.9248C16.7594 84.0843 16.3083 84.1641 15.8252 84.1641C15.0277 84.1641 14.4147 83.9704 13.9863 83.583C13.5579 83.1911 13.3438 82.6921 13.3438 82.0859C13.3438 81.7305 13.4235 81.4069 13.583 81.1152C13.7471 80.819 13.959 80.582 14.2188 80.4043C14.4831 80.2266 14.7793 80.0921 15.1074 80.001C15.349 79.9372 15.7135 79.8757 16.2012 79.8164C17.1947 79.6979 17.9261 79.5566 18.3955 79.3926C18.4001 79.224 18.4023 79.1169 18.4023 79.0713C18.4023 78.57 18.2861 78.2168 18.0537 78.0117C17.7393 77.7337 17.2721 77.5947 16.6523 77.5947C16.0736 77.5947 15.6452 77.6973 15.3672 77.9023C15.0938 78.1029 14.891 78.4606 14.7588 78.9756L13.5557 78.8115C13.665 78.2965 13.8451 77.8818 14.0957 77.5674C14.3464 77.2484 14.7087 77.0046 15.1826 76.8359C15.6566 76.6628 16.2057 76.5762 16.8301 76.5762C17.4499 76.5762 17.9535 76.6491 18.3408 76.7949C18.7282 76.9408 19.013 77.1253 19.1953 77.3486C19.3776 77.5674 19.5052 77.8454 19.5781 78.1826C19.6191 78.3923 19.6396 78.7705 19.6396 79.3174V80.958C19.6396 82.1019 19.6647 82.8265 19.7148 83.1318C19.7695 83.4326 19.8743 83.722 20.0293 84H18.7441C18.6165 83.7448 18.5345 83.4463 18.498 83.1045ZM18.3955 80.3564C17.9489 80.5387 17.279 80.6937 16.3857 80.8213C15.8799 80.8942 15.5221 80.9762 15.3125 81.0674C15.1029 81.1585 14.9411 81.293 14.8271 81.4707C14.7132 81.6439 14.6562 81.8376 14.6562 82.0518C14.6562 82.3799 14.7793 82.6533 15.0254 82.8721C15.276 83.0908 15.6406 83.2002 16.1191 83.2002C16.5931 83.2002 17.0146 83.0977 17.3838 82.8926C17.7529 82.6829 18.0241 82.3981 18.1973 82.0381C18.3294 81.7601 18.3955 81.3499 18.3955 80.8076V80.3564ZM21.5605 76.7402H22.791V79.7617H26.2021V76.7402H27.4326V84H26.2021V80.7803H22.791V84H21.5605V76.7402ZM28.4717 84L31.124 80.2266L28.6699 76.7402H30.208L31.3223 78.4424C31.5319 78.766 31.7005 79.0371 31.8281 79.2559C32.0286 78.9551 32.2132 78.6885 32.3818 78.4561L33.6055 76.7402H35.0752L32.5664 80.1582L35.2666 84H33.7559L32.2656 81.7441L31.8691 81.1357L29.9619 84H28.4717ZM40.8652 83.1045C40.4095 83.4919 39.9697 83.7653 39.5459 83.9248C39.1266 84.0843 38.6755 84.1641 38.1924 84.1641C37.3949 84.1641 36.7819 83.9704 36.3535 83.583C35.9251 83.1911 35.7109 82.6921 35.7109 82.0859C35.7109 81.7305 35.7907 81.4069 35.9502 81.1152C36.1143 80.819 36.3262 80.582 36.5859 80.4043C36.8503 80.2266 37.1465 80.0921 37.4746 80.001C37.7161 79.9372 38.0807 79.8757 38.5684 79.8164C39.5618 79.6979 40.2933 79.5566 40.7627 79.3926C40.7673 79.224 40.7695 79.1169 40.7695 79.0713C40.7695 78.57 40.6533 78.2168 40.4209 78.0117C40.1064 77.7337 39.6393 77.5947 39.0195 77.5947C38.4408 77.5947 38.0124 77.6973 37.7344 77.9023C37.4609 78.1029 37.2581 78.4606 37.126 78.9756L35.9229 78.8115C36.0322 78.2965 36.2122 77.8818 36.4629 77.5674C36.7135 77.2484 37.0758 77.0046 37.5498 76.8359C38.0238 76.6628 38.5729 76.5762 39.1973 76.5762C39.8171 76.5762 40.3206 76.6491 40.708 76.7949C41.0954 76.9408 41.3802 77.1253 41.5625 77.3486C41.7448 77.5674 41.8724 77.8454 41.9453 78.1826C41.9863 78.3923 42.0068 78.7705 42.0068 79.3174V80.958C42.0068 82.1019 42.0319 82.8265 42.082 83.1318C42.1367 83.4326 42.2415 83.722 42.3965 84H41.1113C40.9837 83.7448 40.9017 83.4463 40.8652 83.1045ZM40.7627 80.3564C40.3161 80.5387 39.6462 80.6937 38.7529 80.8213C38.2471 80.8942 37.8893 80.9762 37.6797 81.0674C37.4701 81.1585 37.3083 81.293 37.1943 81.4707C37.0804 81.6439 37.0234 81.8376 37.0234 82.0518C37.0234 82.3799 37.1465 82.6533 37.3926 82.8721C37.6432 83.0908 38.0078 83.2002 38.4863 83.2002C38.9603 83.2002 39.3818 83.0977 39.751 82.8926C40.1201 82.6829 40.3913 82.3981 40.5645 82.0381C40.6966 81.7601 40.7627 81.3499 40.7627 80.8076V80.3564ZM43.9209 76.7402H45.1514V82.2773L48.5625 76.7402H49.8887V84H48.6582V78.4971L45.2471 84H43.9209V76.7402ZM48.1934 73.9922H49.0342C48.9658 74.5618 48.7562 74.9993 48.4053 75.3047C48.0589 75.61 47.5964 75.7627 47.0176 75.7627C46.4342 75.7627 45.9671 75.6123 45.6162 75.3115C45.2699 75.0062 45.0625 74.5664 44.9941 73.9922H45.835C45.8988 74.3021 46.0241 74.5345 46.2109 74.6895C46.4023 74.8398 46.6576 74.915 46.9766 74.915C47.3457 74.915 47.6237 74.8421 47.8105 74.6963C48.002 74.5459 48.1296 74.3112 48.1934 73.9922Z" fill="white"/>
<g filter="url(#filter3_d_5077_52631)">
<circle cx="62" cy="81" r="2" fill="#0C99CF"/>
<circle cx="62" cy="81" r="2.5" stroke="white"/>
</g>
<defs>
<filter id="filter0_d_5077_52631" x="59.1634" y="46.3878" width="9.67311" height="9.67311" filterUnits="userSpaceOnUse" color-interpolation-filters="sRGB">
<feFlood flood-opacity="0" result="BackgroundImageFix"/>
<feColorMatrix in="SourceAlpha" type="matrix" values="0 0 0 0 0 0 0 0 0 0 0 0 0 0 0 0 0 0 127 0" result="hardAlpha"/>
<feOffset dy="1.22437"/>
<feGaussianBlur stdDeviation="0.918278"/>
<feColorMatrix type="matrix" values="0 0 0 0 0 0 0 0 0 0 0 0 0 0 0 0 0 0 0.2 0"/>
<feBlend mode="normal" in2="BackgroundImageFix" result="effect1_dropShadow_5077_52631"/>
<feBlend mode="normal" in="SourceGraphic" in2="effect1_dropShadow_5077_52631" result="shape"/>
</filter>
<filter id="filter1_d_5077_52631" x="130.163" y="15.3878" width="13.6731" height="13.6731" filterUnits="userSpaceOnUse" color-interpolation-filters="sRGB">
<feFlood flood-opacity="0" result="BackgroundImageFix"/>
<feColorMatrix in="SourceAlpha" type="matrix" values="0 0 0 0 0 0 0 0 0 0 0 0 0 0 0 0 0 0 127 0" result="hardAlpha"/>
<feOffset dy="1.22437"/>
<feGaussianBlur stdDeviation="0.918278"/>
<feColorMatrix type="matrix" values="0 0 0 0 0 0 0 0 0 0 0 0 0 0 0 0 0 0 0.2 0"/>
<feBlend mode="normal" in2="BackgroundImageFix" result="effect1_dropShadow_5077_52631"/>
<feBlend mode="normal" in="SourceGraphic" in2="effect1_dropShadow_5077_52631" result="shape"/>
</filter>
<filter id="filter2_d_5077_52631" x="104.163" y="61.3878" width="9.67311" height="9.67311" filterUnits="userSpaceOnUse" color-interpolation-filters="sRGB">
<feFlood flood-opacity="0" result="BackgroundImageFix"/>
<feColorMatrix in="SourceAlpha" type="matrix" values="0 0 0 0 0 0 0 0 0 0 0 0 0 0 0 0 0 0 127 0" result="hardAlpha"/>
<feOffset dy="1.22437"/>
<feGaussianBlur stdDeviation="0.918278"/>
<feColorMatrix type="matrix" values="0 0 0 0 0 0 0 0 0 0 0 0 0 0 0 0 0 0 0.2 0"/>
<feBlend mode="normal" in2="BackgroundImageFix" result="effect1_dropShadow_5077_52631"/>
<feBlend mode="normal" in="SourceGraphic" in2="effect1_dropShadow_5077_52631" result="shape"/>
</filter>
<filter id="filter3_d_5077_52631" x="57.1634" y="77.3878" width="9.67311" height="9.67311" filterUnits="userSpaceOnUse" color-interpolation-filters="sRGB">
<feFlood flood-opacity="0" result="BackgroundImageFix"/>
<feColorMatrix in="SourceAlpha" type="matrix" values="0 0 0 0 0 0 0 0 0 0 0 0 0 0 0 0 0 0 127 0" result="hardAlpha"/>
<feOffset dy="1.22437"/>
<feGaussianBlur stdDeviation="0.918278"/>
<feColorMatrix type="matrix" values="0 0 0 0 0 0 0 0 0 0 0 0 0 0 0 0 0 0 0.2 0"/>
<feBlend mode="normal" in2="BackgroundImageFix" result="effect1_dropShadow_5077_52631"/>
<feBlend mode="normal" in="SourceGraphic" in2="effect1_dropShadow_5077_52631" result="shape"/>
</filter>
</defs>
</svg>
