<svg width="189" height="161" viewBox="0 0 189 161" fill="none" xmlns="http://www.w3.org/2000/svg">
<path d="M134.039 12V1.97852H136.035L138.407 9.07422C138.626 9.73503 138.785 10.2295 138.886 10.5576C139 10.193 139.177 9.65755 139.419 8.95117L141.818 1.97852H143.603V12H142.324V3.6123L139.412 12H138.216L135.317 3.46875V12H134.039ZM150.486 11.1045C150.031 11.4919 149.591 11.7653 149.167 11.9248C148.748 12.0843 148.297 12.1641 147.813 12.1641C147.016 12.1641 146.403 11.9704 145.975 11.583C145.546 11.1911 145.332 10.6921 145.332 10.0859C145.332 9.73047 145.412 9.4069 145.571 9.11523C145.735 8.81901 145.947 8.58203 146.207 8.4043C146.471 8.22656 146.768 8.09212 147.096 8.00098C147.337 7.93717 147.702 7.87565 148.189 7.81641C149.183 7.69792 149.914 7.55664 150.384 7.39258C150.388 7.22396 150.391 7.11686 150.391 7.07129C150.391 6.56999 150.274 6.2168 150.042 6.01172C149.728 5.73372 149.26 5.59473 148.641 5.59473C148.062 5.59473 147.633 5.69727 147.355 5.90234C147.082 6.10286 146.879 6.46061 146.747 6.97559L145.544 6.81152C145.653 6.29655 145.833 5.88184 146.084 5.56738C146.335 5.24837 146.697 5.00456 147.171 4.83594C147.645 4.66276 148.194 4.57617 148.818 4.57617C149.438 4.57617 149.942 4.64909 150.329 4.79492C150.716 4.94076 151.001 5.12533 151.184 5.34863C151.366 5.56738 151.493 5.84538 151.566 6.18262C151.607 6.39225 151.628 6.77051 151.628 7.31738V8.95801C151.628 10.1019 151.653 10.8265 151.703 11.1318C151.758 11.4326 151.863 11.722 152.018 12H150.732C150.605 11.7448 150.523 11.4463 150.486 11.1045ZM150.384 8.35645C149.937 8.53874 149.267 8.69368 148.374 8.82129C147.868 8.89421 147.51 8.97624 147.301 9.06738C147.091 9.15853 146.929 9.29297 146.815 9.4707C146.701 9.64388 146.645 9.83757 146.645 10.0518C146.645 10.3799 146.768 10.6533 147.014 10.8721C147.264 11.0908 147.629 11.2002 148.107 11.2002C148.581 11.2002 149.003 11.0977 149.372 10.8926C149.741 10.6829 150.012 10.3981 150.186 10.0381C150.318 9.76009 150.384 9.34993 150.384 8.80762V8.35645ZM153.549 4.74023H157.726V5.75879H154.779V12H153.549V4.74023ZM163.078 11.1045C162.622 11.4919 162.183 11.7653 161.759 11.9248C161.34 12.0843 160.888 12.1641 160.405 12.1641C159.608 12.1641 158.995 11.9704 158.566 11.583C158.138 11.1911 157.924 10.6921 157.924 10.0859C157.924 9.73047 158.004 9.4069 158.163 9.11523C158.327 8.81901 158.539 8.58203 158.799 8.4043C159.063 8.22656 159.359 8.09212 159.688 8.00098C159.929 7.93717 160.294 7.87565 160.781 7.81641C161.775 7.69792 162.506 7.55664 162.976 7.39258C162.98 7.22396 162.982 7.11686 162.982 7.07129C162.982 6.56999 162.866 6.2168 162.634 6.01172C162.319 5.73372 161.852 5.59473 161.232 5.59473C160.654 5.59473 160.225 5.69727 159.947 5.90234C159.674 6.10286 159.471 6.46061 159.339 6.97559L158.136 6.81152C158.245 6.29655 158.425 5.88184 158.676 5.56738C158.926 5.24837 159.289 5.00456 159.763 4.83594C160.237 4.66276 160.786 4.57617 161.41 4.57617C162.03 4.57617 162.534 4.64909 162.921 4.79492C163.308 4.94076 163.593 5.12533 163.775 5.34863C163.958 5.56738 164.085 5.84538 164.158 6.18262C164.199 6.39225 164.22 6.77051 164.22 7.31738V8.95801C164.22 10.1019 164.245 10.8265 164.295 11.1318C164.35 11.4326 164.454 11.722 164.609 12H163.324C163.197 11.7448 163.115 11.4463 163.078 11.1045ZM162.976 8.35645C162.529 8.53874 161.859 8.69368 160.966 8.82129C160.46 8.89421 160.102 8.97624 159.893 9.06738C159.683 9.15853 159.521 9.29297 159.407 9.4707C159.293 9.64388 159.236 9.83757 159.236 10.0518C159.236 10.3799 159.359 10.6533 159.605 10.8721C159.856 11.0908 160.221 11.2002 160.699 11.2002C161.173 11.2002 161.595 11.0977 161.964 10.8926C162.333 10.6829 162.604 10.3981 162.777 10.0381C162.91 9.76009 162.976 9.34993 162.976 8.80762V8.35645ZM167.104 4.74023H172.163V10.9883H172.949V14.0576H171.938V12H166.223V14.0576H165.211V10.9883H165.86C166.726 9.8125 167.141 7.72982 167.104 4.74023ZM168.13 5.75879C168.039 8.11491 167.674 9.85807 167.036 10.9883H170.939V5.75879H168.13ZM179.047 11.1045C178.591 11.4919 178.151 11.7653 177.728 11.9248C177.308 12.0843 176.857 12.1641 176.374 12.1641C175.576 12.1641 174.964 11.9704 174.535 11.583C174.107 11.1911 173.893 10.6921 173.893 10.0859C173.893 9.73047 173.972 9.4069 174.132 9.11523C174.296 8.81901 174.508 8.58203 174.768 8.4043C175.032 8.22656 175.328 8.09212 175.656 8.00098C175.898 7.93717 176.262 7.87565 176.75 7.81641C177.743 7.69792 178.475 7.55664 178.944 7.39258C178.949 7.22396 178.951 7.11686 178.951 7.07129C178.951 6.56999 178.835 6.2168 178.603 6.01172C178.288 5.73372 177.821 5.59473 177.201 5.59473C176.622 5.59473 176.194 5.69727 175.916 5.90234C175.643 6.10286 175.44 6.46061 175.308 6.97559L174.104 6.81152C174.214 6.29655 174.394 5.88184 174.645 5.56738C174.895 5.24837 175.257 5.00456 175.731 4.83594C176.205 4.66276 176.755 4.57617 177.379 4.57617C177.999 4.57617 178.502 4.64909 178.89 4.79492C179.277 4.94076 179.562 5.12533 179.744 5.34863C179.926 5.56738 180.054 5.84538 180.127 6.18262C180.168 6.39225 180.188 6.77051 180.188 7.31738V8.95801C180.188 10.1019 180.214 10.8265 180.264 11.1318C180.318 11.4326 180.423 11.722 180.578 12H179.293C179.165 11.7448 179.083 11.4463 179.047 11.1045ZM178.944 8.35645C178.498 8.53874 177.828 8.69368 176.935 8.82129C176.429 8.89421 176.071 8.97624 175.861 9.06738C175.652 9.15853 175.49 9.29297 175.376 9.4707C175.262 9.64388 175.205 9.83757 175.205 10.0518C175.205 10.3799 175.328 10.6533 175.574 10.8721C175.825 11.0908 176.189 11.2002 176.668 11.2002C177.142 11.2002 177.563 11.0977 177.933 10.8926C178.302 10.6829 178.573 10.3981 178.746 10.0381C178.878 9.76009 178.944 9.34993 178.944 8.80762V8.35645ZM182.109 4.74023H183.34V7.76172H186.751V4.74023H187.981V12H186.751V8.78027H183.34V12H182.109V4.74023Z" fill="white"/>
<path d="M1.02539 139V128.979H4.78516C5.55078 128.979 6.16374 129.081 6.62402 129.286C7.08887 129.487 7.45117 129.799 7.71094 130.223C7.97526 130.642 8.10742 131.082 8.10742 131.542C8.10742 131.97 7.99121 132.374 7.75879 132.752C7.52637 133.13 7.17546 133.436 6.70605 133.668C7.31217 133.846 7.77702 134.149 8.10059 134.577C8.42871 135.006 8.59277 135.511 8.59277 136.095C8.59277 136.564 8.49251 137.002 8.29199 137.407C8.09603 137.808 7.85221 138.118 7.56055 138.337C7.26888 138.556 6.90202 138.722 6.45996 138.836C6.02246 138.945 5.4847 139 4.84668 139H1.02539ZM2.35156 133.189H4.51855C5.10645 133.189 5.52799 133.151 5.7832 133.073C6.12044 132.973 6.37337 132.807 6.54199 132.574C6.71517 132.342 6.80176 132.05 6.80176 131.699C6.80176 131.367 6.72201 131.075 6.5625 130.824C6.40299 130.569 6.17513 130.396 5.87891 130.305C5.58268 130.209 5.07454 130.161 4.35449 130.161H2.35156V133.189ZM2.35156 137.817H4.84668C5.27507 137.817 5.57585 137.801 5.74902 137.77C6.05436 137.715 6.30957 137.624 6.51465 137.496C6.71973 137.368 6.88835 137.184 7.02051 136.942C7.15267 136.696 7.21875 136.414 7.21875 136.095C7.21875 135.721 7.12305 135.397 6.93164 135.124C6.74023 134.846 6.47363 134.652 6.13184 134.543C5.7946 134.429 5.30697 134.372 4.66895 134.372H2.35156V137.817ZM10.377 139V128.979H12.373L14.7451 136.074C14.9639 136.735 15.1234 137.229 15.2236 137.558C15.3376 137.193 15.5153 136.658 15.7568 135.951L18.1562 128.979H19.9404V139H18.6621V130.612L15.75 139H14.5537L11.6553 130.469V139H10.377ZM24.6299 139V130.161H21.3281V128.979H29.2715V130.161H25.9561V139H24.6299ZM30.6523 128.979H38.5342V139H37.2012V130.161H31.9785V139H30.6523V128.979Z" fill="white"/>
<path d="M66 145C75 174 83 140.5 96.5 146C152.582 168.848 161 94.6719 161 20.5" stroke="#87A4BC" stroke-miterlimit="3.99393" stroke-linecap="round" stroke-dasharray="2 4"/>
<path d="M47 148.5C52.5 181 78.5 136.5 92 142C148.082 164.848 161 94.6719 161 20.5" stroke="#87A4BC" stroke-miterlimit="3.99393" stroke-linecap="round" stroke-dasharray="2 4"/>
<path d="M66.5 145.001C64.5 154.001 53.4998 157.5 47 148.5" stroke="#87A4BC" stroke-miterlimit="3.99393" stroke-linecap="round" stroke-dasharray="2 4"/>
<g filter="url(#filter0_d_5077_52736)">
<circle cx="160" cy="20" r="2" fill="#0C99CF"/>
<circle cx="160" cy="20" r="2.5" stroke="white"/>
</g>
<g filter="url(#filter1_d_5077_52736)">
<circle cx="66" cy="145" r="2" fill="#0C99CF"/>
<circle cx="66" cy="145" r="2.5" stroke="white"/>
</g>
<g filter="url(#filter2_d_5077_52736)">
<circle cx="47" cy="148" r="3" fill="#0C99CF"/>
<circle cx="47" cy="148" r="4" stroke="white" stroke-width="2"/>
</g>
<path d="M70.0254 139V128.979H73.7852C74.5508 128.979 75.1637 129.081 75.624 129.286C76.0889 129.487 76.4512 129.799 76.7109 130.223C76.9753 130.642 77.1074 131.082 77.1074 131.542C77.1074 131.97 76.9912 132.374 76.7588 132.752C76.5264 133.13 76.1755 133.436 75.7061 133.668C76.3122 133.846 76.777 134.149 77.1006 134.577C77.4287 135.006 77.5928 135.511 77.5928 136.095C77.5928 136.564 77.4925 137.002 77.292 137.407C77.096 137.808 76.8522 138.118 76.5605 138.337C76.2689 138.556 75.902 138.722 75.46 138.836C75.0225 138.945 74.4847 139 73.8467 139H70.0254ZM71.3516 133.189H73.5186C74.1064 133.189 74.528 133.151 74.7832 133.073C75.1204 132.973 75.3734 132.807 75.542 132.574C75.7152 132.342 75.8018 132.05 75.8018 131.699C75.8018 131.367 75.722 131.075 75.5625 130.824C75.403 130.569 75.1751 130.396 74.8789 130.305C74.5827 130.209 74.0745 130.161 73.3545 130.161H71.3516V133.189ZM71.3516 137.817H73.8467C74.2751 137.817 74.5758 137.801 74.749 137.77C75.0544 137.715 75.3096 137.624 75.5146 137.496C75.7197 137.368 75.8883 137.184 76.0205 136.942C76.1527 136.696 76.2188 136.414 76.2188 136.095C76.2188 135.721 76.123 135.397 75.9316 135.124C75.7402 134.846 75.4736 134.652 75.1318 134.543C74.7946 134.429 74.307 134.372 73.6689 134.372H71.3516V137.817ZM78.8027 135.37C78.8027 134.026 79.1764 133.03 79.9238 132.383C80.5482 131.845 81.3092 131.576 82.207 131.576C83.2051 131.576 84.0208 131.904 84.6543 132.561C85.2878 133.212 85.6045 134.115 85.6045 135.268C85.6045 136.202 85.4632 136.938 85.1807 137.476C84.9027 138.009 84.4948 138.424 83.957 138.72C83.4238 139.016 82.8405 139.164 82.207 139.164C81.1908 139.164 80.3682 138.838 79.7393 138.187C79.1149 137.535 78.8027 136.596 78.8027 135.37ZM80.0674 135.37C80.0674 136.3 80.2702 136.997 80.6758 137.462C81.0814 137.922 81.5918 138.152 82.207 138.152C82.8177 138.152 83.3258 137.92 83.7314 137.455C84.137 136.99 84.3398 136.282 84.3398 135.329C84.3398 134.431 84.1348 133.752 83.7246 133.292C83.319 132.827 82.8132 132.595 82.207 132.595C81.5918 132.595 81.0814 132.825 80.6758 133.285C80.2702 133.745 80.0674 134.44 80.0674 135.37ZM91.791 136.341L93.001 136.498C92.8688 137.332 92.5293 137.986 91.9824 138.46C91.4401 138.929 90.7725 139.164 89.9795 139.164C88.986 139.164 88.1862 138.84 87.5801 138.193C86.9785 137.542 86.6777 136.61 86.6777 135.397C86.6777 134.614 86.8076 133.928 87.0674 133.34C87.3271 132.752 87.7214 132.312 88.25 132.021C88.7832 131.724 89.362 131.576 89.9863 131.576C90.7747 131.576 91.4196 131.777 91.9209 132.178C92.4222 132.574 92.7435 133.139 92.8848 133.873L91.6885 134.058C91.5745 133.57 91.3717 133.203 91.0801 132.957C90.793 132.711 90.4443 132.588 90.0342 132.588C89.4144 132.588 88.9108 132.811 88.5234 133.258C88.1361 133.7 87.9424 134.402 87.9424 135.363C87.9424 136.339 88.1292 137.047 88.5029 137.489C88.8766 137.931 89.3643 138.152 89.9658 138.152C90.4489 138.152 90.8522 138.004 91.1758 137.708C91.4993 137.412 91.7044 136.956 91.791 136.341ZM93.3906 131.74H99.29V132.759H96.9521V139H95.7285V132.759H93.3906V131.74ZM99.8438 135.37C99.8438 134.026 100.217 133.03 100.965 132.383C101.589 131.845 102.35 131.576 103.248 131.576C104.246 131.576 105.062 131.904 105.695 132.561C106.329 133.212 106.646 134.115 106.646 135.268C106.646 136.202 106.504 136.938 106.222 137.476C105.944 138.009 105.536 138.424 104.998 138.72C104.465 139.016 103.882 139.164 103.248 139.164C102.232 139.164 101.409 138.838 100.78 138.187C100.156 137.535 99.8438 136.596 99.8438 135.37ZM101.108 135.37C101.108 136.3 101.311 136.997 101.717 137.462C102.122 137.922 102.633 138.152 103.248 138.152C103.859 138.152 104.367 137.92 104.772 137.455C105.178 136.99 105.381 136.282 105.381 135.329C105.381 134.431 105.176 133.752 104.766 133.292C104.36 132.827 103.854 132.595 103.248 132.595C102.633 132.595 102.122 132.825 101.717 133.285C101.311 133.745 101.108 134.44 101.108 135.37ZM107.329 131.74H108.56V133.114C108.56 133.707 108.594 134.137 108.662 134.406C108.735 134.671 108.906 134.903 109.175 135.104C109.444 135.299 109.781 135.397 110.187 135.397C110.651 135.397 111.253 135.274 111.991 135.028V131.74H113.222V139H111.991V136.074C111.235 136.311 110.528 136.43 109.872 136.43C109.321 136.43 108.833 136.291 108.409 136.013C107.99 135.73 107.705 135.386 107.555 134.98C107.404 134.575 107.329 134.128 107.329 133.641V131.74ZM115.088 131.74H116.318V134.762H119.729V131.74H120.96V139H119.729V135.78H116.318V139H115.088V131.74ZM129.73 131.74H130.961V139H129.73V131.74ZM122.847 131.74H124.077V134.577H125.636C126.652 134.577 127.434 134.775 127.98 135.172C128.532 135.564 128.808 136.106 128.808 136.799C128.808 137.405 128.577 137.924 128.117 138.357C127.661 138.786 126.93 139 125.923 139H122.847V131.74ZM124.077 137.988H125.369C126.148 137.988 126.704 137.893 127.037 137.701C127.37 137.51 127.536 137.211 127.536 136.806C127.536 136.491 127.413 136.211 127.167 135.965C126.921 135.719 126.376 135.596 125.533 135.596H124.077V137.988ZM132.882 131.74H134.112V137.277L137.523 131.74H138.85V139H137.619V133.497L134.208 139H132.882V131.74ZM137.154 128.992H137.995C137.927 129.562 137.717 129.999 137.366 130.305C137.02 130.61 136.557 130.763 135.979 130.763C135.395 130.763 134.928 130.612 134.577 130.312C134.231 130.006 134.023 129.566 133.955 128.992H134.796C134.86 129.302 134.985 129.535 135.172 129.689C135.363 129.84 135.618 129.915 135.938 129.915C136.307 129.915 136.585 129.842 136.771 129.696C136.963 129.546 137.09 129.311 137.154 128.992Z" fill="white"/>
<defs>
<filter id="filter0_d_5077_52736" x="155.163" y="16.3878" width="9.67311" height="9.67311" filterUnits="userSpaceOnUse" color-interpolation-filters="sRGB">
<feFlood flood-opacity="0" result="BackgroundImageFix"/>
<feColorMatrix in="SourceAlpha" type="matrix" values="0 0 0 0 0 0 0 0 0 0 0 0 0 0 0 0 0 0 127 0" result="hardAlpha"/>
<feOffset dy="1.22437"/>
<feGaussianBlur stdDeviation="0.918278"/>
<feColorMatrix type="matrix" values="0 0 0 0 0 0 0 0 0 0 0 0 0 0 0 0 0 0 0.2 0"/>
<feBlend mode="normal" in2="BackgroundImageFix" result="effect1_dropShadow_5077_52736"/>
<feBlend mode="normal" in="SourceGraphic" in2="effect1_dropShadow_5077_52736" result="shape"/>
</filter>
<filter id="filter1_d_5077_52736" x="61.1634" y="141.388" width="9.67311" height="9.67311" filterUnits="userSpaceOnUse" color-interpolation-filters="sRGB">
<feFlood flood-opacity="0" result="BackgroundImageFix"/>
<feColorMatrix in="SourceAlpha" type="matrix" values="0 0 0 0 0 0 0 0 0 0 0 0 0 0 0 0 0 0 127 0" result="hardAlpha"/>
<feOffset dy="1.22437"/>
<feGaussianBlur stdDeviation="0.918278"/>
<feColorMatrix type="matrix" values="0 0 0 0 0 0 0 0 0 0 0 0 0 0 0 0 0 0 0.2 0"/>
<feBlend mode="normal" in2="BackgroundImageFix" result="effect1_dropShadow_5077_52736"/>
<feBlend mode="normal" in="SourceGraphic" in2="effect1_dropShadow_5077_52736" result="shape"/>
</filter>
<filter id="filter2_d_5077_52736" x="40.1634" y="142.388" width="13.6731" height="13.6731" filterUnits="userSpaceOnUse" color-interpolation-filters="sRGB">
<feFlood flood-opacity="0" result="BackgroundImageFix"/>
<feColorMatrix in="SourceAlpha" type="matrix" values="0 0 0 0 0 0 0 0 0 0 0 0 0 0 0 0 0 0 127 0" result="hardAlpha"/>
<feOffset dy="1.22437"/>
<feGaussianBlur stdDeviation="0.918278"/>
<feColorMatrix type="matrix" values="0 0 0 0 0 0 0 0 0 0 0 0 0 0 0 0 0 0 0.2 0"/>
<feBlend mode="normal" in2="BackgroundImageFix" result="effect1_dropShadow_5077_52736"/>
<feBlend mode="normal" in="SourceGraphic" in2="effect1_dropShadow_5077_52736" result="shape"/>
</filter>
</defs>
</svg>
