<svg width="147" height="111" viewBox="0 0 147 111" fill="none" xmlns="http://www.w3.org/2000/svg">
<path d="M18.0869 31.9785H19.4131V40.8174H24.6357V31.9785H25.9688V40.8174H26.8848V44.7822H25.709V42H18.0869V31.9785ZM28.2861 34.7402H29.5166V40.2773L32.9277 34.7402H34.2539V42H33.0234V36.4971L29.6123 42H28.2861V34.7402ZM36.1133 34.7402H37.3438V37.7617H40.7549V34.7402H41.9854V42H40.7549V38.7803H37.3438V42H36.1133V34.7402ZM44.8154 34.7402H49.874V40.9883H50.6602V44.0576H49.6484V42H43.9336V44.0576H42.9219V40.9883H43.5713C44.4372 39.8125 44.8519 37.7298 44.8154 34.7402ZM45.8408 35.7588C45.7497 38.1149 45.3851 39.8581 44.7471 40.9883H48.6504V35.7588H45.8408ZM56.7578 41.1045C56.3021 41.4919 55.8623 41.7653 55.4385 41.9248C55.0192 42.0843 54.568 42.1641 54.085 42.1641C53.2874 42.1641 52.6745 41.9704 52.2461 41.583C51.8177 41.1911 51.6035 40.6921 51.6035 40.0859C51.6035 39.7305 51.6833 39.4069 51.8428 39.1152C52.0068 38.819 52.2188 38.582 52.4785 38.4043C52.7428 38.2266 53.0391 38.0921 53.3672 38.001C53.6087 37.9372 53.9733 37.8757 54.4609 37.8164C55.4544 37.6979 56.1859 37.5566 56.6553 37.3926C56.6598 37.224 56.6621 37.1169 56.6621 37.0713C56.6621 36.57 56.5459 36.2168 56.3135 36.0117C55.999 35.7337 55.5319 35.5947 54.9121 35.5947C54.3333 35.5947 53.9049 35.6973 53.627 35.9023C53.3535 36.1029 53.1507 36.4606 53.0186 36.9756L51.8154 36.8115C51.9248 36.2965 52.1048 35.8818 52.3555 35.5674C52.6061 35.2484 52.9684 35.0046 53.4424 34.8359C53.9163 34.6628 54.4655 34.5762 55.0898 34.5762C55.7096 34.5762 56.2132 34.6491 56.6006 34.7949C56.988 34.9408 57.2728 35.1253 57.4551 35.3486C57.6374 35.5674 57.765 35.8454 57.8379 36.1826C57.8789 36.3923 57.8994 36.7705 57.8994 37.3174V38.958C57.8994 40.1019 57.9245 40.8265 57.9746 41.1318C58.0293 41.4326 58.1341 41.722 58.2891 42H57.0039C56.8763 41.7448 56.7943 41.4463 56.7578 41.1045ZM56.6553 38.3564C56.2087 38.5387 55.5387 38.6937 54.6455 38.8213C54.1396 38.8942 53.7819 38.9762 53.5723 39.0674C53.3626 39.1585 53.2008 39.293 53.0869 39.4707C52.973 39.6439 52.916 39.8376 52.916 40.0518C52.916 40.3799 53.0391 40.6533 53.2852 40.8721C53.5358 41.0908 53.9004 41.2002 54.3789 41.2002C54.8529 41.2002 55.2744 41.0977 55.6436 40.8926C56.0127 40.6829 56.2839 40.3981 56.457 40.0381C56.5892 39.7601 56.6553 39.3499 56.6553 38.8076V38.3564ZM59.3555 38.3701C59.3555 37.0257 59.7292 36.0299 60.4766 35.3828C61.1009 34.8451 61.862 34.5762 62.7598 34.5762C63.7578 34.5762 64.5736 34.9043 65.207 35.5605C65.8405 36.2122 66.1572 37.1146 66.1572 38.2676C66.1572 39.2018 66.016 39.9378 65.7334 40.4756C65.4554 41.0088 65.0475 41.4235 64.5098 41.7197C63.9766 42.016 63.3932 42.1641 62.7598 42.1641C61.7435 42.1641 60.9209 41.8382 60.292 41.1865C59.6676 40.5348 59.3555 39.596 59.3555 38.3701ZM60.6201 38.3701C60.6201 39.2998 60.8229 39.9971 61.2285 40.4619C61.6341 40.9222 62.1445 41.1523 62.7598 41.1523C63.3704 41.1523 63.8786 40.9199 64.2842 40.4551C64.6898 39.9902 64.8926 39.2816 64.8926 38.3291C64.8926 37.4313 64.6875 36.7523 64.2773 36.292C63.8717 35.8271 63.3659 35.5947 62.7598 35.5947C62.1445 35.5947 61.6341 35.8249 61.2285 36.2852C60.8229 36.7454 60.6201 37.4404 60.6201 38.3701Z" fill="white"/>
<path d="M94.0254 12V1.97852H97.7852C98.5508 1.97852 99.1637 2.08105 99.624 2.28613C100.089 2.48665 100.451 2.79883 100.711 3.22266C100.975 3.64193 101.107 4.08171 101.107 4.54199C101.107 4.97038 100.991 5.3737 100.759 5.75195C100.526 6.13021 100.175 6.43555 99.7061 6.66797C100.312 6.8457 100.777 7.14876 101.101 7.57715C101.429 8.00553 101.593 8.51139 101.593 9.09473C101.593 9.56413 101.493 10.0016 101.292 10.4072C101.096 10.8083 100.852 11.1182 100.561 11.3369C100.269 11.5557 99.902 11.722 99.46 11.8359C99.0225 11.9453 98.4847 12 97.8467 12H94.0254ZM95.3516 6.18945H97.5186C98.1064 6.18945 98.528 6.15072 98.7832 6.07324C99.1204 5.97298 99.3734 5.80664 99.542 5.57422C99.7152 5.3418 99.8018 5.05013 99.8018 4.69922C99.8018 4.36654 99.722 4.07487 99.5625 3.82422C99.403 3.56901 99.1751 3.39583 98.8789 3.30469C98.5827 3.20898 98.0745 3.16113 97.3545 3.16113H95.3516V6.18945ZM95.3516 10.8174H97.8467C98.2751 10.8174 98.5758 10.8014 98.749 10.7695C99.0544 10.7148 99.3096 10.6237 99.5146 10.4961C99.7197 10.3685 99.8883 10.1839 100.021 9.94238C100.153 9.69629 100.219 9.41374 100.219 9.09473C100.219 8.72103 100.123 8.39746 99.9316 8.12402C99.7402 7.84603 99.4736 7.65234 99.1318 7.54297C98.7946 7.42904 98.307 7.37207 97.6689 7.37207H95.3516V10.8174ZM103.377 12V1.97852H105.373L107.745 9.07422C107.964 9.73503 108.123 10.2295 108.224 10.5576C108.338 10.193 108.515 9.65755 108.757 8.95117L111.156 1.97852H112.94V12H111.662V3.6123L108.75 12H107.554L104.655 3.46875V12H103.377ZM117.63 12V3.16113H114.328V1.97852H122.271V3.16113H118.956V12H117.63ZM123.652 1.97852H131.534V12H130.201V3.16113H124.979V12H123.652V1.97852Z" fill="white"/>
<path d="M63.5 74C78.5 84.5 67 101 55 104" stroke="#87A4BC" stroke-miterlimit="3.99393" stroke-linecap="round" stroke-dasharray="2 4"/>
<path d="M140 21.5C141.5 36.5 116.5 125.5 67 50" stroke="#87A4BC" stroke-miterlimit="3.99393" stroke-linecap="round" stroke-dasharray="2 4"/>
<path d="M66.5001 50.0004C74.5001 56.5004 88.5 104.5 55.5 104" stroke="#87A4BC" stroke-miterlimit="3.99393" stroke-linecap="round" stroke-dasharray="2 4"/>
<g filter="url(#filter0_d_5077_52618)">
<circle cx="67" cy="50" r="2" fill="#0C99CF"/>
<circle cx="67" cy="50" r="2.5" stroke="white"/>
</g>
<g filter="url(#filter1_d_5077_52618)">
<circle cx="140" cy="21" r="3" fill="#0C99CF"/>
<circle cx="140" cy="21" r="4" stroke="white" stroke-width="2"/>
</g>
<path d="M3.12109 107V96.9785H4.44727V101.094H9.65625V96.9785H10.9824V107H9.65625V102.276H4.44727V107H3.12109ZM13.04 99.7402H14.2705V105.277L17.6816 99.7402H19.0078V107H17.7773V101.497L14.3662 107H13.04V99.7402ZM20.8945 99.7402H22.8086L24.7158 105.551L26.835 99.7402H28.6055V107H27.375V101.155L25.2285 107H24.1279L22.0977 100.875V107H20.8945V99.7402ZM35.6396 96.7393L36.7266 96.7529C36.6764 97.2406 36.5671 97.5801 36.3984 97.7715C36.2344 97.9629 36.0202 98.0859 35.7559 98.1406C35.4961 98.1953 34.9834 98.2227 34.2178 98.2227C33.2015 98.2227 32.5088 98.3206 32.1396 98.5166C31.7705 98.7126 31.5039 99.027 31.3398 99.46C31.1803 99.8883 31.0915 100.442 31.0732 101.121C31.3831 100.661 31.7454 100.317 32.1602 100.089C32.5749 99.8564 33.042 99.7402 33.5615 99.7402C34.514 99.7402 35.3024 100.068 35.9268 100.725C36.5511 101.376 36.8633 102.26 36.8633 103.377C36.8633 104.225 36.7061 104.92 36.3916 105.462C36.0771 106.004 35.7035 106.424 35.2705 106.72C34.8421 107.016 34.2565 107.164 33.5137 107.164C32.6523 107.164 31.9824 106.968 31.5039 106.576C31.0254 106.18 30.6585 105.674 30.4033 105.059C30.1481 104.443 30.0205 103.372 30.0205 101.846C30.0205 99.9271 30.3441 98.6351 30.9912 97.9697C31.6429 97.3044 32.6432 96.9717 33.9922 96.9717C34.8307 96.9717 35.307 96.958 35.4209 96.9307C35.5348 96.9033 35.6077 96.8395 35.6396 96.7393ZM35.5781 103.343C35.5781 102.586 35.3981 101.966 35.0381 101.483C34.6826 101 34.179 100.759 33.5273 100.759C32.8483 100.759 32.3242 101.014 31.9551 101.524C31.5859 102.035 31.4014 102.716 31.4014 103.568C31.4014 104.411 31.6042 105.056 32.0098 105.503C32.4199 105.95 32.9235 106.173 33.5205 106.173C34.1312 106.173 34.6257 105.915 35.0039 105.4C35.3867 104.881 35.5781 104.195 35.5781 103.343ZM37.8887 103.37C37.8887 102.026 38.2624 101.03 39.0098 100.383C39.6341 99.8451 40.3952 99.5762 41.293 99.5762C42.291 99.5762 43.1068 99.9043 43.7402 100.561C44.3737 101.212 44.6904 102.115 44.6904 103.268C44.6904 104.202 44.5492 104.938 44.2666 105.476C43.9886 106.009 43.5807 106.424 43.043 106.72C42.5098 107.016 41.9264 107.164 41.293 107.164C40.2767 107.164 39.4541 106.838 38.8252 106.187C38.2008 105.535 37.8887 104.596 37.8887 103.37ZM39.1533 103.37C39.1533 104.3 39.3561 104.997 39.7617 105.462C40.1673 105.922 40.6777 106.152 41.293 106.152C41.9036 106.152 42.4118 105.92 42.8174 105.455C43.223 104.99 43.4258 104.282 43.4258 103.329C43.4258 102.431 43.2207 101.752 42.8105 101.292C42.4049 100.827 41.8991 100.595 41.293 100.595C40.6777 100.595 40.1673 100.825 39.7617 101.285C39.3561 101.745 39.1533 102.44 39.1533 103.37Z" fill="white"/>
<g filter="url(#filter2_d_5077_52618)">
<circle cx="55" cy="104" r="2" fill="#0C99CF"/>
<circle cx="55" cy="104" r="2.5" stroke="white"/>
</g>
<path d="M3.62988 77V68.1611H0.328125V66.9785H8.27148V68.1611H4.95605V77H3.62988ZM13.5898 76.1045C13.1341 76.4919 12.6943 76.7653 12.2705 76.9248C11.8512 77.0843 11.4001 77.1641 10.917 77.1641C10.1195 77.1641 9.50651 76.9704 9.07812 76.583C8.64974 76.1911 8.43555 75.6921 8.43555 75.0859C8.43555 74.7305 8.5153 74.4069 8.6748 74.1152C8.83887 73.819 9.05078 73.582 9.31055 73.4043C9.57487 73.2266 9.87109 73.0921 10.1992 73.001C10.4408 72.9372 10.8053 72.8757 11.293 72.8164C12.2865 72.6979 13.0179 72.5566 13.4873 72.3926C13.4919 72.224 13.4941 72.1169 13.4941 72.0713C13.4941 71.57 13.3779 71.2168 13.1455 71.0117C12.8311 70.7337 12.3639 70.5947 11.7441 70.5947C11.1654 70.5947 10.737 70.6973 10.459 70.9023C10.1855 71.1029 9.98275 71.4606 9.85059 71.9756L8.64746 71.8115C8.75684 71.2965 8.93685 70.8818 9.1875 70.5674C9.43815 70.2484 9.80046 70.0046 10.2744 69.8359C10.7484 69.6628 11.2975 69.5762 11.9219 69.5762C12.5417 69.5762 13.0452 69.6491 13.4326 69.7949C13.82 69.9408 14.1048 70.1253 14.2871 70.3486C14.4694 70.5674 14.597 70.8454 14.6699 71.1826C14.7109 71.3923 14.7314 71.7705 14.7314 72.3174V73.958C14.7314 75.1019 14.7565 75.8265 14.8066 76.1318C14.8613 76.4326 14.9661 76.722 15.1211 77H13.8359C13.7083 76.7448 13.6263 76.4463 13.5898 76.1045ZM13.4873 73.3564C13.0407 73.5387 12.3708 73.6937 11.4775 73.8213C10.9717 73.8942 10.6139 73.9762 10.4043 74.0674C10.1947 74.1585 10.0329 74.293 9.91895 74.4707C9.80501 74.6439 9.74805 74.8376 9.74805 75.0518C9.74805 75.3799 9.87109 75.6533 10.1172 75.8721C10.3678 76.0908 10.7324 76.2002 11.2109 76.2002C11.6849 76.2002 12.1064 76.0977 12.4756 75.8926C12.8447 75.6829 13.1159 75.3981 13.2891 75.0381C13.4212 74.7601 13.4873 74.3499 13.4873 73.8076V73.3564ZM16.6455 69.7402H17.876V75.2773L21.2871 69.7402H22.6133V77H21.3828V71.4971L17.9717 77H16.6455V69.7402ZM20.918 66.9922H21.7588C21.6904 67.5618 21.4808 67.9993 21.1299 68.3047C20.7835 68.61 20.321 68.7627 19.7422 68.7627C19.1589 68.7627 18.6917 68.6123 18.3408 68.3115C17.9945 68.0062 17.7871 67.5664 17.7188 66.9922H18.5596C18.6234 67.3021 18.7487 67.5345 18.9355 67.6895C19.127 67.8398 19.3822 67.915 19.7012 67.915C20.0703 67.915 20.3483 67.8421 20.5352 67.6963C20.7266 67.5459 20.8542 67.3112 20.918 66.9922ZM29.2031 74.3408L30.4131 74.498C30.2809 75.332 29.9414 75.986 29.3945 76.46C28.8522 76.9294 28.1846 77.1641 27.3916 77.1641C26.3981 77.1641 25.5983 76.8405 24.9922 76.1934C24.3906 75.5417 24.0898 74.6097 24.0898 73.3975C24.0898 72.6136 24.2197 71.9277 24.4795 71.3398C24.7393 70.752 25.1335 70.3122 25.6621 70.0205C26.1953 69.7243 26.7741 69.5762 27.3984 69.5762C28.1868 69.5762 28.8317 69.7767 29.333 70.1777C29.8343 70.5742 30.1556 71.1393 30.2969 71.873L29.1006 72.0576C28.9867 71.57 28.7839 71.2031 28.4922 70.957C28.2051 70.7109 27.8564 70.5879 27.4463 70.5879C26.8265 70.5879 26.3229 70.8112 25.9355 71.2578C25.5482 71.6999 25.3545 72.4017 25.3545 73.3633C25.3545 74.3385 25.5413 75.0472 25.915 75.4893C26.2887 75.9313 26.7764 76.1523 27.3779 76.1523C27.861 76.1523 28.2643 76.0042 28.5879 75.708C28.9115 75.4118 29.1165 74.9561 29.2031 74.3408ZM36.2031 76.1045C35.7474 76.4919 35.3076 76.7653 34.8838 76.9248C34.4645 77.0843 34.0133 77.1641 33.5303 77.1641C32.7327 77.1641 32.1198 76.9704 31.6914 76.583C31.263 76.1911 31.0488 75.6921 31.0488 75.0859C31.0488 74.7305 31.1286 74.4069 31.2881 74.1152C31.4521 73.819 31.6641 73.582 31.9238 73.4043C32.1882 73.2266 32.4844 73.0921 32.8125 73.001C33.054 72.9372 33.4186 72.8757 33.9062 72.8164C34.8997 72.6979 35.6312 72.5566 36.1006 72.3926C36.1051 72.224 36.1074 72.1169 36.1074 72.0713C36.1074 71.57 35.9912 71.2168 35.7588 71.0117C35.4443 70.7337 34.9772 70.5947 34.3574 70.5947C33.7786 70.5947 33.3503 70.6973 33.0723 70.9023C32.7988 71.1029 32.596 71.4606 32.4639 71.9756L31.2607 71.8115C31.3701 71.2965 31.5501 70.8818 31.8008 70.5674C32.0514 70.2484 32.4137 70.0046 32.8877 69.8359C33.3617 69.6628 33.9108 69.5762 34.5352 69.5762C35.1549 69.5762 35.6585 69.6491 36.0459 69.7949C36.4333 69.9408 36.7181 70.1253 36.9004 70.3486C37.0827 70.5674 37.2103 70.8454 37.2832 71.1826C37.3242 71.3923 37.3447 71.7705 37.3447 72.3174V73.958C37.3447 75.1019 37.3698 75.8265 37.4199 76.1318C37.4746 76.4326 37.5794 76.722 37.7344 77H36.4492C36.3216 76.7448 36.2396 76.4463 36.2031 76.1045ZM36.1006 73.3564C35.654 73.5387 34.984 73.6937 34.0908 73.8213C33.585 73.8942 33.2272 73.9762 33.0176 74.0674C32.8079 74.1585 32.6462 74.293 32.5322 74.4707C32.4183 74.6439 32.3613 74.8376 32.3613 75.0518C32.3613 75.3799 32.4844 75.6533 32.7305 75.8721C32.9811 76.0908 33.3457 76.2002 33.8242 76.2002C34.2982 76.2002 34.7197 76.0977 35.0889 75.8926C35.458 75.6829 35.7292 75.3981 35.9023 75.0381C36.0345 74.7601 36.1006 74.3499 36.1006 73.8076V73.3564ZM39.2656 69.7402H40.4961V72.7617H43.9072V69.7402H45.1377V77H43.9072V73.7803H40.4961V77H39.2656V69.7402ZM47.0039 69.7402H51.1807V70.7588H48.2344V77H47.0039V69.7402Z" fill="white"/>
<g filter="url(#filter3_d_5077_52618)">
<circle cx="62" cy="74" r="2" fill="#0C99CF"/>
<circle cx="62" cy="74" r="2.5" stroke="white"/>
</g>
<defs>
<filter id="filter0_d_5077_52618" x="62.1634" y="46.3878" width="9.67311" height="9.67311" filterUnits="userSpaceOnUse" color-interpolation-filters="sRGB">
<feFlood flood-opacity="0" result="BackgroundImageFix"/>
<feColorMatrix in="SourceAlpha" type="matrix" values="0 0 0 0 0 0 0 0 0 0 0 0 0 0 0 0 0 0 127 0" result="hardAlpha"/>
<feOffset dy="1.22437"/>
<feGaussianBlur stdDeviation="0.918278"/>
<feColorMatrix type="matrix" values="0 0 0 0 0 0 0 0 0 0 0 0 0 0 0 0 0 0 0.2 0"/>
<feBlend mode="normal" in2="BackgroundImageFix" result="effect1_dropShadow_5077_52618"/>
<feBlend mode="normal" in="SourceGraphic" in2="effect1_dropShadow_5077_52618" result="shape"/>
</filter>
<filter id="filter1_d_5077_52618" x="133.163" y="15.3878" width="13.6731" height="13.6731" filterUnits="userSpaceOnUse" color-interpolation-filters="sRGB">
<feFlood flood-opacity="0" result="BackgroundImageFix"/>
<feColorMatrix in="SourceAlpha" type="matrix" values="0 0 0 0 0 0 0 0 0 0 0 0 0 0 0 0 0 0 127 0" result="hardAlpha"/>
<feOffset dy="1.22437"/>
<feGaussianBlur stdDeviation="0.918278"/>
<feColorMatrix type="matrix" values="0 0 0 0 0 0 0 0 0 0 0 0 0 0 0 0 0 0 0.2 0"/>
<feBlend mode="normal" in2="BackgroundImageFix" result="effect1_dropShadow_5077_52618"/>
<feBlend mode="normal" in="SourceGraphic" in2="effect1_dropShadow_5077_52618" result="shape"/>
</filter>
<filter id="filter2_d_5077_52618" x="50.1634" y="100.388" width="9.67311" height="9.67311" filterUnits="userSpaceOnUse" color-interpolation-filters="sRGB">
<feFlood flood-opacity="0" result="BackgroundImageFix"/>
<feColorMatrix in="SourceAlpha" type="matrix" values="0 0 0 0 0 0 0 0 0 0 0 0 0 0 0 0 0 0 127 0" result="hardAlpha"/>
<feOffset dy="1.22437"/>
<feGaussianBlur stdDeviation="0.918278"/>
<feColorMatrix type="matrix" values="0 0 0 0 0 0 0 0 0 0 0 0 0 0 0 0 0 0 0.2 0"/>
<feBlend mode="normal" in2="BackgroundImageFix" result="effect1_dropShadow_5077_52618"/>
<feBlend mode="normal" in="SourceGraphic" in2="effect1_dropShadow_5077_52618" result="shape"/>
</filter>
<filter id="filter3_d_5077_52618" x="57.1634" y="70.3878" width="9.67311" height="9.67311" filterUnits="userSpaceOnUse" color-interpolation-filters="sRGB">
<feFlood flood-opacity="0" result="BackgroundImageFix"/>
<feColorMatrix in="SourceAlpha" type="matrix" values="0 0 0 0 0 0 0 0 0 0 0 0 0 0 0 0 0 0 127 0" result="hardAlpha"/>
<feOffset dy="1.22437"/>
<feGaussianBlur stdDeviation="0.918278"/>
<feColorMatrix type="matrix" values="0 0 0 0 0 0 0 0 0 0 0 0 0 0 0 0 0 0 0.2 0"/>
<feBlend mode="normal" in2="BackgroundImageFix" result="effect1_dropShadow_5077_52618"/>
<feBlend mode="normal" in="SourceGraphic" in2="effect1_dropShadow_5077_52618" result="shape"/>
</filter>
</defs>
</svg>
