<svg width="350" height="280" viewBox="0 0 350 280" fill="none" xmlns="http://www.w3.org/2000/svg">
<path d="M202.204 6.2373V7.41992H205.93C205.88 8.54557 205.567 9.43424 204.993 10.0859C204.419 10.7331 203.683 11.0566 202.785 11.0566C201.19 11.0566 200.19 10.209 199.784 8.51367L198.506 8.84863C199.085 11.0635 200.479 12.1709 202.689 12.1709C204.271 12.1709 205.447 11.6628 206.217 10.6465C206.992 9.62565 207.354 8.37012 207.304 6.87988C207.304 5.96842 207.131 5.13672 206.784 4.38477C206.442 3.63281 205.916 3.0153 205.205 2.53223C204.494 2.04915 203.646 1.80762 202.662 1.80762C201.623 1.80762 200.753 2.0651 200.051 2.58008C199.354 3.09505 198.882 3.81055 198.636 4.72656L199.935 5.06836C200.313 3.66927 201.224 2.96973 202.669 2.96973C203.644 2.96973 204.408 3.26367 204.959 3.85156C205.515 4.43945 205.82 5.2347 205.875 6.2373H202.204ZM208.992 4.74023H213.169V5.75879H210.223V12H208.992V4.74023ZM214.105 4.74023H216.942C217.64 4.74023 218.157 4.79948 218.494 4.91797C218.836 5.0319 219.128 5.24382 219.369 5.55371C219.615 5.86361 219.738 6.23503 219.738 6.66797C219.738 7.01432 219.665 7.31738 219.52 7.57715C219.378 7.83236 219.164 8.04655 218.877 8.21973C219.219 8.33366 219.501 8.54785 219.725 8.8623C219.952 9.1722 220.066 9.54134 220.066 9.96973C220.021 10.6579 219.775 11.1683 219.328 11.501C218.882 11.8337 218.232 12 217.38 12H214.105V4.74023ZM215.336 7.7959H216.648C217.173 7.7959 217.533 7.76855 217.729 7.71387C217.924 7.65918 218.1 7.5498 218.255 7.38574C218.41 7.21712 218.487 7.0166 218.487 6.78418C218.487 6.40137 218.351 6.13477 218.077 5.98438C217.808 5.83398 217.346 5.75879 216.689 5.75879H215.336V7.7959ZM215.336 10.9883H216.956C217.653 10.9883 218.132 10.9085 218.392 10.749C218.651 10.585 218.788 10.3047 218.802 9.9082C218.802 9.67578 218.727 9.46159 218.576 9.26562C218.426 9.0651 218.23 8.93978 217.988 8.88965C217.747 8.83496 217.359 8.80762 216.826 8.80762H215.336V10.9883ZM226.342 9.66211L227.613 9.81934C227.413 10.5622 227.041 11.1387 226.499 11.5488C225.957 11.959 225.264 12.1641 224.421 12.1641C223.359 12.1641 222.516 11.8382 221.892 11.1865C221.272 10.5303 220.962 9.61198 220.962 8.43164C220.962 7.21029 221.276 6.26237 221.905 5.58789C222.534 4.91341 223.35 4.57617 224.353 4.57617C225.323 4.57617 226.116 4.90658 226.731 5.56738C227.347 6.22819 227.654 7.15788 227.654 8.35645C227.654 8.42936 227.652 8.53874 227.647 8.68457H222.233C222.279 9.4821 222.505 10.0928 222.91 10.5166C223.316 10.9404 223.822 11.1523 224.428 11.1523C224.879 11.1523 225.264 11.0339 225.583 10.7969C225.902 10.5599 226.155 10.1816 226.342 9.66211ZM222.302 7.67285H226.355C226.301 7.06217 226.146 6.60417 225.891 6.29883C225.499 5.82487 224.991 5.58789 224.366 5.58789C223.801 5.58789 223.325 5.77702 222.938 6.15527C222.555 6.53353 222.343 7.03939 222.302 7.67285ZM229.158 4.74023H230.389V7.87793C230.781 7.87793 231.054 7.80273 231.209 7.65234C231.368 7.50195 231.601 7.06445 231.906 6.33984C232.148 5.76562 232.344 5.38737 232.494 5.20508C232.645 5.02279 232.818 4.89974 233.014 4.83594C233.21 4.77214 233.524 4.74023 233.957 4.74023H234.203V5.75879L233.861 5.75195C233.538 5.75195 233.33 5.7998 233.239 5.89551C233.144 5.99577 232.998 6.29427 232.802 6.79102C232.615 7.26497 232.444 7.5931 232.289 7.77539C232.134 7.95768 231.895 8.12402 231.571 8.27441C232.1 8.41569 232.619 8.90788 233.13 9.75098L234.477 12H233.123L231.811 9.75098C231.542 9.2998 231.307 9.00358 231.106 8.8623C230.906 8.71647 230.667 8.64355 230.389 8.64355V12H229.158V4.74023ZM235.29 4.74023H236.521V10.2773L239.932 4.74023H241.258V12H240.027V6.49707L236.616 12H235.29V4.74023ZM243.117 4.74023H244.348V7.76172H247.759V4.74023H248.989V12H247.759V8.78027H244.348V12H243.117V4.74023ZM250.391 8.37012C250.391 7.02572 250.764 6.02995 251.512 5.38281C252.136 4.84505 252.897 4.57617 253.795 4.57617C254.793 4.57617 255.609 4.9043 256.242 5.56055C256.876 6.21224 257.192 7.11458 257.192 8.26758C257.192 9.20182 257.051 9.93783 256.769 10.4756C256.491 11.0088 256.083 11.4235 255.545 11.7197C255.012 12.016 254.428 12.1641 253.795 12.1641C252.779 12.1641 251.956 11.8382 251.327 11.1865C250.703 10.5348 250.391 9.59603 250.391 8.37012ZM251.655 8.37012C251.655 9.2998 251.858 9.99707 252.264 10.4619C252.669 10.9222 253.18 11.1523 253.795 11.1523C254.406 11.1523 254.914 10.9199 255.319 10.4551C255.725 9.99023 255.928 9.28158 255.928 8.3291C255.928 7.43132 255.723 6.75228 255.312 6.29199C254.907 5.82715 254.401 5.59473 253.795 5.59473C253.18 5.59473 252.669 5.82487 252.264 6.28516C251.858 6.74544 251.655 7.44043 251.655 8.37012ZM257.664 4.74023H263.563V5.75879H261.226V12H260.002V5.75879H257.664V4.74023Z" fill="white"/>
<path d="M214.979 93L218.828 82.9785H220.257L224.358 93H222.848L221.679 89.9648H217.488L216.388 93H214.979ZM217.871 88.8848H221.269L220.223 86.1094C219.904 85.2663 219.667 84.5736 219.512 84.0312C219.384 84.6738 219.204 85.3118 218.972 85.9453L217.871 88.8848ZM225.268 85.7402H226.498V88.7617H229.909V85.7402H231.14V93H229.909V89.7803H226.498V93H225.268V85.7402ZM237.736 92.1045C237.281 92.4919 236.841 92.7653 236.417 92.9248C235.998 93.0843 235.547 93.1641 235.063 93.1641C234.266 93.1641 233.653 92.9704 233.225 92.583C232.796 92.1911 232.582 91.6921 232.582 91.0859C232.582 90.7305 232.662 90.4069 232.821 90.1152C232.985 89.819 233.197 89.582 233.457 89.4043C233.721 89.2266 234.018 89.0921 234.346 89.001C234.587 88.9372 234.952 88.8757 235.439 88.8164C236.433 88.6979 237.164 88.5566 237.634 88.3926C237.638 88.224 237.641 88.1169 237.641 88.0713C237.641 87.57 237.524 87.2168 237.292 87.0117C236.978 86.7337 236.51 86.5947 235.891 86.5947C235.312 86.5947 234.883 86.6973 234.605 86.9023C234.332 87.1029 234.129 87.4606 233.997 87.9756L232.794 87.8115C232.903 87.2965 233.083 86.8818 233.334 86.5674C233.585 86.2484 233.947 86.0046 234.421 85.8359C234.895 85.6628 235.444 85.5762 236.068 85.5762C236.688 85.5762 237.192 85.6491 237.579 85.7949C237.966 85.9408 238.251 86.1253 238.434 86.3486C238.616 86.5674 238.743 86.8454 238.816 87.1826C238.857 87.3923 238.878 87.7705 238.878 88.3174V89.958C238.878 91.1019 238.903 91.8265 238.953 92.1318C239.008 92.4326 239.113 92.722 239.268 93H237.982C237.855 92.7448 237.773 92.4463 237.736 92.1045ZM237.634 89.3564C237.187 89.5387 236.517 89.6937 235.624 89.8213C235.118 89.8942 234.76 89.9762 234.551 90.0674C234.341 90.1585 234.179 90.293 234.065 90.4707C233.951 90.6439 233.895 90.8376 233.895 91.0518C233.895 91.3799 234.018 91.6533 234.264 91.8721C234.514 92.0908 234.879 92.2002 235.357 92.2002C235.831 92.2002 236.253 92.0977 236.622 91.8926C236.991 91.6829 237.262 91.3981 237.436 91.0381C237.568 90.7601 237.634 90.3499 237.634 89.8076V89.3564ZM241.763 85.7402H246.821V91.9883H247.607V95.0576H246.596V93H240.881V95.0576H239.869V91.9883H240.519C241.384 90.8125 241.799 88.7298 241.763 85.7402ZM242.788 86.7588C242.697 89.1149 242.332 90.8581 241.694 91.9883H245.598V86.7588H242.788ZM255.879 85.7402H257.109V93H255.879V85.7402ZM248.995 85.7402H250.226V88.5771H251.784C252.8 88.5771 253.582 88.7754 254.129 89.1719C254.68 89.5638 254.956 90.1061 254.956 90.7988C254.956 91.4049 254.726 91.9245 254.266 92.3574C253.81 92.7858 253.078 93 252.071 93H248.995V85.7402ZM250.226 91.9883H251.518C252.297 91.9883 252.853 91.8926 253.186 91.7012C253.518 91.5098 253.685 91.2113 253.685 90.8057C253.685 90.4912 253.562 90.2109 253.315 89.9648C253.069 89.7188 252.525 89.5957 251.682 89.5957H250.226V91.9883ZM259.03 95.7822V85.7402H260.151V86.6836C260.416 86.3145 260.714 86.0387 261.047 85.8564C261.38 85.6696 261.783 85.5762 262.257 85.5762C262.877 85.5762 263.424 85.7357 263.897 86.0547C264.371 86.3737 264.729 86.8249 264.971 87.4082C265.212 87.987 265.333 88.6227 265.333 89.3154C265.333 90.0583 265.199 90.7282 264.93 91.3252C264.665 91.9176 264.278 92.3734 263.768 92.6924C263.262 93.0068 262.729 93.1641 262.168 93.1641C261.758 93.1641 261.389 93.0775 261.061 92.9043C260.737 92.7311 260.47 92.5124 260.261 92.248V95.7822H259.03ZM260.145 89.4111C260.145 90.3454 260.334 91.0358 260.712 91.4824C261.09 91.929 261.548 92.1523 262.086 92.1523C262.633 92.1523 263.1 91.9222 263.487 91.4619C263.879 90.9971 264.075 90.2793 264.075 89.3086C264.075 88.3835 263.884 87.6908 263.501 87.2305C263.123 86.7702 262.669 86.54 262.141 86.54C261.617 86.54 261.152 86.7861 260.746 87.2783C260.345 87.766 260.145 88.4769 260.145 89.4111ZM266.803 85.7402H268.033V88.5771H269.592C270.608 88.5771 271.39 88.7754 271.937 89.1719C272.488 89.5638 272.764 90.1061 272.764 90.7988C272.764 91.4049 272.534 91.9245 272.073 92.3574C271.618 92.7858 270.886 93 269.879 93H266.803V85.7402ZM268.033 91.9883H269.325C270.104 91.9883 270.66 91.8926 270.993 91.7012C271.326 91.5098 271.492 91.2113 271.492 90.8057C271.492 90.4912 271.369 90.2109 271.123 89.9648C270.877 89.7188 270.332 89.5957 269.489 89.5957H268.033V91.9883Z" fill="white"/>
<path d="M1.02539 255V244.979H4.78516C5.55078 244.979 6.16374 245.081 6.62402 245.286C7.08887 245.487 7.45117 245.799 7.71094 246.223C7.97526 246.642 8.10742 247.082 8.10742 247.542C8.10742 247.97 7.99121 248.374 7.75879 248.752C7.52637 249.13 7.17546 249.436 6.70605 249.668C7.31217 249.846 7.77702 250.149 8.10059 250.577C8.42871 251.006 8.59277 251.511 8.59277 252.095C8.59277 252.564 8.49251 253.002 8.29199 253.407C8.09603 253.808 7.85221 254.118 7.56055 254.337C7.26888 254.556 6.90202 254.722 6.45996 254.836C6.02246 254.945 5.4847 255 4.84668 255H1.02539ZM2.35156 249.189H4.51855C5.10645 249.189 5.52799 249.151 5.7832 249.073C6.12044 248.973 6.37337 248.807 6.54199 248.574C6.71517 248.342 6.80176 248.05 6.80176 247.699C6.80176 247.367 6.72201 247.075 6.5625 246.824C6.40299 246.569 6.17513 246.396 5.87891 246.305C5.58268 246.209 5.07454 246.161 4.35449 246.161H2.35156V249.189ZM2.35156 253.817H4.84668C5.27507 253.817 5.57585 253.801 5.74902 253.77C6.05436 253.715 6.30957 253.624 6.51465 253.496C6.71973 253.368 6.88835 253.184 7.02051 252.942C7.15267 252.696 7.21875 252.414 7.21875 252.095C7.21875 251.721 7.12305 251.397 6.93164 251.124C6.74023 250.846 6.47363 250.652 6.13184 250.543C5.7946 250.429 5.30697 250.372 4.66895 250.372H2.35156V253.817ZM10.377 255V244.979H12.373L14.7451 252.074C14.9639 252.735 15.1234 253.229 15.2236 253.558C15.3376 253.193 15.5153 252.658 15.7568 251.951L18.1562 244.979H19.9404V255H18.6621V246.612L15.75 255H14.5537L11.6553 246.469V255H10.377ZM24.6299 255V246.161H21.3281V244.979H29.2715V246.161H25.9561V255H24.6299ZM30.6523 244.979H38.5342V255H37.2012V246.161H31.9785V255H30.6523V244.979Z" fill="white"/>
<path d="M273.5 9.5C393 38 320 109 281.5 90.5" stroke="#87A4BC" stroke-miterlimit="3.99393" stroke-linecap="round" stroke-dasharray="2 4"/>
<path d="M273 8.99981C286 4.00007 388.269 15.6321 333 116C270.5 229.5 167.5 285.5 110.5 265C92.1504 258.401 83.2507 265 72 275C60.7493 284.999 48 272.5 47 263.5" stroke="#87A4BC" stroke-miterlimit="3.99393" stroke-linecap="round" stroke-dasharray="2 4"/>
<path d="M281 90C316.5 125 285.257 155.743 271.5 170C244 198.5 174.5 267 111 263.5C97.9336 262.78 88.1404 253 77.5 267C66.8596 281 48 272.5 47 263.5" stroke="#87A4BC" stroke-miterlimit="3.99393" stroke-linecap="round" stroke-dasharray="2 4"/>
<g filter="url(#filter0_d_5077_52747)">
<circle cx="47" cy="264" r="3" fill="#0C99CF"/>
<circle cx="47" cy="264" r="4" stroke="white" stroke-width="2"/>
</g>
<g filter="url(#filter1_d_5077_52747)">
<circle cx="273" cy="9" r="2" fill="#0C99CF"/>
<circle cx="273" cy="9" r="2.5" stroke="white"/>
</g>
<g filter="url(#filter2_d_5077_52747)">
<circle cx="281" cy="90" r="2" fill="#0C99CF"/>
<circle cx="281" cy="90" r="2.5" stroke="white"/>
</g>
<defs>
<filter id="filter0_d_5077_52747" x="40.1634" y="258.388" width="13.6731" height="13.6731" filterUnits="userSpaceOnUse" color-interpolation-filters="sRGB">
<feFlood flood-opacity="0" result="BackgroundImageFix"/>
<feColorMatrix in="SourceAlpha" type="matrix" values="0 0 0 0 0 0 0 0 0 0 0 0 0 0 0 0 0 0 127 0" result="hardAlpha"/>
<feOffset dy="1.22437"/>
<feGaussianBlur stdDeviation="0.918278"/>
<feColorMatrix type="matrix" values="0 0 0 0 0 0 0 0 0 0 0 0 0 0 0 0 0 0 0.2 0"/>
<feBlend mode="normal" in2="BackgroundImageFix" result="effect1_dropShadow_5077_52747"/>
<feBlend mode="normal" in="SourceGraphic" in2="effect1_dropShadow_5077_52747" result="shape"/>
</filter>
<filter id="filter1_d_5077_52747" x="268.163" y="5.38781" width="9.67311" height="9.67311" filterUnits="userSpaceOnUse" color-interpolation-filters="sRGB">
<feFlood flood-opacity="0" result="BackgroundImageFix"/>
<feColorMatrix in="SourceAlpha" type="matrix" values="0 0 0 0 0 0 0 0 0 0 0 0 0 0 0 0 0 0 127 0" result="hardAlpha"/>
<feOffset dy="1.22437"/>
<feGaussianBlur stdDeviation="0.918278"/>
<feColorMatrix type="matrix" values="0 0 0 0 0 0 0 0 0 0 0 0 0 0 0 0 0 0 0.2 0"/>
<feBlend mode="normal" in2="BackgroundImageFix" result="effect1_dropShadow_5077_52747"/>
<feBlend mode="normal" in="SourceGraphic" in2="effect1_dropShadow_5077_52747" result="shape"/>
</filter>
<filter id="filter2_d_5077_52747" x="276.163" y="86.3878" width="9.67311" height="9.67311" filterUnits="userSpaceOnUse" color-interpolation-filters="sRGB">
<feFlood flood-opacity="0" result="BackgroundImageFix"/>
<feColorMatrix in="SourceAlpha" type="matrix" values="0 0 0 0 0 0 0 0 0 0 0 0 0 0 0 0 0 0 127 0" result="hardAlpha"/>
<feOffset dy="1.22437"/>
<feGaussianBlur stdDeviation="0.918278"/>
<feColorMatrix type="matrix" values="0 0 0 0 0 0 0 0 0 0 0 0 0 0 0 0 0 0 0.2 0"/>
<feBlend mode="normal" in2="BackgroundImageFix" result="effect1_dropShadow_5077_52747"/>
<feBlend mode="normal" in="SourceGraphic" in2="effect1_dropShadow_5077_52747" result="shape"/>
</filter>
</defs>
</svg>
