<svg width="527" height="353" viewBox="0 0 527 353" fill="none" xmlns="http://www.w3.org/2000/svg">
<path d="M466.751 338.5L466.916 338.972L467.101 338.907L467.192 338.735L466.751 338.5ZM486.5 301.5L486.941 301.735L487.21 301.231L486.674 301.031L486.5 301.5ZM465 293.5L464.505 293.575L464.549 293.866L464.825 293.968L465 293.5ZM460 260.5L460.494 260.425L460.48 260.333L460.434 260.252L460 260.5ZM444 232.5L444.434 232.252L444.346 232.099L444.182 232.034L444 232.5ZM418.5 222.5L418.682 222.034L418.418 221.931L418.193 222.105L418.5 222.5ZM391 243.844L390.777 244.291L391.058 244.432L391.307 244.239L391 243.844ZM338.454 217.557L338.082 217.223L337.643 217.711L338.23 218.004L338.454 217.557ZM343 212.5L343.372 212.834L343.52 212.669L343.498 212.449L343 212.5ZM338.454 168L338.951 167.949L338.932 167.763L338.796 167.635L338.454 168ZM314.501 145.5L314.843 145.135L314.677 144.98L314.451 145.002L314.501 145.5ZM256.928 151.221L256.715 151.673L256.84 151.732L256.977 151.719L256.928 151.221ZM214 131L213.506 131.076L213.547 131.339L213.787 131.452L214 131ZM204 65.9995L204.494 65.9235L204.445 65.6086L204.139 65.5195L204 65.9995ZM125.002 42.9995L125.141 42.5195L125.09 42.5044L125.036 42.5007L125.002 42.9995ZM88.5012 40.4995L88.2952 40.9551L88.3773 40.9922L88.467 40.9983L88.5012 40.4995ZM52.2072 23.5439C51.9555 23.4301 51.6593 23.5419 51.5456 23.7935C51.4318 24.0452 51.5436 24.3413 51.7952 24.4551L52.2072 23.5439ZM52.6643 24.848C52.9159 24.9617 53.2121 24.8499 53.3259 24.5983C53.4396 24.3467 53.3278 24.0505 53.0762 23.9367L52.6643 24.848ZM56.5524 25.5082C56.3008 25.3944 56.0046 25.5062 55.8908 25.7578C55.7771 26.0094 55.8889 26.3056 56.1405 26.4194L56.5524 25.5082ZM57.8786 27.2051C58.1302 27.3188 58.4264 27.2071 58.5401 26.9555C58.6539 26.7038 58.5421 26.4076 58.2905 26.2939L57.8786 27.2051ZM61.7667 27.8653C61.5151 27.7516 61.2189 27.8633 61.1051 28.115C60.9914 28.3666 61.1031 28.6628 61.3548 28.7765L61.7667 27.8653ZM63.0929 29.5622C63.3445 29.676 63.6407 29.5642 63.7544 29.3126C63.8682 29.061 63.7564 28.7648 63.5048 28.651L63.0929 29.5622ZM66.981 30.2225C66.7293 30.1087 66.4332 30.2205 66.3194 30.4721C66.2057 30.7237 66.3174 31.0199 66.5691 31.1337L66.981 30.2225ZM68.3071 31.9194C68.5588 32.0331 68.855 31.9214 68.9687 31.6697C69.0825 31.4181 68.9707 31.1219 68.7191 31.0082L68.3071 31.9194ZM72.1953 32.5796C71.9436 32.4658 71.6474 32.5776 71.5337 32.8292C71.4199 33.0809 71.5317 33.3771 71.7833 33.4908L72.1953 32.5796ZM73.5214 34.2765C73.7731 34.3903 74.0693 34.2785 74.183 34.0269C74.2968 33.7753 74.185 33.4791 73.9334 33.3653L73.5214 34.2765ZM77.4095 34.9367C77.1579 34.823 76.8617 34.9348 76.748 35.1864C76.6342 35.438 76.746 35.7342 76.9976 35.848L77.4095 34.9367ZM78.7357 36.6337C78.9873 36.7474 79.2835 36.6357 79.3973 36.384C79.511 36.1324 79.3993 35.8362 79.1476 35.7225L78.7357 36.6337ZM82.6238 37.2939C82.3722 37.1801 82.076 37.2919 81.9623 37.5435C81.8485 37.7952 81.9603 38.0914 82.2119 38.2051L82.6238 37.2939ZM83.95 38.9908C84.2016 39.1046 84.4978 38.9928 84.6116 38.7412C84.7253 38.4895 84.6136 38.1933 84.3619 38.0796L83.95 38.9908ZM87.8381 39.651C87.5865 39.5373 87.2903 39.649 87.1765 39.9007C87.0628 40.1523 87.1746 40.4485 87.4262 40.5622L87.8381 39.651ZM89.4809 41.0678C89.7564 41.0866 89.9951 40.8786 90.0139 40.6031C90.0328 40.3276 89.8248 40.089 89.5493 40.0701L89.4809 41.0678ZM93.6049 40.3479C93.3294 40.329 93.0908 40.5371 93.0719 40.8126C93.053 41.0881 93.2611 41.3267 93.5365 41.3456L93.6049 40.3479ZM95.5644 41.4844C95.8399 41.5033 96.0785 41.2953 96.0974 41.0198C96.1162 40.7443 95.9082 40.5057 95.6327 40.4868L95.5644 41.4844ZM99.6883 40.7646C99.4128 40.7457 99.1742 40.9537 99.1553 41.2292C99.1364 41.5047 99.3445 41.7434 99.62 41.7622L99.6883 40.7646ZM101.648 41.9011C101.923 41.92 102.162 41.712 102.181 41.4365C102.2 41.161 101.992 40.9223 101.716 40.9035L101.648 41.9011ZM105.772 41.1812C105.496 41.1624 105.258 41.3704 105.239 41.6459C105.22 41.9214 105.428 42.16 105.703 42.1789L105.772 41.1812ZM107.731 42.3178C108.007 42.3367 108.245 42.1286 108.264 41.8531C108.283 41.5776 108.075 41.339 107.8 41.3201L107.731 42.3178ZM111.855 41.5979C111.58 41.579 111.341 41.7871 111.322 42.0626C111.303 42.3381 111.511 42.5767 111.787 42.5956L111.855 41.5979ZM113.815 42.7345C114.09 42.7533 114.329 42.5453 114.348 42.2698C114.366 41.9943 114.158 41.7557 113.883 41.7368L113.815 42.7345ZM117.939 42.0146C117.663 41.9957 117.424 42.2038 117.406 42.4793C117.387 42.7548 117.595 42.9934 117.87 43.0123L117.939 42.0146ZM119.898 43.1511C120.173 43.17 120.412 42.962 120.431 42.6865C120.45 42.411 120.242 42.1724 119.966 42.1535L119.898 43.1511ZM124.022 42.4313C123.746 42.4124 123.508 42.6204 123.489 42.8959C123.47 43.1714 123.678 43.4101 123.954 43.4289L124.022 42.4313ZM125.802 43.7534C126.067 43.8306 126.345 43.6783 126.422 43.4131C126.499 43.148 126.347 42.8705 126.082 42.7933L125.802 43.7534ZM129.844 43.8885C129.579 43.8113 129.301 43.9637 129.224 44.2288C129.147 44.494 129.299 44.7715 129.564 44.8487L129.844 43.8885ZM131.445 45.3963C131.71 45.4735 131.988 45.3211 132.065 45.056C132.142 44.7908 131.99 44.5133 131.725 44.4361L131.445 45.3963ZM135.486 45.5314C135.221 45.4542 134.944 45.6065 134.867 45.8717C134.789 46.1368 134.942 46.4143 135.207 46.4915L135.486 45.5314ZM137.088 47.0391C137.353 47.1163 137.63 46.964 137.708 46.6988C137.785 46.4337 137.632 46.1562 137.367 46.079L137.088 47.0391ZM141.129 47.1742C140.864 47.097 140.587 47.2494 140.509 47.5145C140.432 47.7797 140.584 48.0572 140.85 48.1344L141.129 47.1742ZM142.731 48.682C142.996 48.7592 143.273 48.6068 143.35 48.3417C143.428 48.0766 143.275 47.799 143.01 47.7219L142.731 48.682ZM146.772 48.8171C146.507 48.7399 146.229 48.8923 146.152 49.1574C146.075 49.4225 146.227 49.7 146.492 49.7772L146.772 48.8171ZM148.373 50.3249C148.638 50.402 148.916 50.2497 148.993 49.9846C149.07 49.7194 148.918 49.4419 148.653 49.3647L148.373 50.3249ZM152.415 50.46C152.149 50.3828 151.872 50.5351 151.795 50.8003C151.718 51.0654 151.87 51.3429 152.135 51.4201L152.415 50.46ZM154.016 51.9677C154.281 52.0449 154.559 51.8925 154.636 51.6274C154.713 51.3623 154.561 51.0848 154.295 51.0076L154.016 51.9677ZM158.057 52.1028C157.792 52.0256 157.515 52.178 157.437 52.4431C157.36 52.7082 157.513 52.9858 157.778 53.0629L158.057 52.1028ZM159.659 53.6106C159.924 53.6878 160.201 53.5354 160.279 53.2703C160.356 53.0051 160.203 52.7276 159.938 52.6504L159.659 53.6106ZM163.7 53.7457C163.435 53.6685 163.157 53.8208 163.08 54.086C163.003 54.3511 163.155 54.6286 163.42 54.7058L163.7 53.7457ZM165.301 55.2534C165.567 55.3306 165.844 55.1783 165.921 54.9131C165.998 54.648 165.846 54.3705 165.581 54.2933L165.301 55.2534ZM169.343 55.3885C169.078 55.3113 168.8 55.4637 168.723 55.7288C168.646 55.994 168.798 56.2715 169.063 56.3487L169.343 55.3885ZM170.944 56.8963C171.209 56.9735 171.487 56.8211 171.564 56.556C171.641 56.2908 171.489 56.0133 171.224 55.9361L170.944 56.8963ZM174.985 57.0314C174.72 56.9542 174.443 57.1065 174.366 57.3717C174.288 57.6368 174.441 57.9143 174.706 57.9915L174.985 57.0314ZM176.587 58.5391C176.852 58.6163 177.129 58.464 177.207 58.1988C177.284 57.9337 177.131 57.6562 176.866 57.579L176.587 58.5391ZM180.628 58.6742C180.363 58.5971 180.086 58.7494 180.008 59.0145C179.931 59.2797 180.083 59.5572 180.349 59.6344L180.628 58.6742ZM182.23 60.182C182.495 60.2592 182.772 60.1068 182.849 59.8417C182.927 59.5766 182.774 59.299 182.509 59.2219L182.23 60.182ZM186.271 60.3171C186.006 60.2399 185.728 60.3923 185.651 60.6574C185.574 60.9225 185.726 61.2 185.991 61.2772L186.271 60.3171ZM187.872 61.8249C188.137 61.902 188.415 61.7497 188.492 61.4846C188.569 61.2194 188.417 60.9419 188.152 60.8647L187.872 61.8249ZM191.914 61.96C191.648 61.8828 191.371 62.0351 191.294 62.3003C191.217 62.5654 191.369 62.8429 191.634 62.9201L191.914 61.96ZM193.515 63.4677C193.78 63.5449 194.058 63.3925 194.135 63.1274C194.212 62.8623 194.06 62.5848 193.795 62.5076L193.515 63.4677ZM197.556 63.6028C197.291 63.5256 197.014 63.678 196.936 63.9431C196.859 64.2082 197.012 64.4858 197.277 64.5629L197.556 63.6028ZM199.158 65.1106C199.423 65.1878 199.7 65.0354 199.778 64.7703C199.855 64.5051 199.702 64.2276 199.437 64.1504L199.158 65.1106ZM203.199 65.2457C202.934 65.1685 202.656 65.3208 202.579 65.586C202.502 65.8511 202.654 66.1286 202.92 66.2058L203.199 65.2457ZM203.657 67.0604C203.699 67.3334 203.954 67.5206 204.227 67.4786C204.5 67.4366 204.687 67.1813 204.645 66.9084L203.657 67.0604ZM205.252 70.8478C205.21 70.5748 204.954 70.3876 204.681 70.4296C204.408 70.4716 204.221 70.7269 204.263 70.9998L205.252 70.8478ZM204.566 72.9695C204.608 73.2425 204.864 73.4297 205.136 73.3877C205.409 73.3457 205.597 73.0904 205.555 72.8175L204.566 72.9695ZM206.161 76.7569C206.119 76.4839 205.863 76.2967 205.59 76.3387C205.318 76.3807 205.13 76.636 205.172 76.9089L206.161 76.7569ZM205.475 78.8786C205.517 79.1516 205.773 79.3388 206.046 79.2968C206.319 79.2548 206.506 78.9995 206.464 78.7266L205.475 78.8786ZM207.07 82.666C207.028 82.393 206.773 82.2058 206.5 82.2478C206.227 82.2898 206.039 82.5451 206.081 82.818L207.07 82.666ZM206.385 84.7877C206.427 85.0607 206.682 85.2479 206.955 85.2059C207.228 85.1639 207.415 84.9086 207.373 84.6357L206.385 84.7877ZM207.979 88.5751C207.937 88.3022 207.682 88.1149 207.409 88.1569C207.136 88.1989 206.949 88.4542 206.991 88.7272L207.979 88.5751ZM207.294 90.6969C207.336 90.9698 207.591 91.157 207.864 91.115C208.137 91.073 208.324 90.8177 208.282 90.5448L207.294 90.6969ZM208.888 94.4842C208.846 94.2113 208.591 94.024 208.318 94.066C208.045 94.108 207.858 94.3633 207.9 94.6363L208.888 94.4842ZM208.203 96.606C208.245 96.8789 208.5 97.0661 208.773 97.0241C209.046 96.9821 209.233 96.7268 209.191 96.4539L208.203 96.606ZM209.797 100.393C209.755 100.12 209.5 99.9332 209.227 99.9751C208.954 100.017 208.767 100.272 208.809 100.545L209.797 100.393ZM209.112 102.515C209.154 102.788 209.409 102.975 209.682 102.933C209.955 102.891 210.142 102.636 210.1 102.363L209.112 102.515ZM210.706 106.302C210.664 106.029 210.409 105.842 210.136 105.884C209.863 105.926 209.676 106.182 209.718 106.454L210.706 106.302ZM210.021 108.424C210.063 108.697 210.318 108.884 210.591 108.842C210.864 108.8 211.052 108.545 211.01 108.272L210.021 108.424ZM211.616 112.212C211.574 111.939 211.318 111.751 211.045 111.793C210.772 111.835 210.585 112.091 210.627 112.364L211.616 112.212ZM210.93 114.333C210.972 114.606 211.228 114.793 211.501 114.751C211.773 114.709 211.961 114.454 211.919 114.181L210.93 114.333ZM212.525 118.121C212.483 117.848 212.227 117.66 211.955 117.702C211.682 117.744 211.494 118 211.536 118.273L212.525 118.121ZM211.839 120.242C211.881 120.515 212.137 120.703 212.41 120.661C212.683 120.619 212.87 120.363 212.828 120.09L211.839 120.242ZM213.434 124.03C213.392 123.757 213.137 123.57 212.864 123.612C212.591 123.654 212.404 123.909 212.446 124.182L213.434 124.03ZM212.749 126.151C212.791 126.424 213.046 126.612 213.319 126.57C213.592 126.528 213.779 126.272 213.737 125.999L212.749 126.151ZM214.343 129.939C214.301 129.666 214.046 129.479 213.773 129.521C213.5 129.563 213.313 129.818 213.355 130.091L214.343 129.939ZM214.682 131.873C214.931 131.991 215.229 131.884 215.347 131.634C215.465 131.384 215.358 131.086 215.108 130.969L214.682 131.873ZM218.685 132.654C218.435 132.536 218.137 132.643 218.02 132.893C217.902 133.143 218.009 133.441 218.259 133.558L218.685 132.654ZM220.048 134.401C220.297 134.519 220.595 134.412 220.713 134.162C220.831 133.912 220.724 133.614 220.474 133.496L220.048 134.401ZM224.051 135.181C223.801 135.064 223.503 135.171 223.386 135.421C223.268 135.67 223.375 135.968 223.625 136.086L224.051 135.181ZM225.414 136.929C225.663 137.046 225.961 136.939 226.079 136.689C226.197 136.44 226.09 136.142 225.84 136.024L225.414 136.929ZM229.417 137.709C229.167 137.591 228.869 137.699 228.752 137.948C228.634 138.198 228.741 138.496 228.991 138.614L229.417 137.709ZM230.78 139.456C231.029 139.574 231.327 139.467 231.445 139.217C231.563 138.967 231.455 138.669 231.206 138.552L230.78 139.456ZM234.783 140.237C234.533 140.119 234.235 140.226 234.118 140.476C234 140.726 234.107 141.024 234.357 141.141L234.783 140.237ZM236.145 141.984C236.395 142.102 236.693 141.995 236.811 141.745C236.929 141.495 236.821 141.197 236.572 141.079L236.145 141.984ZM240.149 142.764C239.899 142.647 239.601 142.754 239.484 143.004C239.366 143.253 239.473 143.551 239.723 143.669L240.149 142.764ZM241.511 144.512C241.761 144.629 242.059 144.522 242.177 144.272C242.295 144.023 242.187 143.725 241.938 143.607L241.511 144.512ZM245.515 145.292C245.265 145.174 244.967 145.281 244.849 145.531C244.732 145.781 244.839 146.079 245.089 146.197L245.515 145.292ZM246.877 147.039C247.127 147.157 247.425 147.05 247.543 146.8C247.66 146.55 247.553 146.252 247.304 146.135L246.877 147.039ZM250.881 147.82C250.631 147.702 250.333 147.809 250.215 148.059C250.098 148.309 250.205 148.607 250.455 148.724L250.881 147.82ZM252.243 149.567C252.493 149.685 252.791 149.577 252.909 149.328C253.026 149.078 252.919 148.78 252.669 148.662L252.243 149.567ZM256.247 150.347C255.997 150.23 255.699 150.337 255.581 150.587C255.464 150.836 255.571 151.134 255.821 151.252L256.247 150.347ZM257.937 151.623C258.212 151.596 258.412 151.351 258.385 151.076C258.358 150.801 258.113 150.601 257.838 150.628L257.937 151.623ZM261.676 150.247C261.402 150.274 261.201 150.519 261.228 150.794C261.256 151.068 261.5 151.269 261.775 151.242L261.676 150.247ZM263.694 151.051C263.969 151.024 264.17 150.779 264.142 150.504C264.115 150.229 263.87 150.029 263.595 150.056L263.694 151.051ZM267.434 149.674C267.159 149.702 266.958 149.947 266.985 150.221C267.013 150.496 267.258 150.697 267.532 150.67L267.434 149.674ZM269.452 150.479C269.726 150.452 269.927 150.207 269.9 149.932C269.872 149.657 269.627 149.456 269.353 149.484L269.452 150.479ZM273.191 149.102C272.916 149.13 272.715 149.375 272.743 149.649C272.77 149.924 273.015 150.125 273.29 150.097L273.191 149.102ZM275.209 149.907C275.484 149.879 275.684 149.635 275.657 149.36C275.63 149.085 275.385 148.884 275.11 148.912L275.209 149.907ZM278.948 148.53C278.673 148.558 278.473 148.802 278.5 149.077C278.527 149.352 278.772 149.553 279.047 149.525L278.948 148.53ZM280.966 149.335C281.241 149.307 281.441 149.062 281.414 148.788C281.387 148.513 281.142 148.312 280.867 148.339L280.966 149.335ZM284.705 147.958C284.431 147.985 284.23 148.23 284.257 148.505C284.284 148.78 284.529 148.98 284.804 148.953L284.705 147.958ZM286.723 148.762C286.998 148.735 287.199 148.49 287.171 148.215C287.144 147.941 286.899 147.74 286.624 147.767L286.723 148.762ZM290.463 147.386C290.188 147.413 289.987 147.658 290.014 147.933C290.042 148.208 290.287 148.408 290.561 148.381L290.463 147.386ZM292.481 148.19C292.755 148.163 292.956 147.918 292.929 147.643C292.901 147.369 292.656 147.168 292.382 147.195L292.481 148.19ZM296.22 146.814C295.945 146.841 295.744 147.086 295.772 147.361C295.799 147.636 296.044 147.836 296.319 147.809L296.22 146.814ZM298.238 147.618C298.513 147.591 298.713 147.346 298.686 147.071C298.659 146.796 298.414 146.596 298.139 146.623L298.238 147.618ZM301.977 146.242C301.702 146.269 301.502 146.514 301.529 146.789C301.556 147.063 301.801 147.264 302.076 147.237L301.977 146.242ZM303.995 147.046C304.27 147.019 304.47 146.774 304.443 146.499C304.416 146.224 304.171 146.024 303.896 146.051L303.995 147.046ZM307.734 145.67C307.46 145.697 307.259 145.942 307.286 146.216C307.314 146.491 307.558 146.692 307.833 146.665L307.734 145.67ZM309.752 146.474C310.027 146.447 310.228 146.202 310.2 145.927C310.173 145.652 309.928 145.451 309.653 145.479L309.752 146.474ZM313.492 145.097C313.217 145.125 313.016 145.37 313.043 145.644C313.071 145.919 313.316 146.12 313.59 146.092L313.492 145.097ZM314.957 146.614C315.158 146.803 315.474 146.793 315.663 146.592C315.852 146.391 315.843 146.074 315.641 145.885L314.957 146.614ZM318.835 148.885C318.634 148.696 318.317 148.706 318.128 148.907C317.939 149.109 317.949 149.425 318.15 149.614L318.835 148.885ZM319.747 151.114C319.949 151.303 320.265 151.293 320.454 151.092C320.643 150.891 320.633 150.574 320.432 150.385L319.747 151.114ZM323.626 153.385C323.424 153.196 323.108 153.206 322.919 153.407C322.73 153.608 322.74 153.925 322.941 154.114L323.626 153.385ZM324.538 155.614C324.739 155.803 325.056 155.793 325.245 155.592C325.434 155.391 325.424 155.074 325.223 154.885L324.538 155.614ZM328.416 157.885C328.215 157.696 327.899 157.706 327.71 157.907C327.521 158.108 327.53 158.425 327.732 158.614L328.416 157.885ZM329.329 160.114C329.53 160.303 329.846 160.293 330.035 160.092C330.224 159.891 330.215 159.574 330.013 159.385L329.329 160.114ZM333.207 162.385C333.006 162.196 332.689 162.206 332.5 162.407C332.311 162.609 332.321 162.925 332.522 163.114L333.207 162.385ZM334.119 164.614C334.321 164.803 334.637 164.793 334.826 164.592C335.015 164.391 335.005 164.074 334.804 163.885L334.119 164.614ZM337.998 166.885C337.796 166.696 337.48 166.706 337.291 166.907C337.102 167.109 337.112 167.425 337.313 167.614L337.998 166.885ZM338.065 169.11C338.093 169.385 338.338 169.585 338.613 169.556C338.888 169.528 339.088 169.283 339.06 169.008L338.065 169.11ZM339.493 173.246C339.464 172.972 339.219 172.772 338.944 172.8C338.67 172.828 338.47 173.073 338.498 173.348L339.493 173.246ZM338.714 175.467C338.742 175.742 338.988 175.942 339.262 175.914C339.537 175.886 339.737 175.64 339.709 175.365L338.714 175.467ZM340.142 179.604C340.114 179.329 339.869 179.129 339.594 179.157C339.319 179.185 339.119 179.43 339.147 179.705L340.142 179.604ZM339.364 181.824C339.392 182.099 339.637 182.299 339.912 182.271C340.187 182.243 340.387 181.997 340.359 181.723L339.364 181.824ZM340.792 185.961C340.763 185.686 340.518 185.486 340.243 185.514C339.969 185.542 339.769 185.788 339.797 186.062L340.792 185.961ZM340.013 188.181C340.041 188.456 340.287 188.656 340.561 188.628C340.836 188.6 341.036 188.355 341.008 188.08L340.013 188.181ZM341.441 192.318C341.413 192.043 341.168 191.843 340.893 191.871C340.618 191.899 340.418 192.145 340.446 192.42L341.441 192.318ZM340.663 194.539C340.691 194.813 340.936 195.013 341.211 194.985C341.486 194.957 341.686 194.712 341.658 194.437L340.663 194.539ZM342.091 198.675C342.063 198.4 341.817 198.2 341.542 198.228C341.268 198.257 341.068 198.502 341.096 198.777L342.091 198.675ZM341.312 200.896C341.34 201.17 341.586 201.37 341.86 201.342C342.135 201.314 342.335 201.069 342.307 200.794L341.312 200.896ZM342.74 205.032C342.712 204.758 342.467 204.558 342.192 204.586C341.917 204.614 341.717 204.859 341.745 205.134L342.74 205.032ZM341.962 207.253C341.99 207.528 342.235 207.728 342.51 207.7C342.785 207.671 342.985 207.426 342.957 207.151L341.962 207.253ZM343.39 211.389C343.362 211.115 343.116 210.915 342.841 210.943C342.567 210.971 342.367 211.216 342.395 211.491L343.39 211.389ZM341.871 213.008C341.686 213.214 341.703 213.53 341.908 213.715C342.114 213.899 342.43 213.882 342.615 213.677L341.871 213.008ZM339.583 217.049C339.768 216.843 339.751 216.527 339.546 216.343C339.341 216.158 339.024 216.175 338.84 216.38L339.583 217.049ZM339.106 218.443C339.353 218.566 339.653 218.466 339.777 218.219C339.9 217.972 339.8 217.672 339.553 217.548L339.106 218.443ZM343.056 219.301C342.809 219.177 342.509 219.277 342.386 219.524C342.262 219.771 342.362 220.071 342.609 220.195L343.056 219.301ZM344.361 221.071C344.608 221.195 344.908 221.095 345.031 220.848C345.155 220.601 345.055 220.3 344.808 220.177L344.361 221.071ZM348.311 221.929C348.064 221.806 347.764 221.906 347.64 222.153C347.517 222.4 347.617 222.7 347.864 222.824L348.311 221.929ZM349.615 223.7C349.862 223.823 350.163 223.723 350.286 223.476C350.41 223.229 350.31 222.929 350.063 222.806L349.615 223.7ZM353.566 224.558C353.319 224.434 353.018 224.535 352.895 224.781C352.771 225.028 352.871 225.329 353.118 225.452L353.566 224.558ZM354.87 226.329C355.117 226.452 355.417 226.352 355.541 226.105C355.664 225.858 355.564 225.558 355.317 225.434L354.87 226.329ZM358.82 227.187C358.573 227.063 358.273 227.163 358.15 227.41C358.026 227.657 358.126 227.957 358.373 228.081L358.82 227.187ZM360.125 228.957C360.372 229.081 360.672 228.981 360.795 228.734C360.919 228.487 360.819 228.186 360.572 228.063L360.125 228.957ZM364.075 229.815C363.828 229.692 363.528 229.792 363.404 230.039C363.281 230.286 363.381 230.586 363.628 230.71L364.075 229.815ZM365.379 231.586C365.626 231.709 365.927 231.609 366.05 231.362C366.174 231.115 366.074 230.815 365.827 230.692L365.379 231.586ZM369.33 232.444C369.083 232.32 368.782 232.42 368.659 232.667C368.535 232.914 368.635 233.215 368.882 233.338L369.33 232.444ZM370.634 234.215C370.881 234.338 371.181 234.238 371.305 233.991C371.428 233.744 371.328 233.444 371.081 233.32L370.634 234.215ZM374.584 235.073C374.337 234.949 374.037 235.049 373.914 235.296C373.79 235.543 373.89 235.843 374.137 235.967L374.584 235.073ZM375.889 236.843C376.135 236.967 376.436 236.867 376.559 236.62C376.683 236.373 376.583 236.072 376.336 235.949L375.889 236.843ZM379.839 237.701C379.592 237.578 379.292 237.678 379.168 237.925C379.045 238.172 379.145 238.472 379.392 238.596L379.839 237.701ZM381.143 239.472C381.39 239.595 381.691 239.495 381.814 239.248C381.938 239.001 381.838 238.701 381.591 238.578L381.143 239.472ZM385.094 240.33C384.847 240.206 384.546 240.306 384.423 240.553C384.299 240.8 384.399 241.101 384.646 241.224L385.094 240.33ZM386.398 242.1C386.645 242.224 386.945 242.124 387.069 241.877C387.192 241.63 387.092 241.33 386.845 241.206L386.398 242.1ZM390.348 242.959C390.101 242.835 389.801 242.935 389.677 243.182C389.554 243.429 389.654 243.729 389.901 243.853L390.348 242.959ZM392.071 243.646C392.289 243.477 392.329 243.163 392.159 242.944C391.99 242.726 391.676 242.687 391.458 242.856L392.071 243.646ZM394.513 240.484C394.295 240.654 394.255 240.968 394.425 241.186C394.594 241.404 394.908 241.444 395.126 241.274L394.513 240.484ZM396.654 240.089C396.872 239.919 396.912 239.605 396.742 239.387C396.573 239.169 396.259 239.129 396.041 239.299L396.654 240.089ZM399.096 236.927C398.878 237.096 398.839 237.411 399.008 237.629C399.177 237.847 399.491 237.886 399.71 237.717L399.096 236.927ZM401.237 236.531C401.455 236.362 401.495 236.048 401.326 235.83C401.156 235.612 400.842 235.572 400.624 235.741L401.237 236.531ZM403.68 233.37C403.461 233.539 403.422 233.853 403.591 234.071C403.76 234.289 404.075 234.329 404.293 234.16L403.68 233.37ZM405.82 232.974C406.039 232.805 406.078 232.491 405.909 232.272C405.74 232.054 405.425 232.015 405.207 232.184L405.82 232.974ZM408.263 229.812C408.045 229.982 408.005 230.296 408.174 230.514C408.344 230.732 408.658 230.772 408.876 230.602L408.263 229.812ZM410.404 229.417C410.622 229.247 410.661 228.933 410.492 228.715C410.323 228.497 410.009 228.457 409.79 228.627L410.404 229.417ZM412.846 226.255C412.628 226.424 412.588 226.738 412.758 226.957C412.927 227.175 413.241 227.214 413.459 227.045L412.846 226.255ZM414.987 225.859C415.205 225.69 415.245 225.376 415.075 225.158C414.906 224.94 414.592 224.9 414.374 225.069L414.987 225.859ZM417.429 222.698C417.211 222.867 417.171 223.181 417.341 223.399C417.51 223.617 417.824 223.657 418.042 223.488L417.429 222.698ZM419.167 223.299C419.424 223.399 419.714 223.273 419.815 223.016C419.916 222.759 419.789 222.468 419.532 222.368L419.167 223.299ZM422.932 223.701C422.675 223.6 422.385 223.727 422.284 223.984C422.183 224.241 422.31 224.531 422.567 224.632L422.932 223.701ZM424.267 225.299C424.524 225.399 424.814 225.273 424.915 225.016C425.016 224.759 424.889 224.468 424.632 224.368L424.267 225.299ZM428.032 225.701C427.775 225.6 427.485 225.727 427.384 225.984C427.283 226.241 427.41 226.531 427.667 226.632L428.032 225.701ZM429.367 227.299C429.624 227.399 429.914 227.273 430.015 227.016C430.116 226.759 429.989 226.468 429.732 226.368L429.367 227.299ZM433.132 227.701C432.875 227.6 432.585 227.727 432.484 227.984C432.383 228.241 432.51 228.531 432.767 228.632L433.132 227.701ZM434.467 229.299C434.724 229.399 435.014 229.273 435.115 229.016C435.216 228.759 435.089 228.468 434.832 228.368L434.467 229.299ZM438.232 229.701C437.975 229.6 437.685 229.727 437.584 229.984C437.483 230.241 437.61 230.531 437.867 230.632L438.232 229.701ZM439.567 231.299C439.824 231.399 440.114 231.273 440.215 231.016C440.316 230.759 440.189 230.468 439.932 230.368L439.567 231.299ZM443.332 231.701C443.075 231.6 442.785 231.727 442.684 231.984C442.583 232.241 442.71 232.531 442.967 232.632L443.332 231.701ZM444.099 233.681C444.236 233.921 444.541 234.004 444.781 233.867C445.021 233.73 445.104 233.425 444.967 233.185L444.099 233.681ZM447.1 236.918C446.963 236.679 446.658 236.595 446.418 236.732C446.178 236.869 446.095 237.175 446.232 237.415L447.1 236.918ZM447.299 239.281C447.436 239.521 447.741 239.604 447.981 239.467C448.221 239.33 448.304 239.025 448.167 238.785L447.299 239.281ZM450.3 242.518C450.163 242.279 449.858 242.195 449.618 242.332C449.378 242.469 449.295 242.775 449.432 243.015L450.3 242.518ZM450.499 244.881C450.636 245.121 450.941 245.204 451.181 245.067C451.421 244.93 451.504 244.625 451.367 244.385L450.499 244.881ZM453.5 248.118C453.363 247.879 453.058 247.795 452.818 247.932C452.578 248.069 452.495 248.375 452.632 248.615L453.5 248.118ZM453.699 250.481C453.836 250.721 454.141 250.804 454.381 250.667C454.621 250.53 454.704 250.225 454.567 249.985L453.699 250.481ZM456.7 253.718C456.563 253.479 456.258 253.395 456.018 253.532C455.778 253.669 455.695 253.975 455.832 254.215L456.7 253.718ZM456.899 256.081C457.036 256.321 457.341 256.404 457.581 256.267C457.821 256.13 457.904 255.825 457.767 255.585L456.899 256.081ZM459.9 259.318C459.763 259.079 459.458 258.995 459.218 259.132C458.978 259.269 458.895 259.575 459.032 259.815L459.9 259.318ZM459.644 261.491C459.686 261.764 459.94 261.952 460.213 261.911C460.486 261.869 460.674 261.615 460.633 261.342L459.644 261.491ZM461.188 265.008C461.147 264.735 460.892 264.547 460.619 264.589C460.346 264.63 460.158 264.885 460.2 265.158L461.188 265.008ZM460.477 266.991C460.519 267.264 460.774 267.452 461.047 267.411C461.32 267.369 461.508 267.115 461.466 266.842L460.477 266.991ZM462.022 270.508C461.98 270.235 461.726 270.047 461.452 270.089C461.179 270.13 460.992 270.385 461.033 270.658L462.022 270.508ZM461.311 272.491C461.352 272.764 461.607 272.952 461.88 272.911C462.153 272.87 462.341 272.615 462.3 272.342L461.311 272.491ZM462.855 276.008C462.814 275.735 462.559 275.547 462.286 275.589C462.013 275.63 461.825 275.885 461.866 276.158L462.855 276.008ZM462.144 277.991C462.186 278.264 462.44 278.452 462.713 278.411C462.986 278.369 463.174 278.115 463.133 277.842L462.144 277.991ZM463.688 281.508C463.647 281.235 463.392 281.047 463.119 281.089C462.846 281.13 462.658 281.385 462.7 281.658L463.688 281.508ZM462.978 283.491C463.019 283.764 463.274 283.952 463.547 283.911C463.82 283.87 464.008 283.615 463.966 283.342L462.978 283.491ZM464.522 287.008C464.48 286.735 464.226 286.547 463.953 286.589C463.68 286.63 463.492 286.885 463.533 287.158L464.522 287.008ZM463.811 288.991C463.852 289.264 464.107 289.452 464.38 289.411C464.653 289.37 464.841 289.115 464.8 288.842L463.811 288.991ZM465.355 292.508C465.314 292.235 465.059 292.047 464.786 292.089C464.513 292.13 464.325 292.385 464.366 292.658L465.355 292.508ZM465.721 294.302C465.98 294.398 466.268 294.266 466.364 294.008C466.46 293.749 466.329 293.461 466.07 293.365L465.721 294.302ZM469.653 294.698C469.394 294.602 469.107 294.733 469.01 294.992C468.914 295.251 469.046 295.539 469.304 295.635L469.653 294.698ZM471.096 296.302C471.355 296.398 471.643 296.266 471.739 296.008C471.835 295.749 471.704 295.461 471.445 295.365L471.096 296.302ZM475.028 296.698C474.769 296.602 474.482 296.733 474.385 296.992C474.289 297.251 474.421 297.539 474.679 297.635L475.028 296.698ZM476.471 298.302C476.73 298.398 477.018 298.266 477.114 298.008C477.21 297.749 477.079 297.461 476.82 297.365L476.471 298.302ZM480.403 298.698C480.144 298.602 479.856 298.733 479.76 298.992C479.664 299.251 479.796 299.539 480.054 299.635L480.403 298.698ZM481.846 300.302C482.105 300.398 482.393 300.266 482.489 300.008C482.585 299.749 482.454 299.461 482.195 299.365L481.846 300.302ZM485.778 300.698C485.519 300.602 485.232 300.733 485.135 300.992C485.039 301.251 485.171 301.539 485.429 301.635L485.778 300.698ZM485.588 302.145C485.458 302.389 485.55 302.692 485.794 302.822C486.038 302.952 486.341 302.86 486.471 302.616L485.588 302.145ZM484.59 306.14C484.72 305.896 484.628 305.594 484.384 305.464C484.14 305.333 483.838 305.426 483.708 305.669L484.59 306.14ZM482.767 307.431C482.637 307.675 482.729 307.978 482.973 308.108C483.216 308.238 483.519 308.146 483.649 307.902L482.767 307.431ZM481.769 311.426C481.899 311.182 481.807 310.879 481.563 310.749C481.319 310.619 481.016 310.711 480.886 310.955L481.769 311.426ZM479.946 312.717C479.816 312.96 479.908 313.263 480.152 313.393C480.395 313.523 480.698 313.431 480.828 313.188L479.946 312.717ZM478.947 316.711C479.077 316.468 478.985 316.165 478.742 316.035C478.498 315.905 478.195 315.997 478.065 316.241L478.947 316.711ZM477.125 318.003C476.995 318.246 477.087 318.549 477.33 318.679C477.574 318.809 477.877 318.717 478.007 318.473L477.125 318.003ZM476.126 321.997C476.256 321.754 476.164 321.451 475.921 321.321C475.677 321.191 475.374 321.283 475.244 321.526L476.126 321.997ZM474.304 323.288C474.174 323.532 474.266 323.835 474.509 323.965C474.753 324.095 475.056 324.003 475.186 323.759L474.304 323.288ZM473.305 327.283C473.435 327.039 473.343 326.736 473.099 326.606C472.856 326.476 472.553 326.568 472.423 326.812L473.305 327.283ZM471.482 328.574C471.352 328.818 471.445 329.12 471.688 329.25C471.932 329.38 472.235 329.288 472.365 329.045L471.482 328.574ZM470.484 332.569C470.614 332.325 470.522 332.022 470.278 331.892C470.035 331.762 469.732 331.854 469.602 332.098L470.484 332.569ZM468.661 333.86C468.531 334.103 468.623 334.406 468.867 334.536C469.111 334.666 469.413 334.574 469.543 334.331L468.661 333.86ZM467.663 337.854C467.793 337.611 467.701 337.308 467.457 337.178C467.213 337.048 466.911 337.14 466.78 337.383L467.663 337.854ZM465.739 338.324C465.478 338.415 465.341 338.7 465.432 338.961C465.523 339.222 465.808 339.359 466.069 339.268L465.739 338.324ZM462.679 340.452C462.94 340.361 463.077 340.076 462.986 339.816C462.895 339.555 462.61 339.417 462.349 339.508L462.679 340.452ZM460.654 340.101C460.393 340.192 460.256 340.477 460.347 340.738C460.438 340.998 460.723 341.136 460.984 341.045L460.654 340.101ZM457.594 342.229C457.855 342.138 457.992 341.853 457.901 341.592C457.81 341.332 457.525 341.194 457.264 341.285L457.594 342.229ZM455.569 341.877C455.309 341.969 455.171 342.254 455.262 342.514C455.353 342.775 455.639 342.913 455.899 342.821L455.569 341.877ZM452.509 344.006C452.77 343.915 452.907 343.63 452.816 343.369C452.725 343.108 452.44 342.971 452.179 343.062L452.509 344.006ZM51.7952 24.4551L52.6643 24.848L53.0762 23.9367L52.2072 23.5439L51.7952 24.4551ZM56.1405 26.4194L57.8786 27.2051L58.2905 26.2939L56.5524 25.5082L56.1405 26.4194ZM61.3548 28.7765L63.0929 29.5622L63.5048 28.651L61.7667 27.8653L61.3548 28.7765ZM66.5691 31.1337L68.3071 31.9194L68.7191 31.0082L66.981 30.2225L66.5691 31.1337ZM71.7833 33.4908L73.5214 34.2765L73.9334 33.3653L72.1953 32.5796L71.7833 33.4908ZM76.9976 35.848L78.7357 36.6337L79.1476 35.7225L77.4095 34.9367L76.9976 35.848ZM82.2119 38.2051L83.95 38.9908L84.3619 38.0796L82.6238 37.2939L82.2119 38.2051ZM87.4262 40.5622L88.2952 40.9551L88.7072 40.0439L87.8381 39.651L87.4262 40.5622ZM88.467 40.9983L89.4809 41.0678L89.5493 40.0701L88.5354 40.0007L88.467 40.9983ZM93.5365 41.3456L95.5644 41.4844L95.6327 40.4868L93.6049 40.3479L93.5365 41.3456ZM99.62 41.7622L101.648 41.9011L101.716 40.9035L99.6883 40.7646L99.62 41.7622ZM105.703 42.1789L107.731 42.3178L107.8 41.3201L105.772 41.1812L105.703 42.1789ZM111.787 42.5956L113.815 42.7345L113.883 41.7368L111.855 41.5979L111.787 42.5956ZM117.87 43.0123L119.898 43.1511L119.966 42.1535L117.939 42.0146L117.87 43.0123ZM123.954 43.4289L124.968 43.4984L125.036 42.5007L124.022 42.4313L123.954 43.4289ZM124.862 43.4796L125.802 43.7534L126.082 42.7933L125.141 42.5195L124.862 43.4796ZM129.564 44.8487L131.445 45.3963L131.725 44.4361L129.844 43.8885L129.564 44.8487ZM135.207 46.4915L137.088 47.0391L137.367 46.079L135.486 45.5314L135.207 46.4915ZM140.85 48.1344L142.731 48.682L143.01 47.7219L141.129 47.1742L140.85 48.1344ZM146.492 49.7772L148.373 50.3249L148.653 49.3647L146.772 48.8171L146.492 49.7772ZM152.135 51.4201L154.016 51.9677L154.295 51.0076L152.415 50.46L152.135 51.4201ZM157.778 53.0629L159.659 53.6106L159.938 52.6504L158.057 52.1028L157.778 53.0629ZM163.42 54.7058L165.301 55.2534L165.581 54.2933L163.7 53.7457L163.42 54.7058ZM169.063 56.3487L170.944 56.8963L171.224 55.9361L169.343 55.3885L169.063 56.3487ZM174.706 57.9915L176.587 58.5391L176.866 57.579L174.985 57.0314L174.706 57.9915ZM180.349 59.6344L182.23 60.182L182.509 59.2219L180.628 58.6742L180.349 59.6344ZM185.991 61.2772L187.872 61.8249L188.152 60.8647L186.271 60.3171L185.991 61.2772ZM191.634 62.9201L193.515 63.4677L193.795 62.5076L191.914 61.96L191.634 62.9201ZM197.277 64.5629L199.158 65.1106L199.437 64.1504L197.556 63.6028L197.277 64.5629ZM202.92 66.2058L203.86 66.4796L204.139 65.5195L203.199 65.2457L202.92 66.2058ZM203.506 66.0756L203.657 67.0604L204.645 66.9084L204.494 65.9235L203.506 66.0756ZM204.263 70.9998L204.566 72.9695L205.555 72.8175L205.252 70.8478L204.263 70.9998ZM205.172 76.9089L205.475 78.8786L206.464 78.7266L206.161 76.7569L205.172 76.9089ZM206.081 82.818L206.385 84.7877L207.373 84.6357L207.07 82.666L206.081 82.818ZM206.991 88.7272L207.294 90.6969L208.282 90.5448L207.979 88.5751L206.991 88.7272ZM207.9 94.6363L208.203 96.606L209.191 96.4539L208.888 94.4842L207.9 94.6363ZM208.809 100.545L209.112 102.515L210.1 102.363L209.797 100.393L208.809 100.545ZM209.718 106.454L210.021 108.424L211.01 108.272L210.706 106.302L209.718 106.454ZM210.627 112.364L210.93 114.333L211.919 114.181L211.616 112.212L210.627 112.364ZM211.536 118.273L211.839 120.242L212.828 120.09L212.525 118.121L211.536 118.273ZM212.446 124.182L212.749 126.151L213.737 125.999L213.434 124.03L212.446 124.182ZM213.355 130.091L213.506 131.076L214.495 130.924L214.343 129.939L213.355 130.091ZM213.787 131.452L214.682 131.873L215.108 130.969L214.213 130.547L213.787 131.452ZM218.259 133.558L220.048 134.401L220.474 133.496L218.685 132.654L218.259 133.558ZM223.625 136.086L225.414 136.929L225.84 136.024L224.051 135.181L223.625 136.086ZM228.991 138.614L230.78 139.456L231.206 138.552L229.417 137.709L228.991 138.614ZM234.357 141.141L236.145 141.984L236.572 141.079L234.783 140.237L234.357 141.141ZM239.723 143.669L241.511 144.512L241.938 143.607L240.149 142.764L239.723 143.669ZM245.089 146.197L246.877 147.039L247.304 146.135L245.515 145.292L245.089 146.197ZM250.455 148.724L252.243 149.567L252.669 148.662L250.881 147.82L250.455 148.724ZM255.821 151.252L256.715 151.673L257.141 150.769L256.247 150.347L255.821 151.252ZM256.977 151.719L257.937 151.623L257.838 150.628L256.879 150.723L256.977 151.719ZM261.775 151.242L263.694 151.051L263.595 150.056L261.676 150.247L261.775 151.242ZM267.532 150.67L269.452 150.479L269.353 149.484L267.434 149.674L267.532 150.67ZM273.29 150.097L275.209 149.907L275.11 148.912L273.191 149.102L273.29 150.097ZM279.047 149.525L280.966 149.335L280.867 148.339L278.948 148.53L279.047 149.525ZM284.804 148.953L286.723 148.762L286.624 147.767L284.705 147.958L284.804 148.953ZM290.561 148.381L292.481 148.19L292.382 147.195L290.463 147.386L290.561 148.381ZM296.319 147.809L298.238 147.618L298.139 146.623L296.22 146.814L296.319 147.809ZM302.076 147.237L303.995 147.046L303.896 146.051L301.977 146.242L302.076 147.237ZM307.833 146.665L309.752 146.474L309.653 145.479L307.734 145.67L307.833 146.665ZM313.59 146.092L314.55 145.997L314.451 145.002L313.492 145.097L313.59 146.092ZM314.158 145.864L314.957 146.614L315.641 145.885L314.843 145.135L314.158 145.864ZM318.15 149.614L319.747 151.114L320.432 150.385L318.835 148.885L318.15 149.614ZM322.941 154.114L324.538 155.614L325.223 154.885L323.626 153.385L322.941 154.114ZM327.732 158.614L329.329 160.114L330.013 159.385L328.416 157.885L327.732 158.614ZM332.522 163.114L334.119 164.614L334.804 163.885L333.207 162.385L332.522 163.114ZM337.313 167.614L338.112 168.364L338.796 167.635L337.998 166.885L337.313 167.614ZM337.956 168.05L338.065 169.11L339.06 169.008L338.951 167.949L337.956 168.05ZM338.498 173.348L338.714 175.467L339.709 175.365L339.493 173.246L338.498 173.348ZM339.147 179.705L339.364 181.824L340.359 181.723L340.142 179.604L339.147 179.705ZM339.797 186.062L340.013 188.181L341.008 188.08L340.792 185.961L339.797 186.062ZM340.446 192.42L340.663 194.539L341.658 194.437L341.441 192.318L340.446 192.42ZM341.096 198.777L341.312 200.896L342.307 200.794L342.091 198.675L341.096 198.777ZM341.745 205.134L341.962 207.253L342.957 207.151L342.74 205.032L341.745 205.134ZM342.395 211.491L342.503 212.551L343.498 212.449L343.39 211.389L342.395 211.491ZM342.629 212.166L341.871 213.008L342.615 213.677L343.372 212.834L342.629 212.166ZM338.84 216.38L338.082 217.223L338.826 217.892L339.583 217.049L338.84 216.38ZM338.23 218.004L339.106 218.443L339.553 217.548L338.678 217.11L338.23 218.004ZM342.609 220.195L344.361 221.071L344.808 220.177L343.056 219.301L342.609 220.195ZM347.864 222.824L349.615 223.7L350.063 222.806L348.311 221.929L347.864 222.824ZM353.118 225.452L354.87 226.329L355.317 225.434L353.566 224.558L353.118 225.452ZM358.373 228.081L360.125 228.957L360.572 228.063L358.82 227.187L358.373 228.081ZM363.628 230.71L365.379 231.586L365.827 230.692L364.075 229.815L363.628 230.71ZM368.882 233.338L370.634 234.215L371.081 233.32L369.33 232.444L368.882 233.338ZM374.137 235.967L375.889 236.843L376.336 235.949L374.584 235.073L374.137 235.967ZM379.392 238.596L381.143 239.472L381.591 238.578L379.839 237.701L379.392 238.596ZM384.646 241.224L386.398 242.1L386.845 241.206L385.094 240.33L384.646 241.224ZM389.901 243.853L390.777 244.291L391.224 243.397L390.348 242.959L389.901 243.853ZM391.307 244.239L392.071 243.646L391.458 242.856L390.694 243.449L391.307 244.239ZM395.126 241.274L396.654 240.089L396.041 239.299L394.513 240.484L395.126 241.274ZM399.71 237.717L401.237 236.531L400.624 235.741L399.096 236.927L399.71 237.717ZM404.293 234.16L405.82 232.974L405.207 232.184L403.68 233.37L404.293 234.16ZM408.876 230.602L410.404 229.417L409.79 228.627L408.263 229.812L408.876 230.602ZM413.459 227.045L414.987 225.859L414.374 225.069L412.846 226.255L413.459 227.045ZM418.042 223.488L418.806 222.895L418.193 222.105L417.429 222.698L418.042 223.488ZM418.317 222.965L419.167 223.299L419.532 222.368L418.682 222.034L418.317 222.965ZM422.567 224.632L424.267 225.299L424.632 224.368L422.932 223.701L422.567 224.632ZM427.667 226.632L429.367 227.299L429.732 226.368L428.032 225.701L427.667 226.632ZM432.767 228.632L434.467 229.299L434.832 228.368L433.132 227.701L432.767 228.632ZM437.867 230.632L439.567 231.299L439.932 230.368L438.232 229.701L437.867 230.632ZM442.967 232.632L443.817 232.965L444.182 232.034L443.332 231.701L442.967 232.632ZM443.565 232.748L444.099 233.681L444.967 233.185L444.434 232.252L443.565 232.748ZM446.232 237.415L447.299 239.281L448.167 238.785L447.1 236.918L446.232 237.415ZM449.432 243.015L450.499 244.881L451.367 244.385L450.3 242.518L449.432 243.015ZM452.632 248.615L453.699 250.481L454.567 249.985L453.5 248.118L452.632 248.615ZM455.832 254.215L456.899 256.081L457.767 255.585L456.7 253.718L455.832 254.215ZM459.032 259.815L459.565 260.748L460.434 260.252L459.9 259.318L459.032 259.815ZM459.505 260.575L459.644 261.491L460.633 261.342L460.494 260.425L459.505 260.575ZM460.2 265.158L460.477 266.991L461.466 266.842L461.188 265.008L460.2 265.158ZM461.033 270.658L461.311 272.491L462.3 272.342L462.022 270.508L461.033 270.658ZM461.866 276.158L462.144 277.991L463.133 277.842L462.855 276.008L461.866 276.158ZM462.7 281.658L462.978 283.491L463.966 283.342L463.688 281.508L462.7 281.658ZM463.533 287.158L463.811 288.991L464.8 288.842L464.522 287.008L463.533 287.158ZM464.366 292.658L464.505 293.575L465.494 293.425L465.355 292.508L464.366 292.658ZM464.825 293.968L465.721 294.302L466.07 293.365L465.174 293.031L464.825 293.968ZM469.304 295.635L471.096 296.302L471.445 295.365L469.653 294.698L469.304 295.635ZM474.679 297.635L476.471 298.302L476.82 297.365L475.028 296.698L474.679 297.635ZM480.054 299.635L481.846 300.302L482.195 299.365L480.403 298.698L480.054 299.635ZM485.429 301.635L486.325 301.968L486.674 301.031L485.778 300.698L485.429 301.635ZM486.059 301.264L485.588 302.145L486.471 302.616L486.941 301.735L486.059 301.264ZM483.708 305.669L482.767 307.431L483.649 307.902L484.59 306.14L483.708 305.669ZM480.886 310.955L479.946 312.717L480.828 313.188L481.769 311.426L480.886 310.955ZM478.065 316.241L477.125 318.003L478.007 318.473L478.947 316.711L478.065 316.241ZM475.244 321.526L474.304 323.288L475.186 323.759L476.126 321.997L475.244 321.526ZM472.423 326.812L471.482 328.574L472.365 329.045L473.305 327.283L472.423 326.812ZM469.602 332.098L468.661 333.86L469.543 334.331L470.484 332.569L469.602 332.098ZM466.78 337.383L466.31 338.264L467.192 338.735L467.663 337.854L466.78 337.383ZM466.586 338.028L465.739 338.324L466.069 339.268L466.916 338.972L466.586 338.028ZM462.349 339.508L460.654 340.101L460.984 341.045L462.679 340.452L462.349 339.508ZM457.264 341.285L455.569 341.877L455.899 342.821L457.594 342.229L457.264 341.285ZM452.179 343.062L451.332 343.358L451.662 344.302L452.509 344.006L452.179 343.062Z" fill="#87A4BC"/>
<path d="M29.0391 15V4.97852H31.0352L33.4072 12.0742C33.626 12.735 33.7855 13.2295 33.8857 13.5576C33.9997 13.193 34.1774 12.6576 34.4189 11.9512L36.8184 4.97852H38.6025V15H37.3242V6.6123L34.4121 15H33.2158L30.3174 6.46875V15H29.0391ZM40.291 11.3701C40.291 10.0257 40.6647 9.02995 41.4121 8.38281C42.0365 7.84505 42.7975 7.57617 43.6953 7.57617C44.6934 7.57617 45.5091 7.9043 46.1426 8.56055C46.776 9.21224 47.0928 10.1146 47.0928 11.2676C47.0928 12.2018 46.9515 12.9378 46.6689 13.4756C46.391 14.0088 45.9831 14.4235 45.4453 14.7197C44.9121 15.016 44.3288 15.1641 43.6953 15.1641C42.679 15.1641 41.8564 14.8382 41.2275 14.1865C40.6032 13.5348 40.291 12.596 40.291 11.3701ZM41.5557 11.3701C41.5557 12.2998 41.7585 12.9971 42.1641 13.4619C42.5697 13.9222 43.0801 14.1523 43.6953 14.1523C44.306 14.1523 44.8141 13.9199 45.2197 13.4551C45.6253 12.9902 45.8281 12.2816 45.8281 11.3291C45.8281 10.4313 45.623 9.75228 45.2129 9.29199C44.8073 8.82715 44.3014 8.59473 43.6953 8.59473C43.0801 8.59473 42.5697 8.82487 42.1641 9.28516C41.7585 9.74544 41.5557 10.4404 41.5557 11.3701ZM53.2793 12.3408L54.4893 12.498C54.3571 13.332 54.0176 13.986 53.4707 14.46C52.9284 14.9294 52.2607 15.1641 51.4678 15.1641C50.4743 15.1641 49.6745 14.8405 49.0684 14.1934C48.4668 13.5417 48.166 12.6097 48.166 11.3975C48.166 10.6136 48.2959 9.92773 48.5557 9.33984C48.8154 8.75195 49.2096 8.31217 49.7383 8.02051C50.2715 7.72428 50.8503 7.57617 51.4746 7.57617C52.263 7.57617 52.9079 7.77669 53.4092 8.17773C53.9105 8.57422 54.2318 9.13932 54.373 9.87305L53.1768 10.0576C53.0628 9.56999 52.86 9.20312 52.5684 8.95703C52.2812 8.71094 51.9326 8.58789 51.5225 8.58789C50.9027 8.58789 50.3991 8.8112 50.0117 9.25781C49.6243 9.69987 49.4307 10.4017 49.4307 11.3633C49.4307 12.3385 49.6175 13.0472 49.9912 13.4893C50.3649 13.9313 50.8525 14.1523 51.4541 14.1523C51.9372 14.1523 52.3405 14.0042 52.6641 13.708C52.9876 13.4118 53.1927 12.9561 53.2793 12.3408ZM55.5352 7.74023H56.7656V10.8779C57.1576 10.8779 57.431 10.8027 57.5859 10.6523C57.7454 10.502 57.9779 10.0645 58.2832 9.33984C58.5247 8.76562 58.7207 8.38737 58.8711 8.20508C59.0215 8.02279 59.1947 7.89974 59.3906 7.83594C59.5866 7.77214 59.901 7.74023 60.334 7.74023H60.5801V8.75879L60.2383 8.75195C59.9147 8.75195 59.7074 8.7998 59.6162 8.89551C59.5205 8.99577 59.3747 9.29427 59.1787 9.79102C58.9919 10.265 58.821 10.5931 58.666 10.7754C58.5111 10.9577 58.2718 11.124 57.9482 11.2744C58.4769 11.4157 58.9964 11.9079 59.5068 12.751L60.8535 15H59.5L58.1875 12.751C57.9186 12.2998 57.6839 12.0036 57.4834 11.8623C57.2829 11.7165 57.0436 11.6436 56.7656 11.6436V15H55.5352V7.74023ZM61.6738 7.74023H64.5107C65.208 7.74023 65.7253 7.79948 66.0625 7.91797C66.4043 8.0319 66.696 8.24382 66.9375 8.55371C67.1836 8.86361 67.3066 9.23503 67.3066 9.66797C67.3066 10.0143 67.2337 10.3174 67.0879 10.5771C66.9466 10.8324 66.7324 11.0465 66.4453 11.2197C66.7871 11.3337 67.0697 11.5479 67.293 11.8623C67.5208 12.1722 67.6348 12.5413 67.6348 12.9697C67.5892 13.6579 67.3431 14.1683 66.8965 14.501C66.4499 14.8337 65.8005 15 64.9482 15H61.6738V7.74023ZM62.9043 10.7959H64.2168C64.7409 10.7959 65.1009 10.7686 65.2969 10.7139C65.4928 10.6592 65.6683 10.5498 65.8232 10.3857C65.9782 10.2171 66.0557 10.0166 66.0557 9.78418C66.0557 9.40137 65.9189 9.13477 65.6455 8.98438C65.3766 8.83398 64.9141 8.75879 64.2578 8.75879H62.9043V10.7959ZM62.9043 13.9883H64.5244C65.2217 13.9883 65.7002 13.9085 65.96 13.749C66.2197 13.585 66.3564 13.3047 66.3701 12.9082C66.3701 12.6758 66.2949 12.4616 66.1445 12.2656C65.9941 12.0651 65.7982 11.9398 65.5566 11.8896C65.3151 11.835 64.9277 11.8076 64.3945 11.8076H62.9043V13.9883ZM73.6777 14.1045C73.222 14.4919 72.7822 14.7653 72.3584 14.9248C71.9391 15.0843 71.488 15.1641 71.0049 15.1641C70.2074 15.1641 69.5944 14.9704 69.166 14.583C68.7376 14.1911 68.5234 13.6921 68.5234 13.0859C68.5234 12.7305 68.6032 12.4069 68.7627 12.1152C68.9268 11.819 69.1387 11.582 69.3984 11.4043C69.6628 11.2266 69.959 11.0921 70.2871 11.001C70.5286 10.9372 70.8932 10.8757 71.3809 10.8164C72.3743 10.6979 73.1058 10.5566 73.5752 10.3926C73.5798 10.224 73.582 10.1169 73.582 10.0713C73.582 9.56999 73.4658 9.2168 73.2334 9.01172C72.9189 8.73372 72.4518 8.59473 71.832 8.59473C71.2533 8.59473 70.8249 8.69727 70.5469 8.90234C70.2734 9.10286 70.0706 9.46061 69.9385 9.97559L68.7354 9.81152C68.8447 9.29655 69.0247 8.88184 69.2754 8.56738C69.526 8.24837 69.8883 8.00456 70.3623 7.83594C70.8363 7.66276 71.3854 7.57617 72.0098 7.57617C72.6296 7.57617 73.1331 7.64909 73.5205 7.79492C73.9079 7.94076 74.1927 8.12533 74.375 8.34863C74.5573 8.56738 74.6849 8.84538 74.7578 9.18262C74.7988 9.39225 74.8193 9.77051 74.8193 10.3174V11.958C74.8193 13.1019 74.8444 13.8265 74.8945 14.1318C74.9492 14.4326 75.054 14.722 75.209 15H73.9238C73.7962 14.7448 73.7142 14.4463 73.6777 14.1045ZM73.5752 11.3564C73.1286 11.5387 72.4587 11.6937 71.5654 11.8213C71.0596 11.8942 70.7018 11.9762 70.4922 12.0674C70.2826 12.1585 70.1208 12.293 70.0068 12.4707C69.8929 12.6439 69.8359 12.8376 69.8359 13.0518C69.8359 13.3799 69.959 13.6533 70.2051 13.8721C70.4557 14.0908 70.8203 14.2002 71.2988 14.2002C71.7728 14.2002 72.1943 14.0977 72.5635 13.8926C72.9326 13.6829 73.2038 13.3981 73.377 13.0381C73.5091 12.7601 73.5752 12.3499 73.5752 11.8076V11.3564Z" fill="white"/>
<g filter="url(#filter0_d_5088_63198)">
<circle cx="52" cy="24" r="2" fill="#0C99CF"/>
<circle cx="52" cy="24" r="2.5" stroke="white"/>
</g>
<g filter="url(#filter1_d_5088_63198)">
<circle cx="455" cy="344" r="3" fill="#0C99CF"/>
<circle cx="455" cy="344" r="4" stroke="white" stroke-width="2"/>
</g>
<path d="M409.025 335V324.979H412.785C413.551 324.979 414.164 325.081 414.624 325.286C415.089 325.487 415.451 325.799 415.711 326.223C415.975 326.642 416.107 327.082 416.107 327.542C416.107 327.97 415.991 328.374 415.759 328.752C415.526 329.13 415.175 329.436 414.706 329.668C415.312 329.846 415.777 330.149 416.101 330.577C416.429 331.006 416.593 331.511 416.593 332.095C416.593 332.564 416.493 333.002 416.292 333.407C416.096 333.808 415.852 334.118 415.561 334.337C415.269 334.556 414.902 334.722 414.46 334.836C414.022 334.945 413.485 335 412.847 335H409.025ZM410.352 329.189H412.519C413.106 329.189 413.528 329.151 413.783 329.073C414.12 328.973 414.373 328.807 414.542 328.574C414.715 328.342 414.802 328.05 414.802 327.699C414.802 327.367 414.722 327.075 414.562 326.824C414.403 326.569 414.175 326.396 413.879 326.305C413.583 326.209 413.075 326.161 412.354 326.161H410.352V329.189ZM410.352 333.817H412.847C413.275 333.817 413.576 333.801 413.749 333.77C414.054 333.715 414.31 333.624 414.515 333.496C414.72 333.368 414.888 333.184 415.021 332.942C415.153 332.696 415.219 332.414 415.219 332.095C415.219 331.721 415.123 331.397 414.932 331.124C414.74 330.846 414.474 330.652 414.132 330.543C413.795 330.429 413.307 330.372 412.669 330.372H410.352V333.817ZM418.377 335V324.979H420.373L422.745 332.074C422.964 332.735 423.123 333.229 423.224 333.558C423.338 333.193 423.515 332.658 423.757 331.951L426.156 324.979H427.94V335H426.662V326.612L423.75 335H422.554L419.655 326.469V335H418.377ZM432.63 335V326.161H429.328V324.979H437.271V326.161H433.956V335H432.63ZM438.652 324.979H446.534V335H445.201V326.161H439.979V335H438.652V324.979Z" fill="white"/>
<defs>
<filter id="filter0_d_5088_63198" x="47.1634" y="20.3878" width="9.67311" height="9.67311" filterUnits="userSpaceOnUse" color-interpolation-filters="sRGB">
<feFlood flood-opacity="0" result="BackgroundImageFix"/>
<feColorMatrix in="SourceAlpha" type="matrix" values="0 0 0 0 0 0 0 0 0 0 0 0 0 0 0 0 0 0 127 0" result="hardAlpha"/>
<feOffset dy="1.22437"/>
<feGaussianBlur stdDeviation="0.918278"/>
<feColorMatrix type="matrix" values="0 0 0 0 0 0 0 0 0 0 0 0 0 0 0 0 0 0 0.2 0"/>
<feBlend mode="normal" in2="BackgroundImageFix" result="effect1_dropShadow_5088_63198"/>
<feBlend mode="normal" in="SourceGraphic" in2="effect1_dropShadow_5088_63198" result="shape"/>
</filter>
<filter id="filter1_d_5088_63198" x="448.163" y="338.388" width="13.6731" height="13.6731" filterUnits="userSpaceOnUse" color-interpolation-filters="sRGB">
<feFlood flood-opacity="0" result="BackgroundImageFix"/>
<feColorMatrix in="SourceAlpha" type="matrix" values="0 0 0 0 0 0 0 0 0 0 0 0 0 0 0 0 0 0 127 0" result="hardAlpha"/>
<feOffset dy="1.22437"/>
<feGaussianBlur stdDeviation="0.918278"/>
<feColorMatrix type="matrix" values="0 0 0 0 0 0 0 0 0 0 0 0 0 0 0 0 0 0 0.2 0"/>
<feBlend mode="normal" in2="BackgroundImageFix" result="effect1_dropShadow_5088_63198"/>
<feBlend mode="normal" in="SourceGraphic" in2="effect1_dropShadow_5088_63198" result="shape"/>
</filter>
</defs>
</svg>
