<svg width="253" height="229" viewBox="0 0 253 229" fill="none" xmlns="http://www.w3.org/2000/svg">
<path d="M203.753 214.5L203.918 214.972L204.102 214.908L204.194 214.736L203.753 214.5ZM223.501 177.5L223.942 177.736L224.211 177.231L223.675 177.032L223.501 177.5ZM202.001 169.5L201.507 169.575L201.551 169.866L201.827 169.969L202.001 169.5ZM197.001 136.5L197.495 136.425L197.481 136.333L197.435 136.252L197.001 136.5ZM181.001 108.5L181.435 108.252L181.348 108.099L181.184 108.035L181.001 108.5ZM155.501 98.5003L155.684 98.0348L155.419 97.931L155.194 98.1053L155.501 98.5003ZM128.002 119.844L127.778 120.292L128.06 120.432L128.308 120.239L128.002 119.844ZM75.4553 93.5578L75.0835 93.2235L74.6448 93.7114L75.2316 94.0049L75.4553 93.5578ZM80.0019 88.5002L80.3737 88.8345L80.5218 88.6698L80.4993 88.4494L80.0019 88.5002ZM75.4553 44L75.9527 43.9492L75.9337 43.7634L75.7976 43.6356L75.4553 44ZM51.8443 21.1356C51.643 20.9465 51.3266 20.9564 51.1375 21.1577C50.9485 21.3589 50.9584 21.6754 51.1596 21.8644L51.8443 21.1356ZM51.9581 22.6144C52.1593 22.8035 52.4758 22.7936 52.6648 22.5923C52.8539 22.3911 52.844 22.0746 52.6427 21.8856L51.9581 22.6144ZM55.8365 24.8856C55.6352 24.6965 55.3188 24.7064 55.1297 24.9077C54.9407 25.1089 54.9506 25.4254 55.1519 25.6144L55.8365 24.8856ZM56.7487 27.1144C56.95 27.3035 57.2664 27.2936 57.4555 27.0923C57.6446 26.8911 57.6347 26.5746 57.4334 26.3856L56.7487 27.1144ZM60.6272 29.3856C60.4259 29.1965 60.1095 29.2064 59.9204 29.4077C59.7313 29.6089 59.7412 29.9254 59.9425 30.1144L60.6272 29.3856ZM61.5394 31.6144C61.7407 31.8035 62.0571 31.7936 62.2462 31.5923C62.4352 31.391 62.4253 31.0746 62.2241 30.8856L61.5394 31.6144ZM65.4178 33.8856C65.2166 33.6965 64.9001 33.7064 64.7111 33.9077C64.522 34.1089 64.5319 34.4254 64.7332 34.6144L65.4178 33.8856ZM66.3301 36.1144C66.5313 36.3035 66.8478 36.2936 67.0368 36.0923C67.2259 35.891 67.216 35.5746 67.0147 35.3856L66.3301 36.1144ZM70.2085 38.3856C70.0072 38.1965 69.6908 38.2064 69.5017 38.4077C69.3127 38.6089 69.3226 38.9254 69.5238 39.1144L70.2085 38.3856ZM71.1207 40.6144C71.322 40.8035 71.6384 40.7936 71.8275 40.5923C72.0166 40.391 72.0067 40.0746 71.8054 39.8856L71.1207 40.6144ZM74.9992 42.8856C74.7979 42.6965 74.4815 42.7064 74.2924 42.9077C74.1033 43.1089 74.1132 43.4254 74.3145 43.6144L74.9992 42.8856ZM75.0661 45.1103C75.0942 45.3851 75.3396 45.585 75.6144 45.5569C75.8891 45.5289 76.089 45.2834 76.0609 45.0087L75.0661 45.1103ZM76.494 49.2468C76.4659 48.9721 76.2204 48.7722 75.9457 48.8002C75.671 48.8283 75.4711 49.0737 75.4991 49.3485L76.494 49.2468ZM75.7156 51.4675C75.7437 51.7422 75.9892 51.9422 76.2639 51.9141C76.5386 51.886 76.7385 51.6406 76.7105 51.3659L75.7156 51.4675ZM77.1435 55.604C77.1154 55.3293 76.8699 55.1293 76.5952 55.1574C76.3205 55.1855 76.1206 55.4309 76.1486 55.7056L77.1435 55.604ZM76.3652 57.8247C76.3932 58.0994 76.6387 58.2994 76.9134 58.2713C77.1881 58.2432 77.388 57.9978 77.36 57.7231L76.3652 57.8247ZM77.793 61.9612C77.7649 61.6865 77.5195 61.4865 77.2448 61.5146C76.97 61.5427 76.7701 61.7881 76.7982 62.0628L77.793 61.9612ZM77.0147 64.1819C77.0427 64.4566 77.2882 64.6565 77.5629 64.6285C77.8376 64.6004 78.0376 64.3549 78.0095 64.0802L77.0147 64.1819ZM78.4425 68.3184C78.4144 68.0436 78.169 67.8437 77.8943 67.8718C77.6196 67.8998 77.4196 68.1453 77.4477 68.42L78.4425 68.3184ZM77.6642 70.5391C77.6922 70.8138 77.9377 71.0137 78.2124 70.9856C78.4871 70.9576 78.6871 70.7121 78.659 70.4374L77.6642 70.5391ZM79.092 74.6755C79.0639 74.4008 78.8185 74.2009 78.5438 74.2289C78.2691 74.257 78.0691 74.5025 78.0972 74.7772L79.092 74.6755ZM78.3137 76.8962C78.3418 77.1709 78.5872 77.3709 78.8619 77.3428C79.1366 77.3148 79.3366 77.0693 79.3085 76.7946L78.3137 76.8962ZM79.7415 81.0327C79.7135 80.758 79.468 80.558 79.1933 80.5861C78.9186 80.6142 78.7186 80.8596 78.7467 81.1343L79.7415 81.0327ZM78.9632 83.2534C78.9913 83.5281 79.2367 83.7281 79.5114 83.7C79.7862 83.6719 79.9861 83.4265 79.958 83.1518L78.9632 83.2534ZM80.391 87.3899C80.363 87.1152 80.1175 86.9152 79.8428 86.9433C79.5681 86.9714 79.3681 87.2168 79.3962 87.4915L80.391 87.3899ZM78.8723 89.0089C78.6877 89.2142 78.7045 89.5304 78.9098 89.715C79.1152 89.8996 79.4313 89.8828 79.616 89.6774L78.8723 89.0089ZM76.5849 93.0491C76.7695 92.8437 76.7527 92.5276 76.5473 92.343C76.342 92.1584 76.0258 92.1752 75.8412 92.3806L76.5849 93.0491ZM76.1074 94.443C76.3543 94.5666 76.6547 94.4665 76.7782 94.2196C76.9018 93.9726 76.8017 93.6722 76.5548 93.5487L76.1074 94.443ZM80.0579 95.3011C79.8109 95.1776 79.5106 95.2776 79.387 95.5246C79.2635 95.7716 79.3635 96.0719 79.6105 96.1955L80.0579 95.3011ZM81.362 97.0717C81.609 97.1952 81.9093 97.0952 82.0329 96.8482C82.1564 96.6013 82.0564 96.3009 81.8094 96.1774L81.362 97.0717ZM85.3125 97.9298C85.0656 97.8062 84.7652 97.9063 84.6417 98.1533C84.5181 98.4002 84.6182 98.7006 84.8651 98.8241L85.3125 97.9298ZM86.6167 99.7003C86.8636 99.8239 87.164 99.7238 87.2876 99.4769C87.4111 99.2299 87.311 98.9296 87.0641 98.806L86.6167 99.7003ZM90.5672 100.558C90.3202 100.435 90.0199 100.535 89.8963 100.782C89.7728 101.029 89.8728 101.329 90.1198 101.453L90.5672 100.558ZM91.8713 102.329C92.1183 102.453 92.4187 102.352 92.5422 102.106C92.6657 101.859 92.5657 101.558 92.3187 101.435L91.8713 102.329ZM95.8218 103.187C95.5749 103.064 95.2745 103.164 95.151 103.411C95.0274 103.658 95.1275 103.958 95.3744 104.081L95.8218 103.187ZM97.126 104.958C97.373 105.081 97.6733 104.981 97.7969 104.734C97.9204 104.487 97.8204 104.187 97.5734 104.063L97.126 104.958ZM101.076 105.816C100.83 105.692 100.529 105.792 100.406 106.039C100.282 106.286 100.382 106.587 100.629 106.71L101.076 105.816ZM102.381 107.586C102.628 107.71 102.928 107.61 103.052 107.363C103.175 107.116 103.075 106.816 102.828 106.692L102.381 107.586ZM106.331 108.444C106.084 108.321 105.784 108.421 105.66 108.668C105.537 108.915 105.637 109.215 105.884 109.339L106.331 108.444ZM107.635 110.215C107.882 110.339 108.183 110.238 108.306 109.992C108.43 109.745 108.33 109.444 108.083 109.321L107.635 110.215ZM111.586 111.073C111.339 110.95 111.038 111.05 110.915 111.297C110.791 111.544 110.891 111.844 111.138 111.967L111.586 111.073ZM112.89 112.844C113.137 112.967 113.437 112.867 113.561 112.62C113.684 112.373 113.584 112.073 113.337 111.949L112.89 112.844ZM116.84 113.702C116.593 113.578 116.293 113.678 116.17 113.925C116.046 114.172 116.146 114.473 116.393 114.596L116.84 113.702ZM118.145 115.472C118.392 115.596 118.692 115.496 118.815 115.249C118.939 115.002 118.839 114.701 118.592 114.578L118.145 115.472ZM122.095 116.33C121.848 116.207 121.548 116.307 121.424 116.554C121.301 116.801 121.401 117.101 121.648 117.225L122.095 116.33ZM123.399 118.101C123.646 118.224 123.947 118.124 124.07 117.877C124.194 117.631 124.094 117.33 123.847 117.207L123.399 118.101ZM127.35 118.959C127.103 118.836 126.802 118.936 126.679 119.183C126.555 119.429 126.655 119.73 126.902 119.853L127.35 118.959ZM129.072 119.646C129.29 119.477 129.33 119.163 129.161 118.945C128.991 118.727 128.677 118.687 128.459 118.856L129.072 119.646ZM131.515 116.485C131.296 116.654 131.257 116.968 131.426 117.186C131.596 117.405 131.91 117.444 132.128 117.275L131.515 116.485ZM133.655 116.089C133.874 115.92 133.913 115.606 133.744 115.388C133.575 115.169 133.26 115.13 133.042 115.299L133.655 116.089ZM136.098 112.928C135.88 113.097 135.84 113.411 136.009 113.629C136.179 113.847 136.493 113.887 136.711 113.718L136.098 112.928ZM138.239 112.532C138.457 112.362 138.496 112.048 138.327 111.83C138.158 111.612 137.844 111.572 137.626 111.742L138.239 112.532ZM140.681 109.37C140.463 109.54 140.423 109.854 140.593 110.072C140.762 110.29 141.076 110.329 141.294 110.16L140.681 109.37ZM142.822 108.974C143.04 108.805 143.08 108.491 142.91 108.273C142.741 108.055 142.427 108.015 142.209 108.184L142.822 108.974ZM145.264 105.813C145.046 105.982 145.006 106.296 145.176 106.514C145.345 106.733 145.659 106.772 145.877 106.603L145.264 105.813ZM147.405 105.417C147.623 105.248 147.663 104.934 147.493 104.715C147.324 104.497 147.01 104.458 146.792 104.627L147.405 105.417ZM149.847 102.256C149.629 102.425 149.59 102.739 149.759 102.957C149.928 103.175 150.242 103.215 150.461 103.045L149.847 102.256ZM151.988 101.86C152.206 101.69 152.246 101.376 152.077 101.158C151.907 100.94 151.593 100.9 151.375 101.07L151.988 101.86ZM154.431 98.6982C154.212 98.8675 154.173 99.1816 154.342 99.3997C154.511 99.6179 154.826 99.6575 155.044 99.4881L154.431 98.6982ZM156.168 99.2991C156.426 99.3999 156.716 99.2732 156.816 99.0161C156.917 98.7591 156.791 98.4689 156.534 98.3681L156.168 99.2991ZM159.934 99.7014C159.676 99.6006 159.386 99.7273 159.286 99.9844C159.185 100.241 159.311 100.532 159.568 100.632L159.934 99.7014ZM161.268 101.299C161.526 101.4 161.816 101.273 161.916 101.016C162.017 100.759 161.891 100.469 161.634 100.368L161.268 101.299ZM165.034 101.701C164.776 101.601 164.486 101.727 164.386 101.984C164.285 102.241 164.411 102.532 164.668 102.632L165.034 101.701ZM166.368 103.299C166.626 103.4 166.916 103.273 167.016 103.016C167.117 102.759 166.991 102.469 166.734 102.368L166.368 103.299ZM170.134 103.701C169.876 103.601 169.586 103.727 169.486 103.984C169.385 104.241 169.511 104.532 169.768 104.632L170.134 103.701ZM171.468 105.299C171.726 105.4 172.016 105.273 172.117 105.016C172.217 104.759 172.091 104.469 171.834 104.368L171.468 105.299ZM175.234 105.701C174.976 105.601 174.686 105.727 174.586 105.984C174.485 106.241 174.611 106.532 174.868 106.632L175.234 105.701ZM176.568 107.299C176.826 107.4 177.116 107.273 177.216 107.016C177.317 106.759 177.191 106.469 176.934 106.368L176.568 107.299ZM180.334 107.701C180.076 107.601 179.786 107.727 179.686 107.984C179.585 108.241 179.711 108.532 179.968 108.632L180.334 107.701ZM181.1 109.682C181.237 109.921 181.543 110.005 181.782 109.868C182.022 109.731 182.105 109.425 181.968 109.186L181.1 109.682ZM184.102 112.919C183.965 112.679 183.659 112.596 183.42 112.733C183.18 112.87 183.097 113.175 183.234 113.415L184.102 112.919ZM184.3 115.282C184.437 115.521 184.743 115.605 184.982 115.468C185.222 115.331 185.305 115.025 185.168 114.786L184.3 115.282ZM187.302 118.519C187.165 118.279 186.859 118.196 186.62 118.333C186.38 118.47 186.297 118.775 186.434 119.015L187.302 118.519ZM187.5 120.882C187.637 121.121 187.943 121.205 188.182 121.068C188.422 120.931 188.505 120.625 188.368 120.386L187.5 120.882ZM190.502 124.119C190.365 123.879 190.059 123.796 189.82 123.933C189.58 124.07 189.497 124.375 189.634 124.615L190.502 124.119ZM190.7 126.482C190.837 126.721 191.143 126.805 191.382 126.668C191.622 126.531 191.705 126.225 191.568 125.986L190.7 126.482ZM193.702 129.719C193.565 129.479 193.259 129.396 193.02 129.533C192.78 129.67 192.697 129.975 192.834 130.215L193.702 129.719ZM193.9 132.082C194.037 132.321 194.343 132.405 194.582 132.268C194.822 132.131 194.905 131.825 194.768 131.586L193.9 132.082ZM196.902 135.319C196.765 135.079 196.459 134.996 196.22 135.133C195.98 135.27 195.897 135.575 196.034 135.815L196.902 135.319ZM196.646 137.492C196.687 137.765 196.942 137.953 197.215 137.911C197.488 137.87 197.676 137.615 197.634 137.342L196.646 137.492ZM198.19 141.009C198.148 140.736 197.894 140.548 197.621 140.589C197.348 140.631 197.16 140.885 197.201 141.159L198.19 141.009ZM197.479 142.992C197.52 143.265 197.775 143.453 198.048 143.411C198.321 143.37 198.509 143.115 198.468 142.842L197.479 142.992ZM199.023 146.509C198.982 146.236 198.727 146.048 198.454 146.089C198.181 146.131 197.993 146.385 198.034 146.659L199.023 146.509ZM198.312 148.492C198.354 148.765 198.608 148.953 198.881 148.911C199.155 148.87 199.342 148.615 199.301 148.342L198.312 148.492ZM199.857 152.009C199.815 151.736 199.56 151.548 199.287 151.589C199.014 151.631 198.826 151.885 198.868 152.159L199.857 152.009ZM199.146 153.992C199.187 154.265 199.442 154.453 199.715 154.411C199.988 154.37 200.176 154.115 200.134 153.842L199.146 153.992ZM200.69 157.509C200.648 157.236 200.394 157.048 200.121 157.089C199.848 157.131 199.66 157.385 199.701 157.659L200.69 157.509ZM199.979 159.492C200.02 159.765 200.275 159.953 200.548 159.911C200.821 159.87 201.009 159.615 200.968 159.342L199.979 159.492ZM201.523 163.009C201.482 162.736 201.227 162.548 200.954 162.589C200.681 162.631 200.493 162.885 200.534 163.159L201.523 163.009ZM200.812 164.992C200.854 165.265 201.108 165.453 201.382 165.411C201.655 165.37 201.842 165.115 201.801 164.842L200.812 164.992ZM202.357 168.509C202.315 168.236 202.06 168.048 201.787 168.089C201.514 168.131 201.326 168.385 201.368 168.659L202.357 168.509ZM202.723 170.302C202.981 170.399 203.269 170.267 203.365 170.008C203.462 169.749 203.33 169.461 203.071 169.365L202.723 170.302ZM206.655 170.698C206.396 170.602 206.108 170.734 206.012 170.993C205.915 171.251 206.047 171.539 206.306 171.636L206.655 170.698ZM208.098 172.302C208.356 172.399 208.644 172.267 208.74 172.008C208.837 171.749 208.705 171.461 208.446 171.365L208.098 172.302ZM212.03 172.698C211.771 172.602 211.483 172.734 211.387 172.993C211.29 173.251 211.422 173.539 211.681 173.636L212.03 172.698ZM213.473 174.302C213.731 174.399 214.019 174.267 214.115 174.008C214.212 173.749 214.08 173.461 213.821 173.365L213.473 174.302ZM217.405 174.698C217.146 174.602 216.858 174.734 216.762 174.993C216.665 175.251 216.797 175.539 217.056 175.636L217.405 174.698ZM218.848 176.302C219.106 176.399 219.394 176.267 219.49 176.008C219.587 175.749 219.455 175.461 219.196 175.365L218.848 176.302ZM222.78 176.698C222.521 176.602 222.233 176.734 222.137 176.993C222.04 177.251 222.172 177.539 222.431 177.636L222.78 176.698ZM222.59 178.146C222.46 178.389 222.552 178.692 222.795 178.822C223.039 178.952 223.342 178.86 223.472 178.617L222.59 178.146ZM221.591 182.14C221.721 181.897 221.629 181.594 221.385 181.464C221.142 181.334 220.839 181.426 220.709 181.67L221.591 182.14ZM219.769 183.432C219.639 183.675 219.731 183.978 219.974 184.108C220.218 184.238 220.521 184.146 220.651 183.902L219.769 183.432ZM218.77 187.426C218.9 187.183 218.808 186.88 218.564 186.75C218.321 186.62 218.018 186.712 217.888 186.955L218.77 187.426ZM216.947 188.717C216.817 188.961 216.909 189.264 217.153 189.394C217.397 189.524 217.7 189.432 217.83 189.188L216.947 188.717ZM215.949 192.712C216.079 192.468 215.987 192.165 215.743 192.035C215.5 191.905 215.197 191.997 215.067 192.241L215.949 192.712ZM214.126 194.003C213.996 194.247 214.088 194.549 214.332 194.679C214.575 194.809 214.878 194.717 215.008 194.474L214.126 194.003ZM213.128 197.998C213.258 197.754 213.166 197.451 212.922 197.321C212.678 197.191 212.375 197.283 212.245 197.527L213.128 197.998ZM211.305 199.289C211.175 199.532 211.267 199.835 211.511 199.965C211.754 200.095 212.057 200.003 212.187 199.76L211.305 199.289ZM210.306 203.283C210.436 203.04 210.344 202.737 210.101 202.607C209.857 202.477 209.554 202.569 209.424 202.812L210.306 203.283ZM208.484 204.574C208.354 204.818 208.446 205.121 208.69 205.251C208.933 205.381 209.236 205.289 209.366 205.045L208.484 204.574ZM207.485 208.569C207.615 208.325 207.523 208.023 207.28 207.893C207.036 207.762 206.733 207.855 206.603 208.098L207.485 208.569ZM205.663 209.86C205.533 210.104 205.625 210.407 205.868 210.537C206.112 210.667 206.415 210.575 206.545 210.331L205.663 209.86ZM204.664 213.855C204.794 213.611 204.702 213.308 204.458 213.178C204.215 213.048 203.912 213.14 203.782 213.384L204.664 213.855ZM202.74 214.324C202.48 214.415 202.342 214.701 202.433 214.961C202.524 215.222 202.81 215.359 203.07 215.268L202.74 214.324ZM199.68 216.453C199.941 216.362 200.079 216.077 199.987 215.816C199.896 215.555 199.611 215.418 199.35 215.509L199.68 216.453ZM197.656 216.101C197.395 216.192 197.257 216.477 197.348 216.738C197.44 216.999 197.725 217.136 197.985 217.045L197.656 216.101ZM194.596 218.23C194.856 218.139 194.994 217.853 194.903 217.593C194.812 217.332 194.526 217.195 194.266 217.286L194.596 218.23ZM192.571 217.878C192.31 217.969 192.173 218.254 192.264 218.515C192.355 218.775 192.64 218.913 192.901 218.822L192.571 217.878ZM189.511 220.006C189.771 219.915 189.909 219.63 189.818 219.369C189.727 219.109 189.442 218.971 189.181 219.062L189.511 220.006ZM51.1596 21.8644L51.9581 22.6144L52.6427 21.8856L51.8443 21.1356L51.1596 21.8644ZM55.1519 25.6144L56.7487 27.1144L57.4334 26.3856L55.8365 24.8856L55.1519 25.6144ZM59.9425 30.1144L61.5394 31.6144L62.2241 30.8856L60.6272 29.3856L59.9425 30.1144ZM64.7332 34.6144L66.3301 36.1144L67.0147 35.3856L65.4178 33.8856L64.7332 34.6144ZM69.5238 39.1144L71.1207 40.6144L71.8054 39.8856L70.2085 38.3856L69.5238 39.1144ZM74.3145 43.6144L75.113 44.3644L75.7976 43.6356L74.9992 42.8856L74.3145 43.6144ZM74.9579 44.0508L75.0661 45.1103L76.0609 45.0087L75.9527 43.9492L74.9579 44.0508ZM75.4991 49.3485L75.7156 51.4675L76.7105 51.3659L76.494 49.2468L75.4991 49.3485ZM76.1486 55.7056L76.3652 57.8247L77.36 57.7231L77.1435 55.604L76.1486 55.7056ZM76.7982 62.0628L77.0147 64.1819L78.0095 64.0802L77.793 61.9612L76.7982 62.0628ZM77.4477 68.42L77.6642 70.5391L78.659 70.4374L78.4425 68.3184L77.4477 68.42ZM78.0972 74.7772L78.3137 76.8962L79.3085 76.7946L79.092 74.6755L78.0972 74.7772ZM78.7467 81.1343L78.9632 83.2534L79.958 83.1518L79.7415 81.0327L78.7467 81.1343ZM79.3962 87.4915L79.5045 88.5511L80.4993 88.4494L80.391 87.3899L79.3962 87.4915ZM79.63 88.166L78.8723 89.0089L79.616 89.6774L80.3737 88.8345L79.63 88.166ZM75.8412 92.3806L75.0835 93.2235L75.8271 93.892L76.5849 93.0491L75.8412 92.3806ZM75.2316 94.0049L76.1074 94.443L76.5548 93.5487L75.679 93.1106L75.2316 94.0049ZM79.6105 96.1955L81.362 97.0717L81.8094 96.1774L80.0579 95.3011L79.6105 96.1955ZM84.8651 98.8241L86.6167 99.7003L87.0641 98.806L85.3125 97.9298L84.8651 98.8241ZM90.1198 101.453L91.8713 102.329L92.3187 101.435L90.5672 100.558L90.1198 101.453ZM95.3744 104.081L97.126 104.958L97.5734 104.063L95.8218 103.187L95.3744 104.081ZM100.629 106.71L102.381 107.586L102.828 106.692L101.076 105.816L100.629 106.71ZM105.884 109.339L107.635 110.215L108.083 109.321L106.331 108.444L105.884 109.339ZM111.138 111.967L112.89 112.844L113.337 111.949L111.586 111.073L111.138 111.967ZM116.393 114.596L118.145 115.472L118.592 114.578L116.84 113.702L116.393 114.596ZM121.648 117.225L123.399 118.101L123.847 117.207L122.095 116.33L121.648 117.225ZM126.902 119.853L127.778 120.292L128.226 119.397L127.35 118.959L126.902 119.853ZM128.308 120.239L129.072 119.646L128.459 118.856L127.695 119.449L128.308 120.239ZM132.128 117.275L133.655 116.089L133.042 115.299L131.515 116.485L132.128 117.275ZM136.711 113.718L138.239 112.532L137.626 111.742L136.098 112.928L136.711 113.718ZM141.294 110.16L142.822 108.974L142.209 108.184L140.681 109.37L141.294 110.16ZM145.877 106.603L147.405 105.417L146.792 104.627L145.264 105.813L145.877 106.603ZM150.461 103.045L151.988 101.86L151.375 101.07L149.847 102.256L150.461 103.045ZM155.044 99.4881L155.808 98.8952L155.194 98.1053L154.431 98.6982L155.044 99.4881ZM155.318 98.9657L156.168 99.2991L156.534 98.3681L155.684 98.0348L155.318 98.9657ZM159.568 100.632L161.268 101.299L161.634 100.368L159.934 99.7014L159.568 100.632ZM164.668 102.632L166.368 103.299L166.734 102.368L165.034 101.701L164.668 102.632ZM169.768 104.632L171.468 105.299L171.834 104.368L170.134 103.701L169.768 104.632ZM174.868 106.632L176.568 107.299L176.934 106.368L175.234 105.701L174.868 106.632ZM179.968 108.632L180.818 108.966L181.184 108.035L180.334 107.701L179.968 108.632ZM180.567 108.748L181.1 109.682L181.968 109.186L181.435 108.252L180.567 108.748ZM183.234 113.415L184.3 115.282L185.168 114.786L184.102 112.919L183.234 113.415ZM186.434 119.015L187.5 120.882L188.368 120.386L187.302 118.519L186.434 119.015ZM189.634 124.615L190.7 126.482L191.568 125.986L190.502 124.119L189.634 124.615ZM192.834 130.215L193.9 132.082L194.768 131.586L193.702 129.719L192.834 130.215ZM196.034 135.815L196.567 136.748L197.435 136.252L196.902 135.319L196.034 135.815ZM196.507 136.575L196.646 137.492L197.634 137.342L197.495 136.425L196.507 136.575ZM197.201 141.159L197.479 142.992L198.468 142.842L198.19 141.009L197.201 141.159ZM198.034 146.659L198.312 148.492L199.301 148.342L199.023 146.509L198.034 146.659ZM198.868 152.159L199.146 153.992L200.134 153.842L199.857 152.009L198.868 152.159ZM199.701 157.659L199.979 159.492L200.968 159.342L200.69 157.509L199.701 157.659ZM200.534 163.159L200.812 164.992L201.801 164.842L201.523 163.009L200.534 163.159ZM201.368 168.659L201.507 169.575L202.495 169.425L202.357 168.509L201.368 168.659ZM201.827 169.969L202.723 170.302L203.071 169.365L202.175 169.032L201.827 169.969ZM206.306 171.636L208.098 172.302L208.446 171.365L206.655 170.698L206.306 171.636ZM211.681 173.636L213.473 174.302L213.821 173.365L212.03 172.698L211.681 173.636ZM217.056 175.636L218.848 176.302L219.196 175.365L217.405 174.698L217.056 175.636ZM222.431 177.636L223.327 177.969L223.675 177.032L222.78 176.698L222.431 177.636ZM223.06 177.265L222.59 178.146L223.472 178.617L223.942 177.736L223.06 177.265ZM220.709 181.67L219.769 183.432L220.651 183.902L221.591 182.14L220.709 181.67ZM217.888 186.955L216.947 188.717L217.83 189.188L218.77 187.426L217.888 186.955ZM215.067 192.241L214.126 194.003L215.008 194.474L215.949 192.712L215.067 192.241ZM212.245 197.527L211.305 199.289L212.187 199.76L213.128 197.998L212.245 197.527ZM209.424 202.812L208.484 204.574L209.366 205.045L210.306 203.283L209.424 202.812ZM206.603 208.098L205.663 209.86L206.545 210.331L207.485 208.569L206.603 208.098ZM203.782 213.384L203.312 214.265L204.194 214.736L204.664 213.855L203.782 213.384ZM203.588 214.028L202.74 214.324L203.07 215.268L203.918 214.972L203.588 214.028ZM199.35 215.509L197.656 216.101L197.985 217.045L199.68 216.453L199.35 215.509ZM194.266 217.286L192.571 217.878L192.901 218.822L194.596 218.23L194.266 217.286ZM189.181 219.062L188.333 219.358L188.663 220.303L189.511 220.006L189.181 219.062Z" fill="#87A4BC"/>
<g filter="url(#filter0_d_5088_63162)">
<circle cx="192" cy="220" r="3" fill="#0C99CF"/>
<circle cx="192" cy="220" r="4" stroke="white" stroke-width="2"/>
</g>
<path d="M146.025 211V200.979H149.785C150.551 200.979 151.164 201.081 151.624 201.286C152.089 201.487 152.451 201.799 152.711 202.223C152.975 202.642 153.107 203.082 153.107 203.542C153.107 203.97 152.991 204.374 152.759 204.752C152.526 205.13 152.175 205.436 151.706 205.668C152.312 205.846 152.777 206.149 153.101 206.577C153.429 207.006 153.593 207.511 153.593 208.095C153.593 208.564 153.493 209.002 153.292 209.407C153.096 209.808 152.852 210.118 152.561 210.337C152.269 210.556 151.902 210.722 151.46 210.836C151.022 210.945 150.485 211 149.847 211H146.025ZM147.352 205.189H149.519C150.106 205.189 150.528 205.151 150.783 205.073C151.12 204.973 151.373 204.807 151.542 204.574C151.715 204.342 151.802 204.05 151.802 203.699C151.802 203.367 151.722 203.075 151.562 202.824C151.403 202.569 151.175 202.396 150.879 202.305C150.583 202.209 150.075 202.161 149.354 202.161H147.352V205.189ZM147.352 209.817H149.847C150.275 209.817 150.576 209.801 150.749 209.77C151.054 209.715 151.31 209.624 151.515 209.496C151.72 209.368 151.888 209.184 152.021 208.942C152.153 208.696 152.219 208.414 152.219 208.095C152.219 207.721 152.123 207.397 151.932 207.124C151.74 206.846 151.474 206.652 151.132 206.543C150.795 206.429 150.307 206.372 149.669 206.372H147.352V209.817ZM155.377 211V200.979H157.373L159.745 208.074C159.964 208.735 160.123 209.229 160.224 209.558C160.338 209.193 160.515 208.658 160.757 207.951L163.156 200.979H164.94V211H163.662V202.612L160.75 211H159.554L156.655 202.469V211H155.377ZM169.63 211V202.161H166.328V200.979H174.271V202.161H170.956V211H169.63ZM175.652 200.979H183.534V211H182.201V202.161H176.979V211H175.652V200.979Z" fill="white"/>
<path d="M15.1006 1.97852H16.4268V6.36719C17.0329 6.36719 17.459 6.25098 17.7051 6.01855C17.9512 5.78158 18.2656 5.21647 18.6484 4.32324C18.9264 3.66699 19.1543 3.20443 19.332 2.93555C19.5143 2.66211 19.7718 2.43424 20.1045 2.25195C20.4372 2.0651 20.804 1.97168 21.2051 1.97168C21.7155 1.97168 21.9844 1.97624 22.0117 1.98535V3.13379C21.9661 3.13379 21.8773 3.13151 21.7451 3.12695C21.5993 3.1224 21.5104 3.12012 21.4785 3.12012C21.0547 3.12012 20.7402 3.22266 20.5352 3.42773C20.3255 3.63281 20.0863 4.07031 19.8174 4.74023C19.4801 5.58789 19.1953 6.12337 18.9629 6.34668C18.7305 6.56543 18.4525 6.74089 18.1289 6.87305C18.776 7.05078 19.4141 7.64779 20.043 8.66406L22.1074 12H20.46L18.7852 9.2793C18.3249 8.52734 17.9398 8.01237 17.6299 7.73438C17.32 7.45182 16.9189 7.31055 16.4268 7.31055V12H15.1006V1.97852ZM23.085 14.7822V4.74023H24.2061V5.68359C24.4704 5.31445 24.7689 5.03874 25.1016 4.85645C25.4342 4.6696 25.8376 4.57617 26.3115 4.57617C26.9313 4.57617 27.4782 4.73568 27.9521 5.05469C28.4261 5.3737 28.7839 5.82487 29.0254 6.4082C29.2669 6.98698 29.3877 7.62272 29.3877 8.31543C29.3877 9.05827 29.2533 9.72819 28.9844 10.3252C28.7201 10.9176 28.3327 11.3734 27.8223 11.6924C27.3164 12.0068 26.7832 12.1641 26.2227 12.1641C25.8125 12.1641 25.4434 12.0775 25.1152 11.9043C24.7917 11.7311 24.5251 11.5124 24.3154 11.248V14.7822H23.085ZM24.1992 8.41113C24.1992 9.34538 24.3883 10.0358 24.7666 10.4824C25.1449 10.929 25.6029 11.1523 26.1406 11.1523C26.6875 11.1523 27.1546 10.9222 27.542 10.4619C27.9339 9.99707 28.1299 9.2793 28.1299 8.30859C28.1299 7.38346 27.9385 6.69076 27.5557 6.23047C27.1774 5.77018 26.724 5.54004 26.1953 5.54004C25.6712 5.54004 25.2064 5.78613 24.8008 6.27832C24.3997 6.76595 24.1992 7.47689 24.1992 8.41113ZM35.6152 11.1045C35.1595 11.4919 34.7197 11.7653 34.2959 11.9248C33.8766 12.0843 33.4255 12.1641 32.9424 12.1641C32.1449 12.1641 31.5319 11.9704 31.1035 11.583C30.6751 11.1911 30.4609 10.6921 30.4609 10.0859C30.4609 9.73047 30.5407 9.4069 30.7002 9.11523C30.8643 8.81901 31.0762 8.58203 31.3359 8.4043C31.6003 8.22656 31.8965 8.09212 32.2246 8.00098C32.4661 7.93717 32.8307 7.87565 33.3184 7.81641C34.3118 7.69792 35.0433 7.55664 35.5127 7.39258C35.5173 7.22396 35.5195 7.11686 35.5195 7.07129C35.5195 6.56999 35.4033 6.2168 35.1709 6.01172C34.8564 5.73372 34.3893 5.59473 33.7695 5.59473C33.1908 5.59473 32.7624 5.69727 32.4844 5.90234C32.2109 6.10286 32.0081 6.46061 31.876 6.97559L30.6729 6.81152C30.7822 6.29655 30.9622 5.88184 31.2129 5.56738C31.4635 5.24837 31.8258 5.00456 32.2998 4.83594C32.7738 4.66276 33.3229 4.57617 33.9473 4.57617C34.5671 4.57617 35.0706 4.64909 35.458 4.79492C35.8454 4.94076 36.1302 5.12533 36.3125 5.34863C36.4948 5.56738 36.6224 5.84538 36.6953 6.18262C36.7363 6.39225 36.7568 6.77051 36.7568 7.31738V8.95801C36.7568 10.1019 36.7819 10.8265 36.832 11.1318C36.8867 11.4326 36.9915 11.722 37.1465 12H35.8613C35.7337 11.7448 35.6517 11.4463 35.6152 11.1045ZM35.5127 8.35645C35.0661 8.53874 34.3962 8.69368 33.5029 8.82129C32.9971 8.89421 32.6393 8.97624 32.4297 9.06738C32.2201 9.15853 32.0583 9.29297 31.9443 9.4707C31.8304 9.64388 31.7734 9.83757 31.7734 10.0518C31.7734 10.3799 31.8965 10.6533 32.1426 10.8721C32.3932 11.0908 32.7578 11.2002 33.2363 11.2002C33.7103 11.2002 34.1318 11.0977 34.501 10.8926C34.8701 10.6829 35.1413 10.3981 35.3145 10.0381C35.4466 9.76009 35.5127 9.34993 35.5127 8.80762V8.35645ZM43.4082 9.34082L44.6182 9.49805C44.486 10.332 44.1465 10.986 43.5996 11.46C43.0573 11.9294 42.3896 12.1641 41.5967 12.1641C40.6032 12.1641 39.8034 11.8405 39.1973 11.1934C38.5957 10.5417 38.2949 9.6097 38.2949 8.39746C38.2949 7.61361 38.4248 6.92773 38.6846 6.33984C38.9443 5.75195 39.3385 5.31217 39.8672 5.02051C40.4004 4.72428 40.9792 4.57617 41.6035 4.57617C42.3919 4.57617 43.0368 4.77669 43.5381 5.17773C44.0394 5.57422 44.3607 6.13932 44.502 6.87305L43.3057 7.05762C43.1917 6.56999 42.9889 6.20312 42.6973 5.95703C42.4102 5.71094 42.0615 5.58789 41.6514 5.58789C41.0316 5.58789 40.528 5.8112 40.1406 6.25781C39.7533 6.69987 39.5596 7.40169 39.5596 8.36328C39.5596 9.33854 39.7464 10.0472 40.1201 10.4893C40.4938 10.9313 40.9814 11.1523 41.583 11.1523C42.0661 11.1523 42.4694 11.0042 42.793 10.708C43.1165 10.4118 43.3216 9.95605 43.4082 9.34082ZM45.6777 4.74023H46.9082V7.76172H50.3193V4.74023H51.5498V12H50.3193V8.78027H46.9082V12H45.6777V4.74023ZM52.9512 8.37012C52.9512 7.02572 53.3249 6.02995 54.0723 5.38281C54.6966 4.84505 55.4577 4.57617 56.3555 4.57617C57.3535 4.57617 58.1693 4.9043 58.8027 5.56055C59.4362 6.21224 59.7529 7.11458 59.7529 8.26758C59.7529 9.20182 59.6117 9.93783 59.3291 10.4756C59.0511 11.0088 58.6432 11.4235 58.1055 11.7197C57.5723 12.016 56.9889 12.1641 56.3555 12.1641C55.3392 12.1641 54.5166 11.8382 53.8877 11.1865C53.2633 10.5348 52.9512 9.59603 52.9512 8.37012ZM54.2158 8.37012C54.2158 9.2998 54.4186 9.99707 54.8242 10.4619C55.2298 10.9222 55.7402 11.1523 56.3555 11.1523C56.9661 11.1523 57.4743 10.9199 57.8799 10.4551C58.2855 9.99023 58.4883 9.28158 58.4883 8.3291C58.4883 7.43132 58.2832 6.75228 57.873 6.29199C57.4674 5.82715 56.9616 5.59473 56.3555 5.59473C55.7402 5.59473 55.2298 5.82487 54.8242 6.28516C54.4186 6.74544 54.2158 7.44043 54.2158 8.37012ZM66.917 4.74023V12H65.6934V9.16992H64.9824C64.5495 9.16992 64.2259 9.22689 64.0117 9.34082C63.8021 9.4502 63.4945 9.80794 63.0889 10.4141L62.0156 12H60.4912L61.8174 10.0449C62.223 9.44792 62.6263 9.11068 63.0273 9.0332C62.3255 8.9375 61.8037 8.68457 61.4619 8.27441C61.1247 7.86426 60.9561 7.39258 60.9561 6.85938C60.9561 6.23047 61.1771 5.72005 61.6191 5.32812C62.0658 4.9362 62.7106 4.74023 63.5537 4.74023H66.917ZM65.6934 5.75879H63.9434C63.2096 5.75879 62.7357 5.87272 62.5215 6.10059C62.3118 6.32845 62.207 6.59505 62.207 6.90039C62.207 7.33333 62.362 7.65234 62.6719 7.85742C62.9863 8.05794 63.54 8.1582 64.333 8.1582H65.6934V5.75879ZM68.79 14.7822V4.74023H69.9111V5.68359C70.1755 5.31445 70.474 5.03874 70.8066 4.85645C71.1393 4.6696 71.5426 4.57617 72.0166 4.57617C72.6364 4.57617 73.1833 4.73568 73.6572 5.05469C74.1312 5.3737 74.4889 5.82487 74.7305 6.4082C74.972 6.98698 75.0928 7.62272 75.0928 8.31543C75.0928 9.05827 74.9583 9.72819 74.6895 10.3252C74.4251 10.9176 74.0378 11.3734 73.5273 11.6924C73.0215 12.0068 72.4883 12.1641 71.9277 12.1641C71.5176 12.1641 71.1484 12.0775 70.8203 11.9043C70.4967 11.7311 70.2301 11.5124 70.0205 11.248V14.7822H68.79ZM69.9043 8.41113C69.9043 9.34538 70.0934 10.0358 70.4717 10.4824C70.8499 10.929 71.3079 11.1523 71.8457 11.1523C72.3926 11.1523 72.8597 10.9222 73.2471 10.4619C73.639 9.99707 73.835 9.2793 73.835 8.30859C73.835 7.38346 73.6436 6.69076 73.2607 6.23047C72.8825 5.77018 72.429 5.54004 71.9004 5.54004C71.3763 5.54004 70.9115 5.78613 70.5059 6.27832C70.1048 6.76595 69.9043 7.47689 69.9043 8.41113ZM81.3203 9.34082L82.5303 9.49805C82.3981 10.332 82.0586 10.986 81.5117 11.46C80.9694 11.9294 80.3018 12.1641 79.5088 12.1641C78.5153 12.1641 77.7155 11.8405 77.1094 11.1934C76.5078 10.5417 76.207 9.6097 76.207 8.39746C76.207 7.61361 76.3369 6.92773 76.5967 6.33984C76.8564 5.75195 77.2507 5.31217 77.7793 5.02051C78.3125 4.72428 78.8913 4.57617 79.5156 4.57617C80.304 4.57617 80.9489 4.77669 81.4502 5.17773C81.9515 5.57422 82.2728 6.13932 82.4141 6.87305L81.2178 7.05762C81.1038 6.56999 80.901 6.20312 80.6094 5.95703C80.3223 5.71094 79.9736 5.58789 79.5635 5.58789C78.9437 5.58789 78.4401 5.8112 78.0527 6.25781C77.6654 6.69987 77.4717 7.40169 77.4717 8.36328C77.4717 9.33854 77.6585 10.0472 78.0322 10.4893C78.4059 10.9313 78.8936 11.1523 79.4951 11.1523C79.9782 11.1523 80.3815 11.0042 80.7051 10.708C81.0286 10.4118 81.2337 9.95605 81.3203 9.34082ZM83.5762 4.74023H84.8066V7.87793C85.1986 7.87793 85.472 7.80273 85.627 7.65234C85.7865 7.50195 86.0189 7.06445 86.3242 6.33984C86.5658 5.76562 86.7617 5.38737 86.9121 5.20508C87.0625 5.02279 87.2357 4.89974 87.4316 4.83594C87.6276 4.77214 87.9421 4.74023 88.375 4.74023H88.6211V5.75879L88.2793 5.75195C87.9557 5.75195 87.7484 5.7998 87.6572 5.89551C87.5615 5.99577 87.4157 6.29427 87.2197 6.79102C87.0329 7.26497 86.862 7.5931 86.707 7.77539C86.5521 7.95768 86.3128 8.12402 85.9893 8.27441C86.5179 8.41569 87.0374 8.90788 87.5479 9.75098L88.8945 12H87.541L86.2285 9.75098C85.9596 9.2998 85.7249 9.00358 85.5244 8.8623C85.3239 8.71647 85.0846 8.64355 84.8066 8.64355V12H83.5762V4.74023Z" fill="white"/>
<g filter="url(#filter1_d_5088_63162)">
<circle cx="52" cy="21" r="2" fill="#0C99CF"/>
<circle cx="52" cy="21" r="2.5" stroke="white"/>
</g>
<defs>
<filter id="filter0_d_5088_63162" x="185.163" y="214.388" width="13.6731" height="13.6731" filterUnits="userSpaceOnUse" color-interpolation-filters="sRGB">
<feFlood flood-opacity="0" result="BackgroundImageFix"/>
<feColorMatrix in="SourceAlpha" type="matrix" values="0 0 0 0 0 0 0 0 0 0 0 0 0 0 0 0 0 0 127 0" result="hardAlpha"/>
<feOffset dy="1.22437"/>
<feGaussianBlur stdDeviation="0.918278"/>
<feColorMatrix type="matrix" values="0 0 0 0 0 0 0 0 0 0 0 0 0 0 0 0 0 0 0.2 0"/>
<feBlend mode="normal" in2="BackgroundImageFix" result="effect1_dropShadow_5088_63162"/>
<feBlend mode="normal" in="SourceGraphic" in2="effect1_dropShadow_5088_63162" result="shape"/>
</filter>
<filter id="filter1_d_5088_63162" x="47.1634" y="17.3878" width="9.67311" height="9.67311" filterUnits="userSpaceOnUse" color-interpolation-filters="sRGB">
<feFlood flood-opacity="0" result="BackgroundImageFix"/>
<feColorMatrix in="SourceAlpha" type="matrix" values="0 0 0 0 0 0 0 0 0 0 0 0 0 0 0 0 0 0 127 0" result="hardAlpha"/>
<feOffset dy="1.22437"/>
<feGaussianBlur stdDeviation="0.918278"/>
<feColorMatrix type="matrix" values="0 0 0 0 0 0 0 0 0 0 0 0 0 0 0 0 0 0 0.2 0"/>
<feBlend mode="normal" in2="BackgroundImageFix" result="effect1_dropShadow_5088_63162"/>
<feBlend mode="normal" in="SourceGraphic" in2="effect1_dropShadow_5088_63162" result="shape"/>
</filter>
</defs>
</svg>
