<svg width="553" height="388" viewBox="0 0 553 388" fill="none" xmlns="http://www.w3.org/2000/svg">
<path d="M491.751 373.5L491.916 373.972L492.101 373.908L492.192 373.736L491.751 373.5ZM511.5 336.5L511.941 336.736L512.21 336.231L511.674 336.032L511.5 336.5ZM490 328.5L489.505 328.575L489.549 328.866L489.825 328.969L490 328.5ZM485 295.5L485.494 295.425L485.48 295.333L485.434 295.252L485 295.5ZM469 267.5L469.434 267.252L469.346 267.099L469.182 267.035L469 267.5ZM443.5 257.5L443.682 257.035L443.418 256.931L443.193 257.105L443.5 257.5ZM416 278.844L415.777 279.292L416.058 279.432L416.307 279.239L416 278.844ZM363.454 252.558L363.082 252.224L362.643 252.711L363.23 253.005L363.454 252.558ZM368 247.5L368.372 247.835L368.52 247.67L368.498 247.449L368 247.5ZM363.454 203L363.951 202.949L363.932 202.763L363.796 202.636L363.454 203ZM339.501 180.5L339.843 180.136L339.677 179.98L339.451 180.002L339.501 180.5ZM281.928 186.221L281.715 186.674L281.84 186.733L281.977 186.719L281.928 186.221ZM239 166L238.506 166.076L238.547 166.339L238.787 166.453L239 166ZM229 101L229.494 100.924L229.445 100.609L229.139 100.52L229 101ZM150.002 78L150.141 77.52L150.09 77.5049L150.036 77.5012L150.002 78ZM113.501 75.5L113.295 75.9556L113.377 75.9927L113.467 75.9988L113.501 75.5ZM77.0012 59L76.5288 59.1638L76.5992 59.367L76.7952 59.4556L77.0012 59ZM64.4724 21.3362C64.382 21.0753 64.0971 20.9371 63.8362 21.0276C63.5753 21.118 63.4371 21.4029 63.5276 21.6638L64.4724 21.3362ZM63.8371 22.5566C63.9276 22.8175 64.2124 22.9557 64.4733 22.8653C64.7342 22.7748 64.8724 22.49 64.782 22.2291L63.8371 22.5566ZM66.0202 25.8005C65.9297 25.5396 65.6449 25.4014 65.384 25.4919C65.1231 25.5823 64.9849 25.8672 65.0753 26.1281L66.0202 25.8005ZM65.6945 27.9138C65.7849 28.1747 66.0697 28.3129 66.3307 28.2224C66.5916 28.132 66.7297 27.8471 66.6393 27.5862L65.6945 27.9138ZM67.8775 31.1576C67.787 30.8967 67.5022 30.7586 67.2413 30.849C66.9804 30.9395 66.8422 31.2243 66.9327 31.4852L67.8775 31.1576ZM67.5518 33.2709C67.6422 33.5318 67.9271 33.67 68.188 33.5795C68.4489 33.4891 68.5871 33.2043 68.4966 32.9434L67.5518 33.2709ZM69.7348 36.5148C69.6443 36.2539 69.3595 36.1157 69.0986 36.2061C68.8377 36.2966 68.6995 36.5814 68.79 36.8423L69.7348 36.5148ZM69.4091 38.6281C69.4995 38.889 69.7844 39.0271 70.0453 38.9367C70.3062 38.8462 70.4444 38.5614 70.3539 38.3005L69.4091 38.6281ZM71.5921 41.8719C71.5017 41.611 71.2168 41.4728 70.9559 41.5633C70.695 41.6537 70.5568 41.9386 70.6473 42.1995L71.5921 41.8719ZM71.2664 43.9852C71.3569 44.2461 71.6417 44.3843 71.9026 44.2938C72.1635 44.2034 72.3017 43.9185 72.2112 43.6576L71.2664 43.9852ZM73.4494 47.2291C73.359 46.9681 73.0741 46.83 72.8132 46.9204C72.5523 47.0109 72.4141 47.2957 72.5046 47.5566L73.4494 47.2291ZM73.1237 49.3423C73.2142 49.6032 73.499 49.7414 73.7599 49.651C74.0208 49.5605 74.159 49.2757 74.0685 49.0148L73.1237 49.3423ZM75.3067 52.5862C75.2163 52.3253 74.9315 52.1871 74.6705 52.2776C74.4096 52.368 74.2715 52.6529 74.3619 52.9138L75.3067 52.5862ZM74.981 54.6995C75.0715 54.9604 75.3563 55.0986 75.6172 55.0081C75.8781 54.9177 76.0163 54.6328 75.9259 54.3719L74.981 54.6995ZM77.1641 57.9433C77.0736 57.6824 76.7888 57.5443 76.5279 57.6347C76.267 57.7252 76.1288 58.01 76.2192 58.2709L77.1641 57.9433ZM77.6643 59.8484C77.9159 59.9622 78.2121 59.8504 78.3259 59.5988C78.4396 59.3472 78.3278 59.051 78.0762 58.9372L77.6643 59.8484ZM81.5524 60.5087C81.3008 60.3949 81.0046 60.5067 80.8908 60.7583C80.7771 61.0099 80.8888 61.3061 81.1405 61.4199L81.5524 60.5087ZM82.8786 62.2056C83.1302 62.3193 83.4264 62.2076 83.5401 61.9559C83.6539 61.7043 83.5421 61.4081 83.2905 61.2944L82.8786 62.2056ZM86.7667 62.8658C86.5151 62.752 86.2189 62.8638 86.1051 63.1154C85.9914 63.3671 86.1031 63.6633 86.3548 63.777L86.7667 62.8658ZM88.0929 64.5627C88.3445 64.6765 88.6407 64.5647 88.7544 64.3131C88.8682 64.0615 88.7564 63.7653 88.5048 63.6515L88.0929 64.5627ZM91.981 65.2229C91.7293 65.1092 91.4331 65.221 91.3194 65.4726C91.2057 65.7242 91.3174 66.0204 91.569 66.1342L91.981 65.2229ZM93.3071 66.9199C93.5588 67.0336 93.855 66.9218 93.9687 66.6702C94.0825 66.4186 93.9707 66.1224 93.7191 66.0087L93.3071 66.9199ZM97.1953 67.5801C96.9436 67.4663 96.6474 67.5781 96.5337 67.8297C96.4199 68.0814 96.5317 68.3776 96.7833 68.4913L97.1953 67.5801ZM98.5214 69.277C98.7731 69.3908 99.0693 69.279 99.183 69.0274C99.2968 68.7757 99.185 68.4795 98.9334 68.3658L98.5214 69.277ZM102.41 69.9372C102.158 69.8235 101.862 69.9352 101.748 70.1869C101.634 70.4385 101.746 70.7347 101.998 70.8484L102.41 69.9372ZM103.736 71.6342C103.987 71.7479 104.284 71.6361 104.397 71.3845C104.511 71.1329 104.399 70.8367 104.148 70.7229L103.736 71.6342ZM107.624 72.2944C107.372 72.1806 107.076 72.2924 106.962 72.544C106.849 72.7956 106.96 73.0918 107.212 73.2056L107.624 72.2944ZM108.95 73.9913C109.202 74.1051 109.498 73.9933 109.612 73.7417C109.725 73.49 109.614 73.1938 109.362 73.0801L108.95 73.9913ZM112.838 74.6515C112.586 74.5378 112.29 74.6495 112.177 74.9012C112.063 75.1528 112.175 75.449 112.426 75.5627L112.838 74.6515ZM114.481 76.0683C114.756 76.0871 114.995 75.8791 115.014 75.6036C115.033 75.3281 114.825 75.0895 114.549 75.0706L114.481 76.0683ZM118.605 75.3484C118.329 75.3295 118.091 75.5375 118.072 75.813C118.053 76.0885 118.261 76.3272 118.537 76.346L118.605 75.3484ZM120.564 76.4849C120.84 76.5038 121.078 76.2958 121.097 76.0203C121.116 75.7448 120.908 75.5061 120.633 75.4873L120.564 76.4849ZM124.688 75.7651C124.413 75.7462 124.174 75.9542 124.155 76.2297C124.136 76.5052 124.344 76.7438 124.62 76.7627L124.688 75.7651ZM126.648 76.9016C126.923 76.9205 127.162 76.7124 127.181 76.4369C127.2 76.1614 126.992 75.9228 126.716 75.9039L126.648 76.9016ZM130.772 76.1817C130.496 76.1629 130.258 76.3709 130.239 76.6464C130.22 76.9219 130.428 77.1605 130.703 77.1794L130.772 76.1817ZM132.731 77.3183C133.007 77.3372 133.245 77.1291 133.264 76.8536C133.283 76.5781 133.075 76.3395 132.8 76.3206L132.731 77.3183ZM136.855 76.5984C136.58 76.5795 136.341 76.7876 136.322 77.0631C136.303 77.3386 136.511 77.5772 136.787 77.5961L136.855 76.5984ZM138.815 77.735C139.09 77.7538 139.329 77.5458 139.348 77.2703C139.366 76.9948 139.158 76.7562 138.883 76.7373L138.815 77.735ZM142.939 77.0151C142.663 76.9962 142.424 77.2042 142.406 77.4797C142.387 77.7552 142.595 77.9939 142.87 78.0127L142.939 77.0151ZM144.898 78.1516C145.173 78.1705 145.412 77.9625 145.431 77.687C145.45 77.4115 145.242 77.1728 144.966 77.154L144.898 78.1516ZM149.022 77.4318C148.746 77.4129 148.508 77.6209 148.489 77.8964C148.47 78.1719 148.678 78.4105 148.954 78.4294L149.022 77.4318ZM150.802 78.7539C151.067 78.8311 151.345 78.6787 151.422 78.4136C151.499 78.1485 151.347 77.871 151.082 77.7938L150.802 78.7539ZM154.844 78.889C154.579 78.8118 154.301 78.9642 154.224 79.2293C154.147 79.4944 154.299 79.772 154.564 79.8491L154.844 78.889ZM156.445 80.3968C156.71 80.474 156.988 80.3216 157.065 80.0565C157.142 79.7913 156.99 79.5138 156.725 79.4366L156.445 80.3968ZM160.486 80.5319C160.221 80.4547 159.944 80.607 159.867 80.8722C159.789 81.1373 159.942 81.4148 160.207 81.492L160.486 80.5319ZM162.088 82.0396C162.353 82.1168 162.63 81.9645 162.708 81.6993C162.785 81.4342 162.632 81.1567 162.367 81.0795L162.088 82.0396ZM166.129 82.1747C165.864 82.0975 165.587 82.2499 165.509 82.515C165.432 82.7802 165.584 83.0577 165.85 83.1349L166.129 82.1747ZM167.731 83.6825C167.996 83.7597 168.273 83.6073 168.35 83.3422C168.428 83.077 168.275 82.7995 168.01 82.7223L167.731 83.6825ZM171.772 83.8176C171.507 83.7404 171.229 83.8927 171.152 84.1579C171.075 84.423 171.227 84.7005 171.492 84.7777L171.772 83.8176ZM173.373 85.3253C173.638 85.4025 173.916 85.2502 173.993 84.985C174.07 84.7199 173.918 84.4424 173.653 84.3652L173.373 85.3253ZM177.415 85.4604C177.149 85.3832 176.872 85.5356 176.795 85.8007C176.718 86.0659 176.87 86.3434 177.135 86.4206L177.415 85.4604ZM179.016 86.9682C179.281 87.0454 179.559 86.893 179.636 86.6279C179.713 86.3628 179.561 86.0853 179.295 86.0081L179.016 86.9682ZM183.057 87.1033C182.792 87.0261 182.515 87.1785 182.437 87.4436C182.36 87.7087 182.513 87.9862 182.778 88.0634L183.057 87.1033ZM184.659 88.6111C184.924 88.6882 185.201 88.5359 185.279 88.2708C185.356 88.0056 185.203 87.7281 184.938 87.6509L184.659 88.6111ZM188.7 88.7462C188.435 88.669 188.157 88.8213 188.08 89.0865C188.003 89.3516 188.155 89.6291 188.42 89.7063L188.7 88.7462ZM190.301 90.2539C190.567 90.3311 190.844 90.1787 190.921 89.9136C190.998 89.6485 190.846 89.371 190.581 89.2938L190.301 90.2539ZM194.343 90.389C194.078 90.3118 193.8 90.4642 193.723 90.7293C193.646 90.9944 193.798 91.272 194.063 91.3491L194.343 90.389ZM195.944 91.8968C196.209 91.974 196.487 91.8216 196.564 91.5565C196.641 91.2913 196.489 91.0138 196.224 90.9366L195.944 91.8968ZM199.985 92.0319C199.72 91.9547 199.443 92.107 199.366 92.3722C199.288 92.6373 199.441 92.9148 199.706 92.992L199.985 92.0319ZM201.587 93.5396C201.852 93.6168 202.129 93.4645 202.207 93.1993C202.284 92.9342 202.132 92.6567 201.866 92.5795L201.587 93.5396ZM205.628 93.6747C205.363 93.5975 205.086 93.7499 205.008 94.015C204.931 94.2802 205.083 94.5577 205.349 94.6349L205.628 93.6747ZM207.23 95.1825C207.495 95.2597 207.772 95.1073 207.849 94.8422C207.927 94.5771 207.774 94.2995 207.509 94.2223L207.23 95.1825ZM211.271 95.3176C211.006 95.2404 210.728 95.3928 210.651 95.6579C210.574 95.923 210.726 96.2005 210.991 96.2777L211.271 95.3176ZM212.872 96.8253C213.137 96.9025 213.415 96.7502 213.492 96.485C213.569 96.2199 213.417 95.9424 213.152 95.8652L212.872 96.8253ZM216.914 96.9604C216.648 96.8833 216.371 97.0356 216.294 97.3007C216.217 97.5659 216.369 97.8434 216.634 97.9206L216.914 96.9604ZM218.515 98.4682C218.78 98.5454 219.058 98.393 219.135 98.1279C219.212 97.8628 219.06 97.5853 218.795 97.5081L218.515 98.4682ZM222.556 98.6033C222.291 98.5261 222.014 98.6785 221.936 98.9436C221.859 99.2087 222.012 99.4862 222.277 99.5634L222.556 98.6033ZM224.158 100.111C224.423 100.188 224.7 100.036 224.778 99.7708C224.855 99.5056 224.702 99.2281 224.437 99.1509L224.158 100.111ZM228.199 100.246C227.934 100.169 227.656 100.321 227.579 100.586C227.502 100.852 227.654 101.129 227.92 101.206L228.199 100.246ZM228.657 102.061C228.699 102.334 228.954 102.521 229.227 102.479C229.5 102.437 229.687 102.182 229.645 101.909L228.657 102.061ZM230.252 105.848C230.21 105.575 229.954 105.388 229.681 105.43C229.408 105.472 229.221 105.727 229.263 106L230.252 105.848ZM229.566 107.97C229.608 108.243 229.864 108.43 230.136 108.388C230.409 108.346 230.597 108.091 230.555 107.818L229.566 107.97ZM231.161 111.757C231.119 111.484 230.863 111.297 230.59 111.339C230.318 111.381 230.13 111.636 230.172 111.909L231.161 111.757ZM230.475 113.879C230.517 114.152 230.773 114.339 231.046 114.297C231.319 114.255 231.506 114 231.464 113.727L230.475 113.879ZM232.07 117.666C232.028 117.394 231.773 117.206 231.5 117.248C231.227 117.29 231.039 117.546 231.081 117.819L232.07 117.666ZM231.385 119.788C231.427 120.061 231.682 120.248 231.955 120.206C232.228 120.164 232.415 119.909 232.373 119.636L231.385 119.788ZM232.979 123.576C232.937 123.303 232.682 123.115 232.409 123.157C232.136 123.199 231.949 123.455 231.991 123.728L232.979 123.576ZM232.294 125.697C232.336 125.97 232.591 126.157 232.864 126.115C233.137 126.074 233.324 125.818 233.282 125.545L232.294 125.697ZM233.888 129.485C233.846 129.212 233.591 129.025 233.318 129.067C233.045 129.109 232.858 129.364 232.9 129.637L233.888 129.485ZM233.203 131.606C233.245 131.879 233.5 132.067 233.773 132.025C234.046 131.983 234.233 131.727 234.191 131.454L233.203 131.606ZM234.797 135.394C234.755 135.121 234.5 134.934 234.227 134.976C233.954 135.018 233.767 135.273 233.809 135.546L234.797 135.394ZM234.112 137.516C234.154 137.788 234.409 137.976 234.682 137.934C234.955 137.892 235.142 137.636 235.1 137.363L234.112 137.516ZM235.706 141.303C235.664 141.03 235.409 140.843 235.136 140.885C234.863 140.927 234.676 141.182 234.718 141.455L235.706 141.303ZM235.021 143.425C235.063 143.698 235.318 143.885 235.591 143.843C235.864 143.801 236.052 143.546 236.01 143.273L235.021 143.425ZM236.616 147.212C236.574 146.939 236.318 146.752 236.045 146.794C235.772 146.836 235.585 147.091 235.627 147.364L236.616 147.212ZM235.93 149.334C235.972 149.607 236.228 149.794 236.501 149.752C236.773 149.71 236.961 149.455 236.919 149.182L235.93 149.334ZM237.525 153.121C237.483 152.848 237.227 152.661 236.955 152.703C236.682 152.745 236.494 153 236.536 153.273L237.525 153.121ZM236.839 155.243C236.881 155.516 237.137 155.703 237.41 155.661C237.683 155.619 237.87 155.364 237.828 155.091L236.839 155.243ZM238.434 159.03C238.392 158.757 238.137 158.57 237.864 158.612C237.591 158.654 237.404 158.909 237.446 159.182L238.434 159.03ZM237.749 161.152C237.791 161.425 238.046 161.612 238.319 161.57C238.592 161.528 238.779 161.273 238.737 161L237.749 161.152ZM239.343 164.939C239.301 164.666 239.046 164.479 238.773 164.521C238.5 164.563 238.313 164.818 238.355 165.091L239.343 164.939ZM239.682 166.874C239.931 166.991 240.229 166.884 240.347 166.635C240.465 166.385 240.358 166.087 240.108 165.969L239.682 166.874ZM243.685 167.654C243.435 167.537 243.137 167.644 243.02 167.894C242.902 168.143 243.009 168.441 243.259 168.559L243.685 167.654ZM245.048 169.401C245.297 169.519 245.595 169.412 245.713 169.162C245.831 168.912 245.724 168.614 245.474 168.497L245.048 169.401ZM249.051 170.182C248.801 170.064 248.503 170.171 248.386 170.421C248.268 170.671 248.375 170.969 248.625 171.087L249.051 170.182ZM250.414 171.929C250.663 172.047 250.961 171.94 251.079 171.69C251.197 171.44 251.09 171.142 250.84 171.024L250.414 171.929ZM254.417 172.71C254.167 172.592 253.869 172.699 253.752 172.949C253.634 173.199 253.741 173.497 253.991 173.614L254.417 172.71ZM255.78 174.457C256.029 174.574 256.327 174.467 256.445 174.218C256.563 173.968 256.456 173.67 256.206 173.552L255.78 174.457ZM259.783 175.237C259.533 175.12 259.235 175.227 259.118 175.476C259 175.726 259.107 176.024 259.357 176.142L259.783 175.237ZM261.145 176.984C261.395 177.102 261.693 176.995 261.811 176.745C261.929 176.495 261.821 176.197 261.572 176.08L261.145 176.984ZM265.149 177.765C264.899 177.647 264.601 177.754 264.484 178.004C264.366 178.254 264.473 178.552 264.723 178.67L265.149 177.765ZM266.511 179.512C266.761 179.63 267.059 179.523 267.177 179.273C267.295 179.023 267.187 178.725 266.938 178.607L266.511 179.512ZM270.515 180.293C270.265 180.175 269.967 180.282 269.85 180.532C269.732 180.782 269.839 181.08 270.089 181.197L270.515 180.293ZM271.877 182.04C272.127 182.157 272.425 182.05 272.543 181.8C272.66 181.551 272.553 181.253 272.304 181.135L271.877 182.04ZM275.881 182.82C275.631 182.703 275.333 182.81 275.215 183.059C275.098 183.309 275.205 183.607 275.455 183.725L275.881 182.82ZM277.243 184.567C277.493 184.685 277.791 184.578 277.909 184.328C278.026 184.078 277.919 183.78 277.67 183.663L277.243 184.567ZM281.247 185.348C280.997 185.23 280.699 185.337 280.581 185.587C280.464 185.837 280.571 186.135 280.821 186.253L281.247 185.348ZM282.937 186.624C283.212 186.596 283.412 186.351 283.385 186.077C283.358 185.802 283.113 185.601 282.838 185.629L282.937 186.624ZM286.676 185.247C286.402 185.274 286.201 185.519 286.228 185.794C286.256 186.069 286.5 186.27 286.775 186.242L286.676 185.247ZM288.694 186.052C288.969 186.024 289.17 185.779 289.142 185.504C289.115 185.23 288.87 185.029 288.595 185.056L288.694 186.052ZM292.434 184.675C292.159 184.702 291.958 184.947 291.985 185.222C292.013 185.497 292.258 185.697 292.532 185.67L292.434 184.675ZM294.452 185.479C294.726 185.452 294.927 185.207 294.9 184.932C294.872 184.658 294.627 184.457 294.353 184.484L294.452 185.479ZM298.191 184.103C297.916 184.13 297.715 184.375 297.743 184.65C297.77 184.925 298.015 185.125 298.29 185.098L298.191 184.103ZM300.209 184.907C300.484 184.88 300.684 184.635 300.657 184.36C300.63 184.085 300.385 183.885 300.11 183.912L300.209 184.907ZM303.948 183.531C303.673 183.558 303.473 183.803 303.5 184.078C303.527 184.352 303.772 184.553 304.047 184.526L303.948 183.531ZM305.966 184.335C306.241 184.308 306.441 184.063 306.414 183.788C306.387 183.513 306.142 183.313 305.867 183.34L305.966 184.335ZM309.705 182.959C309.431 182.986 309.23 183.231 309.257 183.506C309.284 183.78 309.529 183.981 309.804 183.954L309.705 182.959ZM311.723 183.763C311.998 183.736 312.199 183.491 312.171 183.216C312.144 182.941 311.899 182.741 311.624 182.768L311.723 183.763ZM315.463 182.386C315.188 182.414 314.987 182.659 315.014 182.933C315.042 183.208 315.287 183.409 315.561 183.382L315.463 182.386ZM317.481 183.191C317.755 183.163 317.956 182.919 317.929 182.644C317.901 182.369 317.656 182.168 317.382 182.196L317.481 183.191ZM321.22 181.814C320.945 181.842 320.744 182.086 320.772 182.361C320.799 182.636 321.044 182.837 321.319 182.809L321.22 181.814ZM323.238 182.619C323.513 182.591 323.713 182.346 323.686 182.072C323.659 181.797 323.414 181.596 323.139 181.624L323.238 182.619ZM326.977 181.242C326.702 181.269 326.502 181.514 326.529 181.789C326.556 182.064 326.801 182.265 327.076 182.237L326.977 181.242ZM328.995 182.047C329.27 182.019 329.47 181.774 329.443 181.5C329.416 181.225 329.171 181.024 328.896 181.051L328.995 182.047ZM332.734 180.67C332.459 180.697 332.259 180.942 332.286 181.217C332.313 181.492 332.558 181.692 332.833 181.665L332.734 180.67ZM334.752 181.474C335.027 181.447 335.228 181.202 335.2 180.927C335.173 180.653 334.928 180.452 334.653 180.479L334.752 181.474ZM338.492 180.098C338.217 180.125 338.016 180.37 338.043 180.645C338.071 180.92 338.316 181.12 338.59 181.093L338.492 180.098ZM339.957 181.614C340.158 181.804 340.474 181.794 340.663 181.592C340.852 181.391 340.843 181.075 340.641 180.886L339.957 181.614ZM343.835 183.886C343.634 183.697 343.317 183.706 343.128 183.908C342.939 184.109 342.949 184.425 343.15 184.614L343.835 183.886ZM344.747 186.114C344.949 186.304 345.265 186.294 345.454 186.092C345.643 185.891 345.633 185.575 345.432 185.386L344.747 186.114ZM348.626 188.386C348.424 188.197 348.108 188.206 347.919 188.408C347.73 188.609 347.74 188.925 347.941 189.114L348.626 188.386ZM349.538 190.614C349.739 190.804 350.056 190.794 350.245 190.592C350.434 190.391 350.424 190.075 350.223 189.886L349.538 190.614ZM353.416 192.886C353.215 192.697 352.899 192.706 352.71 192.908C352.521 193.109 352.53 193.425 352.732 193.614L353.416 192.886ZM354.329 195.114C354.53 195.304 354.846 195.294 355.035 195.092C355.224 194.891 355.215 194.575 355.013 194.386L354.329 195.114ZM358.207 197.386C358.006 197.197 357.689 197.206 357.5 197.408C357.311 197.609 357.321 197.925 357.522 198.114L358.207 197.386ZM359.119 199.614C359.321 199.804 359.637 199.794 359.826 199.592C360.015 199.391 360.005 199.075 359.804 198.886L359.119 199.614ZM362.998 201.886C362.796 201.697 362.48 201.706 362.291 201.908C362.102 202.109 362.112 202.425 362.313 202.614L362.998 201.886ZM363.065 204.11C363.093 204.385 363.338 204.585 363.613 204.557C363.888 204.529 364.088 204.283 364.06 204.009L363.065 204.11ZM364.493 208.247C364.464 207.972 364.219 207.772 363.944 207.8C363.67 207.828 363.47 208.074 363.498 208.349L364.493 208.247ZM363.714 210.468C363.742 210.742 363.988 210.942 364.262 210.914C364.537 210.886 364.737 210.641 364.709 210.366L363.714 210.468ZM365.142 214.604C365.114 214.329 364.869 214.129 364.594 214.157C364.319 214.186 364.119 214.431 364.147 214.706L365.142 214.604ZM364.364 216.825C364.392 217.099 364.637 217.299 364.912 217.271C365.187 217.243 365.387 216.998 365.359 216.723L364.364 216.825ZM365.792 220.961C365.763 220.687 365.518 220.487 365.243 220.515C364.969 220.543 364.769 220.788 364.797 221.063L365.792 220.961ZM365.013 223.182C365.041 223.457 365.287 223.657 365.561 223.628C365.836 223.6 366.036 223.355 366.008 223.08L365.013 223.182ZM366.441 227.318C366.413 227.044 366.168 226.844 365.893 226.872C365.618 226.9 365.418 227.145 365.446 227.42L366.441 227.318ZM365.663 229.539C365.691 229.814 365.936 230.014 366.211 229.986C366.486 229.958 366.686 229.712 366.658 229.437L365.663 229.539ZM367.091 233.676C367.063 233.401 366.817 233.201 366.542 233.229C366.268 233.257 366.068 233.502 366.096 233.777L367.091 233.676ZM366.312 235.896C366.34 236.171 366.586 236.371 366.86 236.343C367.135 236.315 367.335 236.069 367.307 235.795L366.312 235.896ZM367.74 240.033C367.712 239.758 367.467 239.558 367.192 239.586C366.917 239.614 366.717 239.86 366.745 240.134L367.74 240.033ZM366.962 242.253C366.99 242.528 367.235 242.728 367.51 242.7C367.785 242.672 367.985 242.427 367.957 242.152L366.962 242.253ZM368.39 246.39C368.362 246.115 368.116 245.915 367.841 245.943C367.567 245.971 367.367 246.217 367.395 246.492L368.39 246.39ZM366.871 248.009C366.686 248.214 366.703 248.53 366.908 248.715C367.114 248.9 367.43 248.883 367.615 248.677L366.871 248.009ZM364.583 252.049C364.768 251.844 364.751 251.528 364.546 251.343C364.341 251.158 364.024 251.175 363.84 251.381L364.583 252.049ZM364.106 253.443C364.353 253.567 364.653 253.467 364.777 253.22C364.9 252.973 364.8 252.672 364.553 252.549L364.106 253.443ZM368.056 254.301C367.809 254.178 367.509 254.278 367.386 254.525C367.262 254.772 367.362 255.072 367.609 255.196L368.056 254.301ZM369.361 256.072C369.608 256.195 369.908 256.095 370.031 255.848C370.155 255.601 370.055 255.301 369.808 255.177L369.361 256.072ZM373.311 256.93C373.064 256.806 372.764 256.906 372.64 257.153C372.517 257.4 372.617 257.701 372.864 257.824L373.311 256.93ZM374.615 258.7C374.862 258.824 375.163 258.724 375.286 258.477C375.41 258.23 375.31 257.93 375.063 257.806L374.615 258.7ZM378.566 259.558C378.319 259.435 378.018 259.535 377.895 259.782C377.771 260.029 377.871 260.329 378.118 260.453L378.566 259.558ZM379.87 261.329C380.117 261.453 380.417 261.353 380.541 261.106C380.664 260.859 380.564 260.558 380.317 260.435L379.87 261.329ZM383.82 262.187C383.573 262.064 383.273 262.164 383.15 262.411C383.026 262.658 383.126 262.958 383.373 263.081L383.82 262.187ZM385.125 263.958C385.372 264.081 385.672 263.981 385.795 263.734C385.919 263.487 385.819 263.187 385.572 263.063L385.125 263.958ZM389.075 264.816C388.828 264.692 388.528 264.792 388.404 265.039C388.281 265.286 388.381 265.587 388.628 265.71L389.075 264.816ZM390.379 266.586C390.626 266.71 390.927 266.61 391.05 266.363C391.174 266.116 391.074 265.816 390.827 265.692L390.379 266.586ZM394.33 267.444C394.083 267.321 393.782 267.421 393.659 267.668C393.535 267.915 393.635 268.215 393.882 268.339L394.33 267.444ZM395.634 269.215C395.881 269.339 396.181 269.239 396.305 268.992C396.428 268.745 396.328 268.444 396.081 268.321L395.634 269.215ZM399.584 270.073C399.337 269.95 399.037 270.05 398.913 270.297C398.79 270.544 398.89 270.844 399.137 270.967L399.584 270.073ZM400.889 271.844C401.135 271.967 401.436 271.867 401.559 271.62C401.683 271.373 401.583 271.073 401.336 270.949L400.889 271.844ZM404.839 272.702C404.592 272.578 404.292 272.678 404.168 272.925C404.045 273.172 404.145 273.473 404.392 273.596L404.839 272.702ZM406.143 274.472C406.39 274.596 406.69 274.496 406.814 274.249C406.938 274.002 406.838 273.702 406.591 273.578L406.143 274.472ZM410.094 275.33C409.847 275.207 409.546 275.307 409.423 275.554C409.299 275.801 409.399 276.101 409.646 276.225L410.094 275.33ZM411.398 277.101C411.645 277.225 411.945 277.124 412.069 276.878C412.192 276.631 412.092 276.33 411.845 276.207L411.398 277.101ZM415.348 277.959C415.101 277.836 414.801 277.936 414.677 278.183C414.554 278.43 414.654 278.73 414.901 278.853L415.348 277.959ZM417.071 278.646C417.289 278.477 417.329 278.163 417.159 277.945C416.99 277.727 416.676 277.687 416.458 277.856L417.071 278.646ZM419.513 275.485C419.295 275.654 419.255 275.968 419.425 276.186C419.594 276.405 419.908 276.444 420.126 276.275L419.513 275.485ZM421.654 275.089C421.872 274.92 421.912 274.606 421.742 274.388C421.573 274.169 421.259 274.13 421.041 274.299L421.654 275.089ZM424.096 271.928C423.878 272.097 423.839 272.411 424.008 272.629C424.177 272.847 424.491 272.887 424.71 272.718L424.096 271.928ZM426.237 271.532C426.455 271.362 426.495 271.048 426.326 270.83C426.156 270.612 425.842 270.572 425.624 270.742L426.237 271.532ZM428.68 268.37C428.461 268.54 428.422 268.854 428.591 269.072C428.76 269.29 429.075 269.33 429.293 269.16L428.68 268.37ZM430.82 267.974C431.039 267.805 431.078 267.491 430.909 267.273C430.74 267.055 430.425 267.015 430.207 267.184L430.82 267.974ZM433.263 264.813C433.045 264.982 433.005 265.296 433.174 265.514C433.344 265.733 433.658 265.772 433.876 265.603L433.263 264.813ZM435.404 264.417C435.622 264.248 435.661 263.934 435.492 263.716C435.323 263.497 435.009 263.458 434.79 263.627L435.404 264.417ZM437.846 261.256C437.628 261.425 437.588 261.739 437.758 261.957C437.927 262.175 438.241 262.215 438.459 262.046L437.846 261.256ZM439.987 260.86C440.205 260.69 440.245 260.376 440.075 260.158C439.906 259.94 439.592 259.9 439.374 260.07L439.987 260.86ZM442.429 257.698C442.211 257.868 442.171 258.182 442.341 258.4C442.51 258.618 442.824 258.657 443.042 258.488L442.429 257.698ZM444.167 258.299C444.424 258.4 444.714 258.273 444.815 258.016C444.916 257.759 444.789 257.469 444.532 257.368L444.167 258.299ZM447.932 258.701C447.675 258.601 447.385 258.727 447.284 258.984C447.183 259.242 447.31 259.532 447.567 259.632L447.932 258.701ZM449.267 260.299C449.524 260.4 449.814 260.273 449.915 260.016C450.016 259.759 449.889 259.469 449.632 259.368L449.267 260.299ZM453.032 260.701C452.775 260.601 452.485 260.727 452.384 260.984C452.283 261.242 452.41 261.532 452.667 261.632L453.032 260.701ZM454.367 262.299C454.624 262.4 454.914 262.273 455.015 262.016C455.116 261.759 454.989 261.469 454.732 261.368L454.367 262.299ZM458.132 262.701C457.875 262.601 457.585 262.727 457.484 262.984C457.383 263.242 457.51 263.532 457.767 263.632L458.132 262.701ZM459.467 264.299C459.724 264.4 460.014 264.273 460.115 264.016C460.216 263.759 460.089 263.469 459.832 263.368L459.467 264.299ZM463.232 264.701C462.975 264.601 462.685 264.727 462.584 264.984C462.483 265.242 462.61 265.532 462.867 265.632L463.232 264.701ZM464.567 266.299C464.824 266.4 465.114 266.273 465.215 266.016C465.316 265.759 465.189 265.469 464.932 265.368L464.567 266.299ZM468.332 266.701C468.075 266.601 467.785 266.727 467.684 266.984C467.583 267.242 467.71 267.532 467.967 267.632L468.332 266.701ZM469.099 268.682C469.236 268.921 469.541 269.005 469.781 268.868C470.021 268.731 470.104 268.425 469.967 268.186L469.099 268.682ZM472.1 271.919C471.963 271.679 471.658 271.596 471.418 271.733C471.178 271.87 471.095 272.175 471.232 272.415L472.1 271.919ZM472.299 274.282C472.436 274.521 472.741 274.605 472.981 274.468C473.221 274.331 473.304 274.025 473.167 273.786L472.299 274.282ZM475.3 277.519C475.163 277.279 474.858 277.196 474.618 277.333C474.378 277.47 474.295 277.775 474.432 278.015L475.3 277.519ZM475.499 279.882C475.636 280.121 475.941 280.205 476.181 280.068C476.421 279.931 476.504 279.625 476.367 279.386L475.499 279.882ZM478.5 283.119C478.363 282.879 478.058 282.796 477.818 282.933C477.578 283.07 477.495 283.375 477.632 283.615L478.5 283.119ZM478.699 285.482C478.836 285.721 479.141 285.805 479.381 285.668C479.621 285.531 479.704 285.225 479.567 284.986L478.699 285.482ZM481.7 288.719C481.563 288.479 481.258 288.396 481.018 288.533C480.778 288.67 480.695 288.975 480.832 289.215L481.7 288.719ZM481.899 291.082C482.036 291.321 482.341 291.405 482.581 291.268C482.821 291.131 482.904 290.825 482.767 290.586L481.899 291.082ZM484.9 294.319C484.763 294.079 484.458 293.996 484.218 294.133C483.978 294.27 483.895 294.575 484.032 294.815L484.9 294.319ZM484.644 296.492C484.685 296.765 484.94 296.953 485.213 296.911C485.486 296.87 485.674 296.615 485.633 296.342L484.644 296.492ZM486.188 300.009C486.147 299.736 485.892 299.548 485.619 299.589C485.346 299.631 485.158 299.886 485.2 300.159L486.188 300.009ZM485.477 301.992C485.519 302.265 485.774 302.453 486.047 302.411C486.32 302.37 486.508 302.115 486.466 301.842L485.477 301.992ZM487.022 305.509C486.98 305.236 486.726 305.048 486.452 305.089C486.179 305.131 485.992 305.386 486.033 305.659L487.022 305.509ZM486.311 307.492C486.352 307.765 486.607 307.953 486.88 307.911C487.153 307.87 487.341 307.615 487.3 307.342L486.311 307.492ZM487.855 311.009C487.814 310.736 487.559 310.548 487.286 310.589C487.013 310.631 486.825 310.886 486.866 311.159L487.855 311.009ZM487.144 312.992C487.186 313.265 487.44 313.453 487.713 313.411C487.986 313.37 488.174 313.115 488.133 312.842L487.144 312.992ZM488.688 316.509C488.647 316.236 488.392 316.048 488.119 316.089C487.846 316.131 487.658 316.386 487.7 316.659L488.688 316.509ZM487.977 318.492C488.019 318.765 488.274 318.953 488.547 318.911C488.82 318.87 489.008 318.615 488.966 318.342L487.977 318.492ZM489.522 322.009C489.48 321.736 489.226 321.548 488.953 321.589C488.679 321.631 488.492 321.886 488.533 322.159L489.522 322.009ZM488.811 323.992C488.852 324.265 489.107 324.453 489.38 324.411C489.653 324.37 489.841 324.115 489.8 323.842L488.811 323.992ZM490.355 327.509C490.314 327.236 490.059 327.048 489.786 327.089C489.513 327.131 489.325 327.386 489.366 327.659L490.355 327.509ZM490.721 329.302C490.98 329.399 491.268 329.267 491.364 329.008C491.46 328.749 491.329 328.461 491.07 328.365L490.721 329.302ZM494.653 329.698C494.394 329.602 494.106 329.734 494.01 329.993C493.914 330.251 494.046 330.539 494.304 330.636L494.653 329.698ZM496.096 331.302C496.355 331.399 496.643 331.267 496.739 331.008C496.835 330.749 496.704 330.461 496.445 330.365L496.096 331.302ZM500.028 331.698C499.769 331.602 499.482 331.734 499.385 331.993C499.289 332.251 499.421 332.539 499.679 332.636L500.028 331.698ZM501.471 333.302C501.73 333.399 502.018 333.267 502.114 333.008C502.21 332.749 502.079 332.461 501.82 332.365L501.471 333.302ZM505.403 333.698C505.144 333.602 504.856 333.734 504.76 333.993C504.664 334.251 504.796 334.539 505.054 334.636L505.403 333.698ZM506.846 335.302C507.105 335.399 507.393 335.267 507.489 335.008C507.585 334.749 507.454 334.461 507.195 334.365L506.846 335.302ZM510.778 335.698C510.519 335.602 510.231 335.734 510.135 335.993C510.039 336.251 510.171 336.539 510.429 336.636L510.778 335.698ZM510.588 337.146C510.458 337.389 510.55 337.692 510.794 337.822C511.038 337.952 511.341 337.86 511.471 337.617L510.588 337.146ZM509.59 341.141C509.72 340.897 509.628 340.594 509.384 340.464C509.14 340.334 508.838 340.426 508.708 340.67L509.59 341.141ZM507.767 342.432C507.637 342.675 507.729 342.978 507.973 343.108C508.216 343.238 508.519 343.146 508.649 342.902L507.767 342.432ZM506.769 346.426C506.899 346.183 506.807 345.88 506.563 345.75C506.319 345.62 506.016 345.712 505.886 345.955L506.769 346.426ZM504.946 347.717C504.816 347.961 504.908 348.264 505.152 348.394C505.395 348.524 505.698 348.432 505.828 348.188L504.946 347.717ZM503.947 351.712C504.077 351.468 503.985 351.165 503.742 351.035C503.498 350.905 503.195 350.997 503.065 351.241L503.947 351.712ZM502.125 353.003C501.995 353.247 502.087 353.55 502.33 353.68C502.574 353.81 502.877 353.717 503.007 353.474L502.125 353.003ZM501.126 356.998C501.256 356.754 501.164 356.451 500.921 356.321C500.677 356.191 500.374 356.283 500.244 356.527L501.126 356.998ZM499.304 358.289C499.174 358.532 499.266 358.835 499.509 358.965C499.753 359.095 500.056 359.003 500.186 358.76L499.304 358.289ZM498.305 362.283C498.435 362.04 498.343 361.737 498.099 361.607C497.856 361.477 497.553 361.569 497.423 361.813L498.305 362.283ZM496.482 363.574C496.352 363.818 496.445 364.121 496.688 364.251C496.932 364.381 497.235 364.289 497.365 364.045L496.482 363.574ZM495.484 367.569C495.614 367.325 495.522 367.023 495.278 366.893C495.035 366.763 494.732 366.855 494.602 367.098L495.484 367.569ZM493.661 368.86C493.531 369.104 493.623 369.407 493.867 369.537C494.111 369.667 494.413 369.575 494.543 369.331L493.661 368.86ZM492.663 372.855C492.793 372.611 492.701 372.308 492.457 372.178C492.213 372.048 491.911 372.14 491.78 372.384L492.663 372.855ZM490.739 373.324C490.478 373.416 490.341 373.701 490.432 373.961C490.523 374.222 490.808 374.36 491.069 374.268L490.739 373.324ZM487.679 375.453C487.94 375.362 488.077 375.077 487.986 374.816C487.895 374.555 487.61 374.418 487.349 374.509L487.679 375.453ZM485.654 375.101C485.393 375.192 485.256 375.477 485.347 375.738C485.438 375.999 485.723 376.136 485.984 376.045L485.654 375.101ZM482.594 377.23C482.855 377.139 482.992 376.853 482.901 376.593C482.81 376.332 482.525 376.195 482.264 376.286L482.594 377.23ZM480.569 376.878C480.309 376.969 480.171 377.254 480.262 377.515C480.353 377.776 480.638 377.913 480.899 377.822L480.569 376.878ZM477.509 379.006C477.77 378.915 477.907 378.63 477.816 378.369C477.725 378.109 477.44 377.971 477.179 378.062L477.509 379.006ZM63.5276 21.6638L63.8371 22.5566L64.782 22.2291L64.4724 21.3362L63.5276 21.6638ZM65.0753 26.1281L65.6945 27.9138L66.6393 27.5862L66.0202 25.8005L65.0753 26.1281ZM66.9327 31.4852L67.5518 33.2709L68.4966 32.9434L67.8775 31.1576L66.9327 31.4852ZM68.79 36.8423L69.4091 38.6281L70.3539 38.3005L69.7348 36.5148L68.79 36.8423ZM70.6473 42.1995L71.2664 43.9852L72.2112 43.6576L71.5921 41.8719L70.6473 42.1995ZM72.5046 47.5566L73.1237 49.3423L74.0685 49.0148L73.4494 47.2291L72.5046 47.5566ZM74.3619 52.9138L74.981 54.6995L75.9259 54.3719L75.3067 52.5862L74.3619 52.9138ZM76.2192 58.2709L76.5288 59.1638L77.4736 58.8362L77.1641 57.9433L76.2192 58.2709ZM76.7952 59.4556L77.6643 59.8484L78.0762 58.9372L77.2072 58.5444L76.7952 59.4556ZM81.1405 61.4199L82.8786 62.2056L83.2905 61.2944L81.5524 60.5087L81.1405 61.4199ZM86.3548 63.777L88.0929 64.5627L88.5048 63.6515L86.7667 62.8658L86.3548 63.777ZM91.569 66.1342L93.3071 66.9199L93.7191 66.0087L91.981 65.2229L91.569 66.1342ZM96.7833 68.4913L98.5214 69.277L98.9334 68.3658L97.1953 67.5801L96.7833 68.4913ZM101.998 70.8484L103.736 71.6342L104.148 70.7229L102.41 69.9372L101.998 70.8484ZM107.212 73.2056L108.95 73.9913L109.362 73.0801L107.624 72.2944L107.212 73.2056ZM112.426 75.5627L113.295 75.9556L113.707 75.0444L112.838 74.6515L112.426 75.5627ZM113.467 75.9988L114.481 76.0683L114.549 75.0706L113.535 75.0011L113.467 75.9988ZM118.537 76.346L120.564 76.4849L120.633 75.4873L118.605 75.3484L118.537 76.346ZM124.62 76.7627L126.648 76.9016L126.716 75.9039L124.688 75.7651L124.62 76.7627ZM130.703 77.1794L132.731 77.3183L132.8 76.3206L130.772 76.1817L130.703 77.1794ZM136.787 77.5961L138.815 77.735L138.883 76.7373L136.855 76.5984L136.787 77.5961ZM142.87 78.0127L144.898 78.1516L144.966 77.154L142.939 77.0151L142.87 78.0127ZM148.954 78.4294L149.968 78.4989L150.036 77.5012L149.022 77.4318L148.954 78.4294ZM149.862 78.4801L150.802 78.7539L151.082 77.7938L150.141 77.52L149.862 78.4801ZM154.564 79.8491L156.445 80.3968L156.725 79.4366L154.844 78.889L154.564 79.8491ZM160.207 81.492L162.088 82.0396L162.367 81.0795L160.486 80.5319L160.207 81.492ZM165.85 83.1349L167.731 83.6825L168.01 82.7223L166.129 82.1747L165.85 83.1349ZM171.492 84.7777L173.373 85.3253L173.653 84.3652L171.772 83.8176L171.492 84.7777ZM177.135 86.4206L179.016 86.9682L179.295 86.0081L177.415 85.4604L177.135 86.4206ZM182.778 88.0634L184.659 88.6111L184.938 87.6509L183.057 87.1033L182.778 88.0634ZM188.42 89.7063L190.301 90.2539L190.581 89.2938L188.7 88.7462L188.42 89.7063ZM194.063 91.3491L195.944 91.8968L196.224 90.9366L194.343 90.389L194.063 91.3491ZM199.706 92.992L201.587 93.5396L201.866 92.5795L199.985 92.0319L199.706 92.992ZM205.349 94.6349L207.23 95.1825L207.509 94.2223L205.628 93.6747L205.349 94.6349ZM210.991 96.2777L212.872 96.8253L213.152 95.8652L211.271 95.3176L210.991 96.2777ZM216.634 97.9206L218.515 98.4682L218.795 97.5081L216.914 96.9604L216.634 97.9206ZM222.277 99.5634L224.158 100.111L224.437 99.1509L222.556 98.6033L222.277 99.5634ZM227.92 101.206L228.86 101.48L229.139 100.52L228.199 100.246L227.92 101.206ZM228.506 101.076L228.657 102.061L229.645 101.909L229.494 100.924L228.506 101.076ZM229.263 106L229.566 107.97L230.555 107.818L230.252 105.848L229.263 106ZM230.172 111.909L230.475 113.879L231.464 113.727L231.161 111.757L230.172 111.909ZM231.081 117.819L231.385 119.788L232.373 119.636L232.07 117.666L231.081 117.819ZM231.991 123.728L232.294 125.697L233.282 125.545L232.979 123.576L231.991 123.728ZM232.9 129.637L233.203 131.606L234.191 131.454L233.888 129.485L232.9 129.637ZM233.809 135.546L234.112 137.516L235.1 137.363L234.797 135.394L233.809 135.546ZM234.718 141.455L235.021 143.425L236.01 143.273L235.706 141.303L234.718 141.455ZM235.627 147.364L235.93 149.334L236.919 149.182L236.616 147.212L235.627 147.364ZM236.536 153.273L236.839 155.243L237.828 155.091L237.525 153.121L236.536 153.273ZM237.446 159.182L237.749 161.152L238.737 161L238.434 159.03L237.446 159.182ZM238.355 165.091L238.506 166.076L239.495 165.924L239.343 164.939L238.355 165.091ZM238.787 166.453L239.682 166.874L240.108 165.969L239.214 165.548L238.787 166.453ZM243.259 168.559L245.048 169.401L245.474 168.497L243.685 167.654L243.259 168.559ZM248.625 171.087L250.414 171.929L250.84 171.024L249.051 170.182L248.625 171.087ZM253.991 173.614L255.78 174.457L256.206 173.552L254.417 172.71L253.991 173.614ZM259.357 176.142L261.145 176.984L261.572 176.08L259.783 175.237L259.357 176.142ZM264.723 178.67L266.511 179.512L266.938 178.607L265.149 177.765L264.723 178.67ZM270.089 181.197L271.877 182.04L272.304 181.135L270.515 180.293L270.089 181.197ZM275.455 183.725L277.243 184.567L277.67 183.663L275.881 182.82L275.455 183.725ZM280.821 186.253L281.715 186.674L282.141 185.769L281.247 185.348L280.821 186.253ZM281.977 186.719L282.937 186.624L282.838 185.629L281.879 185.724L281.977 186.719ZM286.775 186.242L288.694 186.052L288.595 185.056L286.676 185.247L286.775 186.242ZM292.532 185.67L294.452 185.479L294.353 184.484L292.434 184.675L292.532 185.67ZM298.29 185.098L300.209 184.907L300.11 183.912L298.191 184.103L298.29 185.098ZM304.047 184.526L305.966 184.335L305.867 183.34L303.948 183.531L304.047 184.526ZM309.804 183.954L311.723 183.763L311.624 182.768L309.705 182.959L309.804 183.954ZM315.561 183.382L317.481 183.191L317.382 182.196L315.463 182.386L315.561 183.382ZM321.319 182.809L323.238 182.619L323.139 181.624L321.22 181.814L321.319 182.809ZM327.076 182.237L328.995 182.047L328.896 181.051L326.977 181.242L327.076 182.237ZM332.833 181.665L334.752 181.474L334.653 180.479L332.734 180.67L332.833 181.665ZM338.59 181.093L339.55 180.998L339.451 180.002L338.492 180.098L338.59 181.093ZM339.158 180.864L339.957 181.614L340.641 180.886L339.843 180.136L339.158 180.864ZM343.15 184.614L344.747 186.114L345.432 185.386L343.835 183.886L343.15 184.614ZM347.941 189.114L349.538 190.614L350.223 189.886L348.626 188.386L347.941 189.114ZM352.732 193.614L354.329 195.114L355.013 194.386L353.416 192.886L352.732 193.614ZM357.522 198.114L359.119 199.614L359.804 198.886L358.207 197.386L357.522 198.114ZM362.313 202.614L363.112 203.364L363.796 202.636L362.998 201.886L362.313 202.614ZM362.956 203.051L363.065 204.11L364.06 204.009L363.951 202.949L362.956 203.051ZM363.498 208.349L363.714 210.468L364.709 210.366L364.493 208.247L363.498 208.349ZM364.147 214.706L364.364 216.825L365.359 216.723L365.142 214.604L364.147 214.706ZM364.797 221.063L365.013 223.182L366.008 223.08L365.792 220.961L364.797 221.063ZM365.446 227.42L365.663 229.539L366.658 229.437L366.441 227.318L365.446 227.42ZM366.096 233.777L366.312 235.896L367.307 235.795L367.091 233.676L366.096 233.777ZM366.745 240.134L366.962 242.253L367.957 242.152L367.74 240.033L366.745 240.134ZM367.395 246.492L367.503 247.551L368.498 247.449L368.39 246.39L367.395 246.492ZM367.629 247.166L366.871 248.009L367.615 248.677L368.372 247.835L367.629 247.166ZM363.84 251.381L363.082 252.224L363.826 252.892L364.583 252.049L363.84 251.381ZM363.23 253.005L364.106 253.443L364.553 252.549L363.678 252.111L363.23 253.005ZM367.609 255.196L369.361 256.072L369.808 255.177L368.056 254.301L367.609 255.196ZM372.864 257.824L374.615 258.7L375.063 257.806L373.311 256.93L372.864 257.824ZM378.118 260.453L379.87 261.329L380.317 260.435L378.566 259.558L378.118 260.453ZM383.373 263.081L385.125 263.958L385.572 263.063L383.82 262.187L383.373 263.081ZM388.628 265.71L390.379 266.586L390.827 265.692L389.075 264.816L388.628 265.71ZM393.882 268.339L395.634 269.215L396.081 268.321L394.33 267.444L393.882 268.339ZM399.137 270.967L400.889 271.844L401.336 270.949L399.584 270.073L399.137 270.967ZM404.392 273.596L406.143 274.472L406.591 273.578L404.839 272.702L404.392 273.596ZM409.646 276.225L411.398 277.101L411.845 276.207L410.094 275.33L409.646 276.225ZM414.901 278.853L415.777 279.292L416.224 278.397L415.348 277.959L414.901 278.853ZM416.307 279.239L417.071 278.646L416.458 277.856L415.694 278.449L416.307 279.239ZM420.126 276.275L421.654 275.089L421.041 274.299L419.513 275.485L420.126 276.275ZM424.71 272.718L426.237 271.532L425.624 270.742L424.096 271.928L424.71 272.718ZM429.293 269.16L430.82 267.974L430.207 267.184L428.68 268.37L429.293 269.16ZM433.876 265.603L435.404 264.417L434.79 263.627L433.263 264.813L433.876 265.603ZM438.459 262.046L439.987 260.86L439.374 260.07L437.846 261.256L438.459 262.046ZM443.042 258.488L443.806 257.895L443.193 257.105L442.429 257.698L443.042 258.488ZM443.317 257.966L444.167 258.299L444.532 257.368L443.682 257.035L443.317 257.966ZM447.567 259.632L449.267 260.299L449.632 259.368L447.932 258.701L447.567 259.632ZM452.667 261.632L454.367 262.299L454.732 261.368L453.032 260.701L452.667 261.632ZM457.767 263.632L459.467 264.299L459.832 263.368L458.132 262.701L457.767 263.632ZM462.867 265.632L464.567 266.299L464.932 265.368L463.232 264.701L462.867 265.632ZM467.967 267.632L468.817 267.966L469.182 267.035L468.332 266.701L467.967 267.632ZM468.565 267.748L469.099 268.682L469.967 268.186L469.434 267.252L468.565 267.748ZM471.232 272.415L472.299 274.282L473.167 273.786L472.1 271.919L471.232 272.415ZM474.432 278.015L475.499 279.882L476.367 279.386L475.3 277.519L474.432 278.015ZM477.632 283.615L478.699 285.482L479.567 284.986L478.5 283.119L477.632 283.615ZM480.832 289.215L481.899 291.082L482.767 290.586L481.7 288.719L480.832 289.215ZM484.032 294.815L484.565 295.748L485.434 295.252L484.9 294.319L484.032 294.815ZM484.505 295.575L484.644 296.492L485.633 296.342L485.494 295.425L484.505 295.575ZM485.2 300.159L485.477 301.992L486.466 301.842L486.188 300.009L485.2 300.159ZM486.033 305.659L486.311 307.492L487.3 307.342L487.022 305.509L486.033 305.659ZM486.866 311.159L487.144 312.992L488.133 312.842L487.855 311.009L486.866 311.159ZM487.7 316.659L487.977 318.492L488.966 318.342L488.688 316.509L487.7 316.659ZM488.533 322.159L488.811 323.992L489.8 323.842L489.522 322.009L488.533 322.159ZM489.366 327.659L489.505 328.575L490.494 328.425L490.355 327.509L489.366 327.659ZM489.825 328.969L490.721 329.302L491.07 328.365L490.174 328.032L489.825 328.969ZM494.304 330.636L496.096 331.302L496.445 330.365L494.653 329.698L494.304 330.636ZM499.679 332.636L501.471 333.302L501.82 332.365L500.028 331.698L499.679 332.636ZM505.054 334.636L506.846 335.302L507.195 334.365L505.403 333.698L505.054 334.636ZM510.429 336.636L511.325 336.969L511.674 336.032L510.778 335.698L510.429 336.636ZM511.059 336.265L510.588 337.146L511.471 337.617L511.941 336.736L511.059 336.265ZM508.708 340.67L507.767 342.432L508.649 342.902L509.59 341.141L508.708 340.67ZM505.886 345.955L504.946 347.717L505.828 348.188L506.769 346.426L505.886 345.955ZM503.065 351.241L502.125 353.003L503.007 353.474L503.947 351.712L503.065 351.241ZM500.244 356.527L499.304 358.289L500.186 358.76L501.126 356.998L500.244 356.527ZM497.423 361.813L496.482 363.574L497.365 364.045L498.305 362.283L497.423 361.813ZM494.602 367.098L493.661 368.86L494.543 369.331L495.484 367.569L494.602 367.098ZM491.78 372.384L491.31 373.265L492.192 373.736L492.663 372.855L491.78 372.384ZM491.586 373.028L490.739 373.324L491.069 374.268L491.916 373.972L491.586 373.028ZM487.349 374.509L485.654 375.101L485.984 376.045L487.679 375.453L487.349 374.509ZM482.264 376.286L480.569 376.878L480.899 377.822L482.594 377.23L482.264 376.286ZM477.179 378.062L476.332 378.359L476.662 379.303L477.509 379.006L477.179 378.062Z" fill="#87A4BC"/>
<g filter="url(#filter0_d_5088_63189)">
<circle cx="480" cy="379" r="3" fill="#0C99CF"/>
<circle cx="480" cy="379" r="4" stroke="white" stroke-width="2"/>
</g>
<path d="M434.025 370V359.979H437.785C438.551 359.979 439.164 360.081 439.624 360.286C440.089 360.487 440.451 360.799 440.711 361.223C440.975 361.642 441.107 362.082 441.107 362.542C441.107 362.97 440.991 363.374 440.759 363.752C440.526 364.13 440.175 364.436 439.706 364.668C440.312 364.846 440.777 365.149 441.101 365.577C441.429 366.006 441.593 366.511 441.593 367.095C441.593 367.564 441.493 368.002 441.292 368.407C441.096 368.808 440.852 369.118 440.561 369.337C440.269 369.556 439.902 369.722 439.46 369.836C439.022 369.945 438.485 370 437.847 370H434.025ZM435.352 364.189H437.519C438.106 364.189 438.528 364.151 438.783 364.073C439.12 363.973 439.373 363.807 439.542 363.574C439.715 363.342 439.802 363.05 439.802 362.699C439.802 362.367 439.722 362.075 439.562 361.824C439.403 361.569 439.175 361.396 438.879 361.305C438.583 361.209 438.075 361.161 437.354 361.161H435.352V364.189ZM435.352 368.817H437.847C438.275 368.817 438.576 368.801 438.749 368.77C439.054 368.715 439.31 368.624 439.515 368.496C439.72 368.368 439.888 368.184 440.021 367.942C440.153 367.696 440.219 367.414 440.219 367.095C440.219 366.721 440.123 366.397 439.932 366.124C439.74 365.846 439.474 365.652 439.132 365.543C438.795 365.429 438.307 365.372 437.669 365.372H435.352V368.817ZM443.377 370V359.979H445.373L447.745 367.074C447.964 367.735 448.123 368.229 448.224 368.558C448.338 368.193 448.515 367.658 448.757 366.951L451.156 359.979H452.94V370H451.662V361.612L448.75 370H447.554L444.655 361.469V370H443.377ZM457.63 370V361.161H454.328V359.979H462.271V361.161H458.956V370H457.63ZM463.652 359.979H471.534V370H470.201V361.161H464.979V370H463.652V359.979Z" fill="white"/>
<path d="M17.2305 8.48633L18.5566 8.82129C18.2786 9.91048 17.7773 10.7422 17.0527 11.3164C16.3327 11.8861 15.4508 12.1709 14.4072 12.1709C13.3271 12.1709 12.4476 11.9521 11.7686 11.5146C11.0941 11.0726 10.5791 10.4346 10.2236 9.60059C9.87272 8.7666 9.69727 7.87109 9.69727 6.91406C9.69727 5.87044 9.89551 4.96126 10.292 4.18652C10.693 3.40723 11.2604 2.81706 11.9941 2.41602C12.7324 2.01042 13.5436 1.80762 14.4277 1.80762C15.4303 1.80762 16.2734 2.06283 16.957 2.57324C17.6406 3.08366 18.1169 3.80143 18.3857 4.72656L17.0801 5.03418C16.8477 4.30501 16.5104 3.77409 16.0684 3.44141C15.6263 3.10872 15.0703 2.94238 14.4004 2.94238C13.6302 2.94238 12.9854 3.12695 12.4658 3.49609C11.9508 3.86523 11.5885 4.36198 11.3789 4.98633C11.1693 5.60612 11.0645 6.24642 11.0645 6.90723C11.0645 7.75944 11.1875 8.50456 11.4336 9.14258C11.6842 9.77604 12.0716 10.25 12.5957 10.5645C13.1198 10.8789 13.6872 11.0361 14.2979 11.0361C15.0407 11.0361 15.6696 10.8219 16.1846 10.3936C16.6995 9.96517 17.0482 9.32943 17.2305 8.48633ZM24.9414 11.1045C24.4857 11.4919 24.0459 11.7653 23.6221 11.9248C23.2028 12.0843 22.7516 12.1641 22.2686 12.1641C21.471 12.1641 20.8581 11.9704 20.4297 11.583C20.0013 11.1911 19.7871 10.6921 19.7871 10.0859C19.7871 9.73047 19.8669 9.4069 20.0264 9.11523C20.1904 8.81901 20.4023 8.58203 20.6621 8.4043C20.9264 8.22656 21.2227 8.09212 21.5508 8.00098C21.7923 7.93717 22.1569 7.87565 22.6445 7.81641C23.638 7.69792 24.3695 7.55664 24.8389 7.39258C24.8434 7.22396 24.8457 7.11686 24.8457 7.07129C24.8457 6.56999 24.7295 6.2168 24.4971 6.01172C24.1826 5.73372 23.7155 5.59473 23.0957 5.59473C22.5169 5.59473 22.0885 5.69727 21.8105 5.90234C21.5371 6.10286 21.3343 6.46061 21.2021 6.97559L19.999 6.81152C20.1084 6.29655 20.2884 5.88184 20.5391 5.56738C20.7897 5.24837 21.152 5.00456 21.626 4.83594C22.0999 4.66276 22.6491 4.57617 23.2734 4.57617C23.8932 4.57617 24.3968 4.64909 24.7842 4.79492C25.1715 4.94076 25.4564 5.12533 25.6387 5.34863C25.821 5.56738 25.9486 5.84538 26.0215 6.18262C26.0625 6.39225 26.083 6.77051 26.083 7.31738V8.95801C26.083 10.1019 26.1081 10.8265 26.1582 11.1318C26.2129 11.4326 26.3177 11.722 26.4727 12H25.1875C25.0599 11.7448 24.9779 11.4463 24.9414 11.1045ZM24.8389 8.35645C24.3923 8.53874 23.7223 8.69368 22.8291 8.82129C22.3232 8.89421 21.9655 8.97624 21.7559 9.06738C21.5462 9.15853 21.3844 9.29297 21.2705 9.4707C21.1566 9.64388 21.0996 9.83757 21.0996 10.0518C21.0996 10.3799 21.2227 10.6533 21.4688 10.8721C21.7194 11.0908 22.084 11.2002 22.5625 11.2002C23.0365 11.2002 23.458 11.0977 23.8271 10.8926C24.1963 10.6829 24.4674 10.3981 24.6406 10.0381C24.7728 9.76009 24.8389 9.34993 24.8389 8.80762V8.35645ZM28.0039 4.74023H29.2344V7.76172H32.6455V4.74023H33.876V12H32.6455V8.78027H29.2344V12H28.0039V4.74023ZM35.7285 4.74023H36.959V7.87793C37.3509 7.87793 37.6243 7.80273 37.7793 7.65234C37.9388 7.50195 38.1712 7.06445 38.4766 6.33984C38.7181 5.76562 38.9141 5.38737 39.0645 5.20508C39.2148 5.02279 39.388 4.89974 39.584 4.83594C39.7799 4.77214 40.0944 4.74023 40.5273 4.74023H40.7734V5.75879L40.4316 5.75195C40.1081 5.75195 39.9007 5.7998 39.8096 5.89551C39.7139 5.99577 39.568 6.29427 39.3721 6.79102C39.1852 7.26497 39.0143 7.5931 38.8594 7.77539C38.7044 7.95768 38.4652 8.12402 38.1416 8.27441C38.6702 8.41569 39.1898 8.90788 39.7002 9.75098L41.0469 12H39.6934L38.3809 9.75098C38.112 9.2998 37.8773 9.00358 37.6768 8.8623C37.4762 8.71647 37.237 8.64355 36.959 8.64355V12H35.7285V4.74023ZM41.3613 4.74023H47.2607V5.75879H44.9229V12H43.6992V5.75879H41.3613V4.74023ZM47.958 8.99219V7.75488H51.7383V8.99219H47.958ZM53.2695 1.97852H61.1514V12H59.8184V3.16113H54.5957V12H53.2695V1.97852ZM68.1309 9.66211L69.4023 9.81934C69.2018 10.5622 68.8304 11.1387 68.2881 11.5488C67.7458 11.959 67.0531 12.1641 66.21 12.1641C65.1481 12.1641 64.305 11.8382 63.6807 11.1865C63.0609 10.5303 62.751 9.61198 62.751 8.43164C62.751 7.21029 63.0654 6.26237 63.6943 5.58789C64.3232 4.91341 65.139 4.57617 66.1416 4.57617C67.1123 4.57617 67.9053 4.90658 68.5205 5.56738C69.1357 6.22819 69.4434 7.15788 69.4434 8.35645C69.4434 8.42936 69.4411 8.53874 69.4365 8.68457H64.0225C64.068 9.4821 64.2936 10.0928 64.6992 10.5166C65.1048 10.9404 65.6107 11.1523 66.2168 11.1523C66.668 11.1523 67.0531 11.0339 67.3721 10.7969C67.6911 10.5599 67.944 10.1816 68.1309 9.66211ZM64.0908 7.67285H68.1445C68.0898 7.06217 67.9349 6.60417 67.6797 6.29883C67.2878 5.82487 66.7796 5.58789 66.1553 5.58789C65.5902 5.58789 65.1139 5.77702 64.7266 6.15527C64.3438 6.53353 64.1318 7.03939 64.0908 7.67285ZM69.8262 4.74023H75.7256V5.75879H73.3877V12H72.1641V5.75879H69.8262V4.74023ZM81.707 9.66211L82.9785 9.81934C82.778 10.5622 82.4066 11.1387 81.8643 11.5488C81.3219 11.959 80.6292 12.1641 79.7861 12.1641C78.7243 12.1641 77.8812 11.8382 77.2568 11.1865C76.637 10.5303 76.3271 9.61198 76.3271 8.43164C76.3271 7.21029 76.6416 6.26237 77.2705 5.58789C77.8994 4.91341 78.7152 4.57617 79.7178 4.57617C80.6885 4.57617 81.4814 4.90658 82.0967 5.56738C82.7119 6.22819 83.0195 7.15788 83.0195 8.35645C83.0195 8.42936 83.0173 8.53874 83.0127 8.68457H77.5986C77.6442 9.4821 77.8698 10.0928 78.2754 10.5166C78.681 10.9404 79.1868 11.1523 79.793 11.1523C80.2441 11.1523 80.6292 11.0339 80.9482 10.7969C81.2673 10.5599 81.5202 10.1816 81.707 9.66211ZM77.667 7.67285H81.7207C81.666 7.06217 81.5111 6.60417 81.2559 6.29883C80.8639 5.82487 80.3558 5.58789 79.7314 5.58789C79.1663 5.58789 78.6901 5.77702 78.3027 6.15527C77.9199 6.53353 77.708 7.03939 77.667 7.67285ZM84.5303 14.7822V4.74023H85.6514V5.68359C85.9157 5.31445 86.2142 5.03874 86.5469 4.85645C86.8796 4.6696 87.2829 4.57617 87.7568 4.57617C88.3766 4.57617 88.9235 4.73568 89.3975 5.05469C89.8714 5.3737 90.2292 5.82487 90.4707 6.4082C90.7122 6.98698 90.833 7.62272 90.833 8.31543C90.833 9.05827 90.6986 9.72819 90.4297 10.3252C90.1654 10.9176 89.778 11.3734 89.2676 11.6924C88.7617 12.0068 88.2285 12.1641 87.668 12.1641C87.2578 12.1641 86.8887 12.0775 86.5605 11.9043C86.237 11.7311 85.9704 11.5124 85.7607 11.248V14.7822H84.5303ZM85.6445 8.41113C85.6445 9.34538 85.8337 10.0358 86.2119 10.4824C86.5902 10.929 87.0482 11.1523 87.5859 11.1523C88.1328 11.1523 88.5999 10.9222 88.9873 10.4619C89.3792 9.99707 89.5752 9.2793 89.5752 8.30859C89.5752 7.38346 89.3838 6.69076 89.001 6.23047C88.6227 5.77018 88.1693 5.54004 87.6406 5.54004C87.1165 5.54004 86.6517 5.78613 86.2461 6.27832C85.8451 6.76595 85.6445 7.47689 85.6445 8.41113ZM97.6416 1.73926L98.7285 1.75293C98.6784 2.24056 98.569 2.58008 98.4004 2.77148C98.2363 2.96289 98.0221 3.08594 97.7578 3.14062C97.498 3.19531 96.9854 3.22266 96.2197 3.22266C95.2035 3.22266 94.5107 3.32064 94.1416 3.5166C93.7725 3.71257 93.5059 4.02702 93.3418 4.45996C93.1823 4.88835 93.0934 5.44206 93.0752 6.12109C93.3851 5.66081 93.7474 5.31673 94.1621 5.08887C94.5768 4.85645 95.0439 4.74023 95.5635 4.74023C96.516 4.74023 97.3044 5.06836 97.9287 5.72461C98.5531 6.3763 98.8652 7.26042 98.8652 8.37695C98.8652 9.22461 98.708 9.9196 98.3936 10.4619C98.0791 11.0042 97.7054 11.4235 97.2725 11.7197C96.8441 12.016 96.2585 12.1641 95.5156 12.1641C94.6543 12.1641 93.9844 11.9681 93.5059 11.5762C93.0273 11.1797 92.6605 10.6738 92.4053 10.0586C92.1501 9.44336 92.0225 8.3724 92.0225 6.8457C92.0225 4.92708 92.346 3.63509 92.9932 2.96973C93.6449 2.30436 94.6452 1.97168 95.9941 1.97168C96.8327 1.97168 97.3089 1.95801 97.4229 1.93066C97.5368 1.90332 97.6097 1.83952 97.6416 1.73926ZM97.5801 8.34277C97.5801 7.58626 97.4001 6.96647 97.04 6.4834C96.6846 6.00033 96.181 5.75879 95.5293 5.75879C94.8503 5.75879 94.3262 6.014 93.957 6.52441C93.5879 7.03483 93.4033 7.71615 93.4033 8.56836C93.4033 9.41146 93.6061 10.0563 94.0117 10.5029C94.4219 10.9495 94.9255 11.1729 95.5225 11.1729C96.1331 11.1729 96.6276 10.9154 97.0059 10.4004C97.3887 9.88086 97.5801 9.19499 97.5801 8.34277ZM99.9795 14.7959L99.8428 13.6406C100.112 13.7135 100.346 13.75 100.547 13.75C100.82 13.75 101.039 13.7044 101.203 13.6133C101.367 13.5221 101.502 13.3945 101.606 13.2305C101.684 13.1074 101.809 12.8021 101.982 12.3145C102.005 12.2461 102.042 12.1458 102.092 12.0137L99.3369 4.74023H100.663L102.174 8.94434C102.37 9.47754 102.545 10.0381 102.7 10.626C102.841 10.0609 103.01 9.50944 103.206 8.97168L104.758 4.74023H105.988L103.227 12.123C102.93 12.9206 102.7 13.4697 102.536 13.7705C102.317 14.1761 102.067 14.4723 101.784 14.6592C101.502 14.8506 101.164 14.9463 100.772 14.9463C100.535 14.9463 100.271 14.8962 99.9795 14.7959ZM106.87 14.7822V4.74023H107.991V5.68359C108.256 5.31445 108.554 5.03874 108.887 4.85645C109.219 4.6696 109.623 4.57617 110.097 4.57617C110.716 4.57617 111.263 4.73568 111.737 5.05469C112.211 5.3737 112.569 5.82487 112.811 6.4082C113.052 6.98698 113.173 7.62272 113.173 8.31543C113.173 9.05827 113.038 9.72819 112.77 10.3252C112.505 10.9176 112.118 11.3734 111.607 11.6924C111.102 12.0068 110.568 12.1641 110.008 12.1641C109.598 12.1641 109.229 12.0775 108.9 11.9043C108.577 11.7311 108.31 11.5124 108.101 11.248V14.7822H106.87ZM107.984 8.41113C107.984 9.34538 108.174 10.0358 108.552 10.4824C108.93 10.929 109.388 11.1523 109.926 11.1523C110.473 11.1523 110.94 10.9222 111.327 10.4619C111.719 9.99707 111.915 9.2793 111.915 8.30859C111.915 7.38346 111.724 6.69076 111.341 6.23047C110.963 5.77018 110.509 5.54004 109.98 5.54004C109.456 5.54004 108.992 5.78613 108.586 6.27832C108.185 6.76595 107.984 7.47689 107.984 8.41113ZM114.67 4.74023H118.847V5.75879H115.9V12H114.67V4.74023Z" fill="white"/>
<g filter="url(#filter1_d_5088_63189)">
<circle cx="64" cy="21" r="2" fill="#0C99CF"/>
<circle cx="64" cy="21" r="2.5" stroke="white"/>
</g>
<defs>
<filter id="filter0_d_5088_63189" x="473.163" y="373.388" width="13.6731" height="13.6731" filterUnits="userSpaceOnUse" color-interpolation-filters="sRGB">
<feFlood flood-opacity="0" result="BackgroundImageFix"/>
<feColorMatrix in="SourceAlpha" type="matrix" values="0 0 0 0 0 0 0 0 0 0 0 0 0 0 0 0 0 0 127 0" result="hardAlpha"/>
<feOffset dy="1.22437"/>
<feGaussianBlur stdDeviation="0.918278"/>
<feColorMatrix type="matrix" values="0 0 0 0 0 0 0 0 0 0 0 0 0 0 0 0 0 0 0.2 0"/>
<feBlend mode="normal" in2="BackgroundImageFix" result="effect1_dropShadow_5088_63189"/>
<feBlend mode="normal" in="SourceGraphic" in2="effect1_dropShadow_5088_63189" result="shape"/>
</filter>
<filter id="filter1_d_5088_63189" x="59.1634" y="17.3878" width="9.67311" height="9.67311" filterUnits="userSpaceOnUse" color-interpolation-filters="sRGB">
<feFlood flood-opacity="0" result="BackgroundImageFix"/>
<feColorMatrix in="SourceAlpha" type="matrix" values="0 0 0 0 0 0 0 0 0 0 0 0 0 0 0 0 0 0 127 0" result="hardAlpha"/>
<feOffset dy="1.22437"/>
<feGaussianBlur stdDeviation="0.918278"/>
<feColorMatrix type="matrix" values="0 0 0 0 0 0 0 0 0 0 0 0 0 0 0 0 0 0 0.2 0"/>
<feBlend mode="normal" in2="BackgroundImageFix" result="effect1_dropShadow_5088_63189"/>
<feBlend mode="normal" in="SourceGraphic" in2="effect1_dropShadow_5088_63189" result="shape"/>
</filter>
</defs>
</svg>
