<svg width="460" height="331" viewBox="0 0 460 331" fill="none" xmlns="http://www.w3.org/2000/svg">
<path d="M399.751 316.5L399.916 316.972L400.1 316.907L400.192 316.735L399.751 316.5ZM419.499 279.5L419.94 279.735L420.21 279.231L419.673 279.031L419.499 279.5ZM397.999 271.5L397.505 271.575L397.549 271.866L397.825 271.968L397.999 271.5ZM392.999 238.5L393.493 238.425L393.479 238.333L393.433 238.252L392.999 238.5ZM376.999 210.5L377.433 210.252L377.346 210.099L377.182 210.034L376.999 210.5ZM351.499 200.5L351.682 200.034L351.417 199.931L351.193 200.105L351.499 200.5ZM324 221.844L323.776 222.291L324.058 222.432L324.307 222.239L324 221.844ZM271.453 195.557L271.082 195.223L270.643 195.711L271.23 196.005L271.453 195.557ZM276 190.5L276.372 190.834L276.52 190.669L276.497 190.449L276 190.5ZM271.453 146L271.951 145.949L271.932 145.763L271.796 145.635L271.453 146ZM247.5 123.5L247.842 123.135L247.677 122.98L247.451 123.002L247.5 123.5ZM189.928 129.221L189.715 129.673L189.84 129.732L189.977 129.719L189.928 129.221ZM147 109L146.506 109.076L146.546 109.339L146.787 109.452L147 109ZM136.999 43.9996L137.493 43.9235L137.445 43.6086L137.139 43.5195L136.999 43.9996ZM58.141 20.5195C57.8758 20.4423 57.5983 20.5947 57.5211 20.8598C57.4439 21.1249 57.5963 21.4024 57.8614 21.4796L58.141 20.5195ZM58.8019 21.7534C59.067 21.8306 59.3445 21.6783 59.4217 21.4131C59.4989 21.148 59.3466 20.8705 59.0814 20.7933L58.8019 21.7534ZM62.8432 21.8886C62.5781 21.8114 62.3006 21.9637 62.2234 22.2288C62.1462 22.494 62.2986 22.7715 62.5637 22.8487L62.8432 21.8886ZM64.4446 23.3963C64.7097 23.4735 64.9872 23.3211 65.0644 23.056C65.1416 22.7909 64.9893 22.5134 64.7241 22.4362L64.4446 23.3963ZM68.486 23.5314C68.2208 23.4542 67.9433 23.6066 67.8661 23.8717C67.7889 24.1368 67.9413 24.4143 68.2064 24.4915L68.486 23.5314ZM70.0873 25.0392C70.3525 25.1164 70.63 24.964 70.7072 24.6989C70.7843 24.4337 70.632 24.1562 70.3669 24.079L70.0873 25.0392ZM74.1287 25.1743C73.8635 25.0971 73.586 25.2494 73.5088 25.5146C73.4316 25.7797 73.584 26.0572 73.8491 26.1344L74.1287 25.1743ZM75.73 26.682C75.9952 26.7592 76.2727 26.6069 76.3499 26.3417C76.4271 26.0766 76.2747 25.7991 76.0096 25.7219L75.73 26.682ZM79.7714 26.8171C79.5063 26.7399 79.2287 26.8923 79.1516 27.1574C79.0744 27.4226 79.2267 27.7001 79.4918 27.7773L79.7714 26.8171ZM81.3728 28.3249C81.6379 28.4021 81.9154 28.2497 81.9926 27.9846C82.0698 27.7194 81.9174 27.4419 81.6523 27.3647L81.3728 28.3249ZM85.4141 28.46C85.149 28.3828 84.8715 28.5351 84.7943 28.8003C84.7171 29.0654 84.8694 29.3429 85.1346 29.4201L85.4141 28.46ZM87.0155 29.9677C87.2806 30.0449 87.5581 29.8926 87.6353 29.6274C87.7125 29.3623 87.5601 29.0848 87.295 29.0076L87.0155 29.9677ZM91.0568 30.1028C90.7917 30.0256 90.5142 30.178 90.437 30.4431C90.3598 30.7083 90.5122 30.9858 90.7773 31.063L91.0568 30.1028ZM92.6582 31.6106C92.9233 31.6878 93.2008 31.5354 93.278 31.2703C93.3552 31.0052 93.2029 30.7277 92.9377 30.6505L92.6582 31.6106ZM96.6995 31.7457C96.4344 31.6685 96.1569 31.8209 96.0797 32.086C96.0025 32.3511 96.1549 32.6286 96.42 32.7058L96.6995 31.7457ZM98.3009 33.2534C98.566 33.3306 98.8436 33.1783 98.9207 32.9132C98.9979 32.648 98.8456 32.3705 98.5804 32.2933L98.3009 33.2534ZM102.342 33.3886C102.077 33.3114 101.8 33.4637 101.722 33.7288C101.645 33.994 101.798 34.2715 102.063 34.3487L102.342 33.3886ZM103.944 34.8963C104.209 34.9735 104.486 34.8211 104.563 34.556C104.641 34.2909 104.488 34.0134 104.223 33.9362L103.944 34.8963ZM107.985 35.0314C107.72 34.9542 107.442 35.1066 107.365 35.3717C107.288 35.6368 107.44 35.9144 107.705 35.9915L107.985 35.0314ZM109.586 36.5392C109.851 36.6164 110.129 36.464 110.206 36.1989C110.283 35.9337 110.131 35.6562 109.866 35.579L109.586 36.5392ZM113.628 36.6743C113.363 36.5971 113.085 36.7494 113.008 37.0146C112.931 37.2797 113.083 37.5572 113.348 37.6344L113.628 36.6743ZM115.229 38.182C115.494 38.2592 115.772 38.1069 115.849 37.8417C115.926 37.5766 115.774 37.2991 115.509 37.2219L115.229 38.182ZM119.27 38.3171C119.005 38.2399 118.728 38.3923 118.651 38.6574C118.573 38.9226 118.726 39.2001 118.991 39.2773L119.27 38.3171ZM120.872 39.8249C121.137 39.9021 121.414 39.7497 121.492 39.4846C121.569 39.2194 121.416 38.9419 121.151 38.8647L120.872 39.8249ZM124.913 39.96C124.648 39.8828 124.37 40.0351 124.293 40.3003C124.216 40.5654 124.368 40.8429 124.634 40.9201L124.913 39.96ZM126.514 41.4677C126.78 41.5449 127.057 41.3926 127.134 41.1274C127.212 40.8623 127.059 40.5848 126.794 40.5076L126.514 41.4677ZM130.556 41.6028C130.291 41.5256 130.013 41.678 129.936 41.9431C129.859 42.2083 130.011 42.4858 130.276 42.563L130.556 41.6028ZM132.157 43.1106C132.422 43.1878 132.7 43.0354 132.777 42.7703C132.854 42.5052 132.702 42.2276 132.437 42.1505L132.157 43.1106ZM136.199 43.2457C135.933 43.1685 135.656 43.3209 135.579 43.586C135.502 43.8511 135.654 44.1286 135.919 44.2058L136.199 43.2457ZM136.657 45.0605C136.699 45.3334 136.954 45.5206 137.227 45.4786C137.5 45.4366 137.687 45.1813 137.645 44.9084L136.657 45.0605ZM138.251 48.8478C138.209 48.5749 137.954 48.3876 137.681 48.4296C137.408 48.4716 137.221 48.7269 137.263 48.9999L138.251 48.8478ZM137.566 50.9696C137.608 51.2425 137.863 51.4297 138.136 51.3877C138.409 51.3457 138.596 51.0904 138.554 50.8175L137.566 50.9696ZM139.16 54.7569C139.118 54.484 138.863 54.2968 138.59 54.3387C138.317 54.3807 138.13 54.636 138.172 54.909L139.16 54.7569ZM138.475 56.8787C138.517 57.1516 138.772 57.3388 139.045 57.2968C139.318 57.2548 139.505 56.9995 139.463 56.7266L138.475 56.8787ZM140.069 60.666C140.027 60.3931 139.772 60.2059 139.499 60.2479C139.226 60.2898 139.039 60.5451 139.081 60.8181L140.069 60.666ZM139.384 62.7878C139.426 63.0607 139.681 63.2479 139.954 63.2059C140.227 63.1639 140.414 62.9086 140.372 62.6357L139.384 62.7878ZM140.979 66.5751C140.937 66.3022 140.681 66.115 140.408 66.157C140.135 66.199 139.948 66.4542 139.99 66.7272L140.979 66.5751ZM140.293 68.6969C140.335 68.9698 140.59 69.157 140.863 69.115C141.136 69.073 141.324 68.8177 141.282 68.5448L140.293 68.6969ZM141.888 72.4842C141.846 72.2113 141.59 72.0241 141.317 72.0661C141.045 72.1081 140.857 72.3634 140.899 72.6363L141.888 72.4842ZM141.202 74.606C141.244 74.8789 141.5 75.0661 141.773 75.0241C142.046 74.9821 142.233 74.7269 142.191 74.4539L141.202 74.606ZM142.797 78.3933C142.755 78.1204 142.5 77.9332 142.227 77.9752C141.954 78.0172 141.766 78.2725 141.808 78.5454L142.797 78.3933ZM142.112 80.5151C142.154 80.788 142.409 80.9752 142.682 80.9332C142.955 80.8913 143.142 80.636 143.1 80.363L142.112 80.5151ZM143.706 84.3024C143.664 84.0295 143.409 83.8423 143.136 83.8843C142.863 83.9263 142.676 84.1816 142.718 84.4545L143.706 84.3024ZM143.021 86.4242C143.063 86.6971 143.318 86.8843 143.591 86.8424C143.864 86.8004 144.051 86.5451 144.009 86.2721L143.021 86.4242ZM144.615 90.2115C144.573 89.9386 144.318 89.7514 144.045 89.7934C143.772 89.8354 143.585 90.0907 143.627 90.3636L144.615 90.2115ZM143.93 92.3333C143.972 92.6062 144.227 92.7935 144.5 92.7515C144.773 92.7095 144.96 92.4542 144.918 92.1812L143.93 92.3333ZM145.524 96.1206C145.482 95.8477 145.227 95.6605 144.954 95.7025C144.681 95.7445 144.494 95.9998 144.536 96.2727L145.524 96.1206ZM144.839 98.2424C144.881 98.5154 145.136 98.7026 145.409 98.6606C145.682 98.6186 145.869 98.3633 145.827 98.0904L144.839 98.2424ZM146.433 102.03C146.391 101.757 146.136 101.57 145.863 101.612C145.59 101.654 145.403 101.909 145.445 102.182L146.433 102.03ZM145.748 104.152C145.79 104.424 146.045 104.612 146.318 104.57C146.591 104.528 146.779 104.272 146.737 103.999L145.748 104.152ZM147.343 107.939C147.301 107.666 147.045 107.479 146.772 107.521C146.499 107.563 146.312 107.818 146.354 108.091L147.343 107.939ZM147.681 109.873C147.931 109.991 148.229 109.884 148.347 109.634C148.464 109.384 148.357 109.086 148.107 108.969L147.681 109.873ZM151.685 110.654C151.435 110.536 151.137 110.643 151.019 110.893C150.902 111.143 151.009 111.441 151.259 111.558L151.685 110.654ZM153.047 112.401C153.297 112.519 153.595 112.412 153.713 112.162C153.83 111.912 153.723 111.614 153.473 111.496L153.047 112.401ZM157.051 113.181C156.801 113.064 156.503 113.171 156.385 113.421C156.268 113.671 156.375 113.968 156.624 114.086L157.051 113.181ZM158.413 114.929C158.663 115.046 158.961 114.939 159.079 114.689C159.196 114.44 159.089 114.142 158.839 114.024L158.413 114.929ZM162.417 115.709C162.167 115.591 161.869 115.699 161.751 115.948C161.633 116.198 161.741 116.496 161.99 116.614L162.417 115.709ZM163.779 117.456C164.029 117.574 164.327 117.467 164.444 117.217C164.562 116.967 164.455 116.669 164.205 116.552L163.779 117.456ZM167.783 118.237C167.533 118.119 167.235 118.226 167.117 118.476C166.999 118.726 167.107 119.024 167.356 119.141L167.783 118.237ZM169.145 119.984C169.395 120.102 169.693 119.995 169.81 119.745C169.928 119.495 169.821 119.197 169.571 119.079L169.145 119.984ZM173.148 120.764C172.899 120.647 172.601 120.754 172.483 121.004C172.365 121.253 172.473 121.551 172.722 121.669L173.148 120.764ZM174.511 122.512C174.761 122.629 175.059 122.522 175.176 122.272C175.294 122.023 175.187 121.725 174.937 121.607L174.511 122.512ZM178.514 123.292C178.265 123.174 177.967 123.282 177.849 123.531C177.731 123.781 177.838 124.079 178.088 124.197L178.514 123.292ZM179.877 125.039C180.127 125.157 180.425 125.05 180.542 124.8C180.66 124.55 180.553 124.252 180.303 124.135L179.877 125.039ZM183.88 125.82C183.631 125.702 183.333 125.809 183.215 126.059C183.097 126.309 183.204 126.607 183.454 126.724L183.88 125.82ZM185.243 127.567C185.493 127.685 185.791 127.577 185.908 127.328C186.026 127.078 185.919 126.78 185.669 126.662L185.243 127.567ZM189.246 128.347C188.997 128.23 188.699 128.337 188.581 128.587C188.463 128.836 188.57 129.134 188.82 129.252L189.246 128.347ZM190.937 129.623C191.211 129.596 191.412 129.351 191.385 129.076C191.357 128.801 191.112 128.601 190.838 128.628L190.937 129.623ZM194.676 128.247C194.401 128.274 194.2 128.519 194.228 128.794C194.255 129.068 194.5 129.269 194.775 129.242L194.676 128.247ZM196.694 129.051C196.969 129.024 197.169 128.779 197.142 128.504C197.115 128.229 196.87 128.029 196.595 128.056L196.694 129.051ZM200.433 127.675C200.158 127.702 199.958 127.947 199.985 128.222C200.012 128.496 200.257 128.697 200.532 128.67L200.433 127.675ZM202.451 128.479C202.726 128.452 202.926 128.207 202.899 127.932C202.872 127.657 202.627 127.456 202.352 127.484L202.451 128.479ZM206.19 127.102C205.916 127.13 205.715 127.375 205.742 127.649C205.77 127.924 206.014 128.125 206.289 128.097L206.19 127.102ZM208.208 127.907C208.483 127.879 208.684 127.635 208.656 127.36C208.629 127.085 208.384 126.884 208.109 126.912L208.208 127.907ZM211.948 126.53C211.673 126.558 211.472 126.802 211.499 127.077C211.527 127.352 211.772 127.553 212.046 127.525L211.948 126.53ZM213.966 127.335C214.24 127.307 214.441 127.062 214.414 126.788C214.386 126.513 214.141 126.312 213.867 126.34L213.966 127.335ZM217.705 125.958C217.43 125.985 217.229 126.23 217.257 126.505C217.284 126.78 217.529 126.98 217.804 126.953L217.705 125.958ZM219.723 126.762C219.998 126.735 220.198 126.49 220.171 126.215C220.144 125.941 219.899 125.74 219.624 125.767L219.723 126.762ZM223.462 125.386C223.187 125.413 222.987 125.658 223.014 125.933C223.041 126.208 223.286 126.408 223.561 126.381L223.462 125.386ZM225.48 126.19C225.755 126.163 225.955 125.918 225.928 125.643C225.901 125.369 225.656 125.168 225.381 125.195L225.48 126.19ZM229.219 124.814C228.945 124.841 228.744 125.086 228.771 125.361C228.799 125.636 229.043 125.836 229.318 125.809L229.219 124.814ZM231.237 125.618C231.512 125.591 231.713 125.346 231.685 125.071C231.658 124.796 231.413 124.596 231.138 124.623L231.237 125.618ZM234.977 124.242C234.702 124.269 234.501 124.514 234.528 124.789C234.556 125.063 234.801 125.264 235.075 125.237L234.977 124.242ZM236.995 125.046C237.269 125.019 237.47 124.774 237.443 124.499C237.415 124.224 237.17 124.024 236.896 124.051L236.995 125.046ZM240.734 123.67C240.459 123.697 240.258 123.942 240.286 124.217C240.313 124.491 240.558 124.692 240.833 124.665L240.734 123.67ZM242.752 124.474C243.027 124.447 243.227 124.202 243.2 123.927C243.173 123.652 242.928 123.452 242.653 123.479L242.752 124.474ZM246.491 123.097C246.216 123.125 246.016 123.37 246.043 123.644C246.07 123.919 246.315 124.12 246.59 124.092L246.491 123.097ZM247.956 124.614C248.157 124.803 248.474 124.793 248.663 124.592C248.852 124.391 248.842 124.074 248.641 123.885L247.956 124.614ZM251.835 126.885C251.633 126.696 251.317 126.706 251.128 126.907C250.939 127.109 250.949 127.425 251.15 127.614L251.835 126.885ZM252.747 129.114C252.948 129.303 253.265 129.293 253.454 129.092C253.643 128.891 253.633 128.574 253.431 128.385L252.747 129.114ZM256.625 131.385C256.424 131.196 256.108 131.206 255.918 131.407C255.729 131.609 255.739 131.925 255.941 132.114L256.625 131.385ZM257.538 133.614C257.739 133.803 258.055 133.793 258.244 133.592C258.433 133.391 258.423 133.074 258.222 132.885L257.538 133.614ZM261.416 135.885C261.215 135.696 260.898 135.706 260.709 135.907C260.52 136.109 260.53 136.425 260.731 136.614L261.416 135.885ZM262.328 138.114C262.529 138.303 262.846 138.293 263.035 138.092C263.224 137.891 263.214 137.574 263.013 137.385L262.328 138.114ZM266.207 140.385C266.005 140.196 265.689 140.206 265.5 140.407C265.311 140.609 265.321 140.925 265.522 141.114L266.207 140.385ZM267.119 142.614C267.32 142.803 267.637 142.793 267.826 142.592C268.015 142.391 268.005 142.074 267.803 141.885L267.119 142.614ZM270.997 144.885C270.796 144.696 270.48 144.706 270.29 144.907C270.101 145.109 270.111 145.425 270.313 145.614L270.997 144.885ZM271.064 147.11C271.092 147.385 271.338 147.585 271.612 147.557C271.887 147.528 272.087 147.283 272.059 147.008L271.064 147.11ZM272.492 151.246C272.464 150.972 272.219 150.772 271.944 150.8C271.669 150.828 271.469 151.073 271.497 151.348L272.492 151.246ZM271.714 153.467C271.742 153.742 271.987 153.942 272.262 153.914C272.537 153.886 272.737 153.64 272.709 153.365L271.714 153.467ZM273.142 157.604C273.113 157.329 272.868 157.129 272.593 157.157C272.319 157.185 272.119 157.431 272.147 157.705L273.142 157.604ZM272.363 159.824C272.391 160.099 272.637 160.299 272.911 160.271C273.186 160.243 273.386 159.997 273.358 159.723L272.363 159.824ZM273.791 163.961C273.763 163.686 273.518 163.486 273.243 163.514C272.968 163.542 272.768 163.788 272.796 164.062L273.791 163.961ZM273.013 166.181C273.041 166.456 273.286 166.656 273.561 166.628C273.836 166.6 274.036 166.355 274.008 166.08L273.013 166.181ZM274.441 170.318C274.413 170.043 274.167 169.843 273.892 169.871C273.618 169.899 273.418 170.145 273.446 170.42L274.441 170.318ZM273.662 172.539C273.69 172.813 273.936 173.013 274.211 172.985C274.485 172.957 274.685 172.712 274.657 172.437L273.662 172.539ZM275.09 176.675C275.062 176.4 274.817 176.2 274.542 176.229C274.267 176.257 274.067 176.502 274.095 176.777L275.09 176.675ZM274.312 178.896C274.34 179.171 274.585 179.37 274.86 179.342C275.135 179.314 275.335 179.069 275.307 178.794L274.312 178.896ZM275.74 183.032C275.712 182.758 275.466 182.558 275.191 182.586C274.917 182.614 274.717 182.859 274.745 183.134L275.74 183.032ZM274.961 185.253C274.989 185.528 275.235 185.728 275.51 185.7C275.784 185.672 275.984 185.426 275.956 185.151L274.961 185.253ZM276.389 189.389C276.361 189.115 276.116 188.915 275.841 188.943C275.566 188.971 275.366 189.216 275.394 189.491L276.389 189.389ZM274.87 191.008C274.686 191.214 274.703 191.53 274.908 191.715C275.113 191.899 275.429 191.882 275.614 191.677L274.87 191.008ZM272.583 195.049C272.768 194.843 272.751 194.527 272.545 194.343C272.34 194.158 272.024 194.175 271.839 194.38L272.583 195.049ZM272.105 196.443C272.352 196.566 272.653 196.466 272.776 196.219C272.9 195.972 272.8 195.672 272.553 195.548L272.105 196.443ZM276.056 197.301C275.809 197.177 275.509 197.277 275.385 197.524C275.262 197.771 275.362 198.072 275.609 198.195L276.056 197.301ZM277.36 199.071C277.607 199.195 277.907 199.095 278.031 198.848C278.155 198.601 278.054 198.3 277.808 198.177L277.36 199.071ZM281.311 199.929C281.064 199.806 280.763 199.906 280.64 200.153C280.516 200.4 280.616 200.7 280.863 200.824L281.311 199.929ZM282.615 201.7C282.862 201.823 283.162 201.723 283.286 201.476C283.409 201.229 283.309 200.929 283.062 200.806L282.615 201.7ZM286.565 202.558C286.318 202.434 286.018 202.535 285.894 202.781C285.771 203.028 285.871 203.329 286.118 203.452L286.565 202.558ZM287.869 204.329C288.116 204.452 288.417 204.352 288.54 204.105C288.664 203.858 288.564 203.558 288.317 203.434L287.869 204.329ZM291.82 205.187C291.573 205.063 291.273 205.163 291.149 205.41C291.026 205.657 291.126 205.957 291.373 206.081L291.82 205.187ZM293.124 206.957C293.371 207.081 293.671 206.981 293.795 206.734C293.919 206.487 293.818 206.186 293.571 206.063L293.124 206.957ZM297.075 207.815C296.828 207.692 296.527 207.792 296.404 208.039C296.28 208.286 296.38 208.586 296.627 208.71L297.075 207.815ZM298.379 209.586C298.626 209.709 298.926 209.609 299.05 209.362C299.173 209.115 299.073 208.815 298.826 208.692L298.379 209.586ZM302.329 210.444C302.082 210.32 301.782 210.421 301.658 210.667C301.535 210.914 301.635 211.215 301.882 211.338L302.329 210.444ZM303.633 212.215C303.88 212.338 304.181 212.238 304.304 211.991C304.428 211.744 304.328 211.444 304.081 211.32L303.633 212.215ZM307.584 213.073C307.337 212.949 307.037 213.049 306.913 213.296C306.789 213.543 306.89 213.843 307.136 213.967L307.584 213.073ZM308.888 214.843C309.135 214.967 309.435 214.867 309.559 214.62C309.682 214.373 309.582 214.072 309.335 213.949L308.888 214.843ZM312.839 215.701C312.592 215.578 312.291 215.678 312.168 215.925C312.044 216.172 312.144 216.472 312.391 216.596L312.839 215.701ZM314.143 217.472C314.39 217.595 314.69 217.495 314.814 217.248C314.937 217.001 314.837 216.701 314.59 216.578L314.143 217.472ZM318.093 218.33C317.846 218.206 317.546 218.306 317.422 218.553C317.299 218.8 317.399 219.101 317.646 219.224L318.093 218.33ZM319.397 220.101C319.644 220.224 319.945 220.124 320.068 219.877C320.192 219.63 320.092 219.33 319.845 219.206L319.397 220.101ZM323.348 220.959C323.101 220.835 322.801 220.935 322.677 221.182C322.553 221.429 322.653 221.729 322.9 221.853L323.348 220.959ZM325.07 221.646C325.289 221.477 325.328 221.163 325.159 220.944C324.989 220.726 324.675 220.687 324.457 220.856L325.07 221.646ZM327.513 218.484C327.295 218.654 327.255 218.968 327.424 219.186C327.594 219.404 327.908 219.444 328.126 219.274L327.513 218.484ZM329.654 218.089C329.872 217.919 329.911 217.605 329.742 217.387C329.573 217.169 329.259 217.129 329.04 217.299L329.654 218.089ZM332.096 214.927C331.878 215.096 331.838 215.411 332.007 215.629C332.177 215.847 332.491 215.886 332.709 215.717L332.096 214.927ZM334.237 214.531C334.455 214.362 334.494 214.048 334.325 213.83C334.156 213.612 333.842 213.572 333.624 213.741L334.237 214.531ZM336.679 211.37C336.461 211.539 336.421 211.853 336.591 212.071C336.76 212.289 337.074 212.329 337.292 212.16L336.679 211.37ZM338.82 210.974C339.038 210.805 339.078 210.491 338.908 210.272C338.739 210.054 338.425 210.015 338.207 210.184L338.82 210.974ZM341.262 207.812C341.044 207.982 341.005 208.296 341.174 208.514C341.343 208.732 341.657 208.772 341.875 208.602L341.262 207.812ZM343.403 207.417C343.621 207.247 343.661 206.933 343.492 206.715C343.322 206.497 343.008 206.457 342.79 206.627L343.403 207.417ZM345.845 204.255C345.627 204.424 345.588 204.739 345.757 204.957C345.926 205.175 346.24 205.214 346.459 205.045L345.845 204.255ZM347.986 203.859C348.205 203.69 348.244 203.376 348.075 203.158C347.905 202.94 347.591 202.9 347.373 203.069L347.986 203.859ZM350.429 200.698C350.211 200.867 350.171 201.181 350.34 201.399C350.51 201.617 350.824 201.657 351.042 201.488L350.429 200.698ZM352.167 201.299C352.424 201.399 352.714 201.273 352.815 201.016C352.915 200.759 352.789 200.469 352.532 200.368L352.167 201.299ZM355.932 201.701C355.675 201.6 355.384 201.727 355.284 201.984C355.183 202.241 355.309 202.531 355.567 202.632L355.932 201.701ZM357.267 203.299C357.524 203.399 357.814 203.273 357.915 203.016C358.015 202.759 357.889 202.469 357.632 202.368L357.267 203.299ZM361.032 203.701C360.775 203.6 360.484 203.727 360.384 203.984C360.283 204.241 360.409 204.531 360.667 204.632L361.032 203.701ZM362.367 205.299C362.624 205.399 362.914 205.273 363.015 205.016C363.115 204.759 362.989 204.469 362.732 204.368L362.367 205.299ZM366.132 205.701C365.875 205.6 365.584 205.727 365.484 205.984C365.383 206.241 365.509 206.531 365.767 206.632L366.132 205.701ZM367.467 207.299C367.724 207.399 368.014 207.273 368.115 207.016C368.215 206.759 368.089 206.469 367.832 206.368L367.467 207.299ZM371.232 207.701C370.975 207.6 370.684 207.727 370.584 207.984C370.483 208.241 370.609 208.531 370.867 208.632L371.232 207.701ZM372.567 209.299C372.824 209.399 373.114 209.273 373.215 209.016C373.315 208.759 373.189 208.469 372.932 208.368L372.567 209.299ZM376.332 209.701C376.075 209.6 375.784 209.727 375.684 209.984C375.583 210.241 375.709 210.531 375.967 210.632L376.332 209.701ZM377.098 211.681C377.235 211.921 377.541 212.004 377.781 211.867C378.02 211.73 378.104 211.425 377.967 211.185L377.098 211.681ZM380.1 214.918C379.963 214.679 379.657 214.595 379.418 214.732C379.178 214.869 379.095 215.175 379.232 215.415L380.1 214.918ZM380.298 217.281C380.435 217.521 380.741 217.604 380.981 217.467C381.22 217.33 381.304 217.025 381.167 216.785L380.298 217.281ZM383.3 220.518C383.163 220.279 382.857 220.195 382.618 220.332C382.378 220.469 382.295 220.775 382.432 221.015L383.3 220.518ZM383.498 222.881C383.635 223.121 383.941 223.204 384.181 223.067C384.42 222.93 384.504 222.625 384.367 222.385L383.498 222.881ZM386.5 226.118C386.363 225.879 386.057 225.795 385.818 225.932C385.578 226.069 385.495 226.375 385.632 226.615L386.5 226.118ZM386.698 228.481C386.835 228.721 387.141 228.804 387.381 228.667C387.62 228.53 387.704 228.225 387.567 227.985L386.698 228.481ZM389.7 231.718C389.563 231.479 389.257 231.395 389.018 231.532C388.778 231.669 388.695 231.975 388.832 232.215L389.7 231.718ZM389.898 234.081C390.035 234.321 390.341 234.404 390.581 234.267C390.82 234.13 390.904 233.825 390.767 233.585L389.898 234.081ZM392.9 237.318C392.763 237.079 392.457 236.995 392.218 237.132C391.978 237.269 391.895 237.575 392.032 237.815L392.9 237.318ZM392.644 239.491C392.685 239.764 392.94 239.952 393.213 239.911C393.486 239.869 393.674 239.615 393.632 239.342L392.644 239.491ZM394.188 243.008C394.147 242.735 393.892 242.547 393.619 242.589C393.346 242.63 393.158 242.885 393.199 243.158L394.188 243.008ZM393.477 244.991C393.518 245.264 393.773 245.452 394.046 245.411C394.319 245.37 394.507 245.115 394.466 244.842L393.477 244.991ZM395.021 248.508C394.98 248.235 394.725 248.047 394.452 248.089C394.179 248.13 393.991 248.385 394.033 248.658L395.021 248.508ZM394.31 250.491C394.352 250.764 394.607 250.952 394.88 250.911C395.153 250.87 395.34 250.615 395.299 250.342L394.31 250.491ZM395.855 254.008C395.813 253.735 395.558 253.547 395.285 253.589C395.012 253.63 394.825 253.885 394.866 254.158L395.855 254.008ZM395.144 255.991C395.185 256.264 395.44 256.452 395.713 256.411C395.986 256.37 396.174 256.115 396.132 255.842L395.144 255.991ZM396.688 259.508C396.647 259.235 396.392 259.047 396.119 259.089C395.846 259.13 395.658 259.385 395.699 259.658L396.688 259.508ZM395.977 261.491C396.018 261.764 396.273 261.952 396.546 261.911C396.819 261.87 397.007 261.615 396.966 261.342L395.977 261.491ZM397.521 265.008C397.48 264.735 397.225 264.547 396.952 264.589C396.679 264.63 396.491 264.885 396.533 265.158L397.521 265.008ZM396.81 266.991C396.852 267.264 397.107 267.452 397.38 267.411C397.653 267.37 397.84 267.115 397.799 266.842L396.81 266.991ZM398.355 270.508C398.313 270.235 398.058 270.047 397.785 270.089C397.512 270.13 397.325 270.385 397.366 270.658L398.355 270.508ZM398.721 272.302C398.979 272.398 399.267 272.266 399.364 272.008C399.46 271.749 399.328 271.461 399.069 271.365L398.721 272.302ZM402.653 272.698C402.394 272.602 402.106 272.733 402.01 272.992C401.913 273.251 402.045 273.539 402.304 273.635L402.653 272.698ZM404.096 274.302C404.354 274.398 404.642 274.266 404.739 274.008C404.835 273.749 404.703 273.461 404.444 273.365L404.096 274.302ZM408.028 274.698C407.769 274.602 407.481 274.733 407.385 274.992C407.288 275.251 407.42 275.539 407.679 275.635L408.028 274.698ZM409.471 276.302C409.729 276.398 410.017 276.266 410.114 276.008C410.21 275.749 410.078 275.461 409.819 275.365L409.471 276.302ZM413.403 276.698C413.144 276.602 412.856 276.733 412.76 276.992C412.663 277.251 412.795 277.539 413.054 277.635L413.403 276.698ZM414.846 278.302C415.104 278.398 415.392 278.266 415.489 278.008C415.585 277.749 415.453 277.461 415.194 277.365L414.846 278.302ZM418.778 278.698C418.519 278.602 418.231 278.733 418.135 278.992C418.038 279.251 418.17 279.539 418.429 279.635L418.778 278.698ZM418.588 280.145C418.458 280.389 418.55 280.692 418.793 280.822C419.037 280.952 419.34 280.86 419.47 280.616L418.588 280.145ZM417.589 284.14C417.719 283.896 417.627 283.594 417.384 283.464C417.14 283.333 416.837 283.426 416.707 283.669L417.589 284.14ZM415.767 285.431C415.637 285.675 415.729 285.978 415.972 286.108C416.216 286.238 416.519 286.146 416.649 285.902L415.767 285.431ZM414.768 289.426C414.898 289.182 414.806 288.879 414.562 288.749C414.319 288.619 414.016 288.711 413.886 288.955L414.768 289.426ZM412.945 290.717C412.815 290.96 412.908 291.263 413.151 291.393C413.395 291.523 413.698 291.431 413.828 291.188L412.945 290.717ZM411.947 294.711C412.077 294.468 411.985 294.165 411.741 294.035C411.498 293.905 411.195 293.997 411.065 294.241L411.947 294.711ZM410.124 296.003C409.994 296.246 410.086 296.549 410.33 296.679C410.574 296.809 410.876 296.717 411.006 296.473L410.124 296.003ZM409.126 299.997C409.256 299.754 409.164 299.451 408.92 299.321C408.676 299.191 408.374 299.283 408.243 299.526L409.126 299.997ZM407.303 301.288C407.173 301.532 407.265 301.835 407.509 301.965C407.752 302.095 408.055 302.003 408.185 301.759L407.303 301.288ZM406.305 305.283C406.435 305.039 406.342 304.736 406.099 304.606C405.855 304.476 405.552 304.568 405.422 304.812L406.305 305.283ZM404.482 306.574C404.352 306.818 404.444 307.12 404.688 307.25C404.931 307.38 405.234 307.288 405.364 307.045L404.482 306.574ZM403.483 310.569C403.613 310.325 403.521 310.022 403.278 309.892C403.034 309.762 402.731 309.854 402.601 310.098L403.483 310.569ZM401.661 311.86C401.531 312.103 401.623 312.406 401.866 312.536C402.11 312.666 402.413 312.574 402.543 312.331L401.661 311.86ZM400.662 315.854C400.792 315.611 400.7 315.308 400.456 315.178C400.213 315.048 399.91 315.14 399.78 315.383L400.662 315.854ZM398.738 316.324C398.478 316.415 398.34 316.7 398.431 316.961C398.522 317.222 398.808 317.359 399.068 317.268L398.738 316.324ZM395.678 318.452C395.939 318.361 396.077 318.076 395.986 317.816C395.894 317.555 395.609 317.417 395.349 317.508L395.678 318.452ZM393.654 318.101C393.393 318.192 393.255 318.477 393.347 318.738C393.438 318.998 393.723 319.136 393.984 319.045L393.654 318.101ZM390.594 320.229C390.854 320.138 390.992 319.853 390.901 319.592C390.81 319.332 390.524 319.194 390.264 319.285L390.594 320.229ZM388.569 319.877C388.308 319.969 388.171 320.254 388.262 320.514C388.353 320.775 388.638 320.913 388.899 320.821L388.569 319.877ZM385.509 322.006C385.769 321.915 385.907 321.63 385.816 321.369C385.725 321.108 385.44 320.971 385.179 321.062L385.509 322.006ZM57.8614 21.4796L58.8019 21.7534L59.0814 20.7933L58.141 20.5195L57.8614 21.4796ZM62.5637 22.8487L64.4446 23.3963L64.7241 22.4362L62.8432 21.8886L62.5637 22.8487ZM68.2064 24.4915L70.0873 25.0392L70.3669 24.079L68.486 23.5314L68.2064 24.4915ZM73.8491 26.1344L75.73 26.682L76.0096 25.7219L74.1287 25.1743L73.8491 26.1344ZM79.4918 27.7773L81.3728 28.3249L81.6523 27.3647L79.7714 26.8171L79.4918 27.7773ZM85.1346 29.4201L87.0155 29.9677L87.295 29.0076L85.4141 28.46L85.1346 29.4201ZM90.7773 31.063L92.6582 31.6106L92.9377 30.6505L91.0568 30.1028L90.7773 31.063ZM96.42 32.7058L98.3009 33.2534L98.5804 32.2933L96.6995 31.7457L96.42 32.7058ZM102.063 34.3487L103.944 34.8963L104.223 33.9362L102.342 33.3886L102.063 34.3487ZM107.705 35.9915L109.586 36.5392L109.866 35.579L107.985 35.0314L107.705 35.9915ZM113.348 37.6344L115.229 38.182L115.509 37.2219L113.628 36.6743L113.348 37.6344ZM118.991 39.2773L120.872 39.8249L121.151 38.8647L119.27 38.3171L118.991 39.2773ZM124.634 40.9201L126.514 41.4677L126.794 40.5076L124.913 39.96L124.634 40.9201ZM130.276 42.563L132.157 43.1106L132.437 42.1505L130.556 41.6028L130.276 42.563ZM135.919 44.2058L136.859 44.4796L137.139 43.5195L136.199 43.2457L135.919 44.2058ZM136.505 44.0756L136.657 45.0605L137.645 44.9084L137.493 43.9235L136.505 44.0756ZM137.263 48.9999L137.566 50.9696L138.554 50.8175L138.251 48.8478L137.263 48.9999ZM138.172 54.909L138.475 56.8787L139.463 56.7266L139.16 54.7569L138.172 54.909ZM139.081 60.8181L139.384 62.7878L140.372 62.6357L140.069 60.666L139.081 60.8181ZM139.99 66.7272L140.293 68.6969L141.282 68.5448L140.979 66.5751L139.99 66.7272ZM140.899 72.6363L141.202 74.606L142.191 74.4539L141.888 72.4842L140.899 72.6363ZM141.808 78.5454L142.112 80.5151L143.1 80.363L142.797 78.3933L141.808 78.5454ZM142.718 84.4545L143.021 86.4242L144.009 86.2721L143.706 84.3024L142.718 84.4545ZM143.627 90.3636L143.93 92.3333L144.918 92.1812L144.615 90.2115L143.627 90.3636ZM144.536 96.2727L144.839 98.2424L145.827 98.0904L145.524 96.1206L144.536 96.2727ZM145.445 102.182L145.748 104.152L146.737 103.999L146.433 102.03L145.445 102.182ZM146.354 108.091L146.506 109.076L147.494 108.924L147.343 107.939L146.354 108.091ZM146.787 109.452L147.681 109.873L148.107 108.969L147.213 108.547L146.787 109.452ZM151.259 111.558L153.047 112.401L153.473 111.496L151.685 110.654L151.259 111.558ZM156.624 114.086L158.413 114.929L158.839 114.024L157.051 113.181L156.624 114.086ZM161.99 116.614L163.779 117.456L164.205 116.552L162.417 115.709L161.99 116.614ZM167.356 119.141L169.145 119.984L169.571 119.079L167.783 118.237L167.356 119.141ZM172.722 121.669L174.511 122.512L174.937 121.607L173.148 120.764L172.722 121.669ZM178.088 124.197L179.877 125.039L180.303 124.135L178.514 123.292L178.088 124.197ZM183.454 126.724L185.243 127.567L185.669 126.662L183.88 125.82L183.454 126.724ZM188.82 129.252L189.715 129.673L190.141 128.769L189.246 128.347L188.82 129.252ZM189.977 129.719L190.937 129.623L190.838 128.628L189.878 128.723L189.977 129.719ZM194.775 129.242L196.694 129.051L196.595 128.056L194.676 128.247L194.775 129.242ZM200.532 128.67L202.451 128.479L202.352 127.484L200.433 127.675L200.532 128.67ZM206.289 128.097L208.208 127.907L208.109 126.912L206.19 127.102L206.289 128.097ZM212.046 127.525L213.966 127.335L213.867 126.34L211.948 126.53L212.046 127.525ZM217.804 126.953L219.723 126.762L219.624 125.767L217.705 125.958L217.804 126.953ZM223.561 126.381L225.48 126.19L225.381 125.195L223.462 125.386L223.561 126.381ZM229.318 125.809L231.237 125.618L231.138 124.623L229.219 124.814L229.318 125.809ZM235.075 125.237L236.995 125.046L236.896 124.051L234.977 124.242L235.075 125.237ZM240.833 124.665L242.752 124.474L242.653 123.479L240.734 123.67L240.833 124.665ZM246.59 124.092L247.549 123.997L247.451 123.002L246.491 123.097L246.59 124.092ZM247.158 123.864L247.956 124.614L248.641 123.885L247.842 123.135L247.158 123.864ZM251.15 127.614L252.747 129.114L253.431 128.385L251.835 126.885L251.15 127.614ZM255.941 132.114L257.538 133.614L258.222 132.885L256.625 131.385L255.941 132.114ZM260.731 136.614L262.328 138.114L263.013 137.385L261.416 135.885L260.731 136.614ZM265.522 141.114L267.119 142.614L267.803 141.885L266.207 140.385L265.522 141.114ZM270.313 145.614L271.111 146.364L271.796 145.635L270.997 144.885L270.313 145.614ZM270.956 146.05L271.064 147.11L272.059 147.008L271.951 145.949L270.956 146.05ZM271.497 151.348L271.714 153.467L272.709 153.365L272.492 151.246L271.497 151.348ZM272.147 157.705L272.363 159.824L273.358 159.723L273.142 157.604L272.147 157.705ZM272.796 164.062L273.013 166.181L274.008 166.08L273.791 163.961L272.796 164.062ZM273.446 170.42L273.662 172.539L274.657 172.437L274.441 170.318L273.446 170.42ZM274.095 176.777L274.312 178.896L275.307 178.794L275.09 176.675L274.095 176.777ZM274.745 183.134L274.961 185.253L275.956 185.151L275.74 183.032L274.745 183.134ZM275.394 189.491L275.503 190.551L276.497 190.449L276.389 189.389L275.394 189.491ZM275.628 190.166L274.87 191.008L275.614 191.677L276.372 190.834L275.628 190.166ZM271.839 194.38L271.082 195.223L271.825 195.892L272.583 195.049L271.839 194.38ZM271.23 196.005L272.105 196.443L272.553 195.548L271.677 195.11L271.23 196.005ZM275.609 198.195L277.36 199.071L277.808 198.177L276.056 197.301L275.609 198.195ZM280.863 200.824L282.615 201.7L283.062 200.806L281.311 199.929L280.863 200.824ZM286.118 203.452L287.869 204.329L288.317 203.434L286.565 202.558L286.118 203.452ZM291.373 206.081L293.124 206.957L293.571 206.063L291.82 205.187L291.373 206.081ZM296.627 208.71L298.379 209.586L298.826 208.692L297.075 207.815L296.627 208.71ZM301.882 211.338L303.633 212.215L304.081 211.32L302.329 210.444L301.882 211.338ZM307.136 213.967L308.888 214.843L309.335 213.949L307.584 213.073L307.136 213.967ZM312.391 216.596L314.143 217.472L314.59 216.578L312.839 215.701L312.391 216.596ZM317.646 219.224L319.397 220.101L319.845 219.206L318.093 218.33L317.646 219.224ZM322.9 221.853L323.776 222.291L324.224 221.397L323.348 220.959L322.9 221.853ZM324.307 222.239L325.07 221.646L324.457 220.856L323.693 221.449L324.307 222.239ZM328.126 219.274L329.654 218.089L329.04 217.299L327.513 218.484L328.126 219.274ZM332.709 215.717L334.237 214.531L333.624 213.741L332.096 214.927L332.709 215.717ZM337.292 212.16L338.82 210.974L338.207 210.184L336.679 211.37L337.292 212.16ZM341.875 208.602L343.403 207.417L342.79 206.627L341.262 207.812L341.875 208.602ZM346.459 205.045L347.986 203.859L347.373 203.069L345.845 204.255L346.459 205.045ZM351.042 201.488L351.806 200.895L351.193 200.105L350.429 200.698L351.042 201.488ZM351.317 200.965L352.167 201.299L352.532 200.368L351.682 200.034L351.317 200.965ZM355.567 202.632L357.267 203.299L357.632 202.368L355.932 201.701L355.567 202.632ZM360.667 204.632L362.367 205.299L362.732 204.368L361.032 203.701L360.667 204.632ZM365.767 206.632L367.467 207.299L367.832 206.368L366.132 205.701L365.767 206.632ZM370.867 208.632L372.567 209.299L372.932 208.368L371.232 207.701L370.867 208.632ZM375.967 210.632L376.817 210.965L377.182 210.034L376.332 209.701L375.967 210.632ZM376.565 210.748L377.098 211.681L377.967 211.185L377.433 210.252L376.565 210.748ZM379.232 215.415L380.298 217.281L381.167 216.785L380.1 214.918L379.232 215.415ZM382.432 221.015L383.498 222.881L384.367 222.385L383.3 220.518L382.432 221.015ZM385.632 226.615L386.698 228.481L387.567 227.985L386.5 226.118L385.632 226.615ZM388.832 232.215L389.898 234.081L390.767 233.585L389.7 231.718L388.832 232.215ZM392.032 237.815L392.565 238.748L393.433 238.252L392.9 237.318L392.032 237.815ZM392.505 238.575L392.644 239.491L393.632 239.342L393.493 238.425L392.505 238.575ZM393.199 243.158L393.477 244.991L394.466 244.842L394.188 243.008L393.199 243.158ZM394.033 248.658L394.31 250.491L395.299 250.342L395.021 248.508L394.033 248.658ZM394.866 254.158L395.144 255.991L396.132 255.842L395.855 254.008L394.866 254.158ZM395.699 259.658L395.977 261.491L396.966 261.342L396.688 259.508L395.699 259.658ZM396.533 265.158L396.81 266.991L397.799 266.842L397.521 265.008L396.533 265.158ZM397.366 270.658L397.505 271.575L398.493 271.425L398.355 270.508L397.366 270.658ZM397.825 271.968L398.721 272.302L399.069 271.365L398.173 271.031L397.825 271.968ZM402.304 273.635L404.096 274.302L404.444 273.365L402.653 272.698L402.304 273.635ZM407.679 275.635L409.471 276.302L409.819 275.365L408.028 274.698L407.679 275.635ZM413.054 277.635L414.846 278.302L415.194 277.365L413.403 276.698L413.054 277.635ZM418.429 279.635L419.325 279.968L419.673 279.031L418.778 278.698L418.429 279.635ZM419.058 279.264L418.588 280.145L419.47 280.616L419.94 279.735L419.058 279.264ZM416.707 283.669L415.767 285.431L416.649 285.902L417.589 284.14L416.707 283.669ZM413.886 288.955L412.945 290.717L413.828 291.188L414.768 289.426L413.886 288.955ZM411.065 294.241L410.124 296.003L411.006 296.473L411.947 294.711L411.065 294.241ZM408.243 299.526L407.303 301.288L408.185 301.759L409.126 299.997L408.243 299.526ZM405.422 304.812L404.482 306.574L405.364 307.045L406.305 305.283L405.422 304.812ZM402.601 310.098L401.661 311.86L402.543 312.331L403.483 310.569L402.601 310.098ZM399.78 315.383L399.31 316.264L400.192 316.735L400.662 315.854L399.78 315.383ZM399.586 316.028L398.738 316.324L399.068 317.268L399.916 316.972L399.586 316.028ZM395.349 317.508L393.654 318.101L393.984 319.045L395.678 318.452L395.349 317.508ZM390.264 319.285L388.569 319.877L388.899 320.821L390.594 320.229L390.264 319.285ZM385.179 321.062L384.331 321.358L384.661 322.302L385.509 322.006L385.179 321.062Z" fill="#87A4BC"/>
<g filter="url(#filter0_d_5088_63108)">
<circle cx="388" cy="322" r="3" fill="#0C99CF"/>
<circle cx="388" cy="322" r="4" stroke="white" stroke-width="2"/>
</g>
<path d="M342.025 313V302.979H345.785C346.551 302.979 347.164 303.081 347.624 303.286C348.089 303.487 348.451 303.799 348.711 304.223C348.975 304.642 349.107 305.082 349.107 305.542C349.107 305.97 348.991 306.374 348.759 306.752C348.526 307.13 348.175 307.436 347.706 307.668C348.312 307.846 348.777 308.149 349.101 308.577C349.429 309.006 349.593 309.511 349.593 310.095C349.593 310.564 349.493 311.002 349.292 311.407C349.096 311.808 348.852 312.118 348.561 312.337C348.269 312.556 347.902 312.722 347.46 312.836C347.022 312.945 346.485 313 345.847 313H342.025ZM343.352 307.189H345.519C346.106 307.189 346.528 307.151 346.783 307.073C347.12 306.973 347.373 306.807 347.542 306.574C347.715 306.342 347.802 306.05 347.802 305.699C347.802 305.367 347.722 305.075 347.562 304.824C347.403 304.569 347.175 304.396 346.879 304.305C346.583 304.209 346.075 304.161 345.354 304.161H343.352V307.189ZM343.352 311.817H345.847C346.275 311.817 346.576 311.801 346.749 311.77C347.054 311.715 347.31 311.624 347.515 311.496C347.72 311.368 347.888 311.184 348.021 310.942C348.153 310.696 348.219 310.414 348.219 310.095C348.219 309.721 348.123 309.397 347.932 309.124C347.74 308.846 347.474 308.652 347.132 308.543C346.795 308.429 346.307 308.372 345.669 308.372H343.352V311.817ZM351.377 313V302.979H353.373L355.745 310.074C355.964 310.735 356.123 311.229 356.224 311.558C356.338 311.193 356.515 310.658 356.757 309.951L359.156 302.979H360.94V313H359.662V304.612L356.75 313H355.554L352.655 304.469V313H351.377ZM365.63 313V304.161H362.328V302.979H370.271V304.161H366.956V313H365.63ZM371.652 302.979H379.534V313H378.201V304.161H372.979V313H371.652V302.979Z" fill="white"/>
<path d="M36.1006 1.97852H37.4268V6.36719C38.0329 6.36719 38.459 6.25098 38.7051 6.01855C38.9512 5.78158 39.2656 5.21647 39.6484 4.32324C39.9264 3.66699 40.1543 3.20443 40.332 2.93555C40.5143 2.66211 40.7718 2.43424 41.1045 2.25195C41.4372 2.0651 41.804 1.97168 42.2051 1.97168C42.7155 1.97168 42.9844 1.97624 43.0117 1.98535V3.13379C42.9661 3.13379 42.8773 3.13151 42.7451 3.12695C42.5993 3.1224 42.5104 3.12012 42.4785 3.12012C42.0547 3.12012 41.7402 3.22266 41.5352 3.42773C41.3255 3.63281 41.0863 4.07031 40.8174 4.74023C40.4801 5.58789 40.1953 6.12337 39.9629 6.34668C39.7305 6.56543 39.4525 6.74089 39.1289 6.87305C39.776 7.05078 40.4141 7.64779 41.043 8.66406L43.1074 12H41.46L39.7852 9.2793C39.3249 8.52734 38.9398 8.01237 38.6299 7.73438C38.32 7.45182 37.9189 7.31055 37.4268 7.31055V12H36.1006V1.97852ZM48.8223 11.1045C48.3665 11.4919 47.9268 11.7653 47.5029 11.9248C47.0837 12.0843 46.6325 12.1641 46.1494 12.1641C45.3519 12.1641 44.7389 11.9704 44.3105 11.583C43.8822 11.1911 43.668 10.6921 43.668 10.0859C43.668 9.73047 43.7477 9.4069 43.9072 9.11523C44.0713 8.81901 44.2832 8.58203 44.543 8.4043C44.8073 8.22656 45.1035 8.09212 45.4316 8.00098C45.6732 7.93717 46.0378 7.87565 46.5254 7.81641C47.5189 7.69792 48.2503 7.55664 48.7197 7.39258C48.7243 7.22396 48.7266 7.11686 48.7266 7.07129C48.7266 6.56999 48.6104 6.2168 48.3779 6.01172C48.0635 5.73372 47.5964 5.59473 46.9766 5.59473C46.3978 5.59473 45.9694 5.69727 45.6914 5.90234C45.418 6.10286 45.2152 6.46061 45.083 6.97559L43.8799 6.81152C43.9893 6.29655 44.1693 5.88184 44.4199 5.56738C44.6706 5.24837 45.0329 5.00456 45.5068 4.83594C45.9808 4.66276 46.5299 4.57617 47.1543 4.57617C47.7741 4.57617 48.2777 4.64909 48.665 4.79492C49.0524 4.94076 49.3372 5.12533 49.5195 5.34863C49.7018 5.56738 49.8294 5.84538 49.9023 6.18262C49.9434 6.39225 49.9639 6.77051 49.9639 7.31738V8.95801C49.9639 10.1019 49.9889 10.8265 50.0391 11.1318C50.0938 11.4326 50.1986 11.722 50.3535 12H49.0684C48.9408 11.7448 48.8587 11.4463 48.8223 11.1045ZM48.7197 8.35645C48.2731 8.53874 47.6032 8.69368 46.71 8.82129C46.2041 8.89421 45.8464 8.97624 45.6367 9.06738C45.4271 9.15853 45.2653 9.29297 45.1514 9.4707C45.0374 9.64388 44.9805 9.83757 44.9805 10.0518C44.9805 10.3799 45.1035 10.6533 45.3496 10.8721C45.6003 11.0908 45.9648 11.2002 46.4434 11.2002C46.9173 11.2002 47.3389 11.0977 47.708 10.8926C48.0771 10.6829 48.3483 10.3981 48.5215 10.0381C48.6536 9.76009 48.7197 9.34993 48.7197 8.80762V8.35645ZM53.3203 8.71875V7.75488C53.8398 7.75033 54.193 7.72982 54.3799 7.69336C54.5713 7.6569 54.7513 7.54753 54.9199 7.36523C55.0885 7.18294 55.1729 6.95508 55.1729 6.68164C55.1729 6.34896 55.0612 6.08464 54.8379 5.88867C54.6191 5.68815 54.3343 5.58789 53.9834 5.58789C53.2907 5.58789 52.8053 5.99577 52.5273 6.81152L51.3584 6.62012C51.723 5.25749 52.6025 4.57617 53.9971 4.57617C54.7718 4.57617 55.3779 4.78809 55.8154 5.21191C56.2575 5.63574 56.4785 6.1416 56.4785 6.72949C56.4785 7.32194 56.1914 7.79362 55.6172 8.14453C55.9818 8.34049 56.2552 8.59115 56.4375 8.89648C56.6198 9.19727 56.7109 9.55501 56.7109 9.96973C56.7109 10.6214 56.474 11.1501 56 11.5557C55.526 11.9613 54.863 12.1641 54.0107 12.1641C52.3564 12.1641 51.3971 11.4281 51.1328 9.95605L52.2881 9.70996C52.3929 10.1748 52.6048 10.5348 52.9238 10.79C53.2474 11.0452 53.6165 11.1729 54.0312 11.1729C54.446 11.1729 54.79 11.0566 55.0635 10.8242C55.3415 10.5872 55.4805 10.2865 55.4805 9.92188C55.4805 9.63932 55.3939 9.39323 55.2207 9.18359C55.0475 8.97396 54.863 8.84408 54.667 8.79395C54.471 8.73926 54.1156 8.71191 53.6006 8.71191C53.5596 8.71191 53.4661 8.71419 53.3203 8.71875ZM62.877 11.1045C62.4212 11.4919 61.9814 11.7653 61.5576 11.9248C61.1383 12.0843 60.6872 12.1641 60.2041 12.1641C59.4066 12.1641 58.7936 11.9704 58.3652 11.583C57.9368 11.1911 57.7227 10.6921 57.7227 10.0859C57.7227 9.73047 57.8024 9.4069 57.9619 9.11523C58.126 8.81901 58.3379 8.58203 58.5977 8.4043C58.862 8.22656 59.1582 8.09212 59.4863 8.00098C59.7279 7.93717 60.0924 7.87565 60.5801 7.81641C61.5736 7.69792 62.305 7.55664 62.7744 7.39258C62.779 7.22396 62.7812 7.11686 62.7812 7.07129C62.7812 6.56999 62.665 6.2168 62.4326 6.01172C62.1182 5.73372 61.651 5.59473 61.0312 5.59473C60.4525 5.59473 60.0241 5.69727 59.7461 5.90234C59.4727 6.10286 59.2699 6.46061 59.1377 6.97559L57.9346 6.81152C58.0439 6.29655 58.224 5.88184 58.4746 5.56738C58.7253 5.24837 59.0876 5.00456 59.5615 4.83594C60.0355 4.66276 60.5846 4.57617 61.209 4.57617C61.8288 4.57617 62.3324 4.64909 62.7197 4.79492C63.1071 4.94076 63.3919 5.12533 63.5742 5.34863C63.7565 5.56738 63.8841 5.84538 63.957 6.18262C63.998 6.39225 64.0186 6.77051 64.0186 7.31738V8.95801C64.0186 10.1019 64.0436 10.8265 64.0938 11.1318C64.1484 11.4326 64.2533 11.722 64.4082 12H63.123C62.9954 11.7448 62.9134 11.4463 62.877 11.1045ZM62.7744 8.35645C62.3278 8.53874 61.6579 8.69368 60.7646 8.82129C60.2588 8.89421 59.901 8.97624 59.6914 9.06738C59.4818 9.15853 59.32 9.29297 59.2061 9.4707C59.0921 9.64388 59.0352 9.83757 59.0352 10.0518C59.0352 10.3799 59.1582 10.6533 59.4043 10.8721C59.6549 11.0908 60.0195 11.2002 60.498 11.2002C60.972 11.2002 61.3936 11.0977 61.7627 10.8926C62.1318 10.6829 62.403 10.3981 62.5762 10.0381C62.7083 9.76009 62.7744 9.34993 62.7744 8.80762V8.35645ZM65.9395 4.74023H67.1699V7.76172H70.5811V4.74023H71.8115V12H70.5811V8.78027H67.1699V12H65.9395V4.74023ZM73.6504 4.74023H74.8809V7.57715H76.4395C77.4557 7.57715 78.2373 7.77539 78.7842 8.17188C79.3356 8.5638 79.6113 9.10612 79.6113 9.79883C79.6113 10.4049 79.3812 10.9245 78.9209 11.3574C78.4652 11.7858 77.7337 12 76.7266 12H73.6504V4.74023ZM74.8809 10.9883H76.1729C76.9521 10.9883 77.5081 10.8926 77.8408 10.7012C78.1735 10.5098 78.3398 10.2113 78.3398 9.80566C78.3398 9.49121 78.2168 9.21094 77.9707 8.96484C77.7246 8.71875 77.18 8.5957 76.3369 8.5957H74.8809V10.9883Z" fill="white"/>
<g filter="url(#filter1_d_5088_63108)">
<circle cx="58" cy="21" r="2" fill="#0C99CF"/>
<circle cx="58" cy="21" r="2.5" stroke="white"/>
</g>
<defs>
<filter id="filter0_d_5088_63108" x="381.163" y="316.388" width="13.6731" height="13.6731" filterUnits="userSpaceOnUse" color-interpolation-filters="sRGB">
<feFlood flood-opacity="0" result="BackgroundImageFix"/>
<feColorMatrix in="SourceAlpha" type="matrix" values="0 0 0 0 0 0 0 0 0 0 0 0 0 0 0 0 0 0 127 0" result="hardAlpha"/>
<feOffset dy="1.22437"/>
<feGaussianBlur stdDeviation="0.918278"/>
<feColorMatrix type="matrix" values="0 0 0 0 0 0 0 0 0 0 0 0 0 0 0 0 0 0 0.2 0"/>
<feBlend mode="normal" in2="BackgroundImageFix" result="effect1_dropShadow_5088_63108"/>
<feBlend mode="normal" in="SourceGraphic" in2="effect1_dropShadow_5088_63108" result="shape"/>
</filter>
<filter id="filter1_d_5088_63108" x="53.1634" y="17.3878" width="9.67311" height="9.67311" filterUnits="userSpaceOnUse" color-interpolation-filters="sRGB">
<feFlood flood-opacity="0" result="BackgroundImageFix"/>
<feColorMatrix in="SourceAlpha" type="matrix" values="0 0 0 0 0 0 0 0 0 0 0 0 0 0 0 0 0 0 127 0" result="hardAlpha"/>
<feOffset dy="1.22437"/>
<feGaussianBlur stdDeviation="0.918278"/>
<feColorMatrix type="matrix" values="0 0 0 0 0 0 0 0 0 0 0 0 0 0 0 0 0 0 0.2 0"/>
<feBlend mode="normal" in2="BackgroundImageFix" result="effect1_dropShadow_5088_63108"/>
<feBlend mode="normal" in="SourceGraphic" in2="effect1_dropShadow_5088_63108" result="shape"/>
</filter>
</defs>
</svg>
