<svg width="549" height="346" viewBox="0 0 549 346" fill="none" xmlns="http://www.w3.org/2000/svg">
<path d="M488.75 331.5L488.915 331.972L489.099 331.908L489.191 331.736L488.75 331.5ZM508.498 294.5L508.94 294.736L509.209 294.231L508.673 294.031L508.498 294.5ZM486.998 286.5L486.504 286.575L486.548 286.866L486.824 286.969L486.998 286.5ZM481.998 253.5L482.493 253.425L482.479 253.333L482.433 253.252L481.998 253.5ZM465.998 225.5L466.433 225.252L466.345 225.099L466.181 225.035L465.998 225.5ZM440.498 215.5L440.681 215.035L440.416 214.931L440.192 215.105L440.498 215.5ZM412.999 236.844L412.776 237.291L413.057 237.432L413.306 237.239L412.999 236.844ZM360.453 210.558L360.081 210.223L359.642 210.711L360.229 211.005L360.453 210.558ZM364.999 205.5L365.371 205.834L365.519 205.67L365.497 205.449L364.999 205.5ZM360.453 161L360.95 160.949L360.931 160.763L360.795 160.635L360.453 161ZM336.499 138.5L336.842 138.135L336.676 137.98L336.45 138.002L336.499 138.5ZM278.927 144.221L278.714 144.674L278.839 144.732L278.976 144.719L278.927 144.221ZM235.999 124L235.505 124.076L235.545 124.339L235.786 124.452L235.999 124ZM225.999 58.9998L226.493 58.9238L226.409 58.3823L225.878 58.5146L225.999 58.9998ZM121.499 84.9998L121.499 85.4998L121.561 85.4998L121.62 85.485L121.499 84.9998ZM85.4994 84.9998L85.4994 84.4998L85.3782 84.4998L85.2705 84.5553L85.4994 84.9998ZM52.27 101.555C52.0245 101.682 51.928 101.983 52.0545 102.229C52.1809 102.474 52.4825 102.571 52.7279 102.444L52.27 101.555ZM53.6446 101.972C53.8901 101.846 53.9866 101.544 53.8601 101.299C53.7337 101.053 53.4322 100.957 53.1867 101.083L53.6446 101.972ZM56.8534 99.1942C56.6079 99.3207 56.5114 99.6222 56.6379 99.8677C56.7643 100.113 57.0659 100.21 57.3113 100.083L56.8534 99.1942ZM59.1447 99.1387C59.3902 99.0123 59.4867 98.7108 59.3602 98.4653C59.2338 98.2198 58.9322 98.1233 58.6868 98.2498L59.1447 99.1387ZM62.3535 96.3609C62.108 96.4873 62.0115 96.7888 62.138 97.0343C62.2644 97.2798 62.5659 97.3763 62.8114 97.2498L62.3535 96.3609ZM64.6448 96.3054C64.8903 96.1789 64.9868 95.8774 64.8603 95.6319C64.7338 95.3864 64.4323 95.29 64.1868 95.4164L64.6448 96.3054ZM67.8536 93.5275C67.6081 93.654 67.5116 93.9555 67.638 94.201C67.7645 94.4465 68.066 94.543 68.3115 94.4165L67.8536 93.5275ZM70.1449 93.472C70.3903 93.3456 70.4868 93.0441 70.3604 92.7986C70.2339 92.5531 69.9324 92.4566 69.6869 92.5831L70.1449 93.472ZM73.3536 90.6942C73.1081 90.8206 73.0117 91.1222 73.1381 91.3676C73.2646 91.6131 73.5661 91.7096 73.8116 91.5831L73.3536 90.6942ZM75.6449 90.6387C75.8904 90.5122 75.9869 90.2107 75.8605 89.9652C75.734 89.7198 75.4325 89.6233 75.187 89.7497L75.6449 90.6387ZM78.8537 87.8608C78.6082 87.9873 78.5117 88.2888 78.6382 88.5343C78.7647 88.7798 79.0662 88.8763 79.3117 88.7498L78.8537 87.8608ZM81.145 87.8054C81.3905 87.6789 81.487 87.3774 81.3605 87.1319C81.2341 86.8864 80.9326 86.7899 80.6871 86.9164L81.145 87.8054ZM84.3538 85.0275C84.1083 85.1539 84.0118 85.4555 84.1383 85.7009C84.2647 85.9464 84.5663 86.0429 84.8117 85.9165L84.3538 85.0275ZM86.4994 85.4998C86.7756 85.4998 86.9994 85.2759 86.9994 84.9998C86.9994 84.7236 86.7756 84.4998 86.4994 84.4998L86.4994 85.4998ZM90.4994 84.4998C90.2233 84.4998 89.9994 84.7236 89.9994 84.9998C89.9994 85.2759 90.2233 85.4998 90.4994 85.4998L90.4994 84.4998ZM92.4994 85.4998C92.7756 85.4998 92.9994 85.2759 92.9994 84.9998C92.9994 84.7236 92.7756 84.4998 92.4994 84.4998L92.4994 85.4998ZM96.4994 84.4997C96.2233 84.4998 95.9994 84.7236 95.9994 84.9998C95.9994 85.2759 96.2233 85.4998 96.4994 85.4998L96.4994 84.4997ZM98.4994 85.4998C98.7755 85.4998 98.9994 85.2759 98.9994 84.9998C98.9994 84.7236 98.7755 84.4998 98.4994 84.4998L98.4994 85.4998ZM102.499 84.4998C102.223 84.4998 101.999 84.7236 101.999 84.9997C101.999 85.2759 102.223 85.4998 102.499 85.4998L102.499 84.4998ZM104.499 85.4998C104.775 85.4998 104.999 85.2759 104.999 84.9998C104.999 84.7236 104.775 84.4998 104.499 84.4998L104.499 85.4998ZM108.499 84.4998C108.223 84.4998 107.999 84.7236 107.999 84.9998C107.999 85.2759 108.223 85.4998 108.499 85.4998L108.499 84.4998ZM110.499 85.4998C110.775 85.4998 110.999 85.2759 110.999 84.9998C110.999 84.7236 110.775 84.4998 110.499 84.4998L110.499 85.4998ZM114.499 84.4998C114.223 84.4998 113.999 84.7236 113.999 84.9998C113.999 85.2759 114.223 85.4998 114.499 85.4998L114.499 84.4998ZM116.499 85.4998C116.775 85.4998 116.999 85.2759 116.999 84.9998C116.999 84.7236 116.775 84.4998 116.499 84.4998L116.499 85.4998ZM120.499 84.4998C120.223 84.4998 119.999 84.7236 119.999 84.9998C119.999 85.2759 120.223 85.4998 120.499 85.4998L120.499 84.4998ZM122.588 85.2442C122.856 85.1775 123.019 84.9063 122.952 84.6383C122.885 84.3703 122.614 84.2071 122.346 84.2738L122.588 85.2442ZM126.216 83.3108C125.949 83.3775 125.785 83.6488 125.852 83.9168C125.919 84.1847 126.19 84.3479 126.458 84.2813L126.216 83.3108ZM128.393 83.7998C128.661 83.7331 128.824 83.4618 128.758 83.1938C128.691 82.9259 128.42 82.7627 128.152 82.8294L128.393 83.7998ZM132.022 81.8664C131.754 81.9331 131.591 82.2044 131.658 82.4723C131.724 82.7403 131.995 82.9035 132.263 82.8368L132.022 81.8664ZM134.199 82.3553C134.467 82.2887 134.63 82.0174 134.563 81.7494C134.496 81.4814 134.225 81.3183 133.957 81.3849L134.199 82.3553ZM137.828 80.422C137.56 80.4886 137.396 80.7599 137.463 81.0279C137.53 81.2959 137.801 81.459 138.069 81.3924L137.828 80.422ZM140.004 80.9109C140.272 80.8442 140.435 80.5729 140.369 80.305C140.302 80.037 140.031 79.8738 139.763 79.9405L140.004 80.9109ZM143.633 78.9775C143.365 79.0442 143.202 79.3155 143.269 79.5834C143.335 79.8514 143.606 80.0146 143.874 79.9479L143.633 78.9775ZM145.81 79.4665C146.078 79.3998 146.241 79.1285 146.174 78.8605C146.107 78.5926 145.836 78.4294 145.568 78.496L145.81 79.4665ZM149.439 77.5331C149.171 77.5998 149.007 77.871 149.074 78.139C149.141 78.407 149.412 78.5702 149.68 78.5035L149.439 77.5331ZM151.615 78.022C151.883 77.9553 152.046 77.6841 151.98 77.4161C151.913 77.1481 151.642 76.9849 151.374 77.0516L151.615 78.022ZM155.244 76.0886C154.976 76.1553 154.813 76.4266 154.88 76.6946C154.946 76.9625 155.218 77.1257 155.485 77.0591L155.244 76.0886ZM157.421 76.5776C157.689 76.5109 157.852 76.2396 157.785 75.9716C157.718 75.7037 157.447 75.5405 157.179 75.6072L157.421 76.5776ZM161.05 74.6442C160.782 74.7109 160.618 74.9822 160.685 75.2501C160.752 75.5181 161.023 75.6813 161.291 75.6146L161.05 74.6442ZM163.226 75.1331C163.494 75.0665 163.657 74.7952 163.591 74.5272C163.524 74.2592 163.253 74.096 162.985 74.1627L163.226 75.1331ZM166.855 73.1998C166.587 73.2664 166.424 73.5377 166.491 73.8057C166.557 74.0737 166.829 74.2368 167.097 74.1702L166.855 73.1998ZM169.032 73.6887C169.3 73.622 169.463 73.3507 169.396 73.0828C169.329 72.8148 169.058 72.6516 168.79 72.7183L169.032 73.6887ZM172.661 71.7553C172.393 71.822 172.229 72.0933 172.296 72.3612C172.363 72.6292 172.634 72.7924 172.902 72.7257L172.661 71.7553ZM174.837 72.2442C175.105 72.1776 175.268 71.9063 175.202 71.6383C175.135 71.3703 174.864 71.2072 174.596 71.2738L174.837 72.2442ZM178.466 70.3109C178.198 70.3775 178.035 70.6488 178.102 70.9168C178.168 71.1848 178.44 71.348 178.708 71.2813L178.466 70.3109ZM180.643 70.7998C180.911 70.7331 181.074 70.4619 181.007 70.1939C180.941 69.9259 180.669 69.7627 180.401 69.8294L180.643 70.7998ZM184.272 68.8664C184.004 68.9331 183.84 69.2044 183.907 69.4724C183.974 69.7403 184.245 69.9035 184.513 69.8368L184.272 68.8664ZM186.448 69.3554C186.716 69.2887 186.879 69.0174 186.813 68.7494C186.746 68.4815 186.475 68.3183 186.207 68.385L186.448 69.3554ZM190.077 67.422C189.809 67.4887 189.646 67.7599 189.713 68.0279C189.779 68.2959 190.051 68.4591 190.319 68.3924L190.077 67.422ZM192.254 67.9109C192.522 67.8443 192.685 67.573 192.618 67.305C192.552 67.037 192.28 66.8738 192.012 66.9405L192.254 67.9109ZM195.883 65.9776C195.615 66.0442 195.451 66.3155 195.518 66.5835C195.585 66.8515 195.856 67.0146 196.124 66.948L195.883 65.9776ZM198.059 66.4665C198.327 66.3998 198.49 66.1285 198.424 65.8606C198.357 65.5926 198.086 65.4294 197.818 65.4961L198.059 66.4665ZM201.688 64.5331C201.42 64.5998 201.257 64.8711 201.324 65.139C201.39 65.407 201.662 65.5702 201.93 65.5035L201.688 64.5331ZM203.865 65.022C204.133 64.9554 204.296 64.6841 204.229 64.4161C204.163 64.1481 203.891 63.985 203.623 64.0516L203.865 65.022ZM207.494 63.0887C207.226 63.1553 207.062 63.4266 207.129 63.6946C207.196 63.9626 207.467 64.1258 207.735 64.0591L207.494 63.0887ZM209.67 63.5776C209.938 63.5109 210.101 63.2396 210.035 62.9717C209.968 62.7037 209.697 62.5405 209.429 62.6072L209.67 63.5776ZM213.299 61.6442C213.031 61.7109 212.868 61.9822 212.935 62.2502C213.001 62.5181 213.273 62.6813 213.541 62.6146L213.299 61.6442ZM215.476 62.1332C215.744 62.0665 215.907 61.7952 215.84 61.5272C215.774 61.2593 215.502 61.0961 215.234 61.1627L215.476 62.1332ZM219.105 60.1998C218.837 60.2665 218.674 60.5377 218.74 60.8057C218.807 61.0737 219.078 61.2369 219.346 61.1702L219.105 60.1998ZM221.281 60.6887C221.549 60.6221 221.712 60.3508 221.646 60.0828C221.579 59.8148 221.308 59.6516 221.04 59.7183L221.281 60.6887ZM224.91 58.7553C224.642 58.822 224.479 59.0933 224.546 59.3613C224.612 59.6292 224.884 59.7924 225.152 59.7258L224.91 58.7553ZM225.656 60.0607C225.698 60.3336 225.953 60.5208 226.226 60.4788C226.499 60.4369 226.686 60.1816 226.644 59.9086L225.656 60.0607ZM227.25 63.848C227.208 63.5751 226.953 63.3879 226.68 63.4299C226.407 63.4719 226.22 63.7272 226.262 64.0001L227.25 63.848ZM226.565 65.9698C226.607 66.2427 226.862 66.4299 227.135 66.388C227.408 66.346 227.595 66.0907 227.553 65.8177L226.565 65.9698ZM228.159 69.7571C228.117 69.4842 227.862 69.297 227.589 69.339C227.316 69.381 227.129 69.6363 227.171 69.9092L228.159 69.7571ZM227.474 71.8789C227.516 72.1518 227.771 72.3391 228.044 72.2971C228.317 72.2551 228.505 71.9998 228.463 71.7268L227.474 71.8789ZM229.069 75.6662C229.027 75.3933 228.771 75.2061 228.498 75.2481C228.225 75.2901 228.038 75.5454 228.08 75.8183L229.069 75.6662ZM228.383 77.788C228.425 78.0609 228.681 78.2482 228.954 78.2062C229.226 78.1642 229.414 77.9089 229.372 77.6359L228.383 77.788ZM229.978 81.5754C229.936 81.3024 229.681 81.1152 229.408 81.1572C229.135 81.1992 228.947 81.4545 228.989 81.7274L229.978 81.5754ZM229.292 83.6971C229.334 83.9701 229.59 84.1573 229.863 84.1153C230.136 84.0733 230.323 83.818 230.281 83.5451L229.292 83.6971ZM230.887 87.4845C230.845 87.2115 230.59 87.0243 230.317 87.0663C230.044 87.1083 229.857 87.3636 229.899 87.6365L230.887 87.4845ZM230.202 89.6062C230.244 89.8792 230.499 90.0664 230.772 90.0244C231.045 89.9824 231.232 89.7271 231.19 89.4542L230.202 89.6062ZM231.796 93.3936C231.754 93.1206 231.499 92.9334 231.226 92.9754C230.953 93.0174 230.766 93.2727 230.808 93.5456L231.796 93.3936ZM231.111 95.5153C231.153 95.7883 231.408 95.9755 231.681 95.9335C231.954 95.8915 232.141 95.6362 232.099 95.3633L231.111 95.5153ZM232.705 99.3027C232.663 99.0297 232.408 98.8425 232.135 98.8845C231.862 98.9265 231.675 99.1818 231.717 99.4547L232.705 99.3027ZM232.02 101.424C232.062 101.697 232.317 101.885 232.59 101.843C232.863 101.801 233.05 101.545 233.008 101.272L232.02 101.424ZM233.614 105.212C233.572 104.939 233.317 104.752 233.044 104.794C232.771 104.836 232.584 105.091 232.626 105.364L233.614 105.212ZM232.929 107.334C232.971 107.606 233.226 107.794 233.499 107.752C233.772 107.71 233.959 107.454 233.917 107.181L232.929 107.334ZM234.524 111.121C234.482 110.848 234.226 110.661 233.953 110.703C233.68 110.745 233.493 111 233.535 111.273L234.524 111.121ZM233.838 113.243C233.88 113.516 234.136 113.703 234.408 113.661C234.681 113.619 234.869 113.364 234.827 113.091L233.838 113.243ZM235.433 117.03C235.391 116.757 235.135 116.57 234.863 116.612C234.59 116.654 234.402 116.909 234.444 117.182L235.433 117.03ZM234.747 119.152C234.789 119.425 235.045 119.612 235.318 119.57C235.591 119.528 235.778 119.273 235.736 119L234.747 119.152ZM236.342 122.939C236.3 122.666 236.045 122.479 235.772 122.521C235.499 122.563 235.312 122.818 235.354 123.091L236.342 122.939ZM236.68 124.874C236.93 124.991 237.228 124.884 237.346 124.634C237.464 124.385 237.356 124.087 237.107 123.969L236.68 124.874ZM240.684 125.654C240.434 125.536 240.136 125.643 240.019 125.893C239.901 126.143 240.008 126.441 240.258 126.559L240.684 125.654ZM242.046 127.401C242.296 127.519 242.594 127.412 242.712 127.162C242.83 126.912 242.722 126.614 242.473 126.497L242.046 127.401ZM246.05 128.182C245.8 128.064 245.502 128.171 245.384 128.421C245.267 128.671 245.374 128.969 245.624 129.086L246.05 128.182ZM247.412 129.929C247.662 130.047 247.96 129.939 248.078 129.69C248.195 129.44 248.088 129.142 247.839 129.024L247.412 129.929ZM251.416 130.709C251.166 130.592 250.868 130.699 250.75 130.949C250.633 131.198 250.74 131.496 250.99 131.614L251.416 130.709ZM252.778 132.457C253.028 132.574 253.326 132.467 253.444 132.217C253.561 131.967 253.454 131.67 253.204 131.552L252.778 132.457ZM256.782 133.237C256.532 133.119 256.234 133.226 256.116 133.476C255.999 133.726 256.106 134.024 256.356 134.142L256.782 133.237ZM258.144 134.984C258.394 135.102 258.692 134.995 258.81 134.745C258.927 134.495 258.82 134.197 258.57 134.08L258.144 134.984ZM262.148 135.765C261.898 135.647 261.6 135.754 261.482 136.004C261.365 136.254 261.472 136.552 261.722 136.669L262.148 135.765ZM263.51 137.512C263.76 137.63 264.058 137.522 264.176 137.273C264.293 137.023 264.186 136.725 263.936 136.607L263.51 137.512ZM267.514 138.292C267.264 138.175 266.966 138.282 266.848 138.532C266.731 138.781 266.838 139.079 267.088 139.197L267.514 138.292ZM268.876 140.04C269.126 140.157 269.424 140.05 269.542 139.8C269.659 139.55 269.552 139.253 269.302 139.135L268.876 140.04ZM272.88 140.82C272.63 140.702 272.332 140.809 272.214 141.059C272.097 141.309 272.204 141.607 272.454 141.725L272.88 140.82ZM274.242 142.567C274.492 142.685 274.79 142.578 274.908 142.328C275.025 142.078 274.918 141.78 274.668 141.663L274.242 142.567ZM278.246 143.348C277.996 143.23 277.698 143.337 277.58 143.587C277.463 143.837 277.57 144.135 277.819 144.252L278.246 143.348ZM279.936 144.623C280.211 144.596 280.411 144.351 280.384 144.076C280.357 143.802 280.112 143.601 279.837 143.628L279.936 144.623ZM283.675 143.247C283.4 143.274 283.2 143.519 283.227 143.794C283.254 144.069 283.499 144.269 283.774 144.242L283.675 143.247ZM285.693 144.051C285.968 144.024 286.168 143.779 286.141 143.504C286.114 143.229 285.869 143.029 285.594 143.056L285.693 144.051ZM289.432 142.675C289.158 142.702 288.957 142.947 288.984 143.222C289.012 143.497 289.256 143.697 289.531 143.67L289.432 142.675ZM291.45 143.479C291.725 143.452 291.926 143.207 291.898 142.932C291.871 142.657 291.626 142.457 291.351 142.484L291.45 143.479ZM295.19 142.103C294.915 142.13 294.714 142.375 294.741 142.65C294.769 142.924 295.014 143.125 295.288 143.098L295.19 142.103ZM297.208 142.907C297.482 142.88 297.683 142.635 297.656 142.36C297.628 142.085 297.383 141.885 297.109 141.912L297.208 142.907ZM300.947 141.53C300.672 141.558 300.471 141.803 300.499 142.077C300.526 142.352 300.771 142.553 301.046 142.526L300.947 141.53ZM302.965 142.335C303.24 142.308 303.44 142.063 303.413 141.788C303.386 141.513 303.141 141.312 302.866 141.34L302.965 142.335ZM306.704 140.958C306.429 140.986 306.229 141.231 306.256 141.505C306.283 141.78 306.528 141.981 306.803 141.953L306.704 140.958ZM308.722 141.763C308.997 141.735 309.197 141.491 309.17 141.216C309.143 140.941 308.898 140.74 308.623 140.768L308.722 141.763ZM312.461 140.386C312.187 140.413 311.986 140.658 312.013 140.933C312.041 141.208 312.285 141.409 312.56 141.381L312.461 140.386ZM314.479 141.191C314.754 141.163 314.955 140.918 314.927 140.644C314.9 140.369 314.655 140.168 314.38 140.195L314.479 141.191ZM318.219 139.814C317.944 139.841 317.743 140.086 317.77 140.361C317.798 140.636 318.043 140.836 318.317 140.809L318.219 139.814ZM320.237 140.618C320.511 140.591 320.712 140.346 320.685 140.071C320.657 139.797 320.412 139.596 320.138 139.623L320.237 140.618ZM323.976 139.242C323.701 139.269 323.5 139.514 323.528 139.789C323.555 140.064 323.8 140.264 324.075 140.237L323.976 139.242ZM325.994 140.046C326.269 140.019 326.469 139.774 326.442 139.499C326.415 139.225 326.17 139.024 325.895 139.051L325.994 140.046ZM329.733 138.67C329.458 138.697 329.258 138.942 329.285 139.217C329.312 139.492 329.557 139.692 329.832 139.665L329.733 138.67ZM331.751 139.474C332.026 139.447 332.226 139.202 332.199 138.927C332.172 138.652 331.927 138.452 331.652 138.479L331.751 139.474ZM335.49 138.098C335.216 138.125 335.015 138.37 335.042 138.645C335.07 138.919 335.314 139.12 335.589 139.093L335.49 138.098ZM336.955 139.614C337.157 139.803 337.473 139.793 337.662 139.592C337.851 139.391 337.841 139.074 337.64 138.885L336.955 139.614ZM340.834 141.885C340.633 141.696 340.316 141.706 340.127 141.907C339.938 142.109 339.948 142.425 340.149 142.614L340.834 141.885ZM341.746 144.114C341.947 144.303 342.264 144.293 342.453 144.092C342.642 143.891 342.632 143.574 342.431 143.385L341.746 144.114ZM345.625 146.385C345.423 146.196 345.107 146.206 344.918 146.407C344.729 146.609 344.739 146.925 344.94 147.114L345.625 146.385ZM346.537 148.614C346.738 148.803 347.054 148.793 347.244 148.592C347.433 148.391 347.423 148.074 347.221 147.885L346.537 148.614ZM350.415 150.885C350.214 150.696 349.897 150.706 349.708 150.907C349.519 151.109 349.529 151.425 349.731 151.614L350.415 150.885ZM351.327 153.114C351.529 153.303 351.845 153.293 352.034 153.092C352.223 152.891 352.213 152.574 352.012 152.385L351.327 153.114ZM355.206 155.385C355.005 155.196 354.688 155.206 354.499 155.407C354.31 155.609 354.32 155.925 354.521 156.114L355.206 155.385ZM356.118 157.614C356.319 157.803 356.636 157.793 356.825 157.592C357.014 157.391 357.004 157.074 356.803 156.885L356.118 157.614ZM359.997 159.885C359.795 159.696 359.479 159.706 359.29 159.907C359.101 160.109 359.111 160.425 359.312 160.614L359.997 159.885ZM360.063 162.11C360.092 162.385 360.337 162.585 360.612 162.557C360.886 162.529 361.086 162.283 361.058 162.009L360.063 162.11ZM361.491 166.247C361.463 165.972 361.218 165.772 360.943 165.8C360.668 165.828 360.468 166.074 360.496 166.348L361.491 166.247ZM360.713 168.467C360.741 168.742 360.987 168.942 361.261 168.914C361.536 168.886 361.736 168.64 361.708 168.366L360.713 168.467ZM362.141 172.604C362.113 172.329 361.867 172.129 361.593 172.157C361.318 172.185 361.118 172.431 361.146 172.705L362.141 172.604ZM361.363 174.825C361.391 175.099 361.636 175.299 361.911 175.271C362.185 175.243 362.385 174.998 362.357 174.723L361.363 174.825ZM362.79 178.961C362.762 178.686 362.517 178.486 362.242 178.514C361.967 178.542 361.767 178.788 361.796 179.063L362.79 178.961ZM362.012 181.182C362.04 181.456 362.286 181.656 362.56 181.628C362.835 181.6 363.035 181.355 363.007 181.08L362.012 181.182ZM363.44 185.318C363.412 185.043 363.166 184.844 362.892 184.872C362.617 184.9 362.417 185.145 362.445 185.42L363.44 185.318ZM362.662 187.539C362.69 187.814 362.935 188.014 363.21 187.985C363.484 187.957 363.684 187.712 363.656 187.437L362.662 187.539ZM364.089 191.675C364.061 191.401 363.816 191.201 363.541 191.229C363.266 191.257 363.066 191.502 363.095 191.777L364.089 191.675ZM363.311 193.896C363.339 194.171 363.585 194.371 363.859 194.343C364.134 194.315 364.334 194.069 364.306 193.794L363.311 193.896ZM364.739 198.033C364.711 197.758 364.465 197.558 364.191 197.586C363.916 197.614 363.716 197.859 363.744 198.134L364.739 198.033ZM363.961 200.253C363.989 200.528 364.234 200.728 364.509 200.7C364.784 200.672 364.983 200.426 364.955 200.152L363.961 200.253ZM365.388 204.39C365.36 204.115 365.115 203.915 364.84 203.943C364.565 203.971 364.366 204.217 364.394 204.491L365.388 204.39ZM363.87 206.009C363.685 206.214 363.702 206.53 363.907 206.715C364.113 206.899 364.429 206.883 364.613 206.677L363.87 206.009ZM361.582 210.049C361.767 209.844 361.75 209.527 361.545 209.343C361.339 209.158 361.023 209.175 360.839 209.38L361.582 210.049ZM361.105 211.443C361.352 211.566 361.652 211.466 361.776 211.219C361.899 210.972 361.799 210.672 361.552 210.548L361.105 211.443ZM365.055 212.301C364.808 212.177 364.508 212.277 364.384 212.524C364.261 212.771 364.361 213.072 364.608 213.195L365.055 212.301ZM366.359 214.072C366.606 214.195 366.907 214.095 367.03 213.848C367.154 213.601 367.054 213.301 366.807 213.177L366.359 214.072ZM370.31 214.93C370.063 214.806 369.763 214.906 369.639 215.153C369.515 215.4 369.616 215.7 369.863 215.824L370.31 214.93ZM371.614 216.7C371.861 216.824 372.161 216.724 372.285 216.477C372.408 216.23 372.308 215.929 372.061 215.806L371.614 216.7ZM375.565 217.558C375.318 217.435 375.017 217.535 374.894 217.782C374.77 218.029 374.87 218.329 375.117 218.453L375.565 217.558ZM376.869 219.329C377.116 219.452 377.416 219.352 377.54 219.105C377.663 218.858 377.563 218.558 377.316 218.434L376.869 219.329ZM380.819 220.187C380.572 220.063 380.272 220.163 380.148 220.41C380.025 220.657 380.125 220.958 380.372 221.081L380.819 220.187ZM382.123 221.957C382.37 222.081 382.671 221.981 382.794 221.734C382.918 221.487 382.818 221.187 382.571 221.063L382.123 221.957ZM386.074 222.816C385.827 222.692 385.527 222.792 385.403 223.039C385.279 223.286 385.379 223.586 385.626 223.71L386.074 222.816ZM387.378 224.586C387.625 224.71 387.925 224.61 388.049 224.363C388.172 224.116 388.072 223.815 387.825 223.692L387.378 224.586ZM391.329 225.444C391.082 225.321 390.781 225.421 390.658 225.668C390.534 225.915 390.634 226.215 390.881 226.339L391.329 225.444ZM392.633 227.215C392.88 227.338 393.18 227.238 393.304 226.991C393.427 226.744 393.327 226.444 393.08 226.32L392.633 227.215ZM396.583 228.073C396.336 227.949 396.036 228.049 395.912 228.296C395.789 228.543 395.889 228.844 396.136 228.967L396.583 228.073ZM397.887 229.843C398.134 229.967 398.435 229.867 398.558 229.62C398.682 229.373 398.582 229.073 398.335 228.949L397.887 229.843ZM401.838 230.702C401.591 230.578 401.29 230.678 401.167 230.925C401.043 231.172 401.143 231.472 401.39 231.596L401.838 230.702ZM403.142 232.472C403.389 232.596 403.689 232.496 403.813 232.249C403.936 232.002 403.836 231.701 403.589 231.578L403.142 232.472ZM407.092 233.33C406.846 233.207 406.545 233.307 406.422 233.554C406.298 233.801 406.398 234.101 406.645 234.225L407.092 233.33ZM408.397 235.101C408.644 235.224 408.944 235.124 409.067 234.877C409.191 234.63 409.091 234.33 408.844 234.206L408.397 235.101ZM412.347 235.959C412.1 235.835 411.8 235.935 411.676 236.182C411.553 236.429 411.653 236.73 411.9 236.853L412.347 235.959ZM414.07 236.646C414.288 236.477 414.327 236.163 414.158 235.945C413.989 235.727 413.675 235.687 413.457 235.856L414.07 236.646ZM416.512 233.485C416.294 233.654 416.254 233.968 416.424 234.186C416.593 234.404 416.907 234.444 417.125 234.275L416.512 233.485ZM418.653 233.089C418.871 232.92 418.911 232.605 418.741 232.387C418.572 232.169 418.258 232.13 418.04 232.299L418.653 233.089ZM421.095 229.927C420.877 230.097 420.837 230.411 421.007 230.629C421.176 230.847 421.49 230.887 421.708 230.717L421.095 229.927ZM423.236 229.532C423.454 229.362 423.494 229.048 423.324 228.83C423.155 228.612 422.841 228.572 422.623 228.742L423.236 229.532ZM425.678 226.37C425.46 226.539 425.421 226.853 425.59 227.072C425.759 227.29 426.073 227.329 426.291 227.16L425.678 226.37ZM427.819 225.974C428.037 225.805 428.077 225.491 427.908 225.273C427.738 225.055 427.424 225.015 427.206 225.184L427.819 225.974ZM430.262 222.813C430.043 222.982 430.004 223.296 430.173 223.514C430.342 223.732 430.657 223.772 430.875 223.603L430.262 222.813ZM432.402 222.417C432.621 222.248 432.66 221.933 432.491 221.715C432.322 221.497 432.007 221.458 431.789 221.627L432.402 222.417ZM434.845 219.255C434.627 219.425 434.587 219.739 434.756 219.957C434.926 220.175 435.24 220.215 435.458 220.045L434.845 219.255ZM436.986 218.86C437.204 218.69 437.243 218.376 437.074 218.158C436.905 217.94 436.591 217.9 436.372 218.07L436.986 218.86ZM439.428 215.698C439.21 215.867 439.17 216.181 439.34 216.4C439.509 216.618 439.823 216.657 440.041 216.488L439.428 215.698ZM441.166 216.299C441.423 216.4 441.713 216.273 441.814 216.016C441.915 215.759 441.788 215.469 441.531 215.368L441.166 216.299ZM444.931 216.701C444.674 216.6 444.384 216.727 444.283 216.984C444.182 217.241 444.309 217.531 444.566 217.632L444.931 216.701ZM446.266 218.299C446.523 218.4 446.813 218.273 446.914 218.016C447.015 217.759 446.888 217.469 446.631 217.368L446.266 218.299ZM450.031 218.701C449.774 218.6 449.484 218.727 449.383 218.984C449.282 219.241 449.409 219.531 449.666 219.632L450.031 218.701ZM451.366 220.299C451.623 220.4 451.913 220.273 452.014 220.016C452.115 219.759 451.988 219.469 451.731 219.368L451.366 220.299ZM455.131 220.701C454.874 220.6 454.584 220.727 454.483 220.984C454.382 221.241 454.509 221.531 454.766 221.632L455.131 220.701ZM456.466 222.299C456.723 222.4 457.013 222.273 457.114 222.016C457.215 221.759 457.088 221.469 456.831 221.368L456.466 222.299ZM460.231 222.701C459.974 222.6 459.684 222.727 459.583 222.984C459.482 223.241 459.609 223.531 459.866 223.632L460.231 222.701ZM461.566 224.299C461.823 224.4 462.113 224.273 462.214 224.016C462.315 223.759 462.188 223.469 461.931 223.368L461.566 224.299ZM465.331 224.701C465.074 224.6 464.784 224.727 464.683 224.984C464.582 225.241 464.709 225.531 464.966 225.632L465.331 224.701ZM466.098 226.681C466.235 226.921 466.54 227.005 466.78 226.868C467.02 226.731 467.103 226.425 466.966 226.185L466.098 226.681ZM469.099 229.919C468.962 229.679 468.657 229.596 468.417 229.733C468.177 229.87 468.094 230.175 468.231 230.415L469.099 229.919ZM469.298 232.281C469.435 232.521 469.74 232.605 469.98 232.468C470.22 232.331 470.303 232.025 470.166 231.785L469.298 232.281ZM472.299 235.519C472.162 235.279 471.857 235.196 471.617 235.333C471.377 235.47 471.294 235.775 471.431 236.015L472.299 235.519ZM472.498 237.881C472.635 238.121 472.94 238.205 473.18 238.068C473.42 237.931 473.503 237.625 473.366 237.385L472.498 237.881ZM475.499 241.119C475.362 240.879 475.057 240.796 474.817 240.933C474.577 241.07 474.494 241.375 474.631 241.615L475.499 241.119ZM475.698 243.481C475.835 243.721 476.14 243.805 476.38 243.668C476.62 243.531 476.703 243.225 476.566 242.985L475.698 243.481ZM478.699 246.719C478.562 246.479 478.257 246.396 478.017 246.533C477.777 246.67 477.694 246.975 477.831 247.215L478.699 246.719ZM478.898 249.081C479.035 249.321 479.34 249.405 479.58 249.268C479.82 249.131 479.903 248.825 479.766 248.585L478.898 249.081ZM481.899 252.319C481.762 252.079 481.457 251.996 481.217 252.133C480.977 252.27 480.894 252.575 481.031 252.815L481.899 252.319ZM481.643 254.492C481.684 254.765 481.939 254.952 482.212 254.911C482.485 254.87 482.673 254.615 482.632 254.342L481.643 254.492ZM483.187 258.009C483.146 257.735 482.891 257.548 482.618 257.589C482.345 257.63 482.157 257.885 482.198 258.158L483.187 258.009ZM482.476 259.992C482.518 260.265 482.773 260.452 483.046 260.411C483.319 260.37 483.506 260.115 483.465 259.842L482.476 259.992ZM484.021 263.509C483.979 263.235 483.724 263.048 483.451 263.089C483.178 263.13 482.99 263.385 483.032 263.658L484.021 263.509ZM483.31 265.492C483.351 265.765 483.606 265.952 483.879 265.911C484.152 265.87 484.34 265.615 484.298 265.342L483.31 265.492ZM484.854 269.009C484.813 268.736 484.558 268.548 484.285 268.589C484.012 268.63 483.824 268.885 483.865 269.158L484.854 269.009ZM484.143 270.992C484.184 271.265 484.439 271.452 484.712 271.411C484.985 271.37 485.173 271.115 485.132 270.842L484.143 270.992ZM485.687 274.509C485.646 274.236 485.391 274.048 485.118 274.089C484.845 274.13 484.657 274.385 484.698 274.658L485.687 274.509ZM484.976 276.492C485.018 276.765 485.273 276.952 485.546 276.911C485.819 276.87 486.006 276.615 485.965 276.342L484.976 276.492ZM486.521 280.009C486.479 279.736 486.224 279.548 485.951 279.589C485.678 279.63 485.49 279.885 485.532 280.158L486.521 280.009ZM485.81 281.992C485.851 282.265 486.106 282.452 486.379 282.411C486.652 282.37 486.84 282.115 486.798 281.842L485.81 281.992ZM487.354 285.509C487.313 285.236 487.058 285.048 486.785 285.089C486.512 285.13 486.324 285.385 486.365 285.658L487.354 285.509ZM487.72 287.302C487.979 287.398 488.267 287.267 488.363 287.008C488.459 286.749 488.327 286.461 488.069 286.365L487.72 287.302ZM491.652 287.698C491.393 287.602 491.105 287.734 491.009 287.992C490.913 288.251 491.044 288.539 491.303 288.635L491.652 287.698ZM493.095 289.302C493.354 289.398 493.642 289.267 493.738 289.008C493.834 288.749 493.702 288.461 493.444 288.365L493.095 289.302ZM497.027 289.698C496.768 289.602 496.48 289.734 496.384 289.992C496.288 290.251 496.419 290.539 496.678 290.635L497.027 289.698ZM498.47 291.302C498.729 291.398 499.017 291.267 499.113 291.008C499.209 290.749 499.077 290.461 498.819 290.365L498.47 291.302ZM502.402 291.698C502.143 291.602 501.855 291.734 501.759 291.992C501.663 292.251 501.794 292.539 502.053 292.635L502.402 291.698ZM503.845 293.302C504.104 293.398 504.392 293.267 504.488 293.008C504.584 292.749 504.452 292.461 504.194 292.365L503.845 293.302ZM507.777 293.698C507.518 293.602 507.23 293.734 507.134 293.992C507.038 294.251 507.169 294.539 507.428 294.635L507.777 293.698ZM507.587 295.146C507.457 295.389 507.549 295.692 507.793 295.822C508.036 295.952 508.339 295.86 508.469 295.616L507.587 295.146ZM506.589 299.14C506.719 298.897 506.626 298.594 506.383 298.464C506.139 298.334 505.836 298.426 505.706 298.669L506.589 299.14ZM504.766 300.431C504.636 300.675 504.728 300.978 504.972 301.108C505.215 301.238 505.518 301.146 505.648 300.902L504.766 300.431ZM503.767 304.426C503.897 304.182 503.805 303.879 503.562 303.749C503.318 303.619 503.015 303.712 502.885 303.955L503.767 304.426ZM501.945 305.717C501.815 305.961 501.907 306.264 502.15 306.394C502.394 306.524 502.697 306.432 502.827 306.188L501.945 305.717ZM500.946 309.712C501.076 309.468 500.984 309.165 500.74 309.035C500.497 308.905 500.194 308.997 500.064 309.241L500.946 309.712ZM499.124 311.003C498.994 311.246 499.086 311.549 499.329 311.679C499.573 311.809 499.876 311.717 500.006 311.474L499.124 311.003ZM498.125 314.997C498.255 314.754 498.163 314.451 497.919 314.321C497.676 314.191 497.373 314.283 497.243 314.527L498.125 314.997ZM496.302 316.288C496.172 316.532 496.264 316.835 496.508 316.965C496.752 317.095 497.055 317.003 497.185 316.759L496.302 316.288ZM495.304 320.283C495.434 320.04 495.342 319.737 495.098 319.607C494.855 319.477 494.552 319.569 494.422 319.812L495.304 320.283ZM493.481 321.574C493.351 321.818 493.443 322.121 493.687 322.251C493.93 322.381 494.233 322.289 494.363 322.045L493.481 321.574ZM492.483 325.569C492.613 325.325 492.521 325.022 492.277 324.892C492.033 324.762 491.73 324.854 491.6 325.098L492.483 325.569ZM490.66 326.86C490.53 327.103 490.622 327.406 490.866 327.536C491.109 327.666 491.412 327.574 491.542 327.331L490.66 326.86ZM489.661 330.855C489.791 330.611 489.699 330.308 489.456 330.178C489.212 330.048 488.909 330.14 488.779 330.384L489.661 330.855ZM487.738 331.324C487.477 331.415 487.34 331.7 487.431 331.961C487.522 332.222 487.807 332.359 488.068 332.268L487.738 331.324ZM484.678 333.453C484.938 333.362 485.076 333.076 484.985 332.816C484.894 332.555 484.609 332.418 484.348 332.509L484.678 333.453ZM482.653 333.101C482.392 333.192 482.255 333.477 482.346 333.738C482.437 333.999 482.722 334.136 482.983 334.045L482.653 333.101ZM479.593 335.229C479.854 335.138 479.991 334.853 479.9 334.593C479.809 334.332 479.524 334.194 479.263 334.285L479.593 335.229ZM477.568 334.878C477.307 334.969 477.17 335.254 477.261 335.515C477.352 335.775 477.637 335.913 477.898 335.822L477.568 334.878ZM474.508 337.006C474.769 336.915 474.906 336.63 474.815 336.369C474.724 336.109 474.439 335.971 474.178 336.062L474.508 337.006ZM52.7279 102.444L53.6446 101.972L53.1867 101.083L52.27 101.555L52.7279 102.444ZM57.3113 100.083L59.1447 99.1387L58.6868 98.2498L56.8534 99.1942L57.3113 100.083ZM62.8114 97.2498L64.6448 96.3054L64.1868 95.4164L62.3535 96.3609L62.8114 97.2498ZM68.3115 94.4165L70.1449 93.472L69.6869 92.5831L67.8536 93.5275L68.3115 94.4165ZM73.8116 91.5831L75.6449 90.6387L75.187 89.7497L73.3536 90.6942L73.8116 91.5831ZM79.3117 88.7498L81.145 87.8054L80.6871 86.9164L78.8537 87.8608L79.3117 88.7498ZM84.8117 85.9165L85.7284 85.4442L85.2705 84.5553L84.3538 85.0275L84.8117 85.9165ZM85.4994 85.4998L86.4994 85.4998L86.4994 84.4998L85.4994 84.4998L85.4994 85.4998ZM90.4994 85.4998L92.4994 85.4998L92.4994 84.4998L90.4994 84.4998L90.4994 85.4998ZM96.4994 85.4998L98.4994 85.4998L98.4994 84.4998L96.4994 84.4997L96.4994 85.4998ZM102.499 85.4998L104.499 85.4998L104.499 84.4998L102.499 84.4998L102.499 85.4998ZM108.499 85.4998L110.499 85.4998L110.499 84.4998L108.499 84.4998L108.499 85.4998ZM114.499 85.4998L116.499 85.4998L116.499 84.4998L114.499 84.4998L114.499 85.4998ZM120.499 85.4998L121.499 85.4998L121.499 84.4998L120.499 84.4998L120.499 85.4998ZM121.62 85.485L122.588 85.2442L122.346 84.2738L121.379 84.5145L121.62 85.485ZM126.458 84.2813L128.393 83.7998L128.152 82.8294L126.216 83.3108L126.458 84.2813ZM132.263 82.8368L134.199 82.3553L133.957 81.3849L132.022 81.8664L132.263 82.8368ZM138.069 81.3924L140.004 80.9109L139.763 79.9405L137.828 80.422L138.069 81.3924ZM143.874 79.9479L145.81 79.4665L145.568 78.496L143.633 78.9775L143.874 79.9479ZM149.68 78.5035L151.615 78.022L151.374 77.0516L149.439 77.5331L149.68 78.5035ZM155.485 77.0591L157.421 76.5776L157.179 75.6072L155.244 76.0886L155.485 77.0591ZM161.291 75.6146L163.226 75.1331L162.985 74.1627L161.05 74.6442L161.291 75.6146ZM167.097 74.1702L169.032 73.6887L168.79 72.7183L166.855 73.1998L167.097 74.1702ZM172.902 72.7257L174.837 72.2442L174.596 71.2738L172.661 71.7553L172.902 72.7257ZM178.708 71.2813L180.643 70.7998L180.401 69.8294L178.466 70.3109L178.708 71.2813ZM184.513 69.8368L186.448 69.3554L186.207 68.385L184.272 68.8664L184.513 69.8368ZM190.319 68.3924L192.254 67.9109L192.012 66.9405L190.077 67.422L190.319 68.3924ZM196.124 66.948L198.059 66.4665L197.818 65.4961L195.883 65.9776L196.124 66.948ZM201.93 65.5035L203.865 65.022L203.623 64.0516L201.688 64.5331L201.93 65.5035ZM207.735 64.0591L209.67 63.5776L209.429 62.6072L207.494 63.0887L207.735 64.0591ZM213.541 62.6146L215.476 62.1332L215.234 61.1627L213.299 61.6442L213.541 62.6146ZM219.346 61.1702L221.281 60.6887L221.04 59.7183L219.105 60.1998L219.346 61.1702ZM225.152 59.7258L226.119 59.485L225.878 58.5146L224.91 58.7553L225.152 59.7258ZM225.504 59.0758L225.656 60.0607L226.644 59.9086L226.493 58.9238L225.504 59.0758ZM226.262 64.0001L226.565 65.9698L227.553 65.8177L227.25 63.848L226.262 64.0001ZM227.171 69.9092L227.474 71.8789L228.463 71.7268L228.159 69.7571L227.171 69.9092ZM228.08 75.8183L228.383 77.788L229.372 77.6359L229.069 75.6662L228.08 75.8183ZM228.989 81.7274L229.292 83.6971L230.281 83.5451L229.978 81.5754L228.989 81.7274ZM229.899 87.6365L230.202 89.6062L231.19 89.4542L230.887 87.4845L229.899 87.6365ZM230.808 93.5456L231.111 95.5153L232.099 95.3633L231.796 93.3936L230.808 93.5456ZM231.717 99.4547L232.02 101.424L233.008 101.272L232.705 99.3027L231.717 99.4547ZM232.626 105.364L232.929 107.334L233.917 107.181L233.614 105.212L232.626 105.364ZM233.535 111.273L233.838 113.243L234.827 113.091L234.524 111.121L233.535 111.273ZM234.444 117.182L234.747 119.152L235.736 119L235.433 117.03L234.444 117.182ZM235.354 123.091L235.505 124.076L236.493 123.924L236.342 122.939L235.354 123.091ZM235.786 124.452L236.68 124.874L237.107 123.969L236.212 123.548L235.786 124.452ZM240.258 126.559L242.046 127.401L242.473 126.497L240.684 125.654L240.258 126.559ZM245.624 129.086L247.412 129.929L247.839 129.024L246.05 128.182L245.624 129.086ZM250.99 131.614L252.778 132.457L253.204 131.552L251.416 130.709L250.99 131.614ZM256.356 134.142L258.144 134.984L258.57 134.08L256.782 133.237L256.356 134.142ZM261.722 136.669L263.51 137.512L263.936 136.607L262.148 135.765L261.722 136.669ZM267.088 139.197L268.876 140.04L269.302 139.135L267.514 138.292L267.088 139.197ZM272.454 141.725L274.242 142.567L274.668 141.663L272.88 140.82L272.454 141.725ZM277.819 144.252L278.714 144.674L279.14 143.769L278.246 143.348L277.819 144.252ZM278.976 144.719L279.936 144.623L279.837 143.628L278.877 143.724L278.976 144.719ZM283.774 144.242L285.693 144.051L285.594 143.056L283.675 143.247L283.774 144.242ZM289.531 143.67L291.45 143.479L291.351 142.484L289.432 142.675L289.531 143.67ZM295.288 143.098L297.208 142.907L297.109 141.912L295.19 142.103L295.288 143.098ZM301.046 142.526L302.965 142.335L302.866 141.34L300.947 141.53L301.046 142.526ZM306.803 141.953L308.722 141.763L308.623 140.768L306.704 140.958L306.803 141.953ZM312.56 141.381L314.479 141.191L314.38 140.195L312.461 140.386L312.56 141.381ZM318.317 140.809L320.237 140.618L320.138 139.623L318.219 139.814L318.317 140.809ZM324.075 140.237L325.994 140.046L325.895 139.051L323.976 139.242L324.075 140.237ZM329.832 139.665L331.751 139.474L331.652 138.479L329.733 138.67L329.832 139.665ZM335.589 139.093L336.549 138.997L336.45 138.002L335.49 138.098L335.589 139.093ZM336.157 138.864L336.955 139.614L337.64 138.885L336.842 138.135L336.157 138.864ZM340.149 142.614L341.746 144.114L342.431 143.385L340.834 141.885L340.149 142.614ZM344.94 147.114L346.537 148.614L347.221 147.885L345.625 146.385L344.94 147.114ZM349.731 151.614L351.327 153.114L352.012 152.385L350.415 150.885L349.731 151.614ZM354.521 156.114L356.118 157.614L356.803 156.885L355.206 155.385L354.521 156.114ZM359.312 160.614L360.11 161.364L360.795 160.635L359.997 159.885L359.312 160.614ZM359.955 161.051L360.063 162.11L361.058 162.009L360.95 160.949L359.955 161.051ZM360.496 166.348L360.713 168.467L361.708 168.366L361.491 166.247L360.496 166.348ZM361.146 172.705L361.363 174.825L362.357 174.723L362.141 172.604L361.146 172.705ZM361.796 179.063L362.012 181.182L363.007 181.08L362.79 178.961L361.796 179.063ZM362.445 185.42L362.662 187.539L363.656 187.437L363.44 185.318L362.445 185.42ZM363.095 191.777L363.311 193.896L364.306 193.794L364.089 191.675L363.095 191.777ZM363.744 198.134L363.961 200.253L364.955 200.152L364.739 198.033L363.744 198.134ZM364.394 204.491L364.502 205.551L365.497 205.449L365.388 204.39L364.394 204.491ZM364.627 205.166L363.87 206.009L364.613 206.677L365.371 205.834L364.627 205.166ZM360.839 209.38L360.081 210.223L360.824 210.892L361.582 210.049L360.839 209.38ZM360.229 211.005L361.105 211.443L361.552 210.548L360.676 210.11L360.229 211.005ZM364.608 213.195L366.359 214.072L366.807 213.177L365.055 212.301L364.608 213.195ZM369.863 215.824L371.614 216.7L372.061 215.806L370.31 214.93L369.863 215.824ZM375.117 218.453L376.869 219.329L377.316 218.434L375.565 217.558L375.117 218.453ZM380.372 221.081L382.123 221.957L382.571 221.063L380.819 220.187L380.372 221.081ZM385.626 223.71L387.378 224.586L387.825 223.692L386.074 222.816L385.626 223.71ZM390.881 226.339L392.633 227.215L393.08 226.32L391.329 225.444L390.881 226.339ZM396.136 228.967L397.887 229.843L398.335 228.949L396.583 228.073L396.136 228.967ZM401.39 231.596L403.142 232.472L403.589 231.578L401.838 230.702L401.39 231.596ZM406.645 234.225L408.397 235.101L408.844 234.206L407.092 233.33L406.645 234.225ZM411.9 236.853L412.776 237.291L413.223 236.397L412.347 235.959L411.9 236.853ZM413.306 237.239L414.07 236.646L413.457 235.856L412.693 236.449L413.306 237.239ZM417.125 234.275L418.653 233.089L418.04 232.299L416.512 233.485L417.125 234.275ZM421.708 230.717L423.236 229.532L422.623 228.742L421.095 229.927L421.708 230.717ZM426.291 227.16L427.819 225.974L427.206 225.184L425.678 226.37L426.291 227.16ZM430.875 223.603L432.402 222.417L431.789 221.627L430.262 222.813L430.875 223.603ZM435.458 220.045L436.986 218.86L436.372 218.07L434.845 219.255L435.458 220.045ZM440.041 216.488L440.805 215.895L440.192 215.105L439.428 215.698L440.041 216.488ZM440.316 215.966L441.166 216.299L441.531 215.368L440.681 215.035L440.316 215.966ZM444.566 217.632L446.266 218.299L446.631 217.368L444.931 216.701L444.566 217.632ZM449.666 219.632L451.366 220.299L451.731 219.368L450.031 218.701L449.666 219.632ZM454.766 221.632L456.466 222.299L456.831 221.368L455.131 220.701L454.766 221.632ZM459.866 223.632L461.566 224.299L461.931 223.368L460.231 222.701L459.866 223.632ZM464.966 225.632L465.816 225.966L466.181 225.035L465.331 224.701L464.966 225.632ZM465.564 225.748L466.098 226.681L466.966 226.185L466.433 225.252L465.564 225.748ZM468.231 230.415L469.298 232.281L470.166 231.785L469.099 229.919L468.231 230.415ZM471.431 236.015L472.498 237.881L473.366 237.385L472.299 235.519L471.431 236.015ZM474.631 241.615L475.698 243.481L476.566 242.985L475.499 241.119L474.631 241.615ZM477.831 247.215L478.898 249.081L479.766 248.585L478.699 246.719L477.831 247.215ZM481.031 252.815L481.564 253.748L482.433 253.252L481.899 252.319L481.031 252.815ZM481.504 253.575L481.643 254.492L482.632 254.342L482.493 253.425L481.504 253.575ZM482.198 258.158L482.476 259.992L483.465 259.842L483.187 258.009L482.198 258.158ZM483.032 263.658L483.31 265.492L484.298 265.342L484.021 263.509L483.032 263.658ZM483.865 269.158L484.143 270.992L485.132 270.842L484.854 269.009L483.865 269.158ZM484.698 274.658L484.976 276.492L485.965 276.342L485.687 274.509L484.698 274.658ZM485.532 280.158L485.81 281.992L486.798 281.842L486.521 280.009L485.532 280.158ZM486.365 285.658L486.504 286.575L487.493 286.425L487.354 285.509L486.365 285.658ZM486.824 286.969L487.72 287.302L488.069 286.365L487.173 286.031L486.824 286.969ZM491.303 288.635L493.095 289.302L493.444 288.365L491.652 287.698L491.303 288.635ZM496.678 290.635L498.47 291.302L498.819 290.365L497.027 289.698L496.678 290.635ZM502.053 292.635L503.845 293.302L504.194 292.365L502.402 291.698L502.053 292.635ZM507.428 294.635L508.324 294.969L508.673 294.031L507.777 293.698L507.428 294.635ZM508.057 294.265L507.587 295.146L508.469 295.616L508.94 294.736L508.057 294.265ZM505.706 298.669L504.766 300.431L505.648 300.902L506.589 299.14L505.706 298.669ZM502.885 303.955L501.945 305.717L502.827 306.188L503.767 304.426L502.885 303.955ZM500.064 309.241L499.124 311.003L500.006 311.474L500.946 309.712L500.064 309.241ZM497.243 314.527L496.302 316.288L497.185 316.759L498.125 314.997L497.243 314.527ZM494.422 319.812L493.481 321.574L494.363 322.045L495.304 320.283L494.422 319.812ZM491.6 325.098L490.66 326.86L491.542 327.331L492.483 325.569L491.6 325.098ZM488.779 330.384L488.309 331.265L489.191 331.736L489.661 330.855L488.779 330.384ZM488.585 331.028L487.738 331.324L488.068 332.268L488.915 331.972L488.585 331.028ZM484.348 332.509L482.653 333.101L482.983 334.045L484.678 333.453L484.348 332.509ZM479.263 334.285L477.568 334.878L477.898 335.822L479.593 335.229L479.263 334.285ZM474.178 336.062L473.331 336.358L473.661 337.302L474.508 337.006L474.178 336.062Z" fill="#87A4BC"/>
<g filter="url(#filter0_d_5088_63153)">
<circle cx="477" cy="337" r="3" fill="#0C99CF"/>
<circle cx="477" cy="337" r="4" stroke="white" stroke-width="2"/>
</g>
<path d="M431.025 328V317.979H434.785C435.551 317.979 436.164 318.081 436.624 318.286C437.089 318.487 437.451 318.799 437.711 319.223C437.975 319.642 438.107 320.082 438.107 320.542C438.107 320.97 437.991 321.374 437.759 321.752C437.526 322.13 437.175 322.436 436.706 322.668C437.312 322.846 437.777 323.149 438.101 323.577C438.429 324.006 438.593 324.511 438.593 325.095C438.593 325.564 438.493 326.002 438.292 326.407C438.096 326.808 437.852 327.118 437.561 327.337C437.269 327.556 436.902 327.722 436.46 327.836C436.022 327.945 435.485 328 434.847 328H431.025ZM432.352 322.189H434.519C435.106 322.189 435.528 322.151 435.783 322.073C436.12 321.973 436.373 321.807 436.542 321.574C436.715 321.342 436.802 321.05 436.802 320.699C436.802 320.367 436.722 320.075 436.562 319.824C436.403 319.569 436.175 319.396 435.879 319.305C435.583 319.209 435.075 319.161 434.354 319.161H432.352V322.189ZM432.352 326.817H434.847C435.275 326.817 435.576 326.801 435.749 326.77C436.054 326.715 436.31 326.624 436.515 326.496C436.72 326.368 436.888 326.184 437.021 325.942C437.153 325.696 437.219 325.414 437.219 325.095C437.219 324.721 437.123 324.397 436.932 324.124C436.74 323.846 436.474 323.652 436.132 323.543C435.795 323.429 435.307 323.372 434.669 323.372H432.352V326.817ZM440.377 328V317.979H442.373L444.745 325.074C444.964 325.735 445.123 326.229 445.224 326.558C445.338 326.193 445.515 325.658 445.757 324.951L448.156 317.979H449.94V328H448.662V319.612L445.75 328H444.554L441.655 319.469V328H440.377ZM454.63 328V319.161H451.328V317.979H459.271V319.161H455.956V328H454.63ZM460.652 317.979H468.534V328H467.201V319.161H461.979V328H460.652V317.979Z" fill="white"/>
<path d="M1.08008 93V82.9785H4.86035C5.52572 82.9785 6.03385 83.0104 6.38477 83.0742C6.87695 83.1562 7.28939 83.3135 7.62207 83.5459C7.95475 83.7738 8.22135 84.0951 8.42188 84.5098C8.62695 84.9245 8.72949 85.3802 8.72949 85.877C8.72949 86.7292 8.45833 87.4515 7.91602 88.0439C7.3737 88.6318 6.39388 88.9258 4.97656 88.9258H2.40625V93H1.08008ZM2.40625 87.7432H4.99707C5.85384 87.7432 6.46224 87.5837 6.82227 87.2646C7.18229 86.9456 7.3623 86.4967 7.3623 85.918C7.3623 85.4987 7.25521 85.141 7.04102 84.8447C6.83138 84.5439 6.55339 84.3457 6.20703 84.25C5.98372 84.1908 5.57129 84.1611 4.96973 84.1611H2.40625V87.7432ZM9.1875 89.3701C9.1875 88.0257 9.5612 87.0299 10.3086 86.3828C10.9329 85.8451 11.694 85.5762 12.5918 85.5762C13.5898 85.5762 14.4056 85.9043 15.0391 86.5605C15.6725 87.2122 15.9893 88.1146 15.9893 89.2676C15.9893 90.2018 15.848 90.9378 15.5654 91.4756C15.2874 92.0088 14.8796 92.4235 14.3418 92.7197C13.8086 93.016 13.2253 93.1641 12.5918 93.1641C11.5755 93.1641 10.7529 92.8382 10.124 92.1865C9.49967 91.5348 9.1875 90.596 9.1875 89.3701ZM10.4521 89.3701C10.4521 90.2998 10.6549 90.9971 11.0605 91.4619C11.4661 91.9222 11.9766 92.1523 12.5918 92.1523C13.2025 92.1523 13.7106 91.9199 14.1162 91.4551C14.5218 90.9902 14.7246 90.2816 14.7246 89.3291C14.7246 88.4313 14.5195 87.7523 14.1094 87.292C13.7038 86.8271 13.1979 86.5947 12.5918 86.5947C11.9766 86.5947 11.4661 86.8249 11.0605 87.2852C10.6549 87.7454 10.4521 88.4404 10.4521 89.3701ZM22.1758 90.3408L23.3857 90.498C23.2536 91.332 22.9141 91.986 22.3672 92.46C21.8249 92.9294 21.1572 93.1641 20.3643 93.1641C19.3708 93.1641 18.571 92.8405 17.9648 92.1934C17.3633 91.5417 17.0625 90.6097 17.0625 89.3975C17.0625 88.6136 17.1924 87.9277 17.4521 87.3398C17.7119 86.752 18.1061 86.3122 18.6348 86.0205C19.168 85.7243 19.7467 85.5762 20.3711 85.5762C21.1595 85.5762 21.8044 85.7767 22.3057 86.1777C22.807 86.5742 23.1283 87.1393 23.2695 87.873L22.0732 88.0576C21.9593 87.57 21.7565 87.2031 21.4648 86.957C21.1777 86.7109 20.8291 86.5879 20.4189 86.5879C19.7992 86.5879 19.2956 86.8112 18.9082 87.2578C18.5208 87.6999 18.3271 88.4017 18.3271 89.3633C18.3271 90.3385 18.514 91.0472 18.8877 91.4893C19.2614 91.9313 19.749 92.1523 20.3506 92.1523C20.8337 92.1523 21.237 92.0042 21.5605 91.708C21.8841 91.4118 22.0892 90.9561 22.1758 90.3408ZM23.7754 85.7402H29.6748V86.7588H27.3369V93H26.1133V86.7588H23.7754V85.7402ZM30.2285 89.3701C30.2285 88.0257 30.6022 87.0299 31.3496 86.3828C31.974 85.8451 32.735 85.5762 33.6328 85.5762C34.6309 85.5762 35.4466 85.9043 36.0801 86.5605C36.7135 87.2122 37.0303 88.1146 37.0303 89.2676C37.0303 90.2018 36.889 90.9378 36.6064 91.4756C36.3285 92.0088 35.9206 92.4235 35.3828 92.7197C34.8496 93.016 34.2663 93.1641 33.6328 93.1641C32.6165 93.1641 31.7939 92.8382 31.165 92.1865C30.5407 91.5348 30.2285 90.596 30.2285 89.3701ZM31.4932 89.3701C31.4932 90.2998 31.696 90.9971 32.1016 91.4619C32.5072 91.9222 33.0176 92.1523 33.6328 92.1523C34.2435 92.1523 34.7516 91.9199 35.1572 91.4551C35.5628 90.9902 35.7656 90.2816 35.7656 89.3291C35.7656 88.4313 35.5605 87.7523 35.1504 87.292C34.7448 86.8271 34.2389 86.5947 33.6328 86.5947C33.0176 86.5947 32.5072 86.8249 32.1016 87.2852C31.696 87.7454 31.4932 88.4404 31.4932 89.3701ZM38.4863 85.7402H41.3232C42.0205 85.7402 42.5378 85.7995 42.875 85.918C43.2168 86.0319 43.5085 86.2438 43.75 86.5537C43.9961 86.8636 44.1191 87.235 44.1191 87.668C44.1191 88.0143 44.0462 88.3174 43.9004 88.5771C43.7591 88.8324 43.5449 89.0465 43.2578 89.2197C43.5996 89.3337 43.8822 89.5479 44.1055 89.8623C44.3333 90.1722 44.4473 90.5413 44.4473 90.9697C44.4017 91.6579 44.1556 92.1683 43.709 92.501C43.2624 92.8337 42.613 93 41.7607 93H38.4863V85.7402ZM39.7168 88.7959H41.0293C41.5534 88.7959 41.9134 88.7686 42.1094 88.7139C42.3053 88.6592 42.4808 88.5498 42.6357 88.3857C42.7907 88.2171 42.8682 88.0166 42.8682 87.7842C42.8682 87.4014 42.7314 87.1348 42.458 86.9844C42.1891 86.834 41.7266 86.7588 41.0703 86.7588H39.7168V88.7959ZM39.7168 91.9883H41.3369C42.0342 91.9883 42.5127 91.9085 42.7725 91.749C43.0322 91.585 43.1689 91.3047 43.1826 90.9082C43.1826 90.6758 43.1074 90.4616 42.957 90.2656C42.8066 90.0651 42.6107 89.9398 42.3691 89.8896C42.1276 89.835 41.7402 89.8076 41.207 89.8076H39.7168V91.9883ZM45.4385 89.9922V88.7549H49.2188V89.9922H45.4385ZM50.5859 85.7402H51.8164V88.7617H55.2275V85.7402H56.458V93H55.2275V89.7803H51.8164V93H50.5859V85.7402ZM63.0547 92.1045C62.599 92.4919 62.1592 92.7653 61.7354 92.9248C61.3161 93.0843 60.8649 93.1641 60.3818 93.1641C59.5843 93.1641 58.9714 92.9704 58.543 92.583C58.1146 92.1911 57.9004 91.6921 57.9004 91.0859C57.9004 90.7305 57.9801 90.4069 58.1396 90.1152C58.3037 89.819 58.5156 89.582 58.7754 89.4043C59.0397 89.2266 59.3359 89.0921 59.6641 89.001C59.9056 88.9372 60.2702 88.8757 60.7578 88.8164C61.7513 88.6979 62.4827 88.5566 62.9521 88.3926C62.9567 88.224 62.959 88.1169 62.959 88.0713C62.959 87.57 62.8428 87.2168 62.6104 87.0117C62.2959 86.7337 61.8288 86.5947 61.209 86.5947C60.6302 86.5947 60.2018 86.6973 59.9238 86.9023C59.6504 87.1029 59.4476 87.4606 59.3154 87.9756L58.1123 87.8115C58.2217 87.2965 58.4017 86.8818 58.6523 86.5674C58.903 86.2484 59.2653 86.0046 59.7393 85.8359C60.2132 85.6628 60.7624 85.5762 61.3867 85.5762C62.0065 85.5762 62.5101 85.6491 62.8975 85.7949C63.2848 85.9408 63.5697 86.1253 63.752 86.3486C63.9342 86.5674 64.0618 86.8454 64.1348 87.1826C64.1758 87.3923 64.1963 87.7705 64.1963 88.3174V89.958C64.1963 91.1019 64.2214 91.8265 64.2715 92.1318C64.3262 92.4326 64.431 92.722 64.5859 93H63.3008C63.1732 92.7448 63.0911 92.4463 63.0547 92.1045ZM62.9521 89.3564C62.5055 89.5387 61.8356 89.6937 60.9424 89.8213C60.4365 89.8942 60.0788 89.9762 59.8691 90.0674C59.6595 90.1585 59.4977 90.293 59.3838 90.4707C59.2699 90.6439 59.2129 90.8376 59.2129 91.0518C59.2129 91.3799 59.3359 91.6533 59.582 91.8721C59.8327 92.0908 60.1973 92.2002 60.6758 92.2002C61.1497 92.2002 61.5713 92.0977 61.9404 91.8926C62.3096 91.6829 62.5807 91.3981 62.7539 91.0381C62.8861 90.7601 62.9521 90.3499 62.9521 89.8076V89.3564ZM65.6318 89.9922V88.7549H69.4121V89.9922H65.6318ZM71.8389 82.9785H77.9365V91.8174H78.8389V95.3379H77.6562V93H71.0322V95.3379H69.8496V91.8174H70.6289C71.4355 90.6006 71.8389 88.1419 71.8389 84.4414V82.9785ZM76.6104 84.1611H73.1172V84.6738C73.1172 85.526 73.0397 86.6927 72.8848 88.1738C72.7344 89.6504 72.4359 90.8649 71.9893 91.8174H76.6104V84.1611ZM79.9668 89.3701C79.9668 88.0257 80.3405 87.0299 81.0879 86.3828C81.7122 85.8451 82.4733 85.5762 83.3711 85.5762C84.3691 85.5762 85.1849 85.9043 85.8184 86.5605C86.4518 87.2122 86.7686 88.1146 86.7686 89.2676C86.7686 90.2018 86.6273 90.9378 86.3447 91.4756C86.0667 92.0088 85.6589 92.4235 85.1211 92.7197C84.5879 93.016 84.0046 93.1641 83.3711 93.1641C82.3548 93.1641 81.5322 92.8382 80.9033 92.1865C80.279 91.5348 79.9668 90.596 79.9668 89.3701ZM81.2314 89.3701C81.2314 90.2998 81.4342 90.9971 81.8398 91.4619C82.2454 91.9222 82.7559 92.1523 83.3711 92.1523C83.9818 92.1523 84.4899 91.9199 84.8955 91.4551C85.3011 90.9902 85.5039 90.2816 85.5039 89.3291C85.5039 88.4313 85.2988 87.7523 84.8887 87.292C84.4831 86.8271 83.9772 86.5947 83.3711 86.5947C82.7559 86.5947 82.2454 86.8249 81.8398 87.2852C81.4342 87.7454 81.2314 88.4404 81.2314 89.3701ZM88.2246 85.7402H89.4551V88.7617H92.8662V85.7402H94.0967V93H92.8662V89.7803H89.4551V93H88.2246V85.7402ZM95.9014 95.7959L95.7646 94.6406C96.0335 94.7135 96.2682 94.75 96.4688 94.75C96.7422 94.75 96.9609 94.7044 97.125 94.6133C97.2891 94.5221 97.4235 94.3945 97.5283 94.2305C97.6058 94.1074 97.7311 93.8021 97.9043 93.3145C97.9271 93.2461 97.9635 93.1458 98.0137 93.0137L95.2588 85.7402H96.585L98.0957 89.9443C98.2917 90.4775 98.4671 91.0381 98.6221 91.626C98.7633 91.0609 98.932 90.5094 99.1279 89.9717L100.68 85.7402H101.91L99.1484 93.123C98.8522 93.9206 98.6221 94.4697 98.458 94.7705C98.2393 95.1761 97.9886 95.4723 97.7061 95.6592C97.4235 95.8506 97.0863 95.9463 96.6943 95.9463C96.4574 95.9463 96.193 95.8962 95.9014 95.7959Z" fill="white"/>
<g filter="url(#filter1_d_5088_63153)">
<circle cx="52" cy="102" r="2" fill="#0C99CF"/>
<circle cx="52" cy="102" r="2.5" stroke="white"/>
</g>
<defs>
<filter id="filter0_d_5088_63153" x="470.163" y="331.388" width="13.6731" height="13.6731" filterUnits="userSpaceOnUse" color-interpolation-filters="sRGB">
<feFlood flood-opacity="0" result="BackgroundImageFix"/>
<feColorMatrix in="SourceAlpha" type="matrix" values="0 0 0 0 0 0 0 0 0 0 0 0 0 0 0 0 0 0 127 0" result="hardAlpha"/>
<feOffset dy="1.22437"/>
<feGaussianBlur stdDeviation="0.918278"/>
<feColorMatrix type="matrix" values="0 0 0 0 0 0 0 0 0 0 0 0 0 0 0 0 0 0 0.2 0"/>
<feBlend mode="normal" in2="BackgroundImageFix" result="effect1_dropShadow_5088_63153"/>
<feBlend mode="normal" in="SourceGraphic" in2="effect1_dropShadow_5088_63153" result="shape"/>
</filter>
<filter id="filter1_d_5088_63153" x="47.1634" y="98.3878" width="9.67311" height="9.67311" filterUnits="userSpaceOnUse" color-interpolation-filters="sRGB">
<feFlood flood-opacity="0" result="BackgroundImageFix"/>
<feColorMatrix in="SourceAlpha" type="matrix" values="0 0 0 0 0 0 0 0 0 0 0 0 0 0 0 0 0 0 127 0" result="hardAlpha"/>
<feOffset dy="1.22437"/>
<feGaussianBlur stdDeviation="0.918278"/>
<feColorMatrix type="matrix" values="0 0 0 0 0 0 0 0 0 0 0 0 0 0 0 0 0 0 0.2 0"/>
<feBlend mode="normal" in2="BackgroundImageFix" result="effect1_dropShadow_5088_63153"/>
<feBlend mode="normal" in="SourceGraphic" in2="effect1_dropShadow_5088_63153" result="shape"/>
</filter>
</defs>
</svg>
