<svg width="407" height="283" viewBox="0 0 407 283" fill="none" xmlns="http://www.w3.org/2000/svg">
<path d="M357.752 256.5L357.917 256.972L358.101 256.908L358.193 256.736L357.752 256.5ZM377.5 219.5L377.941 219.736L378.21 219.231L377.674 219.032L377.5 219.5ZM356 211.5L355.506 211.575L355.55 211.866L355.826 211.969L356 211.5ZM351 178.5L351.494 178.426L351.48 178.333L351.434 178.252L351 178.5ZM335 150.5L335.434 150.252L335.347 150.099L335.182 150.035L335 150.5ZM309.5 140.5L309.682 140.035L309.418 139.931L309.193 140.105L309.5 140.5ZM282.001 161.844L281.777 162.292L282.059 162.433L282.307 162.239L282.001 161.844ZM229.454 135.558L229.082 135.224L228.644 135.712L229.23 136.005L229.454 135.558ZM234.001 130.5L234.373 130.835L234.521 130.67L234.498 130.45L234.001 130.5ZM229.454 86.0001L229.952 85.9493L229.933 85.7635L229.796 85.6357L229.454 86.0001ZM205.501 63.5001L205.843 63.1357L205.678 62.9801L205.451 63.0026L205.501 63.5001ZM147.928 69.2216L147.715 69.6739L147.84 69.7328L147.978 69.7191L147.928 69.2216ZM105.001 49.0003L105.214 48.548L105.066 48.4785L104.906 48.5093L105.001 49.0003ZM40.0008 61.5001L39.9064 61.0091L39.5166 61.084L39.5012 61.4806L40.0008 61.5001ZM36.5012 138.481C36.4904 138.757 36.7054 138.989 36.9813 139C37.2573 139.01 37.4897 138.795 37.5004 138.52L36.5012 138.481ZM39.0657 85.5001L38.5661 85.4806L39.0657 85.5001ZM37.5387 137.538C37.5494 137.262 37.3344 137.03 37.0585 137.019C36.7826 137.008 36.5502 137.223 36.5394 137.499L37.5387 137.538ZM36.6924 133.573C36.6816 133.849 36.8966 134.082 37.1725 134.092C37.4485 134.103 37.6809 133.888 37.6916 133.612L36.6924 133.573ZM37.7681 131.649C37.7788 131.373 37.5639 131.141 37.2879 131.13C37.012 131.119 36.7796 131.334 36.7688 131.61L37.7681 131.649ZM36.9218 127.684C36.9111 127.96 37.126 128.193 37.402 128.203C37.6779 128.214 37.9103 127.999 37.921 127.723L36.9218 127.684ZM37.9975 125.76C38.0083 125.484 37.7933 125.252 37.5174 125.241C37.2414 125.23 37.009 125.445 36.9983 125.721L37.9975 125.76ZM37.1512 121.795C37.1405 122.071 37.3555 122.304 37.6314 122.315C37.9073 122.325 38.1397 122.11 38.1505 121.834L37.1512 121.795ZM38.227 119.871C38.2377 119.595 38.0227 119.363 37.7468 119.352C37.4709 119.342 37.2385 119.557 37.2277 119.832L38.227 119.871ZM37.3807 115.907C37.3699 116.182 37.5849 116.415 37.8608 116.426C38.1368 116.436 38.3692 116.221 38.3799 115.945L37.3807 115.907ZM38.4564 113.983C38.4671 113.707 38.2522 113.474 37.9762 113.463C37.7003 113.453 37.4679 113.668 37.4571 113.944L38.4564 113.983ZM37.6101 110.018C37.5994 110.294 37.8143 110.526 38.0903 110.537C38.3662 110.547 38.5986 110.333 38.6094 110.057L37.6101 110.018ZM38.6858 108.094C38.6966 107.818 38.4816 107.585 38.2057 107.575C37.9297 107.564 37.6973 107.779 37.6866 108.055L38.6858 108.094ZM37.8395 104.129C37.8288 104.405 38.0438 104.637 38.3197 104.648C38.5956 104.659 38.828 104.444 38.8388 104.168L37.8395 104.129ZM38.9153 102.205C38.926 101.929 38.711 101.696 38.4351 101.686C38.1592 101.675 37.9268 101.89 37.916 102.166L38.9153 102.205ZM38.069 98.2399C38.0582 98.5158 38.2732 98.7482 38.5491 98.759C38.8251 98.7697 39.0575 98.5547 39.0682 98.2788L38.069 98.2399ZM39.1447 96.3158C39.1555 96.0399 38.9405 95.8075 38.6645 95.7968C38.3886 95.786 38.1562 96.001 38.1455 96.2769L39.1447 96.3158ZM38.2984 92.351C38.2877 92.6269 38.5026 92.8593 38.7786 92.8701C39.0545 92.8808 39.2869 92.6658 39.2977 92.3899L38.2984 92.351ZM39.3741 90.427C39.3849 90.151 39.1699 89.9186 38.894 89.9079C38.618 89.8971 38.3856 90.1121 38.3749 90.388L39.3741 90.427ZM38.5279 86.4621C38.5171 86.738 38.7321 86.9704 39.008 86.9812C39.2839 86.9919 39.5163 86.777 39.5271 86.501L38.5279 86.4621ZM39.6043 84.5195C39.615 84.2436 39.4001 84.0112 39.1241 84.0005C38.8482 83.9897 38.6158 84.2047 38.6051 84.4806L39.6043 84.5195ZM38.7609 80.4806C38.7501 80.7565 38.9651 80.989 39.2411 80.9997C39.517 81.0105 39.7494 80.7955 39.7601 80.5195L38.7609 80.4806ZM39.8381 78.5195C39.8488 78.2436 39.6338 78.0112 39.3579 78.0005C39.082 77.9897 38.8496 78.2047 38.8388 78.4806L39.8381 78.5195ZM38.9947 74.4806C38.9839 74.7566 39.1989 74.989 39.4748 74.9997C39.7508 75.0105 39.9832 74.7955 39.9939 74.5195L38.9947 74.4806ZM40.0718 72.5195C40.0826 72.2436 39.8676 72.0112 39.5917 72.0005C39.3157 71.9897 39.0833 72.2047 39.0726 72.4806L40.0718 72.5195ZM39.2284 68.4806C39.2177 68.7566 39.4327 68.989 39.7086 68.9997C39.9845 69.0105 40.2169 68.7955 40.2277 68.5196L39.2284 68.4806ZM40.3056 66.5196C40.3163 66.2436 40.1014 66.0112 39.8254 66.0005C39.5495 65.9897 39.3171 66.2047 39.3064 66.4806L40.3056 66.5196ZM39.4622 62.4806C39.4514 62.7566 39.6664 62.989 39.9424 62.9997C40.2183 63.0105 40.4507 62.7955 40.4614 62.5196L39.4622 62.4806ZM41.08 61.8017C41.3512 61.7496 41.5288 61.4874 41.4766 61.2163C41.4245 60.9451 41.1624 60.7675 40.8912 60.8197L41.08 61.8017ZM44.8306 60.0621C44.5594 60.1143 44.3819 60.3764 44.434 60.6476C44.4862 60.9187 44.7483 61.0963 45.0194 61.0441L44.8306 60.0621ZM46.9891 60.6654C47.2603 60.6132 47.4379 60.3511 47.3857 60.0799C47.3336 59.8088 47.0715 59.6312 46.8003 59.6833L46.9891 60.6654ZM50.7397 58.9258C50.4685 58.9779 50.291 59.24 50.3431 59.5112C50.3952 59.7824 50.6574 59.9599 50.9285 59.9078L50.7397 58.9258ZM52.8982 59.529C53.1694 59.4769 53.347 59.2148 53.2948 58.9436C53.2427 58.6724 52.9806 58.4949 52.7094 58.547L52.8982 59.529ZM56.6488 57.7894C56.3776 57.8416 56.2 58.1037 56.2522 58.3749C56.3043 58.646 56.5664 58.8236 56.8376 58.7714L56.6488 57.7894ZM58.8073 58.3927C59.0785 58.3405 59.256 58.0784 59.2039 57.8072C59.1517 57.5361 58.8896 57.3585 58.6185 57.4107L58.8073 58.3927ZM62.5579 56.6531C62.2867 56.7052 62.1091 56.9674 62.1613 57.2385C62.2134 57.5097 62.4755 57.6873 62.7467 57.6351L62.5579 56.6531ZM64.7164 57.2563C64.9876 57.2042 65.1651 56.9421 65.113 56.6709C65.0608 56.3997 64.7987 56.2222 64.5275 56.2743L64.7164 57.2563ZM68.4669 55.5168C68.1958 55.5689 68.0182 55.831 68.0704 56.1022C68.1225 56.3734 68.3846 56.5509 68.6558 56.4988L68.4669 55.5168ZM70.6255 56.12C70.8967 56.0678 71.0742 55.8057 71.0221 55.5346C70.9699 55.2634 70.7078 55.0858 70.4366 55.138L70.6255 56.12ZM74.376 54.3804C74.1049 54.4326 73.9273 54.6947 73.9794 54.9658C74.0316 55.237 74.2937 55.4146 74.5649 55.3624L74.376 54.3804ZM76.5346 54.9836C76.8057 54.9315 76.9833 54.6694 76.9312 54.3982C76.879 54.127 76.6169 53.9495 76.3457 54.0016L76.5346 54.9836ZM80.2851 53.2441C80.0139 53.2962 79.8364 53.5583 79.8885 53.8295C79.9407 54.1007 80.2028 54.2782 80.474 54.2261L80.2851 53.2441ZM82.4437 53.8473C82.7148 53.7951 82.8924 53.533 82.8402 53.2619C82.7881 52.9907 82.526 52.8131 82.2548 52.8653L82.4437 53.8473ZM86.1942 52.1077C85.923 52.1599 85.7455 52.422 85.7976 52.6932C85.8498 52.9643 86.1119 53.1419 86.383 53.0897L86.1942 52.1077ZM88.3527 52.711C88.6239 52.6588 88.8015 52.3967 88.7493 52.1255C88.6972 51.8544 88.4351 51.6768 88.1639 51.7289L88.3527 52.711ZM92.1033 50.9714C91.8321 51.0235 91.6546 51.2856 91.7067 51.5568C91.7589 51.828 92.021 52.0055 92.2921 51.9534L92.1033 50.9714ZM94.2618 51.5746C94.533 51.5225 94.7106 51.2604 94.6584 50.9892C94.6063 50.718 94.3442 50.5405 94.073 50.5926L94.2618 51.5746ZM98.0124 49.835C97.7412 49.8872 97.5636 50.1493 97.6158 50.4205C97.6679 50.6916 97.93 50.8692 98.2012 50.817L98.0124 49.835ZM100.171 50.4383C100.442 50.3861 100.62 50.124 100.567 49.8528C100.515 49.5817 100.253 49.4041 99.9821 49.4563L100.171 50.4383ZM103.921 48.6987C103.65 48.7508 103.473 49.0129 103.525 49.2841C103.577 49.5553 103.839 49.7329 104.11 49.6807L103.921 48.6987ZM105.682 49.8739C105.932 49.9916 106.23 49.8845 106.347 49.6347C106.465 49.3848 106.358 49.0869 106.108 48.9693L105.682 49.8739ZM109.685 50.6544C109.436 50.5367 109.138 50.6438 109.02 50.8936C108.902 51.1434 109.009 51.4413 109.259 51.559L109.685 50.6544ZM111.048 52.4016C111.298 52.5192 111.596 52.4121 111.713 52.1623C111.831 51.9125 111.724 51.6146 111.474 51.4969L111.048 52.4016ZM115.051 53.182C114.802 53.0643 114.504 53.1715 114.386 53.4213C114.268 53.6711 114.375 53.969 114.625 54.0867L115.051 53.182ZM116.414 54.9292C116.664 55.0469 116.962 54.9398 117.079 54.69C117.197 54.4402 117.09 54.1422 116.84 54.0246L116.414 54.9292ZM120.417 55.7097C120.168 55.592 119.87 55.6991 119.752 55.9489C119.634 56.1987 119.741 56.4967 119.991 56.6143L120.417 55.7097ZM121.78 57.4569C122.03 57.5746 122.328 57.4674 122.445 57.2176C122.563 56.9678 122.456 56.6699 122.206 56.5522L121.78 57.4569ZM125.783 58.2373C125.533 58.1197 125.236 58.2268 125.118 58.4766C125 58.7264 125.107 59.0243 125.357 59.142L125.783 58.2373ZM127.146 59.9845C127.396 60.1022 127.694 59.9951 127.811 59.7453C127.929 59.4955 127.822 59.1976 127.572 59.0799L127.146 59.9845ZM131.149 60.765C130.899 60.6473 130.602 60.7544 130.484 61.0042C130.366 61.2541 130.473 61.552 130.723 61.6696L131.149 60.765ZM132.512 62.5122C132.762 62.6299 133.059 62.5227 133.177 62.2729C133.295 62.0231 133.188 61.7252 132.938 61.6075L132.512 62.5122ZM136.515 63.2926C136.265 63.175 135.967 63.2821 135.85 63.5319C135.732 63.7817 135.839 64.0796 136.089 64.1973L136.515 63.2926ZM137.878 65.0398C138.128 65.1575 138.425 65.0504 138.543 64.8006C138.661 64.5508 138.554 64.2529 138.304 64.1352L137.878 65.0398ZM141.881 65.8203C141.631 65.7026 141.333 65.8097 141.216 66.0596C141.098 66.3094 141.205 66.6073 141.455 66.725L141.881 65.8203ZM143.244 67.5675C143.493 67.6852 143.791 67.5781 143.909 67.3282C144.027 67.0784 143.92 66.7805 143.67 66.6628L143.244 67.5675ZM147.247 68.348C146.997 68.2303 146.699 68.3374 146.582 68.5872C146.464 68.837 146.571 69.1349 146.821 69.2526L147.247 68.348ZM148.937 69.6237C149.212 69.5964 149.413 69.3515 149.385 69.0767C149.358 68.802 149.113 68.6013 148.838 68.6286L148.937 69.6237ZM152.677 68.2472C152.402 68.2745 152.201 68.5194 152.229 68.7942C152.256 69.069 152.501 69.2696 152.776 69.2423L152.677 68.2472ZM154.695 69.0516C154.969 69.0243 155.17 68.7794 155.143 68.5046C155.115 68.2298 154.87 68.0292 154.596 68.0565L154.695 69.0516ZM158.434 67.6751C158.159 67.7024 157.958 67.9473 157.986 68.2221C158.013 68.4969 158.258 68.6975 158.533 68.6702L158.434 67.6751ZM160.452 68.4795C160.727 68.4522 160.927 68.2073 160.9 67.9325C160.873 67.6577 160.628 67.4571 160.353 67.4844L160.452 68.4795ZM164.191 67.1029C163.916 67.1302 163.716 67.3751 163.743 67.6499C163.77 67.9247 164.015 68.1253 164.29 68.098L164.191 67.1029ZM166.209 67.9073C166.484 67.88 166.684 67.6351 166.657 67.3603C166.63 67.0855 166.385 66.8849 166.11 66.9122L166.209 67.9073ZM169.948 66.5308C169.674 66.5581 169.473 66.803 169.5 67.0778C169.528 67.3526 169.772 67.5532 170.047 67.5259L169.948 66.5308ZM171.966 67.3352C172.241 67.3079 172.442 67.063 172.414 66.7882C172.387 66.5134 172.142 66.3128 171.867 66.3401L171.966 67.3352ZM175.706 65.9587C175.431 65.986 175.23 66.2309 175.257 66.5057C175.285 66.7804 175.53 66.9811 175.804 66.9538L175.706 65.9587ZM177.724 66.763C177.998 66.7357 178.199 66.4908 178.172 66.216C178.144 65.9413 177.899 65.7406 177.625 65.7679L177.724 66.763ZM181.463 65.3865C181.188 65.4138 180.987 65.6587 181.015 65.9335C181.042 66.2083 181.287 66.4089 181.562 66.3816L181.463 65.3865ZM183.481 66.1909C183.756 66.1636 183.956 65.9187 183.929 65.6439C183.902 65.3691 183.657 65.1685 183.382 65.1958L183.481 66.1909ZM187.22 64.8144C186.945 64.8417 186.745 65.0866 186.772 65.3614C186.799 65.6362 187.044 65.8368 187.319 65.8095L187.22 64.8144ZM189.238 65.6188C189.513 65.5914 189.713 65.3466 189.686 65.0718C189.659 64.797 189.414 64.5963 189.139 64.6237L189.238 65.6188ZM192.977 64.2422C192.703 64.2695 192.502 64.5144 192.529 64.7892C192.557 65.064 192.801 65.2646 193.076 65.2373L192.977 64.2422ZM194.995 65.0466C195.27 65.0193 195.471 64.7744 195.443 64.4996C195.416 64.2248 195.171 64.0242 194.896 64.0515L194.995 65.0466ZM198.735 63.6701C198.46 63.6974 198.259 63.9423 198.286 64.2171C198.314 64.4919 198.559 64.6925 198.833 64.6652L198.735 63.6701ZM200.753 64.4745C201.027 64.4472 201.228 64.2023 201.201 63.9275C201.173 63.6527 200.928 63.4521 200.654 63.4794L200.753 64.4745ZM204.492 63.098C204.217 63.1253 204.016 63.3702 204.044 63.6449C204.071 63.9197 204.316 64.1204 204.591 64.093L204.492 63.098ZM205.957 64.6146C206.158 64.8036 206.475 64.7937 206.664 64.5925C206.853 64.3912 206.843 64.0748 206.642 63.8857L205.957 64.6146ZM209.835 66.8857C209.634 66.6966 209.318 66.7065 209.129 66.9078C208.94 67.1091 208.949 67.4255 209.151 67.6146L209.835 66.8857ZM210.748 69.1146C210.949 69.3036 211.265 69.2937 211.454 69.0925C211.643 68.8912 211.634 68.5748 211.432 68.3857L210.748 69.1146ZM214.626 71.3857C214.425 71.1966 214.108 71.2065 213.919 71.4078C213.73 71.6091 213.74 71.9255 213.941 72.1146L214.626 71.3857ZM215.538 73.6146C215.74 73.8036 216.056 73.7937 216.245 73.5925C216.434 73.3912 216.424 73.0748 216.223 72.8857L215.538 73.6146ZM219.417 75.8857C219.215 75.6966 218.899 75.7065 218.71 75.9078C218.521 76.1091 218.531 76.4255 218.732 76.6146L219.417 75.8857ZM220.329 78.1146C220.53 78.3036 220.847 78.2937 221.036 78.0925C221.225 77.8912 221.215 77.5748 221.014 77.3857L220.329 78.1146ZM224.207 80.3857C224.006 80.1966 223.69 80.2065 223.501 80.4078C223.312 80.6091 223.321 80.9255 223.523 81.1146L224.207 80.3857ZM225.12 82.6146C225.321 82.8036 225.637 82.7937 225.826 82.5925C226.015 82.3912 226.006 82.0748 225.804 81.8857L225.12 82.6146ZM228.998 84.8857C228.797 84.6966 228.48 84.7065 228.291 84.9078C228.102 85.1091 228.112 85.4255 228.313 85.6146L228.998 84.8857ZM229.065 87.1105C229.093 87.3852 229.339 87.5851 229.613 87.5571C229.888 87.529 230.088 87.2836 230.06 87.0088L229.065 87.1105ZM230.493 91.247C230.465 90.9723 230.219 90.7723 229.945 90.8004C229.67 90.8284 229.47 91.0739 229.498 91.3486L230.493 91.247ZM229.715 93.4677C229.743 93.7424 229.988 93.9423 230.263 93.9143C230.537 93.8862 230.737 93.6407 230.709 93.366L229.715 93.4677ZM231.142 97.6041C231.114 97.3294 230.869 97.1295 230.594 97.1576C230.319 97.1856 230.119 97.4311 230.148 97.7058L231.142 97.6041ZM230.364 99.8248C230.392 100.1 230.638 100.3 230.912 100.271C231.187 100.243 231.387 99.9979 231.359 99.7232L230.364 99.8248ZM231.792 103.961C231.764 103.687 231.518 103.487 231.244 103.515C230.969 103.543 230.769 103.788 230.797 104.063L231.792 103.961ZM231.014 106.182C231.042 106.457 231.287 106.657 231.562 106.629C231.836 106.601 232.036 106.355 232.008 106.08L231.014 106.182ZM232.441 110.319C232.413 110.044 232.168 109.844 231.893 109.872C231.618 109.9 231.418 110.145 231.447 110.42L232.441 110.319ZM231.663 112.539C231.691 112.814 231.937 113.014 232.211 112.986C232.486 112.958 232.686 112.712 232.658 112.438L231.663 112.539ZM233.091 116.676C233.063 116.401 232.817 116.201 232.543 116.229C232.268 116.257 232.068 116.503 232.096 116.777L233.091 116.676ZM232.313 118.896C232.341 119.171 232.586 119.371 232.861 119.343C233.136 119.315 233.335 119.069 233.307 118.795L232.313 118.896ZM233.74 123.033C233.712 122.758 233.467 122.558 233.192 122.586C232.917 122.614 232.717 122.86 232.746 123.134L233.74 123.033ZM232.962 125.254C232.99 125.528 233.236 125.728 233.51 125.7C233.785 125.672 233.985 125.427 233.957 125.152L232.962 125.254ZM234.39 129.39C234.362 129.115 234.116 128.915 233.842 128.943C233.567 128.972 233.367 129.217 233.395 129.492L234.39 129.39ZM232.871 131.009C232.687 131.214 232.703 131.531 232.909 131.715C233.114 131.9 233.43 131.883 233.615 131.678L232.871 131.009ZM230.584 135.049C230.768 134.844 230.752 134.528 230.546 134.343C230.341 134.159 230.025 134.175 229.84 134.381L230.584 135.049ZM230.106 136.443C230.353 136.567 230.654 136.467 230.777 136.22C230.901 135.973 230.801 135.672 230.554 135.549L230.106 136.443ZM234.057 137.301C233.81 137.178 233.509 137.278 233.386 137.525C233.262 137.772 233.362 138.072 233.609 138.196L234.057 137.301ZM235.361 139.072C235.608 139.195 235.908 139.095 236.032 138.848C236.155 138.601 236.055 138.301 235.808 138.177L235.361 139.072ZM239.311 139.93C239.064 139.806 238.764 139.906 238.641 140.153C238.517 140.4 238.617 140.701 238.864 140.824L239.311 139.93ZM240.616 141.7C240.863 141.824 241.163 141.724 241.286 141.477C241.41 141.23 241.31 140.93 241.063 140.806L240.616 141.7ZM244.566 142.559C244.319 142.435 244.019 142.535 243.895 142.782C243.772 143.029 243.872 143.329 244.119 143.453L244.566 142.559ZM245.87 144.329C246.117 144.453 246.418 144.353 246.541 144.106C246.665 143.859 246.565 143.558 246.318 143.435L245.87 144.329ZM249.821 145.187C249.574 145.064 249.273 145.164 249.15 145.411C249.026 145.658 249.126 145.958 249.373 146.082L249.821 145.187ZM251.125 146.958C251.372 147.081 251.672 146.981 251.796 146.734C251.919 146.487 251.819 146.187 251.572 146.063L251.125 146.958ZM255.075 147.816C254.828 147.692 254.528 147.792 254.405 148.039C254.281 148.286 254.381 148.587 254.628 148.71L255.075 147.816ZM256.38 149.586C256.626 149.71 256.927 149.61 257.05 149.363C257.174 149.116 257.074 148.816 256.827 148.692L256.38 149.586ZM260.33 150.445C260.083 150.321 259.783 150.421 259.659 150.668C259.536 150.915 259.636 151.215 259.883 151.339L260.33 150.445ZM261.634 152.215C261.881 152.339 262.182 152.239 262.305 151.992C262.429 151.745 262.329 151.444 262.082 151.321L261.634 152.215ZM265.585 153.073C265.338 152.95 265.037 153.05 264.914 153.297C264.79 153.544 264.89 153.844 265.137 153.968L265.585 153.073ZM266.889 154.844C267.136 154.967 267.436 154.867 267.56 154.62C267.683 154.373 267.583 154.073 267.336 153.949L266.889 154.844ZM270.839 155.702C270.592 155.578 270.292 155.678 270.168 155.925C270.045 156.172 270.145 156.473 270.392 156.596L270.839 155.702ZM272.143 157.472C272.39 157.596 272.691 157.496 272.814 157.249C272.938 157.002 272.838 156.702 272.591 156.578L272.143 157.472ZM276.094 158.331C275.847 158.207 275.547 158.307 275.423 158.554C275.3 158.801 275.4 159.101 275.647 159.225L276.094 158.331ZM277.398 160.101C277.645 160.225 277.945 160.125 278.069 159.878C278.193 159.631 278.093 159.33 277.846 159.207L277.398 160.101ZM281.349 160.959C281.102 160.836 280.801 160.936 280.678 161.183C280.554 161.43 280.654 161.73 280.901 161.854L281.349 160.959ZM283.071 161.647C283.289 161.477 283.329 161.163 283.16 160.945C282.99 160.727 282.676 160.687 282.458 160.857L283.071 161.647ZM285.513 158.485C285.295 158.654 285.256 158.968 285.425 159.187C285.594 159.405 285.908 159.444 286.127 159.275L285.513 158.485ZM287.654 158.089C287.873 157.92 287.912 157.606 287.743 157.388C287.573 157.17 287.259 157.13 287.041 157.299L287.654 158.089ZM290.097 154.928C289.879 155.097 289.839 155.411 290.008 155.629C290.178 155.847 290.492 155.887 290.71 155.718L290.097 154.928ZM292.238 154.532C292.456 154.363 292.495 154.048 292.326 153.83C292.157 153.612 291.843 153.573 291.624 153.742L292.238 154.532ZM294.68 151.37C294.462 151.54 294.422 151.854 294.591 152.072C294.761 152.29 295.075 152.33 295.293 152.16L294.68 151.37ZM296.821 150.975C297.039 150.805 297.078 150.491 296.909 150.273C296.74 150.055 296.426 150.015 296.208 150.185L296.821 150.975ZM299.263 147.813C299.045 147.982 299.005 148.296 299.175 148.515C299.344 148.733 299.658 148.772 299.876 148.603L299.263 147.813ZM301.404 147.417C301.622 147.248 301.662 146.934 301.492 146.716C301.323 146.497 301.009 146.458 300.791 146.627L301.404 147.417ZM303.846 144.256C303.628 144.425 303.589 144.739 303.758 144.957C303.927 145.175 304.241 145.215 304.459 145.046L303.846 144.256ZM305.987 143.86C306.205 143.691 306.245 143.376 306.076 143.158C305.906 142.94 305.592 142.901 305.374 143.07L305.987 143.86ZM308.429 140.698C308.211 140.868 308.172 141.182 308.341 141.4C308.51 141.618 308.824 141.658 309.043 141.488L308.429 140.698ZM310.167 141.299C310.424 141.4 310.715 141.273 310.815 141.016C310.916 140.759 310.789 140.469 310.532 140.368L310.167 141.299ZM313.932 141.702C313.675 141.601 313.385 141.727 313.284 141.985C313.184 142.242 313.31 142.532 313.567 142.633L313.932 141.702ZM315.267 143.299C315.524 143.4 315.815 143.273 315.915 143.016C316.016 142.759 315.889 142.469 315.632 142.368L315.267 143.299ZM319.032 143.702C318.775 143.601 318.485 143.727 318.384 143.985C318.284 144.242 318.41 144.532 318.667 144.633L319.032 143.702ZM320.367 145.299C320.624 145.4 320.915 145.273 321.015 145.016C321.116 144.759 320.989 144.469 320.732 144.368L320.367 145.299ZM324.132 145.702C323.875 145.601 323.585 145.727 323.484 145.985C323.384 146.242 323.51 146.532 323.767 146.633L324.132 145.702ZM325.467 147.299C325.724 147.4 326.015 147.273 326.115 147.016C326.216 146.759 326.089 146.469 325.832 146.368L325.467 147.299ZM329.232 147.702C328.975 147.601 328.685 147.727 328.584 147.985C328.484 148.242 328.61 148.532 328.867 148.633L329.232 147.702ZM330.567 149.299C330.824 149.4 331.115 149.273 331.215 149.016C331.316 148.759 331.189 148.469 330.932 148.368L330.567 149.299ZM334.332 149.702C334.075 149.601 333.785 149.727 333.684 149.985C333.584 150.242 333.71 150.532 333.967 150.633L334.332 149.702ZM335.099 151.682C335.236 151.922 335.542 152.005 335.781 151.868C336.021 151.731 336.104 151.425 335.967 151.186L335.099 151.682ZM338.101 154.919C337.964 154.679 337.658 154.596 337.418 154.733C337.179 154.87 337.095 155.175 337.232 155.415L338.101 154.919ZM338.299 157.282C338.436 157.522 338.742 157.605 338.981 157.468C339.221 157.331 339.304 157.025 339.167 156.786L338.299 157.282ZM341.301 160.519C341.164 160.279 340.858 160.196 340.618 160.333C340.379 160.47 340.295 160.775 340.432 161.015L341.301 160.519ZM341.499 162.882C341.636 163.122 341.942 163.205 342.181 163.068C342.421 162.931 342.504 162.625 342.367 162.386L341.499 162.882ZM344.501 166.119C344.364 165.879 344.058 165.796 343.818 165.933C343.579 166.07 343.495 166.375 343.632 166.615L344.501 166.119ZM344.699 168.482C344.836 168.722 345.142 168.805 345.381 168.668C345.621 168.531 345.704 168.225 345.567 167.986L344.699 168.482ZM347.701 171.719C347.564 171.479 347.258 171.396 347.018 171.533C346.779 171.67 346.695 171.975 346.832 172.215L347.701 171.719ZM347.899 174.082C348.036 174.322 348.342 174.405 348.581 174.268C348.821 174.131 348.904 173.825 348.767 173.586L347.899 174.082ZM350.901 177.319C350.764 177.079 350.458 176.996 350.219 177.133C349.979 177.27 349.895 177.575 350.032 177.815L350.901 177.319ZM350.644 179.492C350.686 179.765 350.941 179.953 351.214 179.911C351.487 179.87 351.675 179.615 351.633 179.342L350.644 179.492ZM352.189 183.009C352.147 182.736 351.892 182.548 351.619 182.589C351.346 182.631 351.159 182.886 351.2 183.159L352.189 183.009ZM351.478 184.992C351.519 185.265 351.774 185.453 352.047 185.411C352.32 185.37 352.508 185.115 352.466 184.842L351.478 184.992ZM353.022 188.509C352.981 188.236 352.726 188.048 352.453 188.089C352.18 188.131 351.992 188.386 352.033 188.659L353.022 188.509ZM352.311 190.492C352.352 190.765 352.607 190.953 352.88 190.911C353.153 190.87 353.341 190.615 353.3 190.342L352.311 190.492ZM353.855 194.009C353.814 193.736 353.559 193.548 353.286 193.589C353.013 193.631 352.825 193.886 352.867 194.159L353.855 194.009ZM353.144 195.992C353.186 196.265 353.441 196.453 353.714 196.411C353.987 196.37 354.175 196.115 354.133 195.842L353.144 195.992ZM354.689 199.509C354.647 199.236 354.392 199.048 354.119 199.089C353.846 199.131 353.659 199.386 353.7 199.659L354.689 199.509ZM353.978 201.492C354.019 201.765 354.274 201.953 354.547 201.911C354.82 201.87 355.008 201.615 354.966 201.342L353.978 201.492ZM355.522 205.009C355.481 204.736 355.226 204.548 354.953 204.589C354.68 204.631 354.492 204.886 354.533 205.159L355.522 205.009ZM354.811 206.992C354.852 207.265 355.107 207.453 355.38 207.411C355.653 207.37 355.841 207.115 355.8 206.842L354.811 206.992ZM356.355 210.509C356.314 210.236 356.059 210.048 355.786 210.089C355.513 210.131 355.325 210.386 355.367 210.659L356.355 210.509ZM356.721 212.302C356.98 212.399 357.268 212.267 357.364 212.008C357.461 211.749 357.329 211.461 357.07 211.365L356.721 212.302ZM360.653 212.698C360.395 212.602 360.107 212.734 360.01 212.993C359.914 213.252 360.046 213.539 360.305 213.636L360.653 212.698ZM362.096 214.302C362.355 214.399 362.643 214.267 362.739 214.008C362.836 213.749 362.704 213.461 362.445 213.365L362.096 214.302ZM366.028 214.698C365.77 214.602 365.482 214.734 365.385 214.993C365.289 215.252 365.421 215.539 365.68 215.636L366.028 214.698ZM367.471 216.302C367.73 216.399 368.018 216.267 368.114 216.008C368.211 215.749 368.079 215.461 367.82 215.365L367.471 216.302ZM371.403 216.698C371.145 216.602 370.857 216.734 370.76 216.993C370.664 217.252 370.796 217.539 371.055 217.636L371.403 216.698ZM372.846 218.302C373.105 218.399 373.393 218.267 373.489 218.008C373.586 217.749 373.454 217.461 373.195 217.365L372.846 218.302ZM376.778 218.698C376.52 218.602 376.232 218.734 376.135 218.993C376.039 219.252 376.171 219.539 376.43 219.636L376.778 218.698ZM376.589 220.146C376.459 220.39 376.551 220.692 376.794 220.822C377.038 220.953 377.341 220.86 377.471 220.617L376.589 220.146ZM375.59 224.141C375.72 223.897 375.628 223.594 375.384 223.464C375.141 223.334 374.838 223.426 374.708 223.67L375.59 224.141ZM373.767 225.432C373.637 225.675 373.729 225.978 373.973 226.108C374.217 226.238 374.52 226.146 374.65 225.903L373.767 225.432ZM372.769 229.426C372.899 229.183 372.807 228.88 372.563 228.75C372.32 228.62 372.017 228.712 371.887 228.955L372.769 229.426ZM370.946 230.717C370.816 230.961 370.908 231.264 371.152 231.394C371.396 231.524 371.698 231.432 371.828 231.188L370.946 230.717ZM369.948 234.712C370.078 234.468 369.986 234.166 369.742 234.036C369.498 233.905 369.195 233.998 369.065 234.241L369.948 234.712ZM368.125 236.003C367.995 236.247 368.087 236.55 368.331 236.68C368.574 236.81 368.877 236.718 369.007 236.474L368.125 236.003ZM367.127 239.998C367.257 239.754 367.164 239.451 366.921 239.321C366.677 239.191 366.374 239.283 366.244 239.527L367.127 239.998ZM365.304 241.289C365.174 241.532 365.266 241.835 365.51 241.965C365.753 242.095 366.056 242.003 366.186 241.76L365.304 241.289ZM364.305 245.283C364.435 245.04 364.343 244.737 364.1 244.607C363.856 244.477 363.553 244.569 363.423 244.813L364.305 245.283ZM362.483 246.575C362.353 246.818 362.445 247.121 362.688 247.251C362.932 247.381 363.235 247.289 363.365 247.045L362.483 246.575ZM361.484 250.569C361.614 250.326 361.522 250.023 361.278 249.893C361.035 249.763 360.732 249.855 360.602 250.098L361.484 250.569ZM359.662 251.86C359.532 252.104 359.624 252.407 359.867 252.537C360.111 252.667 360.414 252.575 360.544 252.331L359.662 251.86ZM358.663 255.855C358.793 255.611 358.701 255.308 358.457 255.178C358.214 255.048 357.911 255.14 357.781 255.384L358.663 255.855ZM356.739 256.325C356.479 256.416 356.341 256.701 356.432 256.961C356.523 257.222 356.808 257.36 357.069 257.269L356.739 256.325ZM353.679 258.453C353.94 258.362 354.077 258.077 353.986 257.816C353.895 257.555 353.61 257.418 353.349 257.509L353.679 258.453ZM351.654 258.101C351.394 258.192 351.256 258.478 351.347 258.738C351.438 258.999 351.724 259.136 351.984 259.045L351.654 258.101ZM348.594 260.23C348.855 260.139 348.993 259.854 348.902 259.593C348.81 259.332 348.525 259.195 348.265 259.286L348.594 260.23ZM346.57 259.878C346.309 259.969 346.171 260.254 346.263 260.515C346.354 260.776 346.639 260.913 346.899 260.822L346.57 259.878ZM343.51 262.007C343.77 261.915 343.908 261.63 343.817 261.37C343.726 261.109 343.44 260.971 343.18 261.062L343.51 262.007ZM37.5004 138.52L37.5387 137.538L36.5394 137.499L36.5012 138.481L37.5004 138.52ZM37.6916 133.612L37.7681 131.649L36.7688 131.61L36.6924 133.573L37.6916 133.612ZM37.921 127.723L37.9975 125.76L36.9983 125.721L36.9218 127.684L37.921 127.723ZM38.1505 121.834L38.227 119.871L37.2277 119.832L37.1512 121.795L38.1505 121.834ZM38.3799 115.945L38.4564 113.983L37.4571 113.944L37.3807 115.907L38.3799 115.945ZM38.6094 110.057L38.6858 108.094L37.6866 108.055L37.6101 110.018L38.6094 110.057ZM38.8388 104.168L38.9153 102.205L37.916 102.166L37.8395 104.129L38.8388 104.168ZM39.0682 98.2788L39.1447 96.3158L38.1455 96.2769L38.069 98.2399L39.0682 98.2788ZM39.2977 92.3899L39.3741 90.427L38.3749 90.388L38.2984 92.351L39.2977 92.3899ZM39.5271 86.501L39.5653 85.5195L38.5661 85.4806L38.5279 86.4621L39.5271 86.501ZM39.5653 85.5195L39.6043 84.5195L38.6051 84.4806L38.5661 85.4806L39.5653 85.5195ZM39.7601 80.5195L39.8381 78.5195L38.8388 78.4806L38.7609 80.4806L39.7601 80.5195ZM39.9939 74.5195L40.0718 72.5195L39.0726 72.4806L38.9947 74.4806L39.9939 74.5195ZM40.2277 68.5196L40.3056 66.5196L39.3064 66.4806L39.2284 68.4806L40.2277 68.5196ZM40.4614 62.5196L40.5004 61.5196L39.5012 61.4806L39.4622 62.4806L40.4614 62.5196ZM40.0952 61.9911L41.08 61.8017L40.8912 60.8197L39.9064 61.0091L40.0952 61.9911ZM45.0194 61.0441L46.9891 60.6654L46.8003 59.6833L44.8306 60.0621L45.0194 61.0441ZM50.9285 59.9078L52.8982 59.529L52.7094 58.547L50.7397 58.9258L50.9285 59.9078ZM56.8376 58.7714L58.8073 58.3927L58.6185 57.4107L56.6488 57.7894L56.8376 58.7714ZM62.7467 57.6351L64.7164 57.2563L64.5275 56.2743L62.5579 56.6531L62.7467 57.6351ZM68.6558 56.4988L70.6255 56.12L70.4366 55.138L68.4669 55.5168L68.6558 56.4988ZM74.5649 55.3624L76.5346 54.9836L76.3457 54.0016L74.376 54.3804L74.5649 55.3624ZM80.474 54.2261L82.4437 53.8473L82.2548 52.8653L80.2851 53.2441L80.474 54.2261ZM86.383 53.0897L88.3527 52.711L88.1639 51.7289L86.1942 52.1077L86.383 53.0897ZM92.2921 51.9534L94.2618 51.5746L94.073 50.5926L92.1033 50.9714L92.2921 51.9534ZM98.2012 50.817L100.171 50.4383L99.9821 49.4563L98.0124 49.835L98.2012 50.817ZM104.11 49.6807L105.095 49.4913L104.906 48.5093L103.921 48.6987L104.11 49.6807ZM104.788 49.4526L105.682 49.8739L106.108 48.9693L105.214 48.548L104.788 49.4526ZM109.259 51.559L111.048 52.4016L111.474 51.4969L109.685 50.6544L109.259 51.559ZM114.625 54.0867L116.414 54.9292L116.84 54.0246L115.051 53.182L114.625 54.0867ZM119.991 56.6143L121.78 57.4569L122.206 56.5522L120.417 55.7097L119.991 56.6143ZM125.357 59.142L127.146 59.9845L127.572 59.0799L125.783 58.2373L125.357 59.142ZM130.723 61.6696L132.512 62.5122L132.938 61.6075L131.149 60.765L130.723 61.6696ZM136.089 64.1973L137.878 65.0398L138.304 64.1352L136.515 63.2926L136.089 64.1973ZM141.455 66.725L143.244 67.5675L143.67 66.6628L141.881 65.8203L141.455 66.725ZM146.821 69.2526L147.715 69.6739L148.141 68.7692L147.247 68.348L146.821 69.2526ZM147.978 69.7191L148.937 69.6237L148.838 68.6286L147.879 68.724L147.978 69.7191ZM152.776 69.2423L154.695 69.0516L154.596 68.0565L152.677 68.2472L152.776 69.2423ZM158.533 68.6702L160.452 68.4795L160.353 67.4844L158.434 67.6751L158.533 68.6702ZM164.29 68.098L166.209 67.9073L166.11 66.9122L164.191 67.1029L164.29 68.098ZM170.047 67.5259L171.966 67.3352L171.867 66.3401L169.948 66.5308L170.047 67.5259ZM175.804 66.9538L177.724 66.763L177.625 65.7679L175.706 65.9587L175.804 66.9538ZM181.562 66.3816L183.481 66.1909L183.382 65.1958L181.463 65.3865L181.562 66.3816ZM187.319 65.8095L189.238 65.6188L189.139 64.6237L187.22 64.8144L187.319 65.8095ZM193.076 65.2373L194.995 65.0466L194.896 64.0515L192.977 64.2422L193.076 65.2373ZM198.833 64.6652L200.753 64.4745L200.654 63.4794L198.735 63.6701L198.833 64.6652ZM204.591 64.093L205.55 63.9977L205.451 63.0026L204.492 63.098L204.591 64.093ZM205.158 63.8646L205.957 64.6146L206.642 63.8857L205.843 63.1357L205.158 63.8646ZM209.151 67.6146L210.748 69.1146L211.432 68.3857L209.835 66.8857L209.151 67.6146ZM213.941 72.1146L215.538 73.6146L216.223 72.8857L214.626 71.3857L213.941 72.1146ZM218.732 76.6146L220.329 78.1146L221.014 77.3857L219.417 75.8857L218.732 76.6146ZM223.523 81.1146L225.12 82.6146L225.804 81.8857L224.207 80.3857L223.523 81.1146ZM228.313 85.6146L229.112 86.3646L229.796 85.6357L228.998 84.8857L228.313 85.6146ZM228.957 86.051L229.065 87.1105L230.06 87.0088L229.952 85.9493L228.957 86.051ZM229.498 91.3486L229.715 93.4677L230.709 93.366L230.493 91.247L229.498 91.3486ZM230.148 97.7058L230.364 99.8248L231.359 99.7232L231.142 97.6041L230.148 97.7058ZM230.797 104.063L231.014 106.182L232.008 106.08L231.792 103.961L230.797 104.063ZM231.447 110.42L231.663 112.539L232.658 112.438L232.441 110.319L231.447 110.42ZM232.096 116.777L232.313 118.896L233.307 118.795L233.091 116.676L232.096 116.777ZM232.746 123.134L232.962 125.254L233.957 125.152L233.74 123.033L232.746 123.134ZM233.395 129.492L233.503 130.551L234.498 130.45L234.39 129.39L233.395 129.492ZM233.629 130.166L232.871 131.009L233.615 131.678L234.373 130.835L233.629 130.166ZM229.84 134.381L229.082 135.224L229.826 135.892L230.584 135.049L229.84 134.381ZM229.23 136.005L230.106 136.443L230.554 135.549L229.678 135.111L229.23 136.005ZM233.609 138.196L235.361 139.072L235.808 138.177L234.057 137.301L233.609 138.196ZM238.864 140.824L240.616 141.7L241.063 140.806L239.311 139.93L238.864 140.824ZM244.119 143.453L245.87 144.329L246.318 143.435L244.566 142.559L244.119 143.453ZM249.373 146.082L251.125 146.958L251.572 146.063L249.821 145.187L249.373 146.082ZM254.628 148.71L256.38 149.586L256.827 148.692L255.075 147.816L254.628 148.71ZM259.883 151.339L261.634 152.215L262.082 151.321L260.33 150.445L259.883 151.339ZM265.137 153.968L266.889 154.844L267.336 153.949L265.585 153.073L265.137 153.968ZM270.392 156.596L272.143 157.472L272.591 156.578L270.839 155.702L270.392 156.596ZM275.647 159.225L277.398 160.101L277.846 159.207L276.094 158.331L275.647 159.225ZM280.901 161.854L281.777 162.292L282.224 161.397L281.349 160.959L280.901 161.854ZM282.307 162.239L283.071 161.647L282.458 160.857L281.694 161.45L282.307 162.239ZM286.127 159.275L287.654 158.089L287.041 157.299L285.513 158.485L286.127 159.275ZM290.71 155.718L292.238 154.532L291.624 153.742L290.097 154.928L290.71 155.718ZM295.293 152.16L296.821 150.975L296.208 150.185L294.68 151.37L295.293 152.16ZM299.876 148.603L301.404 147.417L300.791 146.627L299.263 147.813L299.876 148.603ZM304.459 145.046L305.987 143.86L305.374 143.07L303.846 144.256L304.459 145.046ZM309.043 141.488L309.806 140.895L309.193 140.105L308.429 140.698L309.043 141.488ZM309.317 140.966L310.167 141.299L310.532 140.368L309.682 140.035L309.317 140.966ZM313.567 142.633L315.267 143.299L315.632 142.368L313.932 141.702L313.567 142.633ZM318.667 144.633L320.367 145.299L320.732 144.368L319.032 143.702L318.667 144.633ZM323.767 146.633L325.467 147.299L325.832 146.368L324.132 145.702L323.767 146.633ZM328.867 148.633L330.567 149.299L330.932 148.368L329.232 147.702L328.867 148.633ZM333.967 150.633L334.817 150.966L335.182 150.035L334.332 149.702L333.967 150.633ZM334.566 150.748L335.099 151.682L335.967 151.186L335.434 150.252L334.566 150.748ZM337.232 155.415L338.299 157.282L339.167 156.786L338.101 154.919L337.232 155.415ZM340.432 161.015L341.499 162.882L342.367 162.386L341.301 160.519L340.432 161.015ZM343.632 166.615L344.699 168.482L345.567 167.986L344.501 166.119L343.632 166.615ZM346.832 172.215L347.899 174.082L348.767 173.586L347.701 171.719L346.832 172.215ZM350.032 177.815L350.566 178.748L351.434 178.252L350.901 177.319L350.032 177.815ZM350.506 178.575L350.644 179.492L351.633 179.342L351.494 178.426L350.506 178.575ZM351.2 183.159L351.478 184.992L352.466 184.842L352.189 183.009L351.2 183.159ZM352.033 188.659L352.311 190.492L353.3 190.342L353.022 188.509L352.033 188.659ZM352.867 194.159L353.144 195.992L354.133 195.842L353.855 194.009L352.867 194.159ZM353.7 199.659L353.978 201.492L354.966 201.342L354.689 199.509L353.7 199.659ZM354.533 205.159L354.811 206.992L355.8 206.842L355.522 205.009L354.533 205.159ZM355.367 210.659L355.506 211.575L356.494 211.426L356.355 210.509L355.367 210.659ZM355.826 211.969L356.721 212.302L357.07 211.365L356.174 211.032L355.826 211.969ZM360.305 213.636L362.096 214.302L362.445 213.365L360.653 212.698L360.305 213.636ZM365.68 215.636L367.471 216.302L367.82 215.365L366.028 214.698L365.68 215.636ZM371.055 217.636L372.846 218.302L373.195 217.365L371.403 216.698L371.055 217.636ZM376.43 219.636L377.326 219.969L377.674 219.032L376.778 218.698L376.43 219.636ZM377.059 219.265L376.589 220.146L377.471 220.617L377.941 219.736L377.059 219.265ZM374.708 223.67L373.767 225.432L374.65 225.903L375.59 224.141L374.708 223.67ZM371.887 228.955L370.946 230.717L371.828 231.188L372.769 229.426L371.887 228.955ZM369.065 234.241L368.125 236.003L369.007 236.474L369.948 234.712L369.065 234.241ZM366.244 239.527L365.304 241.289L366.186 241.76L367.127 239.998L366.244 239.527ZM363.423 244.813L362.483 246.575L363.365 247.045L364.305 245.283L363.423 244.813ZM360.602 250.098L359.662 251.86L360.544 252.331L361.484 250.569L360.602 250.098ZM357.781 255.384L357.311 256.265L358.193 256.736L358.663 255.855L357.781 255.384ZM357.587 256.028L356.739 256.325L357.069 257.269L357.917 256.972L357.587 256.028ZM353.349 257.509L351.654 258.101L351.984 259.045L353.679 258.453L353.349 257.509ZM348.265 259.286L346.57 259.878L346.899 260.822L348.594 260.23L348.265 259.286ZM343.18 261.062L342.332 261.359L342.662 262.303L343.51 262.007L343.18 261.062Z" fill="#87A4BC"/>
<g filter="url(#filter0_d_5088_63135)">
<circle cx="346" cy="262" r="3" fill="#0C99CF"/>
<circle cx="346" cy="262" r="4" stroke="white" stroke-width="2"/>
</g>
<path d="M300.025 253V242.979H303.785C304.551 242.979 305.164 243.081 305.624 243.286C306.089 243.487 306.451 243.799 306.711 244.223C306.975 244.642 307.107 245.082 307.107 245.542C307.107 245.97 306.991 246.374 306.759 246.752C306.526 247.13 306.175 247.436 305.706 247.668C306.312 247.846 306.777 248.149 307.101 248.577C307.429 249.006 307.593 249.511 307.593 250.095C307.593 250.564 307.493 251.002 307.292 251.407C307.096 251.808 306.852 252.118 306.561 252.337C306.269 252.556 305.902 252.722 305.46 252.836C305.022 252.945 304.485 253 303.847 253H300.025ZM301.352 247.189H303.519C304.106 247.189 304.528 247.151 304.783 247.073C305.12 246.973 305.373 246.807 305.542 246.574C305.715 246.342 305.802 246.05 305.802 245.699C305.802 245.367 305.722 245.075 305.562 244.824C305.403 244.569 305.175 244.396 304.879 244.305C304.583 244.209 304.075 244.161 303.354 244.161H301.352V247.189ZM301.352 251.817H303.847C304.275 251.817 304.576 251.801 304.749 251.77C305.054 251.715 305.31 251.624 305.515 251.496C305.72 251.368 305.888 251.184 306.021 250.942C306.153 250.696 306.219 250.414 306.219 250.095C306.219 249.721 306.123 249.397 305.932 249.124C305.74 248.846 305.474 248.652 305.132 248.543C304.795 248.429 304.307 248.372 303.669 248.372H301.352V251.817ZM309.377 253V242.979H311.373L313.745 250.074C313.964 250.735 314.123 251.229 314.224 251.558C314.338 251.193 314.515 250.658 314.757 249.951L317.156 242.979H318.94V253H317.662V244.612L314.75 253H313.554L310.655 244.469V253H309.377ZM323.63 253V244.161H320.328V242.979H328.271V244.161H324.956V253H323.63ZM329.652 242.979H337.534V253H336.201V244.161H330.979V253H329.652V242.979Z" fill="white"/>
<path d="M0.0683594 119.979H1.4082L4.67578 126.117L7.5332 119.979H8.85254L5.09277 127.771C4.62337 128.747 4.23828 129.385 3.9375 129.686C3.63672 129.986 3.20605 130.137 2.64551 130.137C2.30371 130.137 1.88444 130.057 1.3877 129.897V128.763C1.74316 128.968 2.11914 129.07 2.51562 129.07C2.83919 129.07 3.11719 128.968 3.34961 128.763C3.58659 128.553 3.84635 128.079 4.12891 127.341L0.0683594 119.979ZM10.6367 126.719V125.755C11.1562 125.75 11.5094 125.73 11.6963 125.693C11.8877 125.657 12.0677 125.548 12.2363 125.365C12.4049 125.183 12.4893 124.955 12.4893 124.682C12.4893 124.349 12.3776 124.085 12.1543 123.889C11.9355 123.688 11.6507 123.588 11.2998 123.588C10.6071 123.588 10.1217 123.996 9.84375 124.812L8.6748 124.62C9.03939 123.257 9.91895 122.576 11.3135 122.576C12.0882 122.576 12.6943 122.788 13.1318 123.212C13.5739 123.636 13.7949 124.142 13.7949 124.729C13.7949 125.322 13.5078 125.794 12.9336 126.145C13.2982 126.34 13.5716 126.591 13.7539 126.896C13.9362 127.197 14.0273 127.555 14.0273 127.97C14.0273 128.621 13.7904 129.15 13.3164 129.556C12.8424 129.961 12.1794 130.164 11.3271 130.164C9.67285 130.164 8.71354 129.428 8.44922 127.956L9.60449 127.71C9.70931 128.175 9.92122 128.535 10.2402 128.79C10.5638 129.045 10.9329 129.173 11.3477 129.173C11.7624 129.173 12.1064 129.057 12.3799 128.824C12.6579 128.587 12.7969 128.286 12.7969 127.922C12.7969 127.639 12.7103 127.393 12.5371 127.184C12.3639 126.974 12.1794 126.844 11.9834 126.794C11.7874 126.739 11.432 126.712 10.917 126.712C10.876 126.712 10.7826 126.714 10.6367 126.719ZM20.6104 119.739L21.6973 119.753C21.6471 120.241 21.5378 120.58 21.3691 120.771C21.2051 120.963 20.9909 121.086 20.7266 121.141C20.4668 121.195 19.9541 121.223 19.1885 121.223C18.1722 121.223 17.4795 121.321 17.1104 121.517C16.7412 121.713 16.4746 122.027 16.3105 122.46C16.151 122.888 16.0622 123.442 16.0439 124.121C16.3538 123.661 16.7161 123.317 17.1309 123.089C17.5456 122.856 18.0127 122.74 18.5322 122.74C19.4847 122.74 20.2731 123.068 20.8975 123.725C21.5218 124.376 21.834 125.26 21.834 126.377C21.834 127.225 21.6768 127.92 21.3623 128.462C21.0479 129.004 20.6742 129.424 20.2412 129.72C19.8128 130.016 19.2272 130.164 18.4844 130.164C17.623 130.164 16.9531 129.968 16.4746 129.576C15.9961 129.18 15.6292 128.674 15.374 128.059C15.1188 127.443 14.9912 126.372 14.9912 124.846C14.9912 122.927 15.3148 121.635 15.9619 120.97C16.6136 120.304 17.6139 119.972 18.9629 119.972C19.8014 119.972 20.2777 119.958 20.3916 119.931C20.5055 119.903 20.5785 119.84 20.6104 119.739ZM20.5488 126.343C20.5488 125.586 20.3688 124.966 20.0088 124.483C19.6533 124 19.1497 123.759 18.498 123.759C17.819 123.759 17.2949 124.014 16.9258 124.524C16.5566 125.035 16.3721 125.716 16.3721 126.568C16.3721 127.411 16.5749 128.056 16.9805 128.503C17.3906 128.95 17.8942 129.173 18.4912 129.173C19.1019 129.173 19.5964 128.915 19.9746 128.4C20.3574 127.881 20.5488 127.195 20.5488 126.343ZM28.123 127.662L29.3945 127.819C29.194 128.562 28.8226 129.139 28.2803 129.549C27.738 129.959 27.0452 130.164 26.2021 130.164C25.1403 130.164 24.2972 129.838 23.6729 129.187C23.0531 128.53 22.7432 127.612 22.7432 126.432C22.7432 125.21 23.0576 124.262 23.6865 123.588C24.3154 122.913 25.1312 122.576 26.1338 122.576C27.1045 122.576 27.8975 122.907 28.5127 123.567C29.1279 124.228 29.4355 125.158 29.4355 126.356C29.4355 126.429 29.4333 126.539 29.4287 126.685H24.0146C24.0602 127.482 24.2858 128.093 24.6914 128.517C25.097 128.94 25.6029 129.152 26.209 129.152C26.6602 129.152 27.0452 129.034 27.3643 128.797C27.6833 128.56 27.9362 128.182 28.123 127.662ZM24.083 125.673H28.1367C28.082 125.062 27.9271 124.604 27.6719 124.299C27.2799 123.825 26.7718 123.588 26.1475 123.588C25.5824 123.588 25.1061 123.777 24.7188 124.155C24.3359 124.534 24.124 125.039 24.083 125.673ZM30.9395 122.74H32.1699V125.878C32.5618 125.878 32.8353 125.803 32.9902 125.652C33.1497 125.502 33.3822 125.064 33.6875 124.34C33.929 123.766 34.125 123.387 34.2754 123.205C34.4258 123.023 34.599 122.9 34.7949 122.836C34.9909 122.772 35.3053 122.74 35.7383 122.74H35.9844V123.759L35.6426 123.752C35.319 123.752 35.1117 123.8 35.0205 123.896C34.9248 123.996 34.779 124.294 34.583 124.791C34.3962 125.265 34.2253 125.593 34.0703 125.775C33.9154 125.958 33.6761 126.124 33.3525 126.274C33.8812 126.416 34.4007 126.908 34.9111 127.751L36.2578 130H34.9043L33.5918 127.751C33.3229 127.3 33.0882 127.004 32.8877 126.862C32.6872 126.716 32.4479 126.644 32.1699 126.644V130H30.9395V122.74ZM37.0713 122.74H38.3018V128.277L41.7129 122.74H43.0391V130H41.8086V124.497L38.3975 130H37.0713V122.74ZM49.6289 127.341L50.8389 127.498C50.7067 128.332 50.3672 128.986 49.8203 129.46C49.278 129.929 48.6104 130.164 47.8174 130.164C46.8239 130.164 46.0241 129.84 45.418 129.193C44.8164 128.542 44.5156 127.61 44.5156 126.397C44.5156 125.614 44.6455 124.928 44.9053 124.34C45.165 123.752 45.5592 123.312 46.0879 123.021C46.6211 122.724 47.1999 122.576 47.8242 122.576C48.6126 122.576 49.2575 122.777 49.7588 123.178C50.2601 123.574 50.5814 124.139 50.7227 124.873L49.5264 125.058C49.4124 124.57 49.2096 124.203 48.918 123.957C48.6309 123.711 48.2822 123.588 47.8721 123.588C47.2523 123.588 46.7487 123.811 46.3613 124.258C45.974 124.7 45.7803 125.402 45.7803 126.363C45.7803 127.339 45.9671 128.047 46.3408 128.489C46.7145 128.931 47.2021 129.152 47.8037 129.152C48.2868 129.152 48.6901 129.004 49.0137 128.708C49.3372 128.412 49.5423 127.956 49.6289 127.341ZM51.2285 122.74H57.1279V123.759H54.79V130H53.5664V123.759H51.2285V122.74ZM62.877 129.104C62.4212 129.492 61.9814 129.765 61.5576 129.925C61.1383 130.084 60.6872 130.164 60.2041 130.164C59.4066 130.164 58.7936 129.97 58.3652 129.583C57.9368 129.191 57.7227 128.692 57.7227 128.086C57.7227 127.73 57.8024 127.407 57.9619 127.115C58.126 126.819 58.3379 126.582 58.5977 126.404C58.862 126.227 59.1582 126.092 59.4863 126.001C59.7279 125.937 60.0924 125.876 60.5801 125.816C61.5736 125.698 62.305 125.557 62.7744 125.393C62.779 125.224 62.7812 125.117 62.7812 125.071C62.7812 124.57 62.665 124.217 62.4326 124.012C62.1182 123.734 61.651 123.595 61.0312 123.595C60.4525 123.595 60.0241 123.697 59.7461 123.902C59.4727 124.103 59.2699 124.461 59.1377 124.976L57.9346 124.812C58.0439 124.297 58.224 123.882 58.4746 123.567C58.7253 123.248 59.0876 123.005 59.5615 122.836C60.0355 122.663 60.5846 122.576 61.209 122.576C61.8288 122.576 62.3324 122.649 62.7197 122.795C63.1071 122.941 63.3919 123.125 63.5742 123.349C63.7565 123.567 63.8841 123.845 63.957 124.183C63.998 124.392 64.0186 124.771 64.0186 125.317V126.958C64.0186 128.102 64.0436 128.826 64.0938 129.132C64.1484 129.433 64.2533 129.722 64.4082 130H63.123C62.9954 129.745 62.9134 129.446 62.877 129.104ZM62.7744 126.356C62.3278 126.539 61.6579 126.694 60.7646 126.821C60.2588 126.894 59.901 126.976 59.6914 127.067C59.4818 127.159 59.32 127.293 59.2061 127.471C59.0921 127.644 59.0352 127.838 59.0352 128.052C59.0352 128.38 59.1582 128.653 59.4043 128.872C59.6549 129.091 60.0195 129.2 60.498 129.2C60.972 129.2 61.3936 129.098 61.7627 128.893C62.1318 128.683 62.403 128.398 62.5762 128.038C62.7083 127.76 62.7744 127.35 62.7744 126.808V126.356ZM65.9395 122.74H67.1699V125.762H70.5811V122.74H71.8115V130H70.5811V126.78H67.1699V130H65.9395V122.74Z" fill="white"/>
<g filter="url(#filter1_d_5088_63135)">
<circle cx="37" cy="139" r="2" fill="#0C99CF"/>
<circle cx="37" cy="139" r="2.5" stroke="white"/>
</g>
<defs>
<filter id="filter0_d_5088_63135" x="339.163" y="256.388" width="13.6731" height="13.6731" filterUnits="userSpaceOnUse" color-interpolation-filters="sRGB">
<feFlood flood-opacity="0" result="BackgroundImageFix"/>
<feColorMatrix in="SourceAlpha" type="matrix" values="0 0 0 0 0 0 0 0 0 0 0 0 0 0 0 0 0 0 127 0" result="hardAlpha"/>
<feOffset dy="1.22437"/>
<feGaussianBlur stdDeviation="0.918278"/>
<feColorMatrix type="matrix" values="0 0 0 0 0 0 0 0 0 0 0 0 0 0 0 0 0 0 0.2 0"/>
<feBlend mode="normal" in2="BackgroundImageFix" result="effect1_dropShadow_5088_63135"/>
<feBlend mode="normal" in="SourceGraphic" in2="effect1_dropShadow_5088_63135" result="shape"/>
</filter>
<filter id="filter1_d_5088_63135" x="32.1634" y="135.388" width="9.67311" height="9.67311" filterUnits="userSpaceOnUse" color-interpolation-filters="sRGB">
<feFlood flood-opacity="0" result="BackgroundImageFix"/>
<feColorMatrix in="SourceAlpha" type="matrix" values="0 0 0 0 0 0 0 0 0 0 0 0 0 0 0 0 0 0 127 0" result="hardAlpha"/>
<feOffset dy="1.22437"/>
<feGaussianBlur stdDeviation="0.918278"/>
<feColorMatrix type="matrix" values="0 0 0 0 0 0 0 0 0 0 0 0 0 0 0 0 0 0 0.2 0"/>
<feBlend mode="normal" in2="BackgroundImageFix" result="effect1_dropShadow_5088_63135"/>
<feBlend mode="normal" in="SourceGraphic" in2="effect1_dropShadow_5088_63135" result="shape"/>
</filter>
</defs>
</svg>
