<svg width="572" height="374" viewBox="0 0 572 374" fill="none" xmlns="http://www.w3.org/2000/svg">
<path d="M511.751 359.501L511.916 359.973L512.1 359.908L512.192 359.736L511.751 359.501ZM531.499 322.501L531.94 322.736L532.21 322.231L531.674 322.032L531.499 322.501ZM509.999 314.501L509.505 314.575L509.549 314.866L509.825 314.969L509.999 314.501ZM504.999 281.501L505.494 281.426L505.48 281.333L505.433 281.252L504.999 281.501ZM488.999 253.501L489.433 253.252L489.346 253.099L489.182 253.035L488.999 253.501ZM463.499 243.5L463.682 243.035L463.417 242.931L463.193 243.106L463.499 243.5ZM436 264.845L435.776 265.292L436.058 265.433L436.307 265.24L436 264.845ZM383.453 238.558L383.082 238.224L382.643 238.712L383.23 239.005L383.453 238.558ZM388 233.5L388.372 233.835L388.52 233.67L388.497 233.45L388 233.5ZM383.453 189L383.951 188.949L383.932 188.764L383.796 188.636L383.453 189ZM359.5 166.5L359.842 166.136L359.677 165.98L359.451 166.003L359.5 166.5ZM301.928 172.222L301.715 172.674L301.84 172.733L301.977 172.719L301.928 172.222ZM259 152L258.506 152.076L258.546 152.339L258.787 152.453L259 152ZM248.999 87.0002L249.493 86.9242L249.445 86.6092L249.139 86.5202L248.999 87.0002ZM170.001 64.0002L170.141 63.5202L170.089 63.5051L170.035 63.5014L170.001 64.0002ZM133.501 61.5002L133.295 61.9558L133.377 61.9929L133.467 61.999L133.501 61.5002ZM97.0008 45.0002L97.2067 44.5446L97.0031 44.4525L96.7987 44.5428L97.0008 45.0002ZM75.4997 54.5002L75.2977 54.0428L75.1202 54.1213L75.0421 54.2988L75.4997 54.5002ZM69.9996 67.0002L69.922 67.4941L70.3022 67.5539L70.4572 67.2016L69.9996 67.0002ZM35.0772 61.0062C34.8044 60.9634 34.5485 61.1498 34.5056 61.4226C34.4628 61.6953 34.6492 61.9512 34.922 61.9941L35.0772 61.0062ZM35.8942 62.1469C36.167 62.1898 36.4229 62.0034 36.4657 61.7306C36.5086 61.4578 36.3222 61.2019 36.0494 61.159L35.8942 62.1469ZM39.9383 61.7701C39.6655 61.7273 39.4096 61.9136 39.3667 62.1864C39.3239 62.4592 39.5103 62.7151 39.7831 62.758L39.9383 61.7701ZM41.7275 63.0636C42.0003 63.1064 42.2562 62.92 42.2991 62.6472C42.3419 62.3744 42.1555 62.1185 41.8828 62.0757L41.7275 63.0636ZM45.7716 62.6868C45.4988 62.6439 45.2429 62.8303 45.2001 63.1031C45.1572 63.3759 45.3436 63.6318 45.6164 63.6747L45.7716 62.6868ZM47.5608 63.9802C47.8336 64.0231 48.0895 63.8367 48.1324 63.5639C48.1753 63.2911 47.9889 63.0352 47.7161 62.9924L47.5608 63.9802ZM51.605 63.6035C51.3322 63.5606 51.0763 63.747 51.0334 64.0198C50.9905 64.2926 51.1769 64.5485 51.4497 64.5913L51.605 63.6035ZM53.3942 64.8969C53.667 64.9398 53.9229 64.7534 53.9657 64.4806C54.0086 64.2078 53.8222 63.9519 53.5494 63.909L53.3942 64.8969ZM57.4383 64.5201C57.1655 64.4773 56.9096 64.6637 56.8667 64.9365C56.8239 65.2093 57.0103 65.4651 57.2831 65.508L57.4383 64.5201ZM59.2275 65.8136C59.5003 65.8564 59.7562 65.67 59.7991 65.3973C59.8419 65.1245 59.6555 64.8686 59.3827 64.8257L59.2275 65.8136ZM63.2716 65.4368C62.9988 65.3939 62.743 65.5803 62.7001 65.8531C62.6572 66.1259 62.8436 66.3818 63.1164 66.4247L63.2716 65.4368ZM65.0608 66.7302C65.3336 66.7731 65.5895 66.5867 65.6324 66.3139C65.6753 66.0411 65.4889 65.7852 65.2161 65.7424L65.0608 66.7302ZM69.105 66.3535C68.8322 66.3106 68.5763 66.497 68.5334 66.7698C68.4905 67.0426 68.6769 67.2985 68.9497 67.3414L69.105 66.3535ZM70.9156 66.1599C71.0268 65.9072 70.9121 65.6121 70.6593 65.5009C70.4065 65.3897 70.1115 65.5044 70.0003 65.7572L70.9156 66.1599ZM71.8337 61.5905C71.7224 61.8432 71.8372 62.1383 72.0899 62.2495C72.3427 62.3607 72.6377 62.246 72.749 61.9932L71.8337 61.5905ZM73.6657 59.9099C73.7769 59.6571 73.6621 59.3621 73.4094 59.2509C73.1566 59.1397 72.8616 59.2544 72.7504 59.5072L73.6657 59.9099ZM74.5837 55.3405C74.4725 55.5932 74.5873 55.8883 74.84 55.9995C75.0928 56.1107 75.3878 55.996 75.4991 55.7432L74.5837 55.3405ZM76.5977 54.5617C76.8503 54.4501 76.9646 54.1549 76.853 53.9023C76.7414 53.6497 76.4461 53.5354 76.1935 53.647L76.5977 54.5617ZM79.7771 52.0637C79.5245 52.1753 79.4102 52.4705 79.5218 52.7231C79.6334 52.9757 79.9286 53.09 80.1812 52.9784L79.7771 52.0637ZM81.973 52.1867C82.2255 52.0751 82.3398 51.7799 82.2282 51.5273C82.1166 51.2747 81.8214 51.1604 81.5688 51.272L81.973 52.1867ZM85.1523 49.6887C84.8997 49.8003 84.7854 50.0955 84.897 50.3481C85.0086 50.6007 85.3039 50.715 85.5565 50.6034L85.1523 49.6887ZM87.3482 49.8117C87.6008 49.7001 87.7151 49.4049 87.6035 49.1523C87.4919 48.8997 87.1966 48.7854 86.9441 48.897L87.3482 49.8117ZM90.5276 47.3137C90.275 47.4253 90.1607 47.7205 90.2723 47.9731C90.3839 48.2257 90.6791 48.34 90.9317 48.2284L90.5276 47.3137ZM92.7235 47.4367C92.9761 47.3251 93.0903 47.0299 92.9787 46.7773C92.8671 46.5247 92.5719 46.4104 92.3193 46.522L92.7235 47.4367ZM95.9028 44.9387C95.6502 45.0503 95.5359 45.3455 95.6475 45.5981C95.7592 45.8507 96.0544 45.965 96.307 45.8534L95.9028 44.9387ZM97.6639 45.8486C97.9155 45.9624 98.2117 45.8506 98.3254 45.599C98.4392 45.3474 98.3274 45.0512 98.0758 44.9374L97.6639 45.8486ZM101.552 46.5088C101.3 46.3951 101.004 46.5069 100.89 46.7585C100.777 47.0101 100.888 47.3063 101.14 47.4201L101.552 46.5088ZM102.878 48.2058C103.13 48.3195 103.426 48.2078 103.54 47.9561C103.653 47.7045 103.542 47.4083 103.29 47.2946L102.878 48.2058ZM106.766 48.866C106.515 48.7522 106.218 48.864 106.105 49.1156C105.991 49.3673 106.103 49.6635 106.354 49.7772L106.766 48.866ZM108.092 50.5629C108.344 50.6767 108.64 50.5649 108.754 50.3133C108.868 50.0616 108.756 49.7655 108.504 49.6517L108.092 50.5629ZM111.981 51.2231C111.729 51.1094 111.433 51.2212 111.319 51.4728C111.205 51.7244 111.317 52.0206 111.569 52.1344L111.981 51.2231ZM113.307 52.9201C113.558 53.0338 113.855 52.922 113.968 52.6704C114.082 52.4188 113.97 52.1226 113.719 52.0088L113.307 52.9201ZM117.195 53.5803C116.943 53.4665 116.647 53.5783 116.533 53.8299C116.42 54.0816 116.531 54.3777 116.783 54.4915L117.195 53.5803ZM118.521 55.2772C118.773 55.391 119.069 55.2792 119.183 55.0276C119.296 54.7759 119.185 54.4797 118.933 54.366L118.521 55.2772ZM122.409 55.9374C122.157 55.8237 121.861 55.9354 121.748 56.1871C121.634 56.4387 121.746 56.7349 121.997 56.8486L122.409 55.9374ZM123.735 57.6344C123.987 57.7481 124.283 57.6363 124.397 57.3847C124.511 57.1331 124.399 56.8369 124.147 56.7231L123.735 57.6344ZM127.623 58.2946C127.372 58.1808 127.076 58.2926 126.962 58.5442C126.848 58.7958 126.96 59.092 127.211 59.2058L127.623 58.2946ZM128.95 59.9915C129.201 60.1052 129.497 59.9935 129.611 59.7418C129.725 59.4902 129.613 59.194 129.362 59.0803L128.95 59.9915ZM132.838 60.6517C132.586 60.538 132.29 60.6497 132.176 60.9014C132.062 61.153 132.174 61.4492 132.426 61.5629L132.838 60.6517ZM134.481 62.0685C134.756 62.0873 134.995 61.8793 135.014 61.6038C135.032 61.3283 134.824 61.0897 134.549 61.0708L134.481 62.0685ZM138.604 61.3486C138.329 61.3297 138.09 61.5377 138.071 61.8132C138.053 62.0887 138.261 62.3274 138.536 62.3462L138.604 61.3486ZM140.564 62.4851C140.839 62.504 141.078 62.296 141.097 62.0205C141.116 61.745 140.908 61.5063 140.632 61.4875L140.564 62.4851ZM144.688 61.7652C144.412 61.7464 144.174 61.9544 144.155 62.2299C144.136 62.5054 144.344 62.744 144.62 62.7629L144.688 61.7652ZM146.647 62.9018C146.923 62.9207 147.161 62.7126 147.18 62.4371C147.199 62.1616 146.991 61.923 146.716 61.9041L146.647 62.9018ZM150.771 62.1819C150.496 62.1631 150.257 62.3711 150.238 62.6466C150.219 62.9221 150.427 63.1607 150.703 63.1796L150.771 62.1819ZM152.731 63.3185C153.006 63.3373 153.245 63.1293 153.264 62.8538C153.283 62.5783 153.075 62.3397 152.799 62.3208L152.731 63.3185ZM156.855 62.5986C156.579 62.5797 156.341 62.7878 156.322 63.0633C156.303 63.3388 156.511 63.5774 156.786 63.5963L156.855 62.5986ZM158.814 63.7352C159.09 63.754 159.328 63.546 159.347 63.2705C159.366 62.995 159.158 62.7564 158.882 62.7375L158.814 63.7352ZM162.938 63.0153C162.663 62.9964 162.424 63.2044 162.405 63.4799C162.386 63.7554 162.594 63.9941 162.87 64.0129L162.938 63.0153ZM164.898 64.1518C165.173 64.1707 165.412 63.9627 165.431 63.6872C165.449 63.4117 165.241 63.173 164.966 63.1542L164.898 64.1518ZM169.022 63.4319C168.746 63.4131 168.507 63.6211 168.489 63.8966C168.47 64.1721 168.678 64.4107 168.953 64.4296L169.022 63.4319ZM170.802 64.7541C171.067 64.8313 171.345 64.6789 171.422 64.4138C171.499 64.1487 171.347 63.8712 171.081 63.794L170.802 64.7541ZM174.843 64.8892C174.578 64.812 174.301 64.9644 174.223 65.2295C174.146 65.4946 174.299 65.7721 174.564 65.8493L174.843 64.8892ZM176.445 66.397C176.71 66.4742 176.987 66.3218 177.064 66.0567C177.142 65.7915 176.989 65.514 176.724 65.4368L176.445 66.397ZM180.486 66.5321C180.221 66.4549 179.943 66.6072 179.866 66.8724C179.789 67.1375 179.941 67.415 180.206 67.4922L180.486 66.5321ZM182.087 68.0398C182.353 68.117 182.63 67.9647 182.707 67.6995C182.784 67.4344 182.632 67.1569 182.367 67.0797L182.087 68.0398ZM186.129 68.1749C185.864 68.0977 185.586 68.2501 185.509 68.5152C185.432 68.7804 185.584 69.0579 185.849 69.1351L186.129 68.1749ZM187.73 69.6827C187.995 69.7599 188.273 69.6075 188.35 69.3424C188.427 69.0772 188.275 68.7997 188.01 68.7225L187.73 69.6827ZM191.771 69.8178C191.506 69.7406 191.229 69.8929 191.152 70.1581C191.074 70.4232 191.227 70.7007 191.492 70.7779L191.771 69.8178ZM193.373 71.3255C193.638 71.4027 193.915 71.2504 193.993 70.9852C194.07 70.7201 193.917 70.4426 193.652 70.3654L193.373 71.3255ZM197.414 71.4606C197.149 71.3834 196.872 71.5358 196.794 71.8009C196.717 72.0661 196.869 72.3436 197.135 72.4208L197.414 71.4606ZM199.016 72.9684C199.281 73.0456 199.558 72.8932 199.635 72.6281C199.713 72.363 199.56 72.0854 199.295 72.0083L199.016 72.9684ZM203.057 73.1035C202.792 73.0263 202.514 73.1787 202.437 73.4438C202.36 73.7089 202.512 73.9864 202.777 74.0636L203.057 73.1035ZM204.658 74.6112C204.923 74.6884 205.201 74.5361 205.278 74.2709C205.355 74.0058 205.203 73.7283 204.938 73.6511L204.658 74.6112ZM208.7 74.7464C208.434 74.6692 208.157 74.8215 208.08 75.0866C208.003 75.3518 208.155 75.6293 208.42 75.7065L208.7 74.7464ZM210.301 76.2541C210.566 76.3313 210.844 76.1789 210.921 75.9138C210.998 75.6487 210.846 75.3712 210.58 75.294L210.301 76.2541ZM214.342 76.3892C214.077 76.312 213.8 76.4644 213.722 76.7295C213.645 76.9946 213.798 77.2721 214.063 77.3493L214.342 76.3892ZM215.944 77.897C216.209 77.9742 216.486 77.8218 216.564 77.5567C216.641 77.2915 216.488 77.014 216.223 76.9368L215.944 77.897ZM219.985 78.0321C219.72 77.9549 219.442 78.1072 219.365 78.3724C219.288 78.6375 219.44 78.915 219.705 78.9922L219.985 78.0321ZM221.586 79.5398C221.852 79.617 222.129 79.4647 222.206 79.1995C222.283 78.9344 222.131 78.6569 221.866 78.5797L221.586 79.5398ZM225.628 79.6749C225.363 79.5977 225.085 79.7501 225.008 80.0152C224.931 80.2804 225.083 80.5579 225.348 80.6351L225.628 79.6749ZM227.229 81.1827C227.494 81.2599 227.772 81.1075 227.849 80.8424C227.926 80.5772 227.774 80.2997 227.509 80.2225L227.229 81.1827ZM231.27 81.3178C231.005 81.2406 230.728 81.3929 230.651 81.6581C230.573 81.9232 230.726 82.2007 230.991 82.2779L231.27 81.3178ZM232.872 82.8255C233.137 82.9027 233.414 82.7504 233.492 82.4852C233.569 82.2201 233.417 81.9426 233.151 81.8654L232.872 82.8255ZM236.913 82.9606C236.648 82.8834 236.371 83.0358 236.293 83.3009C236.216 83.5661 236.369 83.8436 236.634 83.9208L236.913 82.9606ZM238.515 84.4684C238.78 84.5456 239.057 84.3932 239.134 84.1281C239.212 83.863 239.059 83.5854 238.794 83.5083L238.515 84.4684ZM242.556 84.6035C242.291 84.5263 242.013 84.6787 241.936 84.9438C241.859 85.2089 242.011 85.4864 242.276 85.5636L242.556 84.6035ZM244.157 86.1112C244.422 86.1884 244.7 86.0361 244.777 85.7709C244.854 85.5058 244.702 85.2283 244.437 85.1511L244.157 86.1112ZM248.199 86.2464C247.933 86.1692 247.656 86.3215 247.579 86.5866C247.502 86.8518 247.654 87.1293 247.919 87.2065L248.199 86.2464ZM248.657 88.0611C248.699 88.334 248.954 88.5213 249.227 88.4793C249.5 88.4373 249.687 88.182 249.645 87.909L248.657 88.0611ZM250.251 91.8485C250.209 91.5755 249.954 91.3883 249.681 91.4303C249.408 91.4723 249.221 91.7276 249.263 92.0005L250.251 91.8485ZM249.566 93.9702C249.608 94.2432 249.863 94.4304 250.136 94.3884C250.409 94.3464 250.596 94.0911 250.554 93.8181L249.566 93.9702ZM251.16 97.7576C251.118 97.4846 250.863 97.2974 250.59 97.3394C250.317 97.3814 250.13 97.6367 250.172 97.9096L251.16 97.7576ZM250.475 99.8793C250.517 100.152 250.772 100.339 251.045 100.297C251.318 100.255 251.505 100 251.463 99.7273L250.475 99.8793ZM252.069 103.667C252.027 103.394 251.772 103.207 251.499 103.249C251.226 103.291 251.039 103.546 251.081 103.819L252.069 103.667ZM251.384 105.788C251.426 106.061 251.681 106.249 251.954 106.207C252.227 106.165 252.414 105.909 252.372 105.636L251.384 105.788ZM252.979 109.576C252.937 109.303 252.681 109.116 252.408 109.158C252.135 109.2 251.948 109.455 251.99 109.728L252.979 109.576ZM252.293 111.698C252.335 111.97 252.591 112.158 252.863 112.116C253.136 112.074 253.324 111.818 253.282 111.545L252.293 111.698ZM253.888 115.485C253.846 115.212 253.59 115.025 253.318 115.067C253.045 115.109 252.857 115.364 252.899 115.637L253.888 115.485ZM253.202 117.607C253.244 117.88 253.5 118.067 253.773 118.025C254.046 117.983 254.233 117.728 254.191 117.455L253.202 117.607ZM254.797 121.394C254.755 121.121 254.5 120.934 254.227 120.976C253.954 121.018 253.767 121.273 253.809 121.546L254.797 121.394ZM254.112 123.516C254.154 123.789 254.409 123.976 254.682 123.934C254.955 123.892 255.142 123.637 255.1 123.364L254.112 123.516ZM255.706 127.303C255.664 127.03 255.409 126.843 255.136 126.885C254.863 126.927 254.676 127.182 254.718 127.455L255.706 127.303ZM255.021 129.425C255.063 129.698 255.318 129.885 255.591 129.843C255.864 129.801 256.051 129.546 256.009 129.273L255.021 129.425ZM256.615 133.212C256.573 132.939 256.318 132.752 256.045 132.794C255.772 132.836 255.585 133.091 255.627 133.364L256.615 133.212ZM255.93 135.334C255.972 135.607 256.227 135.794 256.5 135.752C256.773 135.71 256.96 135.455 256.918 135.182L255.93 135.334ZM257.524 139.121C257.482 138.848 257.227 138.661 256.954 138.703C256.681 138.745 256.494 139 256.536 139.273L257.524 139.121ZM256.839 141.243C256.881 141.516 257.136 141.703 257.409 141.661C257.682 141.619 257.869 141.364 257.827 141.091L256.839 141.243ZM258.434 145.03C258.392 144.757 258.136 144.57 257.863 144.612C257.59 144.654 257.403 144.91 257.445 145.182L258.434 145.03ZM257.748 147.152C257.79 147.425 258.045 147.612 258.318 147.57C258.591 147.528 258.779 147.273 258.737 147L257.748 147.152ZM259.343 150.94C259.301 150.667 259.045 150.479 258.772 150.521C258.5 150.563 258.312 150.819 258.354 151.092L259.343 150.94ZM259.681 152.874C259.931 152.992 260.229 152.885 260.347 152.635C260.464 152.385 260.357 152.087 260.107 151.969L259.681 152.874ZM263.685 153.654C263.435 153.537 263.137 153.644 263.019 153.894C262.902 154.144 263.009 154.441 263.259 154.559L263.685 153.654ZM265.047 155.402C265.297 155.519 265.595 155.412 265.713 155.162C265.83 154.913 265.723 154.615 265.473 154.497L265.047 155.402ZM269.051 156.182C268.801 156.064 268.503 156.172 268.385 156.421C268.268 156.671 268.375 156.969 268.625 157.087L269.051 156.182ZM270.413 157.929C270.663 158.047 270.961 157.94 271.079 157.69C271.196 157.44 271.089 157.142 270.839 157.025L270.413 157.929ZM274.417 158.71C274.167 158.592 273.869 158.699 273.751 158.949C273.634 159.199 273.741 159.497 273.99 159.614L274.417 158.71ZM275.779 160.457C276.029 160.575 276.327 160.468 276.445 160.218C276.562 159.968 276.455 159.67 276.205 159.552L275.779 160.457ZM279.783 161.237C279.533 161.12 279.235 161.227 279.117 161.477C278.999 161.726 279.107 162.024 279.356 162.142L279.783 161.237ZM281.145 162.985C281.395 163.102 281.693 162.995 281.81 162.745C281.928 162.496 281.821 162.198 281.571 162.08L281.145 162.985ZM285.149 163.765C284.899 163.647 284.601 163.755 284.483 164.004C284.365 164.254 284.473 164.552 284.722 164.67L285.149 163.765ZM286.511 165.512C286.761 165.63 287.059 165.523 287.176 165.273C287.294 165.023 287.187 164.725 286.937 164.608L286.511 165.512ZM290.514 166.293C290.265 166.175 289.967 166.282 289.849 166.532C289.731 166.782 289.839 167.08 290.088 167.197L290.514 166.293ZM291.877 168.04C292.127 168.158 292.425 168.05 292.542 167.801C292.66 167.551 292.553 167.253 292.303 167.135L291.877 168.04ZM295.88 168.82C295.631 168.703 295.333 168.81 295.215 169.06C295.097 169.309 295.204 169.607 295.454 169.725L295.88 168.82ZM297.243 170.568C297.493 170.685 297.791 170.578 297.908 170.328C298.026 170.079 297.919 169.781 297.669 169.663L297.243 170.568ZM301.246 171.348C300.997 171.23 300.699 171.337 300.581 171.587C300.463 171.837 300.57 172.135 300.82 172.253L301.246 171.348ZM302.937 172.624C303.211 172.597 303.412 172.352 303.385 172.077C303.357 171.802 303.112 171.601 302.838 171.629L302.937 172.624ZM306.676 171.247C306.401 171.275 306.2 171.52 306.228 171.794C306.255 172.069 306.5 172.27 306.775 172.242L306.676 171.247ZM308.694 172.052C308.969 172.024 309.169 171.779 309.142 171.505C309.115 171.23 308.87 171.029 308.595 171.057L308.694 172.052ZM312.433 170.675C312.158 170.702 311.958 170.947 311.985 171.222C312.012 171.497 312.257 171.698 312.532 171.67L312.433 170.675ZM314.451 171.48C314.726 171.452 314.927 171.207 314.899 170.933C314.872 170.658 314.627 170.457 314.352 170.484L314.451 171.48ZM318.19 170.103C317.916 170.13 317.715 170.375 317.742 170.65C317.77 170.925 318.014 171.125 318.289 171.098L318.19 170.103ZM320.208 170.907C320.483 170.88 320.684 170.635 320.656 170.36C320.629 170.086 320.384 169.885 320.109 169.912L320.208 170.907ZM323.948 169.531C323.673 169.558 323.472 169.803 323.5 170.078C323.527 170.353 323.772 170.553 324.047 170.526L323.948 169.531ZM325.966 170.335C326.24 170.308 326.441 170.063 326.414 169.788C326.386 169.513 326.142 169.313 325.867 169.34L325.966 170.335ZM329.705 168.959C329.43 168.986 329.229 169.231 329.257 169.506C329.284 169.781 329.529 169.981 329.804 169.954L329.705 168.959ZM331.723 169.763C331.998 169.736 332.198 169.491 332.171 169.216C332.144 168.941 331.899 168.741 331.624 168.768L331.723 169.763ZM335.462 168.387C335.187 168.414 334.987 168.659 335.014 168.934C335.041 169.208 335.286 169.409 335.561 169.382L335.462 168.387ZM337.48 169.191C337.755 169.164 337.956 168.919 337.928 168.644C337.901 168.369 337.656 168.169 337.381 168.196L337.48 169.191ZM341.219 167.814C340.945 167.842 340.744 168.087 340.771 168.361C340.799 168.636 341.043 168.837 341.318 168.81L341.219 167.814ZM343.237 168.619C343.512 168.592 343.713 168.347 343.685 168.072C343.658 167.797 343.413 167.596 343.138 167.624L343.237 168.619ZM346.977 167.242C346.702 167.27 346.501 167.515 346.529 167.789C346.556 168.064 346.801 168.265 347.076 168.237L346.977 167.242ZM348.995 168.047C349.269 168.019 349.47 167.774 349.443 167.5C349.415 167.225 349.17 167.024 348.896 167.052L348.995 168.047ZM352.734 166.67C352.459 166.697 352.258 166.942 352.286 167.217C352.313 167.492 352.558 167.693 352.833 167.665L352.734 166.67ZM354.752 167.475C355.027 167.447 355.227 167.202 355.2 166.928C355.173 166.653 354.928 166.452 354.653 166.479L354.752 167.475ZM358.491 166.098C358.216 166.125 358.016 166.37 358.043 166.645C358.07 166.92 358.315 167.12 358.59 167.093L358.491 166.098ZM359.956 167.615C360.157 167.804 360.474 167.794 360.663 167.593C360.852 167.391 360.842 167.075 360.641 166.886L359.956 167.615ZM363.835 169.886C363.633 169.697 363.317 169.707 363.128 169.908C362.939 170.109 362.949 170.426 363.15 170.615L363.835 169.886ZM364.747 172.115C364.948 172.304 365.265 172.294 365.454 172.093C365.643 171.891 365.633 171.575 365.432 171.386L364.747 172.115ZM368.625 174.386C368.424 174.197 368.108 174.207 367.919 174.408C367.729 174.609 367.739 174.926 367.941 175.115L368.625 174.386ZM369.538 176.615C369.739 176.804 370.055 176.794 370.244 176.593C370.433 176.391 370.423 176.075 370.222 175.886L369.538 176.615ZM373.416 178.886C373.215 178.697 372.898 178.707 372.709 178.908C372.52 179.109 372.53 179.426 372.731 179.615L373.416 178.886ZM374.328 181.115C374.529 181.304 374.846 181.294 375.035 181.093C375.224 180.891 375.214 180.575 375.013 180.386L374.328 181.115ZM378.207 183.386C378.005 183.197 377.689 183.207 377.5 183.408C377.311 183.609 377.321 183.926 377.522 184.115L378.207 183.386ZM379.119 185.615C379.32 185.804 379.637 185.794 379.826 185.593C380.015 185.391 380.005 185.075 379.804 184.886L379.119 185.615ZM382.997 187.886C382.796 187.697 382.48 187.707 382.291 187.908C382.101 188.109 382.111 188.426 382.313 188.615L382.997 187.886ZM383.064 190.111C383.092 190.385 383.338 190.585 383.612 190.557C383.887 190.529 384.087 190.284 384.059 190.009L383.064 190.111ZM384.492 194.247C384.464 193.972 384.219 193.772 383.944 193.8C383.669 193.829 383.469 194.074 383.497 194.349L384.492 194.247ZM383.714 196.468C383.742 196.742 383.987 196.942 384.262 196.914C384.537 196.886 384.737 196.641 384.709 196.366L383.714 196.468ZM385.142 200.604C385.114 200.33 384.868 200.13 384.593 200.158C384.319 200.186 384.119 200.431 384.147 200.706L385.142 200.604ZM384.363 202.825C384.391 203.1 384.637 203.3 384.912 203.272C385.186 203.243 385.386 202.998 385.358 202.723L384.363 202.825ZM385.791 206.961C385.763 206.687 385.518 206.487 385.243 206.515C384.968 206.543 384.768 206.788 384.796 207.063L385.791 206.961ZM385.013 209.182C385.041 209.457 385.286 209.657 385.561 209.629C385.836 209.601 386.036 209.355 386.008 209.08L385.013 209.182ZM386.441 213.319C386.413 213.044 386.167 212.844 385.892 212.872C385.618 212.9 385.418 213.146 385.446 213.42L386.441 213.319ZM385.662 215.539C385.69 215.814 385.936 216.014 386.211 215.986C386.485 215.958 386.685 215.712 386.657 215.438L385.662 215.539ZM387.09 219.676C387.062 219.401 386.817 219.201 386.542 219.229C386.267 219.257 386.067 219.503 386.095 219.777L387.09 219.676ZM386.312 221.896C386.34 222.171 386.585 222.371 386.86 222.343C387.135 222.315 387.335 222.07 387.307 221.795L386.312 221.896ZM387.74 226.033C387.712 225.758 387.466 225.558 387.191 225.586C386.917 225.614 386.717 225.86 386.745 226.135L387.74 226.033ZM386.961 228.254C386.989 228.528 387.235 228.728 387.51 228.7C387.784 228.672 387.984 228.427 387.956 228.152L386.961 228.254ZM388.389 232.39C388.361 232.115 388.116 231.915 387.841 231.944C387.566 231.972 387.366 232.217 387.394 232.492L388.389 232.39ZM386.87 234.009C386.686 234.214 386.703 234.531 386.908 234.715C387.113 234.9 387.429 234.883 387.614 234.678L386.87 234.009ZM384.583 238.049C384.768 237.844 384.751 237.528 384.545 237.343C384.34 237.159 384.024 237.175 383.839 237.381L384.583 238.049ZM384.106 239.443C384.352 239.567 384.653 239.467 384.776 239.22C384.9 238.973 384.8 238.672 384.553 238.549L384.106 239.443ZM388.056 240.301C387.809 240.178 387.509 240.278 387.385 240.525C387.262 240.772 387.362 241.072 387.609 241.196L388.056 240.301ZM389.36 242.072C389.607 242.195 389.907 242.095 390.031 241.848C390.155 241.601 390.055 241.301 389.808 241.178L389.36 242.072ZM393.311 242.93C393.064 242.806 392.763 242.907 392.64 243.153C392.516 243.4 392.616 243.701 392.863 243.824L393.311 242.93ZM394.615 244.701C394.862 244.824 395.162 244.724 395.286 244.477C395.409 244.23 395.309 243.93 395.062 243.806L394.615 244.701ZM398.565 245.559C398.318 245.435 398.018 245.535 397.894 245.782C397.771 246.029 397.871 246.329 398.118 246.453L398.565 245.559ZM399.869 247.329C400.116 247.453 400.417 247.353 400.54 247.106C400.664 246.859 400.564 246.558 400.317 246.435L399.869 247.329ZM403.82 248.187C403.573 248.064 403.273 248.164 403.149 248.411C403.026 248.658 403.126 248.958 403.373 249.082L403.82 248.187ZM405.124 249.958C405.371 250.081 405.671 249.981 405.795 249.734C405.919 249.487 405.818 249.187 405.572 249.064L405.124 249.958ZM409.075 250.816C408.828 250.692 408.527 250.793 408.404 251.039C408.28 251.286 408.38 251.587 408.627 251.71L409.075 250.816ZM410.379 252.587C410.626 252.71 410.926 252.61 411.05 252.363C411.173 252.116 411.073 251.816 410.826 251.692L410.379 252.587ZM414.329 253.445C414.082 253.321 413.782 253.421 413.658 253.668C413.535 253.915 413.635 254.215 413.882 254.339L414.329 253.445ZM415.633 255.215C415.88 255.339 416.181 255.239 416.304 254.992C416.428 254.745 416.328 254.444 416.081 254.321L415.633 255.215ZM419.584 256.073C419.337 255.95 419.037 256.05 418.913 256.297C418.79 256.544 418.89 256.844 419.137 256.968L419.584 256.073ZM420.888 257.844C421.135 257.967 421.435 257.867 421.559 257.62C421.683 257.373 421.582 257.073 421.336 256.95L420.888 257.844ZM424.839 258.702C424.592 258.578 424.291 258.678 424.168 258.925C424.044 259.172 424.144 259.473 424.391 259.596L424.839 258.702ZM426.143 260.473C426.39 260.596 426.69 260.496 426.814 260.249C426.937 260.002 426.837 259.702 426.59 259.578L426.143 260.473ZM430.093 261.331C429.846 261.207 429.546 261.307 429.422 261.554C429.299 261.801 429.399 262.101 429.646 262.225L430.093 261.331ZM431.397 263.101C431.644 263.225 431.945 263.125 432.068 262.878C432.192 262.631 432.092 262.33 431.845 262.207L431.397 263.101ZM435.348 263.959C435.101 263.836 434.801 263.936 434.677 264.183C434.553 264.43 434.654 264.73 434.901 264.854L435.348 263.959ZM437.07 264.647C437.289 264.477 437.328 264.163 437.159 263.945C436.99 263.727 436.675 263.687 436.457 263.857L437.07 264.647ZM439.513 261.485C439.295 261.654 439.255 261.969 439.424 262.187C439.594 262.405 439.908 262.444 440.126 262.275L439.513 261.485ZM441.654 261.089C441.872 260.92 441.911 260.606 441.742 260.388C441.573 260.17 441.259 260.13 441.04 260.299L441.654 261.089ZM444.096 257.928C443.878 258.097 443.838 258.411 444.008 258.629C444.177 258.847 444.491 258.887 444.709 258.718L444.096 257.928ZM446.237 257.532C446.455 257.363 446.495 257.049 446.325 256.83C446.156 256.612 445.842 256.573 445.624 256.742L446.237 257.532ZM448.679 254.37C448.461 254.54 448.421 254.854 448.591 255.072C448.76 255.29 449.074 255.33 449.292 255.16L448.679 254.37ZM450.82 253.975C451.038 253.805 451.078 253.491 450.908 253.273C450.739 253.055 450.425 253.015 450.207 253.185L450.82 253.975ZM453.262 250.813C453.044 250.982 453.005 251.297 453.174 251.515C453.343 251.733 453.657 251.772 453.875 251.603L453.262 250.813ZM455.403 250.417C455.621 250.248 455.661 249.934 455.492 249.716C455.322 249.498 455.008 249.458 454.79 249.627L455.403 250.417ZM457.846 247.256C457.627 247.425 457.588 247.739 457.757 247.957C457.926 248.175 458.241 248.215 458.459 248.046L457.846 247.256ZM459.986 246.86C460.205 246.691 460.244 246.377 460.075 246.158C459.905 245.94 459.591 245.901 459.373 246.07L459.986 246.86ZM462.429 243.698C462.211 243.868 462.171 244.182 462.34 244.4C462.51 244.618 462.824 244.658 463.042 244.488L462.429 243.698ZM464.167 244.299C464.424 244.4 464.714 244.273 464.815 244.016C464.915 243.759 464.789 243.469 464.532 243.368L464.167 244.299ZM467.932 244.702C467.675 244.601 467.384 244.728 467.284 244.985C467.183 245.242 467.31 245.532 467.567 245.633L467.932 244.702ZM469.267 246.299C469.524 246.4 469.814 246.273 469.915 246.016C470.015 245.759 469.889 245.469 469.632 245.368L469.267 246.299ZM473.032 246.702C472.775 246.601 472.484 246.728 472.384 246.985C472.283 247.242 472.41 247.532 472.667 247.633L473.032 246.702ZM474.367 248.299C474.624 248.4 474.914 248.273 475.015 248.016C475.115 247.759 474.989 247.469 474.732 247.368L474.367 248.299ZM478.132 248.702C477.875 248.601 477.584 248.728 477.484 248.985C477.383 249.242 477.51 249.532 477.767 249.633L478.132 248.702ZM479.467 250.299C479.724 250.4 480.014 250.273 480.115 250.016C480.215 249.759 480.089 249.469 479.832 249.368L479.467 250.299ZM483.232 250.702C482.975 250.601 482.684 250.728 482.584 250.985C482.483 251.242 482.61 251.532 482.867 251.633L483.232 250.702ZM484.567 252.299C484.824 252.4 485.114 252.273 485.215 252.016C485.315 251.759 485.189 251.469 484.932 251.368L484.567 252.299ZM488.332 252.702C488.075 252.601 487.784 252.728 487.684 252.985C487.583 253.242 487.71 253.532 487.967 253.633L488.332 252.702ZM489.098 254.682C489.235 254.922 489.541 255.005 489.781 254.868C490.02 254.731 490.104 254.426 489.967 254.186L489.098 254.682ZM492.1 257.919C491.963 257.679 491.658 257.596 491.418 257.733C491.178 257.87 491.095 258.175 491.232 258.415L492.1 257.919ZM492.298 260.282C492.435 260.522 492.741 260.605 492.981 260.468C493.22 260.331 493.304 260.026 493.167 259.786L492.298 260.282ZM495.3 263.519C495.163 263.279 494.858 263.196 494.618 263.333C494.378 263.47 494.295 263.775 494.432 264.015L495.3 263.519ZM495.498 265.882C495.635 266.122 495.941 266.205 496.181 266.068C496.42 265.931 496.504 265.626 496.367 265.386L495.498 265.882ZM498.5 269.119C498.363 268.879 498.058 268.796 497.818 268.933C497.578 269.07 497.495 269.375 497.632 269.615L498.5 269.119ZM498.698 271.482C498.835 271.722 499.141 271.805 499.381 271.668C499.62 271.531 499.704 271.226 499.567 270.986L498.698 271.482ZM501.7 274.719C501.563 274.479 501.258 274.396 501.018 274.533C500.778 274.67 500.695 274.975 500.832 275.215L501.7 274.719ZM501.898 277.082C502.035 277.322 502.341 277.405 502.581 277.268C502.82 277.131 502.904 276.826 502.767 276.586L501.898 277.082ZM504.9 280.319C504.763 280.079 504.458 279.996 504.218 280.133C503.978 280.27 503.895 280.575 504.032 280.815L504.9 280.319ZM504.644 282.492C504.685 282.765 504.94 282.953 505.213 282.912C505.486 282.87 505.674 282.615 505.632 282.342L504.644 282.492ZM506.188 286.009C506.147 285.736 505.892 285.548 505.619 285.589C505.346 285.631 505.158 285.886 505.199 286.159L506.188 286.009ZM505.477 287.992C505.518 288.265 505.773 288.453 506.046 288.412C506.319 288.37 506.507 288.115 506.466 287.842L505.477 287.992ZM507.021 291.509C506.98 291.236 506.725 291.048 506.452 291.09C506.179 291.131 505.991 291.386 506.033 291.659L507.021 291.509ZM506.31 293.492C506.352 293.765 506.607 293.953 506.88 293.912C507.153 293.87 507.34 293.615 507.299 293.342L506.31 293.492ZM507.855 297.009C507.813 296.736 507.558 296.548 507.285 296.59C507.012 296.631 506.825 296.886 506.866 297.159L507.855 297.009ZM507.144 298.992C507.185 299.265 507.44 299.453 507.713 299.412C507.986 299.37 508.174 299.115 508.132 298.842L507.144 298.992ZM508.688 302.509C508.647 302.236 508.392 302.048 508.119 302.09C507.846 302.131 507.658 302.386 507.699 302.659L508.688 302.509ZM507.977 304.492C508.018 304.765 508.273 304.953 508.546 304.912C508.819 304.87 509.007 304.615 508.966 304.342L507.977 304.492ZM509.521 308.009C509.48 307.736 509.225 307.548 508.952 307.59C508.679 307.631 508.491 307.886 508.533 308.159L509.521 308.009ZM508.81 309.992C508.852 310.265 509.107 310.453 509.38 310.412C509.653 310.37 509.84 310.115 509.799 309.842L508.81 309.992ZM510.355 313.509C510.313 313.236 510.058 313.048 509.785 313.09C509.512 313.131 509.325 313.386 509.366 313.659L510.355 313.509ZM510.721 315.302C510.979 315.399 511.267 315.267 511.364 315.008C511.46 314.749 511.328 314.462 511.069 314.365L510.721 315.302ZM514.653 315.699C514.394 315.602 514.106 315.734 514.01 315.993C513.913 316.252 514.045 316.54 514.304 316.636L514.653 315.699ZM516.096 317.302C516.354 317.399 516.642 317.267 516.739 317.008C516.835 316.749 516.703 316.462 516.444 316.365L516.096 317.302ZM520.028 317.699C519.769 317.602 519.481 317.734 519.385 317.993C519.288 318.252 519.42 318.539 519.679 318.636L520.028 317.699ZM521.471 319.302C521.729 319.399 522.017 319.267 522.114 319.008C522.21 318.749 522.078 318.462 521.819 318.365L521.471 319.302ZM525.403 319.699C525.144 319.602 524.856 319.734 524.76 319.993C524.663 320.252 524.795 320.539 525.054 320.636L525.403 319.699ZM526.846 321.302C527.104 321.399 527.392 321.267 527.489 321.008C527.585 320.749 527.453 320.462 527.194 320.365L526.846 321.302ZM530.778 321.699C530.519 321.602 530.231 321.734 530.135 321.993C530.038 322.252 530.17 322.539 530.429 322.636L530.778 321.699ZM530.588 323.146C530.458 323.39 530.55 323.693 530.794 323.823C531.037 323.953 531.34 323.861 531.47 323.617L530.588 323.146ZM529.589 327.141C529.719 326.897 529.627 326.594 529.384 326.464C529.14 326.334 528.837 326.426 528.707 326.67L529.589 327.141ZM527.767 328.432C527.637 328.675 527.729 328.978 527.972 329.108C528.216 329.238 528.519 329.146 528.649 328.903L527.767 328.432ZM526.768 332.426C526.898 332.183 526.806 331.88 526.562 331.75C526.319 331.62 526.016 331.712 525.886 331.956L526.768 332.426ZM524.946 333.717C524.815 333.961 524.908 334.264 525.151 334.394C525.395 334.524 525.698 334.432 525.828 334.188L524.946 333.717ZM523.947 337.712C524.077 337.469 523.985 337.166 523.741 337.036C523.498 336.906 523.195 336.998 523.065 337.241L523.947 337.712ZM522.124 339.003C521.994 339.247 522.086 339.55 522.33 339.68C522.574 339.81 522.877 339.718 523.007 339.474L522.124 339.003ZM521.126 342.998C521.256 342.754 521.164 342.451 520.92 342.321C520.676 342.191 520.374 342.283 520.244 342.527L521.126 342.998ZM519.303 344.289C519.173 344.533 519.265 344.835 519.509 344.965C519.752 345.095 520.055 345.003 520.185 344.76L519.303 344.289ZM518.305 348.284C518.435 348.04 518.343 347.737 518.099 347.607C517.855 347.477 517.552 347.569 517.422 347.813L518.305 348.284ZM516.482 349.575C516.352 349.818 516.444 350.121 516.688 350.251C516.931 350.381 517.234 350.289 517.364 350.045L516.482 349.575ZM515.483 353.569C515.613 353.326 515.521 353.023 515.278 352.893C515.034 352.763 514.731 352.855 514.601 353.098L515.483 353.569ZM513.661 354.86C513.531 355.104 513.623 355.407 513.866 355.537C514.11 355.667 514.413 355.575 514.543 355.331L513.661 354.86ZM512.662 358.855C512.792 358.611 512.7 358.308 512.457 358.178C512.213 358.048 511.91 358.141 511.78 358.384L512.662 358.855ZM510.739 359.325C510.478 359.416 510.34 359.701 510.431 359.962C510.523 360.222 510.808 360.36 511.068 360.269L510.739 359.325ZM507.679 361.453C507.939 361.362 508.077 361.077 507.986 360.816C507.895 360.556 507.609 360.418 507.349 360.509L507.679 361.453ZM505.654 361.101C505.393 361.192 505.256 361.478 505.347 361.738C505.438 361.999 505.723 362.136 505.984 362.045L505.654 361.101ZM502.594 363.23C502.854 363.139 502.992 362.854 502.901 362.593C502.81 362.332 502.525 362.195 502.264 362.286L502.594 363.23ZM500.569 362.878C500.308 362.969 500.171 363.254 500.262 363.515C500.353 363.776 500.638 363.913 500.899 363.822L500.569 362.878ZM497.509 365.007C497.77 364.916 497.907 364.63 497.816 364.37C497.725 364.109 497.44 363.971 497.179 364.063L497.509 365.007ZM34.922 61.9941L35.8942 62.1469L36.0494 61.159L35.0772 61.0062L34.922 61.9941ZM39.7831 62.758L41.7275 63.0636L41.8828 62.0757L39.9383 61.7701L39.7831 62.758ZM45.6164 63.6747L47.5608 63.9802L47.7161 62.9924L45.7716 62.6868L45.6164 63.6747ZM51.4497 64.5913L53.3942 64.8969L53.5494 63.909L51.605 63.6035L51.4497 64.5913ZM57.2831 65.508L59.2275 65.8136L59.3827 64.8257L57.4383 64.5201L57.2831 65.508ZM63.1164 66.4247L65.0608 66.7302L65.2161 65.7424L63.2716 65.4368L63.1164 66.4247ZM68.9497 67.3414L69.922 67.4941L70.0772 66.5063L69.105 66.3535L68.9497 67.3414ZM70.4572 67.2016L70.9156 66.1599L70.0003 65.7572L69.5419 66.7988L70.4572 67.2016ZM72.749 61.9932L73.6657 59.9099L72.7504 59.5072L71.8337 61.5905L72.749 61.9932ZM75.4991 55.7432L75.9574 54.7016L75.0421 54.2988L74.5837 55.3405L75.4991 55.7432ZM75.7018 54.9575L76.5977 54.5617L76.1935 53.647L75.2977 54.0428L75.7018 54.9575ZM80.1812 52.9784L81.973 52.1867L81.5688 51.272L79.7771 52.0637L80.1812 52.9784ZM85.5565 50.6034L87.3482 49.8117L86.9441 48.897L85.1523 49.6887L85.5565 50.6034ZM90.9317 48.2284L92.7235 47.4367L92.3193 46.522L90.5276 47.3137L90.9317 48.2284ZM96.307 45.8534L97.2028 45.4575L96.7987 44.5428L95.9028 44.9387L96.307 45.8534ZM96.7948 45.4558L97.6639 45.8486L98.0758 44.9374L97.2067 44.5446L96.7948 45.4558ZM101.14 47.4201L102.878 48.2058L103.29 47.2946L101.552 46.5088L101.14 47.4201ZM106.354 49.7772L108.092 50.5629L108.504 49.6517L106.766 48.866L106.354 49.7772ZM111.569 52.1344L113.307 52.9201L113.719 52.0088L111.981 51.2231L111.569 52.1344ZM116.783 54.4915L118.521 55.2772L118.933 54.366L117.195 53.5803L116.783 54.4915ZM121.997 56.8486L123.735 57.6344L124.147 56.7231L122.409 55.9374L121.997 56.8486ZM127.211 59.2058L128.95 59.9915L129.362 59.0803L127.623 58.2946L127.211 59.2058ZM132.426 61.5629L133.295 61.9558L133.707 61.0446L132.838 60.6517L132.426 61.5629ZM133.467 61.999L134.481 62.0685L134.549 61.0708L133.535 61.0013L133.467 61.999ZM138.536 62.3462L140.564 62.4851L140.632 61.4875L138.604 61.3486L138.536 62.3462ZM144.62 62.7629L146.647 62.9018L146.716 61.9041L144.688 61.7652L144.62 62.7629ZM150.703 63.1796L152.731 63.3185L152.799 62.3208L150.771 62.1819L150.703 63.1796ZM156.786 63.5963L158.814 63.7352L158.882 62.7375L156.855 62.5986L156.786 63.5963ZM162.87 64.0129L164.898 64.1518L164.966 63.1542L162.938 63.0153L162.87 64.0129ZM168.953 64.4296L169.967 64.4991L170.035 63.5014L169.022 63.4319L168.953 64.4296ZM169.861 64.4803L170.802 64.7541L171.081 63.794L170.141 63.5202L169.861 64.4803ZM174.564 65.8493L176.445 66.397L176.724 65.4368L174.843 64.8892L174.564 65.8493ZM180.206 67.4922L182.087 68.0398L182.367 67.0797L180.486 66.5321L180.206 67.4922ZM185.849 69.1351L187.73 69.6827L188.01 68.7225L186.129 68.1749L185.849 69.1351ZM191.492 70.7779L193.373 71.3255L193.652 70.3654L191.771 69.8178L191.492 70.7779ZM197.135 72.4208L199.016 72.9684L199.295 72.0083L197.414 71.4606L197.135 72.4208ZM202.777 74.0636L204.658 74.6112L204.938 73.6511L203.057 73.1035L202.777 74.0636ZM208.42 75.7065L210.301 76.2541L210.58 75.294L208.7 74.7464L208.42 75.7065ZM214.063 77.3493L215.944 77.897L216.223 76.9368L214.342 76.3892L214.063 77.3493ZM219.705 78.9922L221.586 79.5398L221.866 78.5797L219.985 78.0321L219.705 78.9922ZM225.348 80.6351L227.229 81.1827L227.509 80.2225L225.628 79.6749L225.348 80.6351ZM230.991 82.2779L232.872 82.8255L233.151 81.8654L231.27 81.3178L230.991 82.2779ZM236.634 83.9208L238.515 84.4684L238.794 83.5083L236.913 82.9606L236.634 83.9208ZM242.276 85.5636L244.157 86.1112L244.437 85.1511L242.556 84.6035L242.276 85.5636ZM247.919 87.2065L248.86 87.4803L249.139 86.5202L248.199 86.2464L247.919 87.2065ZM248.505 87.0763L248.657 88.0611L249.645 87.909L249.493 86.9242L248.505 87.0763ZM249.263 92.0005L249.566 93.9702L250.554 93.8181L250.251 91.8485L249.263 92.0005ZM250.172 97.9096L250.475 99.8793L251.463 99.7273L251.16 97.7576L250.172 97.9096ZM251.081 103.819L251.384 105.788L252.372 105.636L252.069 103.667L251.081 103.819ZM251.99 109.728L252.293 111.698L253.282 111.545L252.979 109.576L251.99 109.728ZM252.899 115.637L253.202 117.607L254.191 117.455L253.888 115.485L252.899 115.637ZM253.809 121.546L254.112 123.516L255.1 123.364L254.797 121.394L253.809 121.546ZM254.718 127.455L255.021 129.425L256.009 129.273L255.706 127.303L254.718 127.455ZM255.627 133.364L255.93 135.334L256.918 135.182L256.615 133.212L255.627 133.364ZM256.536 139.273L256.839 141.243L257.827 141.091L257.524 139.121L256.536 139.273ZM257.445 145.182L257.748 147.152L258.737 147L258.434 145.03L257.445 145.182ZM258.354 151.092L258.506 152.076L259.494 151.924L259.343 150.94L258.354 151.092ZM258.787 152.453L259.681 152.874L260.107 151.969L259.213 151.548L258.787 152.453ZM263.259 154.559L265.047 155.402L265.473 154.497L263.685 153.654L263.259 154.559ZM268.625 157.087L270.413 157.929L270.839 157.025L269.051 156.182L268.625 157.087ZM273.99 159.614L275.779 160.457L276.205 159.552L274.417 158.71L273.99 159.614ZM279.356 162.142L281.145 162.985L281.571 162.08L279.783 161.237L279.356 162.142ZM284.722 164.67L286.511 165.512L286.937 164.608L285.149 163.765L284.722 164.67ZM290.088 167.197L291.877 168.04L292.303 167.135L290.514 166.293L290.088 167.197ZM295.454 169.725L297.243 170.568L297.669 169.663L295.88 168.82L295.454 169.725ZM300.82 172.253L301.715 172.674L302.141 171.769L301.246 171.348L300.82 172.253ZM301.977 172.719L302.937 172.624L302.838 171.629L301.878 171.724L301.977 172.719ZM306.775 172.242L308.694 172.052L308.595 171.057L306.676 171.247L306.775 172.242ZM312.532 171.67L314.451 171.48L314.352 170.484L312.433 170.675L312.532 171.67ZM318.289 171.098L320.208 170.907L320.109 169.912L318.19 170.103L318.289 171.098ZM324.047 170.526L325.966 170.335L325.867 169.34L323.948 169.531L324.047 170.526ZM329.804 169.954L331.723 169.763L331.624 168.768L329.705 168.959L329.804 169.954ZM335.561 169.382L337.48 169.191L337.381 168.196L335.462 168.387L335.561 169.382ZM341.318 168.81L343.237 168.619L343.138 167.624L341.219 167.814L341.318 168.81ZM347.076 168.237L348.995 168.047L348.896 167.052L346.977 167.242L347.076 168.237ZM352.833 167.665L354.752 167.475L354.653 166.479L352.734 166.67L352.833 167.665ZM358.59 167.093L359.55 166.998L359.451 166.003L358.491 166.098L358.59 167.093ZM359.158 166.865L359.956 167.615L360.641 166.886L359.842 166.136L359.158 166.865ZM363.15 170.615L364.747 172.115L365.432 171.386L363.835 169.886L363.15 170.615ZM367.941 175.115L369.538 176.615L370.222 175.886L368.625 174.386L367.941 175.115ZM372.731 179.615L374.328 181.115L375.013 180.386L373.416 178.886L372.731 179.615ZM377.522 184.115L379.119 185.615L379.804 184.886L378.207 183.386L377.522 184.115ZM382.313 188.615L383.111 189.365L383.796 188.636L382.997 187.886L382.313 188.615ZM382.956 189.051L383.064 190.111L384.059 190.009L383.951 188.949L382.956 189.051ZM383.497 194.349L383.714 196.468L384.709 196.366L384.492 194.247L383.497 194.349ZM384.147 200.706L384.363 202.825L385.358 202.723L385.142 200.604L384.147 200.706ZM384.796 207.063L385.013 209.182L386.008 209.08L385.791 206.961L384.796 207.063ZM385.446 213.42L385.662 215.539L386.657 215.438L386.441 213.319L385.446 213.42ZM386.095 219.777L386.312 221.896L387.307 221.795L387.09 219.676L386.095 219.777ZM386.745 226.135L386.961 228.254L387.956 228.152L387.74 226.033L386.745 226.135ZM387.394 232.492L387.503 233.551L388.497 233.45L388.389 232.39L387.394 232.492ZM387.628 233.166L386.87 234.009L387.614 234.678L388.372 233.835L387.628 233.166ZM383.839 237.381L383.082 238.224L383.825 238.892L384.583 238.049L383.839 237.381ZM383.23 239.005L384.106 239.443L384.553 238.549L383.677 238.111L383.23 239.005ZM387.609 241.196L389.36 242.072L389.808 241.178L388.056 240.301L387.609 241.196ZM392.863 243.824L394.615 244.701L395.062 243.806L393.311 242.93L392.863 243.824ZM398.118 246.453L399.869 247.329L400.317 246.435L398.565 245.559L398.118 246.453ZM403.373 249.082L405.124 249.958L405.572 249.064L403.82 248.187L403.373 249.082ZM408.627 251.71L410.379 252.587L410.826 251.692L409.075 250.816L408.627 251.71ZM413.882 254.339L415.633 255.215L416.081 254.321L414.329 253.445L413.882 254.339ZM419.137 256.968L420.888 257.844L421.336 256.95L419.584 256.073L419.137 256.968ZM424.391 259.596L426.143 260.473L426.59 259.578L424.839 258.702L424.391 259.596ZM429.646 262.225L431.397 263.101L431.845 262.207L430.093 261.331L429.646 262.225ZM434.901 264.854L435.776 265.292L436.224 264.397L435.348 263.959L434.901 264.854ZM436.307 265.24L437.07 264.647L436.457 263.857L435.693 264.45L436.307 265.24ZM440.126 262.275L441.654 261.089L441.04 260.299L439.513 261.485L440.126 262.275ZM444.709 258.718L446.237 257.532L445.624 256.742L444.096 257.928L444.709 258.718ZM449.292 255.16L450.82 253.975L450.207 253.185L448.679 254.37L449.292 255.16ZM453.875 251.603L455.403 250.417L454.79 249.627L453.262 250.813L453.875 251.603ZM458.459 248.046L459.986 246.86L459.373 246.07L457.846 247.256L458.459 248.046ZM463.042 244.488L463.806 243.895L463.193 243.106L462.429 243.698L463.042 244.488ZM463.317 243.966L464.167 244.299L464.532 243.368L463.682 243.035L463.317 243.966ZM467.567 245.633L469.267 246.299L469.632 245.368L467.932 244.702L467.567 245.633ZM472.667 247.633L474.367 248.299L474.732 247.368L473.032 246.702L472.667 247.633ZM477.767 249.633L479.467 250.299L479.832 249.368L478.132 248.702L477.767 249.633ZM482.867 251.633L484.567 252.299L484.932 251.368L483.232 250.702L482.867 251.633ZM487.967 253.633L488.817 253.966L489.182 253.035L488.332 252.702L487.967 253.633ZM488.565 253.749L489.098 254.682L489.967 254.186L489.433 253.252L488.565 253.749ZM491.232 258.415L492.298 260.282L493.167 259.786L492.1 257.919L491.232 258.415ZM494.432 264.015L495.498 265.882L496.367 265.386L495.3 263.519L494.432 264.015ZM497.632 269.615L498.698 271.482L499.567 270.986L498.5 269.119L497.632 269.615ZM500.832 275.215L501.898 277.082L502.767 276.586L501.7 274.719L500.832 275.215ZM504.032 280.815L504.565 281.749L505.433 281.252L504.9 280.319L504.032 280.815ZM504.505 281.575L504.644 282.492L505.632 282.342L505.494 281.426L504.505 281.575ZM505.199 286.159L505.477 287.992L506.466 287.842L506.188 286.009L505.199 286.159ZM506.033 291.659L506.31 293.492L507.299 293.342L507.021 291.509L506.033 291.659ZM506.866 297.159L507.144 298.992L508.132 298.842L507.855 297.009L506.866 297.159ZM507.699 302.659L507.977 304.492L508.966 304.342L508.688 302.509L507.699 302.659ZM508.533 308.159L508.81 309.992L509.799 309.842L509.521 308.009L508.533 308.159ZM509.366 313.659L509.505 314.575L510.494 314.426L510.355 313.509L509.366 313.659ZM509.825 314.969L510.721 315.302L511.069 314.365L510.174 314.032L509.825 314.969ZM514.304 316.636L516.096 317.302L516.444 316.365L514.653 315.699L514.304 316.636ZM519.679 318.636L521.471 319.302L521.819 318.365L520.028 317.699L519.679 318.636ZM525.054 320.636L526.846 321.302L527.194 320.365L525.403 319.699L525.054 320.636ZM530.429 322.636L531.325 322.969L531.674 322.032L530.778 321.699L530.429 322.636ZM531.058 322.265L530.588 323.146L531.47 323.617L531.94 322.736L531.058 322.265ZM528.707 326.67L527.767 328.432L528.649 328.903L529.589 327.141L528.707 326.67ZM525.886 331.956L524.946 333.717L525.828 334.188L526.768 332.426L525.886 331.956ZM523.065 337.241L522.124 339.003L523.007 339.474L523.947 337.712L523.065 337.241ZM520.244 342.527L519.303 344.289L520.185 344.76L521.126 342.998L520.244 342.527ZM517.422 347.813L516.482 349.575L517.364 350.045L518.305 348.284L517.422 347.813ZM514.601 353.098L513.661 354.86L514.543 355.331L515.483 353.569L514.601 353.098ZM511.78 358.384L511.31 359.265L512.192 359.736L512.662 358.855L511.78 358.384ZM511.586 359.028L510.739 359.325L511.068 360.269L511.916 359.973L511.586 359.028ZM507.349 360.509L505.654 361.101L505.984 362.045L507.679 361.453L507.349 360.509ZM502.264 362.286L500.569 362.878L500.899 363.822L502.594 363.23L502.264 362.286ZM497.179 364.063L496.332 364.359L496.661 365.303L497.509 365.007L497.179 364.063Z" fill="#87A4BC"/>
<g filter="url(#filter0_d_5088_63144)">
<circle cx="500" cy="365" r="3" fill="#0C99CF"/>
<circle cx="500" cy="365" r="4" stroke="white" stroke-width="2"/>
</g>
<path d="M454.025 356V345.979H457.785C458.551 345.979 459.164 346.081 459.624 346.286C460.089 346.487 460.451 346.799 460.711 347.223C460.975 347.642 461.107 348.082 461.107 348.542C461.107 348.97 460.991 349.374 460.759 349.752C460.526 350.13 460.175 350.436 459.706 350.668C460.312 350.846 460.777 351.149 461.101 351.577C461.429 352.006 461.593 352.511 461.593 353.095C461.593 353.564 461.493 354.002 461.292 354.407C461.096 354.808 460.852 355.118 460.561 355.337C460.269 355.556 459.902 355.722 459.46 355.836C459.022 355.945 458.485 356 457.847 356H454.025ZM455.352 350.189H457.519C458.106 350.189 458.528 350.151 458.783 350.073C459.12 349.973 459.373 349.807 459.542 349.574C459.715 349.342 459.802 349.05 459.802 348.699C459.802 348.367 459.722 348.075 459.562 347.824C459.403 347.569 459.175 347.396 458.879 347.305C458.583 347.209 458.075 347.161 457.354 347.161H455.352V350.189ZM455.352 354.817H457.847C458.275 354.817 458.576 354.801 458.749 354.77C459.054 354.715 459.31 354.624 459.515 354.496C459.72 354.368 459.888 354.184 460.021 353.942C460.153 353.696 460.219 353.414 460.219 353.095C460.219 352.721 460.123 352.397 459.932 352.124C459.74 351.846 459.474 351.652 459.132 351.543C458.795 351.429 458.307 351.372 457.669 351.372H455.352V354.817ZM463.377 356V345.979H465.373L467.745 353.074C467.964 353.735 468.123 354.229 468.224 354.558C468.338 354.193 468.515 353.658 468.757 352.951L471.156 345.979H472.94V356H471.662V347.612L468.75 356H467.554L464.655 347.469V356H463.377ZM477.63 356V347.161H474.328V345.979H482.271V347.161H478.956V356H477.63ZM483.652 345.979H491.534V356H490.201V347.161H484.979V356H483.652V345.979Z" fill="white"/>
<path d="M15.0391 53V42.9785H17.0352L19.4072 50.0742C19.626 50.735 19.7855 51.2295 19.8857 51.5576C19.9997 51.193 20.1774 50.6576 20.4189 49.9512L22.8184 42.9785H24.6025V53H23.3242V44.6123L20.4121 53H19.2158L16.3174 44.4688V53H15.0391ZM26.585 45.7402H27.8154V51.2773L31.2266 45.7402H32.5527V53H31.3223V47.4971L27.9111 53H26.585V45.7402ZM34.4121 45.7402H35.6426V48.7617H39.0537V45.7402H40.2842V53H39.0537V49.7803H35.6426V53H34.4121V45.7402ZM46.8809 50.3408L48.0908 50.498C47.9587 51.332 47.6191 51.986 47.0723 52.46C46.5299 52.9294 45.8623 53.1641 45.0693 53.1641C44.0758 53.1641 43.276 52.8405 42.6699 52.1934C42.0684 51.5417 41.7676 50.6097 41.7676 49.3975C41.7676 48.6136 41.8975 47.9277 42.1572 47.3398C42.417 46.752 42.8112 46.3122 43.3398 46.0205C43.873 45.7243 44.4518 45.5762 45.0762 45.5762C45.8646 45.5762 46.5094 45.7767 47.0107 46.1777C47.512 46.5742 47.8333 47.1393 47.9746 47.873L46.7783 48.0576C46.6644 47.57 46.4616 47.2031 46.1699 46.957C45.8828 46.7109 45.5342 46.5879 45.124 46.5879C44.5042 46.5879 44.0007 46.8112 43.6133 47.2578C43.2259 47.6999 43.0322 48.4017 43.0322 49.3633C43.0322 50.3385 43.2191 51.0472 43.5928 51.4893C43.9665 51.9313 44.4541 52.1523 45.0557 52.1523C45.5387 52.1523 45.9421 52.0042 46.2656 51.708C46.5892 51.4118 46.7943 50.9561 46.8809 50.3408ZM49.1367 45.7402H50.3672V48.8779C50.7591 48.8779 51.0326 48.8027 51.1875 48.6523C51.347 48.502 51.5794 48.0645 51.8848 47.3398C52.1263 46.7656 52.3223 46.3874 52.4727 46.2051C52.623 46.0228 52.7962 45.8997 52.9922 45.8359C53.1882 45.7721 53.5026 45.7402 53.9355 45.7402H54.1816V46.7588L53.8398 46.752C53.5163 46.752 53.3089 46.7998 53.2178 46.8955C53.1221 46.9958 52.9762 47.2943 52.7803 47.791C52.5934 48.265 52.4225 48.5931 52.2676 48.7754C52.1126 48.9577 51.8734 49.124 51.5498 49.2744C52.0785 49.4157 52.598 49.9079 53.1084 50.751L54.4551 53H53.1016L51.7891 50.751C51.5202 50.2998 51.2855 50.0036 51.085 49.8623C50.8844 49.7165 50.6452 49.6436 50.3672 49.6436V53H49.1367V45.7402Z" fill="white"/>
<g filter="url(#filter1_d_5088_63144)">
<circle cx="35" cy="62" r="2" fill="#0C99CF"/>
<circle cx="35" cy="62" r="2.5" stroke="white"/>
</g>
<defs>
<filter id="filter0_d_5088_63144" x="493.163" y="359.388" width="13.6731" height="13.6731" filterUnits="userSpaceOnUse" color-interpolation-filters="sRGB">
<feFlood flood-opacity="0" result="BackgroundImageFix"/>
<feColorMatrix in="SourceAlpha" type="matrix" values="0 0 0 0 0 0 0 0 0 0 0 0 0 0 0 0 0 0 127 0" result="hardAlpha"/>
<feOffset dy="1.22437"/>
<feGaussianBlur stdDeviation="0.918278"/>
<feColorMatrix type="matrix" values="0 0 0 0 0 0 0 0 0 0 0 0 0 0 0 0 0 0 0.2 0"/>
<feBlend mode="normal" in2="BackgroundImageFix" result="effect1_dropShadow_5088_63144"/>
<feBlend mode="normal" in="SourceGraphic" in2="effect1_dropShadow_5088_63144" result="shape"/>
</filter>
<filter id="filter1_d_5088_63144" x="30.1634" y="58.3878" width="9.67311" height="9.67311" filterUnits="userSpaceOnUse" color-interpolation-filters="sRGB">
<feFlood flood-opacity="0" result="BackgroundImageFix"/>
<feColorMatrix in="SourceAlpha" type="matrix" values="0 0 0 0 0 0 0 0 0 0 0 0 0 0 0 0 0 0 127 0" result="hardAlpha"/>
<feOffset dy="1.22437"/>
<feGaussianBlur stdDeviation="0.918278"/>
<feColorMatrix type="matrix" values="0 0 0 0 0 0 0 0 0 0 0 0 0 0 0 0 0 0 0.2 0"/>
<feBlend mode="normal" in2="BackgroundImageFix" result="effect1_dropShadow_5088_63144"/>
<feBlend mode="normal" in="SourceGraphic" in2="effect1_dropShadow_5088_63144" result="shape"/>
</filter>
</defs>
</svg>
