<svg width="462" height="323" viewBox="0 0 462 323" fill="none" xmlns="http://www.w3.org/2000/svg">
<path d="M401.751 308.501L401.916 308.973L402.1 308.908L402.192 308.736L401.751 308.501ZM421.499 271.501L421.94 271.736L422.209 271.231L421.673 271.032L421.499 271.501ZM399.999 263.501L399.505 263.576L399.549 263.867L399.825 263.969L399.999 263.501ZM394.999 230.501L395.493 230.426L395.479 230.334L395.433 230.253L394.999 230.501ZM378.999 202.501L379.433 202.253L379.346 202.099L379.181 202.035L378.999 202.501ZM353.499 192.501L353.681 192.035L353.417 191.931L353.192 192.106L353.499 192.501ZM326 213.845L325.776 214.292L326.058 214.433L326.306 214.24L326 213.845ZM273.453 187.558L273.081 187.224L272.643 187.712L273.23 188.005L273.453 187.558ZM278 182.501L278.372 182.835L278.52 182.67L278.497 182.45L278 182.501ZM273.453 138L273.951 137.95L273.932 137.764L273.796 137.636L273.453 138ZM249.5 115.5L249.842 115.136L249.677 114.98L249.45 115.003L249.5 115.5ZM191.927 121.222L191.714 121.674L191.839 121.733L191.977 121.719L191.927 121.222ZM149 101L148.506 101.077L148.546 101.339L148.787 101.453L149 101ZM138.999 36.0003L139.493 35.9243L139.41 35.3829L138.878 35.5151L138.999 36.0003ZM34.3791 61.5151C34.1111 61.5817 33.948 61.853 34.0146 62.121C34.0813 62.389 34.3526 62.5522 34.6206 62.4855L34.3791 61.5151ZM35.5881 62.2447C35.8561 62.1781 36.0193 61.9068 35.9526 61.6388C35.886 61.3708 35.6147 61.2076 35.3467 61.2743L35.5881 62.2447ZM39.217 60.3114C38.9491 60.378 38.7859 60.6493 38.8526 60.9173C38.9192 61.1853 39.1905 61.3484 39.4585 61.2818L39.217 60.3114ZM41.3937 60.8003C41.6616 60.7336 41.8248 60.4623 41.7581 60.1944C41.6915 59.9264 41.4202 59.7632 41.1522 59.8299L41.3937 60.8003ZM45.0225 58.8669C44.7546 58.9336 44.5914 59.2049 44.6581 59.4729C44.7247 59.7408 44.996 59.904 45.264 59.8373L45.0225 58.8669ZM47.1992 59.3559C47.4671 59.2892 47.6303 59.0179 47.5637 58.7499C47.497 58.482 47.2257 58.3188 46.9577 58.3854L47.1992 59.3559ZM50.8281 57.4225C50.5601 57.4892 50.3969 57.7604 50.4636 58.0284C50.5303 58.2964 50.8015 58.4596 51.0695 58.3929L50.8281 57.4225ZM53.0047 57.9114C53.2727 57.8447 53.4358 57.5735 53.3692 57.3055C53.3025 57.0375 53.0312 56.8743 52.7632 56.941L53.0047 57.9114ZM56.6336 55.978C56.3656 56.0447 56.2024 56.316 56.2691 56.584C56.3358 56.8519 56.607 57.0151 56.875 56.9485L56.6336 55.978ZM58.8102 56.467C59.0782 56.4003 59.2414 56.129 59.1747 55.861C59.108 55.5931 58.8367 55.4299 58.5687 55.4966L58.8102 56.467ZM62.4391 54.5336C62.1711 54.6003 62.0079 54.8716 62.0746 55.1395C62.1413 55.4075 62.4126 55.5707 62.6805 55.504L62.4391 54.5336ZM64.6157 55.0225C64.8837 54.9559 65.0469 54.6846 64.9802 54.4166C64.9135 54.1486 64.6422 53.9854 64.3743 54.0521L64.6157 55.0225ZM68.2446 53.0892C67.9766 53.1558 67.8134 53.4271 67.8801 53.6951C67.9468 53.9631 68.2181 54.1262 68.4861 54.0596L68.2446 53.0892ZM70.4212 53.5781C70.6892 53.5114 70.8524 53.2401 70.7857 52.9722C70.719 52.7042 70.4477 52.541 70.1798 52.6077L70.4212 53.5781ZM74.0501 51.6447C73.7821 51.7114 73.619 51.9827 73.6856 52.2506C73.7523 52.5186 74.0236 52.6818 74.2916 52.6151L74.0501 51.6447ZM76.2267 52.1336C76.4947 52.067 76.6579 51.7957 76.5912 51.5277C76.5245 51.2597 76.2533 51.0966 75.9853 51.1632L76.2267 52.1336ZM79.8556 50.2003C79.5877 50.2669 79.4245 50.5382 79.4911 50.8062C79.5578 51.0742 79.8291 51.2374 80.0971 51.1707L79.8556 50.2003ZM82.0322 50.6892C82.3002 50.6225 82.4634 50.3512 82.3967 50.0833C82.3301 49.8153 82.0588 49.6521 81.7908 49.7188L82.0322 50.6892ZM85.6611 48.7558C85.3932 48.8225 85.23 49.0938 85.2967 49.3618C85.3633 49.6297 85.6346 49.7929 85.9026 49.7262L85.6611 48.7558ZM87.8378 49.2448C88.1057 49.1781 88.2689 48.9068 88.2022 48.6388C88.1356 48.3709 87.8643 48.2077 87.5963 48.2744L87.8378 49.2448ZM91.4667 47.3114C91.1987 47.3781 91.0355 47.6493 91.1022 47.9173C91.1688 48.1853 91.4401 48.3485 91.7081 48.2818L91.4667 47.3114ZM93.6433 47.8003C93.9112 47.7337 94.0744 47.4624 94.0078 47.1944C93.9411 46.9264 93.6698 46.7632 93.4018 46.8299L93.6433 47.8003ZM97.2722 45.8669C97.0042 45.9336 96.841 46.2049 96.9077 46.4729C96.9744 46.7409 97.2456 46.904 97.5136 46.8374L97.2722 45.8669ZM99.4488 46.3559C99.7167 46.2892 99.8799 46.0179 99.8133 45.75C99.7466 45.482 99.4753 45.3188 99.2073 45.3855L99.4488 46.3559ZM103.078 44.4225C102.81 44.4892 102.647 44.7605 102.713 45.0284C102.78 45.2964 103.051 45.4596 103.319 45.3929L103.078 44.4225ZM105.254 44.9114C105.522 44.8448 105.685 44.5735 105.619 44.3055C105.552 44.0375 105.281 43.8744 105.013 43.941L105.254 44.9114ZM108.883 42.9781C108.615 43.0447 108.452 43.316 108.519 43.584C108.585 43.852 108.857 44.0152 109.125 43.9485L108.883 42.9781ZM111.06 43.467C111.328 43.4003 111.491 43.129 111.424 42.8611C111.358 42.5931 111.086 42.4299 110.818 42.4966L111.06 43.467ZM114.689 41.5336C114.421 41.6003 114.258 41.8716 114.324 42.1396C114.391 42.4075 114.662 42.5707 114.93 42.504L114.689 41.5336ZM116.865 42.0226C117.133 41.9559 117.296 41.6846 117.23 41.4166C117.163 41.1487 116.892 40.9855 116.624 41.0521L116.865 42.0226ZM120.494 40.0892C120.226 40.1559 120.063 40.4271 120.13 40.6951C120.196 40.9631 120.468 41.1263 120.736 41.0596L120.494 40.0892ZM122.671 40.5781C122.939 40.5114 123.102 40.2402 123.035 39.9722C122.969 39.7042 122.697 39.541 122.429 39.6077L122.671 40.5781ZM126.3 38.6447C126.032 38.7114 125.869 38.9827 125.935 39.2507C126.002 39.5186 126.273 39.6818 126.541 39.6152L126.3 38.6447ZM128.476 39.1337C128.744 39.067 128.907 38.7957 128.841 38.5277C128.774 38.2598 128.503 38.0966 128.235 38.1633L128.476 39.1337ZM132.105 37.2003C131.837 37.267 131.674 37.5383 131.741 37.8062C131.807 38.0742 132.079 38.2374 132.347 38.1707L132.105 37.2003ZM134.282 37.6892C134.55 37.6226 134.713 37.3513 134.646 37.0833C134.58 36.8153 134.308 36.6521 134.04 36.7188L134.282 37.6892ZM137.911 35.7559C137.643 35.8225 137.48 36.0938 137.546 36.3618C137.613 36.6298 137.884 36.7929 138.152 36.7263L137.911 35.7559ZM138.656 37.0612C138.698 37.3341 138.954 37.5214 139.227 37.4794C139.5 37.4374 139.687 37.1821 139.645 36.9091L138.656 37.0612ZM140.251 40.8485C140.209 40.5756 139.954 40.3884 139.681 40.4304C139.408 40.4724 139.221 40.7277 139.263 41.0006L140.251 40.8485ZM139.566 42.9703C139.608 43.2432 139.863 43.4305 140.136 43.3885C140.409 43.3465 140.596 43.0912 140.554 42.8182L139.566 42.9703ZM141.16 46.7577C141.118 46.4847 140.863 46.2975 140.59 46.3395C140.317 46.3815 140.13 46.6368 140.172 46.9097L141.16 46.7577ZM140.475 48.8794C140.517 49.1524 140.772 49.3396 141.045 49.2976C141.318 49.2556 141.505 49.0003 141.463 48.7274L140.475 48.8794ZM142.069 52.6668C142.027 52.3938 141.772 52.2066 141.499 52.2486C141.226 52.2906 141.039 52.5459 141.081 52.8188L142.069 52.6668ZM141.384 54.7885C141.426 55.0615 141.681 55.2487 141.954 55.2067C142.227 55.1647 142.414 54.9094 142.372 54.6365L141.384 54.7885ZM142.978 58.5759C142.936 58.3029 142.681 58.1157 142.408 58.1577C142.135 58.1997 141.948 58.455 141.99 58.7279L142.978 58.5759ZM142.293 60.6976C142.335 60.9706 142.59 61.1578 142.863 61.1158C143.136 61.0738 143.323 60.8185 143.281 60.5456L142.293 60.6976ZM143.888 64.485C143.846 64.212 143.59 64.0248 143.317 64.0668C143.044 64.1088 142.857 64.3641 142.899 64.637L143.888 64.485ZM143.202 66.6067C143.244 66.8797 143.499 67.0669 143.772 67.0249C144.045 66.9829 144.233 66.7276 144.191 66.4547L143.202 66.6067ZM144.797 70.3941C144.755 70.1211 144.499 69.9339 144.226 69.9759C143.954 70.0179 143.766 70.2732 143.808 70.5461L144.797 70.3941ZM144.111 72.5158C144.153 72.7888 144.409 72.976 144.682 72.934C144.954 72.892 145.142 72.6367 145.1 72.3638L144.111 72.5158ZM145.706 76.3032C145.664 76.0303 145.409 75.843 145.136 75.885C144.863 75.927 144.675 76.1823 144.717 76.4553L145.706 76.3032ZM145.021 78.425C145.062 78.6979 145.318 78.8851 145.591 78.8431C145.864 78.8011 146.051 78.5458 146.009 78.2729L145.021 78.425ZM146.615 82.2123C146.573 81.9394 146.318 81.7522 146.045 81.7941C145.772 81.8361 145.585 82.0914 145.627 82.3644L146.615 82.2123ZM145.93 84.3341C145.972 84.607 146.227 84.7942 146.5 84.7522C146.773 84.7102 146.96 84.4549 146.918 84.182L145.93 84.3341ZM147.524 88.1214C147.482 87.8485 147.227 87.6613 146.954 87.7033C146.681 87.7452 146.494 88.0005 146.536 88.2735L147.524 88.1214ZM146.839 90.2432C146.881 90.5161 147.136 90.7033 147.409 90.6613C147.682 90.6193 147.869 90.364 147.827 90.0911L146.839 90.2432ZM148.433 94.0305C148.391 93.7576 148.136 93.5704 147.863 93.6124C147.59 93.6543 147.403 93.9096 147.445 94.1826L148.433 94.0305ZM147.748 96.1523C147.79 96.4252 148.045 96.6124 148.318 96.5704C148.591 96.5284 148.778 96.2731 148.736 96.0002L147.748 96.1523ZM149.342 99.9396C149.3 99.6667 149.045 99.4795 148.772 99.5215C148.499 99.5635 148.312 99.8188 148.354 100.092L149.342 99.9396ZM149.681 101.874C149.931 101.992 150.229 101.885 150.346 101.635C150.464 101.385 150.357 101.087 150.107 100.969L149.681 101.874ZM153.684 102.655C153.435 102.537 153.137 102.644 153.019 102.894C152.901 103.144 153.009 103.442 153.258 103.559L153.684 102.655ZM155.047 104.402C155.297 104.519 155.595 104.412 155.712 104.163C155.83 103.913 155.723 103.615 155.473 103.497L155.047 104.402ZM159.05 105.182C158.801 105.065 158.503 105.172 158.385 105.421C158.267 105.671 158.374 105.969 158.624 106.087L159.05 105.182ZM160.413 106.929C160.663 107.047 160.961 106.94 161.078 106.69C161.196 106.44 161.089 106.142 160.839 106.025L160.413 106.929ZM164.416 107.71C164.167 107.592 163.869 107.699 163.751 107.949C163.633 108.199 163.74 108.497 163.99 108.615L164.416 107.71ZM165.779 109.457C166.029 109.575 166.327 109.468 166.444 109.218C166.562 108.968 166.455 108.67 166.205 108.552L165.779 109.457ZM169.782 110.238C169.533 110.12 169.235 110.227 169.117 110.477C168.999 110.727 169.106 111.024 169.356 111.142L169.782 110.238ZM171.145 111.985C171.395 112.102 171.693 111.995 171.81 111.745C171.928 111.496 171.821 111.198 171.571 111.08L171.145 111.985ZM175.148 112.765C174.898 112.647 174.601 112.755 174.483 113.004C174.365 113.254 174.472 113.552 174.722 113.67L175.148 112.765ZM176.511 114.512C176.761 114.63 177.059 114.523 177.176 114.273C177.294 114.023 177.187 113.725 176.937 113.608L176.511 114.512ZM180.514 115.293C180.264 115.175 179.967 115.282 179.849 115.532C179.731 115.782 179.838 116.08 180.088 116.197L180.514 115.293ZM181.877 117.04C182.127 117.158 182.424 117.051 182.542 116.801C182.66 116.551 182.553 116.253 182.303 116.135L181.877 117.04ZM185.88 117.82C185.63 117.703 185.332 117.81 185.215 118.06C185.097 118.31 185.204 118.607 185.454 118.725L185.88 117.82ZM187.243 119.568C187.493 119.685 187.79 119.578 187.908 119.328C188.026 119.079 187.919 118.781 187.669 118.663L187.243 119.568ZM191.246 120.348C190.996 120.23 190.698 120.338 190.581 120.587C190.463 120.837 190.57 121.135 190.82 121.253L191.246 120.348ZM192.936 121.624C193.211 121.597 193.412 121.352 193.384 121.077C193.357 120.802 193.112 120.602 192.837 120.629L192.936 121.624ZM196.676 120.247C196.401 120.275 196.2 120.52 196.228 120.794C196.255 121.069 196.5 121.27 196.775 121.243L196.676 120.247ZM198.694 121.052C198.968 121.024 199.169 120.78 199.142 120.505C199.114 120.23 198.87 120.029 198.595 120.057L198.694 121.052ZM202.433 119.675C202.158 119.703 201.957 119.947 201.985 120.222C202.012 120.497 202.257 120.698 202.532 120.67L202.433 119.675ZM204.451 120.48C204.726 120.452 204.926 120.207 204.899 119.933C204.872 119.658 204.627 119.457 204.352 119.485L204.451 120.48ZM208.19 119.103C207.915 119.13 207.715 119.375 207.742 119.65C207.769 119.925 208.014 120.126 208.289 120.098L208.19 119.103ZM210.208 119.908C210.483 119.88 210.684 119.635 210.656 119.361C210.629 119.086 210.384 118.885 210.109 118.912L210.208 119.908ZM213.947 118.531C213.673 118.558 213.472 118.803 213.499 119.078C213.527 119.353 213.772 119.553 214.046 119.526L213.947 118.531ZM215.965 119.335C216.24 119.308 216.441 119.063 216.413 118.788C216.386 118.514 216.141 118.313 215.866 118.34L215.965 119.335ZM219.705 117.959C219.43 117.986 219.229 118.231 219.257 118.506C219.284 118.781 219.529 118.981 219.804 118.954L219.705 117.959ZM221.723 118.763C221.997 118.736 222.198 118.491 222.171 118.216C222.143 117.941 221.899 117.741 221.624 117.768L221.723 118.763ZM225.462 117.387C225.187 117.414 224.986 117.659 225.014 117.934C225.041 118.208 225.286 118.409 225.561 118.382L225.462 117.387ZM227.48 118.191C227.755 118.164 227.955 117.919 227.928 117.644C227.901 117.369 227.656 117.169 227.381 117.196L227.48 118.191ZM231.219 116.815C230.944 116.842 230.744 117.087 230.771 117.362C230.798 117.636 231.043 117.837 231.318 117.81L231.219 116.815ZM233.237 117.619C233.512 117.592 233.713 117.347 233.685 117.072C233.658 116.797 233.413 116.597 233.138 116.624L233.237 117.619ZM236.976 116.242C236.702 116.27 236.501 116.515 236.528 116.789C236.556 117.064 236.8 117.265 237.075 117.238L236.976 116.242ZM238.994 117.047C239.269 117.02 239.47 116.775 239.442 116.5C239.415 116.225 239.17 116.024 238.895 116.052L238.994 117.047ZM242.734 115.67C242.459 115.698 242.258 115.942 242.286 116.217C242.313 116.492 242.558 116.693 242.833 116.665L242.734 115.67ZM244.752 116.475C245.026 116.447 245.227 116.202 245.2 115.928C245.172 115.653 244.928 115.452 244.653 115.48L244.752 116.475ZM248.491 115.098C248.216 115.125 248.015 115.37 248.043 115.645C248.07 115.92 248.315 116.121 248.59 116.093L248.491 115.098ZM249.956 116.615C250.157 116.804 250.474 116.794 250.663 116.593C250.852 116.391 250.842 116.075 250.641 115.886L249.956 116.615ZM253.834 118.886C253.633 118.697 253.317 118.707 253.128 118.908C252.939 119.109 252.948 119.426 253.15 119.615L253.834 118.886ZM254.747 121.115C254.948 121.304 255.264 121.294 255.453 121.093C255.642 120.891 255.633 120.575 255.431 120.386L254.747 121.115ZM258.625 123.386C258.424 123.197 258.107 123.207 257.918 123.408C257.729 123.609 257.739 123.926 257.94 124.115L258.625 123.386ZM259.537 125.615C259.739 125.804 260.055 125.794 260.244 125.593C260.433 125.391 260.423 125.075 260.222 124.886L259.537 125.615ZM263.416 127.886C263.214 127.697 262.898 127.707 262.709 127.908C262.52 128.109 262.53 128.426 262.731 128.615L263.416 127.886ZM264.328 130.115C264.529 130.304 264.846 130.294 265.035 130.093C265.224 129.891 265.214 129.575 265.013 129.386L264.328 130.115ZM268.206 132.386C268.005 132.197 267.689 132.207 267.5 132.408C267.311 132.609 267.32 132.926 267.522 133.115L268.206 132.386ZM269.119 134.615C269.32 134.804 269.636 134.794 269.825 134.593C270.014 134.391 270.005 134.075 269.803 133.886L269.119 134.615ZM272.997 136.886C272.796 136.697 272.479 136.707 272.29 136.908C272.101 137.109 272.111 137.426 272.312 137.615L272.997 136.886ZM273.064 139.111C273.092 139.385 273.338 139.585 273.612 139.557C273.887 139.529 274.087 139.284 274.059 139.009L273.064 139.111ZM274.492 143.247C274.464 142.972 274.218 142.772 273.944 142.801C273.669 142.829 273.469 143.074 273.497 143.349L274.492 143.247ZM273.714 145.468C273.742 145.743 273.987 145.943 274.262 145.914C274.536 145.886 274.736 145.641 274.708 145.366L273.714 145.468ZM275.141 149.604C275.113 149.33 274.868 149.13 274.593 149.158C274.318 149.186 274.118 149.431 274.147 149.706L275.141 149.604ZM274.363 151.825C274.391 152.1 274.637 152.3 274.911 152.272C275.186 152.244 275.386 151.998 275.358 151.723L274.363 151.825ZM275.791 155.962C275.763 155.687 275.517 155.487 275.243 155.515C274.968 155.543 274.768 155.788 274.796 156.063L275.791 155.962ZM275.013 158.182C275.041 158.457 275.286 158.657 275.561 158.629C275.836 158.601 276.035 158.355 276.007 158.081L275.013 158.182ZM276.44 162.319C276.412 162.044 276.167 161.844 275.892 161.872C275.617 161.9 275.418 162.146 275.446 162.42L276.44 162.319ZM275.662 164.539C275.69 164.814 275.936 165.014 276.21 164.986C276.485 164.958 276.685 164.712 276.657 164.438L275.662 164.539ZM277.09 168.676C277.062 168.401 276.816 168.201 276.542 168.229C276.267 168.257 276.067 168.503 276.095 168.778L277.09 168.676ZM276.312 170.897C276.34 171.171 276.585 171.371 276.86 171.343C277.135 171.315 277.335 171.07 277.306 170.795L276.312 170.897ZM277.739 175.033C277.711 174.758 277.466 174.558 277.191 174.586C276.917 174.615 276.717 174.86 276.745 175.135L277.739 175.033ZM276.961 177.254C276.989 177.528 277.235 177.728 277.509 177.7C277.784 177.672 277.984 177.427 277.956 177.152L276.961 177.254ZM278.389 181.39C278.361 181.115 278.115 180.916 277.841 180.944C277.566 180.972 277.366 181.217 277.394 181.492L278.389 181.39ZM276.87 183.009C276.686 183.215 276.702 183.531 276.908 183.715C277.113 183.9 277.429 183.883 277.614 183.678L276.87 183.009ZM274.583 187.049C274.767 186.844 274.751 186.528 274.545 186.343C274.34 186.159 274.024 186.176 273.839 186.381L274.583 187.049ZM274.105 188.443C274.352 188.567 274.653 188.467 274.776 188.22C274.9 187.973 274.8 187.673 274.553 187.549L274.105 188.443ZM278.056 189.301C277.809 189.178 277.508 189.278 277.385 189.525C277.261 189.772 277.361 190.072 277.608 190.196L278.056 189.301ZM279.36 191.072C279.607 191.196 279.907 191.096 280.031 190.849C280.154 190.602 280.054 190.301 279.807 190.178L279.36 191.072ZM283.31 191.93C283.063 191.807 282.763 191.907 282.64 192.154C282.516 192.401 282.616 192.701 282.863 192.824L283.31 191.93ZM284.615 193.701C284.862 193.824 285.162 193.724 285.285 193.477C285.409 193.23 285.309 192.93 285.062 192.806L284.615 193.701ZM288.565 194.559C288.318 194.435 288.018 194.535 287.894 194.782C287.771 195.029 287.871 195.33 288.118 195.453L288.565 194.559ZM289.869 196.329C290.116 196.453 290.417 196.353 290.54 196.106C290.664 195.859 290.564 195.559 290.317 195.435L289.869 196.329ZM293.82 197.187C293.573 197.064 293.272 197.164 293.149 197.411C293.025 197.658 293.125 197.958 293.372 198.082L293.82 197.187ZM295.124 198.958C295.371 199.082 295.671 198.981 295.795 198.735C295.918 198.488 295.818 198.187 295.571 198.064L295.124 198.958ZM299.074 199.816C298.827 199.693 298.527 199.793 298.404 200.04C298.28 200.287 298.38 200.587 298.627 200.71L299.074 199.816ZM300.379 201.587C300.626 201.71 300.926 201.61 301.049 201.363C301.173 201.116 301.073 200.816 300.826 200.692L300.379 201.587ZM304.329 202.445C304.082 202.321 303.782 202.421 303.658 202.668C303.535 202.915 303.635 203.216 303.882 203.339L304.329 202.445ZM305.633 204.215C305.88 204.339 306.181 204.239 306.304 203.992C306.428 203.745 306.328 203.445 306.081 203.321L305.633 204.215ZM309.584 205.073C309.337 204.95 309.036 205.05 308.913 205.297C308.789 205.544 308.889 205.844 309.136 205.968L309.584 205.073ZM310.888 206.844C311.135 206.968 311.435 206.867 311.559 206.62C311.682 206.374 311.582 206.073 311.335 205.95L310.888 206.844ZM314.838 207.702C314.591 207.579 314.291 207.679 314.168 207.926C314.044 208.172 314.144 208.473 314.391 208.596L314.838 207.702ZM316.143 209.473C316.39 209.596 316.69 209.496 316.813 209.249C316.937 209.002 316.837 208.702 316.59 208.578L316.143 209.473ZM320.093 210.331C319.846 210.207 319.546 210.307 319.422 210.554C319.299 210.801 319.399 211.102 319.646 211.225L320.093 210.331ZM321.397 212.101C321.644 212.225 321.945 212.125 322.068 211.878C322.192 211.631 322.092 211.33 321.845 211.207L321.397 212.101ZM325.348 212.959C325.101 212.836 324.8 212.936 324.677 213.183C324.553 213.43 324.653 213.73 324.9 213.854L325.348 212.959ZM327.07 213.647C327.288 213.477 327.328 213.163 327.159 212.945C326.989 212.727 326.675 212.687 326.457 212.857L327.07 213.647ZM329.513 210.485C329.294 210.655 329.255 210.969 329.424 211.187C329.593 211.405 329.908 211.445 330.126 211.275L329.513 210.485ZM331.653 210.089C331.872 209.92 331.911 209.606 331.742 209.388C331.572 209.17 331.258 209.13 331.04 209.299L331.653 210.089ZM334.096 206.928C333.878 207.097 333.838 207.411 334.007 207.629C334.177 207.848 334.491 207.887 334.709 207.718L334.096 206.928ZM336.237 206.532C336.455 206.363 336.494 206.049 336.325 205.831C336.156 205.612 335.842 205.573 335.623 205.742L336.237 206.532ZM338.679 203.371C338.461 203.54 338.421 203.854 338.591 204.072C338.76 204.29 339.074 204.33 339.292 204.16L338.679 203.371ZM340.82 202.975C341.038 202.805 341.078 202.491 340.908 202.273C340.739 202.055 340.425 202.015 340.207 202.185L340.82 202.975ZM343.262 199.813C343.044 199.983 343.004 200.297 343.174 200.515C343.343 200.733 343.657 200.772 343.875 200.603L343.262 199.813ZM345.403 199.417C345.621 199.248 345.661 198.934 345.491 198.716C345.322 198.498 345.008 198.458 344.79 198.627L345.403 199.417ZM347.845 196.256C347.627 196.425 347.588 196.739 347.757 196.957C347.926 197.176 348.24 197.215 348.458 197.046L347.845 196.256ZM349.986 195.86C350.204 195.691 350.244 195.377 350.075 195.158C349.905 194.94 349.591 194.901 349.373 195.07L349.986 195.86ZM352.428 192.699C352.21 192.868 352.171 193.182 352.34 193.4C352.509 193.618 352.823 193.658 353.042 193.488L352.428 192.699ZM354.166 193.299C354.423 193.4 354.714 193.274 354.814 193.016C354.915 192.759 354.789 192.469 354.531 192.368L354.166 193.299ZM357.931 193.702C357.674 193.601 357.384 193.728 357.283 193.985C357.183 194.242 357.309 194.532 357.566 194.633L357.931 193.702ZM359.266 195.299C359.523 195.4 359.814 195.274 359.914 195.016C360.015 194.759 359.889 194.469 359.631 194.368L359.266 195.299ZM363.031 195.702C362.774 195.601 362.484 195.728 362.383 195.985C362.283 196.242 362.409 196.532 362.666 196.633L363.031 195.702ZM364.366 197.299C364.623 197.4 364.914 197.274 365.014 197.016C365.115 196.759 364.989 196.469 364.731 196.368L364.366 197.299ZM368.131 197.702C367.874 197.601 367.584 197.728 367.483 197.985C367.383 198.242 367.509 198.532 367.766 198.633L368.131 197.702ZM369.466 199.299C369.723 199.4 370.014 199.274 370.114 199.016C370.215 198.759 370.089 198.469 369.831 198.368L369.466 199.299ZM373.231 199.702C372.974 199.601 372.684 199.728 372.583 199.985C372.483 200.242 372.609 200.532 372.866 200.633L373.231 199.702ZM374.566 201.299C374.823 201.4 375.114 201.274 375.214 201.016C375.315 200.759 375.189 200.469 374.931 200.368L374.566 201.299ZM378.331 201.702C378.074 201.601 377.784 201.728 377.683 201.985C377.583 202.242 377.709 202.532 377.966 202.633L378.331 201.702ZM379.098 203.682C379.235 203.922 379.541 204.005 379.78 203.868C380.02 203.731 380.103 203.426 379.966 203.186L379.098 203.682ZM382.1 206.919C381.963 206.679 381.657 206.596 381.418 206.733C381.178 206.87 381.094 207.176 381.231 207.415L382.1 206.919ZM382.298 209.282C382.435 209.522 382.741 209.605 382.98 209.468C383.22 209.331 383.303 209.026 383.166 208.786L382.298 209.282ZM385.3 212.519C385.163 212.279 384.857 212.196 384.618 212.333C384.378 212.47 384.294 212.776 384.431 213.015L385.3 212.519ZM385.498 214.882C385.635 215.122 385.941 215.205 386.18 215.068C386.42 214.931 386.503 214.626 386.366 214.386L385.498 214.882ZM388.5 218.119C388.363 217.879 388.057 217.796 387.818 217.933C387.578 218.07 387.494 218.376 387.631 218.615L388.5 218.119ZM388.698 220.482C388.835 220.722 389.141 220.805 389.38 220.668C389.62 220.531 389.703 220.226 389.566 219.986L388.698 220.482ZM391.7 223.719C391.563 223.479 391.257 223.396 391.018 223.533C390.778 223.67 390.694 223.976 390.831 224.215L391.7 223.719ZM391.898 226.082C392.035 226.322 392.341 226.405 392.58 226.268C392.82 226.131 392.903 225.826 392.766 225.586L391.898 226.082ZM394.9 229.319C394.763 229.079 394.457 228.996 394.218 229.133C393.978 229.27 393.894 229.576 394.031 229.815L394.9 229.319ZM394.643 231.492C394.685 231.765 394.94 231.953 395.213 231.912C395.486 231.87 395.674 231.615 395.632 231.342L394.643 231.492ZM396.188 235.009C396.146 234.736 395.892 234.548 395.618 234.59C395.345 234.631 395.158 234.886 395.199 235.159L396.188 235.009ZM395.477 236.992C395.518 237.265 395.773 237.453 396.046 237.412C396.319 237.37 396.507 237.115 396.466 236.842L395.477 236.992ZM397.021 240.509C396.98 240.236 396.725 240.048 396.452 240.09C396.179 240.131 395.991 240.386 396.032 240.659L397.021 240.509ZM396.31 242.492C396.352 242.765 396.606 242.953 396.879 242.912C397.152 242.87 397.34 242.615 397.299 242.342L396.31 242.492ZM397.854 246.009C397.813 245.736 397.558 245.548 397.285 245.59C397.012 245.631 396.824 245.886 396.866 246.159L397.854 246.009ZM397.143 247.992C397.185 248.265 397.44 248.453 397.713 248.412C397.986 248.37 398.174 248.115 398.132 247.842L397.143 247.992ZM398.688 251.509C398.646 251.236 398.392 251.048 398.118 251.09C397.845 251.131 397.658 251.386 397.699 251.659L398.688 251.509ZM397.977 253.492C398.018 253.765 398.273 253.953 398.546 253.912C398.819 253.87 399.007 253.615 398.966 253.342L397.977 253.492ZM399.521 257.009C399.48 256.736 399.225 256.548 398.952 256.59C398.679 256.631 398.491 256.886 398.532 257.159L399.521 257.009ZM398.81 258.992C398.852 259.265 399.106 259.453 399.379 259.412C399.652 259.37 399.84 259.115 399.799 258.842L398.81 258.992ZM400.354 262.509C400.313 262.236 400.058 262.048 399.785 262.09C399.512 262.131 399.324 262.386 399.366 262.659L400.354 262.509ZM400.72 264.303C400.979 264.399 401.267 264.267 401.363 264.008C401.46 263.75 401.328 263.462 401.069 263.365L400.72 264.303ZM404.652 264.699C404.394 264.602 404.106 264.734 404.01 264.993C403.913 265.252 404.045 265.54 404.304 265.636L404.652 264.699ZM406.095 266.303C406.354 266.399 406.642 266.267 406.738 266.008C406.835 265.75 406.703 265.462 406.444 265.365L406.095 266.303ZM410.027 266.699C409.769 266.602 409.481 266.734 409.385 266.993C409.288 267.252 409.42 267.54 409.679 267.636L410.027 266.699ZM411.47 268.303C411.729 268.399 412.017 268.267 412.113 268.008C412.21 267.75 412.078 267.462 411.819 267.365L411.47 268.303ZM415.402 268.699C415.144 268.602 414.856 268.734 414.76 268.993C414.663 269.252 414.795 269.54 415.054 269.636L415.402 268.699ZM416.845 270.303C417.104 270.399 417.392 270.267 417.488 270.008C417.585 269.75 417.453 269.462 417.194 269.365L416.845 270.303ZM420.777 270.699C420.519 270.602 420.231 270.734 420.135 270.993C420.038 271.252 420.17 271.54 420.429 271.636L420.777 270.699ZM420.588 272.146C420.458 272.39 420.55 272.693 420.793 272.823C421.037 272.953 421.34 272.861 421.47 272.617L420.588 272.146ZM419.589 276.141C419.719 275.897 419.627 275.594 419.383 275.464C419.14 275.334 418.837 275.426 418.707 275.67L419.589 276.141ZM417.766 277.432C417.636 277.675 417.729 277.978 417.972 278.108C418.216 278.238 418.519 278.146 418.649 277.903L417.766 277.432ZM416.768 281.427C416.898 281.183 416.806 280.88 416.562 280.75C416.319 280.62 416.016 280.712 415.886 280.956L416.768 281.427ZM414.945 282.718C414.815 282.961 414.907 283.264 415.151 283.394C415.395 283.524 415.697 283.432 415.828 283.188L414.945 282.718ZM413.947 286.712C414.077 286.469 413.985 286.166 413.741 286.036C413.497 285.906 413.195 285.998 413.065 286.241L413.947 286.712ZM412.124 288.003C411.994 288.247 412.086 288.55 412.33 288.68C412.573 288.81 412.876 288.718 413.006 288.474L412.124 288.003ZM411.126 291.998C411.256 291.754 411.163 291.451 410.92 291.321C410.676 291.191 410.373 291.283 410.243 291.527L411.126 291.998ZM409.303 293.289C409.173 293.533 409.265 293.835 409.509 293.966C409.752 294.096 410.055 294.003 410.185 293.76L409.303 293.289ZM408.304 297.284C408.434 297.04 408.342 296.737 408.099 296.607C407.855 296.477 407.552 296.569 407.422 296.813L408.304 297.284ZM406.482 298.575C406.352 298.818 406.444 299.121 406.687 299.251C406.931 299.381 407.234 299.289 407.364 299.046L406.482 298.575ZM405.483 302.569C405.613 302.326 405.521 302.023 405.278 301.893C405.034 301.763 404.731 301.855 404.601 302.098L405.483 302.569ZM403.661 303.86C403.531 304.104 403.623 304.407 403.866 304.537C404.11 304.667 404.413 304.575 404.543 304.331L403.661 303.86ZM402.662 307.855C402.792 307.611 402.7 307.309 402.456 307.179C402.213 307.049 401.91 307.141 401.78 307.384L402.662 307.855ZM400.738 308.325C400.478 308.416 400.34 308.701 400.431 308.962C400.522 309.222 400.807 309.36 401.068 309.269L400.738 308.325ZM397.678 310.453C397.939 310.362 398.076 310.077 397.985 309.816C397.894 309.556 397.609 309.418 397.348 309.509L397.678 310.453ZM395.653 310.101C395.393 310.193 395.255 310.478 395.346 310.738C395.437 310.999 395.723 311.137 395.983 311.045L395.653 310.101ZM392.593 312.23C392.854 312.139 392.992 311.854 392.901 311.593C392.809 311.332 392.524 311.195 392.264 311.286L392.593 312.23ZM390.569 311.878C390.308 311.969 390.17 312.254 390.262 312.515C390.353 312.776 390.638 312.913 390.899 312.822L390.569 311.878ZM387.509 314.007C387.769 313.916 387.907 313.63 387.816 313.37C387.725 313.109 387.439 312.972 387.179 313.063L387.509 314.007ZM34.6206 62.4855L35.5881 62.2447L35.3467 61.2743L34.3791 61.5151L34.6206 62.4855ZM39.4585 61.2818L41.3937 60.8003L41.1522 59.8299L39.217 60.3114L39.4585 61.2818ZM45.264 59.8373L47.1992 59.3559L46.9577 58.3854L45.0225 58.8669L45.264 59.8373ZM51.0695 58.3929L53.0047 57.9114L52.7632 56.941L50.8281 57.4225L51.0695 58.3929ZM56.875 56.9485L58.8102 56.467L58.5687 55.4966L56.6336 55.978L56.875 56.9485ZM62.6805 55.504L64.6157 55.0225L64.3743 54.0521L62.4391 54.5336L62.6805 55.504ZM68.4861 54.0596L70.4212 53.5781L70.1798 52.6077L68.2446 53.0892L68.4861 54.0596ZM74.2916 52.6151L76.2267 52.1336L75.9853 51.1632L74.0501 51.6447L74.2916 52.6151ZM80.0971 51.1707L82.0322 50.6892L81.7908 49.7188L79.8556 50.2003L80.0971 51.1707ZM85.9026 49.7262L87.8378 49.2448L87.5963 48.2744L85.6611 48.7558L85.9026 49.7262ZM91.7081 48.2818L93.6433 47.8003L93.4018 46.8299L91.4667 47.3114L91.7081 48.2818ZM97.5136 46.8374L99.4488 46.3559L99.2073 45.3855L97.2722 45.8669L97.5136 46.8374ZM103.319 45.3929L105.254 44.9114L105.013 43.941L103.078 44.4225L103.319 45.3929ZM109.125 43.9485L111.06 43.467L110.818 42.4966L108.883 42.9781L109.125 43.9485ZM114.93 42.504L116.865 42.0226L116.624 41.0521L114.689 41.5336L114.93 42.504ZM120.736 41.0596L122.671 40.5781L122.429 39.6077L120.494 40.0892L120.736 41.0596ZM126.541 39.6152L128.476 39.1337L128.235 38.1633L126.3 38.6447L126.541 39.6152ZM132.347 38.1707L134.282 37.6892L134.04 36.7188L132.105 37.2003L132.347 38.1707ZM138.152 36.7263L139.12 36.4855L138.878 35.5151L137.911 35.7559L138.152 36.7263ZM138.505 36.0764L138.656 37.0612L139.645 36.9091L139.493 35.9243L138.505 36.0764ZM139.263 41.0006L139.566 42.9703L140.554 42.8182L140.251 40.8485L139.263 41.0006ZM140.172 46.9097L140.475 48.8794L141.463 48.7274L141.16 46.7577L140.172 46.9097ZM141.081 52.8188L141.384 54.7885L142.372 54.6365L142.069 52.6668L141.081 52.8188ZM141.99 58.7279L142.293 60.6976L143.281 60.5456L142.978 58.5759L141.99 58.7279ZM142.899 64.637L143.202 66.6067L144.191 66.4547L143.888 64.485L142.899 64.637ZM143.808 70.5461L144.111 72.5158L145.1 72.3638L144.797 70.3941L143.808 70.5461ZM144.717 76.4553L145.021 78.425L146.009 78.2729L145.706 76.3032L144.717 76.4553ZM145.627 82.3644L145.93 84.3341L146.918 84.182L146.615 82.2123L145.627 82.3644ZM146.536 88.2735L146.839 90.2432L147.827 90.0911L147.524 88.1214L146.536 88.2735ZM147.445 94.1826L147.748 96.1523L148.736 96.0002L148.433 94.0305L147.445 94.1826ZM148.354 100.092L148.506 101.077L149.494 100.924L149.342 99.9396L148.354 100.092ZM148.787 101.453L149.681 101.874L150.107 100.969L149.213 100.548L148.787 101.453ZM153.258 103.559L155.047 104.402L155.473 103.497L153.684 102.655L153.258 103.559ZM158.624 106.087L160.413 106.929L160.839 106.025L159.05 105.182L158.624 106.087ZM163.99 108.615L165.779 109.457L166.205 108.552L164.416 107.71L163.99 108.615ZM169.356 111.142L171.145 111.985L171.571 111.08L169.782 110.238L169.356 111.142ZM174.722 113.67L176.511 114.512L176.937 113.608L175.148 112.765L174.722 113.67ZM180.088 116.197L181.877 117.04L182.303 116.135L180.514 115.293L180.088 116.197ZM185.454 118.725L187.243 119.568L187.669 118.663L185.88 117.82L185.454 118.725ZM190.82 121.253L191.714 121.674L192.14 120.769L191.246 120.348L190.82 121.253ZM191.977 121.719L192.936 121.624L192.837 120.629L191.878 120.724L191.977 121.719ZM196.775 121.243L198.694 121.052L198.595 120.057L196.676 120.247L196.775 121.243ZM202.532 120.67L204.451 120.48L204.352 119.485L202.433 119.675L202.532 120.67ZM208.289 120.098L210.208 119.908L210.109 118.912L208.19 119.103L208.289 120.098ZM214.046 119.526L215.965 119.335L215.866 118.34L213.947 118.531L214.046 119.526ZM219.804 118.954L221.723 118.763L221.624 117.768L219.705 117.959L219.804 118.954ZM225.561 118.382L227.48 118.191L227.381 117.196L225.462 117.387L225.561 118.382ZM231.318 117.81L233.237 117.619L233.138 116.624L231.219 116.815L231.318 117.81ZM237.075 117.238L238.994 117.047L238.895 116.052L236.976 116.242L237.075 117.238ZM242.833 116.665L244.752 116.475L244.653 115.48L242.734 115.67L242.833 116.665ZM248.59 116.093L249.549 115.998L249.45 115.003L248.491 115.098L248.59 116.093ZM249.158 115.865L249.956 116.615L250.641 115.886L249.842 115.136L249.158 115.865ZM253.15 119.615L254.747 121.115L255.431 120.386L253.834 118.886L253.15 119.615ZM257.94 124.115L259.537 125.615L260.222 124.886L258.625 123.386L257.94 124.115ZM262.731 128.615L264.328 130.115L265.013 129.386L263.416 127.886L262.731 128.615ZM267.522 133.115L269.119 134.615L269.803 133.886L268.206 132.386L267.522 133.115ZM272.312 137.615L273.111 138.365L273.796 137.636L272.997 136.886L272.312 137.615ZM272.956 138.051L273.064 139.111L274.059 139.009L273.951 137.95L272.956 138.051ZM273.497 143.349L273.714 145.468L274.708 145.366L274.492 143.247L273.497 143.349ZM274.147 149.706L274.363 151.825L275.358 151.723L275.141 149.604L274.147 149.706ZM274.796 156.063L275.013 158.182L276.007 158.081L275.791 155.962L274.796 156.063ZM275.446 162.42L275.662 164.539L276.657 164.438L276.44 162.319L275.446 162.42ZM276.095 168.778L276.312 170.897L277.306 170.795L277.09 168.676L276.095 168.778ZM276.745 175.135L276.961 177.254L277.956 177.152L277.739 175.033L276.745 175.135ZM277.394 181.492L277.502 182.551L278.497 182.45L278.389 181.39L277.394 181.492ZM277.628 182.166L276.87 183.009L277.614 183.678L278.372 182.835L277.628 182.166ZM273.839 186.381L273.081 187.224L273.825 187.892L274.583 187.049L273.839 186.381ZM273.23 188.005L274.105 188.443L274.553 187.549L273.677 187.111L273.23 188.005ZM277.608 190.196L279.36 191.072L279.807 190.178L278.056 189.301L277.608 190.196ZM282.863 192.824L284.615 193.701L285.062 192.806L283.31 191.93L282.863 192.824ZM288.118 195.453L289.869 196.329L290.317 195.435L288.565 194.559L288.118 195.453ZM293.372 198.082L295.124 198.958L295.571 198.064L293.82 197.187L293.372 198.082ZM298.627 200.71L300.379 201.587L300.826 200.692L299.074 199.816L298.627 200.71ZM303.882 203.339L305.633 204.215L306.081 203.321L304.329 202.445L303.882 203.339ZM309.136 205.968L310.888 206.844L311.335 205.95L309.584 205.073L309.136 205.968ZM314.391 208.596L316.143 209.473L316.59 208.578L314.838 207.702L314.391 208.596ZM319.646 211.225L321.397 212.101L321.845 211.207L320.093 210.331L319.646 211.225ZM324.9 213.854L325.776 214.292L326.223 213.397L325.348 212.959L324.9 213.854ZM326.306 214.24L327.07 213.647L326.457 212.857L325.693 213.45L326.306 214.24ZM330.126 211.275L331.653 210.089L331.04 209.299L329.513 210.485L330.126 211.275ZM334.709 207.718L336.237 206.532L335.623 205.742L334.096 206.928L334.709 207.718ZM339.292 204.16L340.82 202.975L340.207 202.185L338.679 203.371L339.292 204.16ZM343.875 200.603L345.403 199.417L344.79 198.627L343.262 199.813L343.875 200.603ZM348.458 197.046L349.986 195.86L349.373 195.07L347.845 196.256L348.458 197.046ZM353.042 193.488L353.805 192.896L353.192 192.106L352.428 192.699L353.042 193.488ZM353.316 192.966L354.166 193.299L354.531 192.368L353.681 192.035L353.316 192.966ZM357.566 194.633L359.266 195.299L359.631 194.368L357.931 193.702L357.566 194.633ZM362.666 196.633L364.366 197.299L364.731 196.368L363.031 195.702L362.666 196.633ZM367.766 198.633L369.466 199.299L369.831 198.368L368.131 197.702L367.766 198.633ZM372.866 200.633L374.566 201.299L374.931 200.368L373.231 199.702L372.866 200.633ZM377.966 202.633L378.816 202.966L379.181 202.035L378.331 201.702L377.966 202.633ZM378.565 202.749L379.098 203.682L379.966 203.186L379.433 202.253L378.565 202.749ZM381.231 207.415L382.298 209.282L383.166 208.786L382.1 206.919L381.231 207.415ZM384.431 213.015L385.498 214.882L386.366 214.386L385.3 212.519L384.431 213.015ZM387.631 218.615L388.698 220.482L389.566 219.986L388.5 218.119L387.631 218.615ZM390.831 224.215L391.898 226.082L392.766 225.586L391.7 223.719L390.831 224.215ZM394.031 229.815L394.565 230.749L395.433 230.253L394.9 229.319L394.031 229.815ZM394.505 230.576L394.643 231.492L395.632 231.342L395.493 230.426L394.505 230.576ZM395.199 235.159L395.477 236.992L396.466 236.842L396.188 235.009L395.199 235.159ZM396.032 240.659L396.31 242.492L397.299 242.342L397.021 240.509L396.032 240.659ZM396.866 246.159L397.143 247.992L398.132 247.842L397.854 246.009L396.866 246.159ZM397.699 251.659L397.977 253.492L398.966 253.342L398.688 251.509L397.699 251.659ZM398.532 257.159L398.81 258.992L399.799 258.842L399.521 257.009L398.532 257.159ZM399.366 262.659L399.505 263.576L400.493 263.426L400.354 262.509L399.366 262.659ZM399.825 263.969L400.72 264.303L401.069 263.365L400.173 263.032L399.825 263.969ZM404.304 265.636L406.095 266.303L406.444 265.365L404.652 264.699L404.304 265.636ZM409.679 267.636L411.47 268.303L411.819 267.365L410.027 266.699L409.679 267.636ZM415.054 269.636L416.845 270.303L417.194 269.365L415.402 268.699L415.054 269.636ZM420.429 271.636L421.325 271.969L421.673 271.032L420.777 270.699L420.429 271.636ZM421.058 271.265L420.588 272.146L421.47 272.617L421.94 271.736L421.058 271.265ZM418.707 275.67L417.766 277.432L418.649 277.903L419.589 276.141L418.707 275.67ZM415.886 280.956L414.945 282.718L415.828 283.188L416.768 281.427L415.886 280.956ZM413.065 286.241L412.124 288.003L413.006 288.474L413.947 286.712L413.065 286.241ZM410.243 291.527L409.303 293.289L410.185 293.76L411.126 291.998L410.243 291.527ZM407.422 296.813L406.482 298.575L407.364 299.046L408.304 297.284L407.422 296.813ZM404.601 302.098L403.661 303.86L404.543 304.331L405.483 302.569L404.601 302.098ZM401.78 307.384L401.31 308.265L402.192 308.736L402.662 307.855L401.78 307.384ZM401.586 308.029L400.738 308.325L401.068 309.269L401.916 308.973L401.586 308.029ZM397.348 309.509L395.653 310.101L395.983 311.045L397.678 310.453L397.348 309.509ZM392.264 311.286L390.569 311.878L390.899 312.822L392.593 312.23L392.264 311.286ZM387.179 313.063L386.331 313.359L386.661 314.303L387.509 314.007L387.179 313.063Z" fill="#87A4BC"/>
<g filter="url(#filter0_d_5088_63126)">
<circle cx="390" cy="314" r="3" fill="#0C99CF"/>
<circle cx="390" cy="314" r="4" stroke="white" stroke-width="2"/>
</g>
<path d="M344.025 305V294.979H347.785C348.551 294.979 349.164 295.081 349.624 295.286C350.089 295.487 350.451 295.799 350.711 296.223C350.975 296.642 351.107 297.082 351.107 297.542C351.107 297.97 350.991 298.374 350.759 298.752C350.526 299.13 350.175 299.436 349.706 299.668C350.312 299.846 350.777 300.149 351.101 300.577C351.429 301.006 351.593 301.511 351.593 302.095C351.593 302.564 351.493 303.002 351.292 303.407C351.096 303.808 350.852 304.118 350.561 304.337C350.269 304.556 349.902 304.722 349.46 304.836C349.022 304.945 348.485 305 347.847 305H344.025ZM345.352 299.189H347.519C348.106 299.189 348.528 299.151 348.783 299.073C349.12 298.973 349.373 298.807 349.542 298.574C349.715 298.342 349.802 298.05 349.802 297.699C349.802 297.367 349.722 297.075 349.562 296.824C349.403 296.569 349.175 296.396 348.879 296.305C348.583 296.209 348.075 296.161 347.354 296.161H345.352V299.189ZM345.352 303.817H347.847C348.275 303.817 348.576 303.801 348.749 303.77C349.054 303.715 349.31 303.624 349.515 303.496C349.72 303.368 349.888 303.184 350.021 302.942C350.153 302.696 350.219 302.414 350.219 302.095C350.219 301.721 350.123 301.397 349.932 301.124C349.74 300.846 349.474 300.652 349.132 300.543C348.795 300.429 348.307 300.372 347.669 300.372H345.352V303.817ZM353.377 305V294.979H355.373L357.745 302.074C357.964 302.735 358.123 303.229 358.224 303.558C358.338 303.193 358.515 302.658 358.757 301.951L361.156 294.979H362.94V305H361.662V296.612L358.75 305H357.554L354.655 296.469V305H353.377ZM367.63 305V296.161H364.328V294.979H372.271V296.161H368.956V305H367.63ZM373.652 294.979H381.534V305H380.201V296.161H374.979V305H373.652V294.979Z" fill="white"/>
<path d="M16.2305 49.4863L17.5566 49.8213C17.2786 50.9105 16.7773 51.7422 16.0527 52.3164C15.3327 52.8861 14.4508 53.1709 13.4072 53.1709C12.3271 53.1709 11.4476 52.9521 10.7686 52.5146C10.0941 52.0726 9.5791 51.4346 9.22363 50.6006C8.87272 49.7666 8.69727 48.8711 8.69727 47.9141C8.69727 46.8704 8.89551 45.9613 9.29199 45.1865C9.69303 44.4072 10.2604 43.8171 10.9941 43.416C11.7324 43.0104 12.5436 42.8076 13.4277 42.8076C14.4303 42.8076 15.2734 43.0628 15.957 43.5732C16.6406 44.0837 17.1169 44.8014 17.3857 45.7266L16.0801 46.0342C15.8477 45.305 15.5104 44.7741 15.0684 44.4414C14.6263 44.1087 14.0703 43.9424 13.4004 43.9424C12.6302 43.9424 11.9854 44.127 11.4658 44.4961C10.9508 44.8652 10.5885 45.362 10.3789 45.9863C10.1693 46.6061 10.0645 47.2464 10.0645 47.9072C10.0645 48.7594 10.1875 49.5046 10.4336 50.1426C10.6842 50.776 11.0716 51.25 11.5957 51.5645C12.1198 51.8789 12.6872 52.0361 13.2979 52.0361C14.0407 52.0361 14.6696 51.8219 15.1846 51.3936C15.6995 50.9652 16.0482 50.3294 16.2305 49.4863ZM23.9414 52.1045C23.4857 52.4919 23.0459 52.7653 22.6221 52.9248C22.2028 53.0843 21.7516 53.1641 21.2686 53.1641C20.471 53.1641 19.8581 52.9704 19.4297 52.583C19.0013 52.1911 18.7871 51.6921 18.7871 51.0859C18.7871 50.7305 18.8669 50.4069 19.0264 50.1152C19.1904 49.819 19.4023 49.582 19.6621 49.4043C19.9264 49.2266 20.2227 49.0921 20.5508 49.001C20.7923 48.9372 21.1569 48.8757 21.6445 48.8164C22.638 48.6979 23.3695 48.5566 23.8389 48.3926C23.8434 48.224 23.8457 48.1169 23.8457 48.0713C23.8457 47.57 23.7295 47.2168 23.4971 47.0117C23.1826 46.7337 22.7155 46.5947 22.0957 46.5947C21.5169 46.5947 21.0885 46.6973 20.8105 46.9023C20.5371 47.1029 20.3343 47.4606 20.2021 47.9756L18.999 47.8115C19.1084 47.2965 19.2884 46.8818 19.5391 46.5674C19.7897 46.2484 20.152 46.0046 20.626 45.8359C21.0999 45.6628 21.6491 45.5762 22.2734 45.5762C22.8932 45.5762 23.3968 45.6491 23.7842 45.7949C24.1715 45.9408 24.4564 46.1253 24.6387 46.3486C24.821 46.5674 24.9486 46.8454 25.0215 47.1826C25.0625 47.3923 25.083 47.7705 25.083 48.3174V49.958C25.083 51.1019 25.1081 51.8265 25.1582 52.1318C25.2129 52.4326 25.3177 52.722 25.4727 53H24.1875C24.0599 52.7448 23.9779 52.4463 23.9414 52.1045ZM23.8389 49.3564C23.3923 49.5387 22.7223 49.6937 21.8291 49.8213C21.3232 49.8942 20.9655 49.9762 20.7559 50.0674C20.5462 50.1585 20.3844 50.293 20.2705 50.4707C20.1566 50.6439 20.0996 50.8376 20.0996 51.0518C20.0996 51.3799 20.2227 51.6533 20.4688 51.8721C20.7194 52.0908 21.084 52.2002 21.5625 52.2002C22.0365 52.2002 22.458 52.0977 22.8271 51.8926C23.1963 51.6829 23.4674 51.3981 23.6406 51.0381C23.7728 50.7601 23.8389 50.3499 23.8389 49.8076V49.3564ZM27.0312 45.7402H28.9453L30.8525 51.5508L32.9717 45.7402H34.7422V53H33.5117V47.1553L31.3652 53H30.2646L28.2344 46.875V53H27.0312V45.7402ZM41.3594 52.1045C40.9036 52.4919 40.4639 52.7653 40.04 52.9248C39.6208 53.0843 39.1696 53.1641 38.6865 53.1641C37.889 53.1641 37.276 52.9704 36.8477 52.583C36.4193 52.1911 36.2051 51.6921 36.2051 51.0859C36.2051 50.7305 36.2848 50.4069 36.4443 50.1152C36.6084 49.819 36.8203 49.582 37.0801 49.4043C37.3444 49.2266 37.6406 49.0921 37.9688 49.001C38.2103 48.9372 38.5749 48.8757 39.0625 48.8164C40.056 48.6979 40.7874 48.5566 41.2568 48.3926C41.2614 48.224 41.2637 48.1169 41.2637 48.0713C41.2637 47.57 41.1475 47.2168 40.915 47.0117C40.6006 46.7337 40.1335 46.5947 39.5137 46.5947C38.9349 46.5947 38.5065 46.6973 38.2285 46.9023C37.9551 47.1029 37.7523 47.4606 37.6201 47.9756L36.417 47.8115C36.5264 47.2965 36.7064 46.8818 36.957 46.5674C37.2077 46.2484 37.57 46.0046 38.0439 45.8359C38.5179 45.6628 39.0671 45.5762 39.6914 45.5762C40.3112 45.5762 40.8148 45.6491 41.2021 45.7949C41.5895 45.9408 41.8743 46.1253 42.0566 46.3486C42.2389 46.5674 42.3665 46.8454 42.4395 47.1826C42.4805 47.3923 42.501 47.7705 42.501 48.3174V49.958C42.501 51.1019 42.526 51.8265 42.5762 52.1318C42.6309 52.4326 42.7357 52.722 42.8906 53H41.6055C41.4779 52.7448 41.3958 52.4463 41.3594 52.1045ZM41.2568 49.3564C40.8102 49.5387 40.1403 49.6937 39.2471 49.8213C38.7412 49.8942 38.3835 49.9762 38.1738 50.0674C37.9642 50.1585 37.8024 50.293 37.6885 50.4707C37.5745 50.6439 37.5176 50.8376 37.5176 51.0518C37.5176 51.3799 37.6406 51.6533 37.8867 51.8721C38.1374 52.0908 38.502 52.2002 38.9805 52.2002C39.4544 52.2002 39.876 52.0977 40.2451 51.8926C40.6143 51.6829 40.8854 51.3981 41.0586 51.0381C41.1908 50.7601 41.2568 50.3499 41.2568 49.8076V49.3564ZM44.415 55.7822V45.7402H45.5361V46.6836C45.8005 46.3145 46.099 46.0387 46.4316 45.8564C46.7643 45.6696 47.1676 45.5762 47.6416 45.5762C48.2614 45.5762 48.8083 45.7357 49.2822 46.0547C49.7562 46.3737 50.1139 46.8249 50.3555 47.4082C50.597 47.987 50.7178 48.6227 50.7178 49.3154C50.7178 50.0583 50.5833 50.7282 50.3145 51.3252C50.0501 51.9176 49.6628 52.3734 49.1523 52.6924C48.6465 53.0068 48.1133 53.1641 47.5527 53.1641C47.1426 53.1641 46.7734 53.0775 46.4453 52.9043C46.1217 52.7311 45.8551 52.5124 45.6455 52.248V55.7822H44.415ZM45.5293 49.4111C45.5293 50.3454 45.7184 51.0358 46.0967 51.4824C46.4749 51.929 46.9329 52.1523 47.4707 52.1523C48.0176 52.1523 48.4847 51.9222 48.8721 51.4619C49.264 50.9971 49.46 50.2793 49.46 49.3086C49.46 48.3835 49.2686 47.6908 48.8857 47.2305C48.5075 46.7702 48.054 46.54 47.5254 46.54C47.0013 46.54 46.5365 46.7861 46.1309 47.2783C45.7298 47.766 45.5293 48.4769 45.5293 49.4111ZM56.9453 52.1045C56.4896 52.4919 56.0498 52.7653 55.626 52.9248C55.2067 53.0843 54.7555 53.1641 54.2725 53.1641C53.4749 53.1641 52.862 52.9704 52.4336 52.583C52.0052 52.1911 51.791 51.6921 51.791 51.0859C51.791 50.7305 51.8708 50.4069 52.0303 50.1152C52.1943 49.819 52.4062 49.582 52.666 49.4043C52.9303 49.2266 53.2266 49.0921 53.5547 49.001C53.7962 48.9372 54.1608 48.8757 54.6484 48.8164C55.6419 48.6979 56.3734 48.5566 56.8428 48.3926C56.8473 48.224 56.8496 48.1169 56.8496 48.0713C56.8496 47.57 56.7334 47.2168 56.501 47.0117C56.1865 46.7337 55.7194 46.5947 55.0996 46.5947C54.5208 46.5947 54.0924 46.6973 53.8145 46.9023C53.541 47.1029 53.3382 47.4606 53.2061 47.9756L52.0029 47.8115C52.1123 47.2965 52.2923 46.8818 52.543 46.5674C52.7936 46.2484 53.1559 46.0046 53.6299 45.8359C54.1038 45.6628 54.653 45.5762 55.2773 45.5762C55.8971 45.5762 56.4007 45.6491 56.7881 45.7949C57.1755 45.9408 57.4603 46.1253 57.6426 46.3486C57.8249 46.5674 57.9525 46.8454 58.0254 47.1826C58.0664 47.3923 58.0869 47.7705 58.0869 48.3174V49.958C58.0869 51.1019 58.112 51.8265 58.1621 52.1318C58.2168 52.4326 58.3216 52.722 58.4766 53H57.1914C57.0638 52.7448 56.9818 52.4463 56.9453 52.1045ZM56.8428 49.3564C56.3962 49.5387 55.7262 49.6937 54.833 49.8213C54.3271 49.8942 53.9694 49.9762 53.7598 50.0674C53.5501 50.1585 53.3883 50.293 53.2744 50.4707C53.1605 50.6439 53.1035 50.8376 53.1035 51.0518C53.1035 51.3799 53.2266 51.6533 53.4727 51.8721C53.7233 52.0908 54.0879 52.2002 54.5664 52.2002C55.0404 52.2002 55.4619 52.0977 55.8311 51.8926C56.2002 51.6829 56.4714 51.3981 56.6445 51.0381C56.7767 50.7601 56.8428 50.3499 56.8428 49.8076V49.3564Z" fill="white"/>
<g filter="url(#filter1_d_5088_63126)">
<circle cx="34" cy="62" r="2" fill="#0C99CF"/>
<circle cx="34" cy="62" r="2.5" stroke="white"/>
</g>
<defs>
<filter id="filter0_d_5088_63126" x="383.163" y="308.388" width="13.6731" height="13.6731" filterUnits="userSpaceOnUse" color-interpolation-filters="sRGB">
<feFlood flood-opacity="0" result="BackgroundImageFix"/>
<feColorMatrix in="SourceAlpha" type="matrix" values="0 0 0 0 0 0 0 0 0 0 0 0 0 0 0 0 0 0 127 0" result="hardAlpha"/>
<feOffset dy="1.22437"/>
<feGaussianBlur stdDeviation="0.918278"/>
<feColorMatrix type="matrix" values="0 0 0 0 0 0 0 0 0 0 0 0 0 0 0 0 0 0 0.2 0"/>
<feBlend mode="normal" in2="BackgroundImageFix" result="effect1_dropShadow_5088_63126"/>
<feBlend mode="normal" in="SourceGraphic" in2="effect1_dropShadow_5088_63126" result="shape"/>
</filter>
<filter id="filter1_d_5088_63126" x="29.1634" y="58.3878" width="9.67311" height="9.67311" filterUnits="userSpaceOnUse" color-interpolation-filters="sRGB">
<feFlood flood-opacity="0" result="BackgroundImageFix"/>
<feColorMatrix in="SourceAlpha" type="matrix" values="0 0 0 0 0 0 0 0 0 0 0 0 0 0 0 0 0 0 127 0" result="hardAlpha"/>
<feOffset dy="1.22437"/>
<feGaussianBlur stdDeviation="0.918278"/>
<feColorMatrix type="matrix" values="0 0 0 0 0 0 0 0 0 0 0 0 0 0 0 0 0 0 0.2 0"/>
<feBlend mode="normal" in2="BackgroundImageFix" result="effect1_dropShadow_5088_63126"/>
<feBlend mode="normal" in="SourceGraphic" in2="effect1_dropShadow_5088_63126" result="shape"/>
</filter>
</defs>
</svg>
