<svg width="390" height="271" viewBox="0 0 390 271" fill="none" xmlns="http://www.w3.org/2000/svg">
<path d="M340.752 256.5L340.917 256.972L341.101 256.908L341.193 256.736L340.752 256.5ZM360.5 219.5L360.941 219.736L361.21 219.231L360.674 219.032L360.5 219.5ZM339 211.5L338.506 211.575L338.55 211.866L338.826 211.969L339 211.5ZM334 178.5L334.494 178.426L334.48 178.333L334.434 178.252L334 178.5ZM318 150.5L318.434 150.252L318.347 150.099L318.182 150.035L318 150.5ZM292.5 140.5L292.682 140.035L292.418 139.931L292.193 140.105L292.5 140.5ZM265.001 161.844L264.777 162.292L265.059 162.433L265.307 162.239L265.001 161.844ZM212.454 135.558L212.082 135.224L211.644 135.712L212.23 136.005L212.454 135.558ZM217.001 130.5L217.373 130.835L217.521 130.67L217.498 130.45L217.001 130.5ZM212.454 86.0001L212.952 85.9493L212.933 85.7635L212.796 85.6357L212.454 86.0001ZM188.501 63.5001L188.843 63.1357L188.678 62.9801L188.451 63.0026L188.501 63.5001ZM130.928 69.2216L130.715 69.6739L130.84 69.7328L130.978 69.7191L130.928 69.2216ZM88.0007 49.0003L88.2138 48.548L88.0664 48.4785L87.9063 48.5093L88.0007 49.0003ZM23.0008 61.5001L22.9064 61.0091L22.5166 61.084L22.5012 61.4806L23.0008 61.5001ZM22.0657 85.5001L21.5661 85.4806L21.5408 86.1293L22.1744 85.9881L22.0657 85.5001ZM49.1095 79.9881C49.379 79.9281 49.5489 79.6609 49.4888 79.3914C49.4288 79.1218 49.1616 78.952 48.8921 79.012L49.1095 79.9881ZM47.9942 79.212C47.7247 79.2721 47.5549 79.5393 47.6149 79.8088C47.6749 80.0783 47.9421 80.2482 48.2117 80.1881L47.9942 79.212ZM44.6203 80.9881C44.8899 80.9281 45.0597 80.6609 44.9996 80.3914C44.9396 80.1218 44.6724 79.952 44.4029 80.012L44.6203 80.9881ZM42.6072 80.412C42.3377 80.4721 42.1679 80.7393 42.2279 81.0088C42.2879 81.2783 42.5551 81.4482 42.8246 81.3881L42.6072 80.412ZM39.2333 82.1881C39.5028 82.1281 39.6727 81.8609 39.6126 81.5914C39.5526 81.3218 39.2854 81.152 39.0159 81.212L39.2333 82.1881ZM37.2202 81.612C36.9507 81.6721 36.7808 81.9393 36.8409 82.2088C36.9009 82.4783 37.1681 82.6482 37.4376 82.5881L37.2202 81.612ZM33.8463 83.3881C34.1158 83.3281 34.2857 83.0609 34.2256 82.7914C34.1656 82.5218 33.8984 82.352 33.6289 82.412L33.8463 83.3881ZM31.8332 82.812C31.5637 82.8721 31.3938 83.1393 31.4539 83.4088C31.5139 83.6783 31.7811 83.8482 32.0506 83.7881L31.8332 82.812ZM28.4593 84.5881C28.7288 84.5281 28.8986 84.2609 28.8386 83.9914C28.7786 83.7218 28.5114 83.552 28.2418 83.612L28.4593 84.5881ZM26.4462 84.012C26.1766 84.0721 26.0068 84.3393 26.0669 84.6088C26.1269 84.8783 26.3941 85.0482 26.6636 84.9881L26.4462 84.012ZM23.0723 85.7881C23.3418 85.7281 23.5116 85.4609 23.4516 85.1914C23.3915 84.9218 23.1244 84.752 22.8548 84.812L23.0723 85.7881ZM22.6043 84.5195C22.615 84.2436 22.4001 84.0112 22.1241 84.0005C21.8482 83.9897 21.6158 84.2047 21.6051 84.4806L22.6043 84.5195ZM21.7609 80.4806C21.7501 80.7565 21.9651 80.989 22.2411 80.9997C22.517 81.0105 22.7494 80.7955 22.7601 80.5195L21.7609 80.4806ZM22.8381 78.5195C22.8488 78.2436 22.6338 78.0112 22.3579 78.0005C22.082 77.9897 21.8496 78.2047 21.8388 78.4806L22.8381 78.5195ZM21.9947 74.4806C21.9839 74.7566 22.1989 74.989 22.4748 74.9997C22.7508 75.0105 22.9832 74.7955 22.9939 74.5195L21.9947 74.4806ZM23.0718 72.5195C23.0826 72.2436 22.8676 72.0112 22.5917 72.0005C22.3157 71.9897 22.0833 72.2047 22.0726 72.4806L23.0718 72.5195ZM22.2284 68.4806C22.2177 68.7566 22.4327 68.989 22.7086 68.9997C22.9845 69.0105 23.2169 68.7955 23.2277 68.5196L22.2284 68.4806ZM23.3056 66.5196C23.3163 66.2436 23.1014 66.0112 22.8254 66.0005C22.5495 65.9897 22.3171 66.2047 22.3064 66.4806L23.3056 66.5196ZM22.4622 62.4806C22.4514 62.7566 22.6664 62.989 22.9424 62.9997C23.2183 63.0105 23.4507 62.7955 23.4614 62.5196L22.4622 62.4806ZM24.08 61.8017C24.3512 61.7496 24.5288 61.4874 24.4766 61.2163C24.4245 60.9451 24.1624 60.7675 23.8912 60.8197L24.08 61.8017ZM27.8306 60.0621C27.5594 60.1143 27.3819 60.3764 27.434 60.6476C27.4862 60.9187 27.7483 61.0963 28.0194 61.0441L27.8306 60.0621ZM29.9891 60.6654C30.2603 60.6132 30.4379 60.3511 30.3857 60.0799C30.3336 59.8088 30.0715 59.6312 29.8003 59.6833L29.9891 60.6654ZM33.7397 58.9258C33.4685 58.9779 33.291 59.24 33.3431 59.5112C33.3952 59.7824 33.6574 59.9599 33.9285 59.9078L33.7397 58.9258ZM35.8982 59.529C36.1694 59.4769 36.347 59.2148 36.2948 58.9436C36.2427 58.6724 35.9806 58.4949 35.7094 58.547L35.8982 59.529ZM39.6488 57.7894C39.3776 57.8416 39.2 58.1037 39.2522 58.3749C39.3043 58.646 39.5664 58.8236 39.8376 58.7714L39.6488 57.7894ZM41.8073 58.3927C42.0785 58.3405 42.256 58.0784 42.2039 57.8072C42.1517 57.5361 41.8896 57.3585 41.6185 57.4107L41.8073 58.3927ZM45.5579 56.6531C45.2867 56.7052 45.1091 56.9674 45.1613 57.2385C45.2134 57.5097 45.4755 57.6873 45.7467 57.6351L45.5579 56.6531ZM47.7164 57.2563C47.9876 57.2042 48.1651 56.9421 48.113 56.6709C48.0608 56.3997 47.7987 56.2222 47.5275 56.2743L47.7164 57.2563ZM51.4669 55.5168C51.1958 55.5689 51.0182 55.831 51.0704 56.1022C51.1225 56.3734 51.3846 56.5509 51.6558 56.4988L51.4669 55.5168ZM53.6255 56.12C53.8967 56.0678 54.0742 55.8057 54.0221 55.5346C53.9699 55.2634 53.7078 55.0858 53.4366 55.138L53.6255 56.12ZM57.376 54.3804C57.1049 54.4326 56.9273 54.6947 56.9794 54.9658C57.0316 55.237 57.2937 55.4146 57.5649 55.3624L57.376 54.3804ZM59.5346 54.9836C59.8057 54.9315 59.9833 54.6694 59.9312 54.3982C59.879 54.127 59.6169 53.9495 59.3457 54.0016L59.5346 54.9836ZM63.2851 53.2441C63.0139 53.2962 62.8364 53.5583 62.8885 53.8295C62.9407 54.1007 63.2028 54.2782 63.474 54.2261L63.2851 53.2441ZM65.4437 53.8473C65.7148 53.7951 65.8924 53.533 65.8402 53.2619C65.7881 52.9907 65.526 52.8131 65.2548 52.8653L65.4437 53.8473ZM69.1942 52.1077C68.923 52.1599 68.7455 52.422 68.7976 52.6932C68.8498 52.9643 69.1119 53.1419 69.383 53.0897L69.1942 52.1077ZM71.3527 52.711C71.6239 52.6588 71.8015 52.3967 71.7493 52.1255C71.6972 51.8544 71.4351 51.6768 71.1639 51.7289L71.3527 52.711ZM75.1033 50.9714C74.8321 51.0235 74.6546 51.2856 74.7067 51.5568C74.7589 51.828 75.021 52.0055 75.2921 51.9534L75.1033 50.9714ZM77.2618 51.5746C77.533 51.5225 77.7106 51.2604 77.6584 50.9892C77.6063 50.718 77.3442 50.5405 77.073 50.5926L77.2618 51.5746ZM81.0124 49.835C80.7412 49.8872 80.5636 50.1493 80.6158 50.4205C80.6679 50.6916 80.93 50.8692 81.2012 50.817L81.0124 49.835ZM83.1709 50.4383C83.4421 50.3861 83.6196 50.124 83.5675 49.8528C83.5153 49.5817 83.2532 49.4041 82.9821 49.4563L83.1709 50.4383ZM86.9215 48.6987C86.6503 48.7508 86.4727 49.0129 86.5249 49.2841C86.577 49.5553 86.8391 49.7329 87.1103 49.6807L86.9215 48.6987ZM88.682 49.8739C88.9318 49.9916 89.2297 49.8845 89.3474 49.6347C89.4651 49.3848 89.3579 49.0869 89.1081 48.9693L88.682 49.8739ZM92.6854 50.6544C92.4356 50.5367 92.1377 50.6438 92.02 50.8936C91.9024 51.1434 92.0095 51.4413 92.2593 51.559L92.6854 50.6544ZM94.0479 52.4016C94.2978 52.5192 94.5957 52.4121 94.7133 52.1623C94.831 51.9125 94.7239 51.6146 94.4741 51.4969L94.0479 52.4016ZM98.0514 53.182C97.8016 53.0643 97.5037 53.1715 97.386 53.4213C97.2683 53.6711 97.3754 53.969 97.6252 54.0867L98.0514 53.182ZM99.4139 54.9292C99.6637 55.0469 99.9616 54.9398 100.079 54.69C100.197 54.4402 100.09 54.1422 99.84 54.0246L99.4139 54.9292ZM103.417 55.7097C103.168 55.592 102.87 55.6991 102.752 55.9489C102.634 56.1987 102.741 56.4967 102.991 56.6143L103.417 55.7097ZM104.78 57.4569C105.03 57.5746 105.328 57.4674 105.445 57.2176C105.563 56.9678 105.456 56.6699 105.206 56.5522L104.78 57.4569ZM108.783 58.2373C108.533 58.1197 108.236 58.2268 108.118 58.4766C108 58.7264 108.107 59.0243 108.357 59.142L108.783 58.2373ZM110.146 59.9845C110.396 60.1022 110.694 59.9951 110.811 59.7453C110.929 59.4955 110.822 59.1976 110.572 59.0799L110.146 59.9845ZM114.149 60.765C113.899 60.6473 113.602 60.7544 113.484 61.0042C113.366 61.2541 113.473 61.552 113.723 61.6696L114.149 60.765ZM115.512 62.5122C115.762 62.6299 116.059 62.5227 116.177 62.2729C116.295 62.0231 116.188 61.7252 115.938 61.6075L115.512 62.5122ZM119.515 63.2926C119.265 63.175 118.967 63.2821 118.85 63.5319C118.732 63.7817 118.839 64.0796 119.089 64.1973L119.515 63.2926ZM120.878 65.0398C121.128 65.1575 121.425 65.0504 121.543 64.8006C121.661 64.5508 121.554 64.2529 121.304 64.1352L120.878 65.0398ZM124.881 65.8203C124.631 65.7026 124.333 65.8097 124.216 66.0596C124.098 66.3094 124.205 66.6073 124.455 66.725L124.881 65.8203ZM126.244 67.5675C126.493 67.6852 126.791 67.5781 126.909 67.3282C127.027 67.0784 126.92 66.7805 126.67 66.6628L126.244 67.5675ZM130.247 68.348C129.997 68.2303 129.699 68.3374 129.582 68.5872C129.464 68.837 129.571 69.1349 129.821 69.2526L130.247 68.348ZM131.937 69.6237C132.212 69.5964 132.413 69.3515 132.385 69.0767C132.358 68.802 132.113 68.6013 131.838 68.6286L131.937 69.6237ZM135.677 68.2472C135.402 68.2745 135.201 68.5194 135.229 68.7942C135.256 69.069 135.501 69.2696 135.776 69.2423L135.677 68.2472ZM137.695 69.0516C137.969 69.0243 138.17 68.7794 138.143 68.5046C138.115 68.2298 137.87 68.0292 137.596 68.0565L137.695 69.0516ZM141.434 67.6751C141.159 67.7024 140.958 67.9473 140.986 68.2221C141.013 68.4969 141.258 68.6975 141.533 68.6702L141.434 67.6751ZM143.452 68.4795C143.727 68.4522 143.927 68.2073 143.9 67.9325C143.873 67.6577 143.628 67.4571 143.353 67.4844L143.452 68.4795ZM147.191 67.1029C146.916 67.1302 146.716 67.3751 146.743 67.6499C146.77 67.9247 147.015 68.1253 147.29 68.098L147.191 67.1029ZM149.209 67.9073C149.484 67.88 149.684 67.6351 149.657 67.3603C149.63 67.0855 149.385 66.8849 149.11 66.9122L149.209 67.9073ZM152.948 66.5308C152.674 66.5581 152.473 66.803 152.5 67.0778C152.528 67.3526 152.772 67.5532 153.047 67.5259L152.948 66.5308ZM154.966 67.3352C155.241 67.3079 155.442 67.063 155.414 66.7882C155.387 66.5134 155.142 66.3128 154.867 66.3401L154.966 67.3352ZM158.706 65.9587C158.431 65.986 158.23 66.2309 158.257 66.5057C158.285 66.7804 158.53 66.9811 158.804 66.9538L158.706 65.9587ZM160.724 66.763C160.998 66.7357 161.199 66.4908 161.172 66.216C161.144 65.9413 160.899 65.7406 160.625 65.7679L160.724 66.763ZM164.463 65.3865C164.188 65.4138 163.987 65.6587 164.015 65.9335C164.042 66.2083 164.287 66.4089 164.562 66.3816L164.463 65.3865ZM166.481 66.1909C166.756 66.1636 166.956 65.9187 166.929 65.6439C166.902 65.3691 166.657 65.1685 166.382 65.1958L166.481 66.1909ZM170.22 64.8144C169.945 64.8417 169.745 65.0866 169.772 65.3614C169.799 65.6362 170.044 65.8368 170.319 65.8095L170.22 64.8144ZM172.238 65.6188C172.513 65.5914 172.713 65.3466 172.686 65.0718C172.659 64.797 172.414 64.5963 172.139 64.6237L172.238 65.6188ZM175.977 64.2422C175.703 64.2695 175.502 64.5144 175.529 64.7892C175.557 65.064 175.801 65.2646 176.076 65.2373L175.977 64.2422ZM177.995 65.0466C178.27 65.0193 178.471 64.7744 178.443 64.4996C178.416 64.2248 178.171 64.0242 177.896 64.0515L177.995 65.0466ZM181.735 63.6701C181.46 63.6974 181.259 63.9423 181.286 64.2171C181.314 64.4919 181.559 64.6925 181.833 64.6652L181.735 63.6701ZM183.753 64.4745C184.027 64.4472 184.228 64.2023 184.201 63.9275C184.173 63.6527 183.928 63.4521 183.654 63.4794L183.753 64.4745ZM187.492 63.098C187.217 63.1253 187.016 63.3702 187.044 63.6449C187.071 63.9197 187.316 64.1204 187.591 64.093L187.492 63.098ZM188.957 64.6146C189.158 64.8036 189.475 64.7937 189.664 64.5925C189.853 64.3912 189.843 64.0748 189.642 63.8857L188.957 64.6146ZM192.835 66.8857C192.634 66.6966 192.318 66.7065 192.129 66.9078C191.94 67.1091 191.949 67.4255 192.151 67.6146L192.835 66.8857ZM193.748 69.1146C193.949 69.3036 194.265 69.2937 194.454 69.0925C194.643 68.8912 194.634 68.5748 194.432 68.3857L193.748 69.1146ZM197.626 71.3857C197.425 71.1966 197.108 71.2065 196.919 71.4078C196.73 71.6091 196.74 71.9255 196.941 72.1146L197.626 71.3857ZM198.538 73.6146C198.74 73.8036 199.056 73.7937 199.245 73.5925C199.434 73.3912 199.424 73.0748 199.223 72.8857L198.538 73.6146ZM202.417 75.8857C202.215 75.6966 201.899 75.7065 201.71 75.9078C201.521 76.1091 201.531 76.4255 201.732 76.6146L202.417 75.8857ZM203.329 78.1146C203.53 78.3036 203.847 78.2937 204.036 78.0925C204.225 77.8912 204.215 77.5748 204.014 77.3857L203.329 78.1146ZM207.207 80.3857C207.006 80.1966 206.69 80.2065 206.501 80.4078C206.312 80.6091 206.321 80.9255 206.523 81.1146L207.207 80.3857ZM208.12 82.6146C208.321 82.8036 208.637 82.7937 208.826 82.5925C209.015 82.3912 209.006 82.0748 208.804 81.8857L208.12 82.6146ZM211.998 84.8857C211.797 84.6966 211.48 84.7065 211.291 84.9078C211.102 85.1091 211.112 85.4255 211.313 85.6146L211.998 84.8857ZM212.065 87.1105C212.093 87.3852 212.339 87.5851 212.613 87.5571C212.888 87.529 213.088 87.2836 213.06 87.0088L212.065 87.1105ZM213.493 91.247C213.465 90.9723 213.219 90.7723 212.945 90.8004C212.67 90.8284 212.47 91.0739 212.498 91.3486L213.493 91.247ZM212.715 93.4677C212.743 93.7424 212.988 93.9423 213.263 93.9143C213.537 93.8862 213.737 93.6407 213.709 93.366L212.715 93.4677ZM214.142 97.6041C214.114 97.3294 213.869 97.1295 213.594 97.1576C213.319 97.1856 213.119 97.4311 213.148 97.7058L214.142 97.6041ZM213.364 99.8248C213.392 100.1 213.638 100.3 213.912 100.271C214.187 100.243 214.387 99.9979 214.359 99.7232L213.364 99.8248ZM214.792 103.961C214.764 103.687 214.518 103.487 214.244 103.515C213.969 103.543 213.769 103.788 213.797 104.063L214.792 103.961ZM214.014 106.182C214.042 106.457 214.287 106.657 214.562 106.629C214.836 106.601 215.036 106.355 215.008 106.08L214.014 106.182ZM215.441 110.319C215.413 110.044 215.168 109.844 214.893 109.872C214.618 109.9 214.418 110.145 214.447 110.42L215.441 110.319ZM214.663 112.539C214.691 112.814 214.937 113.014 215.211 112.986C215.486 112.958 215.686 112.712 215.658 112.438L214.663 112.539ZM216.091 116.676C216.063 116.401 215.817 116.201 215.543 116.229C215.268 116.257 215.068 116.503 215.096 116.777L216.091 116.676ZM215.313 118.896C215.341 119.171 215.586 119.371 215.861 119.343C216.136 119.315 216.335 119.069 216.307 118.795L215.313 118.896ZM216.74 123.033C216.712 122.758 216.467 122.558 216.192 122.586C215.917 122.614 215.717 122.86 215.746 123.134L216.74 123.033ZM215.962 125.254C215.99 125.528 216.236 125.728 216.51 125.7C216.785 125.672 216.985 125.427 216.957 125.152L215.962 125.254ZM217.39 129.39C217.362 129.115 217.116 128.915 216.842 128.943C216.567 128.972 216.367 129.217 216.395 129.492L217.39 129.39ZM215.871 131.009C215.687 131.214 215.703 131.531 215.909 131.715C216.114 131.9 216.43 131.883 216.615 131.678L215.871 131.009ZM213.584 135.049C213.768 134.844 213.752 134.528 213.546 134.343C213.341 134.159 213.025 134.175 212.84 134.381L213.584 135.049ZM213.106 136.443C213.353 136.567 213.654 136.467 213.777 136.22C213.901 135.973 213.801 135.672 213.554 135.549L213.106 136.443ZM217.057 137.301C216.81 137.178 216.509 137.278 216.386 137.525C216.262 137.772 216.362 138.072 216.609 138.196L217.057 137.301ZM218.361 139.072C218.608 139.195 218.908 139.095 219.032 138.848C219.155 138.601 219.055 138.301 218.808 138.177L218.361 139.072ZM222.311 139.93C222.064 139.806 221.764 139.906 221.641 140.153C221.517 140.4 221.617 140.701 221.864 140.824L222.311 139.93ZM223.616 141.7C223.863 141.824 224.163 141.724 224.286 141.477C224.41 141.23 224.31 140.93 224.063 140.806L223.616 141.7ZM227.566 142.559C227.319 142.435 227.019 142.535 226.895 142.782C226.772 143.029 226.872 143.329 227.119 143.453L227.566 142.559ZM228.87 144.329C229.117 144.453 229.418 144.353 229.541 144.106C229.665 143.859 229.565 143.558 229.318 143.435L228.87 144.329ZM232.821 145.187C232.574 145.064 232.273 145.164 232.15 145.411C232.026 145.658 232.126 145.958 232.373 146.082L232.821 145.187ZM234.125 146.958C234.372 147.081 234.672 146.981 234.796 146.734C234.919 146.487 234.819 146.187 234.572 146.063L234.125 146.958ZM238.075 147.816C237.828 147.692 237.528 147.792 237.405 148.039C237.281 148.286 237.381 148.587 237.628 148.71L238.075 147.816ZM239.38 149.586C239.626 149.71 239.927 149.61 240.05 149.363C240.174 149.116 240.074 148.816 239.827 148.692L239.38 149.586ZM243.33 150.445C243.083 150.321 242.783 150.421 242.659 150.668C242.536 150.915 242.636 151.215 242.883 151.339L243.33 150.445ZM244.634 152.215C244.881 152.339 245.182 152.239 245.305 151.992C245.429 151.745 245.329 151.444 245.082 151.321L244.634 152.215ZM248.585 153.073C248.338 152.95 248.037 153.05 247.914 153.297C247.79 153.544 247.89 153.844 248.137 153.968L248.585 153.073ZM249.889 154.844C250.136 154.967 250.436 154.867 250.56 154.62C250.683 154.373 250.583 154.073 250.336 153.949L249.889 154.844ZM253.839 155.702C253.592 155.578 253.292 155.678 253.168 155.925C253.045 156.172 253.145 156.473 253.392 156.596L253.839 155.702ZM255.143 157.472C255.39 157.596 255.691 157.496 255.814 157.249C255.938 157.002 255.838 156.702 255.591 156.578L255.143 157.472ZM259.094 158.331C258.847 158.207 258.547 158.307 258.423 158.554C258.3 158.801 258.4 159.101 258.647 159.225L259.094 158.331ZM260.398 160.101C260.645 160.225 260.945 160.125 261.069 159.878C261.193 159.631 261.093 159.33 260.846 159.207L260.398 160.101ZM264.349 160.959C264.102 160.836 263.801 160.936 263.678 161.183C263.554 161.43 263.654 161.73 263.901 161.854L264.349 160.959ZM266.071 161.647C266.289 161.477 266.329 161.163 266.16 160.945C265.99 160.727 265.676 160.687 265.458 160.857L266.071 161.647ZM268.513 158.485C268.295 158.654 268.256 158.968 268.425 159.187C268.594 159.405 268.908 159.444 269.127 159.275L268.513 158.485ZM270.654 158.089C270.873 157.92 270.912 157.606 270.743 157.388C270.573 157.17 270.259 157.13 270.041 157.299L270.654 158.089ZM273.097 154.928C272.879 155.097 272.839 155.411 273.008 155.629C273.178 155.847 273.492 155.887 273.71 155.718L273.097 154.928ZM275.238 154.532C275.456 154.363 275.495 154.048 275.326 153.83C275.157 153.612 274.843 153.573 274.624 153.742L275.238 154.532ZM277.68 151.37C277.462 151.54 277.422 151.854 277.591 152.072C277.761 152.29 278.075 152.33 278.293 152.16L277.68 151.37ZM279.821 150.975C280.039 150.805 280.078 150.491 279.909 150.273C279.74 150.055 279.426 150.015 279.208 150.185L279.821 150.975ZM282.263 147.813C282.045 147.982 282.005 148.296 282.175 148.515C282.344 148.733 282.658 148.772 282.876 148.603L282.263 147.813ZM284.404 147.417C284.622 147.248 284.662 146.934 284.492 146.716C284.323 146.497 284.009 146.458 283.791 146.627L284.404 147.417ZM286.846 144.256C286.628 144.425 286.589 144.739 286.758 144.957C286.927 145.175 287.241 145.215 287.459 145.046L286.846 144.256ZM288.987 143.86C289.205 143.691 289.245 143.376 289.076 143.158C288.906 142.94 288.592 142.901 288.374 143.07L288.987 143.86ZM291.429 140.698C291.211 140.868 291.172 141.182 291.341 141.4C291.51 141.618 291.824 141.658 292.043 141.488L291.429 140.698ZM293.167 141.299C293.424 141.4 293.715 141.273 293.815 141.016C293.916 140.759 293.789 140.469 293.532 140.368L293.167 141.299ZM296.932 141.702C296.675 141.601 296.385 141.727 296.284 141.985C296.184 142.242 296.31 142.532 296.567 142.633L296.932 141.702ZM298.267 143.299C298.524 143.4 298.815 143.273 298.915 143.016C299.016 142.759 298.889 142.469 298.632 142.368L298.267 143.299ZM302.032 143.702C301.775 143.601 301.485 143.727 301.384 143.985C301.284 144.242 301.41 144.532 301.667 144.633L302.032 143.702ZM303.367 145.299C303.624 145.4 303.915 145.273 304.015 145.016C304.116 144.759 303.989 144.469 303.732 144.368L303.367 145.299ZM307.132 145.702C306.875 145.601 306.585 145.727 306.484 145.985C306.384 146.242 306.51 146.532 306.767 146.633L307.132 145.702ZM308.467 147.299C308.724 147.4 309.015 147.273 309.115 147.016C309.216 146.759 309.089 146.469 308.832 146.368L308.467 147.299ZM312.232 147.702C311.975 147.601 311.685 147.727 311.584 147.985C311.484 148.242 311.61 148.532 311.867 148.633L312.232 147.702ZM313.567 149.299C313.824 149.4 314.115 149.273 314.215 149.016C314.316 148.759 314.189 148.469 313.932 148.368L313.567 149.299ZM317.332 149.702C317.075 149.601 316.785 149.727 316.684 149.985C316.584 150.242 316.71 150.532 316.967 150.633L317.332 149.702ZM318.099 151.682C318.236 151.922 318.542 152.005 318.781 151.868C319.021 151.731 319.104 151.425 318.967 151.186L318.099 151.682ZM321.101 154.919C320.964 154.679 320.658 154.596 320.418 154.733C320.179 154.87 320.095 155.175 320.232 155.415L321.101 154.919ZM321.299 157.282C321.436 157.522 321.742 157.605 321.981 157.468C322.221 157.331 322.304 157.025 322.167 156.786L321.299 157.282ZM324.301 160.519C324.164 160.279 323.858 160.196 323.618 160.333C323.379 160.47 323.295 160.775 323.432 161.015L324.301 160.519ZM324.499 162.882C324.636 163.122 324.942 163.205 325.181 163.068C325.421 162.931 325.504 162.625 325.367 162.386L324.499 162.882ZM327.501 166.119C327.364 165.879 327.058 165.796 326.818 165.933C326.579 166.07 326.495 166.375 326.632 166.615L327.501 166.119ZM327.699 168.482C327.836 168.722 328.142 168.805 328.381 168.668C328.621 168.531 328.704 168.225 328.567 167.986L327.699 168.482ZM330.701 171.719C330.564 171.479 330.258 171.396 330.018 171.533C329.779 171.67 329.695 171.975 329.832 172.215L330.701 171.719ZM330.899 174.082C331.036 174.322 331.342 174.405 331.581 174.268C331.821 174.131 331.904 173.825 331.767 173.586L330.899 174.082ZM333.901 177.319C333.764 177.079 333.458 176.996 333.219 177.133C332.979 177.27 332.895 177.575 333.032 177.815L333.901 177.319ZM333.644 179.492C333.686 179.765 333.941 179.953 334.214 179.911C334.487 179.87 334.675 179.615 334.633 179.342L333.644 179.492ZM335.189 183.009C335.147 182.736 334.892 182.548 334.619 182.589C334.346 182.631 334.159 182.886 334.2 183.159L335.189 183.009ZM334.478 184.992C334.519 185.265 334.774 185.453 335.047 185.411C335.32 185.37 335.508 185.115 335.466 184.842L334.478 184.992ZM336.022 188.509C335.981 188.236 335.726 188.048 335.453 188.089C335.18 188.131 334.992 188.386 335.033 188.659L336.022 188.509ZM335.311 190.492C335.352 190.765 335.607 190.953 335.88 190.911C336.153 190.87 336.341 190.615 336.3 190.342L335.311 190.492ZM336.855 194.009C336.814 193.736 336.559 193.548 336.286 193.589C336.013 193.631 335.825 193.886 335.867 194.159L336.855 194.009ZM336.144 195.992C336.186 196.265 336.441 196.453 336.714 196.411C336.987 196.37 337.175 196.115 337.133 195.842L336.144 195.992ZM337.689 199.509C337.647 199.236 337.392 199.048 337.119 199.089C336.846 199.131 336.659 199.386 336.7 199.659L337.689 199.509ZM336.978 201.492C337.019 201.765 337.274 201.953 337.547 201.911C337.82 201.87 338.008 201.615 337.966 201.342L336.978 201.492ZM338.522 205.009C338.481 204.736 338.226 204.548 337.953 204.589C337.68 204.631 337.492 204.886 337.533 205.159L338.522 205.009ZM337.811 206.992C337.852 207.265 338.107 207.453 338.38 207.411C338.653 207.37 338.841 207.115 338.8 206.842L337.811 206.992ZM339.355 210.509C339.314 210.236 339.059 210.048 338.786 210.089C338.513 210.131 338.325 210.386 338.367 210.659L339.355 210.509ZM339.721 212.302C339.98 212.399 340.268 212.267 340.364 212.008C340.461 211.749 340.329 211.461 340.07 211.365L339.721 212.302ZM343.653 212.698C343.395 212.602 343.107 212.734 343.01 212.993C342.914 213.252 343.046 213.539 343.305 213.636L343.653 212.698ZM345.096 214.302C345.355 214.399 345.643 214.267 345.739 214.008C345.836 213.749 345.704 213.461 345.445 213.365L345.096 214.302ZM349.028 214.698C348.77 214.602 348.482 214.734 348.385 214.993C348.289 215.252 348.421 215.539 348.68 215.636L349.028 214.698ZM350.471 216.302C350.73 216.399 351.018 216.267 351.114 216.008C351.211 215.749 351.079 215.461 350.82 215.365L350.471 216.302ZM354.403 216.698C354.145 216.602 353.857 216.734 353.76 216.993C353.664 217.252 353.796 217.539 354.055 217.636L354.403 216.698ZM355.846 218.302C356.105 218.399 356.393 218.267 356.489 218.008C356.586 217.749 356.454 217.461 356.195 217.365L355.846 218.302ZM359.778 218.698C359.52 218.602 359.232 218.734 359.135 218.993C359.039 219.252 359.171 219.539 359.43 219.636L359.778 218.698ZM359.589 220.146C359.459 220.39 359.551 220.692 359.794 220.822C360.038 220.953 360.341 220.86 360.471 220.617L359.589 220.146ZM358.59 224.141C358.72 223.897 358.628 223.594 358.384 223.464C358.141 223.334 357.838 223.426 357.708 223.67L358.59 224.141ZM356.767 225.432C356.637 225.675 356.729 225.978 356.973 226.108C357.217 226.238 357.52 226.146 357.65 225.903L356.767 225.432ZM355.769 229.426C355.899 229.183 355.807 228.88 355.563 228.75C355.32 228.62 355.017 228.712 354.887 228.955L355.769 229.426ZM353.946 230.717C353.816 230.961 353.908 231.264 354.152 231.394C354.396 231.524 354.698 231.432 354.828 231.188L353.946 230.717ZM352.948 234.712C353.078 234.468 352.986 234.166 352.742 234.036C352.498 233.905 352.195 233.998 352.065 234.241L352.948 234.712ZM351.125 236.003C350.995 236.247 351.087 236.55 351.331 236.68C351.574 236.81 351.877 236.718 352.007 236.474L351.125 236.003ZM350.127 239.998C350.257 239.754 350.164 239.451 349.921 239.321C349.677 239.191 349.374 239.283 349.244 239.527L350.127 239.998ZM348.304 241.289C348.174 241.532 348.266 241.835 348.51 241.965C348.753 242.095 349.056 242.003 349.186 241.76L348.304 241.289ZM347.305 245.283C347.435 245.04 347.343 244.737 347.1 244.607C346.856 244.477 346.553 244.569 346.423 244.813L347.305 245.283ZM345.483 246.575C345.353 246.818 345.445 247.121 345.688 247.251C345.932 247.381 346.235 247.289 346.365 247.045L345.483 246.575ZM344.484 250.569C344.614 250.326 344.522 250.023 344.278 249.893C344.035 249.763 343.732 249.855 343.602 250.098L344.484 250.569ZM342.662 251.86C342.532 252.104 342.624 252.407 342.867 252.537C343.111 252.667 343.414 252.575 343.544 252.331L342.662 251.86ZM341.663 255.855C341.793 255.611 341.701 255.308 341.457 255.178C341.214 255.048 340.911 255.14 340.781 255.384L341.663 255.855ZM339.739 256.325C339.479 256.416 339.341 256.701 339.432 256.961C339.523 257.222 339.808 257.36 340.069 257.269L339.739 256.325ZM336.679 258.453C336.94 258.362 337.077 258.077 336.986 257.816C336.895 257.555 336.61 257.418 336.349 257.509L336.679 258.453ZM334.654 258.101C334.394 258.192 334.256 258.478 334.347 258.738C334.438 258.999 334.724 259.136 334.984 259.045L334.654 258.101ZM331.594 260.23C331.855 260.139 331.993 259.854 331.902 259.593C331.81 259.332 331.525 259.195 331.265 259.286L331.594 260.23ZM329.57 259.878C329.309 259.969 329.171 260.254 329.263 260.515C329.354 260.776 329.639 260.913 329.899 260.822L329.57 259.878ZM326.51 262.007C326.77 261.915 326.908 261.63 326.817 261.37C326.726 261.109 326.44 260.971 326.18 261.062L326.51 262.007ZM48.8921 79.012L47.9942 79.212L48.2117 80.1881L49.1095 79.9881L48.8921 79.012ZM44.4029 80.012L42.6072 80.412L42.8246 81.3881L44.6203 80.9881L44.4029 80.012ZM39.0159 81.212L37.2202 81.612L37.4376 82.5881L39.2333 82.1881L39.0159 81.212ZM33.6289 82.412L31.8332 82.812L32.0506 83.7881L33.8463 83.3881L33.6289 82.412ZM28.2418 83.612L26.4462 84.012L26.6636 84.9881L28.4593 84.5881L28.2418 83.612ZM22.8548 84.812L21.957 85.012L22.1744 85.9881L23.0723 85.7881L22.8548 84.812ZM22.5653 85.5195L22.6043 84.5195L21.6051 84.4806L21.5661 85.4806L22.5653 85.5195ZM22.7601 80.5195L22.8381 78.5195L21.8388 78.4806L21.7609 80.4806L22.7601 80.5195ZM22.9939 74.5195L23.0718 72.5195L22.0726 72.4806L21.9947 74.4806L22.9939 74.5195ZM23.2277 68.5196L23.3056 66.5196L22.3064 66.4806L22.2284 68.4806L23.2277 68.5196ZM23.4614 62.5196L23.5004 61.5196L22.5012 61.4806L22.4622 62.4806L23.4614 62.5196ZM23.0952 61.9911L24.08 61.8017L23.8912 60.8197L22.9064 61.0091L23.0952 61.9911ZM28.0194 61.0441L29.9891 60.6654L29.8003 59.6833L27.8306 60.0621L28.0194 61.0441ZM33.9285 59.9078L35.8982 59.529L35.7094 58.547L33.7397 58.9258L33.9285 59.9078ZM39.8376 58.7714L41.8073 58.3927L41.6185 57.4107L39.6488 57.7894L39.8376 58.7714ZM45.7467 57.6351L47.7164 57.2563L47.5275 56.2743L45.5579 56.6531L45.7467 57.6351ZM51.6558 56.4988L53.6255 56.12L53.4366 55.138L51.4669 55.5168L51.6558 56.4988ZM57.5649 55.3624L59.5346 54.9836L59.3457 54.0016L57.376 54.3804L57.5649 55.3624ZM63.474 54.2261L65.4437 53.8473L65.2548 52.8653L63.2851 53.2441L63.474 54.2261ZM69.383 53.0897L71.3527 52.711L71.1639 51.7289L69.1942 52.1077L69.383 53.0897ZM75.2921 51.9534L77.2618 51.5746L77.073 50.5926L75.1033 50.9714L75.2921 51.9534ZM81.2012 50.817L83.1709 50.4383L82.9821 49.4563L81.0124 49.835L81.2012 50.817ZM87.1103 49.6807L88.0952 49.4913L87.9063 48.5093L86.9215 48.6987L87.1103 49.6807ZM87.7877 49.4526L88.682 49.8739L89.1081 48.9693L88.2138 48.548L87.7877 49.4526ZM92.2593 51.559L94.0479 52.4016L94.4741 51.4969L92.6854 50.6544L92.2593 51.559ZM97.6252 54.0867L99.4139 54.9292L99.84 54.0246L98.0514 53.182L97.6252 54.0867ZM102.991 56.6143L104.78 57.4569L105.206 56.5522L103.417 55.7097L102.991 56.6143ZM108.357 59.142L110.146 59.9845L110.572 59.0799L108.783 58.2373L108.357 59.142ZM113.723 61.6696L115.512 62.5122L115.938 61.6075L114.149 60.765L113.723 61.6696ZM119.089 64.1973L120.878 65.0398L121.304 64.1352L119.515 63.2926L119.089 64.1973ZM124.455 66.725L126.244 67.5675L126.67 66.6628L124.881 65.8203L124.455 66.725ZM129.821 69.2526L130.715 69.6739L131.141 68.7692L130.247 68.348L129.821 69.2526ZM130.978 69.7191L131.937 69.6237L131.838 68.6286L130.879 68.724L130.978 69.7191ZM135.776 69.2423L137.695 69.0516L137.596 68.0565L135.677 68.2472L135.776 69.2423ZM141.533 68.6702L143.452 68.4795L143.353 67.4844L141.434 67.6751L141.533 68.6702ZM147.29 68.098L149.209 67.9073L149.11 66.9122L147.191 67.1029L147.29 68.098ZM153.047 67.5259L154.966 67.3352L154.867 66.3401L152.948 66.5308L153.047 67.5259ZM158.804 66.9538L160.724 66.763L160.625 65.7679L158.706 65.9587L158.804 66.9538ZM164.562 66.3816L166.481 66.1909L166.382 65.1958L164.463 65.3865L164.562 66.3816ZM170.319 65.8095L172.238 65.6188L172.139 64.6237L170.22 64.8144L170.319 65.8095ZM176.076 65.2373L177.995 65.0466L177.896 64.0515L175.977 64.2422L176.076 65.2373ZM181.833 64.6652L183.753 64.4745L183.654 63.4794L181.735 63.6701L181.833 64.6652ZM187.591 64.093L188.55 63.9977L188.451 63.0026L187.492 63.098L187.591 64.093ZM188.158 63.8646L188.957 64.6146L189.642 63.8857L188.843 63.1357L188.158 63.8646ZM192.151 67.6146L193.748 69.1146L194.432 68.3857L192.835 66.8857L192.151 67.6146ZM196.941 72.1146L198.538 73.6146L199.223 72.8857L197.626 71.3857L196.941 72.1146ZM201.732 76.6146L203.329 78.1146L204.014 77.3857L202.417 75.8857L201.732 76.6146ZM206.523 81.1146L208.12 82.6146L208.804 81.8857L207.207 80.3857L206.523 81.1146ZM211.313 85.6146L212.112 86.3646L212.796 85.6357L211.998 84.8857L211.313 85.6146ZM211.957 86.051L212.065 87.1105L213.06 87.0088L212.952 85.9493L211.957 86.051ZM212.498 91.3486L212.715 93.4677L213.709 93.366L213.493 91.247L212.498 91.3486ZM213.148 97.7058L213.364 99.8248L214.359 99.7232L214.142 97.6041L213.148 97.7058ZM213.797 104.063L214.014 106.182L215.008 106.08L214.792 103.961L213.797 104.063ZM214.447 110.42L214.663 112.539L215.658 112.438L215.441 110.319L214.447 110.42ZM215.096 116.777L215.313 118.896L216.307 118.795L216.091 116.676L215.096 116.777ZM215.746 123.134L215.962 125.254L216.957 125.152L216.74 123.033L215.746 123.134ZM216.395 129.492L216.503 130.551L217.498 130.45L217.39 129.39L216.395 129.492ZM216.629 130.166L215.871 131.009L216.615 131.678L217.373 130.835L216.629 130.166ZM212.84 134.381L212.082 135.224L212.826 135.892L213.584 135.049L212.84 134.381ZM212.23 136.005L213.106 136.443L213.554 135.549L212.678 135.111L212.23 136.005ZM216.609 138.196L218.361 139.072L218.808 138.177L217.057 137.301L216.609 138.196ZM221.864 140.824L223.616 141.7L224.063 140.806L222.311 139.93L221.864 140.824ZM227.119 143.453L228.87 144.329L229.318 143.435L227.566 142.559L227.119 143.453ZM232.373 146.082L234.125 146.958L234.572 146.063L232.821 145.187L232.373 146.082ZM237.628 148.71L239.38 149.586L239.827 148.692L238.075 147.816L237.628 148.71ZM242.883 151.339L244.634 152.215L245.082 151.321L243.33 150.445L242.883 151.339ZM248.137 153.968L249.889 154.844L250.336 153.949L248.585 153.073L248.137 153.968ZM253.392 156.596L255.143 157.472L255.591 156.578L253.839 155.702L253.392 156.596ZM258.647 159.225L260.398 160.101L260.846 159.207L259.094 158.331L258.647 159.225ZM263.901 161.854L264.777 162.292L265.224 161.397L264.349 160.959L263.901 161.854ZM265.307 162.239L266.071 161.647L265.458 160.857L264.694 161.45L265.307 162.239ZM269.127 159.275L270.654 158.089L270.041 157.299L268.513 158.485L269.127 159.275ZM273.71 155.718L275.238 154.532L274.624 153.742L273.097 154.928L273.71 155.718ZM278.293 152.16L279.821 150.975L279.208 150.185L277.68 151.37L278.293 152.16ZM282.876 148.603L284.404 147.417L283.791 146.627L282.263 147.813L282.876 148.603ZM287.459 145.046L288.987 143.86L288.374 143.07L286.846 144.256L287.459 145.046ZM292.043 141.488L292.806 140.895L292.193 140.105L291.429 140.698L292.043 141.488ZM292.317 140.966L293.167 141.299L293.532 140.368L292.682 140.035L292.317 140.966ZM296.567 142.633L298.267 143.299L298.632 142.368L296.932 141.702L296.567 142.633ZM301.667 144.633L303.367 145.299L303.732 144.368L302.032 143.702L301.667 144.633ZM306.767 146.633L308.467 147.299L308.832 146.368L307.132 145.702L306.767 146.633ZM311.867 148.633L313.567 149.299L313.932 148.368L312.232 147.702L311.867 148.633ZM316.967 150.633L317.817 150.966L318.182 150.035L317.332 149.702L316.967 150.633ZM317.566 150.748L318.099 151.682L318.967 151.186L318.434 150.252L317.566 150.748ZM320.232 155.415L321.299 157.282L322.167 156.786L321.101 154.919L320.232 155.415ZM323.432 161.015L324.499 162.882L325.367 162.386L324.301 160.519L323.432 161.015ZM326.632 166.615L327.699 168.482L328.567 167.986L327.501 166.119L326.632 166.615ZM329.832 172.215L330.899 174.082L331.767 173.586L330.701 171.719L329.832 172.215ZM333.032 177.815L333.566 178.748L334.434 178.252L333.901 177.319L333.032 177.815ZM333.506 178.575L333.644 179.492L334.633 179.342L334.494 178.426L333.506 178.575ZM334.2 183.159L334.478 184.992L335.466 184.842L335.189 183.009L334.2 183.159ZM335.033 188.659L335.311 190.492L336.3 190.342L336.022 188.509L335.033 188.659ZM335.867 194.159L336.144 195.992L337.133 195.842L336.855 194.009L335.867 194.159ZM336.7 199.659L336.978 201.492L337.966 201.342L337.689 199.509L336.7 199.659ZM337.533 205.159L337.811 206.992L338.8 206.842L338.522 205.009L337.533 205.159ZM338.367 210.659L338.506 211.575L339.494 211.426L339.355 210.509L338.367 210.659ZM338.826 211.969L339.721 212.302L340.07 211.365L339.174 211.032L338.826 211.969ZM343.305 213.636L345.096 214.302L345.445 213.365L343.653 212.698L343.305 213.636ZM348.68 215.636L350.471 216.302L350.82 215.365L349.028 214.698L348.68 215.636ZM354.055 217.636L355.846 218.302L356.195 217.365L354.403 216.698L354.055 217.636ZM359.43 219.636L360.326 219.969L360.674 219.032L359.778 218.698L359.43 219.636ZM360.059 219.265L359.589 220.146L360.471 220.617L360.941 219.736L360.059 219.265ZM357.708 223.67L356.767 225.432L357.65 225.903L358.59 224.141L357.708 223.67ZM354.887 228.955L353.946 230.717L354.828 231.188L355.769 229.426L354.887 228.955ZM352.065 234.241L351.125 236.003L352.007 236.474L352.948 234.712L352.065 234.241ZM349.244 239.527L348.304 241.289L349.186 241.76L350.127 239.998L349.244 239.527ZM346.423 244.813L345.483 246.575L346.365 247.045L347.305 245.283L346.423 244.813ZM343.602 250.098L342.662 251.86L343.544 252.331L344.484 250.569L343.602 250.098ZM340.781 255.384L340.311 256.265L341.193 256.736L341.663 255.855L340.781 255.384ZM340.587 256.028L339.739 256.325L340.069 257.269L340.917 256.972L340.587 256.028ZM336.349 257.509L334.654 258.101L334.984 259.045L336.679 258.453L336.349 257.509ZM331.265 259.286L329.57 259.878L329.899 260.822L331.594 260.23L331.265 259.286ZM326.18 261.062L325.332 261.359L325.662 262.303L326.51 262.007L326.18 261.062Z" fill="#87A4BC"/>
<g filter="url(#filter0_d_5088_63117)">
<circle cx="329" cy="262" r="3" fill="#0C99CF"/>
<circle cx="329" cy="262" r="4" stroke="white" stroke-width="2"/>
</g>
<path d="M283.025 253V242.979H286.785C287.551 242.979 288.164 243.081 288.624 243.286C289.089 243.487 289.451 243.799 289.711 244.223C289.975 244.642 290.107 245.082 290.107 245.542C290.107 245.97 289.991 246.374 289.759 246.752C289.526 247.13 289.175 247.436 288.706 247.668C289.312 247.846 289.777 248.149 290.101 248.577C290.429 249.006 290.593 249.511 290.593 250.095C290.593 250.564 290.493 251.002 290.292 251.407C290.096 251.808 289.852 252.118 289.561 252.337C289.269 252.556 288.902 252.722 288.46 252.836C288.022 252.945 287.485 253 286.847 253H283.025ZM284.352 247.189H286.519C287.106 247.189 287.528 247.151 287.783 247.073C288.12 246.973 288.373 246.807 288.542 246.574C288.715 246.342 288.802 246.05 288.802 245.699C288.802 245.367 288.722 245.075 288.562 244.824C288.403 244.569 288.175 244.396 287.879 244.305C287.583 244.209 287.075 244.161 286.354 244.161H284.352V247.189ZM284.352 251.817H286.847C287.275 251.817 287.576 251.801 287.749 251.77C288.054 251.715 288.31 251.624 288.515 251.496C288.72 251.368 288.888 251.184 289.021 250.942C289.153 250.696 289.219 250.414 289.219 250.095C289.219 249.721 289.123 249.397 288.932 249.124C288.74 248.846 288.474 248.652 288.132 248.543C287.795 248.429 287.307 248.372 286.669 248.372H284.352V251.817ZM292.377 253V242.979H294.373L296.745 250.074C296.964 250.735 297.123 251.229 297.224 251.558C297.338 251.193 297.515 250.658 297.757 249.951L300.156 242.979H301.94V253H300.662V244.612L297.75 253H296.554L293.655 244.469V253H292.377ZM306.63 253V244.161H303.328V242.979H311.271V244.161H307.956V253H306.63ZM312.652 242.979H320.534V253H319.201V244.161H313.979V253H312.652V242.979Z" fill="white"/>
<path d="M17.1006 59.9785H18.4268V64.3672C19.0329 64.3672 19.459 64.251 19.7051 64.0186C19.9512 63.7816 20.2656 63.2165 20.6484 62.3232C20.9264 61.667 21.1543 61.2044 21.332 60.9355C21.5143 60.6621 21.7718 60.4342 22.1045 60.252C22.4372 60.0651 22.804 59.9717 23.2051 59.9717C23.7155 59.9717 23.9844 59.9762 24.0117 59.9854V61.1338C23.9661 61.1338 23.8773 61.1315 23.7451 61.127C23.5993 61.1224 23.5104 61.1201 23.4785 61.1201C23.0547 61.1201 22.7402 61.2227 22.5352 61.4277C22.3255 61.6328 22.0863 62.0703 21.8174 62.7402C21.4801 63.5879 21.1953 64.1234 20.9629 64.3467C20.7305 64.5654 20.4525 64.7409 20.1289 64.873C20.776 65.0508 21.4141 65.6478 22.043 66.6641L24.1074 70H22.46L20.7852 67.2793C20.3249 66.5273 19.9398 66.0124 19.6299 65.7344C19.32 65.4518 18.9189 65.3105 18.4268 65.3105V70H17.1006V59.9785ZM29.8223 69.1045C29.3665 69.4919 28.9268 69.7653 28.5029 69.9248C28.0837 70.0843 27.6325 70.1641 27.1494 70.1641C26.3519 70.1641 25.7389 69.9704 25.3105 69.583C24.8822 69.1911 24.668 68.6921 24.668 68.0859C24.668 67.7305 24.7477 67.4069 24.9072 67.1152C25.0713 66.819 25.2832 66.582 25.543 66.4043C25.8073 66.2266 26.1035 66.0921 26.4316 66.001C26.6732 65.9372 27.0378 65.8757 27.5254 65.8164C28.5189 65.6979 29.2503 65.5566 29.7197 65.3926C29.7243 65.224 29.7266 65.1169 29.7266 65.0713C29.7266 64.57 29.6104 64.2168 29.3779 64.0117C29.0635 63.7337 28.5964 63.5947 27.9766 63.5947C27.3978 63.5947 26.9694 63.6973 26.6914 63.9023C26.418 64.1029 26.2152 64.4606 26.083 64.9756L24.8799 64.8115C24.9893 64.2965 25.1693 63.8818 25.4199 63.5674C25.6706 63.2484 26.0329 63.0046 26.5068 62.8359C26.9808 62.6628 27.5299 62.5762 28.1543 62.5762C28.7741 62.5762 29.2777 62.6491 29.665 62.7949C30.0524 62.9408 30.3372 63.1253 30.5195 63.3486C30.7018 63.5674 30.8294 63.8454 30.9023 64.1826C30.9434 64.3923 30.9639 64.7705 30.9639 65.3174V66.958C30.9639 68.1019 30.9889 68.8265 31.0391 69.1318C31.0938 69.4326 31.1986 69.722 31.3535 70H30.0684C29.9408 69.7448 29.8587 69.4463 29.8223 69.1045ZM29.7197 66.3564C29.2731 66.5387 28.6032 66.6937 27.71 66.8213C27.2041 66.8942 26.8464 66.9762 26.6367 67.0674C26.4271 67.1585 26.2653 67.293 26.1514 67.4707C26.0374 67.6439 25.9805 67.8376 25.9805 68.0518C25.9805 68.3799 26.1035 68.6533 26.3496 68.8721C26.6003 69.0908 26.9648 69.2002 27.4434 69.2002C27.9173 69.2002 28.3389 69.0977 28.708 68.8926C29.0771 68.6829 29.3483 68.3981 29.5215 68.0381C29.6536 67.7601 29.7197 67.3499 29.7197 66.8076V66.3564ZM34.3203 66.7188V65.7549C34.8398 65.7503 35.193 65.7298 35.3799 65.6934C35.5713 65.6569 35.7513 65.5475 35.9199 65.3652C36.0885 65.1829 36.1729 64.9551 36.1729 64.6816C36.1729 64.349 36.0612 64.0846 35.8379 63.8887C35.6191 63.6882 35.3343 63.5879 34.9834 63.5879C34.2907 63.5879 33.8053 63.9958 33.5273 64.8115L32.3584 64.6201C32.723 63.2575 33.6025 62.5762 34.9971 62.5762C35.7718 62.5762 36.3779 62.7881 36.8154 63.2119C37.2575 63.6357 37.4785 64.1416 37.4785 64.7295C37.4785 65.3219 37.1914 65.7936 36.6172 66.1445C36.9818 66.3405 37.2552 66.5911 37.4375 66.8965C37.6198 67.1973 37.7109 67.555 37.7109 67.9697C37.7109 68.6214 37.474 69.1501 37 69.5557C36.526 69.9613 35.863 70.1641 35.0107 70.1641C33.3564 70.1641 32.3971 69.4281 32.1328 67.9561L33.2881 67.71C33.3929 68.1748 33.6048 68.5348 33.9238 68.79C34.2474 69.0452 34.6165 69.1729 35.0312 69.1729C35.446 69.1729 35.79 69.0566 36.0635 68.8242C36.3415 68.5872 36.4805 68.2865 36.4805 67.9219C36.4805 67.6393 36.3939 67.3932 36.2207 67.1836C36.0475 66.974 35.863 66.8441 35.667 66.7939C35.471 66.7393 35.1156 66.7119 34.6006 66.7119C34.5596 66.7119 34.4661 66.7142 34.3203 66.7188ZM43.877 69.1045C43.4212 69.4919 42.9814 69.7653 42.5576 69.9248C42.1383 70.0843 41.6872 70.1641 41.2041 70.1641C40.4066 70.1641 39.7936 69.9704 39.3652 69.583C38.9368 69.1911 38.7227 68.6921 38.7227 68.0859C38.7227 67.7305 38.8024 67.4069 38.9619 67.1152C39.126 66.819 39.3379 66.582 39.5977 66.4043C39.862 66.2266 40.1582 66.0921 40.4863 66.001C40.7279 65.9372 41.0924 65.8757 41.5801 65.8164C42.5736 65.6979 43.305 65.5566 43.7744 65.3926C43.779 65.224 43.7812 65.1169 43.7812 65.0713C43.7812 64.57 43.665 64.2168 43.4326 64.0117C43.1182 63.7337 42.651 63.5947 42.0312 63.5947C41.4525 63.5947 41.0241 63.6973 40.7461 63.9023C40.4727 64.1029 40.2699 64.4606 40.1377 64.9756L38.9346 64.8115C39.0439 64.2965 39.224 63.8818 39.4746 63.5674C39.7253 63.2484 40.0876 63.0046 40.5615 62.8359C41.0355 62.6628 41.5846 62.5762 42.209 62.5762C42.8288 62.5762 43.3324 62.6491 43.7197 62.7949C44.1071 62.9408 44.3919 63.1253 44.5742 63.3486C44.7565 63.5674 44.8841 63.8454 44.957 64.1826C44.998 64.3923 45.0186 64.7705 45.0186 65.3174V66.958C45.0186 68.1019 45.0436 68.8265 45.0938 69.1318C45.1484 69.4326 45.2533 69.722 45.4082 70H44.123C43.9954 69.7448 43.9134 69.4463 43.877 69.1045ZM43.7744 66.3564C43.3278 66.5387 42.6579 66.6937 41.7646 66.8213C41.2588 66.8942 40.901 66.9762 40.6914 67.0674C40.4818 67.1585 40.32 67.293 40.2061 67.4707C40.0921 67.6439 40.0352 67.8376 40.0352 68.0518C40.0352 68.3799 40.1582 68.6533 40.4043 68.8721C40.6549 69.0908 41.0195 69.2002 41.498 69.2002C41.972 69.2002 42.3936 69.0977 42.7627 68.8926C43.1318 68.6829 43.403 68.3981 43.5762 68.0381C43.7083 67.7601 43.7744 67.3499 43.7744 66.8076V66.3564ZM46.1123 70L48.7646 66.2266L46.3105 62.7402H47.8486L48.9629 64.4424C49.1725 64.766 49.3411 65.0371 49.4688 65.2559C49.6693 64.9551 49.8538 64.6885 50.0225 64.4561L51.2461 62.7402H52.7158L50.207 66.1582L52.9072 70H51.3965L49.9062 67.7441L49.5098 67.1357L47.6025 70H46.1123ZM58.5059 67.3408L59.7158 67.498C59.5837 68.332 59.2441 68.986 58.6973 69.46C58.1549 69.9294 57.4873 70.1641 56.6943 70.1641C55.7008 70.1641 54.901 69.8405 54.2949 69.1934C53.6934 68.5417 53.3926 67.6097 53.3926 66.3975C53.3926 65.6136 53.5225 64.9277 53.7822 64.3398C54.042 63.752 54.4362 63.3122 54.9648 63.0205C55.498 62.7243 56.0768 62.5762 56.7012 62.5762C57.4896 62.5762 58.1344 62.7767 58.6357 63.1777C59.137 63.5742 59.4583 64.1393 59.5996 64.873L58.4033 65.0576C58.2894 64.57 58.0866 64.2031 57.7949 63.957C57.5078 63.7109 57.1592 63.5879 56.749 63.5879C56.1292 63.5879 55.6257 63.8112 55.2383 64.2578C54.8509 64.6999 54.6572 65.4017 54.6572 66.3633C54.6572 67.3385 54.8441 68.0472 55.2178 68.4893C55.5915 68.9313 56.0791 69.1523 56.6807 69.1523C57.1637 69.1523 57.5671 69.0042 57.8906 68.708C58.2142 68.4118 58.4193 67.9561 58.5059 67.3408ZM60.1055 62.7402H66.0049V63.7588H63.667V70H62.4434V63.7588H60.1055V62.7402ZM71.7539 69.1045C71.2982 69.4919 70.8584 69.7653 70.4346 69.9248C70.0153 70.0843 69.5641 70.1641 69.0811 70.1641C68.2835 70.1641 67.6706 69.9704 67.2422 69.583C66.8138 69.1911 66.5996 68.6921 66.5996 68.0859C66.5996 67.7305 66.6794 67.4069 66.8389 67.1152C67.0029 66.819 67.2148 66.582 67.4746 66.4043C67.7389 66.2266 68.0352 66.0921 68.3633 66.001C68.6048 65.9372 68.9694 65.8757 69.457 65.8164C70.4505 65.6979 71.182 65.5566 71.6514 65.3926C71.6559 65.224 71.6582 65.1169 71.6582 65.0713C71.6582 64.57 71.542 64.2168 71.3096 64.0117C70.9951 63.7337 70.528 63.5947 69.9082 63.5947C69.3294 63.5947 68.901 63.6973 68.623 63.9023C68.3496 64.1029 68.1468 64.4606 68.0146 64.9756L66.8115 64.8115C66.9209 64.2965 67.1009 63.8818 67.3516 63.5674C67.6022 63.2484 67.9645 63.0046 68.4385 62.8359C68.9124 62.6628 69.4616 62.5762 70.0859 62.5762C70.7057 62.5762 71.2093 62.6491 71.5967 62.7949C71.984 62.9408 72.2689 63.1253 72.4512 63.3486C72.6335 63.5674 72.7611 63.8454 72.834 64.1826C72.875 64.3923 72.8955 64.7705 72.8955 65.3174V66.958C72.8955 68.1019 72.9206 68.8265 72.9707 69.1318C73.0254 69.4326 73.1302 69.722 73.2852 70H72C71.8724 69.7448 71.7904 69.4463 71.7539 69.1045ZM71.6514 66.3564C71.2048 66.5387 70.5348 66.6937 69.6416 66.8213C69.1357 66.8942 68.778 66.9762 68.5684 67.0674C68.3587 67.1585 68.1969 67.293 68.083 67.4707C67.9691 67.6439 67.9121 67.8376 67.9121 68.0518C67.9121 68.3799 68.0352 68.6533 68.2812 68.8721C68.5319 69.0908 68.8965 69.2002 69.375 69.2002C69.849 69.2002 70.2705 69.0977 70.6396 68.8926C71.0088 68.6829 71.2799 68.3981 71.4531 68.0381C71.5853 67.7601 71.6514 67.3499 71.6514 66.8076V66.3564ZM74.8164 62.7402H76.0469V65.7617H79.458V62.7402H80.6885V70H79.458V66.7803H76.0469V70H74.8164V62.7402Z" fill="white"/>
<g filter="url(#filter1_d_5088_63117)">
<circle cx="49" cy="79" r="2" fill="#0C99CF"/>
<circle cx="49" cy="79" r="2.5" stroke="white"/>
</g>
<defs>
<filter id="filter0_d_5088_63117" x="322.163" y="256.388" width="13.6731" height="13.6731" filterUnits="userSpaceOnUse" color-interpolation-filters="sRGB">
<feFlood flood-opacity="0" result="BackgroundImageFix"/>
<feColorMatrix in="SourceAlpha" type="matrix" values="0 0 0 0 0 0 0 0 0 0 0 0 0 0 0 0 0 0 127 0" result="hardAlpha"/>
<feOffset dy="1.22437"/>
<feGaussianBlur stdDeviation="0.918278"/>
<feColorMatrix type="matrix" values="0 0 0 0 0 0 0 0 0 0 0 0 0 0 0 0 0 0 0.2 0"/>
<feBlend mode="normal" in2="BackgroundImageFix" result="effect1_dropShadow_5088_63117"/>
<feBlend mode="normal" in="SourceGraphic" in2="effect1_dropShadow_5088_63117" result="shape"/>
</filter>
<filter id="filter1_d_5088_63117" x="44.1634" y="75.3878" width="9.67311" height="9.67311" filterUnits="userSpaceOnUse" color-interpolation-filters="sRGB">
<feFlood flood-opacity="0" result="BackgroundImageFix"/>
<feColorMatrix in="SourceAlpha" type="matrix" values="0 0 0 0 0 0 0 0 0 0 0 0 0 0 0 0 0 0 127 0" result="hardAlpha"/>
<feOffset dy="1.22437"/>
<feGaussianBlur stdDeviation="0.918278"/>
<feColorMatrix type="matrix" values="0 0 0 0 0 0 0 0 0 0 0 0 0 0 0 0 0 0 0.2 0"/>
<feBlend mode="normal" in2="BackgroundImageFix" result="effect1_dropShadow_5088_63117"/>
<feBlend mode="normal" in="SourceGraphic" in2="effect1_dropShadow_5088_63117" result="shape"/>
</filter>
</defs>
</svg>
