<svg width="386" height="308" viewBox="0 0 386 308" fill="none" xmlns="http://www.w3.org/2000/svg">
<path d="M325.752 293.5L325.917 293.972L326.101 293.908L326.193 293.736L325.752 293.5ZM345.5 256.5L345.941 256.736L346.21 256.231L345.674 256.032L345.5 256.5ZM324 248.5L323.506 248.575L323.55 248.866L323.826 248.969L324 248.5ZM319 215.5L319.494 215.425L319.48 215.333L319.434 215.252L319 215.5ZM303 187.5L303.434 187.252L303.346 187.099L303.182 187.035L303 187.5ZM277.5 177.5L277.682 177.035L277.418 176.931L277.193 177.105L277.5 177.5ZM250.001 198.844L249.777 199.292L250.059 199.432L250.307 199.239L250.001 198.844ZM197.454 172.558L197.082 172.223L196.644 172.711L197.23 173.005L197.454 172.558ZM202.001 167.5L202.373 167.835L202.521 167.67L202.498 167.449L202.001 167.5ZM197.454 123L197.952 122.949L197.933 122.763L197.796 122.636L197.454 123ZM173.501 100.5L173.843 100.136L173.677 99.98L173.451 100.002L173.501 100.5ZM115.928 106.221L115.715 106.674L115.84 106.733L115.978 106.719L115.928 106.221ZM73.0007 86.0002L72.5065 86.0762L72.547 86.3391L72.7876 86.4525L73.0007 86.0002ZM63.4942 20.924C63.4522 20.651 63.1969 20.4638 62.924 20.5058C62.651 20.5478 62.4638 20.8031 62.5058 21.076L63.4942 20.924ZM62.6573 22.0609C62.6993 22.3338 62.9546 22.521 63.2276 22.479C63.5005 22.437 63.6877 22.1817 63.6457 21.9088L62.6573 22.0609ZM64.2518 25.8482C64.2098 25.5753 63.9545 25.3881 63.6816 25.4301C63.4087 25.4721 63.2215 25.7274 63.2634 26.0003L64.2518 25.8482ZM63.5665 27.97C63.6085 28.2429 63.8638 28.4301 64.1367 28.3881C64.4096 28.3462 64.5969 28.0909 64.5549 27.8179L63.5665 27.97ZM65.161 31.7573C65.119 31.4844 64.8637 31.2972 64.5908 31.3392C64.3178 31.3812 64.1306 31.6365 64.1726 31.9094L65.161 31.7573ZM64.4757 33.8791C64.5176 34.152 64.7729 34.3392 65.0459 34.2973C65.3188 34.2553 65.506 34 65.464 33.727L64.4757 33.8791ZM66.0701 37.6664C66.0281 37.3935 65.7728 37.2063 65.4999 37.2483C65.227 37.2903 65.0398 37.5456 65.0818 37.8185L66.0701 37.6664ZM65.3848 39.7882C65.4268 40.0611 65.6821 40.2483 65.955 40.2064C66.228 40.1644 66.4152 39.9091 66.3732 39.6361L65.3848 39.7882ZM66.9793 43.5755C66.9373 43.3026 66.682 43.1154 66.4091 43.1574C66.1361 43.1994 65.9489 43.4547 65.9909 43.7276L66.9793 43.5755ZM66.294 45.6973C66.336 45.9702 66.5913 46.1575 66.8642 46.1155C67.1371 46.0735 67.3243 45.8182 67.2823 45.5452L66.294 45.6973ZM67.8884 49.4846C67.8464 49.2117 67.5911 49.0245 67.3182 49.0665C67.0453 49.1085 66.8581 49.3638 66.9001 49.6367L67.8884 49.4846ZM67.2031 51.6064C67.2451 51.8794 67.5004 52.0666 67.7733 52.0246C68.0463 51.9826 68.2335 51.7273 68.1915 51.4544L67.2031 51.6064ZM68.7976 55.3938C68.7556 55.1208 68.5003 54.9336 68.2274 54.9756C67.9544 55.0176 67.7672 55.2729 67.8092 55.5458L68.7976 55.3938ZM68.1123 57.5155C68.1543 57.7885 68.4096 57.9757 68.6825 57.9337C68.9554 57.8917 69.1426 57.6364 69.1006 57.3635L68.1123 57.5155ZM69.7067 61.3029C69.6648 61.0299 69.4095 60.8427 69.1365 60.8847C68.8636 60.9267 68.6764 61.182 68.7184 61.4549L69.7067 61.3029ZM69.0214 63.4246C69.0634 63.6976 69.3187 63.8848 69.5917 63.8428C69.8646 63.8008 70.0518 63.5455 70.0098 63.2726L69.0214 63.4246ZM70.6159 67.212C70.5739 66.939 70.3186 66.7518 70.0457 66.7938C69.7728 66.8358 69.5855 67.0911 69.6275 67.364L70.6159 67.212ZM69.9306 69.3337C69.9726 69.6067 70.2279 69.7939 70.5008 69.7519C70.7737 69.7099 70.9609 69.4546 70.919 69.1817L69.9306 69.3337ZM71.5251 73.1211C71.4831 72.8481 71.2278 72.6609 70.9548 72.7029C70.6819 72.7449 70.4947 73.0002 70.5367 73.2731L71.5251 73.1211ZM70.8397 75.2428C70.8817 75.5158 71.137 75.703 71.41 75.661C71.6829 75.619 71.8701 75.3637 71.8281 75.0908L70.8397 75.2428ZM72.4342 79.0302C72.3922 78.7573 72.1369 78.57 71.864 78.612C71.5911 78.654 71.4039 78.9093 71.4458 79.1823L72.4342 79.0302ZM71.7489 81.152C71.7909 81.4249 72.0462 81.6121 72.3191 81.5701C72.592 81.5281 72.7793 81.2728 72.7373 80.9999L71.7489 81.152ZM73.3434 84.9393C73.3014 84.6664 73.0461 84.4791 72.7732 84.5211C72.5002 84.5631 72.313 84.8184 72.355 85.0914L73.3434 84.9393ZM73.682 86.8738C73.9318 86.9915 74.2297 86.8843 74.3474 86.6345C74.465 86.3847 74.3579 86.0868 74.1081 85.9691L73.682 86.8738ZM77.6854 87.6542C77.4356 87.5366 77.1377 87.6437 77.02 87.8935C76.9023 88.1433 77.0095 88.4412 77.2593 88.5589L77.6854 87.6542ZM79.0479 89.4014C79.2977 89.5191 79.5956 89.412 79.7133 89.1622C79.831 88.9124 79.7239 88.6145 79.4741 88.4968L79.0479 89.4014ZM83.0514 90.1819C82.8015 90.0642 82.5036 90.1713 82.386 90.4211C82.2683 90.671 82.3754 90.9689 82.6252 91.0865L83.0514 90.1819ZM84.4139 91.9291C84.6637 92.0468 84.9616 91.9396 85.0793 91.6898C85.1969 91.44 85.0898 91.1421 84.84 91.0244L84.4139 91.9291ZM88.4173 92.7095C88.1675 92.5919 87.8696 92.699 87.7519 92.9488C87.6342 93.1986 87.7414 93.4965 87.9912 93.6142L88.4173 92.7095ZM89.7798 94.4567C90.0296 94.5744 90.3275 94.4673 90.4452 94.2175C90.5629 93.9677 90.4558 93.6698 90.206 93.5521L89.7798 94.4567ZM93.7833 95.2372C93.5335 95.1195 93.2355 95.2266 93.1179 95.4765C93.0002 95.7263 93.1073 96.0242 93.3571 96.1419L93.7833 95.2372ZM95.1458 96.9844C95.3956 97.1021 95.6935 96.995 95.8112 96.7451C95.9289 96.4953 95.8217 96.1974 95.5719 96.0797L95.1458 96.9844ZM99.1492 97.7648C98.8994 97.6472 98.6015 97.7543 98.4838 98.0041C98.3661 98.2539 98.4733 98.5518 98.7231 98.6695L99.1492 97.7648ZM100.512 99.5121C100.762 99.6297 101.059 99.5226 101.177 99.2728C101.295 99.023 101.188 98.7251 100.938 98.6074L100.512 99.5121ZM104.515 100.293C104.265 100.175 103.967 100.282 103.85 100.532C103.732 100.782 103.839 101.079 104.089 101.197L104.515 100.293ZM105.878 102.04C106.128 102.157 106.425 102.05 106.543 101.8C106.661 101.551 106.554 101.253 106.304 101.135L105.878 102.04ZM109.881 102.82C109.631 102.702 109.333 102.81 109.216 103.059C109.098 103.309 109.205 103.607 109.455 103.725L109.881 102.82ZM111.244 104.567C111.493 104.685 111.791 104.578 111.909 104.328C112.027 104.078 111.92 103.78 111.67 103.663L111.244 104.567ZM115.247 105.348C114.997 105.23 114.699 105.337 114.582 105.587C114.464 105.837 114.571 106.135 114.821 106.252L115.247 105.348ZM116.937 106.624C117.212 106.596 117.413 106.351 117.385 106.077C117.358 105.802 117.113 105.601 116.838 105.629L116.937 106.624ZM120.677 105.247C120.402 105.274 120.201 105.519 120.228 105.794C120.256 106.069 120.501 106.269 120.775 106.242L120.677 105.247ZM122.695 106.051C122.969 106.024 123.17 105.779 123.143 105.504C123.115 105.23 122.87 105.029 122.596 105.056L122.695 106.051ZM126.434 104.675C126.159 104.702 125.958 104.947 125.986 105.222C126.013 105.497 126.258 105.697 126.533 105.67L126.434 104.675ZM128.452 105.479C128.727 105.452 128.927 105.207 128.9 104.932C128.873 104.658 128.628 104.457 128.353 104.484L128.452 105.479ZM132.191 104.103C131.916 104.13 131.716 104.375 131.743 104.65C131.77 104.925 132.015 105.125 132.29 105.098L132.191 104.103ZM134.209 104.907C134.484 104.88 134.684 104.635 134.657 104.36C134.63 104.085 134.385 103.885 134.11 103.912L134.209 104.907ZM137.948 103.531C137.674 103.558 137.473 103.803 137.5 104.078C137.528 104.352 137.772 104.553 138.047 104.526L137.948 103.531ZM139.966 104.335C140.241 104.308 140.442 104.063 140.414 103.788C140.387 103.513 140.142 103.313 139.867 103.34L139.966 104.335ZM143.706 102.959C143.431 102.986 143.23 103.231 143.257 103.506C143.285 103.78 143.53 103.981 143.804 103.954L143.706 102.959ZM145.724 103.763C145.998 103.736 146.199 103.491 146.172 103.216C146.144 102.941 145.899 102.74 145.625 102.768L145.724 103.763ZM149.463 102.386C149.188 102.414 148.987 102.659 149.015 102.933C149.042 103.208 149.287 103.409 149.562 103.381L149.463 102.386ZM151.481 103.191C151.756 103.163 151.956 102.919 151.929 102.644C151.902 102.369 151.657 102.168 151.382 102.196L151.481 103.191ZM155.22 101.814C154.945 101.842 154.745 102.086 154.772 102.361C154.799 102.636 155.044 102.837 155.319 102.809L155.22 101.814ZM157.238 102.619C157.513 102.591 157.713 102.346 157.686 102.072C157.659 101.797 157.414 101.596 157.139 101.624L157.238 102.619ZM160.977 101.242C160.703 101.269 160.502 101.514 160.529 101.789C160.557 102.064 160.801 102.265 161.076 102.237L160.977 101.242ZM162.995 102.046C163.27 102.019 163.471 101.774 163.443 101.499C163.416 101.225 163.171 101.024 162.896 101.051L162.995 102.046ZM166.735 100.67C166.46 100.697 166.259 100.942 166.286 101.217C166.314 101.492 166.559 101.692 166.833 101.665L166.735 100.67ZM168.753 101.474C169.027 101.447 169.228 101.202 169.201 100.927C169.173 100.653 168.928 100.452 168.654 100.479L168.753 101.474ZM172.492 100.098C172.217 100.125 172.016 100.37 172.044 100.645C172.071 100.92 172.316 101.12 172.591 101.093L172.492 100.098ZM173.957 101.614C174.158 101.804 174.475 101.794 174.664 101.592C174.853 101.391 174.843 101.075 174.642 100.886L173.957 101.614ZM177.835 103.886C177.634 103.697 177.318 103.706 177.129 103.908C176.94 104.109 176.949 104.425 177.151 104.614L177.835 103.886ZM178.748 106.114C178.949 106.304 179.265 106.294 179.454 106.092C179.643 105.891 179.634 105.575 179.432 105.386L178.748 106.114ZM182.626 108.386C182.425 108.197 182.108 108.206 181.919 108.408C181.73 108.609 181.74 108.925 181.941 109.114L182.626 108.386ZM183.538 110.614C183.74 110.804 184.056 110.794 184.245 110.592C184.434 110.391 184.424 110.075 184.223 109.886L183.538 110.614ZM187.417 112.886C187.215 112.697 186.899 112.706 186.71 112.908C186.521 113.109 186.531 113.425 186.732 113.614L187.417 112.886ZM188.329 115.114C188.53 115.304 188.847 115.294 189.036 115.092C189.225 114.891 189.215 114.575 189.014 114.386L188.329 115.114ZM192.207 117.386C192.006 117.197 191.69 117.206 191.501 117.408C191.312 117.609 191.321 117.925 191.523 118.114L192.207 117.386ZM193.12 119.614C193.321 119.803 193.637 119.794 193.826 119.592C194.015 119.391 194.006 119.075 193.804 118.886L193.12 119.614ZM196.998 121.886C196.797 121.697 196.48 121.706 196.291 121.908C196.102 122.109 196.112 122.425 196.313 122.614L196.998 121.886ZM197.065 124.11C197.093 124.385 197.338 124.585 197.613 124.557C197.888 124.529 198.088 124.283 198.06 124.009L197.065 124.11ZM198.493 128.247C198.465 127.972 198.219 127.772 197.945 127.8C197.67 127.828 197.47 128.074 197.498 128.348L198.493 128.247ZM197.714 130.468C197.743 130.742 197.988 130.942 198.263 130.914C198.537 130.886 198.737 130.641 198.709 130.366L197.714 130.468ZM199.142 134.604C199.114 134.329 198.869 134.129 198.594 134.157C198.319 134.185 198.119 134.431 198.147 134.706L199.142 134.604ZM198.364 136.825C198.392 137.099 198.638 137.299 198.912 137.271C199.187 137.243 199.387 136.998 199.359 136.723L198.364 136.825ZM199.792 140.961C199.764 140.686 199.518 140.487 199.244 140.515C198.969 140.543 198.769 140.788 198.797 141.063L199.792 140.961ZM199.014 143.182C199.042 143.457 199.287 143.657 199.562 143.628C199.836 143.6 200.036 143.355 200.008 143.08L199.014 143.182ZM200.441 147.318C200.413 147.044 200.168 146.844 199.893 146.872C199.618 146.9 199.418 147.145 199.447 147.42L200.441 147.318ZM199.663 149.539C199.691 149.814 199.937 150.014 200.211 149.986C200.486 149.958 200.686 149.712 200.658 149.437L199.663 149.539ZM201.091 153.676C201.063 153.401 200.817 153.201 200.543 153.229C200.268 153.257 200.068 153.502 200.096 153.777L201.091 153.676ZM200.313 155.896C200.341 156.171 200.586 156.371 200.861 156.343C201.135 156.315 201.335 156.069 201.307 155.795L200.313 155.896ZM201.74 160.033C201.712 159.758 201.467 159.558 201.192 159.586C200.917 159.614 200.717 159.86 200.746 160.134L201.74 160.033ZM200.962 162.253C200.99 162.528 201.236 162.728 201.51 162.7C201.785 162.672 201.985 162.426 201.957 162.152L200.962 162.253ZM202.39 166.39C202.362 166.115 202.116 165.915 201.842 165.943C201.567 165.971 201.367 166.217 201.395 166.492L202.39 166.39ZM200.871 168.009C200.687 168.214 200.703 168.53 200.909 168.715C201.114 168.9 201.43 168.883 201.615 168.677L200.871 168.009ZM198.584 172.049C198.768 171.844 198.752 171.528 198.546 171.343C198.341 171.158 198.025 171.175 197.84 171.381L198.584 172.049ZM198.106 173.443C198.353 173.567 198.654 173.467 198.777 173.22C198.901 172.973 198.801 172.672 198.554 172.549L198.106 173.443ZM202.057 174.301C201.81 174.178 201.509 174.278 201.386 174.525C201.262 174.772 201.362 175.072 201.609 175.195L202.057 174.301ZM203.361 176.072C203.608 176.195 203.908 176.095 204.032 175.848C204.155 175.601 204.055 175.301 203.808 175.177L203.361 176.072ZM207.311 176.93C207.064 176.806 206.764 176.906 206.641 177.153C206.517 177.4 206.617 177.701 206.864 177.824L207.311 176.93ZM208.616 178.7C208.862 178.824 209.163 178.724 209.286 178.477C209.41 178.23 209.31 177.93 209.063 177.806L208.616 178.7ZM212.566 179.558C212.319 179.435 212.019 179.535 211.895 179.782C211.772 180.029 211.872 180.329 212.119 180.453L212.566 179.558ZM213.87 181.329C214.117 181.453 214.418 181.353 214.541 181.106C214.665 180.859 214.565 180.558 214.318 180.435L213.87 181.329ZM217.821 182.187C217.574 182.064 217.273 182.164 217.15 182.411C217.026 182.658 217.126 182.958 217.373 183.081L217.821 182.187ZM219.125 183.958C219.372 184.081 219.672 183.981 219.796 183.734C219.919 183.487 219.819 183.187 219.572 183.063L219.125 183.958ZM223.075 184.816C222.828 184.692 222.528 184.792 222.404 185.039C222.281 185.286 222.381 185.587 222.628 185.71L223.075 184.816ZM224.38 186.586C224.626 186.71 224.927 186.61 225.05 186.363C225.174 186.116 225.074 185.816 224.827 185.692L224.38 186.586ZM228.33 187.444C228.083 187.321 227.783 187.421 227.659 187.668C227.536 187.915 227.636 188.215 227.883 188.339L228.33 187.444ZM229.634 189.215C229.881 189.339 230.181 189.238 230.305 188.992C230.429 188.745 230.329 188.444 230.082 188.321L229.634 189.215ZM233.585 190.073C233.338 189.95 233.037 190.05 232.914 190.297C232.79 190.544 232.89 190.844 233.137 190.967L233.585 190.073ZM234.889 191.844C235.136 191.967 235.436 191.867 235.56 191.62C235.683 191.373 235.583 191.073 235.336 190.949L234.889 191.844ZM238.839 192.702C238.592 192.578 238.292 192.678 238.168 192.925C238.045 193.172 238.145 193.473 238.392 193.596L238.839 192.702ZM240.143 194.472C240.39 194.596 240.691 194.496 240.814 194.249C240.938 194.002 240.838 193.702 240.591 193.578L240.143 194.472ZM244.094 195.33C243.847 195.207 243.547 195.307 243.423 195.554C243.3 195.801 243.4 196.101 243.647 196.225L244.094 195.33ZM245.398 197.101C245.645 197.225 245.945 197.124 246.069 196.877C246.193 196.631 246.092 196.33 245.846 196.207L245.398 197.101ZM249.349 197.959C249.102 197.836 248.801 197.936 248.678 198.183C248.554 198.429 248.654 198.73 248.901 198.853L249.349 197.959ZM251.071 198.646C251.289 198.477 251.329 198.163 251.16 197.945C250.99 197.727 250.676 197.687 250.458 197.856L251.071 198.646ZM253.513 195.485C253.295 195.654 253.256 195.968 253.425 196.186C253.594 196.405 253.908 196.444 254.127 196.275L253.513 195.485ZM255.654 195.089C255.872 194.92 255.912 194.606 255.743 194.388C255.573 194.169 255.259 194.13 255.041 194.299L255.654 195.089ZM258.097 191.928C257.879 192.097 257.839 192.411 258.008 192.629C258.178 192.847 258.492 192.887 258.71 192.718L258.097 191.928ZM260.238 191.532C260.456 191.362 260.495 191.048 260.326 190.83C260.157 190.612 259.843 190.572 259.624 190.742L260.238 191.532ZM262.68 188.37C262.462 188.54 262.422 188.854 262.591 189.072C262.761 189.29 263.075 189.329 263.293 189.16L262.68 188.37ZM264.821 187.974C265.039 187.805 265.078 187.491 264.909 187.273C264.74 187.055 264.426 187.015 264.208 187.184L264.821 187.974ZM267.263 184.813C267.045 184.982 267.005 185.296 267.175 185.514C267.344 185.733 267.658 185.772 267.876 185.603L267.263 184.813ZM269.404 184.417C269.622 184.248 269.662 183.934 269.492 183.715C269.323 183.497 269.009 183.458 268.791 183.627L269.404 184.417ZM271.846 181.256C271.628 181.425 271.588 181.739 271.758 181.957C271.927 182.175 272.241 182.215 272.459 182.045L271.846 181.256ZM273.987 180.86C274.205 180.69 274.245 180.376 274.076 180.158C273.906 179.94 273.592 179.9 273.374 180.07L273.987 180.86ZM276.429 177.698C276.211 177.867 276.172 178.182 276.341 178.4C276.51 178.618 276.824 178.657 277.043 178.488L276.429 177.698ZM278.167 178.299C278.424 178.4 278.714 178.273 278.815 178.016C278.916 177.759 278.789 177.469 278.532 177.368L278.167 178.299ZM281.932 178.701C281.675 178.601 281.385 178.727 281.284 178.984C281.184 179.241 281.31 179.532 281.567 179.632L281.932 178.701ZM283.267 180.299C283.524 180.4 283.815 180.273 283.915 180.016C284.016 179.759 283.889 179.469 283.632 179.368L283.267 180.299ZM287.032 180.701C286.775 180.601 286.485 180.727 286.384 180.984C286.284 181.241 286.41 181.532 286.667 181.632L287.032 180.701ZM288.367 182.299C288.624 182.4 288.915 182.273 289.015 182.016C289.116 181.759 288.989 181.469 288.732 181.368L288.367 182.299ZM292.132 182.701C291.875 182.601 291.585 182.727 291.484 182.984C291.384 183.241 291.51 183.532 291.767 183.632L292.132 182.701ZM293.467 184.299C293.724 184.4 294.015 184.273 294.115 184.016C294.216 183.759 294.089 183.469 293.832 183.368L293.467 184.299ZM297.232 184.701C296.975 184.601 296.685 184.727 296.584 184.984C296.484 185.241 296.61 185.532 296.867 185.632L297.232 184.701ZM298.567 186.299C298.824 186.4 299.115 186.273 299.215 186.016C299.316 185.759 299.189 185.469 298.932 185.368L298.567 186.299ZM302.332 186.701C302.075 186.601 301.785 186.727 301.684 186.984C301.584 187.241 301.71 187.532 301.967 187.632L302.332 186.701ZM303.099 188.682C303.236 188.921 303.541 189.005 303.781 188.868C304.021 188.731 304.104 188.425 303.967 188.186L303.099 188.682ZM306.101 191.919C305.964 191.679 305.658 191.596 305.418 191.733C305.179 191.87 305.095 192.175 305.232 192.415L306.101 191.919ZM306.299 194.282C306.436 194.521 306.742 194.605 306.981 194.468C307.221 194.331 307.304 194.025 307.167 193.786L306.299 194.282ZM309.301 197.519C309.164 197.279 308.858 197.196 308.618 197.333C308.379 197.47 308.295 197.775 308.432 198.015L309.301 197.519ZM309.499 199.882C309.636 200.121 309.942 200.205 310.181 200.068C310.421 199.931 310.504 199.625 310.367 199.386L309.499 199.882ZM312.501 203.119C312.364 202.879 312.058 202.796 311.818 202.933C311.579 203.07 311.495 203.375 311.632 203.615L312.501 203.119ZM312.699 205.482C312.836 205.721 313.142 205.805 313.381 205.668C313.621 205.531 313.704 205.225 313.567 204.986L312.699 205.482ZM315.701 208.719C315.564 208.479 315.258 208.396 315.018 208.533C314.779 208.67 314.695 208.975 314.832 209.215L315.701 208.719ZM315.899 211.082C316.036 211.321 316.342 211.405 316.581 211.268C316.821 211.131 316.904 210.825 316.767 210.586L315.899 211.082ZM318.901 214.319C318.764 214.079 318.458 213.996 318.218 214.133C317.979 214.27 317.895 214.575 318.032 214.815L318.901 214.319ZM318.644 216.492C318.686 216.765 318.941 216.953 319.214 216.911C319.487 216.87 319.674 216.615 319.633 216.342L318.644 216.492ZM320.189 220.009C320.147 219.736 319.892 219.548 319.619 219.589C319.346 219.631 319.159 219.886 319.2 220.159L320.189 220.009ZM319.478 221.992C319.519 222.265 319.774 222.453 320.047 222.411C320.32 222.37 320.508 222.115 320.466 221.842L319.478 221.992ZM321.022 225.509C320.981 225.236 320.726 225.048 320.453 225.089C320.18 225.131 319.992 225.386 320.033 225.659L321.022 225.509ZM320.311 227.492C320.352 227.765 320.607 227.953 320.88 227.911C321.153 227.87 321.341 227.615 321.3 227.342L320.311 227.492ZM321.855 231.009C321.814 230.736 321.559 230.548 321.286 230.589C321.013 230.631 320.825 230.886 320.867 231.159L321.855 231.009ZM321.144 232.992C321.186 233.265 321.441 233.453 321.714 233.411C321.987 233.37 322.175 233.115 322.133 232.842L321.144 232.992ZM322.689 236.509C322.647 236.236 322.392 236.048 322.119 236.089C321.846 236.131 321.659 236.386 321.7 236.659L322.689 236.509ZM321.978 238.492C322.019 238.765 322.274 238.953 322.547 238.911C322.82 238.87 323.008 238.615 322.966 238.342L321.978 238.492ZM323.522 242.009C323.481 241.736 323.226 241.548 322.953 241.589C322.68 241.631 322.492 241.886 322.533 242.159L323.522 242.009ZM322.811 243.992C322.852 244.265 323.107 244.453 323.38 244.411C323.653 244.37 323.841 244.115 323.8 243.842L322.811 243.992ZM324.355 247.509C324.314 247.236 324.059 247.048 323.786 247.089C323.513 247.131 323.325 247.386 323.367 247.659L324.355 247.509ZM324.721 249.302C324.98 249.399 325.268 249.267 325.364 249.008C325.461 248.749 325.329 248.461 325.07 248.365L324.721 249.302ZM328.653 249.698C328.395 249.602 328.107 249.734 328.01 249.993C327.914 250.251 328.046 250.539 328.305 250.636L328.653 249.698ZM330.096 251.302C330.355 251.399 330.643 251.267 330.739 251.008C330.836 250.749 330.704 250.461 330.445 250.365L330.096 251.302ZM334.028 251.698C333.77 251.602 333.482 251.734 333.385 251.993C333.289 252.251 333.421 252.539 333.68 252.636L334.028 251.698ZM335.471 253.302C335.73 253.399 336.018 253.267 336.114 253.008C336.211 252.749 336.079 252.461 335.82 252.365L335.471 253.302ZM339.403 253.698C339.145 253.602 338.857 253.734 338.76 253.993C338.664 254.251 338.796 254.539 339.055 254.636L339.403 253.698ZM340.846 255.302C341.105 255.399 341.393 255.267 341.489 255.008C341.586 254.749 341.454 254.461 341.195 254.365L340.846 255.302ZM344.778 255.698C344.52 255.602 344.232 255.734 344.135 255.993C344.039 256.251 344.171 256.539 344.43 256.636L344.778 255.698ZM344.589 257.146C344.459 257.389 344.551 257.692 344.794 257.822C345.038 257.952 345.341 257.86 345.471 257.617L344.589 257.146ZM343.59 261.14C343.72 260.897 343.628 260.594 343.384 260.464C343.141 260.334 342.838 260.426 342.708 260.67L343.59 261.14ZM341.767 262.432C341.637 262.675 341.729 262.978 341.973 263.108C342.217 263.238 342.52 263.146 342.65 262.902L341.767 262.432ZM340.769 266.426C340.899 266.183 340.807 265.88 340.563 265.75C340.32 265.62 340.017 265.712 339.887 265.955L340.769 266.426ZM338.946 267.717C338.816 267.961 338.908 268.264 339.152 268.394C339.396 268.524 339.698 268.432 339.828 268.188L338.946 267.717ZM337.948 271.712C338.078 271.468 337.986 271.165 337.742 271.035C337.498 270.905 337.195 270.997 337.065 271.241L337.948 271.712ZM336.125 273.003C335.995 273.247 336.087 273.549 336.331 273.679C336.574 273.81 336.877 273.717 337.007 273.474L336.125 273.003ZM335.126 276.998C335.257 276.754 335.164 276.451 334.921 276.321C334.677 276.191 334.374 276.283 334.244 276.527L335.126 276.998ZM333.304 278.289C333.174 278.532 333.266 278.835 333.51 278.965C333.753 279.095 334.056 279.003 334.186 278.76L333.304 278.289ZM332.305 282.283C332.435 282.04 332.343 281.737 332.1 281.607C331.856 281.477 331.553 281.569 331.423 281.812L332.305 282.283ZM330.483 283.574C330.353 283.818 330.445 284.121 330.688 284.251C330.932 284.381 331.235 284.289 331.365 284.045L330.483 283.574ZM329.484 287.569C329.614 287.325 329.522 287.023 329.278 286.893C329.035 286.762 328.732 286.855 328.602 287.098L329.484 287.569ZM327.662 288.86C327.531 289.104 327.624 289.407 327.867 289.537C328.111 289.667 328.414 289.575 328.544 289.331L327.662 288.86ZM326.663 292.855C326.793 292.611 326.701 292.308 326.457 292.178C326.214 292.048 325.911 292.14 325.781 292.384L326.663 292.855ZM324.739 293.324C324.479 293.415 324.341 293.701 324.432 293.961C324.523 294.222 324.808 294.359 325.069 294.268L324.739 293.324ZM321.679 295.453C321.94 295.362 322.077 295.077 321.986 294.816C321.895 294.555 321.61 294.418 321.349 294.509L321.679 295.453ZM319.654 295.101C319.394 295.192 319.256 295.477 319.347 295.738C319.438 295.999 319.724 296.136 319.984 296.045L319.654 295.101ZM316.594 297.23C316.855 297.139 316.993 296.853 316.901 296.593C316.81 296.332 316.525 296.195 316.265 296.286L316.594 297.23ZM314.57 296.878C314.309 296.969 314.171 297.254 314.263 297.515C314.354 297.775 314.639 297.913 314.899 297.822L314.57 296.878ZM311.51 299.006C311.77 298.915 311.908 298.63 311.817 298.369C311.726 298.109 311.44 297.971 311.18 298.062L311.51 299.006ZM62.5058 21.076L62.6573 22.0609L63.6457 21.9088L63.4942 20.924L62.5058 21.076ZM63.2634 26.0003L63.5665 27.97L64.5549 27.8179L64.2518 25.8482L63.2634 26.0003ZM64.1726 31.9094L64.4757 33.8791L65.464 33.727L65.161 31.7573L64.1726 31.9094ZM65.0818 37.8185L65.3848 39.7882L66.3732 39.6361L66.0701 37.6664L65.0818 37.8185ZM65.9909 43.7276L66.294 45.6973L67.2823 45.5452L66.9793 43.5755L65.9909 43.7276ZM66.9001 49.6367L67.2031 51.6064L68.1915 51.4544L67.8884 49.4846L66.9001 49.6367ZM67.8092 55.5458L68.1123 57.5155L69.1006 57.3635L68.7976 55.3938L67.8092 55.5458ZM68.7184 61.4549L69.0214 63.4246L70.0098 63.2726L69.7067 61.3029L68.7184 61.4549ZM69.6275 67.364L69.9306 69.3337L70.919 69.1817L70.6159 67.212L69.6275 67.364ZM70.5367 73.2731L70.8397 75.2428L71.8281 75.0908L71.5251 73.1211L70.5367 73.2731ZM71.4458 79.1823L71.7489 81.152L72.7373 80.9999L72.4342 79.0302L71.4458 79.1823ZM72.355 85.0914L72.5065 86.0762L73.4949 85.9241L73.3434 84.9393L72.355 85.0914ZM72.7876 86.4525L73.682 86.8738L74.1081 85.9691L73.2138 85.5478L72.7876 86.4525ZM77.2593 88.5589L79.0479 89.4014L79.4741 88.4968L77.6854 87.6542L77.2593 88.5589ZM82.6252 91.0865L84.4139 91.9291L84.84 91.0244L83.0514 90.1819L82.6252 91.0865ZM87.9912 93.6142L89.7798 94.4567L90.206 93.5521L88.4173 92.7095L87.9912 93.6142ZM93.3571 96.1419L95.1458 96.9844L95.5719 96.0797L93.7833 95.2372L93.3571 96.1419ZM98.7231 98.6695L100.512 99.5121L100.938 98.6074L99.1492 97.7648L98.7231 98.6695ZM104.089 101.197L105.878 102.04L106.304 101.135L104.515 100.293L104.089 101.197ZM109.455 103.725L111.244 104.567L111.67 103.663L109.881 102.82L109.455 103.725ZM114.821 106.252L115.715 106.674L116.141 105.769L115.247 105.348L114.821 106.252ZM115.978 106.719L116.937 106.624L116.838 105.629L115.879 105.724L115.978 106.719ZM120.775 106.242L122.695 106.051L122.596 105.056L120.677 105.247L120.775 106.242ZM126.533 105.67L128.452 105.479L128.353 104.484L126.434 104.675L126.533 105.67ZM132.29 105.098L134.209 104.907L134.11 103.912L132.191 104.103L132.29 105.098ZM138.047 104.526L139.966 104.335L139.867 103.34L137.948 103.531L138.047 104.526ZM143.804 103.954L145.724 103.763L145.625 102.768L143.706 102.959L143.804 103.954ZM149.562 103.381L151.481 103.191L151.382 102.196L149.463 102.386L149.562 103.381ZM155.319 102.809L157.238 102.619L157.139 101.624L155.22 101.814L155.319 102.809ZM161.076 102.237L162.995 102.046L162.896 101.051L160.977 101.242L161.076 102.237ZM166.833 101.665L168.753 101.474L168.654 100.479L166.735 100.67L166.833 101.665ZM172.591 101.093L173.55 100.998L173.451 100.002L172.492 100.098L172.591 101.093ZM173.158 100.864L173.957 101.614L174.642 100.886L173.843 100.136L173.158 100.864ZM177.151 104.614L178.748 106.114L179.432 105.386L177.835 103.886L177.151 104.614ZM181.941 109.114L183.538 110.614L184.223 109.886L182.626 108.386L181.941 109.114ZM186.732 113.614L188.329 115.114L189.014 114.386L187.417 112.886L186.732 113.614ZM191.523 118.114L193.12 119.614L193.804 118.886L192.207 117.386L191.523 118.114ZM196.313 122.614L197.112 123.364L197.796 122.636L196.998 121.886L196.313 122.614ZM196.957 123.051L197.065 124.11L198.06 124.009L197.952 122.949L196.957 123.051ZM197.498 128.348L197.714 130.468L198.709 130.366L198.493 128.247L197.498 128.348ZM198.147 134.706L198.364 136.825L199.359 136.723L199.142 134.604L198.147 134.706ZM198.797 141.063L199.014 143.182L200.008 143.08L199.792 140.961L198.797 141.063ZM199.447 147.42L199.663 149.539L200.658 149.437L200.441 147.318L199.447 147.42ZM200.096 153.777L200.313 155.896L201.307 155.795L201.091 153.676L200.096 153.777ZM200.746 160.134L200.962 162.253L201.957 162.152L201.74 160.033L200.746 160.134ZM201.395 166.492L201.503 167.551L202.498 167.449L202.39 166.39L201.395 166.492ZM201.629 167.166L200.871 168.009L201.615 168.677L202.373 167.835L201.629 167.166ZM197.84 171.381L197.082 172.223L197.826 172.892L198.584 172.049L197.84 171.381ZM197.23 173.005L198.106 173.443L198.554 172.549L197.678 172.111L197.23 173.005ZM201.609 175.195L203.361 176.072L203.808 175.177L202.057 174.301L201.609 175.195ZM206.864 177.824L208.616 178.7L209.063 177.806L207.311 176.93L206.864 177.824ZM212.119 180.453L213.87 181.329L214.318 180.435L212.566 179.558L212.119 180.453ZM217.373 183.081L219.125 183.958L219.572 183.063L217.821 182.187L217.373 183.081ZM222.628 185.71L224.38 186.586L224.827 185.692L223.075 184.816L222.628 185.71ZM227.883 188.339L229.634 189.215L230.082 188.321L228.33 187.444L227.883 188.339ZM233.137 190.967L234.889 191.844L235.336 190.949L233.585 190.073L233.137 190.967ZM238.392 193.596L240.143 194.472L240.591 193.578L238.839 192.702L238.392 193.596ZM243.647 196.225L245.398 197.101L245.846 196.207L244.094 195.33L243.647 196.225ZM248.901 198.853L249.777 199.292L250.224 198.397L249.349 197.959L248.901 198.853ZM250.307 199.239L251.071 198.646L250.458 197.856L249.694 198.449L250.307 199.239ZM254.127 196.275L255.654 195.089L255.041 194.299L253.513 195.485L254.127 196.275ZM258.71 192.718L260.238 191.532L259.624 190.742L258.097 191.928L258.71 192.718ZM263.293 189.16L264.821 187.974L264.208 187.184L262.68 188.37L263.293 189.16ZM267.876 185.603L269.404 184.417L268.791 183.627L267.263 184.813L267.876 185.603ZM272.459 182.045L273.987 180.86L273.374 180.07L271.846 181.256L272.459 182.045ZM277.043 178.488L277.806 177.895L277.193 177.105L276.429 177.698L277.043 178.488ZM277.317 177.966L278.167 178.299L278.532 177.368L277.682 177.035L277.317 177.966ZM281.567 179.632L283.267 180.299L283.632 179.368L281.932 178.701L281.567 179.632ZM286.667 181.632L288.367 182.299L288.732 181.368L287.032 180.701L286.667 181.632ZM291.767 183.632L293.467 184.299L293.832 183.368L292.132 182.701L291.767 183.632ZM296.867 185.632L298.567 186.299L298.932 185.368L297.232 184.701L296.867 185.632ZM301.967 187.632L302.817 187.966L303.182 187.035L302.332 186.701L301.967 187.632ZM302.566 187.748L303.099 188.682L303.967 188.186L303.434 187.252L302.566 187.748ZM305.232 192.415L306.299 194.282L307.167 193.786L306.101 191.919L305.232 192.415ZM308.432 198.015L309.499 199.882L310.367 199.386L309.301 197.519L308.432 198.015ZM311.632 203.615L312.699 205.482L313.567 204.986L312.501 203.119L311.632 203.615ZM314.832 209.215L315.899 211.082L316.767 210.586L315.701 208.719L314.832 209.215ZM318.032 214.815L318.566 215.748L319.434 215.252L318.901 214.319L318.032 214.815ZM318.506 215.575L318.644 216.492L319.633 216.342L319.494 215.425L318.506 215.575ZM319.2 220.159L319.478 221.992L320.466 221.842L320.189 220.009L319.2 220.159ZM320.033 225.659L320.311 227.492L321.3 227.342L321.022 225.509L320.033 225.659ZM320.867 231.159L321.144 232.992L322.133 232.842L321.855 231.009L320.867 231.159ZM321.7 236.659L321.978 238.492L322.966 238.342L322.689 236.509L321.7 236.659ZM322.533 242.159L322.811 243.992L323.8 243.842L323.522 242.009L322.533 242.159ZM323.367 247.659L323.506 248.575L324.494 248.425L324.355 247.509L323.367 247.659ZM323.826 248.969L324.721 249.302L325.07 248.365L324.174 248.032L323.826 248.969ZM328.305 250.636L330.096 251.302L330.445 250.365L328.653 249.698L328.305 250.636ZM333.68 252.636L335.471 253.302L335.82 252.365L334.028 251.698L333.68 252.636ZM339.055 254.636L340.846 255.302L341.195 254.365L339.403 253.698L339.055 254.636ZM344.43 256.636L345.326 256.969L345.674 256.032L344.778 255.698L344.43 256.636ZM345.059 256.265L344.589 257.146L345.471 257.617L345.941 256.736L345.059 256.265ZM342.708 260.67L341.767 262.432L342.65 262.902L343.59 261.14L342.708 260.67ZM339.887 265.955L338.946 267.717L339.828 268.188L340.769 266.426L339.887 265.955ZM337.065 271.241L336.125 273.003L337.007 273.474L337.948 271.712L337.065 271.241ZM334.244 276.527L333.304 278.289L334.186 278.76L335.126 276.998L334.244 276.527ZM331.423 281.812L330.483 283.574L331.365 284.045L332.305 282.283L331.423 281.812ZM328.602 287.098L327.662 288.86L328.544 289.331L329.484 287.569L328.602 287.098ZM325.781 292.384L325.311 293.265L326.193 293.736L326.663 292.855L325.781 292.384ZM325.587 293.028L324.739 293.324L325.069 294.268L325.917 293.972L325.587 293.028ZM321.349 294.509L319.654 295.101L319.984 296.045L321.679 295.453L321.349 294.509ZM316.265 296.286L314.57 296.878L314.899 297.822L316.594 297.23L316.265 296.286ZM311.18 298.062L310.332 298.358L310.662 299.303L311.51 299.006L311.18 298.062Z" fill="#87A4BC"/>
<g filter="url(#filter0_d_5088_63171)">
<circle cx="314" cy="299" r="3" fill="#0C99CF"/>
<circle cx="314" cy="299" r="4" stroke="white" stroke-width="2"/>
</g>
<path d="M268.025 290V279.979H271.785C272.551 279.979 273.164 280.081 273.624 280.286C274.089 280.487 274.451 280.799 274.711 281.223C274.975 281.642 275.107 282.082 275.107 282.542C275.107 282.97 274.991 283.374 274.759 283.752C274.526 284.13 274.175 284.436 273.706 284.668C274.312 284.846 274.777 285.149 275.101 285.577C275.429 286.006 275.593 286.511 275.593 287.095C275.593 287.564 275.493 288.002 275.292 288.407C275.096 288.808 274.852 289.118 274.561 289.337C274.269 289.556 273.902 289.722 273.46 289.836C273.022 289.945 272.485 290 271.847 290H268.025ZM269.352 284.189H271.519C272.106 284.189 272.528 284.151 272.783 284.073C273.12 283.973 273.373 283.807 273.542 283.574C273.715 283.342 273.802 283.05 273.802 282.699C273.802 282.367 273.722 282.075 273.562 281.824C273.403 281.569 273.175 281.396 272.879 281.305C272.583 281.209 272.075 281.161 271.354 281.161H269.352V284.189ZM269.352 288.817H271.847C272.275 288.817 272.576 288.801 272.749 288.77C273.054 288.715 273.31 288.624 273.515 288.496C273.72 288.368 273.888 288.184 274.021 287.942C274.153 287.696 274.219 287.414 274.219 287.095C274.219 286.721 274.123 286.397 273.932 286.124C273.74 285.846 273.474 285.652 273.132 285.543C272.795 285.429 272.307 285.372 271.669 285.372H269.352V288.817ZM277.377 290V279.979H279.373L281.745 287.074C281.964 287.735 282.123 288.229 282.224 288.558C282.338 288.193 282.515 287.658 282.757 286.951L285.156 279.979H286.94V290H285.662V281.612L282.75 290H281.554L278.655 281.469V290H277.377ZM291.63 290V281.161H288.328V279.979H296.271V281.161H292.956V290H291.63ZM297.652 279.979H305.534V290H304.201V281.161H298.979V290H297.652V279.979Z" fill="white"/>
<path d="M19.1074 12V1.97852H26.3535V3.16113H20.4336V6.23047H25.9775V7.40625H20.4336V10.8174H26.5859V12H19.1074ZM28.2539 4.74023H29.4844V7.87793C29.8763 7.87793 30.1497 7.80273 30.3047 7.65234C30.4642 7.50195 30.6966 7.06445 31.002 6.33984C31.2435 5.76562 31.4395 5.38737 31.5898 5.20508C31.7402 5.02279 31.9134 4.89974 32.1094 4.83594C32.3053 4.77214 32.6198 4.74023 33.0527 4.74023H33.2988V5.75879L32.957 5.75195C32.6335 5.75195 32.4261 5.7998 32.335 5.89551C32.2393 5.99577 32.0934 6.29427 31.8975 6.79102C31.7106 7.26497 31.5397 7.5931 31.3848 7.77539C31.2298 7.95768 30.9906 8.12402 30.667 8.27441C31.1956 8.41569 31.7152 8.90788 32.2256 9.75098L33.5723 12H32.2188L30.9062 9.75098C30.6374 9.2998 30.4027 9.00358 30.2021 8.8623C30.0016 8.71647 29.7624 8.64355 29.4844 8.64355V12H28.2539V4.74023ZM39.4375 11.1045C38.9818 11.4919 38.542 11.7653 38.1182 11.9248C37.6989 12.0843 37.2477 12.1641 36.7646 12.1641C35.9671 12.1641 35.3542 11.9704 34.9258 11.583C34.4974 11.1911 34.2832 10.6921 34.2832 10.0859C34.2832 9.73047 34.363 9.4069 34.5225 9.11523C34.6865 8.81901 34.8984 8.58203 35.1582 8.4043C35.4225 8.22656 35.7188 8.09212 36.0469 8.00098C36.2884 7.93717 36.653 7.87565 37.1406 7.81641C38.1341 7.69792 38.8656 7.55664 39.335 7.39258C39.3395 7.22396 39.3418 7.11686 39.3418 7.07129C39.3418 6.56999 39.2256 6.2168 38.9932 6.01172C38.6787 5.73372 38.2116 5.59473 37.5918 5.59473C37.013 5.59473 36.5846 5.69727 36.3066 5.90234C36.0332 6.10286 35.8304 6.46061 35.6982 6.97559L34.4951 6.81152C34.6045 6.29655 34.7845 5.88184 35.0352 5.56738C35.2858 5.24837 35.6481 5.00456 36.1221 4.83594C36.596 4.66276 37.1452 4.57617 37.7695 4.57617C38.3893 4.57617 38.8929 4.64909 39.2803 4.79492C39.6676 4.94076 39.9525 5.12533 40.1348 5.34863C40.3171 5.56738 40.4447 5.84538 40.5176 6.18262C40.5586 6.39225 40.5791 6.77051 40.5791 7.31738V8.95801C40.5791 10.1019 40.6042 10.8265 40.6543 11.1318C40.709 11.4326 40.8138 11.722 40.9688 12H39.6836C39.556 11.7448 39.474 11.4463 39.4375 11.1045ZM39.335 8.35645C38.8883 8.53874 38.2184 8.69368 37.3252 8.82129C36.8193 8.89421 36.4616 8.97624 36.252 9.06738C36.0423 9.15853 35.8805 9.29297 35.7666 9.4707C35.6527 9.64388 35.5957 9.83757 35.5957 10.0518C35.5957 10.3799 35.7188 10.6533 35.9648 10.8721C36.2155 11.0908 36.5801 11.2002 37.0586 11.2002C37.5326 11.2002 37.9541 11.0977 38.3232 10.8926C38.6924 10.6829 38.9635 10.3981 39.1367 10.0381C39.2689 9.76009 39.335 9.34993 39.335 8.80762V8.35645ZM41.5156 4.74023H47.415V5.75879H45.0771V12H43.8535V5.75879H41.5156V4.74023ZM53.3965 9.66211L54.668 9.81934C54.4674 10.5622 54.096 11.1387 53.5537 11.5488C53.0114 11.959 52.3187 12.1641 51.4756 12.1641C50.4137 12.1641 49.5706 11.8382 48.9463 11.1865C48.3265 10.5303 48.0166 9.61198 48.0166 8.43164C48.0166 7.21029 48.3311 6.26237 48.96 5.58789C49.5889 4.91341 50.4046 4.57617 51.4072 4.57617C52.3779 4.57617 53.1709 4.90658 53.7861 5.56738C54.4014 6.22819 54.709 7.15788 54.709 8.35645C54.709 8.42936 54.7067 8.53874 54.7021 8.68457H49.2881C49.3337 9.4821 49.5592 10.0928 49.9648 10.5166C50.3704 10.9404 50.8763 11.1523 51.4824 11.1523C51.9336 11.1523 52.3187 11.0339 52.6377 10.7969C52.9567 10.5599 53.2096 10.1816 53.3965 9.66211ZM49.3564 7.67285H53.4102C53.3555 7.06217 53.2005 6.60417 52.9453 6.29883C52.5534 5.82487 52.0452 5.58789 51.4209 5.58789C50.8558 5.58789 50.3796 5.77702 49.9922 6.15527C49.6094 6.53353 49.3975 7.03939 49.3564 7.67285ZM56.2197 14.7822V4.74023H57.3408V5.68359C57.6051 5.31445 57.9036 5.03874 58.2363 4.85645C58.569 4.6696 58.9723 4.57617 59.4463 4.57617C60.0661 4.57617 60.613 4.73568 61.0869 5.05469C61.5609 5.3737 61.9186 5.82487 62.1602 6.4082C62.4017 6.98698 62.5225 7.62272 62.5225 8.31543C62.5225 9.05827 62.388 9.72819 62.1191 10.3252C61.8548 10.9176 61.4674 11.3734 60.957 11.6924C60.4512 12.0068 59.918 12.1641 59.3574 12.1641C58.9473 12.1641 58.5781 12.0775 58.25 11.9043C57.9264 11.7311 57.6598 11.5124 57.4502 11.248V14.7822H56.2197ZM57.334 8.41113C57.334 9.34538 57.5231 10.0358 57.9014 10.4824C58.2796 10.929 58.7376 11.1523 59.2754 11.1523C59.8223 11.1523 60.2894 10.9222 60.6768 10.4619C61.0687 9.99707 61.2646 9.2793 61.2646 8.30859C61.2646 7.38346 61.0732 6.69076 60.6904 6.23047C60.3122 5.77018 59.8587 5.54004 59.3301 5.54004C58.806 5.54004 58.3411 5.78613 57.9355 6.27832C57.5345 6.76595 57.334 7.47689 57.334 8.41113ZM64.0127 4.74023H65.2432V10.2773L68.6543 4.74023H69.9805V12H68.75V6.49707L65.3389 12H64.0127V4.74023ZM71.8398 4.74023H73.0703V7.76172H76.4814V4.74023H77.7119V12H76.4814V8.78027H73.0703V12H71.8398V4.74023ZM84.8896 1.73926L85.9766 1.75293C85.9264 2.24056 85.8171 2.58008 85.6484 2.77148C85.4844 2.96289 85.2702 3.08594 85.0059 3.14062C84.7461 3.19531 84.2334 3.22266 83.4678 3.22266C82.4515 3.22266 81.7588 3.32064 81.3896 3.5166C81.0205 3.71257 80.7539 4.02702 80.5898 4.45996C80.4303 4.88835 80.3415 5.44206 80.3232 6.12109C80.6331 5.66081 80.9954 5.31673 81.4102 5.08887C81.8249 4.85645 82.292 4.74023 82.8115 4.74023C83.764 4.74023 84.5524 5.06836 85.1768 5.72461C85.8011 6.3763 86.1133 7.26042 86.1133 8.37695C86.1133 9.22461 85.9561 9.9196 85.6416 10.4619C85.3271 11.0042 84.9535 11.4235 84.5205 11.7197C84.0921 12.016 83.5065 12.1641 82.7637 12.1641C81.9023 12.1641 81.2324 11.9681 80.7539 11.5762C80.2754 11.1797 79.9085 10.6738 79.6533 10.0586C79.3981 9.44336 79.2705 8.3724 79.2705 6.8457C79.2705 4.92708 79.5941 3.63509 80.2412 2.96973C80.8929 2.30436 81.8932 1.97168 83.2422 1.97168C84.0807 1.97168 84.557 1.95801 84.6709 1.93066C84.7848 1.90332 84.8577 1.83952 84.8896 1.73926ZM84.8281 8.34277C84.8281 7.58626 84.6481 6.96647 84.2881 6.4834C83.9326 6.00033 83.429 5.75879 82.7773 5.75879C82.0983 5.75879 81.5742 6.014 81.2051 6.52441C80.8359 7.03483 80.6514 7.71615 80.6514 8.56836C80.6514 9.41146 80.8542 10.0563 81.2598 10.5029C81.6699 10.9495 82.1735 11.1729 82.7705 11.1729C83.3812 11.1729 83.8757 10.9154 84.2539 10.4004C84.6367 9.88086 84.8281 9.19499 84.8281 8.34277ZM87.2275 14.7959L87.0908 13.6406C87.3597 13.7135 87.5944 13.75 87.7949 13.75C88.0684 13.75 88.2871 13.7044 88.4512 13.6133C88.6152 13.5221 88.7497 13.3945 88.8545 13.2305C88.932 13.1074 89.0573 12.8021 89.2305 12.3145C89.2533 12.2461 89.2897 12.1458 89.3398 12.0137L86.585 4.74023H87.9111L89.4219 8.94434C89.6178 9.47754 89.7933 10.0381 89.9482 10.626C90.0895 10.0609 90.2581 9.50944 90.4541 8.97168L92.0059 4.74023H93.2363L90.4746 12.123C90.1784 12.9206 89.9482 13.4697 89.7842 13.7705C89.5654 14.1761 89.3148 14.4723 89.0322 14.6592C88.7497 14.8506 88.4124 14.9463 88.0205 14.9463C87.7835 14.9463 87.5192 14.8962 87.2275 14.7959ZM94.1182 14.7822V4.74023H95.2393V5.68359C95.5036 5.31445 95.8021 5.03874 96.1348 4.85645C96.4674 4.6696 96.8708 4.57617 97.3447 4.57617C97.9645 4.57617 98.5114 4.73568 98.9854 5.05469C99.4593 5.3737 99.8171 5.82487 100.059 6.4082C100.3 6.98698 100.421 7.62272 100.421 8.31543C100.421 9.05827 100.286 9.72819 100.018 10.3252C99.7533 10.9176 99.3659 11.3734 98.8555 11.6924C98.3496 12.0068 97.8164 12.1641 97.2559 12.1641C96.8457 12.1641 96.4766 12.0775 96.1484 11.9043C95.8249 11.7311 95.5583 11.5124 95.3486 11.248V14.7822H94.1182ZM95.2324 8.41113C95.2324 9.34538 95.4215 10.0358 95.7998 10.4824C96.1781 10.929 96.6361 11.1523 97.1738 11.1523C97.7207 11.1523 98.1878 10.9222 98.5752 10.4619C98.9671 9.99707 99.1631 9.2793 99.1631 8.30859C99.1631 7.38346 98.9717 6.69076 98.5889 6.23047C98.2106 5.77018 97.7572 5.54004 97.2285 5.54004C96.7044 5.54004 96.2396 5.78613 95.834 6.27832C95.4329 6.76595 95.2324 7.47689 95.2324 8.41113ZM101.918 4.74023H106.095V5.75879H103.148V12H101.918V4.74023Z" fill="white"/>
<g filter="url(#filter1_d_5088_63171)">
<circle cx="63" cy="21" r="2" fill="#0C99CF"/>
<circle cx="63" cy="21" r="2.5" stroke="white"/>
</g>
<defs>
<filter id="filter0_d_5088_63171" x="307.163" y="293.388" width="13.6731" height="13.6731" filterUnits="userSpaceOnUse" color-interpolation-filters="sRGB">
<feFlood flood-opacity="0" result="BackgroundImageFix"/>
<feColorMatrix in="SourceAlpha" type="matrix" values="0 0 0 0 0 0 0 0 0 0 0 0 0 0 0 0 0 0 127 0" result="hardAlpha"/>
<feOffset dy="1.22437"/>
<feGaussianBlur stdDeviation="0.918278"/>
<feColorMatrix type="matrix" values="0 0 0 0 0 0 0 0 0 0 0 0 0 0 0 0 0 0 0.2 0"/>
<feBlend mode="normal" in2="BackgroundImageFix" result="effect1_dropShadow_5088_63171"/>
<feBlend mode="normal" in="SourceGraphic" in2="effect1_dropShadow_5088_63171" result="shape"/>
</filter>
<filter id="filter1_d_5088_63171" x="58.1634" y="17.3878" width="9.67311" height="9.67311" filterUnits="userSpaceOnUse" color-interpolation-filters="sRGB">
<feFlood flood-opacity="0" result="BackgroundImageFix"/>
<feColorMatrix in="SourceAlpha" type="matrix" values="0 0 0 0 0 0 0 0 0 0 0 0 0 0 0 0 0 0 127 0" result="hardAlpha"/>
<feOffset dy="1.22437"/>
<feGaussianBlur stdDeviation="0.918278"/>
<feColorMatrix type="matrix" values="0 0 0 0 0 0 0 0 0 0 0 0 0 0 0 0 0 0 0.2 0"/>
<feBlend mode="normal" in2="BackgroundImageFix" result="effect1_dropShadow_5088_63171"/>
<feBlend mode="normal" in="SourceGraphic" in2="effect1_dropShadow_5088_63171" result="shape"/>
</filter>
</defs>
</svg>
