<svg width="347" height="249" viewBox="0 0 347 249" fill="none" xmlns="http://www.w3.org/2000/svg">
<path d="M282.497 239.83L297.752 234.5L317.5 197.5L296 189.5L291 156.5L275 128.5L249.5 118.5L222.001 139.844L169.454 113.558L174.001 108.5L169.454 63.9999L145.501 41.4999L87.9283 47.2213L45.0007 27" stroke="#87A4BC" stroke-dasharray="2 4"/>
<g filter="url(#filter0_d_5088_63180)">
<circle cx="286" cy="240" r="3" fill="#0C99CF"/>
<circle cx="286" cy="240" r="4" stroke="white" stroke-width="2"/>
</g>
<path d="M240.025 231V220.979H243.785C244.551 220.979 245.164 221.081 245.624 221.286C246.089 221.487 246.451 221.799 246.711 222.223C246.975 222.642 247.107 223.082 247.107 223.542C247.107 223.97 246.991 224.374 246.759 224.752C246.526 225.13 246.175 225.436 245.706 225.668C246.312 225.846 246.777 226.149 247.101 226.577C247.429 227.006 247.593 227.511 247.593 228.095C247.593 228.564 247.493 229.002 247.292 229.407C247.096 229.808 246.852 230.118 246.561 230.337C246.269 230.556 245.902 230.722 245.46 230.836C245.022 230.945 244.485 231 243.847 231H240.025ZM241.352 225.189H243.519C244.106 225.189 244.528 225.151 244.783 225.073C245.12 224.973 245.373 224.807 245.542 224.574C245.715 224.342 245.802 224.05 245.802 223.699C245.802 223.367 245.722 223.075 245.562 222.824C245.403 222.569 245.175 222.396 244.879 222.305C244.583 222.209 244.075 222.161 243.354 222.161H241.352V225.189ZM241.352 229.817H243.847C244.275 229.817 244.576 229.801 244.749 229.77C245.054 229.715 245.31 229.624 245.515 229.496C245.72 229.368 245.888 229.184 246.021 228.942C246.153 228.696 246.219 228.414 246.219 228.095C246.219 227.721 246.123 227.397 245.932 227.124C245.74 226.846 245.474 226.652 245.132 226.543C244.795 226.429 244.307 226.372 243.669 226.372H241.352V229.817ZM249.377 231V220.979H251.373L253.745 228.074C253.964 228.735 254.123 229.229 254.224 229.558C254.338 229.193 254.515 228.658 254.757 227.951L257.156 220.979H258.94V231H257.662V222.612L254.75 231H253.554L250.655 222.469V231H249.377ZM263.63 231V222.161H260.328V220.979H268.271V222.161H264.956V231H263.63ZM269.652 220.979H277.534V231H276.201V222.161H270.979V231H269.652V220.979Z" fill="white"/>
<path d="M1.12109 18V7.97852H2.44727V12.0938H7.65625V7.97852H8.98242V18H7.65625V13.2764H2.44727V18H1.12109ZM10.582 14.3701C10.582 13.0257 10.9557 12.0299 11.7031 11.3828C12.3275 10.8451 13.0885 10.5762 13.9863 10.5762C14.9844 10.5762 15.8001 10.9043 16.4336 11.5605C17.0671 12.2122 17.3838 13.1146 17.3838 14.2676C17.3838 15.2018 17.2425 15.9378 16.96 16.4756C16.682 17.0088 16.2741 17.4235 15.7363 17.7197C15.2031 18.016 14.6198 18.1641 13.9863 18.1641C12.9701 18.1641 12.1475 17.8382 11.5186 17.1865C10.8942 16.5348 10.582 15.596 10.582 14.3701ZM11.8467 14.3701C11.8467 15.2998 12.0495 15.9971 12.4551 16.4619C12.8607 16.9222 13.3711 17.1523 13.9863 17.1523C14.597 17.1523 15.1051 16.9199 15.5107 16.4551C15.9163 15.9902 16.1191 15.2816 16.1191 14.3291C16.1191 13.4313 15.9141 12.7523 15.5039 12.292C15.0983 11.8271 14.5924 11.5947 13.9863 11.5947C13.3711 11.5947 12.8607 11.8249 12.4551 12.2852C12.0495 12.7454 11.8467 13.4404 11.8467 14.3701ZM18.8398 10.7402H21.6768C22.374 10.7402 22.8913 10.7995 23.2285 10.918C23.5703 11.0319 23.862 11.2438 24.1035 11.5537C24.3496 11.8636 24.4727 12.235 24.4727 12.668C24.4727 13.0143 24.3997 13.3174 24.2539 13.5771C24.1126 13.8324 23.8984 14.0465 23.6113 14.2197C23.9531 14.3337 24.2357 14.5479 24.459 14.8623C24.6868 15.1722 24.8008 15.5413 24.8008 15.9697C24.7552 16.6579 24.5091 17.1683 24.0625 17.501C23.6159 17.8337 22.9665 18 22.1143 18H18.8398V10.7402ZM20.0703 13.7959H21.3828C21.9069 13.7959 22.2669 13.7686 22.4629 13.7139C22.6589 13.6592 22.8343 13.5498 22.9893 13.3857C23.1442 13.2171 23.2217 13.0166 23.2217 12.7842C23.2217 12.4014 23.085 12.1348 22.8115 11.9844C22.5426 11.834 22.0801 11.7588 21.4238 11.7588H20.0703V13.7959ZM20.0703 16.9883H21.6904C22.3877 16.9883 22.8662 16.9085 23.126 16.749C23.3857 16.585 23.5225 16.3047 23.5361 15.9082C23.5361 15.6758 23.4609 15.4616 23.3105 15.2656C23.1602 15.0651 22.9642 14.9398 22.7227 14.8896C22.4811 14.835 22.0938 14.8076 21.5605 14.8076H20.0703V16.9883ZM25.6484 14.3701C25.6484 13.0257 26.0221 12.0299 26.7695 11.3828C27.3939 10.8451 28.1549 10.5762 29.0527 10.5762C30.0508 10.5762 30.8665 10.9043 31.5 11.5605C32.1335 12.2122 32.4502 13.1146 32.4502 14.2676C32.4502 15.2018 32.3089 15.9378 32.0264 16.4756C31.7484 17.0088 31.3405 17.4235 30.8027 17.7197C30.2695 18.016 29.6862 18.1641 29.0527 18.1641C28.0365 18.1641 27.2139 17.8382 26.585 17.1865C25.9606 16.5348 25.6484 15.596 25.6484 14.3701ZM26.9131 14.3701C26.9131 15.2998 27.1159 15.9971 27.5215 16.4619C27.9271 16.9222 28.4375 17.1523 29.0527 17.1523C29.6634 17.1523 30.1715 16.9199 30.5771 16.4551C30.9827 15.9902 31.1855 15.2816 31.1855 14.3291C31.1855 13.4313 30.9805 12.7523 30.5703 12.292C30.1647 11.8271 29.6589 11.5947 29.0527 11.5947C28.4375 11.5947 27.9271 11.8249 27.5215 12.2852C27.1159 12.7454 26.9131 13.4404 26.9131 14.3701ZM38.6367 15.3408L39.8467 15.498C39.7145 16.332 39.375 16.986 38.8281 17.46C38.2858 17.9294 37.6182 18.1641 36.8252 18.1641C35.8317 18.1641 35.0319 17.8405 34.4258 17.1934C33.8242 16.5417 33.5234 15.6097 33.5234 14.3975C33.5234 13.6136 33.6533 12.9277 33.9131 12.3398C34.1729 11.752 34.5671 11.3122 35.0957 11.0205C35.6289 10.7243 36.2077 10.5762 36.832 10.5762C37.6204 10.5762 38.2653 10.7767 38.7666 11.1777C39.2679 11.5742 39.5892 12.1393 39.7305 12.873L38.5342 13.0576C38.4202 12.57 38.2174 12.2031 37.9258 11.957C37.6387 11.7109 37.29 11.5879 36.8799 11.5879C36.2601 11.5879 35.7565 11.8112 35.3691 12.2578C34.9818 12.6999 34.7881 13.4017 34.7881 14.3633C34.7881 15.3385 34.9749 16.0472 35.3486 16.4893C35.7223 16.9313 36.21 17.1523 36.8115 17.1523C37.2946 17.1523 37.6979 17.0042 38.0215 16.708C38.3451 16.4118 38.5501 15.9561 38.6367 15.3408ZM40.8994 10.7402H42.1299V16.2773L45.541 10.7402H46.8672V18H45.6367V12.4971L42.2256 18H40.8994V10.7402ZM54.0381 7.73926L55.125 7.75293C55.0749 8.24056 54.9655 8.58008 54.7969 8.77148C54.6328 8.96289 54.4186 9.08594 54.1543 9.14062C53.8945 9.19531 53.3818 9.22266 52.6162 9.22266C51.5999 9.22266 50.9072 9.32064 50.5381 9.5166C50.1689 9.71257 49.9023 10.027 49.7383 10.46C49.5788 10.8883 49.4899 11.4421 49.4717 12.1211C49.7816 11.6608 50.1439 11.3167 50.5586 11.0889C50.9733 10.8564 51.4404 10.7402 51.96 10.7402C52.9124 10.7402 53.7008 11.0684 54.3252 11.7246C54.9495 12.3763 55.2617 13.2604 55.2617 14.377C55.2617 15.2246 55.1045 15.9196 54.79 16.4619C54.4756 17.0042 54.1019 17.4235 53.6689 17.7197C53.2406 18.016 52.6549 18.1641 51.9121 18.1641C51.0508 18.1641 50.3809 17.9681 49.9023 17.5762C49.4238 17.1797 49.057 16.6738 48.8018 16.0586C48.5465 15.4434 48.4189 14.3724 48.4189 12.8457C48.4189 10.9271 48.7425 9.63509 49.3896 8.96973C50.0413 8.30436 51.0417 7.97168 52.3906 7.97168C53.2292 7.97168 53.7054 7.95801 53.8193 7.93066C53.9333 7.90332 54.0062 7.83952 54.0381 7.73926ZM53.9766 14.3428C53.9766 13.5863 53.7965 12.9665 53.4365 12.4834C53.0811 12.0003 52.5775 11.7588 51.9258 11.7588C51.2467 11.7588 50.7227 12.014 50.3535 12.5244C49.9844 13.0348 49.7998 13.7161 49.7998 14.5684C49.7998 15.4115 50.0026 16.0563 50.4082 16.5029C50.8184 16.9495 51.3219 17.1729 51.9189 17.1729C52.5296 17.1729 53.0241 16.9154 53.4023 16.4004C53.7852 15.8809 53.9766 15.195 53.9766 14.3428ZM56.7451 10.7402H57.9756V16.2773L61.3867 10.7402H62.7129V18H61.4824V12.4971L58.0713 18H56.7451V10.7402ZM64.5654 20.7822V10.7402H65.6865V11.6836C65.9508 11.3145 66.2493 11.0387 66.582 10.8564C66.9147 10.6696 67.318 10.5762 67.792 10.5762C68.4118 10.5762 68.9587 10.7357 69.4326 11.0547C69.9066 11.3737 70.2643 11.8249 70.5059 12.4082C70.7474 12.987 70.8682 13.6227 70.8682 14.3154C70.8682 15.0583 70.7337 15.7282 70.4648 16.3252C70.2005 16.9176 69.8132 17.3734 69.3027 17.6924C68.7969 18.0068 68.2637 18.1641 67.7031 18.1641C67.293 18.1641 66.9238 18.0775 66.5957 17.9043C66.2721 17.7311 66.0055 17.5124 65.7959 17.248V20.7822H64.5654ZM65.6797 14.4111C65.6797 15.3454 65.8688 16.0358 66.2471 16.4824C66.6253 16.929 67.0833 17.1523 67.6211 17.1523C68.168 17.1523 68.6351 16.9222 69.0225 16.4619C69.4144 15.9971 69.6104 15.2793 69.6104 14.3086C69.6104 13.3835 69.4189 12.6908 69.0361 12.2305C68.6579 11.7702 68.2044 11.54 67.6758 11.54C67.1517 11.54 66.6868 11.7861 66.2812 12.2783C65.8802 12.766 65.6797 13.4769 65.6797 14.4111ZM77.0957 15.3408L78.3057 15.498C78.1735 16.332 77.834 16.986 77.2871 17.46C76.7448 17.9294 76.0771 18.1641 75.2842 18.1641C74.2907 18.1641 73.4909 17.8405 72.8848 17.1934C72.2832 16.5417 71.9824 15.6097 71.9824 14.3975C71.9824 13.6136 72.1123 12.9277 72.3721 12.3398C72.6318 11.752 73.026 11.3122 73.5547 11.0205C74.0879 10.7243 74.6667 10.5762 75.291 10.5762C76.0794 10.5762 76.7243 10.7767 77.2256 11.1777C77.7269 11.5742 78.0482 12.1393 78.1895 12.873L76.9932 13.0576C76.8792 12.57 76.6764 12.2031 76.3848 11.957C76.0977 11.7109 75.749 11.5879 75.3389 11.5879C74.7191 11.5879 74.2155 11.8112 73.8281 12.2578C73.4408 12.6999 73.2471 13.4017 73.2471 14.3633C73.2471 15.3385 73.4339 16.0472 73.8076 16.4893C74.1813 16.9313 74.6689 17.1523 75.2705 17.1523C75.7536 17.1523 76.1569 17.0042 76.4805 16.708C76.804 16.4118 77.0091 15.9561 77.0957 15.3408ZM79.3516 10.7402H80.582V13.8779C80.974 13.8779 81.2474 13.8027 81.4023 13.6523C81.5618 13.502 81.7943 13.0645 82.0996 12.3398C82.3411 11.7656 82.5371 11.3874 82.6875 11.2051C82.8379 11.0228 83.0111 10.8997 83.207 10.8359C83.403 10.7721 83.7174 10.7402 84.1504 10.7402H84.3965V11.7588L84.0547 11.752C83.7311 11.752 83.5238 11.7998 83.4326 11.8955C83.3369 11.9958 83.1911 12.2943 82.9951 12.791C82.8083 13.265 82.6374 13.5931 82.4824 13.7754C82.3275 13.9577 82.0882 14.124 81.7646 14.2744C82.2933 14.4157 82.8128 14.9079 83.3232 15.751L84.6699 18H83.3164L82.0039 15.751C81.735 15.2998 81.5003 15.0036 81.2998 14.8623C81.0993 14.7165 80.86 14.6436 80.582 14.6436V18H79.3516V10.7402Z" fill="white"/>
<g filter="url(#filter1_d_5088_63180)">
<circle cx="45" cy="27" r="2" fill="#0C99CF"/>
<circle cx="45" cy="27" r="2.5" stroke="white"/>
</g>
<defs>
<filter id="filter0_d_5088_63180" x="279.163" y="234.388" width="13.6731" height="13.6731" filterUnits="userSpaceOnUse" color-interpolation-filters="sRGB">
<feFlood flood-opacity="0" result="BackgroundImageFix"/>
<feColorMatrix in="SourceAlpha" type="matrix" values="0 0 0 0 0 0 0 0 0 0 0 0 0 0 0 0 0 0 127 0" result="hardAlpha"/>
<feOffset dy="1.22437"/>
<feGaussianBlur stdDeviation="0.918278"/>
<feColorMatrix type="matrix" values="0 0 0 0 0 0 0 0 0 0 0 0 0 0 0 0 0 0 0.2 0"/>
<feBlend mode="normal" in2="BackgroundImageFix" result="effect1_dropShadow_5088_63180"/>
<feBlend mode="normal" in="SourceGraphic" in2="effect1_dropShadow_5088_63180" result="shape"/>
</filter>
<filter id="filter1_d_5088_63180" x="40.1634" y="23.3878" width="9.67311" height="9.67311" filterUnits="userSpaceOnUse" color-interpolation-filters="sRGB">
<feFlood flood-opacity="0" result="BackgroundImageFix"/>
<feColorMatrix in="SourceAlpha" type="matrix" values="0 0 0 0 0 0 0 0 0 0 0 0 0 0 0 0 0 0 127 0" result="hardAlpha"/>
<feOffset dy="1.22437"/>
<feGaussianBlur stdDeviation="0.918278"/>
<feColorMatrix type="matrix" values="0 0 0 0 0 0 0 0 0 0 0 0 0 0 0 0 0 0 0.2 0"/>
<feBlend mode="normal" in2="BackgroundImageFix" result="effect1_dropShadow_5088_63180"/>
<feBlend mode="normal" in="SourceGraphic" in2="effect1_dropShadow_5088_63180" result="shape"/>
</filter>
</defs>
</svg>
