<svg width="130" height="57" viewBox="0 0 130 57" fill="none" xmlns="http://www.w3.org/2000/svg">
<g clip-path="url(#clip0_4637_47026)">
<path fill-rule="evenodd" clip-rule="evenodd" d="M36.2554 26.9116C36.2528 26.675 36.2382 26.4221 36.2138 26.162C36.1512 25.4918 36.029 24.7849 35.9004 24.1959C34.7119 23.8126 33.4337 23.4575 32.1172 23.1731C28.9972 22.5003 25.6132 22.3208 22.9637 22.5769L23.6025 21.2889C30.3955 20.8008 36.7543 22.1773 42.9125 25.5652C43.9683 26.1463 45.1449 26.637 46.2304 27.249C47.3443 28.0581 44.9272 36.1003 51.0325 33.6729C52.4176 33.0433 53.2808 34.0601 52.343 34.807C47.5199 36.0237 35.4358 25.2566 21.8828 24.7567L22.1151 24.2889C26.9112 24.1317 31.8328 25.14 36.2554 26.9116ZM38.1855 25.004C38.2344 25.3237 38.2759 25.6513 38.3056 25.9743C38.3663 26.6321 38.3801 27.2741 38.3128 27.8068C38.8949 28.0813 39.4671 28.3696 40.0253 28.669C40.127 27.6181 40.0392 26.5973 39.766 25.6532C39.2816 25.4416 38.7524 25.2228 38.1855 25.004Z" fill="#004373"/>
<path fill-rule="evenodd" clip-rule="evenodd" d="M32.6728 17.4001C32.7685 17.9085 32.8523 18.4654 32.9031 19.0072C32.9638 19.6637 32.975 20.2992 32.8998 20.8083L31.8578 20.657C31.9218 20.2278 31.9106 19.6768 31.8571 19.1015C31.7984 18.468 31.6882 17.8043 31.5681 17.233C29.6656 16.9781 27.7275 16.8937 25.7656 16.929L26.3727 15.7051C28.2389 15.6632 30.0965 15.7576 31.9146 16.1211C32.8444 11.9222 34.9462 4.29007 35.8759 0.0910689L36.4316 0L35.6318 4.06731C40.9994 3.45472 41.8474 9.77778 48.1005 8.95161C41.5623 11.8134 39.5443 5.70852 34.8418 8.08548L33.202 16.3478C37.4643 17.2075 39.2559 18.0933 41.912 19.3329C42.7052 20.0679 43.1605 21.6567 43.4061 24.5035C40.8944 23.3287 40.3903 22.8406 37.717 22.0138C37.8286 20.2671 37.6161 19.357 37.3871 18.6351C36.9964 18.4929 36.6031 18.3612 36.2079 18.2387C36.2771 18.6495 36.3359 19.0806 36.3755 19.5026C36.4394 20.1983 36.4514 20.8771 36.3695 21.4261L34.2863 21.1234C34.3443 20.7355 34.3331 20.2264 34.2836 19.6912C34.2182 18.9915 34.0882 18.2512 33.953 17.6477C33.528 17.5553 33.1017 17.4734 32.6728 17.4001Z" fill="#004373"/>
<path fill-rule="evenodd" clip-rule="evenodd" d="M2.73438 47.2842C6.73732 49.1645 10.9158 49.9186 15.3173 50.0058C20.2421 50.104 25.485 49.3696 31.0803 48.4399C36.1312 47.6006 41.5919 47.8601 46.8347 48.5762C51.491 49.2117 55.9374 50.1964 59.7727 51.0907L58.8918 53.034C55.1719 52.1711 50.9149 51.2395 46.5543 50.6446C41.4942 49.9534 36.2434 49.7005 31.4261 50.4998C25.7351 51.4452 20.388 52.1921 15.2764 52.0905C11.3724 52.0126 7.6262 51.4393 4.00402 50.085L2.73438 47.2842Z" fill="#FBB040"/>
<path fill-rule="evenodd" clip-rule="evenodd" d="M4.85938 51.9632C8.21298 53.2008 11.6913 53.725 15.3214 53.7977C20.2462 53.8953 25.4891 53.1609 31.0844 52.2312C36.1359 51.3925 41.5959 51.6513 46.8388 52.3674C50.8781 52.9191 54.7589 53.7335 58.2208 54.523L57.3391 56.4688C54.008 55.7147 50.3224 54.9501 46.5584 54.4358C41.4983 53.7453 36.2474 53.4917 31.4301 54.2917C25.7393 55.2371 20.3927 55.984 15.2805 55.8818C12.0991 55.8189 9.02202 55.4264 6.03202 54.5505L4.85938 51.9632Z" fill="#004373"/>
<path fill-rule="evenodd" clip-rule="evenodd" d="M1.59498 44.7663C6.53167 47.4918 14.3733 49.3741 31.5616 46.2732C40.4326 44.6713 52.0099 46.9107 60.6295 49.2058L61.7144 46.8124C55.3813 43.9958 50.3496 42.7648 53.3733 41.2618L57.0687 37.6164L54.9999 36.0472C45.2076 38.9182 35.6523 24.8222 18.0958 25.3568V16.3128C18.0958 16.0593 17.8865 15.8516 17.6312 15.8516C17.3758 15.8516 17.1666 16.0593 17.1666 16.3128V25.3994C13.749 25.6018 10.0338 26.3598 5.96021 27.8988L6.98304 33.0217C26.6968 25.0469 38.0656 43.3059 53.8424 37.9217C50.77 40.4362 42.4024 40.4042 36.406 37.581C27.3653 33.325 15.5201 30.0839 7.33346 34.294L12.5394 39.8315C7.7901 41.723 4.75457 41.9674 0 41.2467L1.59498 44.7663Z" fill="#004373"/>
<path fill-rule="evenodd" clip-rule="evenodd" d="M80.1519 28.2359H70V40.6953H72.2027V30.1254H77.9491V40.6953H80.1519V28.2359ZM88.171 27.9385C84.329 27.9385 82.1085 30.8081 82.1085 34.4653C82.1085 38.3505 84.5402 40.9928 88.136 40.9928C91.7139 40.9928 94.1635 38.3505 94.1635 34.4653C94.1635 30.5978 91.7139 27.9385 88.171 27.9385ZM88.1359 29.7754C90.4627 29.7754 91.9429 31.5955 91.9429 34.4474C91.9429 37.3001 90.4627 39.1549 88.1709 39.1549C85.8097 39.1549 84.3289 37.3348 84.3289 34.4304C84.3289 31.6132 85.8275 29.7754 88.1359 29.7754ZM96.1907 28.2359V40.6953H98.394V35.9001H101.936C104.474 35.9001 106.008 34.3952 106.008 32.0333C106.008 29.4257 104.228 28.2359 101.637 28.2359H96.1907ZM98.3944 30.0553H101.267C102.659 30.0553 103.858 30.4759 103.858 32.085C103.858 33.5552 102.889 34.1324 101.461 34.1324H98.3944V30.0553ZM116.918 28.2359H106.713V30.1254H110.714V40.6953H112.917V30.1254H116.918V28.2359ZM123.457 27.9385C119.615 27.9385 117.394 30.8081 117.394 34.4653C117.394 38.3505 119.827 40.9928 123.422 40.9928C127 40.9928 129.45 38.3505 129.45 34.4653C129.45 30.5978 127 27.9385 123.457 27.9385ZM123.422 29.7754C125.749 29.7754 127.229 31.5955 127.229 34.4474C127.229 37.3001 125.749 39.1549 123.457 39.1549C121.096 39.1549 119.616 37.3348 119.616 34.4304C119.616 31.6132 121.113 29.7754 123.422 29.7754Z" fill="#004373"/>
<path fill-rule="evenodd" clip-rule="evenodd" d="M93.4939 49.8901C93.4939 46.723 91.0086 45.0254 88.0827 44.9206V43.7124H85.8799V44.9206C83.0067 45.0077 80.4688 46.723 80.4688 49.8901C80.4688 53.1449 83.2007 54.7194 85.8799 54.7724V56.1725H88.0827V54.7724C90.7796 54.7194 93.4939 53.1449 93.4939 49.8901ZM91.2912 49.8905C91.2912 51.9209 90.0037 52.6553 88.0827 52.8827V46.8105C89.9865 47.0032 91.2912 47.8601 91.2912 49.8905ZM85.8802 52.8827C83.9586 52.6553 82.6725 51.9209 82.6725 49.8905C82.6725 47.8601 83.9764 47.0032 85.8802 46.8105V52.8827ZM104.774 56.1725V43.7124H96.5783L96.3314 50.9403C96.2259 54.1074 95.5383 54.6322 94.6395 54.6322C94.4633 54.6322 94.0403 54.5975 93.7757 54.492V56.1725C94.0931 56.2773 94.6045 56.3999 95.0981 56.3999C96.8957 56.3999 98.3231 55.0168 98.4643 51.5352L98.6932 45.6026H102.571V56.1725H104.774ZM112.775 43.415C108.933 43.415 106.712 46.2853 106.712 49.9425C106.712 53.8277 109.145 56.47 112.74 56.47C116.318 56.47 118.768 53.8277 118.768 49.9425C118.768 46.0757 116.318 43.415 112.775 43.415ZM112.74 45.2535C115.066 45.2535 116.548 47.0736 116.548 49.9262C116.548 52.7782 115.066 54.633 112.775 54.633C110.414 54.633 108.933 52.813 108.933 49.9079C108.933 47.0913 110.431 45.2535 112.74 45.2535ZM129.449 43.7124H119.245V45.6026H123.245V56.1725H125.448V45.6026H129.449V43.7124Z" fill="#004373"/>
</g>
<defs>
<clipPath id="clip0_4637_47026">
<rect width="130" height="57" fill="white"/>
</clipPath>
</defs>
</svg>
