<svg width="259" height="54" viewBox="0 0 259 54" fill="none" xmlns="http://www.w3.org/2000/svg">
<g clip-path="url(#clip0_4637_47160)">
<path d="M57.0407 54.0003H37.814L43.1667 39.5918L23.569 39.635L18.2163 54.0003H0L14.2329 14.2793H32.893L27.8857 27.6929H47.8287L52.836 14.2793H71.5245L57.0407 54.0003Z" fill="#F14842"/>
<path d="M125.919 54.0003H108.909L115.772 35.6538L100.837 54.0003H90.4766L89.3111 35.3946L82.7498 54.0003H65.7812L80.0141 14.2793H101.614L103.513 32.6258L117.369 14.2793H140.403L125.919 54.0003Z" fill="#F14842"/>
<path d="M194.552 54.0003H177.542L184.405 35.6538L169.469 54.0003H159.109L157.944 35.3946L151.383 54.0003H134.414L148.647 14.2793H170.246L172.146 32.6258L186.002 14.2793H209.036L194.552 54.0003Z" fill="#F14842"/>
<path d="M255.51 7.5168C255.51 7.5168 247.868 7.5303 242.426 7.44255C237.699 7.36695 232.669 11.5506 229.864 14.2789C227.663 16.4214 224.49 22.2102 217.497 22.2102C210.85 22.2102 206.148 22.2102 206.148 22.2102L209.041 14.2789C209.041 14.2789 222.805 14.6394 225.936 14.2789C228.569 13.9766 233.486 7.857 234.935 6.1101C239.75 0.3024 243.332 0 244.196 0C245.059 0 259.002 0 259.002 0L255.51 7.5168Z" fill="#F14842"/>
<path d="M250.913 18.0135C250.913 18.0135 243.271 18.027 237.83 17.9392C233.103 17.8636 228.739 20.808 225.934 23.5363C223.733 25.6788 219.894 32.7069 212.901 32.7069C206.253 32.7069 202.305 32.7069 202.305 32.7069L205.197 24.7756C205.197 24.7756 217.174 25.1833 220.304 24.8242C222.937 24.5218 228.89 18.355 230.339 16.6081C235.153 10.8004 239.599 10.498 240.463 10.498C241.326 10.498 254.406 10.498 254.406 10.498L250.913 18.0135Z" fill="#F14842"/>
<path d="M246.448 28.5545C246.448 28.5545 238.806 28.568 233.364 28.4803C228.637 28.4047 224.253 29.9788 221.449 32.7085C219.247 34.8509 215.19 42.77 206.945 42.77C200.297 42.77 198.641 42.8065 198.641 42.8065L201.216 35.7325C201.216 35.7325 211.368 36.0551 214.499 35.696C217.132 35.3936 223.41 28.9636 224.859 27.2167C229.673 21.409 234.271 21.0391 235.134 21.0391C235.997 21.0391 249.94 21.0391 249.94 21.0391L246.448 28.5545Z" fill="#3A4779"/>
<path d="M242.045 39.2006C242.045 39.2006 232.522 39.2883 227.081 39.2006C222.354 39.125 218.554 41.447 215.75 44.1767C213.548 46.3191 207.85 53.9993 200.857 53.9993C194.21 53.9993 194.558 53.9993 194.558 53.9993L197.32 46.4231C197.32 46.4231 206.403 46.7835 209.534 46.4231C212.167 46.1207 218.273 38.9589 219.721 37.212C224.536 31.4043 229.509 31.9241 230.373 31.9241C231.236 31.9241 245.179 31.9241 245.179 31.9241L242.045 39.2006Z" fill="#3A4779"/>
</g>
<defs>
<clipPath id="clip0_4637_47160">
<rect width="259" height="54" fill="white"/>
</clipPath>
</defs>
</svg>
