<svg width="292" height="48" viewBox="0 0 292 48" fill="none" xmlns="http://www.w3.org/2000/svg">
<g clip-path="url(#clip0_4637_47170)">
<path d="M52.9765 21.6147C52.9116 23.1042 52.8678 24.355 52.5005 26.0604C52.1969 27.4411 51.8084 28.5423 51.0938 29.7296H57.7576V18.4199H53.1065L52.9765 21.6147Z" fill="#F15140"/>
<path d="M166.316 26.9455C165.668 27.3775 165.516 27.9591 165.516 28.4137C165.516 29.0603 165.819 29.4711 166.1 29.6871C166.511 30.0104 167.096 30.1615 167.679 30.1615C168.502 30.1615 169.366 29.8594 169.907 29.2975C170.276 28.9093 170.643 28.2613 170.643 27.3337V26.3836C170.253 26.3624 169.865 26.3398 169.475 26.3398C167.874 26.3413 166.922 26.5347 166.316 26.9455Z" fill="#F15140"/>
<path d="M88.1751 22.0879C87.0931 22.0879 86.1638 22.6484 85.579 23.3825C84.9943 24.1378 84.7344 25.1528 84.7344 26.1241C84.7344 27.2465 85.0592 28.1966 85.579 28.8658C86.466 30.0531 87.6779 30.1604 88.1751 30.1604C88.6722 30.1604 89.8841 30.0517 90.7711 28.8658C91.2895 28.1966 91.6143 27.2465 91.6143 26.1241C91.6143 25.0018 91.2895 24.0517 90.7711 23.3825C90.1002 22.4973 89.127 22.0879 88.1751 22.0879Z" fill="#F15140"/>
<path d="M0 0V48H292V0H0ZM24.6371 23.9873C23.3391 25.4979 21.2628 25.584 20.3108 25.584H18.1908V31.6264H16.0269V16.5205H19.986C21.1329 16.5205 22.8843 16.6504 24.1399 17.6216C24.8758 18.1821 25.6541 19.1972 25.6541 20.9887C25.6541 22.3468 25.1781 23.3619 24.6371 23.9873ZM43.8915 31.6278L38.6767 24.5492H37.5948V31.6278H35.431V24.5492H34.3504L29.1357 31.6278H26.3236L32.5538 23.664L26.8631 16.5205H29.4154L34.3702 22.8664H35.4296V16.5205H37.5934V22.8664H38.6753L43.6076 16.5205H46.1598L40.4691 23.664L46.6994 31.6278H43.8915ZM61.6514 34.9948H59.5314V31.6278H49.818V34.9948H47.698V29.7289H48.9748C50.013 27.9586 50.424 26.3831 50.5977 25.5628C50.7926 24.6339 50.9875 23.1882 51.0737 20.3831L51.1825 16.5205H59.9226V29.7289H61.6528V34.9948H61.6514ZM79.5428 31.6278H77.3789V18.4193H72.5978L72.5117 22.1308C72.4905 23.4254 72.4679 24.1807 72.3605 26.0809C72.2518 27.8287 72.1006 29.5553 71.2362 30.6776C70.5879 31.5191 69.7433 31.8438 68.6402 31.8438C68.1416 31.8438 67.7306 31.7576 67.4495 31.6715L67.5145 29.7939C67.7532 29.8588 68.0342 29.9238 68.2715 29.9238C69.4184 29.9238 69.8294 29.2546 70.0455 28.5431C70.1755 28.0899 70.3054 27.3769 70.4354 25.0038C70.4792 24.2273 70.5653 22.0249 70.5653 21.4856L70.6303 16.5219H79.5428V31.6278ZM92.3493 30.0734C91.6134 30.8936 90.2716 31.8 88.1742 31.8C86.0753 31.8 84.7349 30.8936 83.999 30.0734C83.0258 28.9948 82.571 27.5266 82.571 26.1233C82.571 24.72 83.0258 23.2532 83.999 22.1732C84.7335 21.3529 86.0753 20.4466 88.1742 20.4466C90.273 20.4466 91.6134 21.3529 92.3493 22.1732C93.3225 23.2518 93.7773 24.72 93.7773 26.1233C93.7773 27.5266 93.3225 28.9948 92.3493 30.0734ZM103.751 22.3468H98.5372V31.6278H96.5033V20.6202H103.751V22.3468ZM115.584 31.6278H113.55V23.3181L107.623 31.6278H105.59V20.6202H107.623V28.9299L113.55 20.6202H115.584V31.6278ZM123.934 31.8C120.602 31.8 118.31 29.7925 118.31 26.0372C118.31 24.5915 118.786 22.9073 120.214 21.7214C121.21 20.9012 122.529 20.448 123.934 20.448C124.366 20.448 125.32 20.4918 126.4 20.88L126.227 22.5628C125.535 22.2607 124.669 22.0885 124.02 22.0885C123.242 22.0885 122.376 22.3906 121.749 22.9299C120.971 23.6202 120.474 24.8513 120.474 26.1247C120.474 27.0748 120.734 28.1534 121.317 28.8875C121.902 29.6005 122.919 30.1609 124.152 30.1609C125.104 30.1609 125.84 29.8588 126.337 29.5355L126.488 31.3482C125.838 31.6278 125.081 31.8 123.934 31.8ZM137.217 22.2607H133.388V31.6278H131.354V22.2607H127.525V20.6202H137.215L137.217 22.2607ZM149.159 31.6278H147.125V23.3181L141.197 31.6278H139.163V20.6202H141.197V28.9299L147.125 20.6202H149.159V31.6278ZM159.933 31.6278L155.802 26.8151H154.655V31.6278H152.621V20.6202H154.655V25.0885H156.018L159.739 20.6202H162.292L157.597 25.8649L162.703 31.6278H159.933ZM170.857 31.6278V30.1384H170.813C169.905 31.368 168.456 31.8 167.2 31.8C166.204 31.8 165.21 31.4979 164.562 31.0235C163.912 30.5492 163.35 29.7501 163.35 28.5205C163.35 27.7652 163.61 26.4056 165.08 25.5854C165.6 25.2833 166.747 24.8513 169.255 24.8513C169.643 24.8513 170.272 24.8725 170.639 24.8951V24.2908C170.639 23.8588 170.618 23.2122 169.99 22.6715C169.362 22.1322 168.497 22.0885 167.978 22.0885C166.854 22.0885 165.642 22.3694 164.841 22.8649L164.583 21.0734C165.795 20.5991 167.634 20.448 168.389 20.448C169.773 20.448 170.92 20.8151 171.635 21.5266C172.608 22.4979 172.673 23.7501 172.673 24.9374V29.4042C172.673 29.9012 172.673 31.0885 172.759 31.6278H170.857ZM222.077 31.6151L228.224 23.4508C228.697 22.8127 229.251 22.0376 228.858 21.1638C228.46 20.2998 227.433 20.2998 226.649 20.2998H219.243V39.1638H211.676V20.2984H207.898V19.1958C207.898 18.5689 207.898 17.7826 208.521 17.1544C209.156 16.5247 209.945 16.5247 210.573 16.5247H226.415C228.46 16.5247 229.956 16.5247 231.217 17.1544C232.479 17.7812 233.423 19.0447 234.368 20.2984L235.309 21.5562C235.986 22.4499 236.498 23.1275 236.498 24.0734C236.498 25.0136 235.953 25.7421 235.309 26.5835L231.542 31.6136L222.077 31.6151ZM233.425 31.6151L244.774 16.5275H254.236L242.874 31.6151H233.425ZM275.973 22.1816C275.973 23.4494 275.973 26.904 273.607 29.2602C271.241 31.6151 267.705 31.6151 265.337 31.6151H261.237C259.192 31.6151 257.7 31.6151 256.431 30.9925C255.178 30.36 254.236 29.1049 253.278 27.8485L252.336 26.5864C251.659 25.6984 251.154 25.0165 251.154 24.0762C251.154 23.1304 251.707 22.4089 252.336 21.5591L256.116 16.5289H265.57L259.428 24.7045C258.953 25.3313 258.401 26.1191 258.795 26.9845C259.191 27.8499 260.216 27.8499 261.004 27.8499H265.57C266.199 27.8499 267.147 27.8499 267.781 27.2188C268.408 26.5864 268.408 25.6447 268.408 25.0179V15.5873C268.408 14.9562 268.408 14.0146 267.781 13.3821C267.147 12.7581 266.199 12.7581 265.57 12.7581H256.116V11.6569C256.116 11.0245 256.116 10.2409 256.747 9.61271C257.383 8.97882 258.164 8.97882 258.796 8.97882H265.337C267.705 8.97882 271.243 8.97882 273.607 11.3421C275.973 13.6941 275.973 17.1558 275.973 18.4193V22.1816Z" fill="#F15140"/>
<path d="M22.3627 19.0665C21.5844 18.506 20.696 18.4199 20.0265 18.4199H18.1875V23.6858H20.3288C21.1508 23.6858 22.0802 23.426 22.6225 22.9305C22.9686 22.6072 23.3584 22.003 23.3584 21.074C23.357 20.1663 23.011 19.5409 22.3627 19.0665Z" fill="#F15140"/>
</g>
<defs>
<clipPath id="clip0_4637_47170">
<rect width="292" height="48" fill="white"/>
</clipPath>
</defs>
</svg>
