<svg width="285" height="61" viewBox="0 0 285 61" fill="none" xmlns="http://www.w3.org/2000/svg">
<path d="M90.3239 4.84569C88.5042 5.51419 86.85 7.18542 86.3537 8.85665C85.692 11.5306 87.1808 13.5361 90.8202 14.3717C92.8053 14.8731 94.1287 15.5416 94.1287 16.3772C94.1287 17.3799 93.467 18.0484 91.9782 18.3827C90.6548 18.5498 89.1659 17.5471 89.1659 16.3772C89.1659 15.7087 89.0005 15.7087 86.85 15.7087C85.5266 15.7087 84.534 16.043 84.3686 16.043C83.8723 16.5443 84.6994 19.0512 85.5266 19.8868C87.6771 22.5608 95.1213 22.0594 97.7681 19.2183C98.9261 17.8813 99.7532 15.8758 99.5878 14.3717C99.0915 12.3662 97.4373 11.0293 93.467 10.1936C90.9856 9.52515 90.4894 8.35528 92.4745 7.68679C93.6325 7.18542 94.9559 7.85391 95.2867 8.68953C95.4521 9.35802 95.783 9.35802 97.9335 9.35802L100.415 9.52515L99.9187 8.35528C99.7532 6.68405 98.9261 5.68131 97.6027 5.01282C96.1139 4.51145 92.1436 4.34432 90.3239 4.84569Z" fill="#28348B"/>
<path d="M169.895 4.84707C165.429 6.51831 162.782 10.6964 163.278 16.0443C163.609 19.8882 165.76 21.5594 170.557 21.5594C174.031 21.5594 176.181 20.7238 178.001 18.2169C180.483 15.2087 181.31 9.19228 179.821 6.85255C178.663 5.18132 176.347 4.3457 173.7 4.3457C172.377 4.51283 170.722 4.84707 169.895 4.84707ZM175.023 9.3594C175.851 10.5293 175.851 11.0306 175.354 13.5375C174.693 16.2115 173.204 17.8827 171.219 17.8827C170.226 17.8827 169.564 17.5484 169.068 17.0471C168.406 16.3786 168.406 15.8772 168.406 14.206C168.737 10.5293 170.392 8.52379 172.873 8.52379C173.865 8.52379 174.362 8.69091 175.023 9.3594Z" fill="#28348B"/>
<path d="M229.94 4.84744C225.474 6.51867 223.158 10.0283 222.992 15.042C222.992 18.7187 224.977 21.0584 228.617 21.5598C234.076 22.2283 238.377 19.5543 239.866 14.5406C241.355 10.0283 240.362 6.68579 237.384 5.01456C235.73 4.34607 232.091 4.17894 229.94 4.84744ZM234.737 9.19264C236.061 10.6968 235.234 15.5433 233.083 17.2146C231.925 18.2173 229.775 18.2173 228.617 17.2146C227.293 15.8776 227.955 11.3652 229.775 9.52689C231.429 8.1899 233.745 8.02278 234.737 9.19264Z" fill="#28348B"/>
<path d="M115.303 5.18021C115.303 5.51446 114.641 8.85692 113.814 12.7008C112.987 16.5446 112.325 20.0542 112.325 20.5556C112.16 21.3912 112.16 21.3912 114.807 21.224L117.453 21.0569L118.777 13.8706C119.439 10.0268 120.266 6.35007 120.431 5.51446L120.597 4.51172H118.115C116.295 4.84597 115.468 4.84597 115.303 5.18021Z" fill="#28348B"/>
<path d="M134.987 5.68194C134.821 6.18331 134.325 9.6929 133.498 13.5367C132.671 17.3806 132.174 20.723 132.009 21.0573C131.843 21.3915 132.505 21.5587 134.325 21.5587H136.806L137.633 17.0463L138.295 12.534L140.446 17.0463L142.596 21.5587H145.078H147.559L149.379 13.3696C150.206 8.85728 150.867 5.18057 150.867 5.01345C150.867 4.84632 149.875 4.6792 148.552 4.6792C145.905 4.6792 146.236 4.17783 145.243 9.35865C144.912 11.3641 144.581 12.8682 144.416 13.0354C144.25 13.2025 143.258 11.3641 142.1 9.02441L140.115 4.6792H137.799C135.483 4.84632 135.152 4.84632 134.987 5.68194Z" fill="#28348B"/>
<path d="M195.867 4.84681C195.867 5.01393 193.055 20.055 192.724 20.7235C192.558 21.392 192.889 21.392 195.205 21.392H197.852L198.183 19.3865C198.514 17.7153 198.679 17.3811 200.168 16.0441C200.995 15.2085 201.988 14.54 201.988 14.54C201.988 14.54 202.649 16.2112 202.98 17.8824L203.973 21.2249L207.281 21.392C210.921 21.5591 210.755 22.0605 207.943 15.5427L205.958 11.0304L209.432 7.85503L212.906 4.67969H209.597H206.289L203.146 7.68791C201.491 9.35914 200.002 10.6961 199.837 10.6961C199.672 10.6961 199.837 9.69339 200.168 8.18928C200.83 4.67969 200.995 4.84681 198.183 4.84681C197.025 4.84681 195.867 4.84681 195.867 4.84681Z" fill="#28348B"/>
<path d="M255.746 4.8457C255.746 4.8457 255.084 8.68954 254.092 13.369L252.438 21.7252H255.084H257.731L258.393 18.3827C258.724 16.3772 259.055 15.0402 259.385 15.0402C260.378 15.0402 261.205 16.043 262.032 18.8841L263.025 21.8923L266.002 22.0594L268.98 22.2265L268.153 19.3854C267.657 17.7142 266.83 16.043 266.333 15.7087L265.506 14.8731L266.995 14.2046C269.973 12.5334 270.965 8.52242 268.98 6.68406C268.318 6.01557 267.822 6.01557 261.867 5.84844C258.724 4.8457 255.746 4.8457 255.746 4.8457ZM264.514 8.52241C265.175 9.19091 265.175 9.8594 264.348 10.695C263.852 11.1964 263.356 11.3635 261.867 11.3635H259.882L260.213 10.0265C260.378 9.35803 260.543 8.52242 260.709 8.35529C260.709 7.85392 263.852 8.02105 264.514 8.52241Z" fill="#28348B"/>
<path d="M110.503 28.7443C109.014 30.4156 109.014 30.7498 110.172 31.5854C111.165 32.4211 111.33 33.0895 110.338 33.0895C109.841 33.0895 109.676 33.4238 109.676 33.758C109.676 34.0923 110.007 34.4265 110.338 34.4265C110.999 34.4265 110.999 34.5937 110.999 35.4293C110.999 36.0978 110.834 36.0978 110.834 35.7635C110.669 35.095 109.841 34.9279 109.511 35.4293C109.014 35.9306 109.841 37.4348 110.338 37.4348C110.669 37.4348 110.834 37.6019 110.669 37.769C110.503 37.9361 110.007 38.1032 109.841 38.1032C109.18 38.1032 109.014 38.7717 109.345 39.4402C109.511 39.7745 110.007 39.7745 111.661 39.2731C113.15 38.7717 113.812 38.7717 113.812 39.106C113.812 39.2731 114.473 39.6074 114.804 39.6074C115.466 39.6074 115.631 39.4402 115.631 37.6019C115.631 36.0978 115.797 35.5964 116.293 35.5964C116.789 35.5964 116.955 36.0978 116.955 37.769C116.955 39.7745 116.955 39.9416 117.782 39.9416C118.444 39.9416 118.609 39.7745 118.609 39.106C118.609 38.4375 118.609 38.4375 119.105 38.9389C119.602 39.6074 120.594 39.7745 121.09 39.106C121.421 38.7717 121.587 37.6019 121.587 36.432V34.2594H120.098C119.436 34.2594 118.609 34.0923 118.609 33.9252C118.609 33.758 119.105 33.5909 119.602 33.5909H120.594V31.0841V28.5772H119.271C118.444 28.5772 118.113 28.4101 118.278 27.9087C118.444 27.4074 118.278 27.2402 117.616 27.2402C116.955 27.2402 116.789 27.4074 116.789 27.9087C116.789 28.243 116.458 28.5772 115.797 28.5772C115.135 28.5772 114.804 28.7443 114.804 29.2457C114.804 30.0813 114.142 29.9142 113.315 28.5772C112.654 27.0731 111.827 27.0731 110.503 28.7443ZM112.985 30.0813C113.481 30.5827 113.315 30.7498 112.488 30.7498C111.661 30.7498 111.33 30.4156 111.827 29.9142C111.992 29.4128 112.488 29.58 112.985 30.0813ZM119.105 30.0813C118.609 30.0813 117.782 30.0813 117.286 30.0813C116.624 30.0813 117.12 29.9142 117.947 29.9142C119.105 29.9142 119.436 30.0813 119.105 30.0813ZM115.135 31.9197C115.135 33.5909 115.135 33.5909 116.128 33.5909C116.789 33.5909 117.12 33.758 117.12 33.9252C117.12 34.0923 116.458 34.2594 115.631 34.2594C114.639 34.2594 114.142 34.0923 114.142 33.5909C114.142 33.2567 113.812 32.9224 113.481 32.9224C113.15 32.9224 112.819 32.5882 112.819 32.2539C112.819 31.9197 113.15 31.5854 113.481 31.5854C113.812 31.5854 114.142 31.2512 114.142 30.9169C114.142 30.5827 114.308 30.2485 114.473 30.0813C114.804 29.9142 115.135 30.4156 115.135 31.9197ZM119.767 32.0868C119.767 32.2539 119.105 32.4211 118.278 32.4211C117.616 32.4211 116.624 32.2539 116.624 32.0868C116.458 31.9197 117.12 31.7526 118.113 31.7526C118.94 31.7526 119.767 31.9197 119.767 32.0868ZM114.308 34.9279C114.308 35.095 114.142 35.2622 113.812 35.2622C113.481 35.2622 113.15 35.5964 113.15 35.7635C112.984 36.0978 112.985 35.9306 112.985 35.4293C112.985 34.7608 113.15 34.7608 113.646 34.7608C114.142 34.5937 114.308 34.7608 114.308 34.9279ZM119.932 36.7663C119.767 38.4375 118.94 38.6046 118.94 36.9334C118.94 36.0978 119.105 35.5964 119.602 35.5964C119.932 35.7635 120.098 36.0978 119.932 36.7663ZM114.308 37.1005C114.308 37.2676 113.977 37.4348 113.646 37.4348C112.984 37.4348 112.984 37.4348 113.481 37.1005C113.977 36.9334 114.142 36.7663 114.308 36.7663C114.308 36.7663 114.308 36.9334 114.308 37.1005Z" fill="black"/>
<path d="M139.947 27.9087C139.947 28.4101 139.451 28.5772 137.466 28.5772C135.315 28.5772 134.984 28.5772 134.984 29.2457C134.984 29.9142 135.315 29.9142 136.308 29.9142C137.135 29.9142 137.631 30.0813 137.962 30.5827C138.624 31.5854 138.458 31.7526 136.97 31.7526H135.481V35.9306C135.481 39.7745 135.481 40.1087 136.142 40.1087C136.804 40.1087 136.804 39.7745 136.804 37.6019C136.804 35.4293 136.804 35.095 137.466 35.2622C137.797 35.4293 138.127 35.4293 138.127 35.4293C138.293 35.4293 138.293 36.2649 138.293 37.2676V39.106L139.451 38.9389C141.271 38.6046 143.587 39.106 143.587 39.6074C143.587 40.2759 144.579 40.2759 145.572 39.9416C146.068 39.7745 146.233 39.106 146.233 35.7635V31.7526H144.745C143.09 31.7526 143.09 31.7526 143.752 30.5827C144.083 30.0813 144.414 29.9142 145.406 29.9142C146.399 29.9142 146.73 29.7471 146.73 29.2457C146.73 28.5772 146.399 28.5772 144.248 28.5772C142.263 28.5772 141.767 28.4101 141.932 27.9087C142.098 27.4074 141.932 27.2402 141.271 27.2402C140.113 27.2402 139.947 27.5745 139.947 27.9087ZM141.767 30.0813C141.932 30.2485 141.767 30.7498 141.601 30.9169C141.105 31.7526 139.616 31.5854 139.616 30.5827C139.451 29.9142 139.616 29.9142 140.443 29.9142C141.105 29.7471 141.601 29.9142 141.767 30.0813ZM137.797 33.5909C137.631 33.758 137.3 33.9252 137.135 33.9252C136.804 33.9252 136.639 33.758 136.639 33.5909C136.639 33.4238 136.969 33.2567 137.3 33.2567C137.631 33.0896 137.962 33.2567 137.797 33.5909ZM141.271 34.0923C141.271 34.9279 141.436 34.9279 142.925 34.9279H144.579V36.5991C144.579 37.6019 144.414 38.2704 144.083 38.4375C143.421 38.7717 143.256 38.4375 143.256 36.7663V35.4293H140.94H138.624L139.451 34.4265C140.113 32.9224 141.271 32.7553 141.271 34.0923ZM143.421 33.2567C143.421 33.4238 143.256 33.5909 143.09 33.758C142.925 33.9252 142.759 33.758 142.759 33.5909C142.759 33.4238 142.925 33.0895 143.09 33.0895C143.256 33.0895 143.421 33.2567 143.421 33.2567ZM141.436 37.1005C141.271 37.2676 140.774 37.4348 140.609 37.4348C140.278 37.4348 139.947 37.2676 139.782 37.1005C139.616 36.9334 140.113 36.7663 140.609 36.7663C141.271 36.7663 141.601 36.9334 141.436 37.1005Z" fill="black"/>
<path d="M161.785 27.9093C161.785 28.2435 161.454 28.5777 160.958 28.5777C160.13 28.5777 160.13 28.7449 160.13 30.7503C160.13 31.9202 159.965 32.923 159.8 32.923C159.634 32.923 159.469 33.4243 159.469 34.0928C159.469 34.7613 159.634 35.0956 159.8 34.9284C160.296 34.5942 160.296 36.5997 159.8 38.1038C159.303 39.2736 159.8 40.2764 160.461 40.2764C160.958 40.2764 161.454 38.2709 161.619 36.2654C161.619 34.5942 161.619 34.5942 161.785 35.9312C161.95 36.9339 162.116 37.2682 162.612 37.2682C163.274 37.2682 163.274 36.9339 163.439 35.5969C163.604 34.0928 163.604 34.0928 163.604 35.9312C163.604 37.4353 163.604 37.9366 162.943 38.1038C162.116 38.7723 162.446 40.1093 163.439 40.1093C164.762 40.1093 165.093 39.4408 165.093 36.7668C165.093 34.9284 165.259 34.0928 165.755 33.7586C166.086 33.4243 166.417 33.2572 166.417 33.4243C166.417 33.5914 166.748 33.2572 167.078 32.7558C167.575 32.2545 167.74 31.4188 167.74 30.5832C167.74 29.5805 167.906 29.0791 168.402 29.0791C168.898 29.0791 169.063 29.5805 169.063 31.0846V33.0901H170.552C172.041 33.0901 172.703 32.4216 172.703 31.0846C172.703 30.249 171.545 29.9147 170.883 30.5832C170.387 31.2517 170.387 30.9175 170.387 29.4134V27.4079H168.402H165.92V28.7449C165.92 29.4134 165.59 30.5832 165.259 30.7503C164.762 31.4188 164.762 31.4188 164.597 29.7476C164.597 28.2435 164.432 27.9093 163.935 27.9093C163.439 27.9093 163.274 27.575 163.274 27.2408C163.274 26.9065 162.943 26.5723 162.446 26.5723C161.95 26.5723 161.785 27.575 161.785 27.9093ZM163.439 31.0846C163.274 32.2545 163.108 32.4216 162.446 32.5887C161.619 32.7558 161.454 32.5887 161.454 31.4188C161.454 29.9147 161.619 29.5805 162.777 29.5805C163.439 29.7476 163.439 29.9147 163.439 31.0846Z" fill="black"/>
<path d="M161.954 30.9185C162.12 31.4199 162.12 31.7541 162.12 31.9212C162.12 32.0884 162.451 32.2555 162.781 32.2555C163.112 32.2555 163.443 31.9212 163.443 31.2527C163.443 30.4171 163.278 30.25 162.781 30.25C162.285 30.25 161.789 30.4171 161.954 30.9185Z" fill="black"/>
<path d="M186.107 28.579C186.107 29.7489 185.942 29.916 185.28 29.916C184.619 29.916 184.453 30.0831 184.453 30.5845C184.453 31.0859 184.784 31.253 185.115 31.253C185.942 31.253 185.942 31.9215 185.115 34.2612C184.453 35.7653 184.453 36.2667 184.784 36.6009C185.115 37.1023 185.446 37.1023 185.611 36.7681C186.107 36.4338 186.107 36.7681 186.107 38.2722C186.107 39.9434 186.273 40.1105 186.769 40.1105C187.431 40.1105 187.431 39.7763 187.431 37.7708C187.431 35.7653 187.431 35.4311 187.927 35.7653C188.423 36.0996 188.589 35.9324 188.92 35.264C189.25 34.5955 189.581 34.4283 190.408 34.4283C191.897 34.4283 191.732 34.9297 189.747 36.7681C188.093 38.2722 188.093 38.4393 188.754 38.7735C189.416 39.442 189.416 39.442 190.739 38.2722L192.063 37.2694V38.7735C192.063 39.9434 192.228 40.2776 192.724 40.2776C193.386 40.2776 193.386 39.9434 193.386 38.7735V37.2694L194.379 38.2722C195.371 39.2749 195.537 39.2749 196.198 38.7735C196.86 38.2722 196.695 38.105 195.537 36.7681C194.875 36.0996 194.213 35.0968 194.213 34.9297C194.213 34.7626 194.875 34.5955 195.537 34.5955C196.529 34.5955 196.86 34.4283 196.86 33.927C196.86 33.2585 196.529 33.2585 195.206 33.2585C193.717 33.2585 193.552 33.2585 193.717 32.4229C193.717 31.7544 194.213 31.5872 195.04 31.5872C195.702 31.5872 196.198 31.253 196.198 30.9187C196.198 30.5845 195.702 30.2503 195.04 30.2503C194.048 30.0831 193.882 30.0831 193.882 28.9133C193.882 27.9105 193.882 27.7434 193.221 27.7434C192.559 27.7434 192.394 27.9105 192.394 28.7461C192.394 29.4146 192.228 29.916 191.897 30.0831C191.566 30.2503 191.566 30.0831 191.566 29.4146C191.732 28.7461 191.566 28.579 191.236 28.579C190.905 28.579 190.574 28.4119 190.243 28.4119C189.747 28.2448 189.581 28.7461 189.581 30.0831C189.416 30.9187 189.25 31.5872 189.085 31.0859C188.92 30.7516 188.589 30.4174 188.258 30.4174C187.596 30.4174 187.596 30.2503 187.596 29.2475C187.596 28.2448 187.596 28.0776 186.935 27.9105C186.273 27.242 186.107 27.4092 186.107 28.579ZM192.228 32.0886C192.394 32.7571 192.228 32.7571 191.566 32.7571C190.574 32.7571 190.408 32.59 190.905 31.5872C191.401 30.7516 192.063 30.9187 192.228 32.0886ZM188.92 31.5872C188.754 31.7544 189.085 32.0886 189.416 32.2557C190.078 32.59 190.078 32.59 189.416 32.7571C189.085 32.7571 188.754 32.7571 188.589 32.7571C188.423 32.7571 188.258 32.4229 187.927 32.0886C187.762 31.4201 187.762 31.4201 188.423 31.4201C188.754 31.253 189.085 31.4201 188.92 31.5872Z" fill="black"/>
<path d="M215.55 28.4101L215.385 29.58L212.407 29.7471C209.761 29.9142 209.43 29.9142 209.43 30.4156C209.43 31.0841 209.761 31.0841 212.573 31.0841H215.716L216.047 33.2567C216.543 36.0978 217.37 37.769 218.694 38.9389C220.182 40.2759 221.01 40.1087 221.671 38.6046C222.168 37.6019 222.168 37.4348 221.671 36.7663C221.01 36.0978 220.513 36.0978 220.513 36.7663C220.513 37.4348 219.852 37.4348 219.024 36.432C218.363 35.7635 217.536 32.7553 217.536 31.5854C217.536 31.4183 218.528 31.2512 219.686 31.2512C221.671 31.2512 221.837 31.2512 221.837 30.5827C221.837 29.9142 221.506 29.9142 220.844 29.9142C219.686 29.9142 219.521 29.58 220.182 29.0786C220.844 28.4101 219.521 27.4074 218.528 27.7416C217.866 28.0759 217.866 28.4101 218.528 28.9115C219.19 29.58 219.19 29.9142 218.363 29.9142C217.701 29.9142 217.701 29.58 217.701 28.5772C217.701 27.5745 217.536 27.2402 216.874 27.2402C216.047 27.4074 215.55 27.5745 215.55 28.4101Z" fill="black"/>
<path d="M239.369 28.0761C239.203 28.5775 237.88 29.246 236.722 29.9145C234.737 30.9172 234.406 31.0843 234.737 31.7528C234.902 32.0871 235.398 32.4213 235.398 32.4213C235.398 32.4213 235.729 33.0898 235.729 33.9254V35.4295H240.527H245.324V34.0925C245.324 33.424 245.655 32.4213 245.986 32.0871C246.482 31.5857 246.647 31.2514 246.647 31.0843C246.647 30.9172 245.986 30.5829 244.828 30.2487C243.835 29.9145 242.677 29.0788 241.85 28.4103C241.023 27.0734 239.865 27.0734 239.369 28.0761ZM241.85 30.0816C241.85 30.0816 241.519 30.2487 240.858 30.2487C239.865 30.2487 239.7 30.2487 240.196 29.5802C240.527 29.0788 240.858 29.0788 241.188 29.4131C241.354 29.7473 241.685 30.0816 241.85 30.0816ZM244.662 31.9199C244.828 32.0871 243.008 32.0871 240.858 32.0871C238.707 32.0871 236.887 31.9199 237.053 31.7528C237.218 31.4186 244.166 31.4186 244.662 31.9199ZM239.7 33.5912C239.7 33.9254 239.7 34.2597 239.534 34.2597C239.534 34.2597 239.369 33.9254 239.203 33.5912C239.038 33.2569 239.203 32.9227 239.369 32.9227C239.534 33.0898 239.7 33.424 239.7 33.5912ZM242.016 33.5912C241.85 33.9254 241.685 34.2597 241.685 34.2597C241.685 34.2597 241.519 33.9254 241.519 33.5912C241.519 33.2569 241.685 32.9227 241.85 32.9227C242.016 32.9227 242.181 33.424 242.016 33.5912ZM238.045 33.7583C238.211 33.9254 238.045 34.0925 237.88 34.0925C237.714 34.0925 237.384 33.9254 237.384 33.7583C237.384 33.5912 237.384 33.424 237.549 33.424C237.714 33.5912 237.88 33.5912 238.045 33.7583Z" fill="black"/>
<path d="M86.3523 30.4167V33.0907H85.3597C84.5326 33.0907 84.3672 33.2578 84.3672 33.7592C84.3672 34.4276 84.5326 34.4276 85.3597 34.4276C86.3523 34.4276 86.3523 34.4276 86.3523 36.0989C86.3523 37.4359 86.1869 37.7701 85.6906 37.9372C85.0289 38.1044 84.698 39.1071 85.0289 39.7756C85.1943 39.9427 86.3523 39.7756 89.8263 39.1071C90.3225 38.94 90.488 38.6057 90.488 38.2715C90.488 37.603 90.3225 37.603 89.33 37.603C88.172 37.7701 88.172 37.603 88.0066 36.0989C87.8411 34.7619 88.0066 34.5948 88.6683 34.5948C89.1646 34.5948 89.4954 35.0961 89.9917 35.5975C90.6534 36.9345 92.6385 38.7728 94.1273 39.4413C95.2853 40.1098 95.2853 40.1098 96.1125 39.2742L96.7742 38.6057L95.1199 37.9372L93.4656 37.2687L94.2928 36.6002C94.9545 35.9318 94.9545 35.9318 94.6236 35.4304C94.1273 34.929 93.9619 34.929 93.1348 35.4304C92.4731 35.9318 92.4731 35.9318 91.8114 35.0961C91.1497 34.4276 91.1497 34.4276 93.7965 34.4276C96.2779 34.4276 96.6087 34.4276 96.6087 33.7592C96.6087 33.0907 96.2779 33.0907 92.1422 33.0907C89.33 33.0907 87.8411 32.9235 88.0066 32.7564C88.172 32.5893 89.6608 32.4222 91.3151 32.4222C93.7965 32.4222 94.4582 32.255 94.4582 31.7537C94.4582 31.2523 93.7965 31.0852 91.1497 31.0852C89.1646 31.0852 87.8411 30.9181 88.0066 30.7509C88.172 30.5838 89.6608 30.4167 91.3151 30.4167C93.7965 30.4167 94.4582 30.2496 94.4582 29.7482C94.4582 29.2468 93.7965 29.0797 91.1497 29.0797C89.1646 29.0797 87.8411 28.9126 87.8411 28.7455C87.8411 28.5783 89.33 28.4112 91.3151 28.4112C94.2928 28.4112 94.7891 28.2441 94.7891 27.7427C94.7891 27.2413 94.1273 27.0742 90.3225 27.0742H86.0215V29.7482H86.3523V30.4167Z" fill="black"/>
<path d="M260.219 28.2447C260.219 28.746 260.715 28.9132 262.535 28.9132C264.354 28.9132 264.851 28.746 264.851 28.2447C264.851 27.7433 264.354 27.5762 262.535 27.5762C260.715 27.7433 260.219 27.7433 260.219 28.2447Z" fill="black"/>
<path d="M267.662 29.7488C267.662 31.7543 267.662 31.9214 266.835 31.9214C266.174 31.9214 266.008 32.0885 266.008 32.5899C266.008 33.2584 266.339 33.2584 266.835 33.2584C267.662 33.2584 267.662 33.2584 267.662 35.5981V37.9378H266.339C265.346 37.9378 265.016 38.1049 265.016 38.6063C265.016 39.2748 265.346 39.2748 268.324 39.2748C271.302 39.2748 271.633 39.2748 271.633 38.6063C271.633 37.9378 271.302 37.9378 270.64 37.9378H269.648V35.5981C269.648 33.4255 269.648 33.2584 270.475 33.2584C271.136 33.2584 271.302 33.0912 271.302 32.5899C271.302 31.9214 270.971 31.9214 270.475 31.9214C269.648 31.9214 269.648 31.9214 269.813 29.7488C269.978 27.5762 269.978 27.5762 268.986 27.5762C267.662 27.7433 267.662 27.7433 267.662 29.7488Z" fill="black"/>
<path d="M259.719 30.9184C259.719 31.5869 260.05 31.5869 260.711 31.5869H261.704V35.765C261.704 39.6088 261.704 39.9431 262.366 39.9431C263.027 39.9431 263.027 39.6088 263.027 35.765V31.7541H263.854C264.516 31.7541 264.682 31.5869 264.682 31.0856C264.682 30.4171 264.351 30.4171 262.035 30.4171C260.05 30.2499 259.719 30.2499 259.719 30.9184Z" fill="black"/>
<path d="M259.718 34.4271C259.718 35.2627 259.553 36.4326 259.553 37.1011C259.387 37.9367 259.387 38.2709 260.049 38.2709C260.711 38.2709 261.207 37.1011 261.207 34.4271C261.207 33.0901 261.042 32.7559 260.545 32.7559C259.884 32.7559 259.718 33.0901 259.718 34.4271Z" fill="black"/>
<path d="M263.688 35.2627C263.688 37.4353 263.688 37.7696 264.349 37.7696C265.011 37.7696 265.011 37.4353 265.011 35.2627C265.011 33.0901 265.011 32.7559 264.349 32.7559C263.853 32.7559 263.688 33.0901 263.688 35.2627Z" fill="black"/>
<path d="M209.43 33.7592C209.43 34.4277 209.761 34.4277 210.753 34.4277C212.077 34.4277 212.077 34.4277 212.077 36.0989C212.077 37.603 212.077 37.7701 210.753 37.9373C209.926 38.1044 209.43 38.4386 209.43 38.7729C209.43 39.6085 209.761 39.7756 211.084 39.4414C211.746 39.2743 213.069 38.94 214.392 38.7729C216.047 38.4386 216.378 38.2715 216.378 37.7701C216.378 37.2688 216.212 37.1016 214.889 37.2688L213.4 37.603V36.0989C213.4 34.5948 213.4 34.5948 214.392 34.5948C215.22 34.5948 215.385 34.4277 215.385 33.9263C215.385 33.2578 215.054 33.2578 212.242 33.2578C209.595 33.2578 209.43 33.2578 209.43 33.7592Z" fill="black"/>
<path d="M165.761 36.9351C165.761 40.1105 165.761 40.1104 166.588 40.1104C167.084 40.1104 167.415 39.9433 167.415 39.7762C167.415 39.6091 167.911 39.442 168.242 39.442C168.573 39.442 169.069 39.6091 169.069 39.7762C169.069 39.9433 169.565 40.1104 169.896 40.1104C170.723 40.1104 170.723 40.1105 170.723 36.9351V33.7598H168.077H165.43L165.761 36.9351ZM169.235 36.6009C169.235 37.7707 169.069 37.9378 168.407 37.9378C167.746 37.9378 167.58 37.7707 167.58 36.6009C167.58 35.431 167.746 35.2639 168.407 35.2639C169.235 35.2639 169.235 35.431 169.235 36.6009Z" fill="black"/>
<path d="M236.391 37.7692V39.7746H240.526H244.662V37.7692V35.7637H240.526H236.391V37.7692ZM241.684 37.1007C241.023 37.1007 239.699 37.1007 239.203 37.1007C238.541 37.1007 239.203 36.9335 240.526 36.9335C242.015 36.9335 242.511 36.9335 241.684 37.1007ZM241.684 38.4376C241.023 38.4376 239.699 38.4376 239.203 38.4376C238.541 38.4376 239.203 38.2705 240.526 38.2705C242.015 38.2705 242.511 38.4376 241.684 38.4376Z" fill="black"/>
<path d="M88.3345 45.4576C87.1765 45.6247 85.3568 47.7973 85.026 49.3014C84.3643 53.4795 87.5074 56.8219 91.3122 55.6521C95.7787 54.3151 96.1096 47.2959 91.9739 45.6247C90.6505 45.1233 89.6579 45.1233 88.3345 45.4576ZM91.6431 47.1288C93.2973 47.7973 93.959 50.6384 93.1319 52.4767C91.9739 54.6493 89.3271 55.3178 87.5074 53.6466C86.6803 52.9781 86.5148 52.4767 86.5148 50.4713C86.5148 48.4658 86.6803 48.1315 87.5074 47.2959C88.6654 46.4603 90.1542 46.2932 91.6431 47.1288Z" fill="black"/>
<path d="M101.405 45.4576C100.247 45.6247 98.4272 47.7973 98.0963 49.3014C97.4346 53.4795 100.578 56.8219 104.383 55.6521C108.849 54.3151 109.18 47.2959 105.044 45.6247C103.886 45.1233 103.059 45.1233 101.405 45.4576ZM105.044 47.1288C106.698 47.7973 107.36 50.6384 106.533 52.4767C105.375 54.6493 102.728 55.3178 100.909 53.6466C100.081 52.9781 99.916 52.4767 99.916 50.4713C99.916 48.4658 100.081 48.1315 100.909 47.2959C101.901 46.4603 103.555 46.2932 105.044 47.1288Z" fill="black"/>
<path d="M115.139 45.4576C113.981 45.6247 112.162 47.7973 111.831 49.3014C111.169 53.4795 114.312 56.8219 118.117 55.6521C122.583 54.3151 122.914 47.2959 118.779 45.6247C117.621 45.1233 116.793 45.1233 115.139 45.4576ZM118.613 47.1288C120.267 47.7973 120.929 50.6384 120.102 52.4767C118.944 54.6493 116.297 55.3178 114.478 53.6466C113.65 52.9781 113.485 52.4767 113.485 50.4713C113.485 48.4658 113.65 48.1315 114.478 47.2959C115.47 46.4603 117.124 46.2932 118.613 47.1288Z" fill="black"/>
<path d="M131.516 46.4611C131.516 47.9652 132.012 49.1351 132.343 48.6337C132.508 48.4666 132.674 47.631 132.839 46.6283C133.004 45.1242 133.004 44.957 132.177 44.957C131.681 45.1242 131.516 45.4584 131.516 46.4611Z" fill="black"/>
<path d="M133.992 46.7943C133.992 48.9669 134.819 49.3011 135.15 47.2956C135.481 45.2902 135.481 45.123 134.654 45.123C134.158 45.123 133.992 45.4573 133.992 46.7943Z" fill="black"/>
<path d="M142.594 45.4573C139.451 46.2929 138.293 49.9696 139.948 53.4792C141.437 56.8216 146.068 56.9888 147.888 54.1477C148.55 53.1449 148.55 52.8107 148.219 52.4764C147.557 51.9751 147.226 51.9751 147.226 52.6436C147.226 53.4792 145.407 54.649 144.083 54.649C143.422 54.649 142.429 54.3148 141.933 53.8134C141.106 53.1449 140.94 52.6436 140.94 50.6381C140.94 48.6326 141.106 48.2984 141.933 47.4627C143.256 46.2929 145.241 46.2929 146.399 47.4627C147.226 48.2984 148.384 48.6326 148.384 48.1312C148.384 47.9641 147.888 47.2956 147.392 46.6271C146.068 45.4573 144.083 44.9559 142.594 45.4573Z" fill="black"/>
<path d="M152.023 50.6375C152.023 55.8183 152.023 56.1526 152.685 56.1526C153.181 56.1526 154.174 54.9827 156.159 51.9745L158.971 47.6293L159.137 51.9745C159.137 55.3169 159.302 56.1526 159.798 56.1526C160.295 56.1526 160.46 55.3169 160.46 50.6375C160.46 43.4512 160.129 43.4512 156.325 49.4676L153.512 53.8128V49.4676C153.512 45.4567 153.512 45.1224 152.851 45.1224C152.189 45.1224 152.023 45.4567 152.023 50.6375Z" fill="black"/>
<path d="M164.766 50.6392C164.766 55.82 164.766 56.1543 165.427 56.1543C166.089 56.1543 166.089 55.82 166.089 53.6474V50.9735H168.736H171.383V53.4803C171.383 55.6529 171.383 55.9872 172.044 55.9872C172.706 55.9872 172.706 55.6529 172.706 50.4721C172.706 45.2913 172.706 44.957 172.044 44.957C171.383 44.957 171.383 45.2913 171.383 47.1296V49.3022H168.736H165.924V47.1296C165.924 45.1242 165.924 44.957 165.262 44.957C164.766 45.1242 164.766 45.4584 164.766 50.6392Z" fill="black"/>
<path d="M180.483 45.4576C179.325 45.6247 177.505 47.7973 177.174 49.3014C176.513 53.4795 179.656 56.8219 183.461 55.6521C187.927 54.3151 188.258 47.2959 184.122 45.6247C182.964 45.1233 181.972 45.1233 180.483 45.4576ZM183.957 47.1288C185.611 47.7973 186.273 50.6384 185.446 52.4767C184.288 54.6493 181.641 55.3178 179.821 53.6466C178.994 52.9781 178.829 52.4767 178.829 50.4713C178.829 48.4658 178.994 48.1315 179.821 47.2959C180.979 46.4603 182.468 46.2932 183.957 47.1288Z" fill="black"/>
<path d="M191.234 50.6392C191.234 55.82 191.234 56.1543 191.896 56.1543C192.558 56.1543 192.558 55.82 192.558 53.6474C192.558 52.1433 192.723 51.1406 192.889 51.1406C193.55 51.1406 194.377 52.1433 195.701 54.1488C196.528 55.6529 197.355 56.1543 197.686 56.1543C198.182 56.1543 198.348 56.1543 198.348 55.9872C198.348 55.6529 195.701 51.4748 195.205 51.1406C194.874 50.8063 194.874 50.4721 195.866 48.8009C196.528 47.7981 197.19 46.7954 197.686 46.6283C198.513 46.294 198.513 45.4584 197.686 45.4584C196.693 45.4584 195.866 46.1269 194.708 48.1324C194.047 49.1351 193.385 49.9707 193.054 50.1378C192.392 50.305 192.392 49.9707 192.392 47.9652C192.392 45.9598 192.392 45.6255 191.731 45.6255C191.234 45.1241 191.234 45.4584 191.234 50.6392Z" fill="black"/>
<path d="M204.631 45.4576C203.473 45.6247 201.654 47.7973 201.323 49.3014C200.661 53.4795 203.804 56.8219 207.609 55.6521C212.076 54.3151 212.406 47.2959 208.271 45.6247C207.113 45.1233 206.12 45.1233 204.631 45.4576ZM207.94 47.1288C209.594 47.7973 210.256 50.6384 209.429 52.4767C208.271 54.6493 205.624 55.3178 203.804 53.6466C202.977 52.9781 202.812 52.4767 202.812 50.4713C202.812 48.4658 202.977 48.1315 203.804 47.2959C204.962 46.4603 206.451 46.2932 207.94 47.1288Z" fill="black"/>
<path d="M215.383 50.639C215.383 55.8198 215.383 56.154 216.045 56.154C216.706 56.154 216.706 55.8198 216.706 54.1486V52.1431L219.353 51.9759C221.338 51.8088 222 51.6417 222.662 50.9732C223.489 49.9705 223.489 47.6307 222.662 46.4609C222 45.7924 221.669 45.6253 218.691 45.4581L215.383 45.291V50.639ZM221.338 46.9622C222 47.6307 222 49.302 221.007 49.8033C220.511 49.9705 219.518 50.1376 218.526 50.1376H216.706V48.2992V46.4609H218.691C219.849 46.628 221.007 46.7951 221.338 46.9622Z" fill="black"/>
<path d="M233.25 50.639C233.25 55.8198 233.25 56.154 233.912 56.154C234.573 56.154 234.573 55.8198 234.573 54.1486V52.1431L237.22 51.9759C239.205 51.8088 239.867 51.6417 240.529 50.9732C241.356 49.9705 241.356 47.6307 240.529 46.4609C239.867 45.7924 239.536 45.6253 236.559 45.4581L233.25 45.291V50.639ZM239.205 46.9622C239.867 47.6307 239.867 49.302 238.874 49.8033C238.378 49.9705 237.386 50.1376 236.393 50.1376H234.573V48.2992V46.4609H236.559C237.882 46.628 238.875 46.7951 239.205 46.9622Z" fill="black"/>
<path d="M243.836 45.2913C243.836 45.4584 244.663 47.2968 245.821 49.3022C247.806 52.979 247.806 53.1461 247.31 53.9817C246.814 54.6502 246.483 54.8173 245.821 54.6502C244.829 54.4831 244.663 55.3187 245.656 55.6529C247.144 56.1543 247.641 55.4858 249.626 51.4748C250.618 49.4694 251.776 46.9625 252.107 46.294C252.769 44.957 252.769 44.957 252.107 44.957C251.611 44.957 251.28 45.4584 250.618 46.7954C250.122 47.7981 249.626 49.3022 249.13 50.1379L248.468 51.8091L246.648 48.4666C245.656 46.6283 244.663 45.1242 244.332 45.1242C244.167 45.1242 243.836 45.2913 243.836 45.2913Z" fill="black"/>
<path d="M259.391 45.4573C256.248 46.2929 255.09 49.9696 256.745 53.4792C258.233 56.8216 262.865 56.9888 264.685 54.1477C265.347 53.1449 265.347 52.8107 265.016 52.4764C264.354 51.9751 264.023 51.9751 264.023 52.6436C264.023 53.4792 262.204 54.649 260.88 54.649C260.219 54.649 259.226 54.3148 258.73 53.8134C257.903 53.1449 257.737 52.6436 257.737 50.6381C257.737 48.6326 257.903 48.2984 258.73 47.4627C260.053 46.2929 262.038 46.2929 263.196 47.4627C264.023 48.2984 265.181 48.6326 265.181 48.1312C265.181 47.9641 264.685 47.2956 264.189 46.6271C262.865 45.4573 260.88 44.9559 259.391 45.4573Z" fill="black"/>
<path d="M268.656 46.4611C268.656 47.9652 269.153 49.1351 269.483 48.6337C269.649 48.4666 269.814 47.631 269.98 46.6283C270.145 45.1242 270.145 44.957 269.318 44.957C268.822 45.1242 268.656 45.4584 268.656 46.4611Z" fill="black"/>
<path d="M271.297 46.7943C271.297 48.9669 272.124 49.3011 272.455 47.2956C272.786 45.2902 272.786 45.123 271.959 45.123C271.297 45.123 271.297 45.4573 271.297 46.7943Z" fill="black"/>
<path d="M68.1521 33.2581L67.9867 34.5951L42.8419 34.7622C22.9907 34.7622 17.697 34.7622 17.5316 34.2608C17.3662 34.0937 17.3662 33.5923 17.2008 33.2581H16.5391C16.5391 34.0937 16.7045 35.0964 16.8699 35.932C17.2008 37.1019 17.697 39.2745 18.6896 40.9457C19.0205 40.9457 19.1859 40.9457 19.3513 40.9457C19.1859 40.4444 18.855 40.1101 18.855 39.7759L18.5242 38.9403H42.511C58.8882 38.9403 66.4978 39.1074 66.4978 39.4416C66.4978 39.7759 66.167 40.4444 65.8361 41.4471L65.1744 42.9512H42.8419H20.3439L19.6822 41.9485C19.5167 41.7814 19.5167 41.4471 19.3513 41.28C19.0205 41.28 18.855 41.28 18.6896 41.28C18.855 41.7814 19.1859 42.1156 19.3513 42.617C20.6747 45.4581 21.5019 46.6279 23.8178 48.9677C24.1487 48.9677 24.4795 48.9677 24.8104 48.9677V48.4663L23.1561 46.7951H42.8419H62.5276L61.8659 47.6307C61.5351 48.2992 60.8734 48.9677 60.2116 49.3019C59.2191 50.1375 58.392 50.1375 42.8419 50.1375H26.2992L24.8104 48.4663C24.4795 48.4663 24.1487 48.4663 23.8178 48.4663C23.9833 48.6334 24.1487 48.8005 24.3141 48.9677C26.9609 51.6416 28.1189 52.4773 31.0966 53.8142C39.6988 58.1594 49.1281 57.6581 57.0685 52.3101C62.5276 48.8005 65.8361 44.2882 67.9867 38.2718C68.483 36.9348 68.6484 34.9293 68.8138 32.9238C68.6484 33.2581 68.483 33.2581 68.1521 33.2581ZM52.602 54.3156C46.8121 56.8225 38.7062 56.8225 32.9163 54.3156C31.7583 53.6471 32.42 53.6471 42.6764 53.6471C53.0983 53.6471 53.76 53.6471 52.602 54.3156Z" fill="#28348B"/>
<path d="M68.4902 24.4C66.3397 14.874 58.7301 7.01917 49.4662 4.67945C45.8268 3.84383 39.706 3.84383 36.0666 4.67945C27.4645 7.01917 20.3511 13.8712 17.7043 22.5616C17.0426 25.0685 16.5463 28.411 16.7117 31.7534H17.3735V31.0849H42.8491H68.3248L68.1594 32.9233V33.4247C68.4902 33.4247 68.6557 33.4247 68.8211 33.4247C68.9865 30.2493 68.9865 26.9068 68.4902 24.4Z" fill="#FFED00"/>
<path d="M68.4902 24.4C66.3397 14.874 58.7301 7.01917 49.4662 4.67945C45.8268 3.84383 39.706 3.84383 36.0666 4.67945C27.4645 7.01917 20.3511 13.8712 17.7043 22.5616C17.0426 25.0685 16.5463 28.411 16.7117 31.7534H17.3735V31.0849H42.8491H68.3248L68.1594 32.9233V33.4247C68.4902 33.4247 68.6557 33.4247 68.8211 33.4247C68.9865 30.2493 68.9865 26.9068 68.4902 24.4ZM31.1038 28.9123C29.2842 29.5808 27.9607 29.5808 25.8102 29.0794C24.3214 28.5781 23.9905 28.5781 23.6597 29.2466C22.998 29.9151 22.998 29.5808 22.998 26.9068V23.8986L23.6597 25.4027C24.8176 27.5753 26.1411 28.7452 28.1262 28.7452C30.1113 28.7452 31.4347 27.7425 31.4347 26.4055C31.4347 25.0685 30.6076 24.4 27.299 23.063C23.9905 21.726 22.8325 20.5562 22.8325 18.3836C22.8325 16.3781 23.3288 15.3753 24.8176 14.5397C26.3065 13.7041 28.6225 13.537 30.6076 14.3726C31.931 15.0411 31.931 15.0411 32.5927 14.2055C32.9235 13.3699 33.089 13.537 33.089 15.8767V18.5507L32.2618 17.0466C31.4347 15.5425 29.4496 14.2055 28.1262 14.2055C26.8028 14.0384 25.4794 14.874 25.1485 15.8767C24.6522 17.5479 25.1485 17.8822 29.9459 20.0548C32.7581 21.2247 33.5852 22.3945 33.5852 24.7342C33.7507 26.9068 32.7581 28.2438 31.1038 28.9123ZM45.6614 29.0794C42.8491 29.0794 42.3528 28.9123 43.18 28.411C43.8417 27.9096 43.8417 27.7425 42.1874 25.0685C41.3603 23.3973 40.3677 22.0603 40.2023 22.0603C40.0369 22.0603 39.8715 23.2301 39.8715 24.9014C39.8715 27.4082 40.0369 27.9096 40.6986 28.2438C41.3603 28.9123 41.3603 28.9123 38.0518 28.9123C34.9087 28.9123 34.7432 28.7452 35.4049 28.411L36.2321 27.9096V21.2247V14.5397L35.4049 14.0384C34.5778 13.537 34.9087 13.537 38.0518 13.537C41.3603 13.537 41.5257 13.537 40.6986 14.2055C40.0369 14.874 39.8715 15.0411 39.8715 18.0493V21.3918L42.022 18.3836C43.3454 16.5452 44.1725 15.0411 44.1725 14.874C44.1725 14.5397 43.6763 14.2055 43.3454 14.0384C42.6837 13.7041 43.3454 13.7041 45.3305 13.7041H48.1428L46.9848 14.3726C46.3231 14.874 44.9997 16.0438 44.0071 17.2137L42.1874 19.2192L44.6688 23.5644C45.9922 25.9041 47.4811 28.0767 47.9773 28.411C48.9699 29.0794 48.9699 29.0794 45.6614 29.0794ZM61.7077 29.0794H59.5572L57.5721 25.5699C56.4141 23.5644 55.4215 22.2274 55.2561 22.2274C54.7598 22.5616 54.7598 27.2411 55.2561 27.9096C55.4215 28.2438 55.9178 28.5781 56.4141 28.7452C57.0758 29.0794 56.4141 29.2466 53.4364 29.2466C50.4587 29.2466 49.797 29.0794 50.4587 28.7452C51.7822 28.2438 51.9476 27.2411 51.9476 21.2247C51.9476 15.3753 51.6167 14.5397 50.4587 14.2055C49.797 14.0384 51.4513 13.8712 54.0981 13.8712C57.5721 13.8712 59.0609 14.0384 59.8881 14.5397C61.3769 15.2082 61.8732 16.211 61.8732 18.2164C61.8732 20.0548 61.046 21.5589 59.7226 21.8931C59.2263 22.0603 59.5572 22.5616 60.5498 24.7342C61.2115 26.2384 62.5349 27.9096 62.8657 28.2438L63.8583 29.2466L61.7077 29.0794Z" fill="#E30613"/>
<path d="M54.7578 17.8815V21.224H55.9158C57.7355 21.224 58.5626 20.0541 58.5626 17.8815C58.5626 16.2103 58.3972 15.876 57.5701 15.2076C56.9084 14.7062 56.2467 14.5391 55.5849 14.5391C54.9232 14.5391 54.7578 14.5391 54.7578 17.8815Z" fill="#E30613"/>
<path d="M42.8456 56.4882C57.0981 56.4882 68.6521 44.8157 68.6521 30.4169C68.6521 16.0182 57.0981 4.3457 42.8456 4.3457C28.593 4.3457 17.0391 16.0182 17.0391 30.4169C17.0391 44.8157 28.593 56.4882 42.8456 56.4882Z" stroke="black" stroke-width="0.75" stroke-miterlimit="10"/>
</svg>
