<svg width="130" height="41" viewBox="0 0 130 41" fill="none" xmlns="http://www.w3.org/2000/svg">
<g clip-path="url(#clip0_4637_47045)">
<path fill-rule="evenodd" clip-rule="evenodd" d="M1.6689 36.1273H2.12819C2.4264 36.1273 2.54355 36.2444 2.54355 36.4718C2.54355 36.9592 2.28927 37.2985 1.86127 37.2985H1.41462L1.6689 36.1273ZM1.28428 37.9331H1.83078C2.07241 37.9331 2.18423 38.0812 2.18423 38.3404C2.18423 38.9753 1.88003 39.3086 1.53257 39.3086H0.986741L1.28428 37.9331ZM0 39.9432H1.71203C2.45689 39.9432 3.06528 39.1847 3.06528 38.2721C3.06528 37.9084 2.89754 37.6862 2.58735 37.5506C3.08326 37.4527 3.42473 36.7809 3.42473 36.2809C3.42473 35.8432 3.17644 35.492 2.52545 35.492H0.955197L0 39.9432ZM4.67198 35.492L4.21868 37.6253C3.87188 39.2402 3.73475 39.3758 3.47449 39.3758C3.37464 39.3758 3.26348 39.3639 3.20757 39.3447L3.0771 39.9676C3.22621 40.0106 3.3813 40.0232 3.57966 40.0232C4.29323 40.0232 4.68396 39.3639 5.00081 37.8773L5.36691 36.1698H6.27285L5.46609 39.9432H6.31611L7.27133 35.492H4.67198ZM6.65799 39.9432H7.56992L8.08449 38.7846H9.04628L9.00907 39.9432H9.9276L9.89032 35.492H8.74879L6.65799 39.9432ZM8.33259 38.1251L9.15193 36.0539H9.18322L9.08342 38.1251H8.33259ZM11.8814 35.492L11.5839 36.8794C11.3229 38.1061 11.1059 38.6113 10.6653 39.2647H10.3983L10.0636 40.8366H10.8823L11.0747 39.9432H12.9298L12.7375 40.8366H13.5569L13.8916 39.2647H13.6188L14.4255 35.492H11.8814ZM13.4328 36.17L12.7692 39.2649H11.5097C11.8885 38.71 12.1421 38.2048 12.3598 37.1818L12.5768 36.17H13.4328ZM15.1021 35.492L14.1469 39.9432H15.0648L17.0005 36.7128H17.0065C16.8334 37.1135 16.7149 37.5817 16.5665 38.2602L16.2064 39.9432H17.0005L17.9564 35.492H17.0378L15.1021 38.729H15.0954C15.2572 38.3587 15.4249 37.6862 15.5361 37.1565L15.8962 35.492H15.1021ZM19.2906 36.1273H19.7498C20.0474 36.1273 20.1652 36.2444 20.1652 36.4718C20.1652 36.9592 19.9109 37.2985 19.4829 37.2985H19.0356L19.2906 36.1273ZM18.9059 37.9331H19.4517C19.694 37.9331 19.8059 38.0812 19.8059 38.3404C19.8059 38.9753 19.5016 39.3086 19.1542 39.3086H18.6077L18.9059 37.9331ZM17.621 39.9432H19.3337C20.0785 39.9432 20.6862 39.1847 20.6862 38.2721C20.6862 37.9084 20.5185 37.6862 20.2089 37.5506C20.7049 37.4527 21.0464 36.7809 21.0464 36.2809C21.0464 35.8432 20.7981 35.492 20.1464 35.492H18.5768L17.621 39.9432ZM23.2924 35.4119C22.4424 35.4119 21.7474 35.8127 21.5058 36.9349C21.1271 38.7343 21.1024 38.8268 21.1024 39.049C21.1024 39.7884 21.5923 40.0476 22.2999 40.0476C23.1626 40.0476 23.8196 39.6839 24.0619 38.5498C24.4466 36.7372 24.4652 36.6267 24.4652 36.4045C24.4652 35.6712 24.006 35.4119 23.2924 35.4119ZM23.1498 36.0899C23.4354 36.0899 23.5839 36.2692 23.5839 36.5714C23.5839 36.7069 23.5779 36.744 23.1685 38.6544C23.0687 39.1226 22.8084 39.3693 22.4423 39.3693C22.1261 39.3693 21.977 39.2092 21.977 38.9196C21.977 38.79 21.9897 38.7536 22.399 36.8359C22.4982 36.3617 22.7465 36.0899 23.1498 36.0899ZM27.7042 36.9402C27.7847 36.5831 27.7967 36.466 27.7967 36.349C27.7967 35.7571 27.4186 35.4119 26.6924 35.4119C25.7679 35.4119 25.1908 35.8987 24.9678 36.9402C24.583 38.7409 24.5584 38.8645 24.5584 39.0801C24.5584 39.6349 24.8253 40.0476 25.6873 40.0476C26.7484 40.0476 27.2263 39.3691 27.4 38.3587H26.55C26.4195 39.178 26.1652 39.3691 25.8238 39.3691C25.5568 39.3691 25.433 39.2646 25.433 38.9809C25.433 38.8268 25.4949 38.5127 25.8611 36.8423C25.9855 36.2756 26.1779 36.0898 26.5373 36.0898C26.8043 36.0898 26.9287 36.1956 26.9287 36.472C26.9287 36.5712 26.9094 36.6942 26.8535 36.9402H27.7042ZM30.1545 36.1698H31.2096L31.3586 35.492H28.3992L28.2501 36.1698H29.3052L28.4984 39.9432H29.3484L30.1545 36.1698ZM33.2263 35.4119C32.3756 35.4119 31.6806 35.8127 31.439 36.9349C31.0603 38.7343 31.0357 38.8268 31.0357 39.049C31.0357 39.7884 31.5256 40.0476 32.2332 40.0476C33.0959 40.0476 33.7535 39.6839 33.9951 38.5498C34.3798 36.7372 34.3985 36.6267 34.3985 36.4045C34.3985 35.6712 33.9392 35.4119 33.2263 35.4119ZM33.0831 36.0899C33.3687 36.0899 33.5178 36.2692 33.5178 36.5714C33.5178 36.7069 33.5111 36.744 33.1017 38.6544C33.0026 39.1226 32.7423 39.3693 32.3755 39.3693C32.0594 39.3693 31.9109 39.2092 31.9109 38.9196C31.9109 38.79 31.9229 38.7536 32.3322 36.8359C32.4314 36.3617 32.6797 36.0899 33.0831 36.0899ZM36.0866 35.492H35.2365L34.2807 39.9432H35.1307L35.4163 38.6054L35.8443 38.1676L36.2104 39.9432H37.1596L36.5272 37.4217L38.0782 35.492H37.1163L35.6705 37.4217L36.0866 35.492ZM40.9631 36.9402C41.0443 36.5831 41.0563 36.466 41.0563 36.349C41.0563 35.7571 40.6782 35.4119 39.9519 35.4119C39.0274 35.4119 38.4503 35.8987 38.2266 36.9402C37.8425 38.7409 37.8173 38.8645 37.8173 39.0801C37.8173 39.6349 38.0841 40.0476 38.9468 40.0476C40.0079 40.0476 40.4852 39.3691 40.6595 38.3587H39.8089C39.679 39.178 39.4248 39.3691 39.0833 39.3691C38.8163 39.3691 38.6925 39.2646 38.6925 38.9809C38.6925 38.8268 38.7544 38.5127 39.1206 36.8423C39.2444 36.2756 39.4368 36.0898 39.7968 36.0898C40.0638 36.0898 40.1876 36.1956 40.1876 36.472C40.1876 36.5712 40.169 36.6942 40.113 36.9402H40.9631ZM42.7063 35.492H41.8569L40.9011 39.9432H41.7511L42.0366 38.6054L42.4647 38.1676L42.8308 39.9432H43.78L43.1469 37.4217L44.6985 35.492H43.7367L42.2909 37.4217L42.7063 35.492ZM45.1826 35.492L44.2274 39.9432H45.1453L47.081 36.7128H47.0869C46.9139 37.1135 46.7954 37.5817 46.6469 38.2602L46.2869 39.9432H47.081L48.0368 35.492H47.1182L45.1826 38.729H45.1759C45.3377 38.3587 45.5047 37.6862 45.6166 37.1565L45.9767 35.492H45.1826ZM48.6573 35.492L47.7015 39.9432H48.6201L50.5557 36.7128H50.5617C50.388 37.1135 50.2708 37.5757 50.1277 38.2542L49.7616 39.9432H50.5557L51.5116 35.492H50.593L48.6573 38.729H48.6514C48.8124 38.3587 48.9801 37.6928 49.0913 37.1624L49.4514 35.492H48.6573ZM49.4267 34.2842C49.4014 34.3893 49.3895 34.4938 49.3895 34.593C49.3895 34.9375 49.5632 35.2087 50.103 35.2087C50.8226 35.2087 51.0955 34.7596 51.2013 34.2842H50.7607C50.6861 34.6175 50.4751 34.7901 50.2022 34.7901C49.9785 34.7901 49.8481 34.673 49.8481 34.4508C49.8481 34.4019 49.8547 34.3463 49.8667 34.2842H49.4267ZM52.3859 39.9432H53.2979L53.8131 38.7846H54.775L54.7377 39.9432H55.6556L55.619 35.492H54.4767L52.3859 39.9432ZM54.0612 38.1251L54.8799 36.0539H54.9112L54.812 38.1251H54.0612ZM57.6787 36.1273H58.1381C58.4355 36.1273 58.5534 36.2444 58.5534 36.4718C58.5534 36.9592 58.2991 37.2985 57.8711 37.2985H57.4244L57.6787 36.1273ZM57.2941 37.9331H57.8399C58.0822 37.9331 58.1934 38.0812 58.1934 38.3404C58.1934 38.9753 57.8899 39.3086 57.5424 39.3086H56.9966L57.2941 37.9331ZM56.0098 39.9432H57.7218C58.4667 39.9432 59.0751 39.1847 59.0751 38.2721C59.0751 37.9084 58.9074 37.6862 58.5972 37.5506C59.0931 37.4527 59.4345 36.7809 59.4345 36.2809C59.4345 35.8432 59.1863 35.492 58.5353 35.492H56.965L56.0098 39.9432ZM61.792 36.1698H62.8471L62.9955 35.492H60.036L59.8876 36.1698H60.942L60.1352 39.9432H60.9853L61.792 36.1698ZM64.8638 35.4119C64.0138 35.4119 63.3189 35.8127 63.0765 36.9349C62.6985 38.7343 62.6732 38.8268 62.6732 39.049C62.6732 39.7884 63.1637 40.0476 63.8713 40.0476C64.7334 40.0476 65.391 39.6839 65.6333 38.5498C66.018 36.7372 66.0367 36.6267 66.0367 36.4045C66.0367 35.6712 65.5773 35.4119 64.8638 35.4119ZM64.7213 36.0899C65.0062 36.0899 65.1553 36.2692 65.1553 36.5714C65.1553 36.7069 65.1493 36.744 64.7392 38.6544C64.6407 39.1226 64.3798 39.3693 64.0137 39.3693C63.6975 39.3693 63.5484 39.2092 63.5484 38.9196C63.5484 38.79 63.5604 38.7536 63.9704 36.8359C64.0696 36.3617 64.3179 36.0899 64.7213 36.0899ZM66.874 35.492L65.9182 39.9432H66.713L67.569 35.9179H67.5756V39.9432H68.1774L69.8898 35.9119H69.896L69.0334 39.9432H69.8279L70.7833 35.492H69.4241L68.2207 38.3587V35.492H66.874ZM72.8488 35.4119C71.9994 35.4119 71.304 35.8127 71.0618 36.9349C70.6835 38.7343 70.6588 38.8268 70.6588 39.049C70.6588 39.7884 71.1492 40.0476 71.8563 40.0476C72.7188 40.0476 73.3764 39.6839 73.6185 38.5498C74.003 36.7372 74.0216 36.6267 74.0216 36.4045C74.0216 35.6712 73.5628 35.4119 72.8488 35.4119ZM72.7057 36.0899C72.9912 36.0899 73.1405 36.2692 73.1405 36.5714C73.1405 36.7069 73.1343 36.744 72.7243 38.6544C72.6253 39.1226 72.3653 39.3693 71.9987 39.3693C71.6823 39.3693 71.533 39.2092 71.533 38.9196C71.533 38.79 71.5454 38.7536 71.9553 36.8359C72.0551 36.3617 72.3027 36.0899 72.7057 36.0899ZM75.1943 37.8837H75.6841C75.9324 37.8837 76.0569 38.0629 76.0569 38.3459C76.0569 38.4822 75.995 39.3081 75.3807 39.3081H74.8903L75.1943 37.8837ZM74.8593 35.492L73.9033 39.9432H75.5417C76.5349 39.9432 76.9442 38.7846 76.9442 38.2165C76.9442 37.6862 76.6401 37.2061 76.0569 37.2061H75.3436L75.5726 36.1275H77.0989L77.2358 35.492H74.8593ZM78.1534 35.492L77.198 39.9432H78.1162L80.0525 36.7128H80.0587C79.8846 37.1135 79.767 37.5817 79.6178 38.2602L79.258 39.9432H80.0525L81.0079 35.492H80.0896L78.1534 38.729H78.1472C78.3088 38.3587 78.476 37.6862 78.5881 37.1565L78.9478 35.492H78.1534ZM82.0754 35.492L81.6228 37.6253C81.2747 39.2402 81.1385 39.3758 80.8785 39.3758C80.7781 39.3758 80.6674 39.3639 80.6117 39.3447L80.481 39.9676C80.6302 40.0106 80.7843 40.0232 80.9831 40.0232C81.6971 40.0232 82.0878 39.3639 82.4048 37.8773L82.7701 36.1698H83.676L82.8698 39.9432H83.72L84.6754 35.492H82.0754ZM85.6308 37.8837H86.1205C86.3688 37.8837 86.4926 38.0629 86.4926 38.3459C86.4926 38.4822 86.4307 39.3081 85.8165 39.3081H85.3268L85.6308 37.8837ZM86.146 35.492H85.2958L84.3404 39.9432H85.9781C86.9714 39.9432 87.3806 38.7846 87.3806 38.2165C87.3806 37.6862 87.0773 37.2061 86.4933 37.2061H85.7793L86.146 35.492ZM89.4407 35.492H88.5905L87.6344 39.9432H88.4846L88.9255 37.8839H90.048L89.6078 39.9432H90.4573L91.4134 35.492H90.5632L90.1973 37.2061H89.0741L89.4407 35.492ZM92.3694 37.8837H92.8592C93.1075 37.8837 93.2313 38.0629 93.2313 38.3459C93.2313 38.4822 93.1694 39.3081 92.5552 39.3081H92.0654L92.3694 37.8837ZM92.8839 35.492H92.0338L91.0784 39.9432H92.7161C93.7093 39.9432 94.1186 38.7846 94.1186 38.2165C94.1186 37.6862 93.8146 37.2061 93.2313 37.2061H92.5173L92.8839 35.492ZM96.2351 35.492H95.3849L94.4288 39.9432H95.279L96.2351 35.492ZM96.8555 35.492L95.8994 39.9432H96.8176L98.7546 36.7128H98.7594C98.5867 37.1135 98.4684 37.5757 98.3254 38.2542L97.9594 39.9432H98.7546L99.7093 35.492H98.791L96.8555 38.729H96.8493C97.0102 38.3587 97.1781 37.6928 97.2888 37.1624L97.6492 35.492H96.8555ZM97.6245 34.2842C97.5997 34.3893 97.5873 34.4938 97.5873 34.593C97.5873 34.9375 97.7614 35.2087 98.3006 35.2087C99.0201 35.2087 99.2932 34.7596 99.3991 34.2842H98.9582C98.8839 34.6175 98.6727 34.7901 98.4003 34.7901C98.1761 34.7901 98.0468 34.673 98.0468 34.4508C98.0468 34.4019 98.0523 34.3463 98.0647 34.2842H97.6245ZM103.376 36.1698H104.431L104.58 35.492H101.62L101.471 36.1698H102.526L101.719 39.9432H102.569L103.376 36.1698ZM105.001 35.492L104.046 39.9432H106.441L106.59 39.2647H105.045L105.336 37.8839H106.745L106.894 37.2061H105.486L105.703 36.1698H107.247L107.396 35.492H105.001ZM108.215 38.1306H108.96C109.792 38.1306 110.474 37.3231 110.474 36.4542C110.474 35.8987 110.145 35.492 109.537 35.492H107.93L106.974 39.9432H107.824L108.215 38.1306ZM108.638 36.1527H109.066C109.413 36.1527 109.587 36.3127 109.587 36.5964C109.587 37.1327 109.265 37.4719 108.787 37.4719H108.359L108.638 36.1527ZM111.305 35.492L110.351 39.9432H111.144L112.001 35.9179H112.007V39.9432H112.609L114.322 35.9119H114.328L113.465 39.9432H114.26L115.215 35.492H113.857L112.652 38.3587V35.492H111.305ZM115.835 35.492L114.88 39.9432H115.798L117.734 36.7128H117.74C117.566 37.1135 117.448 37.5817 117.299 38.2602L116.939 39.9432H117.734L118.689 35.492H117.77L115.835 38.729H115.829C115.99 38.3587 116.158 37.6862 116.269 37.1565L116.629 35.492H115.835ZM120.16 35.492H119.31L118.354 39.9432H119.204L119.645 37.8839H120.767L120.328 39.9432H121.178L122.133 35.492H121.282L120.916 37.2061H119.794L120.16 35.492ZM121.518 39.9432H122.431L122.946 38.7846H123.907L123.87 39.9432H124.788L124.751 35.492H123.61L121.518 39.9432ZM123.193 38.1251L124.013 36.0539H124.043L123.944 38.1251H123.193ZM126.545 35.492L126.092 37.6253C125.744 39.2402 125.607 39.3758 125.347 39.3758C125.248 39.3758 125.136 39.3639 125.081 39.3447L124.95 39.9676C125.099 40.0106 125.254 40.0232 125.453 40.0232C126.166 40.0232 126.557 39.3639 126.874 37.8773L127.24 36.1698H128.146L127.339 39.9432H128.189L129.144 35.492H126.545Z" fill="#004373"/>
<path fill-rule="evenodd" clip-rule="evenodd" d="M38.5567 12.9492H62.5711L60.6168 21.048H36.6031L38.5567 12.9492ZM39.8683 23.0217H42.1401H60.1424L57.7381 32.9874H27.4141L29.8184 23.0217H39.8683Z" fill="#004373"/>
<path fill-rule="evenodd" clip-rule="evenodd" d="M77.7698 12.917L90.2892 12.9481L88.3355 21.0463H78.2151H75.9433L63.2968 21.0165L77.7698 12.917ZM87.8591 23.0202L85.4555 32.9858H60L62.4043 23.0202H62.6433H62.8836H63.1225H63.3622H63.6018H63.8421H64.0811H64.3207H64.5603H64.8H65.0396H65.2792H65.5188H65.7585H65.9981H66.2377H66.4774H66.717H66.9567H67.1963H67.4359H67.6755H67.9151H68.1548H68.3944H68.6341H68.8737H69.1133H69.3529H69.5926H69.8322H70.0718H70.3115H70.5511H70.7908H71.0304H71.27H71.5096H71.7492H71.9889H72.2285H72.4682H72.7078H72.9468H73.187H73.4267H73.6663H73.9053H74.1449H74.3852H74.6242H74.8638H75.1041H75.3431H75.5827H75.8223H76.0626H76.3016H76.5412H76.7809H77.0211H77.2601H77.4997H77.7394H87.8591Z" fill="#004373"/>
<path fill-rule="evenodd" clip-rule="evenodd" d="M92.5839 12.9492H118.874L110.112 20.8563L100.339 20.9647L100.318 21.048H90.6296L92.5839 12.9492ZM99.8267 23.0217L97.3479 32.9874H87.75L90.1543 23.0217H99.8267Z" fill="#004373"/>
<path fill-rule="evenodd" clip-rule="evenodd" d="M28.064 23.0218L28.0261 22.9834L10.2734 32.9775H25.6325L28.064 23.0218Z" fill="#FBB040"/>
<path fill-rule="evenodd" clip-rule="evenodd" d="M93.2828 0.699488L93.2449 0.661133L75.4922 10.6552H90.8506L93.2828 0.699488Z" fill="#FBB040"/>
</g>
<defs>
<clipPath id="clip0_4637_47045">
<rect width="130" height="41" fill="white"/>
</clipPath>
</defs>
</svg>
