<svg width="60" height="60" viewBox="0 0 60 60" fill="none" xmlns="http://www.w3.org/2000/svg">
<circle cx="30" cy="30" r="29.5" stroke="#87A4BC"/>
<path fill-rule="evenodd" clip-rule="evenodd" d="M20.6165 35.6146C19.6028 35.6146 18.7734 36.442 18.7734 37.4531C18.7734 38.4644 19.6028 39.2917 20.6165 39.2917C21.6302 39.2917 22.4596 38.4644 22.4596 37.4531C22.4596 36.442 21.6302 35.6146 20.6165 35.6146ZM20.6163 40.211C19.0957 40.211 17.8516 38.97 17.8516 37.4532C17.8516 35.9363 19.0957 34.6953 20.6163 34.6953C22.1369 34.6953 23.381 35.9363 23.381 37.4532C23.381 38.97 22.1369 40.211 20.6163 40.211Z" fill="#BCC8D2"/>
<path fill-rule="evenodd" clip-rule="evenodd" d="M20.6169 38.3737C20.11 38.3737 19.6953 37.96 19.6953 37.4544C19.6953 36.9488 20.11 36.5352 20.6169 36.5352C21.1238 36.5352 21.5385 36.9488 21.5385 37.4544C21.5385 37.96 21.1238 38.3737 20.6169 38.3737Z" fill="#BCC8D2"/>
<path fill-rule="evenodd" clip-rule="evenodd" d="M25.2259 35.6146C24.2122 35.6146 23.3828 36.442 23.3828 37.4531C23.3828 38.4644 24.2122 39.2917 25.2259 39.2917C26.2396 39.2917 27.0691 38.4644 27.0691 37.4531C27.0691 36.442 26.2396 35.6146 25.2259 35.6146ZM25.2256 40.211C23.7051 40.211 22.4609 38.97 22.4609 37.4532C22.4609 35.9363 23.7051 34.6953 25.2256 34.6953C26.7462 34.6953 27.9903 35.9363 27.9903 37.4532C27.9903 38.97 26.7462 40.211 25.2256 40.211Z" fill="#BCC8D2"/>
<path fill-rule="evenodd" clip-rule="evenodd" d="M25.2223 38.3737C24.7155 38.3737 24.3008 37.96 24.3008 37.4544C24.3008 36.9488 24.7155 36.5352 25.2223 36.5352C25.7292 36.5352 26.1439 36.9488 26.1439 37.4544C26.1439 37.96 25.7292 38.3737 25.2223 38.3737Z" fill="#BCC8D2"/>
<path fill-rule="evenodd" clip-rule="evenodd" d="M35.3621 35.6146C34.3483 35.6146 33.5189 36.442 33.5189 37.4531C33.5189 38.4644 34.3483 39.2917 35.3621 39.2917C36.3758 39.2917 37.2052 38.4644 37.2052 37.4531C37.2052 36.442 36.3758 35.6146 35.3621 35.6146ZM35.3624 40.211C33.8418 40.211 32.5977 38.97 32.5977 37.4532C32.5977 35.9363 33.8418 34.6953 35.3624 34.6953C36.883 34.6953 38.1271 35.9363 38.1271 37.4532C38.1271 38.97 36.883 40.211 35.3624 40.211Z" fill="#BCC8D2"/>
<path fill-rule="evenodd" clip-rule="evenodd" d="M35.3591 38.3737C34.8522 38.3737 34.4375 37.96 34.4375 37.4544C34.4375 36.9488 34.8522 36.5352 35.3591 36.5352C35.8659 36.5352 36.2806 36.9488 36.2806 37.4544C36.2806 37.96 35.8659 38.3737 35.3591 38.3737Z" fill="#BCC8D2"/>
<path fill-rule="evenodd" clip-rule="evenodd" d="M39.9681 35.6146C38.9544 35.6146 38.125 36.442 38.125 37.4531C38.125 38.4644 38.9544 39.2917 39.9681 39.2917C40.9818 39.2917 41.8112 38.4644 41.8112 37.4531C41.8112 36.442 40.9818 35.6146 39.9681 35.6146ZM39.9678 40.211C38.4472 40.211 37.2031 38.97 37.2031 37.4532C37.2031 35.9363 38.4472 34.6953 39.9678 34.6953C41.4884 34.6953 42.7325 35.9363 42.7325 37.4532C42.7325 38.97 41.4884 40.211 39.9678 40.211Z" fill="#BCC8D2"/>
<path fill-rule="evenodd" clip-rule="evenodd" d="M39.9685 38.3737C39.4616 38.3737 39.0469 37.96 39.0469 37.4544C39.0469 36.9488 39.4616 36.5352 39.9685 36.5352C40.4753 36.5352 40.89 36.9488 40.89 37.4544C40.89 37.96 40.4753 38.3737 39.9685 38.3737Z" fill="#BCC8D2"/>
<path fill-rule="evenodd" clip-rule="evenodd" d="M42.6876 36.9935H43.1945V34.2357H17.3906V36.9935H17.8974C18.1278 35.7066 19.2337 34.6953 20.616 34.6953C21.5837 34.6953 22.4131 35.2009 22.92 35.9363C23.4268 35.2009 24.2562 34.6953 25.2239 34.6953C26.6062 34.6953 27.7121 35.7066 27.9425 36.9935H32.6425C32.8729 35.7066 33.9788 34.6953 35.3612 34.6953C36.3288 34.6953 37.1582 35.2009 37.665 35.9363C38.1719 35.2009 39.0013 34.6953 39.969 34.6953C41.3514 34.6953 42.4572 35.7066 42.6876 36.9935ZM43.655 37.9128H42.2727C41.9962 37.9128 41.8119 37.729 41.8119 37.4532C41.8119 36.442 40.9825 35.6146 39.9688 35.6146C38.955 35.6146 38.1256 36.442 38.1256 37.4532C38.1256 37.729 37.9413 37.9128 37.6648 37.9128C37.3883 37.9128 37.204 37.729 37.204 37.4532C37.204 36.442 36.3746 35.6146 35.3609 35.6146C34.3472 35.6146 33.5178 36.442 33.5178 37.4532C33.5178 37.729 33.3335 37.9128 33.057 37.9128H27.5276C27.2511 37.9128 27.0668 37.729 27.0668 37.4532C27.0668 36.442 26.2374 35.6146 25.2236 35.6146C24.2099 35.6146 23.3805 36.442 23.3805 37.4532C23.3805 37.729 23.1962 37.9128 22.9197 37.9128C22.6433 37.9128 22.4589 37.729 22.4589 37.4532C22.4589 36.442 21.6295 35.6146 20.6158 35.6146C19.6021 35.6146 18.7727 36.442 18.7727 37.4532C18.7727 37.729 18.5883 37.9128 18.3119 37.9128H16.9295C16.653 37.9128 16.4688 37.729 16.4688 37.4532V33.7761C16.4688 33.5003 16.653 33.3164 16.9295 33.3164H43.655C43.9315 33.3164 44.1158 33.5003 44.1158 33.7761V37.4532C44.1158 37.729 43.9315 37.9128 43.655 37.9128Z" fill="#BCC8D2"/>
<path fill-rule="evenodd" clip-rule="evenodd" d="M23.8415 20.4466C20.2935 20.4466 17.3906 23.3424 17.3906 26.8816C17.3906 30.4208 20.2935 33.3165 23.8415 33.3165H36.7435C40.2915 33.3165 43.1945 30.4208 43.1945 26.8816C43.1945 23.3424 40.2915 20.4466 36.7435 20.4466H23.8415ZM36.7433 34.2358H23.8413C19.7864 34.2358 16.4688 30.9264 16.4688 26.8816C16.4688 22.8368 19.7864 19.5273 23.8413 19.5273H36.7433C40.7982 19.5273 44.1158 22.8368 44.1158 26.8816C44.1158 30.9264 40.7982 34.2358 36.7433 34.2358Z" fill="#BCC8D2"/>
<path fill-rule="evenodd" clip-rule="evenodd" d="M27.5272 31.0184C27.2507 31.0184 27.0664 30.8345 27.0664 30.5587V19.987C27.0664 19.7112 27.2507 19.5273 27.5272 19.5273C27.8036 19.5273 27.9879 19.7112 27.9879 19.987V30.5587C27.9879 30.8345 27.8036 31.0184 27.5272 31.0184Z" fill="#BCC8D2"/>
<path fill-rule="evenodd" clip-rule="evenodd" d="M27.5299 22.2864H23.8436C23.5671 22.2864 23.3828 22.1026 23.3828 21.8268C23.3828 21.551 23.5671 21.3672 23.8436 21.3672H27.5299C27.8063 21.3672 27.9906 21.551 27.9906 21.8268C27.9906 22.1026 27.8063 22.2864 27.5299 22.2864Z" fill="#BCC8D2"/>
<path fill-rule="evenodd" clip-rule="evenodd" d="M27.5299 24.1244H23.8436C23.5671 24.1244 23.3828 23.9405 23.3828 23.6647C23.3828 23.3889 23.5671 23.2051 23.8436 23.2051H27.5299C27.8063 23.2051 27.9906 23.3889 27.9906 23.6647C27.9906 23.9405 27.8063 24.1244 27.5299 24.1244Z" fill="#BCC8D2"/>
<path fill-rule="evenodd" clip-rule="evenodd" d="M27.5299 25.9623H23.8436C23.5671 25.9623 23.3828 25.7784 23.3828 25.5026C23.3828 25.2269 23.5671 25.043 23.8436 25.043H27.5299C27.8063 25.043 27.9906 25.2269 27.9906 25.5026C27.9906 25.7784 27.8063 25.9623 27.5299 25.9623Z" fill="#BCC8D2"/>
<path fill-rule="evenodd" clip-rule="evenodd" d="M27.5299 27.8021H23.8436C23.5671 27.8021 23.3828 27.6182 23.3828 27.3424C23.3828 27.0667 23.5671 26.8828 23.8436 26.8828H27.5299C27.8063 26.8828 27.9906 27.0667 27.9906 27.3424C27.9906 27.6182 27.8063 27.8021 27.5299 27.8021Z" fill="#BCC8D2"/>
<path fill-rule="evenodd" clip-rule="evenodd" d="M27.5299 29.64H23.8436C23.5671 29.64 23.3828 29.4561 23.3828 29.1803C23.3828 28.9045 23.5671 28.7207 23.8436 28.7207H27.5299C27.8063 28.7207 27.9906 28.9045 27.9906 29.1803C27.9906 29.4561 27.8063 29.64 27.5299 29.64Z" fill="#BCC8D2"/>
<path fill-rule="evenodd" clip-rule="evenodd" d="M23.8436 31.0184C23.5671 31.0184 23.3828 30.8345 23.3828 30.5587V19.987C23.3828 19.7112 23.5671 19.5273 23.8436 19.5273C24.12 19.5273 24.3044 19.7112 24.3044 19.987V30.5587C24.3044 30.8345 24.12 31.0184 23.8436 31.0184Z" fill="#BCC8D2"/>
<path fill-rule="evenodd" clip-rule="evenodd" d="M29.3703 20.4473C29.0938 20.4473 28.9095 20.2635 28.9095 19.9877C28.9095 18.7926 28.8174 18.6088 28.4488 18.6088C28.0801 18.6088 27.9879 18.7926 27.9879 19.9877C27.9879 20.2635 27.8036 20.4473 27.5272 20.4473C27.2507 20.4473 27.0664 20.2635 27.0664 19.9877C27.0664 19.1143 27.0664 17.6895 28.4488 17.6895C29.8311 17.6895 29.8311 19.0684 29.8311 19.9877C29.8311 20.2635 29.6468 20.4473 29.3703 20.4473Z" fill="#BCC8D2"/>
<path fill-rule="evenodd" clip-rule="evenodd" d="M25.6868 20.4473C25.4103 20.4473 25.2259 20.2635 25.2259 19.9877C25.2259 18.7926 25.1338 18.6088 24.7652 18.6088C24.3965 18.6088 24.3044 18.7926 24.3044 19.9877C24.3044 20.2635 24.12 20.4473 23.8436 20.4473C23.5671 20.4473 23.3828 20.2635 23.3828 19.9877C23.3828 19.1143 23.3828 17.6895 24.7652 17.6895C26.1475 17.6895 26.1475 19.0684 26.1475 19.9877C26.1475 20.2635 25.9632 20.4473 25.6868 20.4473Z" fill="#BCC8D2"/>
<path fill-rule="evenodd" clip-rule="evenodd" d="M38.5878 31.9388H33.0584C32.782 31.9388 32.5977 31.7549 32.5977 31.4792C32.5977 31.2034 32.782 31.0195 33.0584 31.0195H38.5878C38.8643 31.0195 39.0486 31.2034 39.0486 31.4792C39.0486 31.7549 38.8643 31.9388 38.5878 31.9388Z" fill="#BCC8D2"/>
<path fill-rule="evenodd" clip-rule="evenodd" d="M38.5844 30.099H34.4373C34.1609 30.099 33.9766 29.9151 33.9766 29.6394C33.9766 29.3636 34.1609 29.1797 34.4373 29.1797H38.5844C38.8609 29.1797 39.0451 29.3636 39.0451 29.6394C39.0451 29.9151 38.8609 30.099 38.5844 30.099Z" fill="#BCC8D2"/>
</svg>
